%TF.GenerationSoftware,KiCad,Pcbnew,(7.0.0)*%
%TF.CreationDate,2024-02-23T23:29:38+02:00*%
%TF.ProjectId,mains-detector,6d61696e-732d-4646-9574-6563746f722e,rev?*%
%TF.SameCoordinates,Original*%
%TF.FileFunction,Legend,Top*%
%TF.FilePolarity,Positive*%
%FSLAX46Y46*%
G04 Gerber Fmt 4.6, Leading zero omitted, Abs format (unit mm)*
G04 Created by KiCad (PCBNEW (7.0.0)) date 2024-02-23 23:29:38*
%MOMM*%
%LPD*%
G01*
G04 APERTURE LIST*
G04 Aperture macros list*
%AMRoundRect*
0 Rectangle with rounded corners*
0 $1 Rounding radius*
0 $2 $3 $4 $5 $6 $7 $8 $9 X,Y pos of 4 corners*
0 Add a 4 corners polygon primitive as box body*
4,1,4,$2,$3,$4,$5,$6,$7,$8,$9,$2,$3,0*
0 Add four circle primitives for the rounded corners*
1,1,$1+$1,$2,$3*
1,1,$1+$1,$4,$5*
1,1,$1+$1,$6,$7*
1,1,$1+$1,$8,$9*
0 Add four rect primitives between the rounded corners*
20,1,$1+$1,$2,$3,$4,$5,0*
20,1,$1+$1,$4,$5,$6,$7,0*
20,1,$1+$1,$6,$7,$8,$9,0*
20,1,$1+$1,$8,$9,$2,$3,0*%
%AMFreePoly0*
4,1,19,0.500000,-0.750000,0.000000,-0.750000,0.000000,-0.744911,-0.071157,-0.744911,-0.207708,-0.704816,-0.327430,-0.627875,-0.420627,-0.520320,-0.479746,-0.390866,-0.500000,-0.250000,-0.500000,0.250000,-0.479746,0.390866,-0.420627,0.520320,-0.327430,0.627875,-0.207708,0.704816,-0.071157,0.744911,0.000000,0.744911,0.000000,0.750000,0.500000,0.750000,0.500000,-0.750000,0.500000,-0.750000,
$1*%
%AMFreePoly1*
4,1,19,0.000000,0.744911,0.071157,0.744911,0.207708,0.704816,0.327430,0.627875,0.420627,0.520320,0.479746,0.390866,0.500000,0.250000,0.500000,-0.250000,0.479746,-0.390866,0.420627,-0.520320,0.327430,-0.627875,0.207708,-0.704816,0.071157,-0.744911,0.000000,-0.744911,0.000000,-0.750000,-0.500000,-0.750000,-0.500000,0.750000,0.000000,0.750000,0.000000,0.744911,0.000000,0.744911,
$1*%
G04 Aperture macros list end*
%ADD10C,0.150000*%
%ADD11C,0.120000*%
%ADD12C,0.152400*%
%ADD13C,0.010000*%
%ADD14C,0.254000*%
%ADD15RoundRect,0.140000X0.140000X0.170000X-0.140000X0.170000X-0.140000X-0.170000X0.140000X-0.170000X0*%
%ADD16RoundRect,0.135000X-0.185000X0.135000X-0.185000X-0.135000X0.185000X-0.135000X0.185000X0.135000X0*%
%ADD17C,2.200000*%
%ADD18RoundRect,0.150000X-0.825000X-0.150000X0.825000X-0.150000X0.825000X0.150000X-0.825000X0.150000X0*%
%ADD19RoundRect,0.218750X-0.218750X-0.256250X0.218750X-0.256250X0.218750X0.256250X-0.218750X0.256250X0*%
%ADD20RoundRect,0.135000X0.185000X-0.135000X0.185000X0.135000X-0.185000X0.135000X-0.185000X-0.135000X0*%
%ADD21RoundRect,0.150000X-0.587500X-0.150000X0.587500X-0.150000X0.587500X0.150000X-0.587500X0.150000X0*%
%ADD22FreePoly0,0.000000*%
%ADD23FreePoly1,0.000000*%
%ADD24RoundRect,0.225000X0.250000X-0.225000X0.250000X0.225000X-0.250000X0.225000X-0.250000X-0.225000X0*%
%ADD25RoundRect,0.135000X0.135000X0.185000X-0.135000X0.185000X-0.135000X-0.185000X0.135000X-0.185000X0*%
%ADD26RoundRect,0.150000X0.150000X-0.587500X0.150000X0.587500X-0.150000X0.587500X-0.150000X-0.587500X0*%
%ADD27R,1.000000X1.000000*%
%ADD28O,1.000000X1.000000*%
%ADD29RoundRect,0.140000X0.170000X-0.140000X0.170000X0.140000X-0.170000X0.140000X-0.170000X-0.140000X0*%
%ADD30RoundRect,0.140000X-0.170000X0.140000X-0.170000X-0.140000X0.170000X-0.140000X0.170000X0.140000X0*%
%ADD31RoundRect,0.250000X0.312500X0.275000X-0.312500X0.275000X-0.312500X-0.275000X0.312500X-0.275000X0*%
%ADD32R,0.431800X1.193800*%
%ADD33R,0.482600X1.193800*%
%ADD34RoundRect,0.250000X-0.537500X-0.425000X0.537500X-0.425000X0.537500X0.425000X-0.537500X0.425000X0*%
%ADD35FreePoly0,90.000000*%
%ADD36FreePoly1,90.000000*%
%ADD37RoundRect,0.140000X-0.140000X-0.170000X0.140000X-0.170000X0.140000X0.170000X-0.140000X0.170000X0*%
%ADD38RoundRect,0.225000X0.375000X-0.225000X0.375000X0.225000X-0.375000X0.225000X-0.375000X-0.225000X0*%
%ADD39RoundRect,0.135000X-0.135000X-0.185000X0.135000X-0.185000X0.135000X0.185000X-0.135000X0.185000X0*%
%ADD40RoundRect,0.250000X0.537500X0.425000X-0.537500X0.425000X-0.537500X-0.425000X0.537500X-0.425000X0*%
%ADD41R,0.977900X0.508000*%
%ADD42FreePoly0,270.000000*%
%ADD43FreePoly1,270.000000*%
%ADD44R,1.500000X1.500000*%
%ADD45R,0.400000X1.600000*%
%ADD46C,1.300000*%
%ADD47O,1.300000X1.800000*%
%ADD48R,1.800000X1.100000*%
G04 APERTURE END LIST*
D10*
X4817619Y-10938095D02*
X5817619Y-10938095D01*
X5817619Y-10938095D02*
X5103333Y-11271428D01*
X5103333Y-11271428D02*
X5817619Y-11604761D01*
X5817619Y-11604761D02*
X4817619Y-11604761D01*
X4817619Y-12509523D02*
X5341428Y-12509523D01*
X5341428Y-12509523D02*
X5436666Y-12461904D01*
X5436666Y-12461904D02*
X5484285Y-12366666D01*
X5484285Y-12366666D02*
X5484285Y-12176190D01*
X5484285Y-12176190D02*
X5436666Y-12080952D01*
X4865238Y-12509523D02*
X4817619Y-12414285D01*
X4817619Y-12414285D02*
X4817619Y-12176190D01*
X4817619Y-12176190D02*
X4865238Y-12080952D01*
X4865238Y-12080952D02*
X4960476Y-12033333D01*
X4960476Y-12033333D02*
X5055714Y-12033333D01*
X5055714Y-12033333D02*
X5150952Y-12080952D01*
X5150952Y-12080952D02*
X5198571Y-12176190D01*
X5198571Y-12176190D02*
X5198571Y-12414285D01*
X5198571Y-12414285D02*
X5246190Y-12509523D01*
X4817619Y-12985714D02*
X5484285Y-12985714D01*
X5817619Y-12985714D02*
X5770000Y-12938095D01*
X5770000Y-12938095D02*
X5722380Y-12985714D01*
X5722380Y-12985714D02*
X5770000Y-13033333D01*
X5770000Y-13033333D02*
X5817619Y-12985714D01*
X5817619Y-12985714D02*
X5722380Y-12985714D01*
X5484285Y-13461904D02*
X4817619Y-13461904D01*
X5389047Y-13461904D02*
X5436666Y-13509523D01*
X5436666Y-13509523D02*
X5484285Y-13604761D01*
X5484285Y-13604761D02*
X5484285Y-13747618D01*
X5484285Y-13747618D02*
X5436666Y-13842856D01*
X5436666Y-13842856D02*
X5341428Y-13890475D01*
X5341428Y-13890475D02*
X4817619Y-13890475D01*
X4865238Y-14319047D02*
X4817619Y-14414285D01*
X4817619Y-14414285D02*
X4817619Y-14604761D01*
X4817619Y-14604761D02*
X4865238Y-14699999D01*
X4865238Y-14699999D02*
X4960476Y-14747618D01*
X4960476Y-14747618D02*
X5008095Y-14747618D01*
X5008095Y-14747618D02*
X5103333Y-14699999D01*
X5103333Y-14699999D02*
X5150952Y-14604761D01*
X5150952Y-14604761D02*
X5150952Y-14461904D01*
X5150952Y-14461904D02*
X5198571Y-14366666D01*
X5198571Y-14366666D02*
X5293809Y-14319047D01*
X5293809Y-14319047D02*
X5341428Y-14319047D01*
X5341428Y-14319047D02*
X5436666Y-14366666D01*
X5436666Y-14366666D02*
X5484285Y-14461904D01*
X5484285Y-14461904D02*
X5484285Y-14604761D01*
X5484285Y-14604761D02*
X5436666Y-14699999D01*
X4817619Y-15776190D02*
X5817619Y-15776190D01*
X5817619Y-15776190D02*
X5817619Y-16014285D01*
X5817619Y-16014285D02*
X5770000Y-16157142D01*
X5770000Y-16157142D02*
X5674761Y-16252380D01*
X5674761Y-16252380D02*
X5579523Y-16299999D01*
X5579523Y-16299999D02*
X5389047Y-16347618D01*
X5389047Y-16347618D02*
X5246190Y-16347618D01*
X5246190Y-16347618D02*
X5055714Y-16299999D01*
X5055714Y-16299999D02*
X4960476Y-16252380D01*
X4960476Y-16252380D02*
X4865238Y-16157142D01*
X4865238Y-16157142D02*
X4817619Y-16014285D01*
X4817619Y-16014285D02*
X4817619Y-15776190D01*
X4865238Y-17157142D02*
X4817619Y-17061904D01*
X4817619Y-17061904D02*
X4817619Y-16871428D01*
X4817619Y-16871428D02*
X4865238Y-16776190D01*
X4865238Y-16776190D02*
X4960476Y-16728571D01*
X4960476Y-16728571D02*
X5341428Y-16728571D01*
X5341428Y-16728571D02*
X5436666Y-16776190D01*
X5436666Y-16776190D02*
X5484285Y-16871428D01*
X5484285Y-16871428D02*
X5484285Y-17061904D01*
X5484285Y-17061904D02*
X5436666Y-17157142D01*
X5436666Y-17157142D02*
X5341428Y-17204761D01*
X5341428Y-17204761D02*
X5246190Y-17204761D01*
X5246190Y-17204761D02*
X5150952Y-16728571D01*
X5484285Y-17490476D02*
X5484285Y-17871428D01*
X5817619Y-17633333D02*
X4960476Y-17633333D01*
X4960476Y-17633333D02*
X4865238Y-17680952D01*
X4865238Y-17680952D02*
X4817619Y-17776190D01*
X4817619Y-17776190D02*
X4817619Y-17871428D01*
X4865238Y-18585714D02*
X4817619Y-18490476D01*
X4817619Y-18490476D02*
X4817619Y-18300000D01*
X4817619Y-18300000D02*
X4865238Y-18204762D01*
X4865238Y-18204762D02*
X4960476Y-18157143D01*
X4960476Y-18157143D02*
X5341428Y-18157143D01*
X5341428Y-18157143D02*
X5436666Y-18204762D01*
X5436666Y-18204762D02*
X5484285Y-18300000D01*
X5484285Y-18300000D02*
X5484285Y-18490476D01*
X5484285Y-18490476D02*
X5436666Y-18585714D01*
X5436666Y-18585714D02*
X5341428Y-18633333D01*
X5341428Y-18633333D02*
X5246190Y-18633333D01*
X5246190Y-18633333D02*
X5150952Y-18157143D01*
X4865238Y-19490476D02*
X4817619Y-19395238D01*
X4817619Y-19395238D02*
X4817619Y-19204762D01*
X4817619Y-19204762D02*
X4865238Y-19109524D01*
X4865238Y-19109524D02*
X4912857Y-19061905D01*
X4912857Y-19061905D02*
X5008095Y-19014286D01*
X5008095Y-19014286D02*
X5293809Y-19014286D01*
X5293809Y-19014286D02*
X5389047Y-19061905D01*
X5389047Y-19061905D02*
X5436666Y-19109524D01*
X5436666Y-19109524D02*
X5484285Y-19204762D01*
X5484285Y-19204762D02*
X5484285Y-19395238D01*
X5484285Y-19395238D02*
X5436666Y-19490476D01*
X5484285Y-19776191D02*
X5484285Y-20157143D01*
X5817619Y-19919048D02*
X4960476Y-19919048D01*
X4960476Y-19919048D02*
X4865238Y-19966667D01*
X4865238Y-19966667D02*
X4817619Y-20061905D01*
X4817619Y-20061905D02*
X4817619Y-20157143D01*
X4817619Y-20633334D02*
X4865238Y-20538096D01*
X4865238Y-20538096D02*
X4912857Y-20490477D01*
X4912857Y-20490477D02*
X5008095Y-20442858D01*
X5008095Y-20442858D02*
X5293809Y-20442858D01*
X5293809Y-20442858D02*
X5389047Y-20490477D01*
X5389047Y-20490477D02*
X5436666Y-20538096D01*
X5436666Y-20538096D02*
X5484285Y-20633334D01*
X5484285Y-20633334D02*
X5484285Y-20776191D01*
X5484285Y-20776191D02*
X5436666Y-20871429D01*
X5436666Y-20871429D02*
X5389047Y-20919048D01*
X5389047Y-20919048D02*
X5293809Y-20966667D01*
X5293809Y-20966667D02*
X5008095Y-20966667D01*
X5008095Y-20966667D02*
X4912857Y-20919048D01*
X4912857Y-20919048D02*
X4865238Y-20871429D01*
X4865238Y-20871429D02*
X4817619Y-20776191D01*
X4817619Y-20776191D02*
X4817619Y-20633334D01*
X4817619Y-21395239D02*
X5484285Y-21395239D01*
X5293809Y-21395239D02*
X5389047Y-21442858D01*
X5389047Y-21442858D02*
X5436666Y-21490477D01*
X5436666Y-21490477D02*
X5484285Y-21585715D01*
X5484285Y-21585715D02*
X5484285Y-21680953D01*
X5484285Y-22519049D02*
X4817619Y-22757144D01*
X4817619Y-22757144D02*
X5484285Y-22995239D01*
X5817619Y-23566668D02*
X5817619Y-23661906D01*
X5817619Y-23661906D02*
X5770000Y-23757144D01*
X5770000Y-23757144D02*
X5722380Y-23804763D01*
X5722380Y-23804763D02*
X5627142Y-23852382D01*
X5627142Y-23852382D02*
X5436666Y-23900001D01*
X5436666Y-23900001D02*
X5198571Y-23900001D01*
X5198571Y-23900001D02*
X5008095Y-23852382D01*
X5008095Y-23852382D02*
X4912857Y-23804763D01*
X4912857Y-23804763D02*
X4865238Y-23757144D01*
X4865238Y-23757144D02*
X4817619Y-23661906D01*
X4817619Y-23661906D02*
X4817619Y-23566668D01*
X4817619Y-23566668D02*
X4865238Y-23471430D01*
X4865238Y-23471430D02*
X4912857Y-23423811D01*
X4912857Y-23423811D02*
X5008095Y-23376192D01*
X5008095Y-23376192D02*
X5198571Y-23328573D01*
X5198571Y-23328573D02*
X5436666Y-23328573D01*
X5436666Y-23328573D02*
X5627142Y-23376192D01*
X5627142Y-23376192D02*
X5722380Y-23423811D01*
X5722380Y-23423811D02*
X5770000Y-23471430D01*
X5770000Y-23471430D02*
X5817619Y-23566668D01*
X4912857Y-24328573D02*
X4865238Y-24376192D01*
X4865238Y-24376192D02*
X4817619Y-24328573D01*
X4817619Y-24328573D02*
X4865238Y-24280954D01*
X4865238Y-24280954D02*
X4912857Y-24328573D01*
X4912857Y-24328573D02*
X4817619Y-24328573D01*
X4817619Y-25328572D02*
X4817619Y-24757144D01*
X4817619Y-25042858D02*
X5817619Y-25042858D01*
X5817619Y-25042858D02*
X5674761Y-24947620D01*
X5674761Y-24947620D02*
X5579523Y-24852382D01*
X5579523Y-24852382D02*
X5531904Y-24757144D01*
%TO.C,C1*%
X20503333Y-7572142D02*
X20455714Y-7619761D01*
X20455714Y-7619761D02*
X20312857Y-7667380D01*
X20312857Y-7667380D02*
X20217619Y-7667380D01*
X20217619Y-7667380D02*
X20074762Y-7619761D01*
X20074762Y-7619761D02*
X19979524Y-7524523D01*
X19979524Y-7524523D02*
X19931905Y-7429285D01*
X19931905Y-7429285D02*
X19884286Y-7238809D01*
X19884286Y-7238809D02*
X19884286Y-7095952D01*
X19884286Y-7095952D02*
X19931905Y-6905476D01*
X19931905Y-6905476D02*
X19979524Y-6810238D01*
X19979524Y-6810238D02*
X20074762Y-6715000D01*
X20074762Y-6715000D02*
X20217619Y-6667380D01*
X20217619Y-6667380D02*
X20312857Y-6667380D01*
X20312857Y-6667380D02*
X20455714Y-6715000D01*
X20455714Y-6715000D02*
X20503333Y-6762619D01*
X21455714Y-7667380D02*
X20884286Y-7667380D01*
X21170000Y-7667380D02*
X21170000Y-6667380D01*
X21170000Y-6667380D02*
X21074762Y-6810238D01*
X21074762Y-6810238D02*
X20979524Y-6905476D01*
X20979524Y-6905476D02*
X20884286Y-6953095D01*
%TO.C,R9*%
X13233333Y-8367380D02*
X12900000Y-7891190D01*
X12661905Y-8367380D02*
X12661905Y-7367380D01*
X12661905Y-7367380D02*
X13042857Y-7367380D01*
X13042857Y-7367380D02*
X13138095Y-7415000D01*
X13138095Y-7415000D02*
X13185714Y-7462619D01*
X13185714Y-7462619D02*
X13233333Y-7557857D01*
X13233333Y-7557857D02*
X13233333Y-7700714D01*
X13233333Y-7700714D02*
X13185714Y-7795952D01*
X13185714Y-7795952D02*
X13138095Y-7843571D01*
X13138095Y-7843571D02*
X13042857Y-7891190D01*
X13042857Y-7891190D02*
X12661905Y-7891190D01*
X13709524Y-8367380D02*
X13900000Y-8367380D01*
X13900000Y-8367380D02*
X13995238Y-8319761D01*
X13995238Y-8319761D02*
X14042857Y-8272142D01*
X14042857Y-8272142D02*
X14138095Y-8129285D01*
X14138095Y-8129285D02*
X14185714Y-7938809D01*
X14185714Y-7938809D02*
X14185714Y-7557857D01*
X14185714Y-7557857D02*
X14138095Y-7462619D01*
X14138095Y-7462619D02*
X14090476Y-7415000D01*
X14090476Y-7415000D02*
X13995238Y-7367380D01*
X13995238Y-7367380D02*
X13804762Y-7367380D01*
X13804762Y-7367380D02*
X13709524Y-7415000D01*
X13709524Y-7415000D02*
X13661905Y-7462619D01*
X13661905Y-7462619D02*
X13614286Y-7557857D01*
X13614286Y-7557857D02*
X13614286Y-7795952D01*
X13614286Y-7795952D02*
X13661905Y-7891190D01*
X13661905Y-7891190D02*
X13709524Y-7938809D01*
X13709524Y-7938809D02*
X13804762Y-7986428D01*
X13804762Y-7986428D02*
X13995238Y-7986428D01*
X13995238Y-7986428D02*
X14090476Y-7938809D01*
X14090476Y-7938809D02*
X14138095Y-7891190D01*
X14138095Y-7891190D02*
X14185714Y-7795952D01*
%TO.C,U3*%
X30408095Y-23267380D02*
X30408095Y-24076904D01*
X30408095Y-24076904D02*
X30455714Y-24172142D01*
X30455714Y-24172142D02*
X30503333Y-24219761D01*
X30503333Y-24219761D02*
X30598571Y-24267380D01*
X30598571Y-24267380D02*
X30789047Y-24267380D01*
X30789047Y-24267380D02*
X30884285Y-24219761D01*
X30884285Y-24219761D02*
X30931904Y-24172142D01*
X30931904Y-24172142D02*
X30979523Y-24076904D01*
X30979523Y-24076904D02*
X30979523Y-23267380D01*
X31360476Y-23267380D02*
X31979523Y-23267380D01*
X31979523Y-23267380D02*
X31646190Y-23648333D01*
X31646190Y-23648333D02*
X31789047Y-23648333D01*
X31789047Y-23648333D02*
X31884285Y-23695952D01*
X31884285Y-23695952D02*
X31931904Y-23743571D01*
X31931904Y-23743571D02*
X31979523Y-23838809D01*
X31979523Y-23838809D02*
X31979523Y-24076904D01*
X31979523Y-24076904D02*
X31931904Y-24172142D01*
X31931904Y-24172142D02*
X31884285Y-24219761D01*
X31884285Y-24219761D02*
X31789047Y-24267380D01*
X31789047Y-24267380D02*
X31503333Y-24267380D01*
X31503333Y-24267380D02*
X31408095Y-24219761D01*
X31408095Y-24219761D02*
X31360476Y-24172142D01*
%TO.C,R5*%
X42103333Y-5667380D02*
X41770000Y-5191190D01*
X41531905Y-5667380D02*
X41531905Y-4667380D01*
X41531905Y-4667380D02*
X41912857Y-4667380D01*
X41912857Y-4667380D02*
X42008095Y-4715000D01*
X42008095Y-4715000D02*
X42055714Y-4762619D01*
X42055714Y-4762619D02*
X42103333Y-4857857D01*
X42103333Y-4857857D02*
X42103333Y-5000714D01*
X42103333Y-5000714D02*
X42055714Y-5095952D01*
X42055714Y-5095952D02*
X42008095Y-5143571D01*
X42008095Y-5143571D02*
X41912857Y-5191190D01*
X41912857Y-5191190D02*
X41531905Y-5191190D01*
X43008095Y-4667380D02*
X42531905Y-4667380D01*
X42531905Y-4667380D02*
X42484286Y-5143571D01*
X42484286Y-5143571D02*
X42531905Y-5095952D01*
X42531905Y-5095952D02*
X42627143Y-5048333D01*
X42627143Y-5048333D02*
X42865238Y-5048333D01*
X42865238Y-5048333D02*
X42960476Y-5095952D01*
X42960476Y-5095952D02*
X43008095Y-5143571D01*
X43008095Y-5143571D02*
X43055714Y-5238809D01*
X43055714Y-5238809D02*
X43055714Y-5476904D01*
X43055714Y-5476904D02*
X43008095Y-5572142D01*
X43008095Y-5572142D02*
X42960476Y-5619761D01*
X42960476Y-5619761D02*
X42865238Y-5667380D01*
X42865238Y-5667380D02*
X42627143Y-5667380D01*
X42627143Y-5667380D02*
X42531905Y-5619761D01*
X42531905Y-5619761D02*
X42484286Y-5572142D01*
%TO.C,J4*%
X30636666Y-28567380D02*
X30636666Y-29281666D01*
X30636666Y-29281666D02*
X30589047Y-29424523D01*
X30589047Y-29424523D02*
X30493809Y-29519761D01*
X30493809Y-29519761D02*
X30350952Y-29567380D01*
X30350952Y-29567380D02*
X30255714Y-29567380D01*
X31541428Y-28900714D02*
X31541428Y-29567380D01*
X31303333Y-28519761D02*
X31065238Y-29234047D01*
X31065238Y-29234047D02*
X31684285Y-29234047D01*
%TO.C,C7*%
X43403333Y-8572142D02*
X43355714Y-8619761D01*
X43355714Y-8619761D02*
X43212857Y-8667380D01*
X43212857Y-8667380D02*
X43117619Y-8667380D01*
X43117619Y-8667380D02*
X42974762Y-8619761D01*
X42974762Y-8619761D02*
X42879524Y-8524523D01*
X42879524Y-8524523D02*
X42831905Y-8429285D01*
X42831905Y-8429285D02*
X42784286Y-8238809D01*
X42784286Y-8238809D02*
X42784286Y-8095952D01*
X42784286Y-8095952D02*
X42831905Y-7905476D01*
X42831905Y-7905476D02*
X42879524Y-7810238D01*
X42879524Y-7810238D02*
X42974762Y-7715000D01*
X42974762Y-7715000D02*
X43117619Y-7667380D01*
X43117619Y-7667380D02*
X43212857Y-7667380D01*
X43212857Y-7667380D02*
X43355714Y-7715000D01*
X43355714Y-7715000D02*
X43403333Y-7762619D01*
X43736667Y-7667380D02*
X44403333Y-7667380D01*
X44403333Y-7667380D02*
X43974762Y-8667380D01*
%TO.C,C9*%
X35503333Y-24872142D02*
X35455714Y-24919761D01*
X35455714Y-24919761D02*
X35312857Y-24967380D01*
X35312857Y-24967380D02*
X35217619Y-24967380D01*
X35217619Y-24967380D02*
X35074762Y-24919761D01*
X35074762Y-24919761D02*
X34979524Y-24824523D01*
X34979524Y-24824523D02*
X34931905Y-24729285D01*
X34931905Y-24729285D02*
X34884286Y-24538809D01*
X34884286Y-24538809D02*
X34884286Y-24395952D01*
X34884286Y-24395952D02*
X34931905Y-24205476D01*
X34931905Y-24205476D02*
X34979524Y-24110238D01*
X34979524Y-24110238D02*
X35074762Y-24015000D01*
X35074762Y-24015000D02*
X35217619Y-23967380D01*
X35217619Y-23967380D02*
X35312857Y-23967380D01*
X35312857Y-23967380D02*
X35455714Y-24015000D01*
X35455714Y-24015000D02*
X35503333Y-24062619D01*
X35979524Y-24967380D02*
X36170000Y-24967380D01*
X36170000Y-24967380D02*
X36265238Y-24919761D01*
X36265238Y-24919761D02*
X36312857Y-24872142D01*
X36312857Y-24872142D02*
X36408095Y-24729285D01*
X36408095Y-24729285D02*
X36455714Y-24538809D01*
X36455714Y-24538809D02*
X36455714Y-24157857D01*
X36455714Y-24157857D02*
X36408095Y-24062619D01*
X36408095Y-24062619D02*
X36360476Y-24015000D01*
X36360476Y-24015000D02*
X36265238Y-23967380D01*
X36265238Y-23967380D02*
X36074762Y-23967380D01*
X36074762Y-23967380D02*
X35979524Y-24015000D01*
X35979524Y-24015000D02*
X35931905Y-24062619D01*
X35931905Y-24062619D02*
X35884286Y-24157857D01*
X35884286Y-24157857D02*
X35884286Y-24395952D01*
X35884286Y-24395952D02*
X35931905Y-24491190D01*
X35931905Y-24491190D02*
X35979524Y-24538809D01*
X35979524Y-24538809D02*
X36074762Y-24586428D01*
X36074762Y-24586428D02*
X36265238Y-24586428D01*
X36265238Y-24586428D02*
X36360476Y-24538809D01*
X36360476Y-24538809D02*
X36408095Y-24491190D01*
X36408095Y-24491190D02*
X36455714Y-24395952D01*
%TO.C,C10*%
X37157142Y-29572142D02*
X37109523Y-29619761D01*
X37109523Y-29619761D02*
X36966666Y-29667380D01*
X36966666Y-29667380D02*
X36871428Y-29667380D01*
X36871428Y-29667380D02*
X36728571Y-29619761D01*
X36728571Y-29619761D02*
X36633333Y-29524523D01*
X36633333Y-29524523D02*
X36585714Y-29429285D01*
X36585714Y-29429285D02*
X36538095Y-29238809D01*
X36538095Y-29238809D02*
X36538095Y-29095952D01*
X36538095Y-29095952D02*
X36585714Y-28905476D01*
X36585714Y-28905476D02*
X36633333Y-28810238D01*
X36633333Y-28810238D02*
X36728571Y-28715000D01*
X36728571Y-28715000D02*
X36871428Y-28667380D01*
X36871428Y-28667380D02*
X36966666Y-28667380D01*
X36966666Y-28667380D02*
X37109523Y-28715000D01*
X37109523Y-28715000D02*
X37157142Y-28762619D01*
X38109523Y-29667380D02*
X37538095Y-29667380D01*
X37823809Y-29667380D02*
X37823809Y-28667380D01*
X37823809Y-28667380D02*
X37728571Y-28810238D01*
X37728571Y-28810238D02*
X37633333Y-28905476D01*
X37633333Y-28905476D02*
X37538095Y-28953095D01*
X38728571Y-28667380D02*
X38823809Y-28667380D01*
X38823809Y-28667380D02*
X38919047Y-28715000D01*
X38919047Y-28715000D02*
X38966666Y-28762619D01*
X38966666Y-28762619D02*
X39014285Y-28857857D01*
X39014285Y-28857857D02*
X39061904Y-29048333D01*
X39061904Y-29048333D02*
X39061904Y-29286428D01*
X39061904Y-29286428D02*
X39014285Y-29476904D01*
X39014285Y-29476904D02*
X38966666Y-29572142D01*
X38966666Y-29572142D02*
X38919047Y-29619761D01*
X38919047Y-29619761D02*
X38823809Y-29667380D01*
X38823809Y-29667380D02*
X38728571Y-29667380D01*
X38728571Y-29667380D02*
X38633333Y-29619761D01*
X38633333Y-29619761D02*
X38585714Y-29572142D01*
X38585714Y-29572142D02*
X38538095Y-29476904D01*
X38538095Y-29476904D02*
X38490476Y-29286428D01*
X38490476Y-29286428D02*
X38490476Y-29048333D01*
X38490476Y-29048333D02*
X38538095Y-28857857D01*
X38538095Y-28857857D02*
X38585714Y-28762619D01*
X38585714Y-28762619D02*
X38633333Y-28715000D01*
X38633333Y-28715000D02*
X38728571Y-28667380D01*
%TO.C,U1*%
X42636595Y-26867380D02*
X42636595Y-27676904D01*
X42636595Y-27676904D02*
X42684214Y-27772142D01*
X42684214Y-27772142D02*
X42731833Y-27819761D01*
X42731833Y-27819761D02*
X42827071Y-27867380D01*
X42827071Y-27867380D02*
X43017547Y-27867380D01*
X43017547Y-27867380D02*
X43112785Y-27819761D01*
X43112785Y-27819761D02*
X43160404Y-27772142D01*
X43160404Y-27772142D02*
X43208023Y-27676904D01*
X43208023Y-27676904D02*
X43208023Y-26867380D01*
X44208023Y-27867380D02*
X43636595Y-27867380D01*
X43922309Y-27867380D02*
X43922309Y-26867380D01*
X43922309Y-26867380D02*
X43827071Y-27010238D01*
X43827071Y-27010238D02*
X43731833Y-27105476D01*
X43731833Y-27105476D02*
X43636595Y-27153095D01*
%TO.C,C2*%
X19550333Y-3898642D02*
X19502714Y-3946261D01*
X19502714Y-3946261D02*
X19359857Y-3993880D01*
X19359857Y-3993880D02*
X19264619Y-3993880D01*
X19264619Y-3993880D02*
X19121762Y-3946261D01*
X19121762Y-3946261D02*
X19026524Y-3851023D01*
X19026524Y-3851023D02*
X18978905Y-3755785D01*
X18978905Y-3755785D02*
X18931286Y-3565309D01*
X18931286Y-3565309D02*
X18931286Y-3422452D01*
X18931286Y-3422452D02*
X18978905Y-3231976D01*
X18978905Y-3231976D02*
X19026524Y-3136738D01*
X19026524Y-3136738D02*
X19121762Y-3041500D01*
X19121762Y-3041500D02*
X19264619Y-2993880D01*
X19264619Y-2993880D02*
X19359857Y-2993880D01*
X19359857Y-2993880D02*
X19502714Y-3041500D01*
X19502714Y-3041500D02*
X19550333Y-3089119D01*
X19931286Y-3089119D02*
X19978905Y-3041500D01*
X19978905Y-3041500D02*
X20074143Y-2993880D01*
X20074143Y-2993880D02*
X20312238Y-2993880D01*
X20312238Y-2993880D02*
X20407476Y-3041500D01*
X20407476Y-3041500D02*
X20455095Y-3089119D01*
X20455095Y-3089119D02*
X20502714Y-3184357D01*
X20502714Y-3184357D02*
X20502714Y-3279595D01*
X20502714Y-3279595D02*
X20455095Y-3422452D01*
X20455095Y-3422452D02*
X19883667Y-3993880D01*
X19883667Y-3993880D02*
X20502714Y-3993880D01*
%TO.C,R10*%
X9157142Y-10367380D02*
X8823809Y-9891190D01*
X8585714Y-10367380D02*
X8585714Y-9367380D01*
X8585714Y-9367380D02*
X8966666Y-9367380D01*
X8966666Y-9367380D02*
X9061904Y-9415000D01*
X9061904Y-9415000D02*
X9109523Y-9462619D01*
X9109523Y-9462619D02*
X9157142Y-9557857D01*
X9157142Y-9557857D02*
X9157142Y-9700714D01*
X9157142Y-9700714D02*
X9109523Y-9795952D01*
X9109523Y-9795952D02*
X9061904Y-9843571D01*
X9061904Y-9843571D02*
X8966666Y-9891190D01*
X8966666Y-9891190D02*
X8585714Y-9891190D01*
X10109523Y-10367380D02*
X9538095Y-10367380D01*
X9823809Y-10367380D02*
X9823809Y-9367380D01*
X9823809Y-9367380D02*
X9728571Y-9510238D01*
X9728571Y-9510238D02*
X9633333Y-9605476D01*
X9633333Y-9605476D02*
X9538095Y-9653095D01*
X10728571Y-9367380D02*
X10823809Y-9367380D01*
X10823809Y-9367380D02*
X10919047Y-9415000D01*
X10919047Y-9415000D02*
X10966666Y-9462619D01*
X10966666Y-9462619D02*
X11014285Y-9557857D01*
X11014285Y-9557857D02*
X11061904Y-9748333D01*
X11061904Y-9748333D02*
X11061904Y-9986428D01*
X11061904Y-9986428D02*
X11014285Y-10176904D01*
X11014285Y-10176904D02*
X10966666Y-10272142D01*
X10966666Y-10272142D02*
X10919047Y-10319761D01*
X10919047Y-10319761D02*
X10823809Y-10367380D01*
X10823809Y-10367380D02*
X10728571Y-10367380D01*
X10728571Y-10367380D02*
X10633333Y-10319761D01*
X10633333Y-10319761D02*
X10585714Y-10272142D01*
X10585714Y-10272142D02*
X10538095Y-10176904D01*
X10538095Y-10176904D02*
X10490476Y-9986428D01*
X10490476Y-9986428D02*
X10490476Y-9748333D01*
X10490476Y-9748333D02*
X10538095Y-9557857D01*
X10538095Y-9557857D02*
X10585714Y-9462619D01*
X10585714Y-9462619D02*
X10633333Y-9415000D01*
X10633333Y-9415000D02*
X10728571Y-9367380D01*
%TO.C,C5*%
X43703333Y-19912142D02*
X43655714Y-19959761D01*
X43655714Y-19959761D02*
X43512857Y-20007380D01*
X43512857Y-20007380D02*
X43417619Y-20007380D01*
X43417619Y-20007380D02*
X43274762Y-19959761D01*
X43274762Y-19959761D02*
X43179524Y-19864523D01*
X43179524Y-19864523D02*
X43131905Y-19769285D01*
X43131905Y-19769285D02*
X43084286Y-19578809D01*
X43084286Y-19578809D02*
X43084286Y-19435952D01*
X43084286Y-19435952D02*
X43131905Y-19245476D01*
X43131905Y-19245476D02*
X43179524Y-19150238D01*
X43179524Y-19150238D02*
X43274762Y-19055000D01*
X43274762Y-19055000D02*
X43417619Y-19007380D01*
X43417619Y-19007380D02*
X43512857Y-19007380D01*
X43512857Y-19007380D02*
X43655714Y-19055000D01*
X43655714Y-19055000D02*
X43703333Y-19102619D01*
X44608095Y-19007380D02*
X44131905Y-19007380D01*
X44131905Y-19007380D02*
X44084286Y-19483571D01*
X44084286Y-19483571D02*
X44131905Y-19435952D01*
X44131905Y-19435952D02*
X44227143Y-19388333D01*
X44227143Y-19388333D02*
X44465238Y-19388333D01*
X44465238Y-19388333D02*
X44560476Y-19435952D01*
X44560476Y-19435952D02*
X44608095Y-19483571D01*
X44608095Y-19483571D02*
X44655714Y-19578809D01*
X44655714Y-19578809D02*
X44655714Y-19816904D01*
X44655714Y-19816904D02*
X44608095Y-19912142D01*
X44608095Y-19912142D02*
X44560476Y-19959761D01*
X44560476Y-19959761D02*
X44465238Y-20007380D01*
X44465238Y-20007380D02*
X44227143Y-20007380D01*
X44227143Y-20007380D02*
X44131905Y-19959761D01*
X44131905Y-19959761D02*
X44084286Y-19912142D01*
%TO.C,D3*%
X41937380Y-16588094D02*
X40937380Y-16588094D01*
X40937380Y-16588094D02*
X40937380Y-16349999D01*
X40937380Y-16349999D02*
X40985000Y-16207142D01*
X40985000Y-16207142D02*
X41080238Y-16111904D01*
X41080238Y-16111904D02*
X41175476Y-16064285D01*
X41175476Y-16064285D02*
X41365952Y-16016666D01*
X41365952Y-16016666D02*
X41508809Y-16016666D01*
X41508809Y-16016666D02*
X41699285Y-16064285D01*
X41699285Y-16064285D02*
X41794523Y-16111904D01*
X41794523Y-16111904D02*
X41889761Y-16207142D01*
X41889761Y-16207142D02*
X41937380Y-16349999D01*
X41937380Y-16349999D02*
X41937380Y-16588094D01*
X40937380Y-15683332D02*
X40937380Y-15064285D01*
X40937380Y-15064285D02*
X41318333Y-15397618D01*
X41318333Y-15397618D02*
X41318333Y-15254761D01*
X41318333Y-15254761D02*
X41365952Y-15159523D01*
X41365952Y-15159523D02*
X41413571Y-15111904D01*
X41413571Y-15111904D02*
X41508809Y-15064285D01*
X41508809Y-15064285D02*
X41746904Y-15064285D01*
X41746904Y-15064285D02*
X41842142Y-15111904D01*
X41842142Y-15111904D02*
X41889761Y-15159523D01*
X41889761Y-15159523D02*
X41937380Y-15254761D01*
X41937380Y-15254761D02*
X41937380Y-15540475D01*
X41937380Y-15540475D02*
X41889761Y-15635713D01*
X41889761Y-15635713D02*
X41842142Y-15683332D01*
%TO.C,SW1*%
X26366667Y-5819761D02*
X26509524Y-5867380D01*
X26509524Y-5867380D02*
X26747619Y-5867380D01*
X26747619Y-5867380D02*
X26842857Y-5819761D01*
X26842857Y-5819761D02*
X26890476Y-5772142D01*
X26890476Y-5772142D02*
X26938095Y-5676904D01*
X26938095Y-5676904D02*
X26938095Y-5581666D01*
X26938095Y-5581666D02*
X26890476Y-5486428D01*
X26890476Y-5486428D02*
X26842857Y-5438809D01*
X26842857Y-5438809D02*
X26747619Y-5391190D01*
X26747619Y-5391190D02*
X26557143Y-5343571D01*
X26557143Y-5343571D02*
X26461905Y-5295952D01*
X26461905Y-5295952D02*
X26414286Y-5248333D01*
X26414286Y-5248333D02*
X26366667Y-5153095D01*
X26366667Y-5153095D02*
X26366667Y-5057857D01*
X26366667Y-5057857D02*
X26414286Y-4962619D01*
X26414286Y-4962619D02*
X26461905Y-4915000D01*
X26461905Y-4915000D02*
X26557143Y-4867380D01*
X26557143Y-4867380D02*
X26795238Y-4867380D01*
X26795238Y-4867380D02*
X26938095Y-4915000D01*
X27271429Y-4867380D02*
X27509524Y-5867380D01*
X27509524Y-5867380D02*
X27700000Y-5153095D01*
X27700000Y-5153095D02*
X27890476Y-5867380D01*
X27890476Y-5867380D02*
X28128572Y-4867380D01*
X29033333Y-5867380D02*
X28461905Y-5867380D01*
X28747619Y-5867380D02*
X28747619Y-4867380D01*
X28747619Y-4867380D02*
X28652381Y-5010238D01*
X28652381Y-5010238D02*
X28557143Y-5105476D01*
X28557143Y-5105476D02*
X28461905Y-5153095D01*
%TO.C,D2*%
X44537380Y-16438094D02*
X43537380Y-16438094D01*
X43537380Y-16438094D02*
X43537380Y-16199999D01*
X43537380Y-16199999D02*
X43585000Y-16057142D01*
X43585000Y-16057142D02*
X43680238Y-15961904D01*
X43680238Y-15961904D02*
X43775476Y-15914285D01*
X43775476Y-15914285D02*
X43965952Y-15866666D01*
X43965952Y-15866666D02*
X44108809Y-15866666D01*
X44108809Y-15866666D02*
X44299285Y-15914285D01*
X44299285Y-15914285D02*
X44394523Y-15961904D01*
X44394523Y-15961904D02*
X44489761Y-16057142D01*
X44489761Y-16057142D02*
X44537380Y-16199999D01*
X44537380Y-16199999D02*
X44537380Y-16438094D01*
X43632619Y-15485713D02*
X43585000Y-15438094D01*
X43585000Y-15438094D02*
X43537380Y-15342856D01*
X43537380Y-15342856D02*
X43537380Y-15104761D01*
X43537380Y-15104761D02*
X43585000Y-15009523D01*
X43585000Y-15009523D02*
X43632619Y-14961904D01*
X43632619Y-14961904D02*
X43727857Y-14914285D01*
X43727857Y-14914285D02*
X43823095Y-14914285D01*
X43823095Y-14914285D02*
X43965952Y-14961904D01*
X43965952Y-14961904D02*
X44537380Y-15533332D01*
X44537380Y-15533332D02*
X44537380Y-14914285D01*
%TO.C,USB1*%
X13908095Y-28359380D02*
X13908095Y-29168904D01*
X13908095Y-29168904D02*
X13955714Y-29264142D01*
X13955714Y-29264142D02*
X14003333Y-29311761D01*
X14003333Y-29311761D02*
X14098571Y-29359380D01*
X14098571Y-29359380D02*
X14289047Y-29359380D01*
X14289047Y-29359380D02*
X14384285Y-29311761D01*
X14384285Y-29311761D02*
X14431904Y-29264142D01*
X14431904Y-29264142D02*
X14479523Y-29168904D01*
X14479523Y-29168904D02*
X14479523Y-28359380D01*
X14908095Y-29311761D02*
X15050952Y-29359380D01*
X15050952Y-29359380D02*
X15289047Y-29359380D01*
X15289047Y-29359380D02*
X15384285Y-29311761D01*
X15384285Y-29311761D02*
X15431904Y-29264142D01*
X15431904Y-29264142D02*
X15479523Y-29168904D01*
X15479523Y-29168904D02*
X15479523Y-29073666D01*
X15479523Y-29073666D02*
X15431904Y-28978428D01*
X15431904Y-28978428D02*
X15384285Y-28930809D01*
X15384285Y-28930809D02*
X15289047Y-28883190D01*
X15289047Y-28883190D02*
X15098571Y-28835571D01*
X15098571Y-28835571D02*
X15003333Y-28787952D01*
X15003333Y-28787952D02*
X14955714Y-28740333D01*
X14955714Y-28740333D02*
X14908095Y-28645095D01*
X14908095Y-28645095D02*
X14908095Y-28549857D01*
X14908095Y-28549857D02*
X14955714Y-28454619D01*
X14955714Y-28454619D02*
X15003333Y-28407000D01*
X15003333Y-28407000D02*
X15098571Y-28359380D01*
X15098571Y-28359380D02*
X15336666Y-28359380D01*
X15336666Y-28359380D02*
X15479523Y-28407000D01*
X16241428Y-28835571D02*
X16384285Y-28883190D01*
X16384285Y-28883190D02*
X16431904Y-28930809D01*
X16431904Y-28930809D02*
X16479523Y-29026047D01*
X16479523Y-29026047D02*
X16479523Y-29168904D01*
X16479523Y-29168904D02*
X16431904Y-29264142D01*
X16431904Y-29264142D02*
X16384285Y-29311761D01*
X16384285Y-29311761D02*
X16289047Y-29359380D01*
X16289047Y-29359380D02*
X15908095Y-29359380D01*
X15908095Y-29359380D02*
X15908095Y-28359380D01*
X15908095Y-28359380D02*
X16241428Y-28359380D01*
X16241428Y-28359380D02*
X16336666Y-28407000D01*
X16336666Y-28407000D02*
X16384285Y-28454619D01*
X16384285Y-28454619D02*
X16431904Y-28549857D01*
X16431904Y-28549857D02*
X16431904Y-28645095D01*
X16431904Y-28645095D02*
X16384285Y-28740333D01*
X16384285Y-28740333D02*
X16336666Y-28787952D01*
X16336666Y-28787952D02*
X16241428Y-28835571D01*
X16241428Y-28835571D02*
X15908095Y-28835571D01*
X17431904Y-29359380D02*
X16860476Y-29359380D01*
X17146190Y-29359380D02*
X17146190Y-28359380D01*
X17146190Y-28359380D02*
X17050952Y-28502238D01*
X17050952Y-28502238D02*
X16955714Y-28597476D01*
X16955714Y-28597476D02*
X16860476Y-28645095D01*
D11*
%TO.C,C1*%
X18374836Y-7436500D02*
X18159164Y-7436500D01*
X18374836Y-6716500D02*
X18159164Y-6716500D01*
%TO.C,R9*%
X14700000Y-9646359D02*
X14700000Y-9953641D01*
X13940000Y-9646359D02*
X13940000Y-9953641D01*
%TO.C,U3*%
X31045000Y-22675000D02*
X27595000Y-22675000D01*
X31045000Y-22675000D02*
X32995000Y-22675000D01*
X31045000Y-27795000D02*
X29095000Y-27795000D01*
X31045000Y-27795000D02*
X32995000Y-27795000D01*
%TO.C,D1*%
X38685000Y-5765000D02*
X38685000Y-7235000D01*
X38685000Y-7235000D02*
X40970000Y-7235000D01*
X40970000Y-5765000D02*
X38685000Y-5765000D01*
%TO.C,R3*%
X14450000Y-14746359D02*
X14450000Y-15053641D01*
X13690000Y-14746359D02*
X13690000Y-15053641D01*
%TO.C,R4*%
X37690000Y-7053641D02*
X37690000Y-6746359D01*
X38450000Y-7053641D02*
X38450000Y-6746359D01*
%TO.C,Q1*%
X25257500Y-26640000D02*
X23582500Y-26640000D01*
X25257500Y-26640000D02*
X25907500Y-26640000D01*
X25257500Y-29760000D02*
X24607500Y-29760000D01*
X25257500Y-29760000D02*
X25907500Y-29760000D01*
%TO.C,JP3*%
X36620000Y-23600000D02*
X36620000Y-23000000D01*
X37320000Y-22300000D02*
X38720000Y-22300000D01*
X38720000Y-24300000D02*
X37320000Y-24300000D01*
X39420000Y-23000000D02*
X39420000Y-23600000D01*
X37320000Y-22300000D02*
G75*
G03*
X36620000Y-23000000I-1J-699999D01*
G01*
X36620000Y-23600000D02*
G75*
G03*
X37320000Y-24300000I699999J-1D01*
G01*
X39420000Y-23000000D02*
G75*
G03*
X38720000Y-22300000I-700000J0D01*
G01*
X38720000Y-24300000D02*
G75*
G03*
X39420000Y-23600000I0J700000D01*
G01*
%TO.C,C8*%
X36780000Y-10040580D02*
X36780000Y-9759420D01*
X37800000Y-10040580D02*
X37800000Y-9759420D01*
%TO.C,R6*%
X37913641Y-5380000D02*
X37606359Y-5380000D01*
X37913641Y-4620000D02*
X37606359Y-4620000D01*
%TO.C,R7*%
X36023641Y-5380000D02*
X35716359Y-5380000D01*
X36023641Y-4620000D02*
X35716359Y-4620000D01*
%TO.C,Q2*%
X9310000Y-19737500D02*
X9310000Y-21412500D01*
X9310000Y-19737500D02*
X9310000Y-19087500D01*
X12430000Y-19737500D02*
X12430000Y-20387500D01*
X12430000Y-19737500D02*
X12430000Y-19087500D01*
%TO.C,J3*%
X25520000Y-23690000D02*
X25520000Y-24800000D01*
X24760000Y-23690000D02*
X25520000Y-23690000D01*
X24000000Y-23690000D02*
X20255000Y-23690000D01*
X24000000Y-23690000D02*
X24000000Y-24236529D01*
X20255000Y-23690000D02*
X20255000Y-24492470D01*
X20255000Y-25107530D02*
X20255000Y-25910000D01*
X24000000Y-25363471D02*
X24000000Y-25910000D01*
X24000000Y-25910000D02*
X20255000Y-25910000D01*
%TO.C,R5*%
X41910000Y-7153641D02*
X41910000Y-6846359D01*
X42670000Y-7153641D02*
X42670000Y-6846359D01*
%TO.C,J4*%
X27860000Y-28540000D02*
X28970000Y-28540000D01*
X27860000Y-29300000D02*
X27860000Y-28540000D01*
X27860000Y-30060000D02*
X27860000Y-29995000D01*
X27860000Y-30060000D02*
X28406529Y-30060000D01*
X27860000Y-30060000D02*
X30080000Y-30060000D01*
X29533471Y-30060000D02*
X30080000Y-30060000D01*
X30080000Y-30060000D02*
X30080000Y-29995000D01*
%TO.C,G\u002A\u002A\u002A*%
G36*
X3564362Y-5934860D02*
G01*
X3570907Y-5940907D01*
X3593200Y-5969725D01*
X3600367Y-5999309D01*
X3591535Y-6033048D01*
X3565828Y-6074330D01*
X3523305Y-6125502D01*
X3482295Y-6173635D01*
X3435519Y-6231943D01*
X3390312Y-6291163D01*
X3369433Y-6319838D01*
X3336481Y-6364542D01*
X3306435Y-6402494D01*
X3282920Y-6429280D01*
X3270758Y-6439981D01*
X3227483Y-6450923D01*
X3184508Y-6440656D01*
X3159597Y-6422544D01*
X3138690Y-6395266D01*
X3131434Y-6365978D01*
X3138570Y-6331046D01*
X3160839Y-6286835D01*
X3198874Y-6229862D01*
X3247486Y-6163899D01*
X3297933Y-6099018D01*
X3346817Y-6039317D01*
X3390741Y-5988893D01*
X3426308Y-5951845D01*
X3438680Y-5940629D01*
X3481601Y-5916702D01*
X3524775Y-5914782D01*
X3564362Y-5934860D01*
G37*
G36*
X7094873Y-8614987D02*
G01*
X7120339Y-8632322D01*
X7144138Y-8659166D01*
X7152639Y-8692181D01*
X7145450Y-8733999D01*
X7122181Y-8787251D01*
X7088808Y-8844524D01*
X7014762Y-8955455D01*
X6934219Y-9063818D01*
X6852926Y-9162107D01*
X6807868Y-9211363D01*
X6759482Y-9257117D01*
X6719402Y-9283045D01*
X6684739Y-9289920D01*
X6652604Y-9278511D01*
X6629094Y-9259093D01*
X6608612Y-9234157D01*
X6599805Y-9209124D01*
X6603760Y-9180782D01*
X6621564Y-9145924D01*
X6654307Y-9101339D01*
X6701452Y-9045669D01*
X6747346Y-8990575D01*
X6799432Y-8923637D01*
X6851590Y-8852955D01*
X6897696Y-8786632D01*
X6901503Y-8780908D01*
X6948611Y-8711594D01*
X6986598Y-8661096D01*
X7017841Y-8627801D01*
X7044716Y-8610093D01*
X7069602Y-8606359D01*
X7094873Y-8614987D01*
G37*
G36*
X6328276Y-9427266D02*
G01*
X6355630Y-9453908D01*
X6373663Y-9489571D01*
X6377619Y-9514853D01*
X6374875Y-9537901D01*
X6364985Y-9559245D01*
X6345460Y-9580824D01*
X6313814Y-9604573D01*
X6267559Y-9632431D01*
X6204208Y-9666335D01*
X6143726Y-9697023D01*
X5964690Y-9777023D01*
X5777208Y-9842860D01*
X5586227Y-9893299D01*
X5396697Y-9927102D01*
X5213562Y-9943033D01*
X5155144Y-9944158D01*
X5107383Y-9943409D01*
X5076415Y-9939983D01*
X5055616Y-9932302D01*
X5038364Y-9918782D01*
X5035001Y-9915484D01*
X5011033Y-9877718D01*
X5006230Y-9850484D01*
X5017187Y-9809345D01*
X5035001Y-9785484D01*
X5060038Y-9766523D01*
X5091112Y-9758103D01*
X5121668Y-9756714D01*
X5185898Y-9754345D01*
X5265597Y-9747809D01*
X5353337Y-9737962D01*
X5441689Y-9725659D01*
X5523225Y-9711758D01*
X5539548Y-9708562D01*
X5707543Y-9666617D01*
X5876484Y-9607740D01*
X6050924Y-9530288D01*
X6094722Y-9508443D01*
X6155326Y-9478249D01*
X6209945Y-9452244D01*
X6254659Y-9432200D01*
X6285547Y-9419890D01*
X6297447Y-9416797D01*
X6328276Y-9427266D01*
G37*
G36*
X5168819Y-5635787D02*
G01*
X5236756Y-5636435D01*
X5443107Y-5660699D01*
X5644569Y-5707519D01*
X5842618Y-5777215D01*
X5984957Y-5842255D01*
X6120494Y-5916566D01*
X6244732Y-5998938D01*
X6363981Y-6093985D01*
X6484552Y-6206322D01*
X6489279Y-6211029D01*
X6617447Y-6349405D01*
X6727511Y-6491699D01*
X6821010Y-6640953D01*
X6899481Y-6800211D01*
X6964460Y-6972514D01*
X7017485Y-7160904D01*
X7052385Y-7325531D01*
X7058179Y-7334976D01*
X7073811Y-7347704D01*
X7101192Y-7364760D01*
X7142236Y-7387185D01*
X7198856Y-7416025D01*
X7272965Y-7452321D01*
X7366476Y-7497117D01*
X7370731Y-7499140D01*
X7451178Y-7537854D01*
X7525389Y-7574464D01*
X7590515Y-7607491D01*
X7643702Y-7635458D01*
X7682100Y-7656888D01*
X7702857Y-7670304D01*
X7705054Y-7672346D01*
X7710274Y-7680022D01*
X7714532Y-7691131D01*
X7717924Y-7707943D01*
X7720547Y-7732724D01*
X7722498Y-7767744D01*
X7723874Y-7815269D01*
X7724772Y-7877568D01*
X7725289Y-7956909D01*
X7725520Y-8055559D01*
X7725566Y-8152731D01*
X7725566Y-8609095D01*
X7696795Y-8637865D01*
X7662044Y-8660699D01*
X7633814Y-8666635D01*
X7615376Y-8660647D01*
X7579169Y-8643492D01*
X7527329Y-8616385D01*
X7461995Y-8580540D01*
X7385301Y-8537173D01*
X7299386Y-8487499D01*
X7206386Y-8432732D01*
X7108438Y-8374088D01*
X7007679Y-8312781D01*
X6962681Y-8285075D01*
X6951421Y-8289816D01*
X6938814Y-8310315D01*
X6938352Y-8311406D01*
X6865818Y-8471677D01*
X6788338Y-8614107D01*
X6702228Y-8744264D01*
X6603805Y-8867716D01*
X6489710Y-8989709D01*
X6336809Y-9129341D01*
X6177097Y-9248471D01*
X6008068Y-9348447D01*
X5827212Y-9430617D01*
X5632024Y-9496330D01*
X5473670Y-9535851D01*
X5428369Y-9545017D01*
X5385876Y-9551820D01*
X5341438Y-9556597D01*
X5290298Y-9559683D01*
X5227702Y-9561413D01*
X5148893Y-9562122D01*
X5100000Y-9562199D01*
X4988263Y-9561128D01*
X4893849Y-9557327D01*
X4810712Y-9549915D01*
X4732806Y-9538011D01*
X4654084Y-9520734D01*
X4568500Y-9497201D01*
X4491905Y-9473558D01*
X4298620Y-9399823D01*
X4114876Y-9305578D01*
X3942204Y-9192344D01*
X3782136Y-9061642D01*
X3636202Y-8914994D01*
X3505934Y-8753921D01*
X3392862Y-8579944D01*
X3298519Y-8394584D01*
X3231529Y-8221227D01*
X3200418Y-8122880D01*
X3176793Y-8036037D01*
X3159711Y-7954506D01*
X3148228Y-7872096D01*
X3141402Y-7782613D01*
X3138290Y-7679867D01*
X3138015Y-7637362D01*
X3321087Y-7637362D01*
X3330709Y-7785072D01*
X3363792Y-7984975D01*
X3418240Y-8177391D01*
X3492938Y-8360846D01*
X3586773Y-8533871D01*
X3698631Y-8694993D01*
X3827399Y-8842742D01*
X3971962Y-8975646D01*
X4131208Y-9092233D01*
X4304022Y-9191033D01*
X4441391Y-9252386D01*
X4633242Y-9316316D01*
X4827258Y-9357680D01*
X5021827Y-9377046D01*
X5215335Y-9374984D01*
X5406167Y-9352063D01*
X5592711Y-9308852D01*
X5773353Y-9245921D01*
X5946478Y-9163838D01*
X6110474Y-9063172D01*
X6263726Y-8944494D01*
X6404621Y-8808372D01*
X6531545Y-8655375D01*
X6642885Y-8486073D01*
X6650277Y-8473234D01*
X6686268Y-8406901D01*
X6717770Y-8342659D01*
X6743311Y-8284138D01*
X6761421Y-8234968D01*
X6770627Y-8198779D01*
X6769474Y-8179224D01*
X6757414Y-8170018D01*
X6727269Y-8150152D01*
X6681124Y-8120912D01*
X6621061Y-8083587D01*
X6549165Y-8039466D01*
X6467519Y-7989837D01*
X6378207Y-7935988D01*
X6307292Y-7893513D01*
X5856023Y-7623992D01*
X5852985Y-8214689D01*
X5849948Y-8805387D01*
X5813992Y-8835642D01*
X5782968Y-8857464D01*
X5755331Y-8863836D01*
X5724182Y-8854503D01*
X5685143Y-8830921D01*
X5669118Y-8819562D01*
X5635422Y-8795238D01*
X5585288Y-8758847D01*
X5519947Y-8711290D01*
X5440631Y-8653467D01*
X5348573Y-8586277D01*
X5245004Y-8510620D01*
X5131156Y-8427395D01*
X5008261Y-8337503D01*
X4877551Y-8241843D01*
X4740258Y-8141316D01*
X4597613Y-8036820D01*
X4508076Y-7971203D01*
X4363868Y-7865538D01*
X4224982Y-7763831D01*
X4092581Y-7666932D01*
X3967828Y-7575689D01*
X3851885Y-7490951D01*
X3745917Y-7413567D01*
X3651085Y-7344385D01*
X3568554Y-7284254D01*
X3527260Y-7254222D01*
X3845824Y-7254222D01*
X3851685Y-7260083D01*
X3851928Y-7259840D01*
X3865578Y-7259840D01*
X3866662Y-7261311D01*
X3869755Y-7264054D01*
X3873430Y-7267298D01*
X3875127Y-7268959D01*
X3886095Y-7277523D01*
X3914658Y-7298933D01*
X3959478Y-7332208D01*
X4019223Y-7376364D01*
X4092555Y-7430419D01*
X4178140Y-7493392D01*
X4274643Y-7564298D01*
X4380727Y-7642157D01*
X4495058Y-7725986D01*
X4616301Y-7814803D01*
X4743120Y-7907624D01*
X4769701Y-7927070D01*
X4897267Y-8020344D01*
X5019413Y-8109580D01*
X5134818Y-8193817D01*
X5242162Y-8272096D01*
X5340126Y-8343455D01*
X5427388Y-8406934D01*
X5502628Y-8461575D01*
X5564527Y-8506415D01*
X5611764Y-8540495D01*
X5643019Y-8562854D01*
X5656972Y-8572533D01*
X5657588Y-8572865D01*
X5658580Y-8561516D01*
X5659507Y-8528959D01*
X5660350Y-8477429D01*
X5661089Y-8409159D01*
X5661705Y-8326383D01*
X5662178Y-8231338D01*
X5662489Y-8126256D01*
X5662619Y-8013372D01*
X5662622Y-7994705D01*
X5662622Y-7416546D01*
X5691829Y-7389106D01*
X5723515Y-7369019D01*
X5754449Y-7361667D01*
X5770626Y-7367713D01*
X5806033Y-7385552D01*
X5859908Y-7414739D01*
X5931486Y-7454826D01*
X6020006Y-7505366D01*
X6124705Y-7565914D01*
X6244819Y-7636023D01*
X6379585Y-7715245D01*
X6528241Y-7803135D01*
X6690024Y-7899245D01*
X6864171Y-8003129D01*
X7049918Y-8114340D01*
X7246503Y-8232432D01*
X7406161Y-8328605D01*
X7538025Y-8408126D01*
X7538025Y-8099662D01*
X7538025Y-7791198D01*
X6423341Y-7258981D01*
X6271473Y-7186481D01*
X6125512Y-7116821D01*
X5986854Y-7050667D01*
X5856896Y-6988685D01*
X5737035Y-6931539D01*
X5628668Y-6879895D01*
X5533191Y-6834419D01*
X5452002Y-6795776D01*
X5386496Y-6764632D01*
X5338071Y-6741653D01*
X5308124Y-6727503D01*
X5298098Y-6722858D01*
X5295869Y-6733434D01*
X5293838Y-6765736D01*
X5292037Y-6818046D01*
X5290496Y-6888647D01*
X5289246Y-6975823D01*
X5288316Y-7077857D01*
X5287738Y-7193032D01*
X5287541Y-7318245D01*
X5287541Y-7917540D01*
X5258770Y-7946310D01*
X5230259Y-7966294D01*
X5200866Y-7975063D01*
X5199795Y-7975080D01*
X5183810Y-7969477D01*
X5148881Y-7953192D01*
X5096509Y-7927016D01*
X5028194Y-7891737D01*
X4945439Y-7848145D01*
X4849742Y-7797028D01*
X4742606Y-7739176D01*
X4625532Y-7675379D01*
X4528219Y-7621963D01*
X4393988Y-7548053D01*
X4278876Y-7484663D01*
X4181456Y-7431023D01*
X4100303Y-7386362D01*
X4033991Y-7349909D01*
X3981094Y-7320894D01*
X3940185Y-7298547D01*
X3909841Y-7282095D01*
X3888633Y-7270770D01*
X3875137Y-7263799D01*
X3867928Y-7260413D01*
X3865578Y-7259840D01*
X3851928Y-7259840D01*
X3857545Y-7254222D01*
X3851685Y-7248361D01*
X3845824Y-7254222D01*
X3527260Y-7254222D01*
X3499487Y-7234023D01*
X3445046Y-7194541D01*
X3406395Y-7166655D01*
X3384696Y-7151215D01*
X3380220Y-7148257D01*
X3376724Y-7159707D01*
X3369843Y-7188387D01*
X3360936Y-7228568D01*
X3359070Y-7237301D01*
X3328390Y-7437111D01*
X3321087Y-7637362D01*
X3138015Y-7637362D01*
X3137812Y-7605860D01*
X3138535Y-7506624D01*
X3141284Y-7423434D01*
X3146881Y-7349571D01*
X3156150Y-7278313D01*
X3169914Y-7202941D01*
X3188996Y-7116734D01*
X3206722Y-7043239D01*
X3205565Y-7034789D01*
X3197448Y-7022775D01*
X3180672Y-7005816D01*
X3153538Y-6982533D01*
X3114347Y-6951544D01*
X3061399Y-6911469D01*
X2992995Y-6860928D01*
X2956429Y-6834265D01*
X3498830Y-6834265D01*
X3499349Y-6835466D01*
X3510069Y-6841683D01*
X3539755Y-6858329D01*
X3586832Y-6884534D01*
X3649726Y-6919426D01*
X3726863Y-6962135D01*
X3816669Y-7011789D01*
X3851685Y-7031129D01*
X3917570Y-7067519D01*
X4027992Y-7128453D01*
X4146361Y-7193720D01*
X4271102Y-7262451D01*
X4298951Y-7277788D01*
X5094140Y-7715697D01*
X5100000Y-7117628D01*
X5105861Y-6519559D01*
X5133532Y-6497158D01*
X5164262Y-6480569D01*
X5192139Y-6474798D01*
X5207459Y-6479758D01*
X5242203Y-6494104D01*
X5294671Y-6517055D01*
X5298098Y-6518595D01*
X5363164Y-6547829D01*
X5445982Y-6585646D01*
X5541425Y-6629724D01*
X5647796Y-6679282D01*
X5763393Y-6733538D01*
X5886519Y-6791711D01*
X6015472Y-6853021D01*
X6031701Y-6860764D01*
X6160472Y-6922173D01*
X6282979Y-6980504D01*
X6397599Y-7034988D01*
X6502705Y-7084856D01*
X6596672Y-7129341D01*
X6677874Y-7167673D01*
X6744685Y-7199085D01*
X6795480Y-7222807D01*
X6828634Y-7238073D01*
X6842521Y-7244113D01*
X6842845Y-7244173D01*
X6841953Y-7231421D01*
X6835322Y-7201572D01*
X6824419Y-7159836D01*
X6810710Y-7111424D01*
X6795663Y-7061545D01*
X6780744Y-7015412D01*
X6769542Y-6983783D01*
X6690684Y-6803801D01*
X6593980Y-6636796D01*
X6477713Y-6480124D01*
X6354578Y-6345422D01*
X6202760Y-6208419D01*
X6042218Y-6092775D01*
X5871507Y-5997722D01*
X5689185Y-5922493D01*
X5493806Y-5866318D01*
X5426174Y-5851823D01*
X5303988Y-5834024D01*
X5168819Y-5825154D01*
X5029361Y-5825213D01*
X4894306Y-5834200D01*
X4773827Y-5851823D01*
X4572791Y-5902618D01*
X4382586Y-5973825D01*
X4201049Y-6066347D01*
X4087146Y-6138023D01*
X4014375Y-6192600D01*
X3934363Y-6261469D01*
X3852337Y-6339405D01*
X3773524Y-6421180D01*
X3703150Y-6501569D01*
X3646442Y-6575344D01*
X3639037Y-6586109D01*
X3604056Y-6639605D01*
X3570881Y-6693315D01*
X3541641Y-6743438D01*
X3518466Y-6786172D01*
X3503486Y-6817715D01*
X3498830Y-6834265D01*
X2956429Y-6834265D01*
X2907435Y-6798540D01*
X2889290Y-6785371D01*
X2789782Y-6713146D01*
X2707609Y-6653256D01*
X2641112Y-6604296D01*
X2588633Y-6564862D01*
X2548513Y-6533547D01*
X2519093Y-6508947D01*
X2498715Y-6489656D01*
X2485720Y-6474269D01*
X2478451Y-6461380D01*
X2475248Y-6449585D01*
X2474452Y-6437477D01*
X2474435Y-6433861D01*
X2480981Y-6399491D01*
X2504006Y-6370129D01*
X2510498Y-6364447D01*
X2538346Y-6344925D01*
X2562102Y-6334626D01*
X2566174Y-6334149D01*
X2580670Y-6339655D01*
X2613193Y-6355299D01*
X2661295Y-6379798D01*
X2722528Y-6411872D01*
X2794445Y-6450239D01*
X2874599Y-6493619D01*
X2954753Y-6537539D01*
X3323718Y-6740882D01*
X3378994Y-6642277D01*
X3380220Y-6640246D01*
X3448589Y-6526962D01*
X3523750Y-6421047D01*
X3609602Y-6317874D01*
X3711030Y-6211029D01*
X3873336Y-6063880D01*
X4044291Y-5938505D01*
X4224182Y-5834780D01*
X4413295Y-5752576D01*
X4611917Y-5691769D01*
X4820337Y-5652233D01*
X5024037Y-5634407D01*
X5168819Y-5635787D01*
G37*
%TO.C,J2*%
X9860000Y-13040000D02*
X10970000Y-13040000D01*
X9860000Y-13800000D02*
X9860000Y-13040000D01*
X9860000Y-14560000D02*
X9860000Y-17035000D01*
X9860000Y-14560000D02*
X10406529Y-14560000D01*
X9860000Y-17035000D02*
X10662470Y-17035000D01*
X11277530Y-17035000D02*
X12080000Y-17035000D01*
X11533471Y-14560000D02*
X12080000Y-14560000D01*
X12080000Y-14560000D02*
X12080000Y-17035000D01*
%TO.C,C7*%
X42960000Y-10407836D02*
X42960000Y-10192164D01*
X43680000Y-10407836D02*
X43680000Y-10192164D01*
%TO.C,C9*%
X36030000Y-22692164D02*
X36030000Y-22907836D01*
X35310000Y-22692164D02*
X35310000Y-22907836D01*
%TO.C,SW2*%
X39810000Y-15490000D02*
X39810000Y-16600000D01*
X39050000Y-15490000D02*
X39810000Y-15490000D01*
X38290000Y-15490000D02*
X37085000Y-15490000D01*
X38290000Y-15490000D02*
X38290000Y-16036529D01*
X37085000Y-15490000D02*
X37085000Y-16292470D01*
X37085000Y-16907530D02*
X37085000Y-17710000D01*
X38290000Y-17163471D02*
X38290000Y-17710000D01*
X38290000Y-17710000D02*
X37085000Y-17710000D01*
%TO.C,C10*%
X35980000Y-29985000D02*
X35980000Y-28415000D01*
X35980000Y-28415000D02*
X33270000Y-28415000D01*
X33270000Y-29985000D02*
X35980000Y-29985000D01*
D12*
%TO.C,U1*%
X45773400Y-25587500D02*
X45773400Y-22844300D01*
X45773400Y-22844300D02*
X45447140Y-22844300D01*
X44556740Y-25587500D02*
X45773400Y-25587500D01*
X44349860Y-22844300D02*
X43972540Y-22844300D01*
X42824460Y-22844300D02*
X42447140Y-22844300D01*
X41349860Y-22844300D02*
X41023600Y-22844300D01*
X41023600Y-25587500D02*
X42240260Y-25587500D01*
X41023600Y-22844300D02*
X41023600Y-25587500D01*
X47043400Y-22272800D02*
G75*
G03*
X47043400Y-22272800I-127000J0D01*
G01*
D11*
%TO.C,R1*%
X33923641Y-7380000D02*
X33616359Y-7380000D01*
X33923641Y-6620000D02*
X33616359Y-6620000D01*
%TO.C,C2*%
X17232000Y-4441500D02*
X17232000Y-6311500D01*
X17232000Y-6311500D02*
X21317000Y-6311500D01*
X21317000Y-4441500D02*
X17232000Y-4441500D01*
%TO.C,R10*%
X11390000Y-10003641D02*
X11390000Y-9696359D01*
X12150000Y-10003641D02*
X12150000Y-9696359D01*
%TO.C,R12*%
X14513641Y-12280000D02*
X14206359Y-12280000D01*
X14513641Y-11520000D02*
X14206359Y-11520000D01*
%TO.C,JP2*%
X14470000Y-22700000D02*
X13870000Y-22700000D01*
X13170000Y-22000000D02*
X13170000Y-20600000D01*
X15170000Y-20600000D02*
X15170000Y-22000000D01*
X13870000Y-19900000D02*
X14470000Y-19900000D01*
X13170000Y-22000000D02*
G75*
G03*
X13870000Y-22700000I699999J-1D01*
G01*
X14470000Y-22700000D02*
G75*
G03*
X15170000Y-22000000I1J699999D01*
G01*
X13870000Y-19900000D02*
G75*
G03*
X13170000Y-20600000I0J-700000D01*
G01*
X15170000Y-20600000D02*
G75*
G03*
X14470000Y-19900000I-700000J0D01*
G01*
%TO.C,C5*%
X43762164Y-20440000D02*
X43977836Y-20440000D01*
X43762164Y-21160000D02*
X43977836Y-21160000D01*
%TO.C,D3*%
X40470000Y-18110000D02*
X42470000Y-18110000D01*
X40470000Y-18110000D02*
X40470000Y-14100000D01*
X42470000Y-18110000D02*
X42470000Y-14100000D01*
%TO.C,R17*%
X35966359Y-25320000D02*
X36273641Y-25320000D01*
X35966359Y-26080000D02*
X36273641Y-26080000D01*
%TO.C,C4*%
X41817500Y-20535000D02*
X41817500Y-18665000D01*
X41817500Y-18665000D02*
X37732500Y-18665000D01*
X37732500Y-20535000D02*
X41817500Y-20535000D01*
%TO.C,BT1*%
X39750000Y-12290000D02*
X39750000Y-13400000D01*
X38990000Y-12290000D02*
X39750000Y-12290000D01*
X38230000Y-12290000D02*
X37025000Y-12290000D01*
X38230000Y-12290000D02*
X38230000Y-12836529D01*
X37025000Y-12290000D02*
X37025000Y-13092470D01*
X37025000Y-13707530D02*
X37025000Y-14510000D01*
X38230000Y-13963471D02*
X38230000Y-14510000D01*
X38230000Y-14510000D02*
X37025000Y-14510000D01*
%TO.C,REF\u002A\u002A*%
G36*
X30288614Y-17275877D02*
G01*
X30312327Y-17290647D01*
X30338978Y-17312227D01*
X30338978Y-17633773D01*
X30338893Y-17727830D01*
X30338529Y-17801932D01*
X30337724Y-17858704D01*
X30336313Y-17900768D01*
X30334133Y-17930748D01*
X30331021Y-17951267D01*
X30326814Y-17964949D01*
X30321348Y-17974416D01*
X30317472Y-17979082D01*
X30286034Y-17999575D01*
X30250233Y-17998739D01*
X30218873Y-17981264D01*
X30192222Y-17959684D01*
X30192222Y-17312227D01*
X30218873Y-17290647D01*
X30244594Y-17274949D01*
X30265600Y-17269067D01*
X30288614Y-17275877D01*
G37*
D13*
X30288614Y-17275877D02*
X30312327Y-17290647D01*
X30338978Y-17312227D01*
X30338978Y-17633773D01*
X30338893Y-17727830D01*
X30338529Y-17801932D01*
X30337724Y-17858704D01*
X30336313Y-17900768D01*
X30334133Y-17930748D01*
X30331021Y-17951267D01*
X30326814Y-17964949D01*
X30321348Y-17974416D01*
X30317472Y-17979082D01*
X30286034Y-17999575D01*
X30250233Y-17998739D01*
X30218873Y-17981264D01*
X30192222Y-17959684D01*
X30192222Y-17312227D01*
X30218873Y-17290647D01*
X30244594Y-17274949D01*
X30265600Y-17269067D01*
X30288614Y-17275877D01*
G36*
X23176178Y-17291645D02*
G01*
X23182758Y-17299218D01*
X23187921Y-17308987D01*
X23191836Y-17323571D01*
X23194676Y-17345585D01*
X23196613Y-17377648D01*
X23197817Y-17422375D01*
X23198461Y-17482385D01*
X23198716Y-17560294D01*
X23198755Y-17635956D01*
X23198686Y-17729802D01*
X23198362Y-17803689D01*
X23197614Y-17860232D01*
X23196268Y-17902049D01*
X23194154Y-17931757D01*
X23191100Y-17951973D01*
X23186934Y-17965314D01*
X23181484Y-17974398D01*
X23176178Y-17980267D01*
X23143174Y-17999947D01*
X23108009Y-17998181D01*
X23076545Y-17976717D01*
X23069316Y-17968337D01*
X23063666Y-17958614D01*
X23059401Y-17944861D01*
X23056327Y-17924389D01*
X23054248Y-17894512D01*
X23052970Y-17852541D01*
X23052299Y-17795789D01*
X23052041Y-17721567D01*
X23052000Y-17637537D01*
X23052000Y-17324485D01*
X23079709Y-17296776D01*
X23113863Y-17273463D01*
X23146994Y-17272623D01*
X23176178Y-17291645D01*
G37*
X23176178Y-17291645D02*
X23182758Y-17299218D01*
X23187921Y-17308987D01*
X23191836Y-17323571D01*
X23194676Y-17345585D01*
X23196613Y-17377648D01*
X23197817Y-17422375D01*
X23198461Y-17482385D01*
X23198716Y-17560294D01*
X23198755Y-17635956D01*
X23198686Y-17729802D01*
X23198362Y-17803689D01*
X23197614Y-17860232D01*
X23196268Y-17902049D01*
X23194154Y-17931757D01*
X23191100Y-17951973D01*
X23186934Y-17965314D01*
X23181484Y-17974398D01*
X23176178Y-17980267D01*
X23143174Y-17999947D01*
X23108009Y-17998181D01*
X23076545Y-17976717D01*
X23069316Y-17968337D01*
X23063666Y-17958614D01*
X23059401Y-17944861D01*
X23056327Y-17924389D01*
X23054248Y-17894512D01*
X23052970Y-17852541D01*
X23052299Y-17795789D01*
X23052041Y-17721567D01*
X23052000Y-17637537D01*
X23052000Y-17324485D01*
X23079709Y-17296776D01*
X23113863Y-17273463D01*
X23146994Y-17272623D01*
X23176178Y-17291645D01*
G36*
X23826957Y-12026571D02*
G01*
X23923232Y-12050809D01*
X24009816Y-12093641D01*
X24084627Y-12153419D01*
X24145582Y-12228494D01*
X24190601Y-12317220D01*
X24216864Y-12413530D01*
X24222714Y-12510795D01*
X24207860Y-12604654D01*
X24174160Y-12692511D01*
X24123472Y-12771770D01*
X24057655Y-12839836D01*
X23978566Y-12894112D01*
X23888066Y-12932002D01*
X23836800Y-12944426D01*
X23792302Y-12951947D01*
X23758001Y-12954919D01*
X23725040Y-12953094D01*
X23684566Y-12946225D01*
X23651469Y-12939250D01*
X23558053Y-12907741D01*
X23474381Y-12856617D01*
X23402335Y-12787429D01*
X23343800Y-12701728D01*
X23329852Y-12674489D01*
X23313414Y-12638122D01*
X23303106Y-12607582D01*
X23297540Y-12575450D01*
X23295331Y-12534307D01*
X23295052Y-12488222D01*
X23299139Y-12403865D01*
X23312554Y-12334586D01*
X23337744Y-12273961D01*
X23377154Y-12215567D01*
X23415702Y-12171302D01*
X23487594Y-12105484D01*
X23562687Y-12060053D01*
X23645438Y-12032850D01*
X23723072Y-12022576D01*
X23826957Y-12026571D01*
G37*
X23826957Y-12026571D02*
X23923232Y-12050809D01*
X24009816Y-12093641D01*
X24084627Y-12153419D01*
X24145582Y-12228494D01*
X24190601Y-12317220D01*
X24216864Y-12413530D01*
X24222714Y-12510795D01*
X24207860Y-12604654D01*
X24174160Y-12692511D01*
X24123472Y-12771770D01*
X24057655Y-12839836D01*
X23978566Y-12894112D01*
X23888066Y-12932002D01*
X23836800Y-12944426D01*
X23792302Y-12951947D01*
X23758001Y-12954919D01*
X23725040Y-12953094D01*
X23684566Y-12946225D01*
X23651469Y-12939250D01*
X23558053Y-12907741D01*
X23474381Y-12856617D01*
X23402335Y-12787429D01*
X23343800Y-12701728D01*
X23329852Y-12674489D01*
X23313414Y-12638122D01*
X23303106Y-12607582D01*
X23297540Y-12575450D01*
X23295331Y-12534307D01*
X23295052Y-12488222D01*
X23299139Y-12403865D01*
X23312554Y-12334586D01*
X23337744Y-12273961D01*
X23377154Y-12215567D01*
X23415702Y-12171302D01*
X23487594Y-12105484D01*
X23562687Y-12060053D01*
X23645438Y-12032850D01*
X23723072Y-12022576D01*
X23826957Y-12026571D01*
G36*
X31063065Y-17269163D02*
G01*
X31141772Y-17269542D01*
X31202863Y-17270333D01*
X31248817Y-17271670D01*
X31282114Y-17273683D01*
X31305236Y-17276506D01*
X31320662Y-17280269D01*
X31330871Y-17285105D01*
X31335813Y-17288822D01*
X31361457Y-17321358D01*
X31364559Y-17355138D01*
X31348711Y-17385826D01*
X31338348Y-17398089D01*
X31327196Y-17406450D01*
X31311035Y-17411657D01*
X31285642Y-17414457D01*
X31246798Y-17415596D01*
X31190280Y-17415821D01*
X31179180Y-17415822D01*
X31033244Y-17415822D01*
X31033244Y-17686756D01*
X31033148Y-17772154D01*
X31032711Y-17837864D01*
X31031712Y-17886774D01*
X31029928Y-17921773D01*
X31027137Y-17945749D01*
X31023117Y-17961593D01*
X31017645Y-17972191D01*
X31010666Y-17980267D01*
X30977734Y-18000112D01*
X30943354Y-17998548D01*
X30912176Y-17975906D01*
X30909886Y-17973100D01*
X30902429Y-17962492D01*
X30896747Y-17950081D01*
X30892601Y-17932850D01*
X30889750Y-17907784D01*
X30887954Y-17871867D01*
X30886972Y-17822083D01*
X30886564Y-17755417D01*
X30886489Y-17679589D01*
X30886489Y-17415822D01*
X30747127Y-17415822D01*
X30687322Y-17415418D01*
X30645918Y-17413840D01*
X30618748Y-17410547D01*
X30601646Y-17404992D01*
X30590443Y-17396631D01*
X30589083Y-17395178D01*
X30572725Y-17361939D01*
X30574172Y-17324362D01*
X30592978Y-17291645D01*
X30600250Y-17285298D01*
X30609627Y-17280266D01*
X30623609Y-17276396D01*
X30644696Y-17273537D01*
X30675389Y-17271535D01*
X30718189Y-17270239D01*
X30775595Y-17269498D01*
X30850110Y-17269158D01*
X30944233Y-17269068D01*
X30964260Y-17269067D01*
X31063065Y-17269163D01*
G37*
X31063065Y-17269163D02*
X31141772Y-17269542D01*
X31202863Y-17270333D01*
X31248817Y-17271670D01*
X31282114Y-17273683D01*
X31305236Y-17276506D01*
X31320662Y-17280269D01*
X31330871Y-17285105D01*
X31335813Y-17288822D01*
X31361457Y-17321358D01*
X31364559Y-17355138D01*
X31348711Y-17385826D01*
X31338348Y-17398089D01*
X31327196Y-17406450D01*
X31311035Y-17411657D01*
X31285642Y-17414457D01*
X31246798Y-17415596D01*
X31190280Y-17415821D01*
X31179180Y-17415822D01*
X31033244Y-17415822D01*
X31033244Y-17686756D01*
X31033148Y-17772154D01*
X31032711Y-17837864D01*
X31031712Y-17886774D01*
X31029928Y-17921773D01*
X31027137Y-17945749D01*
X31023117Y-17961593D01*
X31017645Y-17972191D01*
X31010666Y-17980267D01*
X30977734Y-18000112D01*
X30943354Y-17998548D01*
X30912176Y-17975906D01*
X30909886Y-17973100D01*
X30902429Y-17962492D01*
X30896747Y-17950081D01*
X30892601Y-17932850D01*
X30889750Y-17907784D01*
X30887954Y-17871867D01*
X30886972Y-17822083D01*
X30886564Y-17755417D01*
X30886489Y-17679589D01*
X30886489Y-17415822D01*
X30747127Y-17415822D01*
X30687322Y-17415418D01*
X30645918Y-17413840D01*
X30618748Y-17410547D01*
X30601646Y-17404992D01*
X30590443Y-17396631D01*
X30589083Y-17395178D01*
X30572725Y-17361939D01*
X30574172Y-17324362D01*
X30592978Y-17291645D01*
X30600250Y-17285298D01*
X30609627Y-17280266D01*
X30623609Y-17276396D01*
X30644696Y-17273537D01*
X30675389Y-17271535D01*
X30718189Y-17270239D01*
X30775595Y-17269498D01*
X30850110Y-17269158D01*
X30944233Y-17269068D01*
X30964260Y-17269067D01*
X31063065Y-17269163D01*
G36*
X32328823Y-17274533D02*
G01*
X32360202Y-17296776D01*
X32387911Y-17324485D01*
X32387911Y-17633920D01*
X32387838Y-17725799D01*
X32387495Y-17797840D01*
X32386692Y-17852780D01*
X32385241Y-17893360D01*
X32382952Y-17922317D01*
X32379636Y-17942391D01*
X32375105Y-17956321D01*
X32369169Y-17966845D01*
X32364514Y-17973100D01*
X32333783Y-17997673D01*
X32298496Y-18000341D01*
X32266245Y-17985271D01*
X32255588Y-17976374D01*
X32248464Y-17964557D01*
X32244167Y-17945526D01*
X32241991Y-17914992D01*
X32241228Y-17868662D01*
X32241155Y-17832871D01*
X32241155Y-17698045D01*
X31744444Y-17698045D01*
X31744444Y-17820700D01*
X31743931Y-17876787D01*
X31741876Y-17915333D01*
X31737508Y-17941361D01*
X31730056Y-17959897D01*
X31721047Y-17973100D01*
X31690144Y-17997604D01*
X31655196Y-18000506D01*
X31621738Y-17983089D01*
X31612604Y-17973959D01*
X31606152Y-17961855D01*
X31601897Y-17943001D01*
X31599352Y-17913620D01*
X31598029Y-17869937D01*
X31597443Y-17808175D01*
X31597375Y-17794000D01*
X31596891Y-17677631D01*
X31596641Y-17581727D01*
X31596723Y-17504177D01*
X31597231Y-17442869D01*
X31598262Y-17395690D01*
X31599913Y-17360530D01*
X31602279Y-17335276D01*
X31605457Y-17317817D01*
X31609544Y-17306041D01*
X31614634Y-17297835D01*
X31620266Y-17291645D01*
X31652128Y-17271844D01*
X31685357Y-17274533D01*
X31716735Y-17296776D01*
X31729433Y-17311126D01*
X31737526Y-17326978D01*
X31742042Y-17349554D01*
X31744006Y-17384078D01*
X31744444Y-17435776D01*
X31744444Y-17551289D01*
X32241155Y-17551289D01*
X32241155Y-17432756D01*
X32241662Y-17378148D01*
X32243698Y-17341275D01*
X32248035Y-17317307D01*
X32255447Y-17301415D01*
X32263733Y-17291645D01*
X32295594Y-17271844D01*
X32328823Y-17274533D01*
G37*
X32328823Y-17274533D02*
X32360202Y-17296776D01*
X32387911Y-17324485D01*
X32387911Y-17633920D01*
X32387838Y-17725799D01*
X32387495Y-17797840D01*
X32386692Y-17852780D01*
X32385241Y-17893360D01*
X32382952Y-17922317D01*
X32379636Y-17942391D01*
X32375105Y-17956321D01*
X32369169Y-17966845D01*
X32364514Y-17973100D01*
X32333783Y-17997673D01*
X32298496Y-18000341D01*
X32266245Y-17985271D01*
X32255588Y-17976374D01*
X32248464Y-17964557D01*
X32244167Y-17945526D01*
X32241991Y-17914992D01*
X32241228Y-17868662D01*
X32241155Y-17832871D01*
X32241155Y-17698045D01*
X31744444Y-17698045D01*
X31744444Y-17820700D01*
X31743931Y-17876787D01*
X31741876Y-17915333D01*
X31737508Y-17941361D01*
X31730056Y-17959897D01*
X31721047Y-17973100D01*
X31690144Y-17997604D01*
X31655196Y-18000506D01*
X31621738Y-17983089D01*
X31612604Y-17973959D01*
X31606152Y-17961855D01*
X31601897Y-17943001D01*
X31599352Y-17913620D01*
X31598029Y-17869937D01*
X31597443Y-17808175D01*
X31597375Y-17794000D01*
X31596891Y-17677631D01*
X31596641Y-17581727D01*
X31596723Y-17504177D01*
X31597231Y-17442869D01*
X31598262Y-17395690D01*
X31599913Y-17360530D01*
X31602279Y-17335276D01*
X31605457Y-17317817D01*
X31609544Y-17306041D01*
X31614634Y-17297835D01*
X31620266Y-17291645D01*
X31652128Y-17271844D01*
X31685357Y-17274533D01*
X31716735Y-17296776D01*
X31729433Y-17311126D01*
X31737526Y-17326978D01*
X31742042Y-17349554D01*
X31744006Y-17384078D01*
X31744444Y-17435776D01*
X31744444Y-17551289D01*
X32241155Y-17551289D01*
X32241155Y-17432756D01*
X32241662Y-17378148D01*
X32243698Y-17341275D01*
X32248035Y-17317307D01*
X32255447Y-17301415D01*
X32263733Y-17291645D01*
X32295594Y-17271844D01*
X32328823Y-17274533D01*
G36*
X26913668Y-17835021D02*
G01*
X26913050Y-17774311D01*
X26912825Y-17695526D01*
X26912800Y-17633920D01*
X26912800Y-17415822D01*
X27070844Y-17415822D01*
X27070844Y-17856089D01*
X27164726Y-17856089D01*
X27219664Y-17854483D01*
X27276060Y-17850255D01*
X27322345Y-17844292D01*
X27325139Y-17843790D01*
X27407348Y-17821736D01*
X27471114Y-17788600D01*
X27518452Y-17742847D01*
X27551382Y-17682939D01*
X27557108Y-17667061D01*
X27562721Y-17642333D01*
X27560291Y-17617902D01*
X27548467Y-17585400D01*
X27541340Y-17569434D01*
X27518000Y-17527006D01*
X27489880Y-17497240D01*
X27458940Y-17476511D01*
X27396966Y-17449537D01*
X27317651Y-17429998D01*
X27225253Y-17418746D01*
X27158333Y-17416270D01*
X27070844Y-17415822D01*
X26912800Y-17415822D01*
X26912800Y-17324485D01*
X26940509Y-17296776D01*
X26952806Y-17285544D01*
X26966103Y-17277853D01*
X26984672Y-17273040D01*
X27012786Y-17270446D01*
X27054717Y-17269410D01*
X27114737Y-17269270D01*
X27118309Y-17269275D01*
X27247288Y-17273636D01*
X27356991Y-17286861D01*
X27449226Y-17309741D01*
X27525802Y-17343070D01*
X27588527Y-17387638D01*
X27639212Y-17444236D01*
X27679663Y-17513658D01*
X27680459Y-17515351D01*
X27704601Y-17577483D01*
X27713203Y-17632509D01*
X27706231Y-17687887D01*
X27683654Y-17751073D01*
X27679372Y-17760689D01*
X27650172Y-17816966D01*
X27617356Y-17860451D01*
X27575002Y-17897417D01*
X27517190Y-17934135D01*
X27513831Y-17936052D01*
X27463504Y-17960227D01*
X27406621Y-17978282D01*
X27339527Y-17990839D01*
X27258565Y-17998522D01*
X27160082Y-18001953D01*
X27125286Y-18002251D01*
X26959594Y-18002845D01*
X26936197Y-17973100D01*
X26929257Y-17963319D01*
X26923842Y-17951897D01*
X26919765Y-17936095D01*
X26916837Y-17913175D01*
X26914867Y-17880396D01*
X26914225Y-17856089D01*
X26913668Y-17835021D01*
G37*
X26913668Y-17835021D02*
X26913050Y-17774311D01*
X26912825Y-17695526D01*
X26912800Y-17633920D01*
X26912800Y-17415822D01*
X27070844Y-17415822D01*
X27070844Y-17856089D01*
X27164726Y-17856089D01*
X27219664Y-17854483D01*
X27276060Y-17850255D01*
X27322345Y-17844292D01*
X27325139Y-17843790D01*
X27407348Y-17821736D01*
X27471114Y-17788600D01*
X27518452Y-17742847D01*
X27551382Y-17682939D01*
X27557108Y-17667061D01*
X27562721Y-17642333D01*
X27560291Y-17617902D01*
X27548467Y-17585400D01*
X27541340Y-17569434D01*
X27518000Y-17527006D01*
X27489880Y-17497240D01*
X27458940Y-17476511D01*
X27396966Y-17449537D01*
X27317651Y-17429998D01*
X27225253Y-17418746D01*
X27158333Y-17416270D01*
X27070844Y-17415822D01*
X26912800Y-17415822D01*
X26912800Y-17324485D01*
X26940509Y-17296776D01*
X26952806Y-17285544D01*
X26966103Y-17277853D01*
X26984672Y-17273040D01*
X27012786Y-17270446D01*
X27054717Y-17269410D01*
X27114737Y-17269270D01*
X27118309Y-17269275D01*
X27247288Y-17273636D01*
X27356991Y-17286861D01*
X27449226Y-17309741D01*
X27525802Y-17343070D01*
X27588527Y-17387638D01*
X27639212Y-17444236D01*
X27679663Y-17513658D01*
X27680459Y-17515351D01*
X27704601Y-17577483D01*
X27713203Y-17632509D01*
X27706231Y-17687887D01*
X27683654Y-17751073D01*
X27679372Y-17760689D01*
X27650172Y-17816966D01*
X27617356Y-17860451D01*
X27575002Y-17897417D01*
X27517190Y-17934135D01*
X27513831Y-17936052D01*
X27463504Y-17960227D01*
X27406621Y-17978282D01*
X27339527Y-17990839D01*
X27258565Y-17998522D01*
X27160082Y-18001953D01*
X27125286Y-18002251D01*
X26959594Y-18002845D01*
X26936197Y-17973100D01*
X26929257Y-17963319D01*
X26923842Y-17951897D01*
X26919765Y-17936095D01*
X26916837Y-17913175D01*
X26914867Y-17880396D01*
X26914225Y-17856089D01*
X26913668Y-17835021D01*
G36*
X19824143Y-17415822D02*
G01*
X19824740Y-17391851D01*
X19829002Y-17345055D01*
X19837170Y-17311778D01*
X19850444Y-17289759D01*
X19870026Y-17276739D01*
X19897117Y-17270457D01*
X19932918Y-17268653D01*
X19978629Y-17269066D01*
X20018111Y-17269467D01*
X20133800Y-17272259D01*
X20230689Y-17280550D01*
X20312081Y-17295232D01*
X20381277Y-17317193D01*
X20441580Y-17347322D01*
X20496292Y-17386510D01*
X20515833Y-17403532D01*
X20548250Y-17443363D01*
X20577480Y-17497413D01*
X20600009Y-17557323D01*
X20612321Y-17614739D01*
X20613600Y-17635956D01*
X20605583Y-17694769D01*
X20584101Y-17759013D01*
X20553001Y-17819821D01*
X20516134Y-17868330D01*
X20510146Y-17874182D01*
X20459421Y-17915321D01*
X20403875Y-17947435D01*
X20340304Y-17971365D01*
X20265506Y-17987953D01*
X20176278Y-17998041D01*
X20069418Y-18002469D01*
X20020472Y-18002845D01*
X19958238Y-18002545D01*
X19914472Y-18001292D01*
X19885069Y-17998554D01*
X19865921Y-17993801D01*
X19852923Y-17986501D01*
X19845955Y-17980267D01*
X19839374Y-17972694D01*
X19834212Y-17962924D01*
X19830297Y-17948340D01*
X19827457Y-17926326D01*
X19825520Y-17894264D01*
X19824492Y-17856089D01*
X19970133Y-17856089D01*
X20063266Y-17856004D01*
X20119307Y-17854396D01*
X20178001Y-17850256D01*
X20226972Y-17844464D01*
X20228462Y-17844226D01*
X20307608Y-17825090D01*
X20368998Y-17795287D01*
X20415695Y-17752878D01*
X20445365Y-17706961D01*
X20463647Y-17656026D01*
X20462229Y-17608200D01*
X20441012Y-17556933D01*
X20399511Y-17503899D01*
X20342002Y-17464600D01*
X20267250Y-17438331D01*
X20217292Y-17429035D01*
X20160584Y-17422507D01*
X20100481Y-17417782D01*
X20049361Y-17415817D01*
X20046333Y-17415808D01*
X19970133Y-17415822D01*
X19970133Y-17856089D01*
X19824492Y-17856089D01*
X19824316Y-17849536D01*
X19823672Y-17789526D01*
X19823417Y-17711617D01*
X19823378Y-17635956D01*
X19823130Y-17535041D01*
X19823183Y-17454427D01*
X19824143Y-17415822D01*
G37*
X19824143Y-17415822D02*
X19824740Y-17391851D01*
X19829002Y-17345055D01*
X19837170Y-17311778D01*
X19850444Y-17289759D01*
X19870026Y-17276739D01*
X19897117Y-17270457D01*
X19932918Y-17268653D01*
X19978629Y-17269066D01*
X20018111Y-17269467D01*
X20133800Y-17272259D01*
X20230689Y-17280550D01*
X20312081Y-17295232D01*
X20381277Y-17317193D01*
X20441580Y-17347322D01*
X20496292Y-17386510D01*
X20515833Y-17403532D01*
X20548250Y-17443363D01*
X20577480Y-17497413D01*
X20600009Y-17557323D01*
X20612321Y-17614739D01*
X20613600Y-17635956D01*
X20605583Y-17694769D01*
X20584101Y-17759013D01*
X20553001Y-17819821D01*
X20516134Y-17868330D01*
X20510146Y-17874182D01*
X20459421Y-17915321D01*
X20403875Y-17947435D01*
X20340304Y-17971365D01*
X20265506Y-17987953D01*
X20176278Y-17998041D01*
X20069418Y-18002469D01*
X20020472Y-18002845D01*
X19958238Y-18002545D01*
X19914472Y-18001292D01*
X19885069Y-17998554D01*
X19865921Y-17993801D01*
X19852923Y-17986501D01*
X19845955Y-17980267D01*
X19839374Y-17972694D01*
X19834212Y-17962924D01*
X19830297Y-17948340D01*
X19827457Y-17926326D01*
X19825520Y-17894264D01*
X19824492Y-17856089D01*
X19970133Y-17856089D01*
X20063266Y-17856004D01*
X20119307Y-17854396D01*
X20178001Y-17850256D01*
X20226972Y-17844464D01*
X20228462Y-17844226D01*
X20307608Y-17825090D01*
X20368998Y-17795287D01*
X20415695Y-17752878D01*
X20445365Y-17706961D01*
X20463647Y-17656026D01*
X20462229Y-17608200D01*
X20441012Y-17556933D01*
X20399511Y-17503899D01*
X20342002Y-17464600D01*
X20267250Y-17438331D01*
X20217292Y-17429035D01*
X20160584Y-17422507D01*
X20100481Y-17417782D01*
X20049361Y-17415817D01*
X20046333Y-17415808D01*
X19970133Y-17415822D01*
X19970133Y-17856089D01*
X19824492Y-17856089D01*
X19824316Y-17849536D01*
X19823672Y-17789526D01*
X19823417Y-17711617D01*
X19823378Y-17635956D01*
X19823130Y-17535041D01*
X19823183Y-17454427D01*
X19824143Y-17415822D01*
G36*
X24799886Y-17273448D02*
G01*
X24823452Y-17287273D01*
X24854265Y-17309881D01*
X24893922Y-17342338D01*
X24944020Y-17385708D01*
X25006157Y-17441058D01*
X25081928Y-17509451D01*
X25168666Y-17588084D01*
X25349289Y-17751878D01*
X25354933Y-17532029D01*
X25356971Y-17456351D01*
X25358937Y-17399994D01*
X25361266Y-17359706D01*
X25364394Y-17332235D01*
X25368755Y-17314329D01*
X25374784Y-17302737D01*
X25382916Y-17294208D01*
X25387228Y-17290623D01*
X25421759Y-17271670D01*
X25454617Y-17274441D01*
X25480682Y-17290633D01*
X25507333Y-17312199D01*
X25510648Y-17627151D01*
X25511565Y-17719779D01*
X25512032Y-17792544D01*
X25511887Y-17848161D01*
X25510968Y-17889342D01*
X25509113Y-17918803D01*
X25506161Y-17939255D01*
X25501950Y-17953413D01*
X25496318Y-17963991D01*
X25490073Y-17972474D01*
X25476561Y-17988207D01*
X25463117Y-17998636D01*
X25447876Y-18002639D01*
X25428974Y-17999094D01*
X25404545Y-17986879D01*
X25372727Y-17964871D01*
X25331652Y-17931949D01*
X25279458Y-17886991D01*
X25214278Y-17828875D01*
X25140444Y-17762099D01*
X24875155Y-17521458D01*
X24869511Y-17740589D01*
X24867469Y-17816128D01*
X24865498Y-17872354D01*
X24863161Y-17912524D01*
X24860019Y-17939896D01*
X24855636Y-17957728D01*
X24849576Y-17969279D01*
X24841400Y-17977807D01*
X24837216Y-17981282D01*
X24800235Y-18000372D01*
X24765292Y-17997493D01*
X24734864Y-17973100D01*
X24727903Y-17963286D01*
X24722477Y-17951826D01*
X24718397Y-17935968D01*
X24715471Y-17912963D01*
X24713508Y-17880062D01*
X24712317Y-17834516D01*
X24711708Y-17773573D01*
X24711489Y-17694486D01*
X24711466Y-17635956D01*
X24711540Y-17544407D01*
X24711887Y-17472687D01*
X24712699Y-17418045D01*
X24714167Y-17377732D01*
X24716481Y-17348998D01*
X24719833Y-17329093D01*
X24724412Y-17315268D01*
X24730411Y-17304772D01*
X24734864Y-17298811D01*
X24746150Y-17284691D01*
X24756699Y-17274029D01*
X24768107Y-17267892D01*
X24781970Y-17267343D01*
X24799886Y-17273448D01*
G37*
X24799886Y-17273448D02*
X24823452Y-17287273D01*
X24854265Y-17309881D01*
X24893922Y-17342338D01*
X24944020Y-17385708D01*
X25006157Y-17441058D01*
X25081928Y-17509451D01*
X25168666Y-17588084D01*
X25349289Y-17751878D01*
X25354933Y-17532029D01*
X25356971Y-17456351D01*
X25358937Y-17399994D01*
X25361266Y-17359706D01*
X25364394Y-17332235D01*
X25368755Y-17314329D01*
X25374784Y-17302737D01*
X25382916Y-17294208D01*
X25387228Y-17290623D01*
X25421759Y-17271670D01*
X25454617Y-17274441D01*
X25480682Y-17290633D01*
X25507333Y-17312199D01*
X25510648Y-17627151D01*
X25511565Y-17719779D01*
X25512032Y-17792544D01*
X25511887Y-17848161D01*
X25510968Y-17889342D01*
X25509113Y-17918803D01*
X25506161Y-17939255D01*
X25501950Y-17953413D01*
X25496318Y-17963991D01*
X25490073Y-17972474D01*
X25476561Y-17988207D01*
X25463117Y-17998636D01*
X25447876Y-18002639D01*
X25428974Y-17999094D01*
X25404545Y-17986879D01*
X25372727Y-17964871D01*
X25331652Y-17931949D01*
X25279458Y-17886991D01*
X25214278Y-17828875D01*
X25140444Y-17762099D01*
X24875155Y-17521458D01*
X24869511Y-17740589D01*
X24867469Y-17816128D01*
X24865498Y-17872354D01*
X24863161Y-17912524D01*
X24860019Y-17939896D01*
X24855636Y-17957728D01*
X24849576Y-17969279D01*
X24841400Y-17977807D01*
X24837216Y-17981282D01*
X24800235Y-18000372D01*
X24765292Y-17997493D01*
X24734864Y-17973100D01*
X24727903Y-17963286D01*
X24722477Y-17951826D01*
X24718397Y-17935968D01*
X24715471Y-17912963D01*
X24713508Y-17880062D01*
X24712317Y-17834516D01*
X24711708Y-17773573D01*
X24711489Y-17694486D01*
X24711466Y-17635956D01*
X24711540Y-17544407D01*
X24711887Y-17472687D01*
X24712699Y-17418045D01*
X24714167Y-17377732D01*
X24716481Y-17348998D01*
X24719833Y-17329093D01*
X24724412Y-17315268D01*
X24730411Y-17304772D01*
X24734864Y-17298811D01*
X24746150Y-17284691D01*
X24756699Y-17274029D01*
X24768107Y-17267892D01*
X24781970Y-17267343D01*
X24799886Y-17273448D01*
G36*
X24149919Y-17274599D02*
G01*
X24218435Y-17286095D01*
X24271057Y-17303967D01*
X24305292Y-17327499D01*
X24314621Y-17340924D01*
X24324107Y-17372148D01*
X24317723Y-17400395D01*
X24297570Y-17427182D01*
X24266255Y-17439713D01*
X24220817Y-17438696D01*
X24185674Y-17431906D01*
X24107581Y-17418971D01*
X24027774Y-17417742D01*
X23938445Y-17428241D01*
X23913771Y-17432690D01*
X23830709Y-17456108D01*
X23765727Y-17490945D01*
X23719539Y-17536604D01*
X23692855Y-17592494D01*
X23687337Y-17621388D01*
X23690949Y-17680012D01*
X23714271Y-17731879D01*
X23755176Y-17775978D01*
X23811541Y-17811299D01*
X23881240Y-17836829D01*
X23962148Y-17851559D01*
X24052140Y-17854478D01*
X24149090Y-17844575D01*
X24154564Y-17843641D01*
X24193125Y-17836459D01*
X24214506Y-17829521D01*
X24223773Y-17819227D01*
X24225994Y-17801976D01*
X24226044Y-17792841D01*
X24226044Y-17754489D01*
X24157569Y-17754489D01*
X24097100Y-17750347D01*
X24055835Y-17737147D01*
X24031825Y-17713730D01*
X24023123Y-17678936D01*
X24023017Y-17674394D01*
X24028108Y-17644654D01*
X24045567Y-17623419D01*
X24078061Y-17609366D01*
X24128257Y-17601173D01*
X24176877Y-17598161D01*
X24247544Y-17596433D01*
X24298802Y-17599070D01*
X24333761Y-17608800D01*
X24355530Y-17628353D01*
X24367220Y-17660456D01*
X24371940Y-17707838D01*
X24372800Y-17770071D01*
X24371391Y-17839535D01*
X24367152Y-17886786D01*
X24360064Y-17912012D01*
X24358689Y-17913988D01*
X24319772Y-17945508D01*
X24262714Y-17970470D01*
X24191131Y-17988340D01*
X24108642Y-17998586D01*
X24018861Y-18000673D01*
X23925408Y-17994068D01*
X23870444Y-17985956D01*
X23784234Y-17961554D01*
X23704108Y-17921662D01*
X23637023Y-17869887D01*
X23626827Y-17859539D01*
X23593698Y-17816035D01*
X23563806Y-17762118D01*
X23540643Y-17705592D01*
X23527702Y-17654259D01*
X23526142Y-17634544D01*
X23532782Y-17593419D01*
X23550432Y-17542252D01*
X23575703Y-17488394D01*
X23605211Y-17439195D01*
X23631281Y-17406334D01*
X23692235Y-17357452D01*
X23771031Y-17318545D01*
X23864843Y-17290494D01*
X23970850Y-17274179D01*
X24068000Y-17270192D01*
X24149919Y-17274599D01*
G37*
X24149919Y-17274599D02*
X24218435Y-17286095D01*
X24271057Y-17303967D01*
X24305292Y-17327499D01*
X24314621Y-17340924D01*
X24324107Y-17372148D01*
X24317723Y-17400395D01*
X24297570Y-17427182D01*
X24266255Y-17439713D01*
X24220817Y-17438696D01*
X24185674Y-17431906D01*
X24107581Y-17418971D01*
X24027774Y-17417742D01*
X23938445Y-17428241D01*
X23913771Y-17432690D01*
X23830709Y-17456108D01*
X23765727Y-17490945D01*
X23719539Y-17536604D01*
X23692855Y-17592494D01*
X23687337Y-17621388D01*
X23690949Y-17680012D01*
X23714271Y-17731879D01*
X23755176Y-17775978D01*
X23811541Y-17811299D01*
X23881240Y-17836829D01*
X23962148Y-17851559D01*
X24052140Y-17854478D01*
X24149090Y-17844575D01*
X24154564Y-17843641D01*
X24193125Y-17836459D01*
X24214506Y-17829521D01*
X24223773Y-17819227D01*
X24225994Y-17801976D01*
X24226044Y-17792841D01*
X24226044Y-17754489D01*
X24157569Y-17754489D01*
X24097100Y-17750347D01*
X24055835Y-17737147D01*
X24031825Y-17713730D01*
X24023123Y-17678936D01*
X24023017Y-17674394D01*
X24028108Y-17644654D01*
X24045567Y-17623419D01*
X24078061Y-17609366D01*
X24128257Y-17601173D01*
X24176877Y-17598161D01*
X24247544Y-17596433D01*
X24298802Y-17599070D01*
X24333761Y-17608800D01*
X24355530Y-17628353D01*
X24367220Y-17660456D01*
X24371940Y-17707838D01*
X24372800Y-17770071D01*
X24371391Y-17839535D01*
X24367152Y-17886786D01*
X24360064Y-17912012D01*
X24358689Y-17913988D01*
X24319772Y-17945508D01*
X24262714Y-17970470D01*
X24191131Y-17988340D01*
X24108642Y-17998586D01*
X24018861Y-18000673D01*
X23925408Y-17994068D01*
X23870444Y-17985956D01*
X23784234Y-17961554D01*
X23704108Y-17921662D01*
X23637023Y-17869887D01*
X23626827Y-17859539D01*
X23593698Y-17816035D01*
X23563806Y-17762118D01*
X23540643Y-17705592D01*
X23527702Y-17654259D01*
X23526142Y-17634544D01*
X23532782Y-17593419D01*
X23550432Y-17542252D01*
X23575703Y-17488394D01*
X23605211Y-17439195D01*
X23631281Y-17406334D01*
X23692235Y-17357452D01*
X23771031Y-17318545D01*
X23864843Y-17290494D01*
X23970850Y-17274179D01*
X24068000Y-17270192D01*
X24149919Y-17274599D01*
G36*
X26330343Y-17269260D02*
G01*
X26406701Y-17270174D01*
X26465217Y-17272311D01*
X26508255Y-17276175D01*
X26538183Y-17282267D01*
X26557368Y-17291090D01*
X26568176Y-17303146D01*
X26572973Y-17318939D01*
X26574127Y-17338970D01*
X26574133Y-17341335D01*
X26573131Y-17363992D01*
X26568396Y-17381503D01*
X26557333Y-17394574D01*
X26537348Y-17403913D01*
X26505846Y-17410227D01*
X26460232Y-17414222D01*
X26397913Y-17416606D01*
X26316293Y-17418086D01*
X26291277Y-17418414D01*
X26049200Y-17421467D01*
X26045814Y-17486378D01*
X26042429Y-17551289D01*
X26210576Y-17551289D01*
X26276266Y-17551531D01*
X26323172Y-17552556D01*
X26355083Y-17554811D01*
X26375791Y-17558742D01*
X26389084Y-17564798D01*
X26398755Y-17573424D01*
X26398817Y-17573493D01*
X26416356Y-17607112D01*
X26415722Y-17643448D01*
X26397314Y-17674423D01*
X26393671Y-17677607D01*
X26380741Y-17685812D01*
X26363024Y-17691521D01*
X26336570Y-17695162D01*
X26297432Y-17697167D01*
X26241662Y-17697964D01*
X26205994Y-17698045D01*
X26043555Y-17698045D01*
X26043555Y-17856089D01*
X26290161Y-17856089D01*
X26371580Y-17856231D01*
X26433410Y-17856814D01*
X26478637Y-17858068D01*
X26510248Y-17860227D01*
X26531231Y-17863523D01*
X26544573Y-17868189D01*
X26553261Y-17874457D01*
X26555450Y-17876733D01*
X26571614Y-17908280D01*
X26572797Y-17944168D01*
X26559536Y-17975285D01*
X26549043Y-17985271D01*
X26538129Y-17990769D01*
X26521217Y-17995022D01*
X26495633Y-17998180D01*
X26458701Y-18000392D01*
X26407746Y-18001806D01*
X26340094Y-18002572D01*
X26253069Y-18002838D01*
X26233394Y-18002845D01*
X26144911Y-18002787D01*
X26076227Y-18002467D01*
X26024564Y-18001667D01*
X25987145Y-18000167D01*
X25961190Y-17997749D01*
X25943922Y-17994194D01*
X25932562Y-17989282D01*
X25924332Y-17982795D01*
X25919817Y-17978138D01*
X25913021Y-17969889D01*
X25907712Y-17959669D01*
X25903706Y-17944800D01*
X25900821Y-17922602D01*
X25898874Y-17890393D01*
X25897681Y-17845496D01*
X25897061Y-17785228D01*
X25896829Y-17706911D01*
X25896800Y-17640994D01*
X25896871Y-17548628D01*
X25897208Y-17476117D01*
X25897998Y-17420737D01*
X25899426Y-17379765D01*
X25901679Y-17350478D01*
X25904943Y-17330153D01*
X25909404Y-17316066D01*
X25915248Y-17305495D01*
X25920197Y-17298811D01*
X25943594Y-17269067D01*
X26233774Y-17269067D01*
X26330343Y-17269260D01*
G37*
X26330343Y-17269260D02*
X26406701Y-17270174D01*
X26465217Y-17272311D01*
X26508255Y-17276175D01*
X26538183Y-17282267D01*
X26557368Y-17291090D01*
X26568176Y-17303146D01*
X26572973Y-17318939D01*
X26574127Y-17338970D01*
X26574133Y-17341335D01*
X26573131Y-17363992D01*
X26568396Y-17381503D01*
X26557333Y-17394574D01*
X26537348Y-17403913D01*
X26505846Y-17410227D01*
X26460232Y-17414222D01*
X26397913Y-17416606D01*
X26316293Y-17418086D01*
X26291277Y-17418414D01*
X26049200Y-17421467D01*
X26045814Y-17486378D01*
X26042429Y-17551289D01*
X26210576Y-17551289D01*
X26276266Y-17551531D01*
X26323172Y-17552556D01*
X26355083Y-17554811D01*
X26375791Y-17558742D01*
X26389084Y-17564798D01*
X26398755Y-17573424D01*
X26398817Y-17573493D01*
X26416356Y-17607112D01*
X26415722Y-17643448D01*
X26397314Y-17674423D01*
X26393671Y-17677607D01*
X26380741Y-17685812D01*
X26363024Y-17691521D01*
X26336570Y-17695162D01*
X26297432Y-17697167D01*
X26241662Y-17697964D01*
X26205994Y-17698045D01*
X26043555Y-17698045D01*
X26043555Y-17856089D01*
X26290161Y-17856089D01*
X26371580Y-17856231D01*
X26433410Y-17856814D01*
X26478637Y-17858068D01*
X26510248Y-17860227D01*
X26531231Y-17863523D01*
X26544573Y-17868189D01*
X26553261Y-17874457D01*
X26555450Y-17876733D01*
X26571614Y-17908280D01*
X26572797Y-17944168D01*
X26559536Y-17975285D01*
X26549043Y-17985271D01*
X26538129Y-17990769D01*
X26521217Y-17995022D01*
X26495633Y-17998180D01*
X26458701Y-18000392D01*
X26407746Y-18001806D01*
X26340094Y-18002572D01*
X26253069Y-18002838D01*
X26233394Y-18002845D01*
X26144911Y-18002787D01*
X26076227Y-18002467D01*
X26024564Y-18001667D01*
X25987145Y-18000167D01*
X25961190Y-17997749D01*
X25943922Y-17994194D01*
X25932562Y-17989282D01*
X25924332Y-17982795D01*
X25919817Y-17978138D01*
X25913021Y-17969889D01*
X25907712Y-17959669D01*
X25903706Y-17944800D01*
X25900821Y-17922602D01*
X25898874Y-17890393D01*
X25897681Y-17845496D01*
X25897061Y-17785228D01*
X25896829Y-17706911D01*
X25896800Y-17640994D01*
X25896871Y-17548628D01*
X25897208Y-17476117D01*
X25897998Y-17420737D01*
X25899426Y-17379765D01*
X25901679Y-17350478D01*
X25904943Y-17330153D01*
X25909404Y-17316066D01*
X25915248Y-17305495D01*
X25920197Y-17298811D01*
X25943594Y-17269067D01*
X26233774Y-17269067D01*
X26330343Y-17269260D01*
G36*
X21387206Y-17269146D02*
G01*
X21456614Y-17269518D01*
X21509003Y-17270385D01*
X21547153Y-17271946D01*
X21573841Y-17274403D01*
X21591847Y-17277957D01*
X21603951Y-17282810D01*
X21612931Y-17289161D01*
X21616182Y-17292084D01*
X21635957Y-17323142D01*
X21639518Y-17358828D01*
X21626509Y-17390510D01*
X21620494Y-17396913D01*
X21610765Y-17403121D01*
X21595099Y-17407910D01*
X21570592Y-17411514D01*
X21534339Y-17414164D01*
X21483435Y-17416095D01*
X21414974Y-17417539D01*
X21352383Y-17418418D01*
X21104666Y-17421467D01*
X21101281Y-17486378D01*
X21097895Y-17551289D01*
X21266042Y-17551289D01*
X21339041Y-17551919D01*
X21392483Y-17554553D01*
X21429372Y-17560309D01*
X21452712Y-17570304D01*
X21465506Y-17585656D01*
X21470758Y-17607482D01*
X21471555Y-17627738D01*
X21469077Y-17652592D01*
X21459723Y-17670906D01*
X21440617Y-17683637D01*
X21408882Y-17691741D01*
X21361641Y-17696176D01*
X21296017Y-17697899D01*
X21260199Y-17698045D01*
X21099022Y-17698045D01*
X21099022Y-17856089D01*
X21347378Y-17856089D01*
X21428787Y-17856202D01*
X21490658Y-17856712D01*
X21536032Y-17857870D01*
X21567946Y-17859930D01*
X21589441Y-17863146D01*
X21603557Y-17867772D01*
X21613332Y-17874059D01*
X21618311Y-17878667D01*
X21635390Y-17905560D01*
X21640889Y-17929467D01*
X21633037Y-17958667D01*
X21618311Y-17980267D01*
X21610454Y-17987066D01*
X21600312Y-17992346D01*
X21585156Y-17996298D01*
X21562259Y-17999113D01*
X21528891Y-18000982D01*
X21482325Y-18002098D01*
X21419833Y-18002651D01*
X21338686Y-18002833D01*
X21296578Y-18002845D01*
X21206402Y-18002765D01*
X21136076Y-18002398D01*
X21082871Y-18001552D01*
X21044060Y-18000036D01*
X21016913Y-17997659D01*
X20998702Y-17994229D01*
X20986700Y-17989554D01*
X20978178Y-17983444D01*
X20974844Y-17980267D01*
X20968245Y-17972670D01*
X20963073Y-17962870D01*
X20959154Y-17948239D01*
X20956316Y-17926152D01*
X20954385Y-17893982D01*
X20953188Y-17849103D01*
X20952552Y-17788889D01*
X20952303Y-17710713D01*
X20952266Y-17637923D01*
X20952300Y-17544707D01*
X20952535Y-17471431D01*
X20953170Y-17415458D01*
X20954406Y-17374151D01*
X20956444Y-17344872D01*
X20959483Y-17324984D01*
X20963723Y-17311850D01*
X20969365Y-17302832D01*
X20976609Y-17295293D01*
X20978394Y-17293612D01*
X20987055Y-17286172D01*
X20997118Y-17280409D01*
X21011375Y-17276112D01*
X21032617Y-17273064D01*
X21063636Y-17271051D01*
X21107223Y-17269860D01*
X21166169Y-17269275D01*
X21243266Y-17269083D01*
X21297999Y-17269067D01*
X21387206Y-17269146D01*
G37*
X21387206Y-17269146D02*
X21456614Y-17269518D01*
X21509003Y-17270385D01*
X21547153Y-17271946D01*
X21573841Y-17274403D01*
X21591847Y-17277957D01*
X21603951Y-17282810D01*
X21612931Y-17289161D01*
X21616182Y-17292084D01*
X21635957Y-17323142D01*
X21639518Y-17358828D01*
X21626509Y-17390510D01*
X21620494Y-17396913D01*
X21610765Y-17403121D01*
X21595099Y-17407910D01*
X21570592Y-17411514D01*
X21534339Y-17414164D01*
X21483435Y-17416095D01*
X21414974Y-17417539D01*
X21352383Y-17418418D01*
X21104666Y-17421467D01*
X21101281Y-17486378D01*
X21097895Y-17551289D01*
X21266042Y-17551289D01*
X21339041Y-17551919D01*
X21392483Y-17554553D01*
X21429372Y-17560309D01*
X21452712Y-17570304D01*
X21465506Y-17585656D01*
X21470758Y-17607482D01*
X21471555Y-17627738D01*
X21469077Y-17652592D01*
X21459723Y-17670906D01*
X21440617Y-17683637D01*
X21408882Y-17691741D01*
X21361641Y-17696176D01*
X21296017Y-17697899D01*
X21260199Y-17698045D01*
X21099022Y-17698045D01*
X21099022Y-17856089D01*
X21347378Y-17856089D01*
X21428787Y-17856202D01*
X21490658Y-17856712D01*
X21536032Y-17857870D01*
X21567946Y-17859930D01*
X21589441Y-17863146D01*
X21603557Y-17867772D01*
X21613332Y-17874059D01*
X21618311Y-17878667D01*
X21635390Y-17905560D01*
X21640889Y-17929467D01*
X21633037Y-17958667D01*
X21618311Y-17980267D01*
X21610454Y-17987066D01*
X21600312Y-17992346D01*
X21585156Y-17996298D01*
X21562259Y-17999113D01*
X21528891Y-18000982D01*
X21482325Y-18002098D01*
X21419833Y-18002651D01*
X21338686Y-18002833D01*
X21296578Y-18002845D01*
X21206402Y-18002765D01*
X21136076Y-18002398D01*
X21082871Y-18001552D01*
X21044060Y-18000036D01*
X21016913Y-17997659D01*
X20998702Y-17994229D01*
X20986700Y-17989554D01*
X20978178Y-17983444D01*
X20974844Y-17980267D01*
X20968245Y-17972670D01*
X20963073Y-17962870D01*
X20959154Y-17948239D01*
X20956316Y-17926152D01*
X20954385Y-17893982D01*
X20953188Y-17849103D01*
X20952552Y-17788889D01*
X20952303Y-17710713D01*
X20952266Y-17637923D01*
X20952300Y-17544707D01*
X20952535Y-17471431D01*
X20953170Y-17415458D01*
X20954406Y-17374151D01*
X20956444Y-17344872D01*
X20959483Y-17324984D01*
X20963723Y-17311850D01*
X20969365Y-17302832D01*
X20976609Y-17295293D01*
X20978394Y-17293612D01*
X20987055Y-17286172D01*
X20997118Y-17280409D01*
X21011375Y-17276112D01*
X21032617Y-17273064D01*
X21063636Y-17271051D01*
X21107223Y-17269860D01*
X21166169Y-17269275D01*
X21243266Y-17269083D01*
X21297999Y-17269067D01*
X21387206Y-17269146D01*
G36*
X29844665Y-17271034D02*
G01*
X29864255Y-17278035D01*
X29865010Y-17278377D01*
X29891613Y-17298678D01*
X29906270Y-17319561D01*
X29909138Y-17329352D01*
X29908996Y-17342361D01*
X29904961Y-17360895D01*
X29896146Y-17387257D01*
X29881669Y-17423752D01*
X29860645Y-17472687D01*
X29832188Y-17536365D01*
X29795415Y-17617093D01*
X29775175Y-17661216D01*
X29738625Y-17739985D01*
X29704315Y-17812423D01*
X29673552Y-17875880D01*
X29647648Y-17927708D01*
X29627910Y-17965259D01*
X29615650Y-17985884D01*
X29613224Y-17988733D01*
X29582183Y-18001302D01*
X29547121Y-17999619D01*
X29519000Y-17984332D01*
X29517854Y-17983089D01*
X29506668Y-17966154D01*
X29487904Y-17933170D01*
X29463875Y-17888380D01*
X29436897Y-17836032D01*
X29427201Y-17816742D01*
X29354014Y-17670150D01*
X29274240Y-17829393D01*
X29245767Y-17884415D01*
X29219350Y-17932132D01*
X29197148Y-17968893D01*
X29181319Y-17991044D01*
X29175954Y-17995741D01*
X29134257Y-18002102D01*
X29099849Y-17988733D01*
X29089728Y-17974446D01*
X29072214Y-17942692D01*
X29048735Y-17896597D01*
X29020720Y-17839285D01*
X28989599Y-17773880D01*
X28956799Y-17703507D01*
X28923750Y-17631291D01*
X28891881Y-17560355D01*
X28862619Y-17493825D01*
X28837395Y-17434826D01*
X28817636Y-17386481D01*
X28804772Y-17351915D01*
X28800231Y-17334253D01*
X28800277Y-17333613D01*
X28811326Y-17311388D01*
X28833410Y-17288753D01*
X28834710Y-17287768D01*
X28861853Y-17272425D01*
X28886958Y-17272574D01*
X28896368Y-17275466D01*
X28907834Y-17281718D01*
X28920010Y-17294014D01*
X28934357Y-17314908D01*
X28952336Y-17346949D01*
X28975407Y-17392688D01*
X29005030Y-17454677D01*
X29031745Y-17511898D01*
X29062480Y-17578226D01*
X29090021Y-17637874D01*
X29112938Y-17687725D01*
X29129798Y-17724664D01*
X29139173Y-17745573D01*
X29140540Y-17748845D01*
X29146689Y-17743497D01*
X29160822Y-17721109D01*
X29181057Y-17684946D01*
X29205515Y-17638277D01*
X29215248Y-17619022D01*
X29248217Y-17554004D01*
X29273643Y-17506654D01*
X29293612Y-17474219D01*
X29310210Y-17453946D01*
X29325524Y-17443082D01*
X29341640Y-17438875D01*
X29352143Y-17438400D01*
X29370670Y-17440042D01*
X29386904Y-17446831D01*
X29403035Y-17461566D01*
X29421251Y-17487044D01*
X29443739Y-17526061D01*
X29472689Y-17581414D01*
X29488662Y-17612903D01*
X29514570Y-17663087D01*
X29537167Y-17704704D01*
X29554458Y-17734242D01*
X29564450Y-17748189D01*
X29565809Y-17748770D01*
X29572261Y-17737793D01*
X29586708Y-17709290D01*
X29607703Y-17666244D01*
X29633797Y-17611638D01*
X29663546Y-17548454D01*
X29678180Y-17517071D01*
X29716250Y-17436078D01*
X29746905Y-17373756D01*
X29771737Y-17328071D01*
X29792337Y-17296989D01*
X29810298Y-17278478D01*
X29827210Y-17270504D01*
X29844665Y-17271034D01*
G37*
X29844665Y-17271034D02*
X29864255Y-17278035D01*
X29865010Y-17278377D01*
X29891613Y-17298678D01*
X29906270Y-17319561D01*
X29909138Y-17329352D01*
X29908996Y-17342361D01*
X29904961Y-17360895D01*
X29896146Y-17387257D01*
X29881669Y-17423752D01*
X29860645Y-17472687D01*
X29832188Y-17536365D01*
X29795415Y-17617093D01*
X29775175Y-17661216D01*
X29738625Y-17739985D01*
X29704315Y-17812423D01*
X29673552Y-17875880D01*
X29647648Y-17927708D01*
X29627910Y-17965259D01*
X29615650Y-17985884D01*
X29613224Y-17988733D01*
X29582183Y-18001302D01*
X29547121Y-17999619D01*
X29519000Y-17984332D01*
X29517854Y-17983089D01*
X29506668Y-17966154D01*
X29487904Y-17933170D01*
X29463875Y-17888380D01*
X29436897Y-17836032D01*
X29427201Y-17816742D01*
X29354014Y-17670150D01*
X29274240Y-17829393D01*
X29245767Y-17884415D01*
X29219350Y-17932132D01*
X29197148Y-17968893D01*
X29181319Y-17991044D01*
X29175954Y-17995741D01*
X29134257Y-18002102D01*
X29099849Y-17988733D01*
X29089728Y-17974446D01*
X29072214Y-17942692D01*
X29048735Y-17896597D01*
X29020720Y-17839285D01*
X28989599Y-17773880D01*
X28956799Y-17703507D01*
X28923750Y-17631291D01*
X28891881Y-17560355D01*
X28862619Y-17493825D01*
X28837395Y-17434826D01*
X28817636Y-17386481D01*
X28804772Y-17351915D01*
X28800231Y-17334253D01*
X28800277Y-17333613D01*
X28811326Y-17311388D01*
X28833410Y-17288753D01*
X28834710Y-17287768D01*
X28861853Y-17272425D01*
X28886958Y-17272574D01*
X28896368Y-17275466D01*
X28907834Y-17281718D01*
X28920010Y-17294014D01*
X28934357Y-17314908D01*
X28952336Y-17346949D01*
X28975407Y-17392688D01*
X29005030Y-17454677D01*
X29031745Y-17511898D01*
X29062480Y-17578226D01*
X29090021Y-17637874D01*
X29112938Y-17687725D01*
X29129798Y-17724664D01*
X29139173Y-17745573D01*
X29140540Y-17748845D01*
X29146689Y-17743497D01*
X29160822Y-17721109D01*
X29181057Y-17684946D01*
X29205515Y-17638277D01*
X29215248Y-17619022D01*
X29248217Y-17554004D01*
X29273643Y-17506654D01*
X29293612Y-17474219D01*
X29310210Y-17453946D01*
X29325524Y-17443082D01*
X29341640Y-17438875D01*
X29352143Y-17438400D01*
X29370670Y-17440042D01*
X29386904Y-17446831D01*
X29403035Y-17461566D01*
X29421251Y-17487044D01*
X29443739Y-17526061D01*
X29472689Y-17581414D01*
X29488662Y-17612903D01*
X29514570Y-17663087D01*
X29537167Y-17704704D01*
X29554458Y-17734242D01*
X29564450Y-17748189D01*
X29565809Y-17748770D01*
X29572261Y-17737793D01*
X29586708Y-17709290D01*
X29607703Y-17666244D01*
X29633797Y-17611638D01*
X29663546Y-17548454D01*
X29678180Y-17517071D01*
X29716250Y-17436078D01*
X29746905Y-17373756D01*
X29771737Y-17328071D01*
X29792337Y-17296989D01*
X29810298Y-17278478D01*
X29827210Y-17270504D01*
X29844665Y-17271034D01*
G36*
X22408297Y-17270351D02*
G01*
X22483112Y-17275581D01*
X22552694Y-17283750D01*
X22612998Y-17294550D01*
X22659980Y-17307673D01*
X22689594Y-17322813D01*
X22694140Y-17327269D01*
X22709946Y-17361850D01*
X22705153Y-17397351D01*
X22680636Y-17427725D01*
X22679466Y-17428596D01*
X22665046Y-17437954D01*
X22649992Y-17442876D01*
X22628995Y-17443473D01*
X22596743Y-17439861D01*
X22547927Y-17432154D01*
X22544000Y-17431505D01*
X22471261Y-17422569D01*
X22392783Y-17418161D01*
X22314073Y-17418119D01*
X22240639Y-17422279D01*
X22177989Y-17430479D01*
X22131630Y-17442557D01*
X22128584Y-17443771D01*
X22094952Y-17462615D01*
X22083136Y-17481685D01*
X22092386Y-17500439D01*
X22121953Y-17518337D01*
X22171089Y-17534837D01*
X22239043Y-17549396D01*
X22284355Y-17556406D01*
X22378544Y-17569889D01*
X22453456Y-17582214D01*
X22512283Y-17594449D01*
X22558215Y-17607661D01*
X22594445Y-17622917D01*
X22624162Y-17641285D01*
X22650558Y-17663831D01*
X22671770Y-17685971D01*
X22696935Y-17716819D01*
X22709319Y-17743345D01*
X22713192Y-17776026D01*
X22713333Y-17787995D01*
X22710424Y-17827712D01*
X22698798Y-17857259D01*
X22678677Y-17883486D01*
X22637784Y-17923576D01*
X22592183Y-17954149D01*
X22538487Y-17976203D01*
X22473308Y-17990735D01*
X22393256Y-17998741D01*
X22294943Y-18001218D01*
X22278711Y-18001177D01*
X22213151Y-17999818D01*
X22148134Y-17996730D01*
X22090748Y-17992356D01*
X22048078Y-17987140D01*
X22044628Y-17986541D01*
X22002204Y-17976491D01*
X21966220Y-17963796D01*
X21945850Y-17952190D01*
X21926893Y-17921572D01*
X21925573Y-17885918D01*
X21941915Y-17854144D01*
X21945571Y-17850551D01*
X21960685Y-17839876D01*
X21979585Y-17835276D01*
X22008838Y-17836059D01*
X22044349Y-17840127D01*
X22084030Y-17843762D01*
X22139655Y-17846828D01*
X22204594Y-17849053D01*
X22272215Y-17850164D01*
X22290000Y-17850237D01*
X22357872Y-17849964D01*
X22407546Y-17848646D01*
X22443390Y-17845827D01*
X22469776Y-17841050D01*
X22491074Y-17833857D01*
X22503874Y-17827867D01*
X22532000Y-17811233D01*
X22549932Y-17796168D01*
X22552553Y-17791897D01*
X22547024Y-17774263D01*
X22520740Y-17757192D01*
X22475522Y-17741458D01*
X22413192Y-17727838D01*
X22394829Y-17724804D01*
X22298910Y-17709738D01*
X22222359Y-17697146D01*
X22162220Y-17686111D01*
X22115540Y-17675720D01*
X22079363Y-17665056D01*
X22050735Y-17653205D01*
X22026702Y-17639251D01*
X22004308Y-17622281D01*
X21980598Y-17601378D01*
X21972620Y-17594049D01*
X21944647Y-17566699D01*
X21929840Y-17545029D01*
X21924048Y-17520232D01*
X21923111Y-17488983D01*
X21933425Y-17427705D01*
X21964248Y-17375640D01*
X22015405Y-17332958D01*
X22086717Y-17299825D01*
X22137600Y-17284964D01*
X22192900Y-17275366D01*
X22259147Y-17269936D01*
X22332294Y-17268367D01*
X22408297Y-17270351D01*
G37*
X22408297Y-17270351D02*
X22483112Y-17275581D01*
X22552694Y-17283750D01*
X22612998Y-17294550D01*
X22659980Y-17307673D01*
X22689594Y-17322813D01*
X22694140Y-17327269D01*
X22709946Y-17361850D01*
X22705153Y-17397351D01*
X22680636Y-17427725D01*
X22679466Y-17428596D01*
X22665046Y-17437954D01*
X22649992Y-17442876D01*
X22628995Y-17443473D01*
X22596743Y-17439861D01*
X22547927Y-17432154D01*
X22544000Y-17431505D01*
X22471261Y-17422569D01*
X22392783Y-17418161D01*
X22314073Y-17418119D01*
X22240639Y-17422279D01*
X22177989Y-17430479D01*
X22131630Y-17442557D01*
X22128584Y-17443771D01*
X22094952Y-17462615D01*
X22083136Y-17481685D01*
X22092386Y-17500439D01*
X22121953Y-17518337D01*
X22171089Y-17534837D01*
X22239043Y-17549396D01*
X22284355Y-17556406D01*
X22378544Y-17569889D01*
X22453456Y-17582214D01*
X22512283Y-17594449D01*
X22558215Y-17607661D01*
X22594445Y-17622917D01*
X22624162Y-17641285D01*
X22650558Y-17663831D01*
X22671770Y-17685971D01*
X22696935Y-17716819D01*
X22709319Y-17743345D01*
X22713192Y-17776026D01*
X22713333Y-17787995D01*
X22710424Y-17827712D01*
X22698798Y-17857259D01*
X22678677Y-17883486D01*
X22637784Y-17923576D01*
X22592183Y-17954149D01*
X22538487Y-17976203D01*
X22473308Y-17990735D01*
X22393256Y-17998741D01*
X22294943Y-18001218D01*
X22278711Y-18001177D01*
X22213151Y-17999818D01*
X22148134Y-17996730D01*
X22090748Y-17992356D01*
X22048078Y-17987140D01*
X22044628Y-17986541D01*
X22002204Y-17976491D01*
X21966220Y-17963796D01*
X21945850Y-17952190D01*
X21926893Y-17921572D01*
X21925573Y-17885918D01*
X21941915Y-17854144D01*
X21945571Y-17850551D01*
X21960685Y-17839876D01*
X21979585Y-17835276D01*
X22008838Y-17836059D01*
X22044349Y-17840127D01*
X22084030Y-17843762D01*
X22139655Y-17846828D01*
X22204594Y-17849053D01*
X22272215Y-17850164D01*
X22290000Y-17850237D01*
X22357872Y-17849964D01*
X22407546Y-17848646D01*
X22443390Y-17845827D01*
X22469776Y-17841050D01*
X22491074Y-17833857D01*
X22503874Y-17827867D01*
X22532000Y-17811233D01*
X22549932Y-17796168D01*
X22552553Y-17791897D01*
X22547024Y-17774263D01*
X22520740Y-17757192D01*
X22475522Y-17741458D01*
X22413192Y-17727838D01*
X22394829Y-17724804D01*
X22298910Y-17709738D01*
X22222359Y-17697146D01*
X22162220Y-17686111D01*
X22115540Y-17675720D01*
X22079363Y-17665056D01*
X22050735Y-17653205D01*
X22026702Y-17639251D01*
X22004308Y-17622281D01*
X21980598Y-17601378D01*
X21972620Y-17594049D01*
X21944647Y-17566699D01*
X21929840Y-17545029D01*
X21924048Y-17520232D01*
X21923111Y-17488983D01*
X21933425Y-17427705D01*
X21964248Y-17375640D01*
X22015405Y-17332958D01*
X22086717Y-17299825D01*
X22137600Y-17284964D01*
X22192900Y-17275366D01*
X22259147Y-17269936D01*
X22332294Y-17268367D01*
X22408297Y-17270351D01*
G36*
X26428429Y-12949071D02*
G01*
X26588570Y-12970245D01*
X26752510Y-13010385D01*
X26922313Y-13069889D01*
X27100043Y-13149154D01*
X27111310Y-13154699D01*
X27169005Y-13182725D01*
X27220552Y-13206802D01*
X27262191Y-13225249D01*
X27290162Y-13236386D01*
X27299733Y-13238933D01*
X27318950Y-13243941D01*
X27323561Y-13248147D01*
X27318458Y-13258580D01*
X27302418Y-13284868D01*
X27277288Y-13324257D01*
X27244914Y-13373991D01*
X27207143Y-13431315D01*
X27165822Y-13493476D01*
X27122798Y-13557718D01*
X27079917Y-13621285D01*
X27039026Y-13681425D01*
X27001971Y-13735380D01*
X26970600Y-13780397D01*
X26946759Y-13813721D01*
X26932294Y-13832597D01*
X26930309Y-13834787D01*
X26920191Y-13830138D01*
X26897850Y-13812962D01*
X26867280Y-13786440D01*
X26851536Y-13771964D01*
X26755047Y-13696682D01*
X26648336Y-13641241D01*
X26532832Y-13606141D01*
X26409962Y-13591880D01*
X26340561Y-13593051D01*
X26219423Y-13610212D01*
X26110205Y-13646094D01*
X26012582Y-13700959D01*
X25926228Y-13775070D01*
X25850815Y-13868688D01*
X25786018Y-13982076D01*
X25748601Y-14068667D01*
X25704748Y-14204366D01*
X25672428Y-14351850D01*
X25651557Y-14507314D01*
X25642051Y-14666956D01*
X25643827Y-14826973D01*
X25656803Y-14983561D01*
X25680894Y-15132918D01*
X25716018Y-15271240D01*
X25762092Y-15394724D01*
X25778373Y-15428978D01*
X25846620Y-15543064D01*
X25927079Y-15639557D01*
X26018570Y-15717670D01*
X26119911Y-15776617D01*
X26229920Y-15815612D01*
X26347415Y-15833868D01*
X26388883Y-15835211D01*
X26510441Y-15824290D01*
X26630878Y-15791474D01*
X26748666Y-15737439D01*
X26862277Y-15662865D01*
X26953685Y-15584539D01*
X27000215Y-15540008D01*
X27181483Y-15837271D01*
X27226580Y-15911433D01*
X27267819Y-15979646D01*
X27303735Y-16039459D01*
X27332866Y-16088420D01*
X27353750Y-16124079D01*
X27364924Y-16143984D01*
X27366375Y-16147079D01*
X27358146Y-16156718D01*
X27332567Y-16173999D01*
X27292873Y-16197283D01*
X27242297Y-16224934D01*
X27184074Y-16255315D01*
X27121437Y-16286790D01*
X27057621Y-16317722D01*
X26995860Y-16346473D01*
X26939388Y-16371408D01*
X26891438Y-16390889D01*
X26867986Y-16399318D01*
X26734221Y-16437133D01*
X26596327Y-16462136D01*
X26448622Y-16475140D01*
X26321833Y-16477468D01*
X26253878Y-16476373D01*
X26188277Y-16474275D01*
X26130847Y-16471434D01*
X26087403Y-16468106D01*
X26073298Y-16466422D01*
X25934284Y-16437587D01*
X25792757Y-16392468D01*
X25655275Y-16333750D01*
X25528394Y-16264120D01*
X25450889Y-16211441D01*
X25323481Y-16103239D01*
X25205178Y-15976671D01*
X25098172Y-15834866D01*
X25004652Y-15680951D01*
X24926810Y-15518053D01*
X24882956Y-15400756D01*
X24832708Y-15217128D01*
X24799209Y-15022581D01*
X24782449Y-14821325D01*
X24782416Y-14617568D01*
X24799101Y-14415521D01*
X24832493Y-14219392D01*
X24882580Y-14033391D01*
X24886397Y-14021803D01*
X24949281Y-13859750D01*
X25026028Y-13711832D01*
X25119242Y-13573865D01*
X25231527Y-13441661D01*
X25275392Y-13396399D01*
X25411534Y-13272457D01*
X25551491Y-13169915D01*
X25697411Y-13087656D01*
X25851442Y-13024564D01*
X26015732Y-12979523D01*
X26111289Y-12962033D01*
X26270023Y-12946466D01*
X26428429Y-12949071D01*
G37*
X26428429Y-12949071D02*
X26588570Y-12970245D01*
X26752510Y-13010385D01*
X26922313Y-13069889D01*
X27100043Y-13149154D01*
X27111310Y-13154699D01*
X27169005Y-13182725D01*
X27220552Y-13206802D01*
X27262191Y-13225249D01*
X27290162Y-13236386D01*
X27299733Y-13238933D01*
X27318950Y-13243941D01*
X27323561Y-13248147D01*
X27318458Y-13258580D01*
X27302418Y-13284868D01*
X27277288Y-13324257D01*
X27244914Y-13373991D01*
X27207143Y-13431315D01*
X27165822Y-13493476D01*
X27122798Y-13557718D01*
X27079917Y-13621285D01*
X27039026Y-13681425D01*
X27001971Y-13735380D01*
X26970600Y-13780397D01*
X26946759Y-13813721D01*
X26932294Y-13832597D01*
X26930309Y-13834787D01*
X26920191Y-13830138D01*
X26897850Y-13812962D01*
X26867280Y-13786440D01*
X26851536Y-13771964D01*
X26755047Y-13696682D01*
X26648336Y-13641241D01*
X26532832Y-13606141D01*
X26409962Y-13591880D01*
X26340561Y-13593051D01*
X26219423Y-13610212D01*
X26110205Y-13646094D01*
X26012582Y-13700959D01*
X25926228Y-13775070D01*
X25850815Y-13868688D01*
X25786018Y-13982076D01*
X25748601Y-14068667D01*
X25704748Y-14204366D01*
X25672428Y-14351850D01*
X25651557Y-14507314D01*
X25642051Y-14666956D01*
X25643827Y-14826973D01*
X25656803Y-14983561D01*
X25680894Y-15132918D01*
X25716018Y-15271240D01*
X25762092Y-15394724D01*
X25778373Y-15428978D01*
X25846620Y-15543064D01*
X25927079Y-15639557D01*
X26018570Y-15717670D01*
X26119911Y-15776617D01*
X26229920Y-15815612D01*
X26347415Y-15833868D01*
X26388883Y-15835211D01*
X26510441Y-15824290D01*
X26630878Y-15791474D01*
X26748666Y-15737439D01*
X26862277Y-15662865D01*
X26953685Y-15584539D01*
X27000215Y-15540008D01*
X27181483Y-15837271D01*
X27226580Y-15911433D01*
X27267819Y-15979646D01*
X27303735Y-16039459D01*
X27332866Y-16088420D01*
X27353750Y-16124079D01*
X27364924Y-16143984D01*
X27366375Y-16147079D01*
X27358146Y-16156718D01*
X27332567Y-16173999D01*
X27292873Y-16197283D01*
X27242297Y-16224934D01*
X27184074Y-16255315D01*
X27121437Y-16286790D01*
X27057621Y-16317722D01*
X26995860Y-16346473D01*
X26939388Y-16371408D01*
X26891438Y-16390889D01*
X26867986Y-16399318D01*
X26734221Y-16437133D01*
X26596327Y-16462136D01*
X26448622Y-16475140D01*
X26321833Y-16477468D01*
X26253878Y-16476373D01*
X26188277Y-16474275D01*
X26130847Y-16471434D01*
X26087403Y-16468106D01*
X26073298Y-16466422D01*
X25934284Y-16437587D01*
X25792757Y-16392468D01*
X25655275Y-16333750D01*
X25528394Y-16264120D01*
X25450889Y-16211441D01*
X25323481Y-16103239D01*
X25205178Y-15976671D01*
X25098172Y-15834866D01*
X25004652Y-15680951D01*
X24926810Y-15518053D01*
X24882956Y-15400756D01*
X24832708Y-15217128D01*
X24799209Y-15022581D01*
X24782449Y-14821325D01*
X24782416Y-14617568D01*
X24799101Y-14415521D01*
X24832493Y-14219392D01*
X24882580Y-14033391D01*
X24886397Y-14021803D01*
X24949281Y-13859750D01*
X25026028Y-13711832D01*
X25119242Y-13573865D01*
X25231527Y-13441661D01*
X25275392Y-13396399D01*
X25411534Y-13272457D01*
X25551491Y-13169915D01*
X25697411Y-13087656D01*
X25851442Y-13024564D01*
X26015732Y-12979523D01*
X26111289Y-12962033D01*
X26270023Y-12946466D01*
X26428429Y-12949071D01*
G36*
X29916100Y-15185934D02*
G01*
X30745217Y-15185934D01*
X30745424Y-15279002D01*
X30748337Y-15366692D01*
X30754000Y-15443772D01*
X30762455Y-15505009D01*
X30765038Y-15517350D01*
X30796840Y-15624633D01*
X30838498Y-15711658D01*
X30890363Y-15778642D01*
X30952781Y-15825805D01*
X31026100Y-15853365D01*
X31110669Y-15861541D01*
X31206835Y-15850551D01*
X31270311Y-15834829D01*
X31319454Y-15816639D01*
X31373583Y-15790791D01*
X31414244Y-15767089D01*
X31484800Y-15720721D01*
X31484800Y-14570530D01*
X31417392Y-14526962D01*
X31338867Y-14486040D01*
X31254681Y-14459389D01*
X31169557Y-14447465D01*
X31088216Y-14450722D01*
X31015380Y-14469615D01*
X30983426Y-14485184D01*
X30925501Y-14528181D01*
X30876544Y-14584953D01*
X30835390Y-14657575D01*
X30800874Y-14748121D01*
X30771833Y-14858666D01*
X30770552Y-14864533D01*
X30760381Y-14926788D01*
X30752739Y-15004594D01*
X30747670Y-15092720D01*
X30745217Y-15185934D01*
X29916100Y-15185934D01*
X29921857Y-15029895D01*
X29943802Y-14834059D01*
X29979786Y-14655332D01*
X30029759Y-14493845D01*
X30093668Y-14349726D01*
X30171462Y-14223106D01*
X30263089Y-14114115D01*
X30368497Y-14022883D01*
X30413662Y-13991932D01*
X30514611Y-13935785D01*
X30617901Y-13896174D01*
X30727989Y-13872014D01*
X30849330Y-13862219D01*
X30941836Y-13863265D01*
X31071490Y-13874231D01*
X31184084Y-13896046D01*
X31282875Y-13929714D01*
X31371121Y-13976236D01*
X31419986Y-14010448D01*
X31449353Y-14032362D01*
X31471043Y-14047333D01*
X31479253Y-14051733D01*
X31480868Y-14040904D01*
X31482159Y-14010251D01*
X31483138Y-13962526D01*
X31483817Y-13900479D01*
X31484210Y-13826862D01*
X31484330Y-13744427D01*
X31484188Y-13655925D01*
X31483797Y-13564107D01*
X31483171Y-13471724D01*
X31482320Y-13381528D01*
X31481260Y-13296271D01*
X31480001Y-13218703D01*
X31478556Y-13151576D01*
X31476938Y-13097641D01*
X31475161Y-13059650D01*
X31474669Y-13052667D01*
X31467092Y-12982251D01*
X31455531Y-12927102D01*
X31437792Y-12879981D01*
X31411682Y-12833647D01*
X31405415Y-12824067D01*
X31380983Y-12787378D01*
X32286311Y-12787378D01*
X32286507Y-14472245D01*
X32286526Y-14706662D01*
X32286552Y-14919603D01*
X32286625Y-15112168D01*
X32286782Y-15285459D01*
X32287064Y-15440576D01*
X32287509Y-15578620D01*
X32288156Y-15700692D01*
X32289045Y-15807894D01*
X32290213Y-15901326D01*
X32291701Y-15982090D01*
X32293546Y-16051286D01*
X32295789Y-16110015D01*
X32298469Y-16159379D01*
X32301623Y-16200478D01*
X32305292Y-16234413D01*
X32309513Y-16262286D01*
X32314327Y-16285198D01*
X32319773Y-16304249D01*
X32325888Y-16320540D01*
X32332712Y-16335173D01*
X32340285Y-16349249D01*
X32348645Y-16363868D01*
X32353839Y-16372974D01*
X32388104Y-16433689D01*
X31529955Y-16433689D01*
X31529955Y-16337733D01*
X31529224Y-16294370D01*
X31527272Y-16261205D01*
X31524463Y-16243424D01*
X31523221Y-16241778D01*
X31511799Y-16248662D01*
X31489084Y-16266505D01*
X31466385Y-16285879D01*
X31411800Y-16326614D01*
X31342321Y-16367617D01*
X31265270Y-16405123D01*
X31187965Y-16435364D01*
X31157113Y-16445012D01*
X31088616Y-16459578D01*
X31005764Y-16469539D01*
X30916371Y-16474583D01*
X30828248Y-16474396D01*
X30749207Y-16468666D01*
X30711511Y-16462858D01*
X30573414Y-16424797D01*
X30446113Y-16367073D01*
X30330292Y-16290211D01*
X30226637Y-16194739D01*
X30135833Y-16081179D01*
X30069031Y-15970381D01*
X30014164Y-15853625D01*
X29972163Y-15734276D01*
X29942167Y-15608283D01*
X29923311Y-15471594D01*
X29914732Y-15320158D01*
X29914006Y-15242711D01*
X29916100Y-15185934D01*
G37*
X29916100Y-15185934D02*
X30745217Y-15185934D01*
X30745424Y-15279002D01*
X30748337Y-15366692D01*
X30754000Y-15443772D01*
X30762455Y-15505009D01*
X30765038Y-15517350D01*
X30796840Y-15624633D01*
X30838498Y-15711658D01*
X30890363Y-15778642D01*
X30952781Y-15825805D01*
X31026100Y-15853365D01*
X31110669Y-15861541D01*
X31206835Y-15850551D01*
X31270311Y-15834829D01*
X31319454Y-15816639D01*
X31373583Y-15790791D01*
X31414244Y-15767089D01*
X31484800Y-15720721D01*
X31484800Y-14570530D01*
X31417392Y-14526962D01*
X31338867Y-14486040D01*
X31254681Y-14459389D01*
X31169557Y-14447465D01*
X31088216Y-14450722D01*
X31015380Y-14469615D01*
X30983426Y-14485184D01*
X30925501Y-14528181D01*
X30876544Y-14584953D01*
X30835390Y-14657575D01*
X30800874Y-14748121D01*
X30771833Y-14858666D01*
X30770552Y-14864533D01*
X30760381Y-14926788D01*
X30752739Y-15004594D01*
X30747670Y-15092720D01*
X30745217Y-15185934D01*
X29916100Y-15185934D01*
X29921857Y-15029895D01*
X29943802Y-14834059D01*
X29979786Y-14655332D01*
X30029759Y-14493845D01*
X30093668Y-14349726D01*
X30171462Y-14223106D01*
X30263089Y-14114115D01*
X30368497Y-14022883D01*
X30413662Y-13991932D01*
X30514611Y-13935785D01*
X30617901Y-13896174D01*
X30727989Y-13872014D01*
X30849330Y-13862219D01*
X30941836Y-13863265D01*
X31071490Y-13874231D01*
X31184084Y-13896046D01*
X31282875Y-13929714D01*
X31371121Y-13976236D01*
X31419986Y-14010448D01*
X31449353Y-14032362D01*
X31471043Y-14047333D01*
X31479253Y-14051733D01*
X31480868Y-14040904D01*
X31482159Y-14010251D01*
X31483138Y-13962526D01*
X31483817Y-13900479D01*
X31484210Y-13826862D01*
X31484330Y-13744427D01*
X31484188Y-13655925D01*
X31483797Y-13564107D01*
X31483171Y-13471724D01*
X31482320Y-13381528D01*
X31481260Y-13296271D01*
X31480001Y-13218703D01*
X31478556Y-13151576D01*
X31476938Y-13097641D01*
X31475161Y-13059650D01*
X31474669Y-13052667D01*
X31467092Y-12982251D01*
X31455531Y-12927102D01*
X31437792Y-12879981D01*
X31411682Y-12833647D01*
X31405415Y-12824067D01*
X31380983Y-12787378D01*
X32286311Y-12787378D01*
X32286507Y-14472245D01*
X32286526Y-14706662D01*
X32286552Y-14919603D01*
X32286625Y-15112168D01*
X32286782Y-15285459D01*
X32287064Y-15440576D01*
X32287509Y-15578620D01*
X32288156Y-15700692D01*
X32289045Y-15807894D01*
X32290213Y-15901326D01*
X32291701Y-15982090D01*
X32293546Y-16051286D01*
X32295789Y-16110015D01*
X32298469Y-16159379D01*
X32301623Y-16200478D01*
X32305292Y-16234413D01*
X32309513Y-16262286D01*
X32314327Y-16285198D01*
X32319773Y-16304249D01*
X32325888Y-16320540D01*
X32332712Y-16335173D01*
X32340285Y-16349249D01*
X32348645Y-16363868D01*
X32353839Y-16372974D01*
X32388104Y-16433689D01*
X31529955Y-16433689D01*
X31529955Y-16337733D01*
X31529224Y-16294370D01*
X31527272Y-16261205D01*
X31524463Y-16243424D01*
X31523221Y-16241778D01*
X31511799Y-16248662D01*
X31489084Y-16266505D01*
X31466385Y-16285879D01*
X31411800Y-16326614D01*
X31342321Y-16367617D01*
X31265270Y-16405123D01*
X31187965Y-16435364D01*
X31157113Y-16445012D01*
X31088616Y-16459578D01*
X31005764Y-16469539D01*
X30916371Y-16474583D01*
X30828248Y-16474396D01*
X30749207Y-16468666D01*
X30711511Y-16462858D01*
X30573414Y-16424797D01*
X30446113Y-16367073D01*
X30330292Y-16290211D01*
X30226637Y-16194739D01*
X30135833Y-16081179D01*
X30069031Y-15970381D01*
X30014164Y-15853625D01*
X29972163Y-15734276D01*
X29942167Y-15608283D01*
X29923311Y-15471594D01*
X29914732Y-15320158D01*
X29914006Y-15242711D01*
X29916100Y-15185934D01*
G36*
X27372310Y-15640282D02*
G01*
X28132248Y-15640282D01*
X28141541Y-15715333D01*
X28169728Y-15779160D01*
X28218197Y-15834798D01*
X28223254Y-15839211D01*
X28271548Y-15874037D01*
X28323257Y-15896620D01*
X28383989Y-15908540D01*
X28459352Y-15911383D01*
X28477459Y-15910978D01*
X28531278Y-15908325D01*
X28571308Y-15902909D01*
X28606324Y-15892745D01*
X28645103Y-15875850D01*
X28655745Y-15870672D01*
X28716396Y-15834844D01*
X28763215Y-15792212D01*
X28775952Y-15776973D01*
X28820622Y-15720462D01*
X28820622Y-15524586D01*
X28820086Y-15445939D01*
X28818396Y-15387988D01*
X28815428Y-15348875D01*
X28811057Y-15326741D01*
X28806972Y-15320274D01*
X28791047Y-15317111D01*
X28757264Y-15314488D01*
X28710340Y-15312655D01*
X28654993Y-15311857D01*
X28646106Y-15311842D01*
X28525330Y-15317096D01*
X28422660Y-15333263D01*
X28336106Y-15360961D01*
X28263681Y-15400808D01*
X28208751Y-15447758D01*
X28164204Y-15505645D01*
X28139480Y-15568693D01*
X28132248Y-15640282D01*
X27372310Y-15640282D01*
X27374178Y-15549712D01*
X27382522Y-15470812D01*
X27398768Y-15399590D01*
X27424405Y-15328864D01*
X27448401Y-15276493D01*
X27507020Y-15181196D01*
X27585117Y-15093170D01*
X27680315Y-15014017D01*
X27790238Y-14945340D01*
X27912510Y-14888741D01*
X28044755Y-14845821D01*
X28109422Y-14830882D01*
X28245604Y-14808777D01*
X28394049Y-14794194D01*
X28545505Y-14787813D01*
X28672064Y-14789445D01*
X28833950Y-14796224D01*
X28826530Y-14737245D01*
X28807238Y-14638092D01*
X28776104Y-14557372D01*
X28732269Y-14494466D01*
X28674871Y-14448756D01*
X28603048Y-14419622D01*
X28515941Y-14406447D01*
X28412686Y-14408611D01*
X28374711Y-14412612D01*
X28233520Y-14437780D01*
X28096707Y-14478814D01*
X28002178Y-14516815D01*
X27957018Y-14536190D01*
X27918585Y-14551760D01*
X27892234Y-14561405D01*
X27884546Y-14563452D01*
X27874802Y-14554374D01*
X27858083Y-14525405D01*
X27834232Y-14476217D01*
X27803093Y-14406484D01*
X27764507Y-14315879D01*
X27757910Y-14300089D01*
X27727853Y-14227772D01*
X27700874Y-14162425D01*
X27678136Y-14106906D01*
X27660806Y-14064072D01*
X27650048Y-14036781D01*
X27646941Y-14027942D01*
X27656940Y-14023187D01*
X27683217Y-14017910D01*
X27711489Y-14014231D01*
X27741646Y-14009474D01*
X27789433Y-14000028D01*
X27850612Y-13986820D01*
X27920946Y-13970776D01*
X27996194Y-13952820D01*
X28024755Y-13945797D01*
X28129816Y-13920209D01*
X28217480Y-13900147D01*
X28292068Y-13884969D01*
X28357903Y-13874035D01*
X28419307Y-13866704D01*
X28480602Y-13862335D01*
X28546110Y-13860287D01*
X28604128Y-13859889D01*
X28773574Y-13866552D01*
X28925492Y-13886567D01*
X29060756Y-13920202D01*
X29180239Y-13967725D01*
X29284815Y-14029405D01*
X29362424Y-14092965D01*
X29431265Y-14167099D01*
X29485006Y-14246871D01*
X29527910Y-14339091D01*
X29543384Y-14382161D01*
X29556244Y-14421142D01*
X29567446Y-14457289D01*
X29577120Y-14492434D01*
X29585396Y-14528410D01*
X29592403Y-14567050D01*
X29598272Y-14610185D01*
X29603131Y-14659649D01*
X29607110Y-14717273D01*
X29610340Y-14784891D01*
X29612949Y-14864334D01*
X29615067Y-14957436D01*
X29616824Y-15066027D01*
X29618349Y-15191942D01*
X29619772Y-15337012D01*
X29621025Y-15479778D01*
X29622351Y-15635968D01*
X29623556Y-15771239D01*
X29624766Y-15887246D01*
X29626106Y-15985645D01*
X29627700Y-16068093D01*
X29629675Y-16136246D01*
X29632156Y-16191760D01*
X29635269Y-16236292D01*
X29639138Y-16271498D01*
X29643889Y-16299034D01*
X29649648Y-16320556D01*
X29656539Y-16337722D01*
X29664689Y-16352186D01*
X29674223Y-16365606D01*
X29685266Y-16379638D01*
X29689566Y-16385071D01*
X29705386Y-16407910D01*
X29712422Y-16423463D01*
X29712444Y-16423922D01*
X29701567Y-16426121D01*
X29670582Y-16428147D01*
X29621957Y-16429942D01*
X29558163Y-16431451D01*
X29481669Y-16432616D01*
X29394944Y-16433380D01*
X29300457Y-16433686D01*
X29289550Y-16433689D01*
X28866657Y-16433689D01*
X28863395Y-16337622D01*
X28860133Y-16241556D01*
X28798044Y-16292543D01*
X28700714Y-16360057D01*
X28590813Y-16414749D01*
X28504349Y-16444978D01*
X28435278Y-16459666D01*
X28351925Y-16469659D01*
X28262159Y-16474646D01*
X28173845Y-16474313D01*
X28094851Y-16468351D01*
X28058622Y-16462638D01*
X27918603Y-16424776D01*
X27792178Y-16369932D01*
X27680260Y-16298924D01*
X27583762Y-16212568D01*
X27503600Y-16111679D01*
X27440687Y-15997076D01*
X27396312Y-15870984D01*
X27383978Y-15814401D01*
X27376368Y-15752202D01*
X27372739Y-15677363D01*
X27372245Y-15643467D01*
X27372310Y-15640282D01*
G37*
X27372310Y-15640282D02*
X28132248Y-15640282D01*
X28141541Y-15715333D01*
X28169728Y-15779160D01*
X28218197Y-15834798D01*
X28223254Y-15839211D01*
X28271548Y-15874037D01*
X28323257Y-15896620D01*
X28383989Y-15908540D01*
X28459352Y-15911383D01*
X28477459Y-15910978D01*
X28531278Y-15908325D01*
X28571308Y-15902909D01*
X28606324Y-15892745D01*
X28645103Y-15875850D01*
X28655745Y-15870672D01*
X28716396Y-15834844D01*
X28763215Y-15792212D01*
X28775952Y-15776973D01*
X28820622Y-15720462D01*
X28820622Y-15524586D01*
X28820086Y-15445939D01*
X28818396Y-15387988D01*
X28815428Y-15348875D01*
X28811057Y-15326741D01*
X28806972Y-15320274D01*
X28791047Y-15317111D01*
X28757264Y-15314488D01*
X28710340Y-15312655D01*
X28654993Y-15311857D01*
X28646106Y-15311842D01*
X28525330Y-15317096D01*
X28422660Y-15333263D01*
X28336106Y-15360961D01*
X28263681Y-15400808D01*
X28208751Y-15447758D01*
X28164204Y-15505645D01*
X28139480Y-15568693D01*
X28132248Y-15640282D01*
X27372310Y-15640282D01*
X27374178Y-15549712D01*
X27382522Y-15470812D01*
X27398768Y-15399590D01*
X27424405Y-15328864D01*
X27448401Y-15276493D01*
X27507020Y-15181196D01*
X27585117Y-15093170D01*
X27680315Y-15014017D01*
X27790238Y-14945340D01*
X27912510Y-14888741D01*
X28044755Y-14845821D01*
X28109422Y-14830882D01*
X28245604Y-14808777D01*
X28394049Y-14794194D01*
X28545505Y-14787813D01*
X28672064Y-14789445D01*
X28833950Y-14796224D01*
X28826530Y-14737245D01*
X28807238Y-14638092D01*
X28776104Y-14557372D01*
X28732269Y-14494466D01*
X28674871Y-14448756D01*
X28603048Y-14419622D01*
X28515941Y-14406447D01*
X28412686Y-14408611D01*
X28374711Y-14412612D01*
X28233520Y-14437780D01*
X28096707Y-14478814D01*
X28002178Y-14516815D01*
X27957018Y-14536190D01*
X27918585Y-14551760D01*
X27892234Y-14561405D01*
X27884546Y-14563452D01*
X27874802Y-14554374D01*
X27858083Y-14525405D01*
X27834232Y-14476217D01*
X27803093Y-14406484D01*
X27764507Y-14315879D01*
X27757910Y-14300089D01*
X27727853Y-14227772D01*
X27700874Y-14162425D01*
X27678136Y-14106906D01*
X27660806Y-14064072D01*
X27650048Y-14036781D01*
X27646941Y-14027942D01*
X27656940Y-14023187D01*
X27683217Y-14017910D01*
X27711489Y-14014231D01*
X27741646Y-14009474D01*
X27789433Y-14000028D01*
X27850612Y-13986820D01*
X27920946Y-13970776D01*
X27996194Y-13952820D01*
X28024755Y-13945797D01*
X28129816Y-13920209D01*
X28217480Y-13900147D01*
X28292068Y-13884969D01*
X28357903Y-13874035D01*
X28419307Y-13866704D01*
X28480602Y-13862335D01*
X28546110Y-13860287D01*
X28604128Y-13859889D01*
X28773574Y-13866552D01*
X28925492Y-13886567D01*
X29060756Y-13920202D01*
X29180239Y-13967725D01*
X29284815Y-14029405D01*
X29362424Y-14092965D01*
X29431265Y-14167099D01*
X29485006Y-14246871D01*
X29527910Y-14339091D01*
X29543384Y-14382161D01*
X29556244Y-14421142D01*
X29567446Y-14457289D01*
X29577120Y-14492434D01*
X29585396Y-14528410D01*
X29592403Y-14567050D01*
X29598272Y-14610185D01*
X29603131Y-14659649D01*
X29607110Y-14717273D01*
X29610340Y-14784891D01*
X29612949Y-14864334D01*
X29615067Y-14957436D01*
X29616824Y-15066027D01*
X29618349Y-15191942D01*
X29619772Y-15337012D01*
X29621025Y-15479778D01*
X29622351Y-15635968D01*
X29623556Y-15771239D01*
X29624766Y-15887246D01*
X29626106Y-15985645D01*
X29627700Y-16068093D01*
X29629675Y-16136246D01*
X29632156Y-16191760D01*
X29635269Y-16236292D01*
X29639138Y-16271498D01*
X29643889Y-16299034D01*
X29649648Y-16320556D01*
X29656539Y-16337722D01*
X29664689Y-16352186D01*
X29674223Y-16365606D01*
X29685266Y-16379638D01*
X29689566Y-16385071D01*
X29705386Y-16407910D01*
X29712422Y-16423463D01*
X29712444Y-16423922D01*
X29701567Y-16426121D01*
X29670582Y-16428147D01*
X29621957Y-16429942D01*
X29558163Y-16431451D01*
X29481669Y-16432616D01*
X29394944Y-16433380D01*
X29300457Y-16433686D01*
X29289550Y-16433689D01*
X28866657Y-16433689D01*
X28863395Y-16337622D01*
X28860133Y-16241556D01*
X28798044Y-16292543D01*
X28700714Y-16360057D01*
X28590813Y-16414749D01*
X28504349Y-16444978D01*
X28435278Y-16459666D01*
X28351925Y-16469659D01*
X28262159Y-16474646D01*
X28173845Y-16474313D01*
X28094851Y-16468351D01*
X28058622Y-16462638D01*
X27918603Y-16424776D01*
X27792178Y-16369932D01*
X27680260Y-16298924D01*
X27583762Y-16212568D01*
X27503600Y-16111679D01*
X27440687Y-15997076D01*
X27396312Y-15870984D01*
X27383978Y-15814401D01*
X27376368Y-15752202D01*
X27372739Y-15677363D01*
X27372245Y-15643467D01*
X27372310Y-15640282D01*
G36*
X23153600Y-12489054D02*
G01*
X23164465Y-12602993D01*
X23196082Y-12710616D01*
X23246985Y-12809615D01*
X23315707Y-12897684D01*
X23400781Y-12972516D01*
X23497768Y-13030384D01*
X23604036Y-13070005D01*
X23711050Y-13088573D01*
X23816700Y-13087434D01*
X23918875Y-13067930D01*
X24015466Y-13031406D01*
X24104362Y-12979205D01*
X24183454Y-12912673D01*
X24250631Y-12833152D01*
X24303783Y-12741987D01*
X24340801Y-12640523D01*
X24359573Y-12530102D01*
X24361511Y-12480206D01*
X24361511Y-12392267D01*
X24413440Y-12392267D01*
X24449747Y-12395111D01*
X24476645Y-12406911D01*
X24503751Y-12430649D01*
X24542133Y-12469031D01*
X24542133Y-14660602D01*
X24542124Y-14922739D01*
X24542092Y-15163241D01*
X24542028Y-15383048D01*
X24541924Y-15583101D01*
X24541773Y-15764344D01*
X24541566Y-15927716D01*
X24541294Y-16074160D01*
X24540950Y-16204617D01*
X24540526Y-16320029D01*
X24540013Y-16421338D01*
X24539403Y-16509484D01*
X24538688Y-16585410D01*
X24537860Y-16650057D01*
X24536911Y-16704367D01*
X24535833Y-16749280D01*
X24534617Y-16785740D01*
X24533255Y-16814687D01*
X24531739Y-16837063D01*
X24530062Y-16853809D01*
X24528214Y-16865868D01*
X24526187Y-16874180D01*
X24523975Y-16879687D01*
X24522892Y-16881537D01*
X24518729Y-16888549D01*
X24515195Y-16894996D01*
X24511365Y-16900900D01*
X24506318Y-16906286D01*
X24499129Y-16911178D01*
X24488877Y-16915598D01*
X24474636Y-16919572D01*
X24455486Y-16923121D01*
X24430501Y-16926270D01*
X24398760Y-16929042D01*
X24359338Y-16931461D01*
X24311314Y-16933551D01*
X24253763Y-16935335D01*
X24185763Y-16936837D01*
X24106390Y-16938080D01*
X24014721Y-16939089D01*
X23909834Y-16939885D01*
X23790804Y-16940494D01*
X23656710Y-16940939D01*
X23506627Y-16941243D01*
X23339633Y-16941430D01*
X23154804Y-16941524D01*
X22951217Y-16941548D01*
X22727950Y-16941525D01*
X22484078Y-16941480D01*
X22218679Y-16941437D01*
X22180296Y-16941432D01*
X21913318Y-16941389D01*
X21667998Y-16941318D01*
X21443417Y-16941213D01*
X21238655Y-16941066D01*
X21052794Y-16940869D01*
X20884912Y-16940616D01*
X20734092Y-16940300D01*
X20599413Y-16939913D01*
X20479956Y-16939447D01*
X20374801Y-16938897D01*
X20283029Y-16938253D01*
X20203721Y-16937511D01*
X20135957Y-16936661D01*
X20078818Y-16935697D01*
X20031383Y-16934611D01*
X19992734Y-16933397D01*
X19961951Y-16932047D01*
X19938115Y-16930555D01*
X19920306Y-16928911D01*
X19907605Y-16927111D01*
X19899092Y-16925145D01*
X19894734Y-16923477D01*
X19886272Y-16919906D01*
X19878503Y-16917270D01*
X19871398Y-16914634D01*
X19864927Y-16911062D01*
X19859061Y-16905621D01*
X19853771Y-16897375D01*
X19849026Y-16885390D01*
X19844798Y-16868731D01*
X19841057Y-16846463D01*
X19837773Y-16817652D01*
X19834917Y-16781363D01*
X19832460Y-16736661D01*
X19830371Y-16682611D01*
X19828622Y-16618279D01*
X19827183Y-16542730D01*
X19826024Y-16455030D01*
X19825117Y-16354243D01*
X19824431Y-16239434D01*
X19823937Y-16109670D01*
X19823605Y-15964015D01*
X19823407Y-15801535D01*
X19823313Y-15621295D01*
X19823292Y-15422360D01*
X19823315Y-15203796D01*
X19823354Y-14964668D01*
X19823378Y-14704040D01*
X19823378Y-14661889D01*
X19823364Y-14398992D01*
X19823339Y-14157732D01*
X19823329Y-13937165D01*
X19823358Y-13736352D01*
X19823452Y-13554349D01*
X19823638Y-13390216D01*
X19823941Y-13243011D01*
X19824386Y-13111792D01*
X19824966Y-13001867D01*
X20127803Y-13001867D01*
X20167593Y-13059711D01*
X20178764Y-13075479D01*
X20188834Y-13089441D01*
X20197862Y-13102784D01*
X20205903Y-13116693D01*
X20213014Y-13132356D01*
X20219253Y-13150958D01*
X20224675Y-13173686D01*
X20229338Y-13201727D01*
X20233299Y-13236267D01*
X20236615Y-13278492D01*
X20239341Y-13329589D01*
X20241536Y-13390744D01*
X20243255Y-13463144D01*
X20244556Y-13547975D01*
X20245495Y-13646422D01*
X20246130Y-13759674D01*
X20246516Y-13888916D01*
X20246712Y-14035334D01*
X20246773Y-14200116D01*
X20246757Y-14384447D01*
X20246720Y-14589513D01*
X20246711Y-14712133D01*
X20246735Y-14929082D01*
X20246769Y-15124642D01*
X20246757Y-15299999D01*
X20246642Y-15456341D01*
X20246370Y-15594857D01*
X20245882Y-15716734D01*
X20245124Y-15823160D01*
X20244038Y-15915322D01*
X20242569Y-15994409D01*
X20240660Y-16061608D01*
X20238256Y-16118107D01*
X20235299Y-16165093D01*
X20231734Y-16203755D01*
X20227505Y-16235280D01*
X20222554Y-16260855D01*
X20216827Y-16281670D01*
X20210267Y-16298911D01*
X20202817Y-16313765D01*
X20194421Y-16327422D01*
X20185024Y-16341069D01*
X20174568Y-16355893D01*
X20168477Y-16364783D01*
X20129704Y-16422400D01*
X20661268Y-16422400D01*
X20784517Y-16422365D01*
X20887013Y-16422215D01*
X20970580Y-16421878D01*
X21037044Y-16421286D01*
X21088229Y-16420367D01*
X21125959Y-16419051D01*
X21152060Y-16417269D01*
X21168356Y-16414951D01*
X21176672Y-16412026D01*
X21178832Y-16408424D01*
X21176661Y-16404075D01*
X21175465Y-16402645D01*
X21150315Y-16365573D01*
X21124417Y-16312772D01*
X21100808Y-16250770D01*
X21092539Y-16224357D01*
X21087922Y-16206416D01*
X21084021Y-16185355D01*
X21080752Y-16159089D01*
X21078034Y-16125532D01*
X21075785Y-16082599D01*
X21073923Y-16028204D01*
X21072364Y-15960262D01*
X21071028Y-15876688D01*
X21069831Y-15775395D01*
X21068692Y-15654300D01*
X21068315Y-15609600D01*
X21067298Y-15484449D01*
X21066540Y-15380082D01*
X21066097Y-15294707D01*
X21066030Y-15226533D01*
X21066395Y-15173765D01*
X21067252Y-15134614D01*
X21068659Y-15107285D01*
X21070675Y-15089986D01*
X21073357Y-15080926D01*
X21076764Y-15078312D01*
X21080956Y-15080351D01*
X21085429Y-15084667D01*
X21095784Y-15097602D01*
X21117842Y-15126676D01*
X21150043Y-15169759D01*
X21190826Y-15224718D01*
X21238630Y-15289423D01*
X21291895Y-15361742D01*
X21349060Y-15439544D01*
X21408563Y-15520698D01*
X21468845Y-15603072D01*
X21528345Y-15684536D01*
X21585502Y-15762957D01*
X21638755Y-15836204D01*
X21686543Y-15902147D01*
X21727307Y-15958654D01*
X21759484Y-16003593D01*
X21781515Y-16034834D01*
X21786083Y-16041466D01*
X21809004Y-16078369D01*
X21835812Y-16126359D01*
X21861211Y-16175897D01*
X21864432Y-16182577D01*
X21886110Y-16230772D01*
X21898696Y-16268334D01*
X21904426Y-16304160D01*
X21905544Y-16346200D01*
X21904910Y-16422400D01*
X23059349Y-16422400D01*
X23054347Y-16417257D01*
X23266489Y-16417257D01*
X23277396Y-16418334D01*
X23308589Y-16419335D01*
X23357777Y-16420235D01*
X23422667Y-16421010D01*
X23500970Y-16421637D01*
X23590393Y-16422091D01*
X23688644Y-16422349D01*
X23757555Y-16422400D01*
X23862548Y-16422180D01*
X23959390Y-16421548D01*
X24045893Y-16420549D01*
X24119868Y-16419227D01*
X24179126Y-16417626D01*
X24221480Y-16415791D01*
X24244740Y-16413765D01*
X24248622Y-16412493D01*
X24240924Y-16397591D01*
X24232926Y-16389560D01*
X24219754Y-16372434D01*
X24202515Y-16342183D01*
X24190593Y-16317622D01*
X24163955Y-16258711D01*
X24160880Y-15081845D01*
X24157805Y-13904978D01*
X23712147Y-13904978D01*
X23614330Y-13905142D01*
X23523936Y-13905611D01*
X23443370Y-13906347D01*
X23375038Y-13907316D01*
X23321344Y-13908480D01*
X23284695Y-13909803D01*
X23267496Y-13911249D01*
X23266489Y-13911702D01*
X23272398Y-13924659D01*
X23286728Y-13946908D01*
X23287775Y-13948391D01*
X23306562Y-13978544D01*
X23326209Y-14015375D01*
X23330108Y-14023511D01*
X23333644Y-14031940D01*
X23336770Y-14042059D01*
X23339514Y-14055260D01*
X23341908Y-14072938D01*
X23343981Y-14096484D01*
X23345765Y-14127293D01*
X23347288Y-14166757D01*
X23348581Y-14216269D01*
X23349674Y-14277223D01*
X23350597Y-14351011D01*
X23351381Y-14439028D01*
X23352055Y-14542665D01*
X23352650Y-14663316D01*
X23353195Y-14802374D01*
X23353721Y-14961232D01*
X23354255Y-15140089D01*
X23354794Y-15325207D01*
X23355228Y-15489145D01*
X23355491Y-15633303D01*
X23355516Y-15759079D01*
X23355235Y-15867871D01*
X23354581Y-15961077D01*
X23353486Y-16040097D01*
X23351882Y-16106328D01*
X23349703Y-16161170D01*
X23346881Y-16206021D01*
X23343349Y-16242278D01*
X23339039Y-16271341D01*
X23333883Y-16294609D01*
X23327815Y-16313479D01*
X23320767Y-16329351D01*
X23312671Y-16343622D01*
X23303460Y-16357691D01*
X23294960Y-16370158D01*
X23277824Y-16396452D01*
X23267678Y-16414037D01*
X23266489Y-16417257D01*
X23054347Y-16417257D01*
X22968185Y-16328669D01*
X22921388Y-16278775D01*
X22871101Y-16222295D01*
X22825056Y-16168026D01*
X22804631Y-16142673D01*
X22774193Y-16103128D01*
X22734138Y-16049916D01*
X22685639Y-15984667D01*
X22629865Y-15909011D01*
X22567989Y-15824577D01*
X22501181Y-15732994D01*
X22430613Y-15635892D01*
X22357455Y-15534901D01*
X22282879Y-15431650D01*
X22208056Y-15327768D01*
X22134157Y-15224885D01*
X22062354Y-15124631D01*
X21993816Y-15028636D01*
X21929716Y-14938527D01*
X21871225Y-14855936D01*
X21819514Y-14782492D01*
X21775753Y-14719824D01*
X21741115Y-14669561D01*
X21716770Y-14633334D01*
X21703889Y-14612771D01*
X21702131Y-14608668D01*
X21710090Y-14597342D01*
X21730885Y-14570162D01*
X21763153Y-14528829D01*
X21805530Y-14475044D01*
X21856653Y-14410506D01*
X21915159Y-14336918D01*
X21979686Y-14255978D01*
X22048869Y-14169388D01*
X22121347Y-14078848D01*
X22195754Y-13986060D01*
X22255483Y-13911702D01*
X22270730Y-13892722D01*
X22344910Y-13800537D01*
X22416931Y-13711204D01*
X22485431Y-13626424D01*
X22549045Y-13547898D01*
X22606412Y-13477326D01*
X22656167Y-13416409D01*
X22696948Y-13366847D01*
X22714112Y-13346178D01*
X22800404Y-13245516D01*
X22877003Y-13162259D01*
X22945817Y-13094438D01*
X23008752Y-13040089D01*
X23018133Y-13032722D01*
X23057644Y-13002117D01*
X21925884Y-13001867D01*
X21931173Y-13049844D01*
X21927870Y-13107188D01*
X21906339Y-13175463D01*
X21866365Y-13255212D01*
X21821057Y-13327495D01*
X21804839Y-13350140D01*
X21776786Y-13387696D01*
X21738570Y-13438021D01*
X21691863Y-13498973D01*
X21638339Y-13568411D01*
X21579669Y-13644194D01*
X21517525Y-13724180D01*
X21453579Y-13806228D01*
X21389505Y-13888196D01*
X21326973Y-13967943D01*
X21267657Y-14043327D01*
X21213229Y-14112207D01*
X21165361Y-14172442D01*
X21125725Y-14221889D01*
X21095994Y-14258408D01*
X21077839Y-14279858D01*
X21074780Y-14283156D01*
X21071921Y-14275149D01*
X21069707Y-14244855D01*
X21068143Y-14192556D01*
X21067233Y-14118531D01*
X21066980Y-14023063D01*
X21067387Y-13906434D01*
X21068296Y-13786445D01*
X21069618Y-13654333D01*
X21071143Y-13542594D01*
X21073119Y-13449025D01*
X21075794Y-13371419D01*
X21079418Y-13307574D01*
X21084239Y-13255283D01*
X21090506Y-13212344D01*
X21098468Y-13176551D01*
X21108373Y-13145700D01*
X21120469Y-13117586D01*
X21135007Y-13090005D01*
X21149689Y-13064966D01*
X21187686Y-13001867D01*
X20127803Y-13001867D01*
X19824966Y-13001867D01*
X19824999Y-12995617D01*
X19825805Y-12893544D01*
X19826830Y-12804633D01*
X19828100Y-12727941D01*
X19829640Y-12662527D01*
X19831476Y-12607449D01*
X19833633Y-12561765D01*
X19836137Y-12524534D01*
X19839013Y-12494813D01*
X19842287Y-12471662D01*
X19845985Y-12454139D01*
X19850131Y-12441301D01*
X19854753Y-12432208D01*
X19859874Y-12425918D01*
X19865522Y-12421488D01*
X19871721Y-12417978D01*
X19878496Y-12414445D01*
X19884492Y-12410876D01*
X19889725Y-12408300D01*
X19897901Y-12405972D01*
X19910114Y-12403878D01*
X19927459Y-12402007D01*
X19951031Y-12400347D01*
X19981923Y-12398884D01*
X20021232Y-12397608D01*
X20070050Y-12396504D01*
X20129473Y-12395561D01*
X20200596Y-12394767D01*
X20284512Y-12394109D01*
X20382317Y-12393575D01*
X20495106Y-12393153D01*
X20623971Y-12392829D01*
X20770009Y-12392592D01*
X20934314Y-12392430D01*
X21117980Y-12392330D01*
X21322103Y-12392280D01*
X21533247Y-12392267D01*
X23153600Y-12392267D01*
X23153600Y-12489054D01*
G37*
X23153600Y-12489054D02*
X23164465Y-12602993D01*
X23196082Y-12710616D01*
X23246985Y-12809615D01*
X23315707Y-12897684D01*
X23400781Y-12972516D01*
X23497768Y-13030384D01*
X23604036Y-13070005D01*
X23711050Y-13088573D01*
X23816700Y-13087434D01*
X23918875Y-13067930D01*
X24015466Y-13031406D01*
X24104362Y-12979205D01*
X24183454Y-12912673D01*
X24250631Y-12833152D01*
X24303783Y-12741987D01*
X24340801Y-12640523D01*
X24359573Y-12530102D01*
X24361511Y-12480206D01*
X24361511Y-12392267D01*
X24413440Y-12392267D01*
X24449747Y-12395111D01*
X24476645Y-12406911D01*
X24503751Y-12430649D01*
X24542133Y-12469031D01*
X24542133Y-14660602D01*
X24542124Y-14922739D01*
X24542092Y-15163241D01*
X24542028Y-15383048D01*
X24541924Y-15583101D01*
X24541773Y-15764344D01*
X24541566Y-15927716D01*
X24541294Y-16074160D01*
X24540950Y-16204617D01*
X24540526Y-16320029D01*
X24540013Y-16421338D01*
X24539403Y-16509484D01*
X24538688Y-16585410D01*
X24537860Y-16650057D01*
X24536911Y-16704367D01*
X24535833Y-16749280D01*
X24534617Y-16785740D01*
X24533255Y-16814687D01*
X24531739Y-16837063D01*
X24530062Y-16853809D01*
X24528214Y-16865868D01*
X24526187Y-16874180D01*
X24523975Y-16879687D01*
X24522892Y-16881537D01*
X24518729Y-16888549D01*
X24515195Y-16894996D01*
X24511365Y-16900900D01*
X24506318Y-16906286D01*
X24499129Y-16911178D01*
X24488877Y-16915598D01*
X24474636Y-16919572D01*
X24455486Y-16923121D01*
X24430501Y-16926270D01*
X24398760Y-16929042D01*
X24359338Y-16931461D01*
X24311314Y-16933551D01*
X24253763Y-16935335D01*
X24185763Y-16936837D01*
X24106390Y-16938080D01*
X24014721Y-16939089D01*
X23909834Y-16939885D01*
X23790804Y-16940494D01*
X23656710Y-16940939D01*
X23506627Y-16941243D01*
X23339633Y-16941430D01*
X23154804Y-16941524D01*
X22951217Y-16941548D01*
X22727950Y-16941525D01*
X22484078Y-16941480D01*
X22218679Y-16941437D01*
X22180296Y-16941432D01*
X21913318Y-16941389D01*
X21667998Y-16941318D01*
X21443417Y-16941213D01*
X21238655Y-16941066D01*
X21052794Y-16940869D01*
X20884912Y-16940616D01*
X20734092Y-16940300D01*
X20599413Y-16939913D01*
X20479956Y-16939447D01*
X20374801Y-16938897D01*
X20283029Y-16938253D01*
X20203721Y-16937511D01*
X20135957Y-16936661D01*
X20078818Y-16935697D01*
X20031383Y-16934611D01*
X19992734Y-16933397D01*
X19961951Y-16932047D01*
X19938115Y-16930555D01*
X19920306Y-16928911D01*
X19907605Y-16927111D01*
X19899092Y-16925145D01*
X19894734Y-16923477D01*
X19886272Y-16919906D01*
X19878503Y-16917270D01*
X19871398Y-16914634D01*
X19864927Y-16911062D01*
X19859061Y-16905621D01*
X19853771Y-16897375D01*
X19849026Y-16885390D01*
X19844798Y-16868731D01*
X19841057Y-16846463D01*
X19837773Y-16817652D01*
X19834917Y-16781363D01*
X19832460Y-16736661D01*
X19830371Y-16682611D01*
X19828622Y-16618279D01*
X19827183Y-16542730D01*
X19826024Y-16455030D01*
X19825117Y-16354243D01*
X19824431Y-16239434D01*
X19823937Y-16109670D01*
X19823605Y-15964015D01*
X19823407Y-15801535D01*
X19823313Y-15621295D01*
X19823292Y-15422360D01*
X19823315Y-15203796D01*
X19823354Y-14964668D01*
X19823378Y-14704040D01*
X19823378Y-14661889D01*
X19823364Y-14398992D01*
X19823339Y-14157732D01*
X19823329Y-13937165D01*
X19823358Y-13736352D01*
X19823452Y-13554349D01*
X19823638Y-13390216D01*
X19823941Y-13243011D01*
X19824386Y-13111792D01*
X19824966Y-13001867D01*
X20127803Y-13001867D01*
X20167593Y-13059711D01*
X20178764Y-13075479D01*
X20188834Y-13089441D01*
X20197862Y-13102784D01*
X20205903Y-13116693D01*
X20213014Y-13132356D01*
X20219253Y-13150958D01*
X20224675Y-13173686D01*
X20229338Y-13201727D01*
X20233299Y-13236267D01*
X20236615Y-13278492D01*
X20239341Y-13329589D01*
X20241536Y-13390744D01*
X20243255Y-13463144D01*
X20244556Y-13547975D01*
X20245495Y-13646422D01*
X20246130Y-13759674D01*
X20246516Y-13888916D01*
X20246712Y-14035334D01*
X20246773Y-14200116D01*
X20246757Y-14384447D01*
X20246720Y-14589513D01*
X20246711Y-14712133D01*
X20246735Y-14929082D01*
X20246769Y-15124642D01*
X20246757Y-15299999D01*
X20246642Y-15456341D01*
X20246370Y-15594857D01*
X20245882Y-15716734D01*
X20245124Y-15823160D01*
X20244038Y-15915322D01*
X20242569Y-15994409D01*
X20240660Y-16061608D01*
X20238256Y-16118107D01*
X20235299Y-16165093D01*
X20231734Y-16203755D01*
X20227505Y-16235280D01*
X20222554Y-16260855D01*
X20216827Y-16281670D01*
X20210267Y-16298911D01*
X20202817Y-16313765D01*
X20194421Y-16327422D01*
X20185024Y-16341069D01*
X20174568Y-16355893D01*
X20168477Y-16364783D01*
X20129704Y-16422400D01*
X20661268Y-16422400D01*
X20784517Y-16422365D01*
X20887013Y-16422215D01*
X20970580Y-16421878D01*
X21037044Y-16421286D01*
X21088229Y-16420367D01*
X21125959Y-16419051D01*
X21152060Y-16417269D01*
X21168356Y-16414951D01*
X21176672Y-16412026D01*
X21178832Y-16408424D01*
X21176661Y-16404075D01*
X21175465Y-16402645D01*
X21150315Y-16365573D01*
X21124417Y-16312772D01*
X21100808Y-16250770D01*
X21092539Y-16224357D01*
X21087922Y-16206416D01*
X21084021Y-16185355D01*
X21080752Y-16159089D01*
X21078034Y-16125532D01*
X21075785Y-16082599D01*
X21073923Y-16028204D01*
X21072364Y-15960262D01*
X21071028Y-15876688D01*
X21069831Y-15775395D01*
X21068692Y-15654300D01*
X21068315Y-15609600D01*
X21067298Y-15484449D01*
X21066540Y-15380082D01*
X21066097Y-15294707D01*
X21066030Y-15226533D01*
X21066395Y-15173765D01*
X21067252Y-15134614D01*
X21068659Y-15107285D01*
X21070675Y-15089986D01*
X21073357Y-15080926D01*
X21076764Y-15078312D01*
X21080956Y-15080351D01*
X21085429Y-15084667D01*
X21095784Y-15097602D01*
X21117842Y-15126676D01*
X21150043Y-15169759D01*
X21190826Y-15224718D01*
X21238630Y-15289423D01*
X21291895Y-15361742D01*
X21349060Y-15439544D01*
X21408563Y-15520698D01*
X21468845Y-15603072D01*
X21528345Y-15684536D01*
X21585502Y-15762957D01*
X21638755Y-15836204D01*
X21686543Y-15902147D01*
X21727307Y-15958654D01*
X21759484Y-16003593D01*
X21781515Y-16034834D01*
X21786083Y-16041466D01*
X21809004Y-16078369D01*
X21835812Y-16126359D01*
X21861211Y-16175897D01*
X21864432Y-16182577D01*
X21886110Y-16230772D01*
X21898696Y-16268334D01*
X21904426Y-16304160D01*
X21905544Y-16346200D01*
X21904910Y-16422400D01*
X23059349Y-16422400D01*
X23054347Y-16417257D01*
X23266489Y-16417257D01*
X23277396Y-16418334D01*
X23308589Y-16419335D01*
X23357777Y-16420235D01*
X23422667Y-16421010D01*
X23500970Y-16421637D01*
X23590393Y-16422091D01*
X23688644Y-16422349D01*
X23757555Y-16422400D01*
X23862548Y-16422180D01*
X23959390Y-16421548D01*
X24045893Y-16420549D01*
X24119868Y-16419227D01*
X24179126Y-16417626D01*
X24221480Y-16415791D01*
X24244740Y-16413765D01*
X24248622Y-16412493D01*
X24240924Y-16397591D01*
X24232926Y-16389560D01*
X24219754Y-16372434D01*
X24202515Y-16342183D01*
X24190593Y-16317622D01*
X24163955Y-16258711D01*
X24160880Y-15081845D01*
X24157805Y-13904978D01*
X23712147Y-13904978D01*
X23614330Y-13905142D01*
X23523936Y-13905611D01*
X23443370Y-13906347D01*
X23375038Y-13907316D01*
X23321344Y-13908480D01*
X23284695Y-13909803D01*
X23267496Y-13911249D01*
X23266489Y-13911702D01*
X23272398Y-13924659D01*
X23286728Y-13946908D01*
X23287775Y-13948391D01*
X23306562Y-13978544D01*
X23326209Y-14015375D01*
X23330108Y-14023511D01*
X23333644Y-14031940D01*
X23336770Y-14042059D01*
X23339514Y-14055260D01*
X23341908Y-14072938D01*
X23343981Y-14096484D01*
X23345765Y-14127293D01*
X23347288Y-14166757D01*
X23348581Y-14216269D01*
X23349674Y-14277223D01*
X23350597Y-14351011D01*
X23351381Y-14439028D01*
X23352055Y-14542665D01*
X23352650Y-14663316D01*
X23353195Y-14802374D01*
X23353721Y-14961232D01*
X23354255Y-15140089D01*
X23354794Y-15325207D01*
X23355228Y-15489145D01*
X23355491Y-15633303D01*
X23355516Y-15759079D01*
X23355235Y-15867871D01*
X23354581Y-15961077D01*
X23353486Y-16040097D01*
X23351882Y-16106328D01*
X23349703Y-16161170D01*
X23346881Y-16206021D01*
X23343349Y-16242278D01*
X23339039Y-16271341D01*
X23333883Y-16294609D01*
X23327815Y-16313479D01*
X23320767Y-16329351D01*
X23312671Y-16343622D01*
X23303460Y-16357691D01*
X23294960Y-16370158D01*
X23277824Y-16396452D01*
X23267678Y-16414037D01*
X23266489Y-16417257D01*
X23054347Y-16417257D01*
X22968185Y-16328669D01*
X22921388Y-16278775D01*
X22871101Y-16222295D01*
X22825056Y-16168026D01*
X22804631Y-16142673D01*
X22774193Y-16103128D01*
X22734138Y-16049916D01*
X22685639Y-15984667D01*
X22629865Y-15909011D01*
X22567989Y-15824577D01*
X22501181Y-15732994D01*
X22430613Y-15635892D01*
X22357455Y-15534901D01*
X22282879Y-15431650D01*
X22208056Y-15327768D01*
X22134157Y-15224885D01*
X22062354Y-15124631D01*
X21993816Y-15028636D01*
X21929716Y-14938527D01*
X21871225Y-14855936D01*
X21819514Y-14782492D01*
X21775753Y-14719824D01*
X21741115Y-14669561D01*
X21716770Y-14633334D01*
X21703889Y-14612771D01*
X21702131Y-14608668D01*
X21710090Y-14597342D01*
X21730885Y-14570162D01*
X21763153Y-14528829D01*
X21805530Y-14475044D01*
X21856653Y-14410506D01*
X21915159Y-14336918D01*
X21979686Y-14255978D01*
X22048869Y-14169388D01*
X22121347Y-14078848D01*
X22195754Y-13986060D01*
X22255483Y-13911702D01*
X22270730Y-13892722D01*
X22344910Y-13800537D01*
X22416931Y-13711204D01*
X22485431Y-13626424D01*
X22549045Y-13547898D01*
X22606412Y-13477326D01*
X22656167Y-13416409D01*
X22696948Y-13366847D01*
X22714112Y-13346178D01*
X22800404Y-13245516D01*
X22877003Y-13162259D01*
X22945817Y-13094438D01*
X23008752Y-13040089D01*
X23018133Y-13032722D01*
X23057644Y-13002117D01*
X21925884Y-13001867D01*
X21931173Y-13049844D01*
X21927870Y-13107188D01*
X21906339Y-13175463D01*
X21866365Y-13255212D01*
X21821057Y-13327495D01*
X21804839Y-13350140D01*
X21776786Y-13387696D01*
X21738570Y-13438021D01*
X21691863Y-13498973D01*
X21638339Y-13568411D01*
X21579669Y-13644194D01*
X21517525Y-13724180D01*
X21453579Y-13806228D01*
X21389505Y-13888196D01*
X21326973Y-13967943D01*
X21267657Y-14043327D01*
X21213229Y-14112207D01*
X21165361Y-14172442D01*
X21125725Y-14221889D01*
X21095994Y-14258408D01*
X21077839Y-14279858D01*
X21074780Y-14283156D01*
X21071921Y-14275149D01*
X21069707Y-14244855D01*
X21068143Y-14192556D01*
X21067233Y-14118531D01*
X21066980Y-14023063D01*
X21067387Y-13906434D01*
X21068296Y-13786445D01*
X21069618Y-13654333D01*
X21071143Y-13542594D01*
X21073119Y-13449025D01*
X21075794Y-13371419D01*
X21079418Y-13307574D01*
X21084239Y-13255283D01*
X21090506Y-13212344D01*
X21098468Y-13176551D01*
X21108373Y-13145700D01*
X21120469Y-13117586D01*
X21135007Y-13090005D01*
X21149689Y-13064966D01*
X21187686Y-13001867D01*
X20127803Y-13001867D01*
X19824966Y-13001867D01*
X19824999Y-12995617D01*
X19825805Y-12893544D01*
X19826830Y-12804633D01*
X19828100Y-12727941D01*
X19829640Y-12662527D01*
X19831476Y-12607449D01*
X19833633Y-12561765D01*
X19836137Y-12524534D01*
X19839013Y-12494813D01*
X19842287Y-12471662D01*
X19845985Y-12454139D01*
X19850131Y-12441301D01*
X19854753Y-12432208D01*
X19859874Y-12425918D01*
X19865522Y-12421488D01*
X19871721Y-12417978D01*
X19878496Y-12414445D01*
X19884492Y-12410876D01*
X19889725Y-12408300D01*
X19897901Y-12405972D01*
X19910114Y-12403878D01*
X19927459Y-12402007D01*
X19951031Y-12400347D01*
X19981923Y-12398884D01*
X20021232Y-12397608D01*
X20070050Y-12396504D01*
X20129473Y-12395561D01*
X20200596Y-12394767D01*
X20284512Y-12394109D01*
X20382317Y-12393575D01*
X20495106Y-12393153D01*
X20623971Y-12392829D01*
X20770009Y-12392592D01*
X20934314Y-12392430D01*
X21117980Y-12392330D01*
X21322103Y-12392280D01*
X21533247Y-12392267D01*
X23153600Y-12392267D01*
X23153600Y-12489054D01*
D11*
%TO.C,C6*%
X38777836Y-21860000D02*
X38562164Y-21860000D01*
X38777836Y-21140000D02*
X38562164Y-21140000D01*
D12*
%TO.C,U2*%
X39451950Y-11488299D02*
X41407750Y-11488299D01*
X41407750Y-8211699D02*
X39451950Y-8211699D01*
X41407750Y-10213260D02*
X41407750Y-9486738D01*
D11*
%TO.C,C3*%
X12660000Y-9957836D02*
X12660000Y-9742164D01*
X13380000Y-9957836D02*
X13380000Y-9742164D01*
%TO.C,R16*%
X22190000Y-27953641D02*
X22190000Y-27646359D01*
X22950000Y-27953641D02*
X22950000Y-27646359D01*
%TO.C,JP1*%
X13800000Y-16350000D02*
X14400000Y-16350000D01*
X15100000Y-17050000D02*
X15100000Y-18450000D01*
X13100000Y-18450000D02*
X13100000Y-17050000D01*
X14400000Y-19150000D02*
X13800000Y-19150000D01*
X15100000Y-17050000D02*
G75*
G03*
X14400000Y-16350000I-699999J1D01*
G01*
X13800000Y-16350000D02*
G75*
G03*
X13100000Y-17050000I-1J-699999D01*
G01*
X14400000Y-19150000D02*
G75*
G03*
X15100000Y-18450000I0J700000D01*
G01*
X13100000Y-18450000D02*
G75*
G03*
X13800000Y-19150000I700000J0D01*
G01*
%TO.C,R11*%
X14613641Y-13580000D02*
X14306359Y-13580000D01*
X14613641Y-12820000D02*
X14306359Y-12820000D01*
%TO.C,R2*%
X18416359Y-22720000D02*
X18723641Y-22720000D01*
X18416359Y-23480000D02*
X18723641Y-23480000D01*
%TO.C,SW1*%
X30730000Y-7150000D02*
X24610000Y-7150000D01*
X30730000Y-3450000D02*
X30730000Y-7150000D01*
X24610000Y-7150000D02*
X24610000Y-3450000D01*
X24610000Y-3450000D02*
X30730000Y-3450000D01*
%TO.C,D2*%
X43070000Y-18060000D02*
X45070000Y-18060000D01*
X43070000Y-18060000D02*
X43070000Y-14050000D01*
X45070000Y-18060000D02*
X45070000Y-14050000D01*
%TO.C,R18*%
X23816359Y-22220000D02*
X24123641Y-22220000D01*
X23816359Y-22980000D02*
X24123641Y-22980000D01*
D14*
%TO.C,USB1*%
X11800000Y-31534000D02*
X11925000Y-30619000D01*
X11925000Y-25994000D02*
X12396000Y-25994000D01*
X11925000Y-27777000D02*
X11925000Y-25994000D01*
X11925000Y-30619000D02*
X11925000Y-30023000D01*
X11935000Y-27580000D02*
X11939000Y-27372000D01*
X11937000Y-27579000D02*
X11938000Y-27405000D01*
X12220000Y-31039000D02*
X11800000Y-31534000D01*
X12670000Y-31019000D02*
X12220000Y-31039000D01*
X12670000Y-31019000D02*
X12670000Y-31519000D01*
X12670000Y-31019000D02*
X18770000Y-31019000D01*
X12670000Y-31519000D02*
X18760000Y-31549000D01*
X13856000Y-25597000D02*
X13939000Y-25597000D01*
X17401000Y-25611000D02*
X17469000Y-25611000D01*
X18760000Y-31549000D02*
X18770000Y-31019000D01*
X18770000Y-31019000D02*
X19070000Y-31019000D01*
X18944000Y-25994000D02*
X19460000Y-25994000D01*
X19070000Y-31019000D02*
X19600000Y-31494000D01*
X19460000Y-25994000D02*
X19460000Y-27785000D01*
X19460000Y-30016000D02*
X19460000Y-30608000D01*
X19600000Y-31494000D02*
X19470000Y-30608000D01*
%TO.C,L1*%
X16952000Y-21900000D02*
X34986000Y-21900000D01*
X16953000Y-7900000D02*
X16953000Y-8119000D01*
X16953000Y-7900000D02*
X34987000Y-7900000D01*
X16953000Y-21681000D02*
X16953000Y-21900000D01*
X34987000Y-7900000D02*
X34987000Y-8119000D01*
X34987000Y-21681000D02*
X34987000Y-21900000D01*
X16699000Y-7407000D02*
G75*
G03*
X16699000Y-7407000I-254000J0D01*
G01*
D11*
%TO.C,R19*%
X21823641Y-22980000D02*
X21516359Y-22980000D01*
X21823641Y-22220000D02*
X21516359Y-22220000D01*
%TO.C,R13*%
X12106359Y-11520000D02*
X12413641Y-11520000D01*
X12106359Y-12280000D02*
X12413641Y-12280000D01*
%TD*%
%LPC*%
%TO.C,U1*%
G36*
X43639800Y-23225300D02*
G01*
X44198600Y-23784100D01*
X44198600Y-26070100D01*
X42598400Y-26070100D01*
X42598400Y-23784100D01*
X43157200Y-23225300D01*
X43157200Y-22971300D01*
X43639800Y-22971300D01*
X43639800Y-23225300D01*
G37*
%TD*%
D15*
%TO.C,C1*%
X18747000Y-7076500D03*
X17787000Y-7076500D03*
%TD*%
D16*
%TO.C,R9*%
X14320000Y-9290000D03*
X14320000Y-10310000D03*
%TD*%
D17*
%TO.C,H3*%
X49900000Y-28100000D03*
%TD*%
D18*
%TO.C,U3*%
X28570000Y-23330000D03*
X28570000Y-24600000D03*
X28570000Y-25870000D03*
X28570000Y-27140000D03*
X33520000Y-27140000D03*
X33520000Y-25870000D03*
X33520000Y-24600000D03*
X33520000Y-23330000D03*
%TD*%
D19*
%TO.C,D1*%
X39382500Y-6500000D03*
X40957500Y-6500000D03*
%TD*%
D16*
%TO.C,R3*%
X14070000Y-14390000D03*
X14070000Y-15410000D03*
%TD*%
D20*
%TO.C,R4*%
X38070000Y-7410000D03*
X38070000Y-6390000D03*
%TD*%
D21*
%TO.C,Q1*%
X24320000Y-27250000D03*
X24320000Y-29150000D03*
X26195000Y-28200000D03*
%TD*%
D22*
%TO.C,JP3*%
X37370000Y-23300000D03*
D23*
X38670000Y-23300000D03*
%TD*%
D24*
%TO.C,C8*%
X37290000Y-10675000D03*
X37290000Y-9125000D03*
%TD*%
D25*
%TO.C,R6*%
X38270000Y-5000000D03*
X37250000Y-5000000D03*
%TD*%
%TO.C,R7*%
X36380000Y-5000000D03*
X35360000Y-5000000D03*
%TD*%
D26*
%TO.C,Q2*%
X9920000Y-20675000D03*
X11820000Y-20675000D03*
X10870000Y-18800000D03*
%TD*%
D27*
%TO.C,J3*%
X24759999Y-24799999D03*
D28*
X23489999Y-24799999D03*
X22219999Y-24799999D03*
X20949999Y-24799999D03*
%TD*%
D20*
%TO.C,R5*%
X42290000Y-7510000D03*
X42290000Y-6490000D03*
%TD*%
D27*
%TO.C,J4*%
X28969999Y-29299999D03*
%TD*%
%TO.C,J2*%
X10969999Y-13799999D03*
D28*
X10969999Y-15069999D03*
X10969999Y-16339999D03*
%TD*%
D29*
%TO.C,C7*%
X43320000Y-10780000D03*
X43320000Y-9820000D03*
%TD*%
D30*
%TO.C,C9*%
X35670000Y-22320000D03*
X35670000Y-23280000D03*
%TD*%
D27*
%TO.C,SW2*%
X39049999Y-16599999D03*
D28*
X37779999Y-16599999D03*
%TD*%
D31*
%TO.C,C10*%
X35157500Y-29200000D03*
X33382500Y-29200000D03*
%TD*%
D32*
%TO.C,U1*%
X44898499Y-22374399D03*
D33*
X43398499Y-22374399D03*
D32*
X41898499Y-22374399D03*
%TD*%
D25*
%TO.C,R1*%
X34280000Y-7000000D03*
X33260000Y-7000000D03*
%TD*%
D34*
%TO.C,C2*%
X18279500Y-5376500D03*
X21154500Y-5376500D03*
%TD*%
D20*
%TO.C,R10*%
X11770000Y-10360000D03*
X11770000Y-9340000D03*
%TD*%
D25*
%TO.C,R12*%
X14870000Y-11900000D03*
X13850000Y-11900000D03*
%TD*%
D35*
%TO.C,JP2*%
X14170000Y-21950000D03*
D36*
X14170000Y-20650000D03*
%TD*%
D17*
%TO.C,H4*%
X2200000Y-28100000D03*
%TD*%
D37*
%TO.C,C5*%
X43390000Y-20800000D03*
X44350000Y-20800000D03*
%TD*%
D38*
%TO.C,D3*%
X41470000Y-17400000D03*
X41470000Y-14100000D03*
%TD*%
D39*
%TO.C,R17*%
X35610000Y-25700000D03*
X36630000Y-25700000D03*
%TD*%
D40*
%TO.C,C4*%
X40770000Y-19600000D03*
X37895000Y-19600000D03*
%TD*%
D27*
%TO.C,BT1*%
X38989999Y-13399999D03*
D28*
X37719999Y-13399999D03*
%TD*%
D15*
%TO.C,C6*%
X39150000Y-21500000D03*
X38190000Y-21500000D03*
%TD*%
D41*
%TO.C,U2*%
X39089999Y-8899997D03*
X39089999Y-9849998D03*
X39089999Y-10799999D03*
X41769699Y-10799999D03*
X41769699Y-8899997D03*
%TD*%
D29*
%TO.C,C3*%
X13020000Y-10330000D03*
X13020000Y-9370000D03*
%TD*%
D20*
%TO.C,R16*%
X22570000Y-28310000D03*
X22570000Y-27290000D03*
%TD*%
D42*
%TO.C,JP1*%
X14100000Y-17100000D03*
D43*
X14100000Y-18400000D03*
%TD*%
D25*
%TO.C,R11*%
X14970000Y-13200000D03*
X13950000Y-13200000D03*
%TD*%
D39*
%TO.C,R2*%
X18060000Y-23100000D03*
X19080000Y-23100000D03*
%TD*%
D44*
%TO.C,SW1*%
X31569999Y-5299999D03*
X23769999Y-5299999D03*
%TD*%
D17*
%TO.C,H2*%
X49900000Y-3000000D03*
%TD*%
D38*
%TO.C,D2*%
X44070000Y-17350000D03*
X44070000Y-14050000D03*
%TD*%
D39*
%TO.C,R18*%
X23460000Y-22600000D03*
X24480000Y-22600000D03*
%TD*%
D45*
%TO.C,USB1*%
X14369999Y-25707999D03*
X15019999Y-25707999D03*
X15669999Y-25707999D03*
X16319999Y-25707999D03*
X16969999Y-25707999D03*
D46*
X18095000Y-26230000D03*
D47*
X19294999Y-28899999D03*
X12044999Y-28899999D03*
D46*
X13245000Y-26230000D03*
%TD*%
D17*
%TO.C,H1*%
X2200000Y-3000000D03*
%TD*%
D48*
%TO.C,L1*%
X16969999Y-8899999D03*
X16969999Y-10399999D03*
X16969999Y-11899999D03*
X16969999Y-13399999D03*
X16969999Y-14899999D03*
X16969999Y-16399999D03*
X16969999Y-17899999D03*
X16969999Y-19399999D03*
X16969999Y-20899999D03*
X34969999Y-20899999D03*
X34969999Y-19399999D03*
X34969999Y-17899999D03*
X34969999Y-16399999D03*
X34969999Y-14899999D03*
X34969999Y-13399999D03*
X34969999Y-11899999D03*
X34969999Y-10399999D03*
X34969999Y-8899999D03*
%TD*%
D25*
%TO.C,R19*%
X22180000Y-22600000D03*
X21160000Y-22600000D03*
%TD*%
D39*
%TO.C,R13*%
X11750000Y-11900000D03*
X12770000Y-11900000D03*
%TD*%
M02*
