G04 #@! TF.GenerationSoftware,KiCad,Pcbnew,8.0.1*
G04 #@! TF.CreationDate,2024-04-13T18:18:23+03:00*
G04 #@! TF.ProjectId,mains-detector,6d61696e-732d-4646-9574-6563746f722e,rev?*
G04 #@! TF.SameCoordinates,Original*
G04 #@! TF.FileFunction,Copper,L4,Bot*
G04 #@! TF.FilePolarity,Positive*
%FSLAX46Y46*%
G04 Gerber Fmt 4.6, Leading zero omitted, Abs format (unit mm)*
G04 Created by KiCad (PCBNEW 8.0.1) date 2024-04-13 18:18:23*
%MOMM*%
%LPD*%
G01*
G04 APERTURE LIST*
G04 Aperture macros list*
%AMRoundRect*
0 Rectangle with rounded corners*
0 $1 Rounding radius*
0 $2 $3 $4 $5 $6 $7 $8 $9 X,Y pos of 4 corners*
0 Add a 4 corners polygon primitive as box body*
4,1,4,$2,$3,$4,$5,$6,$7,$8,$9,$2,$3,0*
0 Add four circle primitives for the rounded corners*
1,1,$1+$1,$2,$3*
1,1,$1+$1,$4,$5*
1,1,$1+$1,$6,$7*
1,1,$1+$1,$8,$9*
0 Add four rect primitives between the rounded corners*
20,1,$1+$1,$2,$3,$4,$5,0*
20,1,$1+$1,$4,$5,$6,$7,0*
20,1,$1+$1,$6,$7,$8,$9,0*
20,1,$1+$1,$8,$9,$2,$3,0*%
G04 Aperture macros list end*
G04 #@! TA.AperFunction,ComponentPad*
%ADD10R,1.700000X1.700000*%
G04 #@! TD*
G04 #@! TA.AperFunction,ComponentPad*
%ADD11O,1.700000X1.700000*%
G04 #@! TD*
G04 #@! TA.AperFunction,ComponentPad*
%ADD12R,1.000000X1.000000*%
G04 #@! TD*
G04 #@! TA.AperFunction,ComponentPad*
%ADD13O,1.000000X1.000000*%
G04 #@! TD*
G04 #@! TA.AperFunction,ComponentPad*
%ADD14C,1.300000*%
G04 #@! TD*
G04 #@! TA.AperFunction,ComponentPad*
%ADD15O,1.300000X1.800000*%
G04 #@! TD*
G04 #@! TA.AperFunction,SMDPad,CuDef*
%ADD16RoundRect,0.237500X-0.250000X-0.237500X0.250000X-0.237500X0.250000X0.237500X-0.250000X0.237500X0*%
G04 #@! TD*
G04 #@! TA.AperFunction,ViaPad*
%ADD17C,0.800000*%
G04 #@! TD*
G04 #@! TA.AperFunction,Conductor*
%ADD18C,0.250000*%
G04 #@! TD*
G04 #@! TA.AperFunction,Conductor*
%ADD19C,0.500000*%
G04 #@! TD*
G04 APERTURE END LIST*
D10*
X43700000Y-3700000D03*
D11*
X41160000Y-3700000D03*
X38620000Y-3700000D03*
D12*
X22584803Y-24800000D03*
D13*
X21314803Y-24800000D03*
X20044803Y-24800000D03*
X18774803Y-24800000D03*
D12*
X26794803Y-29300000D03*
X8794803Y-13800000D03*
D13*
X8794803Y-15070000D03*
X8794803Y-16340000D03*
D12*
X36874803Y-16600000D03*
D13*
X35604803Y-16600000D03*
D12*
X36814803Y-13400000D03*
D13*
X35544803Y-13400000D03*
D14*
X15919803Y-26230000D03*
D15*
X17119803Y-28900000D03*
X9869803Y-28900000D03*
D14*
X11069803Y-26230000D03*
D16*
X28182303Y-14800000D03*
X30007303Y-14800000D03*
X28182303Y-16500000D03*
X30007303Y-16500000D03*
D17*
X16594803Y-9000000D03*
X30694803Y-20800000D03*
X23094803Y-9000000D03*
X17894803Y-9000000D03*
X47400000Y-24800000D03*
X37494803Y-15000000D03*
X16794803Y-18000000D03*
X25494803Y-20800000D03*
X16794803Y-16700000D03*
X24194803Y-20800000D03*
X20494803Y-9000000D03*
X36194803Y-15000000D03*
X19194803Y-9000000D03*
X49100000Y-8800000D03*
X28094803Y-20800000D03*
X26794803Y-20800000D03*
X49100000Y-7500000D03*
X34794803Y-21400000D03*
X34894803Y-15000000D03*
X21794803Y-9000000D03*
X46500000Y-8800000D03*
X24494803Y-9000000D03*
X44800000Y-26100000D03*
X46500000Y-7500000D03*
X46100000Y-26100000D03*
X38494803Y-12600000D03*
X25794803Y-9000000D03*
X47400000Y-26100000D03*
X46100000Y-24800000D03*
X47800000Y-8800000D03*
X44800000Y-24800000D03*
X16794803Y-19300000D03*
X16794803Y-20600000D03*
X27094803Y-9000000D03*
X39794803Y-12600000D03*
X29394803Y-20800000D03*
X47800000Y-7500000D03*
X30924803Y-6000000D03*
X47700000Y-22600000D03*
X49800000Y-12600000D03*
X49100000Y-22600000D03*
X12694803Y-4850000D03*
X14044803Y-4850000D03*
X36594803Y-26600000D03*
X36594803Y-25300000D03*
X38094803Y-26600000D03*
X48400000Y-13900000D03*
X47700000Y-21300000D03*
X38094803Y-22600000D03*
X38094803Y-25300000D03*
X38094803Y-23900000D03*
X46300000Y-22600000D03*
X10924803Y-15200000D03*
X48400000Y-12600000D03*
X12694803Y-6450000D03*
X14044803Y-6450000D03*
X49100000Y-21300000D03*
X49800000Y-15100000D03*
X12694803Y-7950000D03*
X46300000Y-21300000D03*
X49800000Y-13900000D03*
X11394803Y-23700000D03*
X42694803Y-12400000D03*
X41294803Y-12400000D03*
X10294803Y-23700000D03*
X9094803Y-23700000D03*
X11394803Y-24800000D03*
X9094803Y-24800000D03*
X9094803Y-25900000D03*
X42694803Y-11100000D03*
X10294803Y-24800000D03*
X31294803Y-14800000D03*
X31294803Y-16500000D03*
X32800000Y-19400000D03*
X32800000Y-17900000D03*
X24294803Y-23800000D03*
X24094803Y-27000000D03*
X10794803Y-12800000D03*
X7494803Y-18400000D03*
X20524803Y-7200000D03*
X9524803Y-8200000D03*
X13894803Y-23900000D03*
X13494803Y-27500000D03*
D18*
X10169803Y-13425000D02*
X10794803Y-12800000D01*
X10169803Y-16131727D02*
X10169803Y-13425000D01*
X7901530Y-18400000D02*
X10169803Y-16131727D01*
X7494803Y-18400000D02*
X7901530Y-18400000D01*
D19*
X41294803Y-12400000D02*
X40594803Y-11700000D01*
X19892721Y-11700000D02*
X10294803Y-21297918D01*
X40594803Y-11700000D02*
X19892721Y-11700000D01*
X10294803Y-21297918D02*
X10294803Y-23700000D01*
D18*
X30007303Y-14800000D02*
X31294803Y-14800000D01*
X30007303Y-16500000D02*
X31294803Y-16500000D01*
X40200000Y-19400000D02*
X45000000Y-14600000D01*
X45000000Y-14600000D02*
X45000000Y-5000000D01*
X32800000Y-19400000D02*
X40200000Y-19400000D01*
X45000000Y-5000000D02*
X43700000Y-3700000D01*
X39300000Y-17900000D02*
X44000000Y-13200000D01*
X32800000Y-17900000D02*
X39300000Y-17900000D01*
X44000000Y-13200000D02*
X44000000Y-6540000D01*
X44000000Y-6540000D02*
X41160000Y-3700000D01*
X24094803Y-27000000D02*
X24094803Y-24000000D01*
X24094803Y-24000000D02*
X24294803Y-23800000D01*
X20494803Y-7200000D02*
X10594803Y-7200000D01*
X10594803Y-7200000D02*
X9594803Y-8200000D01*
X16194803Y-21600000D02*
X16820108Y-21600000D01*
X13894803Y-23900000D02*
X16194803Y-21600000D01*
X16820108Y-21600000D02*
X23620108Y-14800000D01*
X23620108Y-14800000D02*
X28182303Y-14800000D01*
X13494803Y-27500000D02*
X13594803Y-27500000D01*
X13594803Y-27500000D02*
X14294803Y-26800000D01*
X14294803Y-26000000D02*
X23794803Y-16500000D01*
X14294803Y-26800000D02*
X14294803Y-26000000D01*
X23794803Y-16500000D02*
X28182303Y-16500000D01*
G04 #@! TA.AperFunction,Conductor*
G36*
X52143039Y-19685D02*
G01*
X52188794Y-72489D01*
X52200000Y-124000D01*
X52200000Y-30676000D01*
X52180315Y-30743039D01*
X52127511Y-30788794D01*
X52076000Y-30800000D01*
X124000Y-30800000D01*
X56961Y-30780315D01*
X11206Y-30727511D01*
X0Y-30676000D01*
X0Y-28206287D01*
X849500Y-28206287D01*
X882754Y-28416243D01*
X931057Y-28564905D01*
X948444Y-28618414D01*
X1044951Y-28807820D01*
X1169890Y-28979786D01*
X1320213Y-29130109D01*
X1492179Y-29255048D01*
X1492181Y-29255049D01*
X1492184Y-29255051D01*
X1681588Y-29351557D01*
X1883757Y-29417246D01*
X2093713Y-29450500D01*
X2093714Y-29450500D01*
X2306286Y-29450500D01*
X2306287Y-29450500D01*
X2516243Y-29417246D01*
X2718412Y-29351557D01*
X2907816Y-29255051D01*
X2935283Y-29235095D01*
X3079786Y-29130109D01*
X3079788Y-29130106D01*
X3079792Y-29130104D01*
X3230104Y-28979792D01*
X3230106Y-28979788D01*
X3230109Y-28979786D01*
X3355048Y-28807820D01*
X3355047Y-28807820D01*
X3355051Y-28807816D01*
X3451557Y-28618412D01*
X3517246Y-28416243D01*
X3550500Y-28206287D01*
X3550500Y-27993713D01*
X3517246Y-27783757D01*
X3451557Y-27581588D01*
X3448710Y-27576000D01*
X8089303Y-27576000D01*
X8089304Y-27576009D01*
X8096284Y-27640935D01*
X8096286Y-27640947D01*
X8107491Y-27692453D01*
X8118447Y-27730654D01*
X8118449Y-27730658D01*
X8175126Y-27827568D01*
X8175128Y-27827571D01*
X8220884Y-27880376D01*
X8220894Y-27880387D01*
X8265610Y-27922548D01*
X8265612Y-27922549D01*
X8265616Y-27922553D01*
X8365692Y-27973439D01*
X8432731Y-27993124D01*
X8518803Y-28005500D01*
X8518806Y-28005500D01*
X8705167Y-28005500D01*
X8772206Y-28025185D01*
X8817961Y-28077989D01*
X8827905Y-28147147D01*
X8815651Y-28185796D01*
X8804057Y-28208548D01*
X8804054Y-28208555D01*
X8748120Y-28380706D01*
X8719803Y-28559493D01*
X8719803Y-28650000D01*
X9520854Y-28650000D01*
X9519803Y-28653922D01*
X9519803Y-29146078D01*
X9520854Y-29150000D01*
X8719803Y-29150000D01*
X8719803Y-29240506D01*
X8748120Y-29419293D01*
X8804054Y-29591444D01*
X8804055Y-29591447D01*
X8886237Y-29752734D01*
X8992626Y-29899169D01*
X9120633Y-30027176D01*
X9267068Y-30133565D01*
X9428355Y-30215747D01*
X9428358Y-30215748D01*
X9600502Y-30271680D01*
X9600515Y-30271683D01*
X9619803Y-30274738D01*
X9619803Y-29344975D01*
X9654898Y-29380070D01*
X9734708Y-29426148D01*
X9823725Y-29450000D01*
X9915881Y-29450000D01*
X10004898Y-29426148D01*
X10084708Y-29380070D01*
X10119803Y-29344975D01*
X10119803Y-30274737D01*
X10139090Y-30271683D01*
X10139103Y-30271680D01*
X10311247Y-30215748D01*
X10311250Y-30215747D01*
X10472537Y-30133565D01*
X10618972Y-30027176D01*
X10746979Y-29899169D01*
X10853368Y-29752734D01*
X10935550Y-29591447D01*
X10935551Y-29591444D01*
X10991485Y-29419293D01*
X11019803Y-29240506D01*
X15969803Y-29240506D01*
X15998120Y-29419293D01*
X16054054Y-29591444D01*
X16054055Y-29591447D01*
X16136237Y-29752734D01*
X16242626Y-29899169D01*
X16370633Y-30027176D01*
X16517068Y-30133565D01*
X16678355Y-30215747D01*
X16678358Y-30215748D01*
X16850502Y-30271680D01*
X16850515Y-30271683D01*
X16869803Y-30274738D01*
X16869803Y-29344975D01*
X16904898Y-29380070D01*
X16984708Y-29426148D01*
X17073725Y-29450000D01*
X17165881Y-29450000D01*
X17254898Y-29426148D01*
X17334708Y-29380070D01*
X17369803Y-29344975D01*
X17369803Y-30274737D01*
X17389090Y-30271683D01*
X17389103Y-30271680D01*
X17561247Y-30215748D01*
X17561250Y-30215747D01*
X17722537Y-30133565D01*
X17868972Y-30027176D01*
X17996979Y-29899169D01*
X18036439Y-29844856D01*
X25994303Y-29844856D01*
X25994305Y-29844882D01*
X25997216Y-29869987D01*
X25997218Y-29869991D01*
X26042596Y-29972764D01*
X26042597Y-29972765D01*
X26122038Y-30052206D01*
X26224812Y-30097585D01*
X26249938Y-30100500D01*
X27339667Y-30100499D01*
X27339682Y-30100497D01*
X27339685Y-30100497D01*
X27364790Y-30097586D01*
X27364791Y-30097585D01*
X27364794Y-30097585D01*
X27467568Y-30052206D01*
X27547009Y-29972765D01*
X27592388Y-29869991D01*
X27595303Y-29844865D01*
X27595302Y-28755136D01*
X27595300Y-28755117D01*
X27592389Y-28730012D01*
X27592388Y-28730010D01*
X27592388Y-28730009D01*
X27547009Y-28627235D01*
X27467568Y-28547794D01*
X27467566Y-28547793D01*
X27364795Y-28502415D01*
X27339668Y-28499500D01*
X26249946Y-28499500D01*
X26249920Y-28499502D01*
X26224815Y-28502413D01*
X26224811Y-28502415D01*
X26122038Y-28547793D01*
X26042597Y-28627234D01*
X25997218Y-28730006D01*
X25997218Y-28730008D01*
X25994303Y-28755131D01*
X25994303Y-29844856D01*
X18036439Y-29844856D01*
X18103368Y-29752734D01*
X18185550Y-29591447D01*
X18185551Y-29591444D01*
X18241485Y-29419293D01*
X18269803Y-29240506D01*
X18269803Y-29150000D01*
X17468752Y-29150000D01*
X17469803Y-29146078D01*
X17469803Y-28653922D01*
X17468752Y-28650000D01*
X18269803Y-28650000D01*
X18269803Y-28559493D01*
X18241485Y-28380706D01*
X18185551Y-28208555D01*
X18185550Y-28208552D01*
X18184396Y-28206287D01*
X48549500Y-28206287D01*
X48582754Y-28416243D01*
X48631057Y-28564905D01*
X48648444Y-28618414D01*
X48744951Y-28807820D01*
X48869890Y-28979786D01*
X49020213Y-29130109D01*
X49192179Y-29255048D01*
X49192181Y-29255049D01*
X49192184Y-29255051D01*
X49381588Y-29351557D01*
X49583757Y-29417246D01*
X49793713Y-29450500D01*
X49793714Y-29450500D01*
X50006286Y-29450500D01*
X50006287Y-29450500D01*
X50216243Y-29417246D01*
X50418412Y-29351557D01*
X50607816Y-29255051D01*
X50635283Y-29235095D01*
X50779786Y-29130109D01*
X50779788Y-29130106D01*
X50779792Y-29130104D01*
X50930104Y-28979792D01*
X50930106Y-28979788D01*
X50930109Y-28979786D01*
X51055048Y-28807820D01*
X51055047Y-28807820D01*
X51055051Y-28807816D01*
X51151557Y-28618412D01*
X51217246Y-28416243D01*
X51250500Y-28206287D01*
X51250500Y-27993713D01*
X51217246Y-27783757D01*
X51151557Y-27581588D01*
X51055051Y-27392184D01*
X51055049Y-27392181D01*
X51055048Y-27392179D01*
X50930109Y-27220213D01*
X50779786Y-27069890D01*
X50607820Y-26944951D01*
X50418414Y-26848444D01*
X50418413Y-26848443D01*
X50418412Y-26848443D01*
X50216243Y-26782754D01*
X50216241Y-26782753D01*
X50216240Y-26782753D01*
X50054957Y-26757208D01*
X50006287Y-26749500D01*
X49793713Y-26749500D01*
X49745042Y-26757208D01*
X49583760Y-26782753D01*
X49583757Y-26782754D01*
X49406927Y-26840210D01*
X49381585Y-26848444D01*
X49192179Y-26944951D01*
X49020213Y-27069890D01*
X48869890Y-27220213D01*
X48744951Y-27392179D01*
X48648444Y-27581585D01*
X48582753Y-27783760D01*
X48553584Y-27967927D01*
X48549500Y-27993713D01*
X48549500Y-28206287D01*
X18184396Y-28206287D01*
X18103368Y-28047265D01*
X17996979Y-27900830D01*
X17868972Y-27772823D01*
X17722537Y-27666434D01*
X17561250Y-27584252D01*
X17561244Y-27584250D01*
X17389098Y-27528318D01*
X17389088Y-27528315D01*
X17369803Y-27525260D01*
X17369803Y-28455025D01*
X17334708Y-28419930D01*
X17254898Y-28373852D01*
X17165881Y-28350000D01*
X17073725Y-28350000D01*
X16984708Y-28373852D01*
X16904898Y-28419930D01*
X16869803Y-28455025D01*
X16869803Y-27525260D01*
X16850517Y-27528315D01*
X16850507Y-27528318D01*
X16678361Y-27584250D01*
X16678355Y-27584252D01*
X16517068Y-27666434D01*
X16370633Y-27772823D01*
X16242626Y-27900830D01*
X16136237Y-28047265D01*
X16054055Y-28208552D01*
X16054054Y-28208555D01*
X15998120Y-28380706D01*
X15969803Y-28559493D01*
X15969803Y-28650000D01*
X16770854Y-28650000D01*
X16769803Y-28653922D01*
X16769803Y-29146078D01*
X16770854Y-29150000D01*
X15969803Y-29150000D01*
X15969803Y-29240506D01*
X11019803Y-29240506D01*
X11019803Y-29150000D01*
X10218752Y-29150000D01*
X10219803Y-29146078D01*
X10219803Y-28653922D01*
X10218752Y-28650000D01*
X11019803Y-28650000D01*
X11019803Y-28559493D01*
X10991485Y-28380706D01*
X10935551Y-28208555D01*
X10935548Y-28208548D01*
X10923955Y-28185796D01*
X10911058Y-28117127D01*
X10937334Y-28052386D01*
X10994440Y-28012129D01*
X11034439Y-28005500D01*
X12270793Y-28005500D01*
X12270803Y-28005500D01*
X12335744Y-27998518D01*
X12387255Y-27987312D01*
X12425461Y-27976354D01*
X12522374Y-27919675D01*
X12575178Y-27873920D01*
X12575185Y-27873912D01*
X12575190Y-27873908D01*
X12617351Y-27829192D01*
X12617356Y-27829187D01*
X12635268Y-27793959D01*
X12683198Y-27743125D01*
X12751005Y-27726272D01*
X12817159Y-27748754D01*
X12860657Y-27803432D01*
X12861741Y-27806191D01*
X12869986Y-27827932D01*
X12901728Y-27873918D01*
X12966620Y-27967929D01*
X13016512Y-28012129D01*
X13093953Y-28080736D01*
X13220489Y-28147147D01*
X13244578Y-28159790D01*
X13409747Y-28200500D01*
X13579859Y-28200500D01*
X13745028Y-28159790D01*
X13826315Y-28117127D01*
X13895652Y-28080736D01*
X13895653Y-28080734D01*
X13895655Y-28080734D01*
X14022986Y-27967929D01*
X14119621Y-27827930D01*
X14179943Y-27668872D01*
X14195829Y-27538037D01*
X14223449Y-27473863D01*
X14231232Y-27465318D01*
X14495992Y-27200559D01*
X15302794Y-27200559D01*
X15405007Y-27263847D01*
X15405011Y-27263849D01*
X15603739Y-27340836D01*
X15603744Y-27340837D01*
X15813242Y-27380000D01*
X16026364Y-27380000D01*
X16235861Y-27340837D01*
X16235866Y-27340836D01*
X16434594Y-27263849D01*
X16434601Y-27263846D01*
X16536809Y-27200560D01*
X16536809Y-27200559D01*
X16336250Y-27000000D01*
X23389158Y-27000000D01*
X23409662Y-27168869D01*
X23409663Y-27168874D01*
X23469985Y-27327931D01*
X23532278Y-27418177D01*
X23566620Y-27467929D01*
X23672308Y-27561560D01*
X23693953Y-27580736D01*
X23808676Y-27640947D01*
X23844578Y-27659790D01*
X24009747Y-27700500D01*
X24179859Y-27700500D01*
X24345028Y-27659790D01*
X24424495Y-27618081D01*
X24495652Y-27580736D01*
X24495653Y-27580734D01*
X24495655Y-27580734D01*
X24622986Y-27467929D01*
X24719621Y-27327930D01*
X24779943Y-27168872D01*
X24800448Y-27000000D01*
X24779943Y-26831128D01*
X24779054Y-26828785D01*
X24719620Y-26672068D01*
X24669874Y-26600000D01*
X35889158Y-26600000D01*
X35909662Y-26768869D01*
X35909663Y-26768874D01*
X35969985Y-26927931D01*
X36019732Y-27000000D01*
X36066620Y-27067929D01*
X36150294Y-27142057D01*
X36193953Y-27180736D01*
X36344576Y-27259789D01*
X36344578Y-27259790D01*
X36509747Y-27300500D01*
X36679859Y-27300500D01*
X36845028Y-27259790D01*
X36924495Y-27218081D01*
X36995652Y-27180736D01*
X36995653Y-27180734D01*
X36995655Y-27180734D01*
X37122986Y-27067929D01*
X37219621Y-26927930D01*
X37228861Y-26903564D01*
X37271039Y-26847862D01*
X37336636Y-26823805D01*
X37404826Y-26839032D01*
X37453960Y-26888707D01*
X37460745Y-26903565D01*
X37469985Y-26927931D01*
X37519732Y-27000000D01*
X37566620Y-27067929D01*
X37650294Y-27142057D01*
X37693953Y-27180736D01*
X37844576Y-27259789D01*
X37844578Y-27259790D01*
X38009747Y-27300500D01*
X38179859Y-27300500D01*
X38345028Y-27259790D01*
X38424495Y-27218081D01*
X38495652Y-27180736D01*
X38495653Y-27180734D01*
X38495655Y-27180734D01*
X38622986Y-27067929D01*
X38719621Y-26927930D01*
X38779943Y-26768872D01*
X38800448Y-26600000D01*
X38779943Y-26431128D01*
X38719621Y-26272070D01*
X38622986Y-26132071D01*
X38522234Y-26042812D01*
X38485110Y-25983627D01*
X38485877Y-25913761D01*
X38522233Y-25857187D01*
X38622986Y-25767929D01*
X38719621Y-25627930D01*
X38779943Y-25468872D01*
X38800448Y-25300000D01*
X38779943Y-25131128D01*
X38719621Y-24972070D01*
X38622986Y-24832071D01*
X38495655Y-24719266D01*
X38477612Y-24709796D01*
X38427400Y-24661212D01*
X38411425Y-24593194D01*
X38434760Y-24527336D01*
X38477612Y-24490203D01*
X38495655Y-24480734D01*
X38622986Y-24367929D01*
X38719621Y-24227930D01*
X38779943Y-24068872D01*
X38800448Y-23900000D01*
X38779943Y-23731128D01*
X38719621Y-23572070D01*
X38622986Y-23432071D01*
X38522234Y-23342812D01*
X38485110Y-23283627D01*
X38485877Y-23213761D01*
X38522233Y-23157187D01*
X38622986Y-23067929D01*
X38719621Y-22927930D01*
X38779943Y-22768872D01*
X38800448Y-22600000D01*
X45594355Y-22600000D01*
X45614859Y-22768869D01*
X45614860Y-22768874D01*
X45675182Y-22927931D01*
X45705899Y-22972431D01*
X45771817Y-23067929D01*
X45874674Y-23159052D01*
X45899150Y-23180736D01*
X46031122Y-23250000D01*
X46049775Y-23259790D01*
X46214944Y-23300500D01*
X46385056Y-23300500D01*
X46550225Y-23259790D01*
X46665097Y-23199500D01*
X46700849Y-23180736D01*
X46700850Y-23180734D01*
X46700852Y-23180734D01*
X46828183Y-23067929D01*
X46897951Y-22966853D01*
X46952233Y-22922864D01*
X47021681Y-22915204D01*
X47084246Y-22946307D01*
X47102047Y-22966851D01*
X47145680Y-23030064D01*
X47171816Y-23067928D01*
X47299150Y-23180736D01*
X47431122Y-23250000D01*
X47449775Y-23259790D01*
X47614944Y-23300500D01*
X47785056Y-23300500D01*
X47950225Y-23259790D01*
X48065097Y-23199500D01*
X48100849Y-23180736D01*
X48100850Y-23180734D01*
X48100852Y-23180734D01*
X48228183Y-23067929D01*
X48297951Y-22966853D01*
X48352233Y-22922864D01*
X48421681Y-22915204D01*
X48484246Y-22946307D01*
X48502047Y-22966851D01*
X48545680Y-23030064D01*
X48571816Y-23067928D01*
X48699150Y-23180736D01*
X48831122Y-23250000D01*
X48849775Y-23259790D01*
X49014944Y-23300500D01*
X49185056Y-23300500D01*
X49350225Y-23259790D01*
X49465097Y-23199500D01*
X49500849Y-23180736D01*
X49500850Y-23180734D01*
X49500852Y-23180734D01*
X49628183Y-23067929D01*
X49724818Y-22927930D01*
X49785140Y-22768872D01*
X49805645Y-22600000D01*
X49785140Y-22431128D01*
X49724818Y-22272070D01*
X49628183Y-22132071D01*
X49527431Y-22042812D01*
X49490307Y-21983627D01*
X49491074Y-21913761D01*
X49527430Y-21857187D01*
X49628183Y-21767929D01*
X49724818Y-21627930D01*
X49785140Y-21468872D01*
X49805645Y-21300000D01*
X49785140Y-21131128D01*
X49724818Y-20972070D01*
X49716420Y-20959904D01*
X49690476Y-20922318D01*
X49628183Y-20832071D01*
X49500852Y-20719266D01*
X49500849Y-20719263D01*
X49350226Y-20640210D01*
X49185056Y-20599500D01*
X49014944Y-20599500D01*
X48849773Y-20640210D01*
X48699150Y-20719263D01*
X48571818Y-20832070D01*
X48571817Y-20832071D01*
X48502048Y-20933146D01*
X48447767Y-20977136D01*
X48378318Y-20984795D01*
X48315753Y-20953691D01*
X48297952Y-20933148D01*
X48228183Y-20832071D01*
X48100852Y-20719266D01*
X48100849Y-20719263D01*
X47950226Y-20640210D01*
X47785056Y-20599500D01*
X47614944Y-20599500D01*
X47449773Y-20640210D01*
X47299150Y-20719263D01*
X47171818Y-20832070D01*
X47171817Y-20832071D01*
X47102048Y-20933146D01*
X47047767Y-20977136D01*
X46978318Y-20984795D01*
X46915753Y-20953691D01*
X46897952Y-20933148D01*
X46828183Y-20832071D01*
X46700852Y-20719266D01*
X46700849Y-20719263D01*
X46550226Y-20640210D01*
X46385056Y-20599500D01*
X46214944Y-20599500D01*
X46049773Y-20640210D01*
X45899150Y-20719263D01*
X45771816Y-20832072D01*
X45675182Y-20972068D01*
X45614860Y-21131125D01*
X45614859Y-21131130D01*
X45594355Y-21300000D01*
X45614859Y-21468869D01*
X45614860Y-21468874D01*
X45675182Y-21627931D01*
X45702049Y-21666854D01*
X45771817Y-21767929D01*
X45872566Y-21857185D01*
X45909693Y-21916374D01*
X45908925Y-21986239D01*
X45872566Y-22042814D01*
X45771818Y-22132070D01*
X45771816Y-22132072D01*
X45675182Y-22272068D01*
X45614860Y-22431125D01*
X45614859Y-22431130D01*
X45594355Y-22600000D01*
X38800448Y-22600000D01*
X38779943Y-22431128D01*
X38719621Y-22272070D01*
X38622986Y-22132071D01*
X38495655Y-22019266D01*
X38495652Y-22019263D01*
X38345029Y-21940210D01*
X38179859Y-21899500D01*
X38009747Y-21899500D01*
X37844576Y-21940210D01*
X37693953Y-22019263D01*
X37566619Y-22132072D01*
X37469985Y-22272068D01*
X37409663Y-22431125D01*
X37409662Y-22431130D01*
X37389158Y-22600000D01*
X37409662Y-22768869D01*
X37409663Y-22768874D01*
X37469985Y-22927931D01*
X37500702Y-22972431D01*
X37566620Y-23067929D01*
X37667369Y-23157185D01*
X37704496Y-23216374D01*
X37703728Y-23286239D01*
X37667369Y-23342814D01*
X37566620Y-23432071D01*
X37566619Y-23432072D01*
X37469985Y-23572068D01*
X37409663Y-23731125D01*
X37409662Y-23731130D01*
X37389158Y-23900000D01*
X37409662Y-24068869D01*
X37409663Y-24068874D01*
X37469985Y-24227931D01*
X37518170Y-24297738D01*
X37566620Y-24367929D01*
X37693951Y-24480734D01*
X37706997Y-24487581D01*
X37711994Y-24490204D01*
X37762206Y-24538789D01*
X37778180Y-24606808D01*
X37754844Y-24672666D01*
X37711994Y-24709796D01*
X37693952Y-24719265D01*
X37566619Y-24832072D01*
X37469986Y-24972067D01*
X37460745Y-24996435D01*
X37418566Y-25052137D01*
X37352969Y-25076194D01*
X37284778Y-25060967D01*
X37235646Y-25011290D01*
X37228861Y-24996435D01*
X37219621Y-24972070D01*
X37122986Y-24832071D01*
X36995655Y-24719266D01*
X36995652Y-24719263D01*
X36845029Y-24640210D01*
X36679859Y-24599500D01*
X36509747Y-24599500D01*
X36344576Y-24640210D01*
X36193953Y-24719263D01*
X36066619Y-24832072D01*
X35969985Y-24972068D01*
X35909663Y-25131125D01*
X35909662Y-25131130D01*
X35889158Y-25300000D01*
X35909662Y-25468869D01*
X35909663Y-25468874D01*
X35969985Y-25627931D01*
X36013592Y-25691105D01*
X36066620Y-25767929D01*
X36167369Y-25857185D01*
X36204496Y-25916374D01*
X36203728Y-25986239D01*
X36167369Y-26042814D01*
X36108572Y-26094905D01*
X36066619Y-26132072D01*
X35969985Y-26272068D01*
X35909663Y-26431125D01*
X35909662Y-26431130D01*
X35889158Y-26600000D01*
X24669874Y-26600000D01*
X24663026Y-26590079D01*
X24622986Y-26532071D01*
X24598152Y-26510070D01*
X24562076Y-26478109D01*
X24524949Y-26418920D01*
X24520303Y-26385294D01*
X24520303Y-24547726D01*
X24539988Y-24480687D01*
X24586675Y-24437931D01*
X24695655Y-24380734D01*
X24822986Y-24267929D01*
X24919621Y-24127930D01*
X24979943Y-23968872D01*
X25000448Y-23800000D01*
X24979943Y-23631128D01*
X24919621Y-23472070D01*
X24892011Y-23432071D01*
X24885279Y-23422318D01*
X24822986Y-23332071D01*
X24700999Y-23224000D01*
X24695652Y-23219263D01*
X24545029Y-23140210D01*
X24379859Y-23099500D01*
X24209747Y-23099500D01*
X24044576Y-23140210D01*
X23893953Y-23219263D01*
X23766619Y-23332072D01*
X23669985Y-23472068D01*
X23609663Y-23631125D01*
X23609662Y-23631130D01*
X23589158Y-23800000D01*
X23609662Y-23968870D01*
X23609663Y-23968875D01*
X23647588Y-24068872D01*
X23656049Y-24091184D01*
X23661245Y-24104883D01*
X23669303Y-24148854D01*
X23669303Y-26385294D01*
X23649618Y-26452333D01*
X23627530Y-26478109D01*
X23566621Y-26532069D01*
X23469985Y-26672068D01*
X23409663Y-26831125D01*
X23409662Y-26831130D01*
X23389158Y-27000000D01*
X16336250Y-27000000D01*
X15919804Y-26583553D01*
X15919803Y-26583553D01*
X15302794Y-27200559D01*
X14495992Y-27200559D01*
X14635287Y-27061264D01*
X14691306Y-26964237D01*
X14715161Y-26875207D01*
X14751525Y-26815549D01*
X14814372Y-26785020D01*
X14883747Y-26793315D01*
X14933313Y-26834240D01*
X14934407Y-26833414D01*
X14946639Y-26849610D01*
X15569803Y-26226446D01*
X15569803Y-26276078D01*
X15593655Y-26365095D01*
X15639733Y-26444905D01*
X15704898Y-26510070D01*
X15784708Y-26556148D01*
X15873725Y-26580000D01*
X15965881Y-26580000D01*
X16054898Y-26556148D01*
X16134708Y-26510070D01*
X16199873Y-26444905D01*
X16245951Y-26365095D01*
X16269803Y-26276078D01*
X16269803Y-26230000D01*
X16273356Y-26230000D01*
X16892965Y-26849609D01*
X16892966Y-26849609D01*
X16901743Y-26837988D01*
X16901745Y-26837985D01*
X16996736Y-26647216D01*
X16996744Y-26647196D01*
X17055064Y-26442219D01*
X17055065Y-26442216D01*
X17074730Y-26230000D01*
X17074730Y-26229999D01*
X17055065Y-26017783D01*
X17055064Y-26017780D01*
X16996744Y-25812803D01*
X16996736Y-25812783D01*
X16901745Y-25622014D01*
X16901740Y-25622006D01*
X16892966Y-25610389D01*
X16273356Y-26229999D01*
X16273356Y-26230000D01*
X16269803Y-26230000D01*
X16269803Y-26183922D01*
X16245951Y-26094905D01*
X16199873Y-26015095D01*
X16134708Y-25949930D01*
X16054898Y-25903852D01*
X15965881Y-25880000D01*
X15916249Y-25880000D01*
X16536810Y-25259439D01*
X16434596Y-25196151D01*
X16434592Y-25196149D01*
X16235866Y-25119163D01*
X16235861Y-25119162D01*
X16080834Y-25090182D01*
X16018553Y-25058514D01*
X16013574Y-25050000D01*
X17805643Y-25050000D01*
X17846455Y-25184541D01*
X17939306Y-25358253D01*
X17939310Y-25358260D01*
X18064274Y-25510528D01*
X18216542Y-25635491D01*
X18390268Y-25728349D01*
X18524803Y-25769159D01*
X18524803Y-25050000D01*
X17805643Y-25050000D01*
X16013574Y-25050000D01*
X15983280Y-24998201D01*
X15986214Y-24928393D01*
X16015936Y-24880614D01*
X16053763Y-24842787D01*
X18449803Y-24842787D01*
X18471952Y-24925445D01*
X18514739Y-24999554D01*
X18575249Y-25060064D01*
X18649358Y-25102851D01*
X18732016Y-25125000D01*
X18817590Y-25125000D01*
X18900248Y-25102851D01*
X18974357Y-25060064D01*
X19024803Y-25009618D01*
X19024803Y-25769159D01*
X19159337Y-25728349D01*
X19333063Y-25635491D01*
X19485323Y-25510534D01*
X19487042Y-25508816D01*
X19488165Y-25508202D01*
X19490040Y-25506664D01*
X19490331Y-25507019D01*
X19548363Y-25475326D01*
X19618055Y-25480305D01*
X19640703Y-25491496D01*
X19692123Y-25523805D01*
X19695281Y-25525789D01*
X19855577Y-25581879D01*
X19865548Y-25585368D01*
X19865553Y-25585369D01*
X20044799Y-25605565D01*
X20044803Y-25605565D01*
X20044807Y-25605565D01*
X20224052Y-25585369D01*
X20224055Y-25585368D01*
X20224058Y-25585368D01*
X20394325Y-25525789D01*
X20547065Y-25429816D01*
X20592122Y-25384759D01*
X20653445Y-25351274D01*
X20723137Y-25356258D01*
X20767484Y-25384759D01*
X20812541Y-25429816D01*
X20880894Y-25472765D01*
X20940660Y-25510319D01*
X20965281Y-25525789D01*
X21125577Y-25581879D01*
X21135548Y-25585368D01*
X21135553Y-25585369D01*
X21314799Y-25605565D01*
X21314803Y-25605565D01*
X21314807Y-25605565D01*
X21494052Y-25585369D01*
X21494055Y-25585368D01*
X21494058Y-25585368D01*
X21664325Y-25525789D01*
X21692315Y-25508202D01*
X21716497Y-25493007D01*
X21783734Y-25474006D01*
X21850569Y-25494373D01*
X21870151Y-25510319D01*
X21912038Y-25552206D01*
X22014812Y-25597585D01*
X22039938Y-25600500D01*
X23129667Y-25600499D01*
X23129682Y-25600497D01*
X23129685Y-25600497D01*
X23154790Y-25597586D01*
X23154791Y-25597585D01*
X23154794Y-25597585D01*
X23257568Y-25552206D01*
X23337009Y-25472765D01*
X23382388Y-25369991D01*
X23385303Y-25344865D01*
X23385302Y-24255136D01*
X23384559Y-24248725D01*
X23382389Y-24230012D01*
X23382388Y-24230010D01*
X23382388Y-24230009D01*
X23337009Y-24127235D01*
X23257568Y-24047794D01*
X23257566Y-24047793D01*
X23154795Y-24002415D01*
X23129668Y-23999500D01*
X22039946Y-23999500D01*
X22039920Y-23999502D01*
X22014815Y-24002413D01*
X22014811Y-24002415D01*
X21912038Y-24047793D01*
X21912036Y-24047794D01*
X21870150Y-24089681D01*
X21808827Y-24123165D01*
X21739135Y-24118180D01*
X21716499Y-24106993D01*
X21664324Y-24074209D01*
X21494065Y-24014633D01*
X21494052Y-24014630D01*
X21314807Y-23994435D01*
X21314799Y-23994435D01*
X21135553Y-24014630D01*
X21135548Y-24014631D01*
X20965279Y-24074211D01*
X20812540Y-24170184D01*
X20767483Y-24215241D01*
X20706160Y-24248725D01*
X20636468Y-24243740D01*
X20592123Y-24215241D01*
X20547066Y-24170185D01*
X20547065Y-24170184D01*
X20394326Y-24074211D01*
X20224057Y-24014631D01*
X20224052Y-24014630D01*
X20044807Y-23994435D01*
X20044799Y-23994435D01*
X19865553Y-24014630D01*
X19865540Y-24014633D01*
X19695285Y-24074208D01*
X19640702Y-24108505D01*
X19573465Y-24127504D01*
X19506630Y-24107135D01*
X19487042Y-24091184D01*
X19485323Y-24089465D01*
X19333063Y-23964507D01*
X19333056Y-23964503D01*
X19159344Y-23871652D01*
X19024803Y-23830839D01*
X19024803Y-24590382D01*
X18974357Y-24539936D01*
X18900248Y-24497149D01*
X18817590Y-24475000D01*
X18732016Y-24475000D01*
X18649358Y-24497149D01*
X18575249Y-24539936D01*
X18514739Y-24600446D01*
X18471952Y-24674555D01*
X18449803Y-24757213D01*
X18449803Y-24842787D01*
X16053763Y-24842787D01*
X16346551Y-24549999D01*
X17805642Y-24549999D01*
X17805643Y-24550000D01*
X18524803Y-24550000D01*
X18524803Y-23830839D01*
X18524802Y-23830839D01*
X18390261Y-23871652D01*
X18216549Y-23964503D01*
X18216542Y-23964507D01*
X18064274Y-24089471D01*
X17939310Y-24241739D01*
X17939306Y-24241746D01*
X17846455Y-24415458D01*
X17805642Y-24549999D01*
X16346551Y-24549999D01*
X23934732Y-16961819D01*
X23996055Y-16928334D01*
X24022413Y-16925500D01*
X27343725Y-16925500D01*
X27410764Y-16945185D01*
X27456519Y-16997989D01*
X27458898Y-17003582D01*
X27458940Y-17003657D01*
X27548302Y-17121500D01*
X27666142Y-17210860D01*
X27666145Y-17210862D01*
X27803726Y-17265117D01*
X27861365Y-17272039D01*
X27890184Y-17275500D01*
X27890185Y-17275500D01*
X28474422Y-17275500D01*
X28497212Y-17272763D01*
X28560880Y-17265117D01*
X28698461Y-17210862D01*
X28816303Y-17121500D01*
X28905665Y-17003658D01*
X28959920Y-16866077D01*
X28970303Y-16779618D01*
X29219303Y-16779618D01*
X29229685Y-16866074D01*
X29229685Y-16866075D01*
X29229686Y-16866077D01*
X29281705Y-16997989D01*
X29283942Y-17003660D01*
X29373302Y-17121500D01*
X29491142Y-17210860D01*
X29491145Y-17210862D01*
X29628726Y-17265117D01*
X29686365Y-17272039D01*
X29715184Y-17275500D01*
X29715185Y-17275500D01*
X30299422Y-17275500D01*
X30322212Y-17272763D01*
X30385880Y-17265117D01*
X30523461Y-17210862D01*
X30641303Y-17121500D01*
X30680459Y-17069864D01*
X30736649Y-17028342D01*
X30806370Y-17023789D01*
X30861486Y-17051973D01*
X30877082Y-17065789D01*
X30893953Y-17080736D01*
X31044576Y-17159789D01*
X31044578Y-17159790D01*
X31209747Y-17200500D01*
X31379859Y-17200500D01*
X31545028Y-17159790D01*
X31643291Y-17108217D01*
X31695652Y-17080736D01*
X31695653Y-17080734D01*
X31695655Y-17080734D01*
X31822986Y-16967929D01*
X31919621Y-16827930D01*
X31979943Y-16668872D01*
X32000448Y-16500000D01*
X31979943Y-16331128D01*
X31919621Y-16172070D01*
X31911807Y-16160750D01*
X31853107Y-16075709D01*
X31822986Y-16032071D01*
X31728117Y-15948025D01*
X31695652Y-15919263D01*
X31545029Y-15840210D01*
X31379859Y-15799500D01*
X31209747Y-15799500D01*
X31044576Y-15840210D01*
X30893953Y-15919264D01*
X30861489Y-15948025D01*
X30798255Y-15977746D01*
X30728992Y-15968562D01*
X30680458Y-15930133D01*
X30641304Y-15878500D01*
X30523463Y-15789139D01*
X30523461Y-15789138D01*
X30463148Y-15765353D01*
X30408006Y-15722449D01*
X30384813Y-15656541D01*
X30400934Y-15588556D01*
X30451250Y-15540080D01*
X30463140Y-15534649D01*
X30523461Y-15510862D01*
X30641303Y-15421500D01*
X30680459Y-15369864D01*
X30736649Y-15328342D01*
X30806370Y-15323789D01*
X30861486Y-15351973D01*
X30888659Y-15376046D01*
X30893953Y-15380736D01*
X31044576Y-15459789D01*
X31044578Y-15459790D01*
X31209747Y-15500500D01*
X31379859Y-15500500D01*
X31545028Y-15459790D01*
X31673327Y-15392453D01*
X31695652Y-15380736D01*
X31695653Y-15380734D01*
X31695655Y-15380734D01*
X31822986Y-15267929D01*
X31919621Y-15127930D01*
X31979943Y-14968872D01*
X32000448Y-14800000D01*
X31979943Y-14631128D01*
X31975444Y-14619266D01*
X31925448Y-14487434D01*
X31919621Y-14472070D01*
X31915689Y-14466374D01*
X31857606Y-14382227D01*
X31822986Y-14332071D01*
X31713969Y-14235491D01*
X31695652Y-14219263D01*
X31545029Y-14140210D01*
X31379859Y-14099500D01*
X31209747Y-14099500D01*
X31044576Y-14140210D01*
X30893953Y-14219264D01*
X30861489Y-14248025D01*
X30798255Y-14277746D01*
X30728992Y-14268562D01*
X30680458Y-14230133D01*
X30641304Y-14178500D01*
X30523463Y-14089139D01*
X30523461Y-14089138D01*
X30385880Y-14034883D01*
X30385879Y-14034882D01*
X30385877Y-14034882D01*
X30299422Y-14024500D01*
X30299421Y-14024500D01*
X29715185Y-14024500D01*
X29715184Y-14024500D01*
X29628728Y-14034882D01*
X29628727Y-14034882D01*
X29491142Y-14089139D01*
X29373302Y-14178499D01*
X29283942Y-14296339D01*
X29229685Y-14433924D01*
X29229685Y-14433925D01*
X29219303Y-14520381D01*
X29219303Y-15079618D01*
X29229685Y-15166074D01*
X29229685Y-15166075D01*
X29248887Y-15214768D01*
X29281705Y-15297989D01*
X29283942Y-15303660D01*
X29373302Y-15421500D01*
X29491142Y-15510860D01*
X29491145Y-15510862D01*
X29521597Y-15522870D01*
X29551456Y-15534646D01*
X29606599Y-15577552D01*
X29629792Y-15643460D01*
X29613671Y-15711444D01*
X29563354Y-15759920D01*
X29551456Y-15765354D01*
X29491146Y-15789137D01*
X29491142Y-15789139D01*
X29373302Y-15878499D01*
X29283942Y-15996339D01*
X29229685Y-16133924D01*
X29229685Y-16133925D01*
X29219303Y-16220381D01*
X29219303Y-16779618D01*
X28970303Y-16779618D01*
X28970303Y-16220382D01*
X28959920Y-16133923D01*
X28905665Y-15996342D01*
X28902226Y-15991807D01*
X28816303Y-15878499D01*
X28698463Y-15789139D01*
X28698461Y-15789138D01*
X28638148Y-15765353D01*
X28583006Y-15722449D01*
X28559813Y-15656541D01*
X28575934Y-15588556D01*
X28626250Y-15540080D01*
X28638140Y-15534649D01*
X28698461Y-15510862D01*
X28816303Y-15421500D01*
X28905665Y-15303658D01*
X28959920Y-15166077D01*
X28970303Y-15079618D01*
X28970303Y-14520382D01*
X28959920Y-14433923D01*
X28905665Y-14296342D01*
X28905663Y-14296339D01*
X28816303Y-14178499D01*
X28698463Y-14089139D01*
X28698461Y-14089138D01*
X28560880Y-14034883D01*
X28560879Y-14034882D01*
X28560877Y-14034882D01*
X28474422Y-14024500D01*
X28474421Y-14024500D01*
X27890185Y-14024500D01*
X27890184Y-14024500D01*
X27803728Y-14034882D01*
X27803727Y-14034882D01*
X27666142Y-14089139D01*
X27548302Y-14178499D01*
X27458940Y-14296342D01*
X27454783Y-14303736D01*
X27453579Y-14303059D01*
X27416174Y-14351134D01*
X27350266Y-14374327D01*
X27343725Y-14374500D01*
X23564088Y-14374500D01*
X23535251Y-14382226D01*
X23535252Y-14382227D01*
X23455869Y-14403497D01*
X23455868Y-14403498D01*
X23358848Y-14459513D01*
X23358842Y-14459517D01*
X16680179Y-21138181D01*
X16618856Y-21171666D01*
X16592498Y-21174500D01*
X16250821Y-21174500D01*
X16138784Y-21174500D01*
X16030566Y-21203497D01*
X16030564Y-21203498D01*
X16030563Y-21203498D01*
X15933543Y-21259513D01*
X15933537Y-21259517D01*
X14029873Y-23163181D01*
X13968550Y-23196666D01*
X13942192Y-23199500D01*
X13809747Y-23199500D01*
X13644576Y-23240210D01*
X13493953Y-23319263D01*
X13366619Y-23432072D01*
X13269985Y-23572068D01*
X13209663Y-23731125D01*
X13209662Y-23731130D01*
X13189158Y-23900000D01*
X13209662Y-24068869D01*
X13209663Y-24068874D01*
X13269985Y-24227931D01*
X13318170Y-24297738D01*
X13366620Y-24367929D01*
X13445634Y-24437929D01*
X13493953Y-24480736D01*
X13621592Y-24547726D01*
X13644578Y-24559790D01*
X13809747Y-24600500D01*
X13979859Y-24600500D01*
X14145028Y-24559790D01*
X14224495Y-24518081D01*
X14295652Y-24480736D01*
X14295653Y-24480734D01*
X14295655Y-24480734D01*
X14422986Y-24367929D01*
X14519621Y-24227930D01*
X14579943Y-24068872D01*
X14600448Y-23900000D01*
X14596475Y-23867285D01*
X14607934Y-23798365D01*
X14631887Y-23764662D01*
X16334732Y-22061819D01*
X16396055Y-22028334D01*
X16422413Y-22025500D01*
X16876124Y-22025500D01*
X16876126Y-22025500D01*
X16984345Y-21996503D01*
X17081371Y-21940485D01*
X23760036Y-15261818D01*
X23821359Y-15228334D01*
X23847717Y-15225500D01*
X27343725Y-15225500D01*
X27410764Y-15245185D01*
X27456519Y-15297989D01*
X27458898Y-15303582D01*
X27458940Y-15303657D01*
X27548302Y-15421500D01*
X27666142Y-15510860D01*
X27666145Y-15510862D01*
X27696597Y-15522870D01*
X27726456Y-15534646D01*
X27781599Y-15577552D01*
X27804792Y-15643460D01*
X27788671Y-15711444D01*
X27738354Y-15759920D01*
X27726456Y-15765354D01*
X27666146Y-15789137D01*
X27666142Y-15789139D01*
X27548302Y-15878499D01*
X27458940Y-15996342D01*
X27454783Y-16003736D01*
X27453579Y-16003059D01*
X27416174Y-16051134D01*
X27350266Y-16074327D01*
X27343725Y-16074500D01*
X23738785Y-16074500D01*
X23630566Y-16103497D01*
X23630563Y-16103498D01*
X23533543Y-16159513D01*
X23533537Y-16159517D01*
X13954320Y-25738734D01*
X13954316Y-25738740D01*
X13898301Y-25835760D01*
X13898300Y-25835763D01*
X13869303Y-25943982D01*
X13869303Y-26572389D01*
X13849618Y-26639428D01*
X13832984Y-26660071D01*
X13720524Y-26772530D01*
X13659201Y-26806014D01*
X13603170Y-26805245D01*
X13579861Y-26799500D01*
X13579859Y-26799500D01*
X13409747Y-26799500D01*
X13244576Y-26840210D01*
X13093953Y-26919263D01*
X12966621Y-27032070D01*
X12966620Y-27032071D01*
X12940516Y-27069890D01*
X12926353Y-27090408D01*
X12872069Y-27134398D01*
X12802621Y-27142057D01*
X12740056Y-27110953D01*
X12704239Y-27050962D01*
X12700303Y-27019967D01*
X12700303Y-23224010D01*
X12700303Y-23224000D01*
X12693321Y-23159059D01*
X12682115Y-23107548D01*
X12671157Y-23069342D01*
X12614478Y-22972429D01*
X12568723Y-22919625D01*
X12568721Y-22919623D01*
X12568711Y-22919612D01*
X12523995Y-22877451D01*
X12523992Y-22877449D01*
X12523990Y-22877447D01*
X12423914Y-22826561D01*
X12423913Y-22826560D01*
X12423912Y-22826560D01*
X12356881Y-22806877D01*
X12356875Y-22806876D01*
X12270803Y-22794500D01*
X12270800Y-22794500D01*
X10969303Y-22794500D01*
X10902264Y-22774815D01*
X10856509Y-22722011D01*
X10845303Y-22670500D01*
X10845303Y-21577305D01*
X10864988Y-21510266D01*
X10881622Y-21489624D01*
X18721246Y-13650000D01*
X34575643Y-13650000D01*
X34616455Y-13784541D01*
X34709306Y-13958253D01*
X34709310Y-13958260D01*
X34834274Y-14110528D01*
X34986542Y-14235491D01*
X35160268Y-14328349D01*
X35294803Y-14369159D01*
X35294803Y-13650000D01*
X34575643Y-13650000D01*
X18721246Y-13650000D01*
X20084427Y-12286819D01*
X20145750Y-12253334D01*
X20172108Y-12250500D01*
X35078974Y-12250500D01*
X35146013Y-12270185D01*
X35191768Y-12322989D01*
X35201712Y-12392147D01*
X35172687Y-12455703D01*
X35137427Y-12483858D01*
X34986549Y-12564503D01*
X34986542Y-12564507D01*
X34834274Y-12689471D01*
X34709310Y-12841739D01*
X34709306Y-12841746D01*
X34616455Y-13015458D01*
X34575642Y-13149999D01*
X34575643Y-13150000D01*
X35335185Y-13150000D01*
X35284739Y-13200446D01*
X35241952Y-13274555D01*
X35219803Y-13357213D01*
X35219803Y-13442787D01*
X35241952Y-13525445D01*
X35284739Y-13599554D01*
X35345249Y-13660064D01*
X35419358Y-13702851D01*
X35502016Y-13725000D01*
X35587590Y-13725000D01*
X35670248Y-13702851D01*
X35744357Y-13660064D01*
X35794803Y-13609618D01*
X35794803Y-14369159D01*
X35929337Y-14328349D01*
X36103057Y-14235495D01*
X36123711Y-14218545D01*
X36188021Y-14191232D01*
X36234945Y-14198318D01*
X36235811Y-14195136D01*
X36244807Y-14197583D01*
X36244812Y-14197585D01*
X36269938Y-14200500D01*
X37359667Y-14200499D01*
X37359682Y-14200497D01*
X37359685Y-14200497D01*
X37384790Y-14197586D01*
X37384791Y-14197585D01*
X37384794Y-14197585D01*
X37487568Y-14152206D01*
X37567009Y-14072765D01*
X37612388Y-13969991D01*
X37615303Y-13944865D01*
X37615302Y-12855136D01*
X37615300Y-12855117D01*
X37612389Y-12830012D01*
X37612388Y-12830010D01*
X37612388Y-12830009D01*
X37567009Y-12727235D01*
X37487568Y-12647794D01*
X37484615Y-12646490D01*
X37384795Y-12602415D01*
X37359668Y-12599500D01*
X36269946Y-12599500D01*
X36269922Y-12599502D01*
X36244813Y-12602414D01*
X36235808Y-12604864D01*
X36234853Y-12601355D01*
X36183082Y-12608091D01*
X36123711Y-12581454D01*
X36103057Y-12564504D01*
X36103056Y-12564503D01*
X35952179Y-12483858D01*
X35902335Y-12434896D01*
X35886874Y-12366759D01*
X35910705Y-12301079D01*
X35966263Y-12258710D01*
X36010632Y-12250500D01*
X40065303Y-12250500D01*
X40132342Y-12270185D01*
X40178097Y-12322989D01*
X40189303Y-12374500D01*
X40189303Y-12546008D01*
X40189530Y-12553509D01*
X40189860Y-12564465D01*
X40190764Y-12579403D01*
X40191616Y-12588776D01*
X40191616Y-12611223D01*
X40190763Y-12620598D01*
X40189860Y-12635531D01*
X40189573Y-12645048D01*
X40189303Y-12653991D01*
X40189303Y-15276000D01*
X40189304Y-15276009D01*
X40196284Y-15340935D01*
X40196286Y-15340947D01*
X40207491Y-15392453D01*
X40218447Y-15430654D01*
X40218449Y-15430658D01*
X40265354Y-15510860D01*
X40275128Y-15527571D01*
X40319393Y-15578656D01*
X40320884Y-15580376D01*
X40320894Y-15580387D01*
X40365610Y-15622548D01*
X40365612Y-15622549D01*
X40365616Y-15622553D01*
X40465692Y-15673439D01*
X40532731Y-15693124D01*
X40613118Y-15704682D01*
X40676673Y-15733708D01*
X40714446Y-15792486D01*
X40714446Y-15862356D01*
X40683150Y-15915101D01*
X39160071Y-17438181D01*
X39098748Y-17471666D01*
X39072390Y-17474500D01*
X37724062Y-17474500D01*
X37657023Y-17454815D01*
X37611268Y-17402011D01*
X37601324Y-17332853D01*
X37621763Y-17280422D01*
X37627004Y-17272769D01*
X37627009Y-17272765D01*
X37672388Y-17169991D01*
X37675303Y-17144865D01*
X37675302Y-16055136D01*
X37674838Y-16051134D01*
X37672389Y-16030012D01*
X37672388Y-16030010D01*
X37672388Y-16030009D01*
X37627009Y-15927235D01*
X37547568Y-15847794D01*
X37524791Y-15837737D01*
X37444795Y-15802415D01*
X37419668Y-15799500D01*
X36329946Y-15799500D01*
X36329920Y-15799502D01*
X36304815Y-15802413D01*
X36304811Y-15802415D01*
X36202038Y-15847793D01*
X36202036Y-15847794D01*
X36160150Y-15889681D01*
X36098827Y-15923165D01*
X36029135Y-15918180D01*
X36006499Y-15906993D01*
X35954324Y-15874209D01*
X35784065Y-15814633D01*
X35784052Y-15814630D01*
X35604807Y-15794435D01*
X35604799Y-15794435D01*
X35425553Y-15814630D01*
X35425548Y-15814631D01*
X35255279Y-15874211D01*
X35102540Y-15970184D01*
X34974987Y-16097737D01*
X34879014Y-16250476D01*
X34819434Y-16420745D01*
X34819433Y-16420750D01*
X34799238Y-16599996D01*
X34799238Y-16600003D01*
X34819433Y-16779249D01*
X34819434Y-16779254D01*
X34879014Y-16949523D01*
X34945844Y-17055882D01*
X34974987Y-17102262D01*
X35102541Y-17229816D01*
X35127512Y-17245506D01*
X35173803Y-17297841D01*
X35184451Y-17366894D01*
X35156076Y-17430743D01*
X35097687Y-17469115D01*
X35061540Y-17474500D01*
X33421580Y-17474500D01*
X33354541Y-17454815D01*
X33333799Y-17437042D01*
X33333797Y-17437045D01*
X33333627Y-17436894D01*
X33328767Y-17432730D01*
X33328185Y-17432073D01*
X33292546Y-17400500D01*
X33200852Y-17319266D01*
X33200849Y-17319263D01*
X33050226Y-17240210D01*
X32885056Y-17199500D01*
X32714944Y-17199500D01*
X32549773Y-17240210D01*
X32399150Y-17319263D01*
X32271816Y-17432072D01*
X32175182Y-17572068D01*
X32114860Y-17731125D01*
X32114859Y-17731130D01*
X32094355Y-17900000D01*
X32114859Y-18068869D01*
X32114860Y-18068874D01*
X32175182Y-18227931D01*
X32222513Y-18296501D01*
X32271817Y-18367929D01*
X32377505Y-18461560D01*
X32399150Y-18480736D01*
X32512456Y-18540204D01*
X32562669Y-18588789D01*
X32578643Y-18656808D01*
X32555308Y-18722665D01*
X32512456Y-18759796D01*
X32399150Y-18819263D01*
X32271816Y-18932072D01*
X32175182Y-19072068D01*
X32114860Y-19231125D01*
X32114859Y-19231130D01*
X32094355Y-19400000D01*
X32114859Y-19568869D01*
X32114860Y-19568874D01*
X32175182Y-19727931D01*
X32222513Y-19796501D01*
X32271817Y-19867929D01*
X32377505Y-19961560D01*
X32399150Y-19980736D01*
X32549773Y-20059789D01*
X32549775Y-20059790D01*
X32714944Y-20100500D01*
X32885056Y-20100500D01*
X33050225Y-20059790D01*
X33129692Y-20018081D01*
X33200849Y-19980736D01*
X33200850Y-19980734D01*
X33200852Y-19980734D01*
X33328183Y-19867929D01*
X33328185Y-19867925D01*
X33328767Y-19867270D01*
X33329312Y-19866927D01*
X33333797Y-19862955D01*
X33334457Y-19863700D01*
X33387958Y-19830145D01*
X33421580Y-19825500D01*
X40256016Y-19825500D01*
X40256018Y-19825500D01*
X40364237Y-19796503D01*
X40461263Y-19740485D01*
X45340485Y-14861263D01*
X45396503Y-14764237D01*
X45425500Y-14656018D01*
X45425500Y-14543982D01*
X45425500Y-13900000D01*
X47694355Y-13900000D01*
X47714859Y-14068869D01*
X47714860Y-14068874D01*
X47775182Y-14227931D01*
X47822404Y-14296342D01*
X47871817Y-14367929D01*
X47952523Y-14439428D01*
X47999150Y-14480736D01*
X48135325Y-14552206D01*
X48149775Y-14559790D01*
X48314944Y-14600500D01*
X48485056Y-14600500D01*
X48650225Y-14559790D01*
X48765097Y-14499500D01*
X48800849Y-14480736D01*
X48800850Y-14480734D01*
X48800852Y-14480734D01*
X48928183Y-14367929D01*
X48997951Y-14266853D01*
X49052233Y-14222864D01*
X49121681Y-14215204D01*
X49184246Y-14246307D01*
X49202047Y-14266851D01*
X49271817Y-14367929D01*
X49271818Y-14367930D01*
X49316127Y-14407185D01*
X49353254Y-14466374D01*
X49352486Y-14536240D01*
X49316127Y-14592815D01*
X49271818Y-14632069D01*
X49175182Y-14772068D01*
X49114860Y-14931125D01*
X49114859Y-14931130D01*
X49094355Y-15100000D01*
X49114859Y-15268869D01*
X49114860Y-15268874D01*
X49164349Y-15399366D01*
X49175182Y-15427930D01*
X49271817Y-15567929D01*
X49357074Y-15643460D01*
X49399150Y-15680736D01*
X49549773Y-15759789D01*
X49549775Y-15759790D01*
X49714944Y-15800500D01*
X49885056Y-15800500D01*
X50050225Y-15759790D01*
X50153665Y-15705500D01*
X50200849Y-15680736D01*
X50200850Y-15680734D01*
X50200852Y-15680734D01*
X50328183Y-15567929D01*
X50424818Y-15427930D01*
X50485140Y-15268872D01*
X50505645Y-15100000D01*
X50485140Y-14931128D01*
X50424818Y-14772070D01*
X50419412Y-14764237D01*
X50328182Y-14632069D01*
X50283873Y-14592816D01*
X50246746Y-14533627D01*
X50247513Y-14463761D01*
X50283873Y-14407184D01*
X50328182Y-14367930D01*
X50328184Y-14367928D01*
X50424818Y-14227930D01*
X50485140Y-14068872D01*
X50505645Y-13900000D01*
X50485140Y-13731128D01*
X50424818Y-13572070D01*
X50328183Y-13432071D01*
X50227431Y-13342812D01*
X50190307Y-13283627D01*
X50191074Y-13213761D01*
X50227430Y-13157187D01*
X50328183Y-13067929D01*
X50424818Y-12927930D01*
X50485140Y-12768872D01*
X50505645Y-12600000D01*
X50485140Y-12431128D01*
X50424818Y-12272070D01*
X50411885Y-12253334D01*
X50388368Y-12219263D01*
X50328183Y-12132071D01*
X50200852Y-12019266D01*
X50200849Y-12019263D01*
X50050226Y-11940210D01*
X49885056Y-11899500D01*
X49714944Y-11899500D01*
X49549773Y-11940210D01*
X49399150Y-12019263D01*
X49308582Y-12099500D01*
X49271817Y-12132071D01*
X49202048Y-12233146D01*
X49147767Y-12277136D01*
X49078318Y-12284795D01*
X49015753Y-12253691D01*
X48997952Y-12233148D01*
X48928183Y-12132071D01*
X48800852Y-12019266D01*
X48800849Y-12019263D01*
X48650226Y-11940210D01*
X48485056Y-11899500D01*
X48314944Y-11899500D01*
X48149773Y-11940210D01*
X47999150Y-12019263D01*
X47871816Y-12132072D01*
X47775182Y-12272068D01*
X47714860Y-12431125D01*
X47714859Y-12431130D01*
X47694355Y-12600000D01*
X47714859Y-12768869D01*
X47714860Y-12768874D01*
X47775182Y-12927931D01*
X47824584Y-12999501D01*
X47871817Y-13067929D01*
X47972566Y-13157185D01*
X48009693Y-13216374D01*
X48008925Y-13286239D01*
X47972566Y-13342814D01*
X47913355Y-13395272D01*
X47871816Y-13432072D01*
X47775182Y-13572068D01*
X47714860Y-13731125D01*
X47714859Y-13731130D01*
X47694355Y-13900000D01*
X45425500Y-13900000D01*
X45425500Y-4943982D01*
X45396503Y-4835763D01*
X45340485Y-4738737D01*
X45261263Y-4659515D01*
X44886818Y-4285070D01*
X44853333Y-4223747D01*
X44850499Y-4197389D01*
X44850499Y-3106286D01*
X48549500Y-3106286D01*
X48580165Y-3299901D01*
X48582754Y-3316243D01*
X48644737Y-3507007D01*
X48648444Y-3518414D01*
X48744951Y-3707820D01*
X48869890Y-3879786D01*
X49020213Y-4030109D01*
X49192179Y-4155048D01*
X49192181Y-4155049D01*
X49192184Y-4155051D01*
X49381588Y-4251557D01*
X49583757Y-4317246D01*
X49793713Y-4350500D01*
X49793714Y-4350500D01*
X50006286Y-4350500D01*
X50006287Y-4350500D01*
X50216243Y-4317246D01*
X50418412Y-4251557D01*
X50607816Y-4155051D01*
X50676623Y-4105060D01*
X50779786Y-4030109D01*
X50779788Y-4030106D01*
X50779792Y-4030104D01*
X50930104Y-3879792D01*
X50930106Y-3879788D01*
X50930109Y-3879786D01*
X51055048Y-3707820D01*
X51055047Y-3707820D01*
X51055051Y-3707816D01*
X51151557Y-3518412D01*
X51217246Y-3316243D01*
X51250500Y-3106287D01*
X51250500Y-2893713D01*
X51217246Y-2683757D01*
X51151557Y-2481588D01*
X51055051Y-2292184D01*
X51055049Y-2292181D01*
X51055048Y-2292179D01*
X50930109Y-2120213D01*
X50779786Y-1969890D01*
X50607820Y-1844951D01*
X50418414Y-1748444D01*
X50418413Y-1748443D01*
X50418412Y-1748443D01*
X50216243Y-1682754D01*
X50216241Y-1682753D01*
X50216240Y-1682753D01*
X50054957Y-1657208D01*
X50006287Y-1649500D01*
X49793713Y-1649500D01*
X49745042Y-1657208D01*
X49583760Y-1682753D01*
X49381585Y-1748444D01*
X49192179Y-1844951D01*
X49020213Y-1969890D01*
X48869890Y-2120213D01*
X48744951Y-2292179D01*
X48648444Y-2481585D01*
X48582753Y-2683760D01*
X48549500Y-2893713D01*
X48549500Y-3106286D01*
X44850499Y-3106286D01*
X44850499Y-2805143D01*
X44850499Y-2805136D01*
X44850497Y-2805117D01*
X44847586Y-2780012D01*
X44847585Y-2780010D01*
X44847585Y-2780009D01*
X44802206Y-2677235D01*
X44722765Y-2597794D01*
X44702124Y-2588680D01*
X44619992Y-2552415D01*
X44594865Y-2549500D01*
X42805143Y-2549500D01*
X42805117Y-2549502D01*
X42780012Y-2552413D01*
X42780008Y-2552415D01*
X42677235Y-2597793D01*
X42597794Y-2677234D01*
X42552415Y-2780006D01*
X42552415Y-2780008D01*
X42549500Y-2805131D01*
X42549500Y-3543946D01*
X42529815Y-3610985D01*
X42477011Y-3656740D01*
X42407853Y-3666684D01*
X42344297Y-3637659D01*
X42306523Y-3578881D01*
X42302029Y-3555387D01*
X42300969Y-3543946D01*
X42295756Y-3487690D01*
X42237405Y-3282611D01*
X42237403Y-3282606D01*
X42237403Y-3282605D01*
X42142367Y-3091746D01*
X42013872Y-2921593D01*
X41983289Y-2893713D01*
X41856302Y-2777948D01*
X41675019Y-2665702D01*
X41675017Y-2665701D01*
X41575608Y-2627190D01*
X41476198Y-2588679D01*
X41266610Y-2549500D01*
X41053390Y-2549500D01*
X40843802Y-2588679D01*
X40843799Y-2588679D01*
X40843799Y-2588680D01*
X40644982Y-2665701D01*
X40644980Y-2665702D01*
X40463699Y-2777947D01*
X40306127Y-2921593D01*
X40177634Y-3091744D01*
X40110676Y-3226215D01*
X40063173Y-3277452D01*
X39995510Y-3294873D01*
X39929170Y-3272947D01*
X39887294Y-3223348D01*
X39793600Y-3022422D01*
X39793599Y-3022420D01*
X39658113Y-2828926D01*
X39658108Y-2828920D01*
X39491082Y-2661894D01*
X39297578Y-2526399D01*
X39083492Y-2426570D01*
X39083486Y-2426567D01*
X38870000Y-2369364D01*
X38870000Y-3266988D01*
X38812993Y-3234075D01*
X38685826Y-3200000D01*
X38554174Y-3200000D01*
X38427007Y-3234075D01*
X38370000Y-3266988D01*
X38370000Y-2369364D01*
X38369999Y-2369364D01*
X38156513Y-2426567D01*
X38156507Y-2426570D01*
X37942422Y-2526399D01*
X37942420Y-2526400D01*
X37748926Y-2661886D01*
X37748920Y-2661891D01*
X37581891Y-2828920D01*
X37581886Y-2828926D01*
X37446400Y-3022420D01*
X37446399Y-3022422D01*
X37346570Y-3236507D01*
X37346567Y-3236513D01*
X37289364Y-3449999D01*
X37289364Y-3450000D01*
X38186988Y-3450000D01*
X38154075Y-3507007D01*
X38120000Y-3634174D01*
X38120000Y-3765826D01*
X38154075Y-3892993D01*
X38186988Y-3950000D01*
X37289364Y-3950000D01*
X37346567Y-4163486D01*
X37346570Y-4163492D01*
X37446399Y-4377578D01*
X37581894Y-4571082D01*
X37748917Y-4738105D01*
X37942421Y-4873600D01*
X38156507Y-4973429D01*
X38156516Y-4973433D01*
X38370000Y-5030634D01*
X38370000Y-4133012D01*
X38427007Y-4165925D01*
X38554174Y-4200000D01*
X38685826Y-4200000D01*
X38812993Y-4165925D01*
X38870000Y-4133012D01*
X38870000Y-5030633D01*
X39083483Y-4973433D01*
X39083492Y-4973429D01*
X39297578Y-4873600D01*
X39491082Y-4738105D01*
X39658105Y-4571082D01*
X39793600Y-4377578D01*
X39887294Y-4176651D01*
X39933466Y-4124212D01*
X40000660Y-4105060D01*
X40067541Y-4125276D01*
X40110676Y-4173785D01*
X40177632Y-4308253D01*
X40282355Y-4446927D01*
X40306128Y-4478407D01*
X40463698Y-4622052D01*
X40644981Y-4734298D01*
X40843802Y-4811321D01*
X41053390Y-4850500D01*
X41053392Y-4850500D01*
X41266608Y-4850500D01*
X41266610Y-4850500D01*
X41476198Y-4811321D01*
X41540238Y-4786511D01*
X41609855Y-4780649D01*
X41671596Y-4813358D01*
X41672709Y-4814457D01*
X43538181Y-6679929D01*
X43571666Y-6741252D01*
X43574500Y-6767610D01*
X43574500Y-9951817D01*
X43554815Y-10018856D01*
X43502011Y-10064611D01*
X43432853Y-10074555D01*
X43394298Y-10062349D01*
X43363742Y-10046812D01*
X43323914Y-10026561D01*
X43323911Y-10026560D01*
X43323913Y-10026560D01*
X43256881Y-10006877D01*
X43256875Y-10006876D01*
X43170803Y-9994500D01*
X40618803Y-9994500D01*
X40618794Y-9994500D01*
X40618793Y-9994501D01*
X40553867Y-10001481D01*
X40553855Y-10001483D01*
X40502349Y-10012688D01*
X40464148Y-10023644D01*
X40464144Y-10023646D01*
X40367234Y-10080323D01*
X40367231Y-10080325D01*
X40314426Y-10126081D01*
X40314415Y-10126091D01*
X40272254Y-10170807D01*
X40272248Y-10170816D01*
X40221363Y-10270890D01*
X40201680Y-10337921D01*
X40189303Y-10424002D01*
X40189303Y-11025500D01*
X40169618Y-11092539D01*
X40116814Y-11138294D01*
X40065303Y-11149500D01*
X19820246Y-11149500D01*
X19715238Y-11177637D01*
X19680235Y-11187016D01*
X19554707Y-11259489D01*
X19554704Y-11259491D01*
X9854294Y-20959901D01*
X9854292Y-20959904D01*
X9781819Y-21085432D01*
X9781819Y-21085433D01*
X9744303Y-21225443D01*
X9744303Y-21225445D01*
X9744303Y-22670500D01*
X9724618Y-22737539D01*
X9671814Y-22783294D01*
X9620303Y-22794500D01*
X8518803Y-22794500D01*
X8518794Y-22794500D01*
X8518793Y-22794501D01*
X8453867Y-22801481D01*
X8453855Y-22801483D01*
X8402349Y-22812688D01*
X8364148Y-22823644D01*
X8364144Y-22823646D01*
X8267234Y-22880323D01*
X8267231Y-22880325D01*
X8214426Y-22926081D01*
X8214415Y-22926091D01*
X8172254Y-22970807D01*
X8172248Y-22970816D01*
X8121363Y-23070890D01*
X8101680Y-23137921D01*
X8101679Y-23137928D01*
X8089303Y-23224000D01*
X8089303Y-26229998D01*
X8089303Y-27576000D01*
X3448710Y-27576000D01*
X3355051Y-27392184D01*
X3355049Y-27392181D01*
X3355048Y-27392179D01*
X3230109Y-27220213D01*
X3079786Y-27069890D01*
X2907820Y-26944951D01*
X2718414Y-26848444D01*
X2718413Y-26848443D01*
X2718412Y-26848443D01*
X2516243Y-26782754D01*
X2516241Y-26782753D01*
X2516240Y-26782753D01*
X2354957Y-26757208D01*
X2306287Y-26749500D01*
X2093713Y-26749500D01*
X2045042Y-26757208D01*
X1883760Y-26782753D01*
X1883757Y-26782754D01*
X1706927Y-26840210D01*
X1681585Y-26848444D01*
X1492179Y-26944951D01*
X1320213Y-27069890D01*
X1169890Y-27220213D01*
X1044951Y-27392179D01*
X948444Y-27581585D01*
X882753Y-27783760D01*
X853584Y-27967927D01*
X849500Y-27993713D01*
X849500Y-28206287D01*
X0Y-28206287D01*
X0Y-18400000D01*
X6789158Y-18400000D01*
X6809662Y-18568869D01*
X6809663Y-18568874D01*
X6869985Y-18727931D01*
X6903358Y-18776279D01*
X6966620Y-18867929D01*
X7064694Y-18954815D01*
X7093953Y-18980736D01*
X7244576Y-19059789D01*
X7244578Y-19059790D01*
X7409747Y-19100500D01*
X7579859Y-19100500D01*
X7745028Y-19059790D01*
X7895655Y-18980734D01*
X8022986Y-18867929D01*
X8060743Y-18813226D01*
X8100792Y-18776280D01*
X8162793Y-18740485D01*
X10510287Y-16392991D01*
X10566306Y-16295964D01*
X10595303Y-16187746D01*
X10595303Y-16075709D01*
X10595303Y-15998524D01*
X10614988Y-15931485D01*
X10667792Y-15885730D01*
X10736950Y-15875786D01*
X10748960Y-15878123D01*
X10839747Y-15900500D01*
X10839749Y-15900500D01*
X11009859Y-15900500D01*
X11175028Y-15859790D01*
X11261067Y-15814633D01*
X11325652Y-15780736D01*
X11325653Y-15780734D01*
X11325655Y-15780734D01*
X11452986Y-15667929D01*
X11549621Y-15527930D01*
X11609943Y-15368872D01*
X11630448Y-15200000D01*
X11609943Y-15031128D01*
X11549621Y-14872070D01*
X11542161Y-14861263D01*
X11490589Y-14786548D01*
X11452986Y-14732071D01*
X11339047Y-14631130D01*
X11325652Y-14619263D01*
X11175029Y-14540210D01*
X11009859Y-14499500D01*
X10839747Y-14499500D01*
X10839745Y-14499500D01*
X10748977Y-14521872D01*
X10679175Y-14518803D01*
X10622113Y-14478482D01*
X10595908Y-14413713D01*
X10595303Y-14401475D01*
X10595303Y-13652610D01*
X10614988Y-13585571D01*
X10631622Y-13564929D01*
X10659732Y-13536819D01*
X10721055Y-13503334D01*
X10747413Y-13500500D01*
X10879859Y-13500500D01*
X11045028Y-13459790D01*
X11124495Y-13418081D01*
X11195652Y-13380736D01*
X11195653Y-13380734D01*
X11195655Y-13380734D01*
X11322986Y-13267929D01*
X11419621Y-13127930D01*
X11479943Y-12968872D01*
X11500448Y-12800000D01*
X11479943Y-12631128D01*
X11419621Y-12472070D01*
X11393961Y-12434896D01*
X11364454Y-12392147D01*
X11322986Y-12332071D01*
X11228119Y-12248026D01*
X11195652Y-12219263D01*
X11045029Y-12140210D01*
X10879859Y-12099500D01*
X10709747Y-12099500D01*
X10544576Y-12140210D01*
X10393953Y-12219263D01*
X10317699Y-12286819D01*
X10276872Y-12322989D01*
X10266619Y-12332072D01*
X10169985Y-12472068D01*
X10109663Y-12631125D01*
X10109662Y-12631130D01*
X10089158Y-12800000D01*
X10089158Y-12800003D01*
X10093129Y-12832715D01*
X10081667Y-12901638D01*
X10057714Y-12935339D01*
X9908540Y-13084515D01*
X9829320Y-13163734D01*
X9829315Y-13163740D01*
X9800628Y-13213429D01*
X9750061Y-13261645D01*
X9681453Y-13274867D01*
X9616589Y-13248899D01*
X9579807Y-13201515D01*
X9547009Y-13127235D01*
X9467568Y-13047794D01*
X9364795Y-13002415D01*
X9339668Y-12999500D01*
X8249946Y-12999500D01*
X8249920Y-12999502D01*
X8224815Y-13002413D01*
X8224811Y-13002415D01*
X8122038Y-13047793D01*
X8042597Y-13127234D01*
X7997218Y-13230006D01*
X7997218Y-13230008D01*
X7994303Y-13255131D01*
X7994303Y-14344856D01*
X7994305Y-14344882D01*
X7997216Y-14369987D01*
X7997218Y-14369991D01*
X8042596Y-14472764D01*
X8084483Y-14514651D01*
X8117968Y-14575974D01*
X8112984Y-14645666D01*
X8101797Y-14668302D01*
X8069012Y-14720480D01*
X8009436Y-14890737D01*
X8009433Y-14890750D01*
X7989238Y-15069996D01*
X7989238Y-15070003D01*
X8009433Y-15249249D01*
X8009434Y-15249254D01*
X8069014Y-15419523D01*
X8164987Y-15572262D01*
X8164988Y-15572263D01*
X8210044Y-15617320D01*
X8243528Y-15678643D01*
X8238543Y-15748335D01*
X8210044Y-15792680D01*
X8164987Y-15837737D01*
X8069014Y-15990476D01*
X8009434Y-16160745D01*
X8009433Y-16160750D01*
X7989238Y-16339996D01*
X7989238Y-16340003D01*
X8009433Y-16519249D01*
X8009434Y-16519254D01*
X8069014Y-16689523D01*
X8125393Y-16779249D01*
X8164987Y-16842262D01*
X8292541Y-16969816D01*
X8385685Y-17028342D01*
X8429514Y-17055882D01*
X8475805Y-17108217D01*
X8486453Y-17177271D01*
X8458078Y-17241119D01*
X8451223Y-17248557D01*
X7950243Y-17749537D01*
X7888920Y-17783022D01*
X7819228Y-17778038D01*
X7804936Y-17771652D01*
X7745029Y-17740210D01*
X7579859Y-17699500D01*
X7409747Y-17699500D01*
X7244576Y-17740210D01*
X7093953Y-17819263D01*
X6966619Y-17932072D01*
X6869985Y-18072068D01*
X6809663Y-18231125D01*
X6809662Y-18231130D01*
X6789158Y-18400000D01*
X0Y-18400000D01*
X0Y-8200000D01*
X8819158Y-8200000D01*
X8839662Y-8368869D01*
X8839663Y-8368874D01*
X8899985Y-8527931D01*
X8956489Y-8609789D01*
X8996620Y-8667929D01*
X9102308Y-8761560D01*
X9123953Y-8780736D01*
X9274576Y-8859789D01*
X9274578Y-8859790D01*
X9439747Y-8900500D01*
X9609859Y-8900500D01*
X9775028Y-8859790D01*
X9854495Y-8818081D01*
X9925652Y-8780736D01*
X9925653Y-8780734D01*
X9925655Y-8780734D01*
X10052986Y-8667929D01*
X10149621Y-8527930D01*
X10209943Y-8368872D01*
X10229975Y-8203891D01*
X10257595Y-8139717D01*
X10265378Y-8131172D01*
X10734732Y-7661819D01*
X10796055Y-7628334D01*
X10822413Y-7625500D01*
X11889748Y-7625500D01*
X11956787Y-7645185D01*
X12002542Y-7697989D01*
X12012486Y-7767147D01*
X12010143Y-7779182D01*
X12009662Y-7781129D01*
X11989158Y-7950000D01*
X12009662Y-8118869D01*
X12009663Y-8118874D01*
X12069985Y-8277931D01*
X12132278Y-8368177D01*
X12166620Y-8417929D01*
X12272308Y-8511560D01*
X12293953Y-8530736D01*
X12444576Y-8609789D01*
X12444578Y-8609790D01*
X12609747Y-8650500D01*
X12779859Y-8650500D01*
X12945028Y-8609790D01*
X13024495Y-8568081D01*
X13095652Y-8530736D01*
X13095653Y-8530734D01*
X13095655Y-8530734D01*
X13222986Y-8417929D01*
X13319621Y-8277930D01*
X13379943Y-8118872D01*
X13400448Y-7950000D01*
X13379943Y-7781128D01*
X13379942Y-7781126D01*
X13379463Y-7779182D01*
X13379527Y-7777707D01*
X13379039Y-7773683D01*
X13379708Y-7773601D01*
X13382528Y-7709379D01*
X13422845Y-7652315D01*
X13487612Y-7626106D01*
X13499858Y-7625500D01*
X19903223Y-7625500D01*
X19970262Y-7645185D01*
X19991003Y-7662957D01*
X19991006Y-7662955D01*
X19991175Y-7663105D01*
X19996036Y-7667270D01*
X19996617Y-7667926D01*
X20123953Y-7780736D01*
X20274576Y-7859789D01*
X20274578Y-7859790D01*
X20439747Y-7900500D01*
X20609859Y-7900500D01*
X20775028Y-7859790D01*
X20854495Y-7818081D01*
X20925652Y-7780736D01*
X20925653Y-7780734D01*
X20925655Y-7780734D01*
X21052986Y-7667929D01*
X21149621Y-7527930D01*
X21209943Y-7368872D01*
X21230448Y-7200000D01*
X21209943Y-7031128D01*
X21149621Y-6872070D01*
X21140956Y-6859517D01*
X21102288Y-6803497D01*
X21052986Y-6732071D01*
X20940992Y-6632853D01*
X20925652Y-6619263D01*
X20775029Y-6540210D01*
X20609859Y-6499500D01*
X20439747Y-6499500D01*
X20274576Y-6540210D01*
X20123953Y-6619263D01*
X19996617Y-6732073D01*
X19996036Y-6732730D01*
X19995490Y-6733072D01*
X19991006Y-6737045D01*
X19990345Y-6736299D01*
X19936845Y-6769855D01*
X19903223Y-6774500D01*
X14849858Y-6774500D01*
X14782819Y-6754815D01*
X14737064Y-6702011D01*
X14727120Y-6632853D01*
X14729463Y-6620818D01*
X14729943Y-6618870D01*
X14750448Y-6450000D01*
X14729943Y-6281128D01*
X14669621Y-6122070D01*
X14648117Y-6090917D01*
X14617753Y-6046927D01*
X14585362Y-6000000D01*
X30219158Y-6000000D01*
X30239662Y-6168869D01*
X30239663Y-6168874D01*
X30299985Y-6327931D01*
X30304231Y-6334082D01*
X30396620Y-6467929D01*
X30478209Y-6540210D01*
X30523953Y-6580736D01*
X30674576Y-6659789D01*
X30674578Y-6659790D01*
X30839747Y-6700500D01*
X31009859Y-6700500D01*
X31175028Y-6659790D01*
X31254495Y-6618081D01*
X31325652Y-6580736D01*
X31325653Y-6580734D01*
X31325655Y-6580734D01*
X31452986Y-6467929D01*
X31549621Y-6327930D01*
X31609943Y-6168872D01*
X31630448Y-6000000D01*
X31609943Y-5831128D01*
X31549621Y-5672070D01*
X31452986Y-5532071D01*
X31325655Y-5419266D01*
X31325652Y-5419263D01*
X31175029Y-5340210D01*
X31009859Y-5299500D01*
X30839747Y-5299500D01*
X30674576Y-5340210D01*
X30523953Y-5419263D01*
X30396619Y-5532072D01*
X30299985Y-5672068D01*
X30239663Y-5831125D01*
X30239662Y-5831130D01*
X30219158Y-6000000D01*
X14585362Y-6000000D01*
X14572986Y-5982071D01*
X14445655Y-5869266D01*
X14445652Y-5869263D01*
X14295029Y-5790210D01*
X14241706Y-5777067D01*
X14214641Y-5770396D01*
X14154262Y-5735241D01*
X14122473Y-5673022D01*
X14129369Y-5603493D01*
X14172760Y-5548730D01*
X14214641Y-5529603D01*
X14295028Y-5509790D01*
X14374495Y-5468081D01*
X14445652Y-5430736D01*
X14445653Y-5430734D01*
X14445655Y-5430734D01*
X14572986Y-5317929D01*
X14669621Y-5177930D01*
X14729943Y-5018872D01*
X14750448Y-4850000D01*
X14729943Y-4681128D01*
X14669621Y-4522070D01*
X14648117Y-4490917D01*
X14617753Y-4446927D01*
X14572986Y-4382071D01*
X14460145Y-4282103D01*
X14445652Y-4269263D01*
X14295029Y-4190210D01*
X14129859Y-4149500D01*
X13959747Y-4149500D01*
X13794576Y-4190210D01*
X13643953Y-4269263D01*
X13516618Y-4382072D01*
X13471852Y-4446927D01*
X13417569Y-4490917D01*
X13348121Y-4498576D01*
X13285556Y-4467472D01*
X13267754Y-4446927D01*
X13222987Y-4382072D01*
X13095652Y-4269263D01*
X12945029Y-4190210D01*
X12779859Y-4149500D01*
X12609747Y-4149500D01*
X12444576Y-4190210D01*
X12293953Y-4269263D01*
X12166619Y-4382072D01*
X12069985Y-4522068D01*
X12009663Y-4681125D01*
X12009662Y-4681130D01*
X11989158Y-4850000D01*
X12009662Y-5018869D01*
X12009663Y-5018874D01*
X12069985Y-5177931D01*
X12104277Y-5227610D01*
X12166620Y-5317929D01*
X12272308Y-5411560D01*
X12293953Y-5430736D01*
X12444576Y-5509789D01*
X12444578Y-5509790D01*
X12509437Y-5525776D01*
X12524963Y-5529603D01*
X12585344Y-5564759D01*
X12617132Y-5626979D01*
X12610236Y-5696507D01*
X12566845Y-5751270D01*
X12524963Y-5770397D01*
X12444576Y-5790210D01*
X12293953Y-5869263D01*
X12166619Y-5982072D01*
X12069985Y-6122068D01*
X12009663Y-6281125D01*
X12009662Y-6281130D01*
X11989158Y-6450000D01*
X12009662Y-6618870D01*
X12010143Y-6620818D01*
X12010078Y-6622292D01*
X12010567Y-6626317D01*
X12009897Y-6626398D01*
X12007078Y-6690621D01*
X11966761Y-6747685D01*
X11901994Y-6773894D01*
X11889748Y-6774500D01*
X10538785Y-6774500D01*
X10430566Y-6803497D01*
X10430563Y-6803498D01*
X10333543Y-6859513D01*
X10333537Y-6859517D01*
X9726456Y-7466597D01*
X9665133Y-7500082D01*
X9617422Y-7499428D01*
X9617304Y-7500404D01*
X9609859Y-7499500D01*
X9439747Y-7499500D01*
X9274576Y-7540210D01*
X9123953Y-7619263D01*
X8996619Y-7732072D01*
X8899985Y-7872068D01*
X8839663Y-8031125D01*
X8839662Y-8031130D01*
X8819158Y-8200000D01*
X0Y-8200000D01*
X0Y-3106286D01*
X849500Y-3106286D01*
X880165Y-3299901D01*
X882754Y-3316243D01*
X944737Y-3507007D01*
X948444Y-3518414D01*
X1044951Y-3707820D01*
X1169890Y-3879786D01*
X1320213Y-4030109D01*
X1492179Y-4155048D01*
X1492181Y-4155049D01*
X1492184Y-4155051D01*
X1681588Y-4251557D01*
X1883757Y-4317246D01*
X2093713Y-4350500D01*
X2093714Y-4350500D01*
X2306286Y-4350500D01*
X2306287Y-4350500D01*
X2516243Y-4317246D01*
X2718412Y-4251557D01*
X2907816Y-4155051D01*
X2976623Y-4105060D01*
X3079786Y-4030109D01*
X3079788Y-4030106D01*
X3079792Y-4030104D01*
X3230104Y-3879792D01*
X3230106Y-3879788D01*
X3230109Y-3879786D01*
X3355048Y-3707820D01*
X3355047Y-3707820D01*
X3355051Y-3707816D01*
X3451557Y-3518412D01*
X3517246Y-3316243D01*
X3550500Y-3106287D01*
X3550500Y-2893713D01*
X3517246Y-2683757D01*
X3451557Y-2481588D01*
X3355051Y-2292184D01*
X3355049Y-2292181D01*
X3355048Y-2292179D01*
X3230109Y-2120213D01*
X3079786Y-1969890D01*
X2907820Y-1844951D01*
X2718414Y-1748444D01*
X2718413Y-1748443D01*
X2718412Y-1748443D01*
X2516243Y-1682754D01*
X2516241Y-1682753D01*
X2516240Y-1682753D01*
X2354957Y-1657208D01*
X2306287Y-1649500D01*
X2093713Y-1649500D01*
X2045042Y-1657208D01*
X1883760Y-1682753D01*
X1681585Y-1748444D01*
X1492179Y-1844951D01*
X1320213Y-1969890D01*
X1169890Y-2120213D01*
X1044951Y-2292179D01*
X948444Y-2481585D01*
X882753Y-2683760D01*
X849500Y-2893713D01*
X849500Y-3106286D01*
X0Y-3106286D01*
X0Y-124000D01*
X19685Y-56961D01*
X72489Y-11206D01*
X124000Y0D01*
X52076000Y0D01*
X52143039Y-19685D01*
G37*
G04 #@! TD.AperFunction*
G04 #@! TA.AperFunction,Conductor*
G36*
X43237842Y-10319685D02*
G01*
X43283597Y-10372489D01*
X43294803Y-10424000D01*
X43294803Y-13252087D01*
X43275118Y-13319126D01*
X43258484Y-13339768D01*
X41234571Y-15363681D01*
X41173248Y-15397166D01*
X41146890Y-15400000D01*
X40618803Y-15400000D01*
X40551764Y-15380315D01*
X40506009Y-15327511D01*
X40494803Y-15276000D01*
X40494803Y-12653991D01*
X40495707Y-12639044D01*
X40500448Y-12600000D01*
X40495707Y-12560954D01*
X40494803Y-12546008D01*
X40494803Y-10424000D01*
X40514488Y-10356961D01*
X40567292Y-10311206D01*
X40618803Y-10300000D01*
X43170803Y-10300000D01*
X43237842Y-10319685D01*
G37*
G04 #@! TD.AperFunction*
G04 #@! TA.AperFunction,Conductor*
G36*
X12337842Y-23119685D02*
G01*
X12383597Y-23172489D01*
X12394803Y-23224000D01*
X12394803Y-27576000D01*
X12375118Y-27643039D01*
X12322314Y-27688794D01*
X12270803Y-27700000D01*
X9974587Y-27700000D01*
X9964409Y-27699500D01*
X9963419Y-27699500D01*
X9776187Y-27699500D01*
X9775197Y-27699500D01*
X9765019Y-27700000D01*
X8518803Y-27700000D01*
X8451764Y-27680315D01*
X8406009Y-27627511D01*
X8394803Y-27576000D01*
X8394803Y-26230000D01*
X10114704Y-26230000D01*
X10133055Y-26416331D01*
X10133056Y-26416333D01*
X10187407Y-26595502D01*
X10275665Y-26760623D01*
X10275667Y-26760626D01*
X10394445Y-26905357D01*
X10539176Y-27024135D01*
X10539179Y-27024137D01*
X10704300Y-27112395D01*
X10704302Y-27112396D01*
X10883469Y-27166746D01*
X10883471Y-27166747D01*
X10900177Y-27168392D01*
X11069803Y-27185099D01*
X11256134Y-27166747D01*
X11435304Y-27112396D01*
X11600428Y-27024136D01*
X11745160Y-26905357D01*
X11863939Y-26760625D01*
X11952199Y-26595501D01*
X12006550Y-26416331D01*
X12024902Y-26230000D01*
X12006550Y-26043669D01*
X11952199Y-25864499D01*
X11863939Y-25699375D01*
X11863938Y-25699373D01*
X11745160Y-25554642D01*
X11600429Y-25435864D01*
X11600426Y-25435862D01*
X11435305Y-25347604D01*
X11256136Y-25293253D01*
X11256134Y-25293252D01*
X11069803Y-25274901D01*
X10883471Y-25293252D01*
X10883469Y-25293253D01*
X10704300Y-25347604D01*
X10539179Y-25435862D01*
X10539176Y-25435864D01*
X10394445Y-25554642D01*
X10275667Y-25699373D01*
X10275665Y-25699376D01*
X10187407Y-25864497D01*
X10133056Y-26043666D01*
X10133055Y-26043668D01*
X10114704Y-26230000D01*
X8394803Y-26230000D01*
X8394803Y-23224000D01*
X8414488Y-23156961D01*
X8467292Y-23111206D01*
X8518803Y-23100000D01*
X12270803Y-23100000D01*
X12337842Y-23119685D01*
G37*
G04 #@! TD.AperFunction*
M02*
