G04 #@! TF.GenerationSoftware,KiCad,Pcbnew,8.0.1*
G04 #@! TF.CreationDate,2024-04-13T18:18:23+03:00*
G04 #@! TF.ProjectId,mains-detector,6d61696e-732d-4646-9574-6563746f722e,rev?*
G04 #@! TF.SameCoordinates,Original*
G04 #@! TF.FileFunction,Legend,Top*
G04 #@! TF.FilePolarity,Positive*
%FSLAX46Y46*%
G04 Gerber Fmt 4.6, Leading zero omitted, Abs format (unit mm)*
G04 Created by KiCad (PCBNEW 8.0.1) date 2024-04-13 18:18:23*
%MOMM*%
%LPD*%
G01*
G04 APERTURE LIST*
G04 Aperture macros list*
%AMRoundRect*
0 Rectangle with rounded corners*
0 $1 Rounding radius*
0 $2 $3 $4 $5 $6 $7 $8 $9 X,Y pos of 4 corners*
0 Add a 4 corners polygon primitive as box body*
4,1,4,$2,$3,$4,$5,$6,$7,$8,$9,$2,$3,0*
0 Add four circle primitives for the rounded corners*
1,1,$1+$1,$2,$3*
1,1,$1+$1,$4,$5*
1,1,$1+$1,$6,$7*
1,1,$1+$1,$8,$9*
0 Add four rect primitives between the rounded corners*
20,1,$1+$1,$2,$3,$4,$5,0*
20,1,$1+$1,$4,$5,$6,$7,0*
20,1,$1+$1,$6,$7,$8,$9,0*
20,1,$1+$1,$8,$9,$2,$3,0*%
%AMFreePoly0*
4,1,9,0.825500,0.127000,0.241300,-0.431800,0.241300,-1.854200,-0.241300,-1.854200,-0.241300,-0.406400,-0.825500,0.127000,-0.825500,2.590800,0.825500,2.590800,0.825500,0.127000,0.825500,0.127000,$1*%
%AMFreePoly1*
4,1,19,0.500000,-0.750000,0.000000,-0.750000,0.000000,-0.744911,-0.071157,-0.744911,-0.207708,-0.704816,-0.327430,-0.627875,-0.420627,-0.520320,-0.479746,-0.390866,-0.500000,-0.250000,-0.500000,0.250000,-0.479746,0.390866,-0.420627,0.520320,-0.327430,0.627875,-0.207708,0.704816,-0.071157,0.744911,0.000000,0.744911,0.000000,0.750000,0.500000,0.750000,0.500000,-0.750000,0.500000,-0.750000,
$1*%
%AMFreePoly2*
4,1,19,0.000000,0.744911,0.071157,0.744911,0.207708,0.704816,0.327430,0.627875,0.420627,0.520320,0.479746,0.390866,0.500000,0.250000,0.500000,-0.250000,0.479746,-0.390866,0.420627,-0.520320,0.327430,-0.627875,0.207708,-0.704816,0.071157,-0.744911,0.000000,-0.744911,0.000000,-0.750000,-0.500000,-0.750000,-0.500000,0.750000,0.000000,0.750000,0.000000,0.744911,0.000000,0.744911,
$1*%
G04 Aperture macros list end*
%ADD10C,0.150000*%
%ADD11C,0.152400*%
%ADD12C,0.120000*%
%ADD13C,0.000000*%
%ADD14C,0.010000*%
%ADD15C,0.254000*%
%ADD16R,0.431800X1.193800*%
%ADD17R,0.482600X1.193800*%
%ADD18R,1.193800X0.431800*%
%ADD19FreePoly0,270.000000*%
%ADD20RoundRect,0.140000X0.140000X0.170000X-0.140000X0.170000X-0.140000X-0.170000X0.140000X-0.170000X0*%
%ADD21RoundRect,0.135000X-0.185000X0.135000X-0.185000X-0.135000X0.185000X-0.135000X0.185000X0.135000X0*%
%ADD22C,2.200000*%
%ADD23R,1.700000X1.700000*%
%ADD24O,1.700000X1.700000*%
%ADD25RoundRect,0.150000X-0.825000X-0.150000X0.825000X-0.150000X0.825000X0.150000X-0.825000X0.150000X0*%
%ADD26RoundRect,0.218750X-0.218750X-0.256250X0.218750X-0.256250X0.218750X0.256250X-0.218750X0.256250X0*%
%ADD27RoundRect,0.135000X0.185000X-0.135000X0.185000X0.135000X-0.185000X0.135000X-0.185000X-0.135000X0*%
%ADD28RoundRect,0.150000X-0.587500X-0.150000X0.587500X-0.150000X0.587500X0.150000X-0.587500X0.150000X0*%
%ADD29FreePoly1,0.000000*%
%ADD30FreePoly2,0.000000*%
%ADD31RoundRect,0.225000X0.250000X-0.225000X0.250000X0.225000X-0.250000X0.225000X-0.250000X-0.225000X0*%
%ADD32RoundRect,0.135000X0.135000X0.185000X-0.135000X0.185000X-0.135000X-0.185000X0.135000X-0.185000X0*%
%ADD33RoundRect,0.150000X0.150000X-0.587500X0.150000X0.587500X-0.150000X0.587500X-0.150000X-0.587500X0*%
%ADD34R,1.000000X1.000000*%
%ADD35O,1.000000X1.000000*%
%ADD36RoundRect,0.140000X0.170000X-0.140000X0.170000X0.140000X-0.170000X0.140000X-0.170000X-0.140000X0*%
%ADD37RoundRect,0.140000X-0.170000X0.140000X-0.170000X-0.140000X0.170000X-0.140000X0.170000X0.140000X0*%
%ADD38RoundRect,0.250000X0.312500X0.275000X-0.312500X0.275000X-0.312500X-0.275000X0.312500X-0.275000X0*%
%ADD39RoundRect,0.140000X-0.140000X-0.170000X0.140000X-0.170000X0.140000X0.170000X-0.140000X0.170000X0*%
%ADD40RoundRect,0.250000X-0.537500X-0.425000X0.537500X-0.425000X0.537500X0.425000X-0.537500X0.425000X0*%
%ADD41FreePoly1,90.000000*%
%ADD42FreePoly2,90.000000*%
%ADD43RoundRect,0.225000X0.375000X-0.225000X0.375000X0.225000X-0.375000X0.225000X-0.375000X-0.225000X0*%
%ADD44RoundRect,0.135000X-0.135000X-0.185000X0.135000X-0.185000X0.135000X0.185000X-0.135000X0.185000X0*%
%ADD45RoundRect,0.250000X0.537500X0.425000X-0.537500X0.425000X-0.537500X-0.425000X0.537500X-0.425000X0*%
%ADD46R,0.977900X0.508000*%
%ADD47FreePoly1,270.000000*%
%ADD48FreePoly2,270.000000*%
%ADD49R,1.500000X1.500000*%
%ADD50R,0.400000X1.600000*%
%ADD51C,1.300000*%
%ADD52O,1.300000X1.800000*%
%ADD53R,1.800000X1.100000*%
G04 APERTURE END LIST*
D10*
X4730180Y-11036779D02*
X5730180Y-11036779D01*
X5730180Y-11036779D02*
X5015895Y-11370112D01*
X5015895Y-11370112D02*
X5730180Y-11703445D01*
X5730180Y-11703445D02*
X4730180Y-11703445D01*
X4730180Y-12608207D02*
X5253990Y-12608207D01*
X5253990Y-12608207D02*
X5349228Y-12560588D01*
X5349228Y-12560588D02*
X5396847Y-12465350D01*
X5396847Y-12465350D02*
X5396847Y-12274874D01*
X5396847Y-12274874D02*
X5349228Y-12179636D01*
X4777800Y-12608207D02*
X4730180Y-12512969D01*
X4730180Y-12512969D02*
X4730180Y-12274874D01*
X4730180Y-12274874D02*
X4777800Y-12179636D01*
X4777800Y-12179636D02*
X4873038Y-12132017D01*
X4873038Y-12132017D02*
X4968276Y-12132017D01*
X4968276Y-12132017D02*
X5063514Y-12179636D01*
X5063514Y-12179636D02*
X5111133Y-12274874D01*
X5111133Y-12274874D02*
X5111133Y-12512969D01*
X5111133Y-12512969D02*
X5158752Y-12608207D01*
X4730180Y-13084398D02*
X5396847Y-13084398D01*
X5730180Y-13084398D02*
X5682561Y-13036779D01*
X5682561Y-13036779D02*
X5634942Y-13084398D01*
X5634942Y-13084398D02*
X5682561Y-13132017D01*
X5682561Y-13132017D02*
X5730180Y-13084398D01*
X5730180Y-13084398D02*
X5634942Y-13084398D01*
X5396847Y-13560588D02*
X4730180Y-13560588D01*
X5301609Y-13560588D02*
X5349228Y-13608207D01*
X5349228Y-13608207D02*
X5396847Y-13703445D01*
X5396847Y-13703445D02*
X5396847Y-13846302D01*
X5396847Y-13846302D02*
X5349228Y-13941540D01*
X5349228Y-13941540D02*
X5253990Y-13989159D01*
X5253990Y-13989159D02*
X4730180Y-13989159D01*
X4777800Y-14417731D02*
X4730180Y-14512969D01*
X4730180Y-14512969D02*
X4730180Y-14703445D01*
X4730180Y-14703445D02*
X4777800Y-14798683D01*
X4777800Y-14798683D02*
X4873038Y-14846302D01*
X4873038Y-14846302D02*
X4920657Y-14846302D01*
X4920657Y-14846302D02*
X5015895Y-14798683D01*
X5015895Y-14798683D02*
X5063514Y-14703445D01*
X5063514Y-14703445D02*
X5063514Y-14560588D01*
X5063514Y-14560588D02*
X5111133Y-14465350D01*
X5111133Y-14465350D02*
X5206371Y-14417731D01*
X5206371Y-14417731D02*
X5253990Y-14417731D01*
X5253990Y-14417731D02*
X5349228Y-14465350D01*
X5349228Y-14465350D02*
X5396847Y-14560588D01*
X5396847Y-14560588D02*
X5396847Y-14703445D01*
X5396847Y-14703445D02*
X5349228Y-14798683D01*
X4730180Y-16036779D02*
X5730180Y-16036779D01*
X5730180Y-16036779D02*
X5730180Y-16274874D01*
X5730180Y-16274874D02*
X5682561Y-16417731D01*
X5682561Y-16417731D02*
X5587323Y-16512969D01*
X5587323Y-16512969D02*
X5492085Y-16560588D01*
X5492085Y-16560588D02*
X5301609Y-16608207D01*
X5301609Y-16608207D02*
X5158752Y-16608207D01*
X5158752Y-16608207D02*
X4968276Y-16560588D01*
X4968276Y-16560588D02*
X4873038Y-16512969D01*
X4873038Y-16512969D02*
X4777800Y-16417731D01*
X4777800Y-16417731D02*
X4730180Y-16274874D01*
X4730180Y-16274874D02*
X4730180Y-16036779D01*
X4777800Y-17417731D02*
X4730180Y-17322493D01*
X4730180Y-17322493D02*
X4730180Y-17132017D01*
X4730180Y-17132017D02*
X4777800Y-17036779D01*
X4777800Y-17036779D02*
X4873038Y-16989160D01*
X4873038Y-16989160D02*
X5253990Y-16989160D01*
X5253990Y-16989160D02*
X5349228Y-17036779D01*
X5349228Y-17036779D02*
X5396847Y-17132017D01*
X5396847Y-17132017D02*
X5396847Y-17322493D01*
X5396847Y-17322493D02*
X5349228Y-17417731D01*
X5349228Y-17417731D02*
X5253990Y-17465350D01*
X5253990Y-17465350D02*
X5158752Y-17465350D01*
X5158752Y-17465350D02*
X5063514Y-16989160D01*
X5396847Y-17751065D02*
X5396847Y-18132017D01*
X5730180Y-17893922D02*
X4873038Y-17893922D01*
X4873038Y-17893922D02*
X4777800Y-17941541D01*
X4777800Y-17941541D02*
X4730180Y-18036779D01*
X4730180Y-18036779D02*
X4730180Y-18132017D01*
X4777800Y-18846303D02*
X4730180Y-18751065D01*
X4730180Y-18751065D02*
X4730180Y-18560589D01*
X4730180Y-18560589D02*
X4777800Y-18465351D01*
X4777800Y-18465351D02*
X4873038Y-18417732D01*
X4873038Y-18417732D02*
X5253990Y-18417732D01*
X5253990Y-18417732D02*
X5349228Y-18465351D01*
X5349228Y-18465351D02*
X5396847Y-18560589D01*
X5396847Y-18560589D02*
X5396847Y-18751065D01*
X5396847Y-18751065D02*
X5349228Y-18846303D01*
X5349228Y-18846303D02*
X5253990Y-18893922D01*
X5253990Y-18893922D02*
X5158752Y-18893922D01*
X5158752Y-18893922D02*
X5063514Y-18417732D01*
X4777800Y-19751065D02*
X4730180Y-19655827D01*
X4730180Y-19655827D02*
X4730180Y-19465351D01*
X4730180Y-19465351D02*
X4777800Y-19370113D01*
X4777800Y-19370113D02*
X4825419Y-19322494D01*
X4825419Y-19322494D02*
X4920657Y-19274875D01*
X4920657Y-19274875D02*
X5206371Y-19274875D01*
X5206371Y-19274875D02*
X5301609Y-19322494D01*
X5301609Y-19322494D02*
X5349228Y-19370113D01*
X5349228Y-19370113D02*
X5396847Y-19465351D01*
X5396847Y-19465351D02*
X5396847Y-19655827D01*
X5396847Y-19655827D02*
X5349228Y-19751065D01*
X5396847Y-20036780D02*
X5396847Y-20417732D01*
X5730180Y-20179637D02*
X4873038Y-20179637D01*
X4873038Y-20179637D02*
X4777800Y-20227256D01*
X4777800Y-20227256D02*
X4730180Y-20322494D01*
X4730180Y-20322494D02*
X4730180Y-20417732D01*
X4730180Y-20893923D02*
X4777800Y-20798685D01*
X4777800Y-20798685D02*
X4825419Y-20751066D01*
X4825419Y-20751066D02*
X4920657Y-20703447D01*
X4920657Y-20703447D02*
X5206371Y-20703447D01*
X5206371Y-20703447D02*
X5301609Y-20751066D01*
X5301609Y-20751066D02*
X5349228Y-20798685D01*
X5349228Y-20798685D02*
X5396847Y-20893923D01*
X5396847Y-20893923D02*
X5396847Y-21036780D01*
X5396847Y-21036780D02*
X5349228Y-21132018D01*
X5349228Y-21132018D02*
X5301609Y-21179637D01*
X5301609Y-21179637D02*
X5206371Y-21227256D01*
X5206371Y-21227256D02*
X4920657Y-21227256D01*
X4920657Y-21227256D02*
X4825419Y-21179637D01*
X4825419Y-21179637D02*
X4777800Y-21132018D01*
X4777800Y-21132018D02*
X4730180Y-21036780D01*
X4730180Y-21036780D02*
X4730180Y-20893923D01*
X4730180Y-21655828D02*
X5396847Y-21655828D01*
X5206371Y-21655828D02*
X5301609Y-21703447D01*
X5301609Y-21703447D02*
X5349228Y-21751066D01*
X5349228Y-21751066D02*
X5396847Y-21846304D01*
X5396847Y-21846304D02*
X5396847Y-21941542D01*
X5396847Y-22941543D02*
X4730180Y-23179638D01*
X4730180Y-23179638D02*
X5396847Y-23417733D01*
X5730180Y-23989162D02*
X5730180Y-24084400D01*
X5730180Y-24084400D02*
X5682561Y-24179638D01*
X5682561Y-24179638D02*
X5634942Y-24227257D01*
X5634942Y-24227257D02*
X5539704Y-24274876D01*
X5539704Y-24274876D02*
X5349228Y-24322495D01*
X5349228Y-24322495D02*
X5111133Y-24322495D01*
X5111133Y-24322495D02*
X4920657Y-24274876D01*
X4920657Y-24274876D02*
X4825419Y-24227257D01*
X4825419Y-24227257D02*
X4777800Y-24179638D01*
X4777800Y-24179638D02*
X4730180Y-24084400D01*
X4730180Y-24084400D02*
X4730180Y-23989162D01*
X4730180Y-23989162D02*
X4777800Y-23893924D01*
X4777800Y-23893924D02*
X4825419Y-23846305D01*
X4825419Y-23846305D02*
X4920657Y-23798686D01*
X4920657Y-23798686D02*
X5111133Y-23751067D01*
X5111133Y-23751067D02*
X5349228Y-23751067D01*
X5349228Y-23751067D02*
X5539704Y-23798686D01*
X5539704Y-23798686D02*
X5634942Y-23846305D01*
X5634942Y-23846305D02*
X5682561Y-23893924D01*
X5682561Y-23893924D02*
X5730180Y-23989162D01*
X4825419Y-24751067D02*
X4777800Y-24798686D01*
X4777800Y-24798686D02*
X4730180Y-24751067D01*
X4730180Y-24751067D02*
X4777800Y-24703448D01*
X4777800Y-24703448D02*
X4825419Y-24751067D01*
X4825419Y-24751067D02*
X4730180Y-24751067D01*
X5634942Y-25179638D02*
X5682561Y-25227257D01*
X5682561Y-25227257D02*
X5730180Y-25322495D01*
X5730180Y-25322495D02*
X5730180Y-25560590D01*
X5730180Y-25560590D02*
X5682561Y-25655828D01*
X5682561Y-25655828D02*
X5634942Y-25703447D01*
X5634942Y-25703447D02*
X5539704Y-25751066D01*
X5539704Y-25751066D02*
X5444466Y-25751066D01*
X5444466Y-25751066D02*
X5301609Y-25703447D01*
X5301609Y-25703447D02*
X4730180Y-25132019D01*
X4730180Y-25132019D02*
X4730180Y-25751066D01*
X45439495Y-10066119D02*
X45439495Y-10875642D01*
X45439495Y-10875642D02*
X45487114Y-10970880D01*
X45487114Y-10970880D02*
X45534733Y-11018500D01*
X45534733Y-11018500D02*
X45629971Y-11066119D01*
X45629971Y-11066119D02*
X45820447Y-11066119D01*
X45820447Y-11066119D02*
X45915685Y-11018500D01*
X45915685Y-11018500D02*
X45963304Y-10970880D01*
X45963304Y-10970880D02*
X46010923Y-10875642D01*
X46010923Y-10875642D02*
X46010923Y-10066119D01*
X46963304Y-10066119D02*
X46487114Y-10066119D01*
X46487114Y-10066119D02*
X46439495Y-10542309D01*
X46439495Y-10542309D02*
X46487114Y-10494690D01*
X46487114Y-10494690D02*
X46582352Y-10447071D01*
X46582352Y-10447071D02*
X46820447Y-10447071D01*
X46820447Y-10447071D02*
X46915685Y-10494690D01*
X46915685Y-10494690D02*
X46963304Y-10542309D01*
X46963304Y-10542309D02*
X47010923Y-10637547D01*
X47010923Y-10637547D02*
X47010923Y-10875642D01*
X47010923Y-10875642D02*
X46963304Y-10970880D01*
X46963304Y-10970880D02*
X46915685Y-11018500D01*
X46915685Y-11018500D02*
X46820447Y-11066119D01*
X46820447Y-11066119D02*
X46582352Y-11066119D01*
X46582352Y-11066119D02*
X46487114Y-11018500D01*
X46487114Y-11018500D02*
X46439495Y-10970880D01*
X50045180Y-18338095D02*
X49235657Y-18338095D01*
X49235657Y-18338095D02*
X49140419Y-18385714D01*
X49140419Y-18385714D02*
X49092800Y-18433333D01*
X49092800Y-18433333D02*
X49045180Y-18528571D01*
X49045180Y-18528571D02*
X49045180Y-18719047D01*
X49045180Y-18719047D02*
X49092800Y-18814285D01*
X49092800Y-18814285D02*
X49140419Y-18861904D01*
X49140419Y-18861904D02*
X49235657Y-18909523D01*
X49235657Y-18909523D02*
X50045180Y-18909523D01*
X49711847Y-19814285D02*
X49045180Y-19814285D01*
X50092800Y-19576190D02*
X49378514Y-19338095D01*
X49378514Y-19338095D02*
X49378514Y-19957142D01*
X40461398Y-26954819D02*
X40461398Y-27764342D01*
X40461398Y-27764342D02*
X40509017Y-27859580D01*
X40509017Y-27859580D02*
X40556636Y-27907200D01*
X40556636Y-27907200D02*
X40651874Y-27954819D01*
X40651874Y-27954819D02*
X40842350Y-27954819D01*
X40842350Y-27954819D02*
X40937588Y-27907200D01*
X40937588Y-27907200D02*
X40985207Y-27859580D01*
X40985207Y-27859580D02*
X41032826Y-27764342D01*
X41032826Y-27764342D02*
X41032826Y-26954819D01*
X42032826Y-27954819D02*
X41461398Y-27954819D01*
X41747112Y-27954819D02*
X41747112Y-26954819D01*
X41747112Y-26954819D02*
X41651874Y-27097676D01*
X41651874Y-27097676D02*
X41556636Y-27192914D01*
X41556636Y-27192914D02*
X41461398Y-27240533D01*
X18328136Y-7659580D02*
X18280517Y-7707200D01*
X18280517Y-7707200D02*
X18137660Y-7754819D01*
X18137660Y-7754819D02*
X18042422Y-7754819D01*
X18042422Y-7754819D02*
X17899565Y-7707200D01*
X17899565Y-7707200D02*
X17804327Y-7611961D01*
X17804327Y-7611961D02*
X17756708Y-7516723D01*
X17756708Y-7516723D02*
X17709089Y-7326247D01*
X17709089Y-7326247D02*
X17709089Y-7183390D01*
X17709089Y-7183390D02*
X17756708Y-6992914D01*
X17756708Y-6992914D02*
X17804327Y-6897676D01*
X17804327Y-6897676D02*
X17899565Y-6802438D01*
X17899565Y-6802438D02*
X18042422Y-6754819D01*
X18042422Y-6754819D02*
X18137660Y-6754819D01*
X18137660Y-6754819D02*
X18280517Y-6802438D01*
X18280517Y-6802438D02*
X18328136Y-6850057D01*
X19280517Y-7754819D02*
X18709089Y-7754819D01*
X18994803Y-7754819D02*
X18994803Y-6754819D01*
X18994803Y-6754819D02*
X18899565Y-6897676D01*
X18899565Y-6897676D02*
X18804327Y-6992914D01*
X18804327Y-6992914D02*
X18709089Y-7040533D01*
X11058136Y-8454819D02*
X10724803Y-7978628D01*
X10486708Y-8454819D02*
X10486708Y-7454819D01*
X10486708Y-7454819D02*
X10867660Y-7454819D01*
X10867660Y-7454819D02*
X10962898Y-7502438D01*
X10962898Y-7502438D02*
X11010517Y-7550057D01*
X11010517Y-7550057D02*
X11058136Y-7645295D01*
X11058136Y-7645295D02*
X11058136Y-7788152D01*
X11058136Y-7788152D02*
X11010517Y-7883390D01*
X11010517Y-7883390D02*
X10962898Y-7931009D01*
X10962898Y-7931009D02*
X10867660Y-7978628D01*
X10867660Y-7978628D02*
X10486708Y-7978628D01*
X11534327Y-8454819D02*
X11724803Y-8454819D01*
X11724803Y-8454819D02*
X11820041Y-8407200D01*
X11820041Y-8407200D02*
X11867660Y-8359580D01*
X11867660Y-8359580D02*
X11962898Y-8216723D01*
X11962898Y-8216723D02*
X12010517Y-8026247D01*
X12010517Y-8026247D02*
X12010517Y-7645295D01*
X12010517Y-7645295D02*
X11962898Y-7550057D01*
X11962898Y-7550057D02*
X11915279Y-7502438D01*
X11915279Y-7502438D02*
X11820041Y-7454819D01*
X11820041Y-7454819D02*
X11629565Y-7454819D01*
X11629565Y-7454819D02*
X11534327Y-7502438D01*
X11534327Y-7502438D02*
X11486708Y-7550057D01*
X11486708Y-7550057D02*
X11439089Y-7645295D01*
X11439089Y-7645295D02*
X11439089Y-7883390D01*
X11439089Y-7883390D02*
X11486708Y-7978628D01*
X11486708Y-7978628D02*
X11534327Y-8026247D01*
X11534327Y-8026247D02*
X11629565Y-8073866D01*
X11629565Y-8073866D02*
X11820041Y-8073866D01*
X11820041Y-8073866D02*
X11915279Y-8026247D01*
X11915279Y-8026247D02*
X11962898Y-7978628D01*
X11962898Y-7978628D02*
X12010517Y-7883390D01*
X46274166Y-3154819D02*
X46274166Y-3869104D01*
X46274166Y-3869104D02*
X46226547Y-4011961D01*
X46226547Y-4011961D02*
X46131309Y-4107200D01*
X46131309Y-4107200D02*
X45988452Y-4154819D01*
X45988452Y-4154819D02*
X45893214Y-4154819D01*
X47274166Y-4154819D02*
X46702738Y-4154819D01*
X46988452Y-4154819D02*
X46988452Y-3154819D01*
X46988452Y-3154819D02*
X46893214Y-3297676D01*
X46893214Y-3297676D02*
X46797976Y-3392914D01*
X46797976Y-3392914D02*
X46702738Y-3440533D01*
X28232898Y-23354819D02*
X28232898Y-24164342D01*
X28232898Y-24164342D02*
X28280517Y-24259580D01*
X28280517Y-24259580D02*
X28328136Y-24307200D01*
X28328136Y-24307200D02*
X28423374Y-24354819D01*
X28423374Y-24354819D02*
X28613850Y-24354819D01*
X28613850Y-24354819D02*
X28709088Y-24307200D01*
X28709088Y-24307200D02*
X28756707Y-24259580D01*
X28756707Y-24259580D02*
X28804326Y-24164342D01*
X28804326Y-24164342D02*
X28804326Y-23354819D01*
X29185279Y-23354819D02*
X29804326Y-23354819D01*
X29804326Y-23354819D02*
X29470993Y-23735771D01*
X29470993Y-23735771D02*
X29613850Y-23735771D01*
X29613850Y-23735771D02*
X29709088Y-23783390D01*
X29709088Y-23783390D02*
X29756707Y-23831009D01*
X29756707Y-23831009D02*
X29804326Y-23926247D01*
X29804326Y-23926247D02*
X29804326Y-24164342D01*
X29804326Y-24164342D02*
X29756707Y-24259580D01*
X29756707Y-24259580D02*
X29709088Y-24307200D01*
X29709088Y-24307200D02*
X29613850Y-24354819D01*
X29613850Y-24354819D02*
X29328136Y-24354819D01*
X29328136Y-24354819D02*
X29232898Y-24307200D01*
X29232898Y-24307200D02*
X29185279Y-24259580D01*
X28461469Y-28654819D02*
X28461469Y-29369104D01*
X28461469Y-29369104D02*
X28413850Y-29511961D01*
X28413850Y-29511961D02*
X28318612Y-29607200D01*
X28318612Y-29607200D02*
X28175755Y-29654819D01*
X28175755Y-29654819D02*
X28080517Y-29654819D01*
X29366231Y-28988152D02*
X29366231Y-29654819D01*
X29128136Y-28607200D02*
X28890041Y-29321485D01*
X28890041Y-29321485D02*
X29509088Y-29321485D01*
X41228136Y-8659580D02*
X41180517Y-8707200D01*
X41180517Y-8707200D02*
X41037660Y-8754819D01*
X41037660Y-8754819D02*
X40942422Y-8754819D01*
X40942422Y-8754819D02*
X40799565Y-8707200D01*
X40799565Y-8707200D02*
X40704327Y-8611961D01*
X40704327Y-8611961D02*
X40656708Y-8516723D01*
X40656708Y-8516723D02*
X40609089Y-8326247D01*
X40609089Y-8326247D02*
X40609089Y-8183390D01*
X40609089Y-8183390D02*
X40656708Y-7992914D01*
X40656708Y-7992914D02*
X40704327Y-7897676D01*
X40704327Y-7897676D02*
X40799565Y-7802438D01*
X40799565Y-7802438D02*
X40942422Y-7754819D01*
X40942422Y-7754819D02*
X41037660Y-7754819D01*
X41037660Y-7754819D02*
X41180517Y-7802438D01*
X41180517Y-7802438D02*
X41228136Y-7850057D01*
X41561470Y-7754819D02*
X42228136Y-7754819D01*
X42228136Y-7754819D02*
X41799565Y-8754819D01*
X16861905Y-1954819D02*
X16861905Y-954819D01*
X16861905Y-954819D02*
X17100000Y-954819D01*
X17100000Y-954819D02*
X17242857Y-1002438D01*
X17242857Y-1002438D02*
X17338095Y-1097676D01*
X17338095Y-1097676D02*
X17385714Y-1192914D01*
X17385714Y-1192914D02*
X17433333Y-1383390D01*
X17433333Y-1383390D02*
X17433333Y-1526247D01*
X17433333Y-1526247D02*
X17385714Y-1716723D01*
X17385714Y-1716723D02*
X17338095Y-1811961D01*
X17338095Y-1811961D02*
X17242857Y-1907200D01*
X17242857Y-1907200D02*
X17100000Y-1954819D01*
X17100000Y-1954819D02*
X16861905Y-1954819D01*
X18290476Y-1288152D02*
X18290476Y-1954819D01*
X18052381Y-907200D02*
X17814286Y-1621485D01*
X17814286Y-1621485D02*
X18433333Y-1621485D01*
X33328136Y-24959580D02*
X33280517Y-25007200D01*
X33280517Y-25007200D02*
X33137660Y-25054819D01*
X33137660Y-25054819D02*
X33042422Y-25054819D01*
X33042422Y-25054819D02*
X32899565Y-25007200D01*
X32899565Y-25007200D02*
X32804327Y-24911961D01*
X32804327Y-24911961D02*
X32756708Y-24816723D01*
X32756708Y-24816723D02*
X32709089Y-24626247D01*
X32709089Y-24626247D02*
X32709089Y-24483390D01*
X32709089Y-24483390D02*
X32756708Y-24292914D01*
X32756708Y-24292914D02*
X32804327Y-24197676D01*
X32804327Y-24197676D02*
X32899565Y-24102438D01*
X32899565Y-24102438D02*
X33042422Y-24054819D01*
X33042422Y-24054819D02*
X33137660Y-24054819D01*
X33137660Y-24054819D02*
X33280517Y-24102438D01*
X33280517Y-24102438D02*
X33328136Y-24150057D01*
X33804327Y-25054819D02*
X33994803Y-25054819D01*
X33994803Y-25054819D02*
X34090041Y-25007200D01*
X34090041Y-25007200D02*
X34137660Y-24959580D01*
X34137660Y-24959580D02*
X34232898Y-24816723D01*
X34232898Y-24816723D02*
X34280517Y-24626247D01*
X34280517Y-24626247D02*
X34280517Y-24245295D01*
X34280517Y-24245295D02*
X34232898Y-24150057D01*
X34232898Y-24150057D02*
X34185279Y-24102438D01*
X34185279Y-24102438D02*
X34090041Y-24054819D01*
X34090041Y-24054819D02*
X33899565Y-24054819D01*
X33899565Y-24054819D02*
X33804327Y-24102438D01*
X33804327Y-24102438D02*
X33756708Y-24150057D01*
X33756708Y-24150057D02*
X33709089Y-24245295D01*
X33709089Y-24245295D02*
X33709089Y-24483390D01*
X33709089Y-24483390D02*
X33756708Y-24578628D01*
X33756708Y-24578628D02*
X33804327Y-24626247D01*
X33804327Y-24626247D02*
X33899565Y-24673866D01*
X33899565Y-24673866D02*
X34090041Y-24673866D01*
X34090041Y-24673866D02*
X34185279Y-24626247D01*
X34185279Y-24626247D02*
X34232898Y-24578628D01*
X34232898Y-24578628D02*
X34280517Y-24483390D01*
X34981945Y-29659580D02*
X34934326Y-29707200D01*
X34934326Y-29707200D02*
X34791469Y-29754819D01*
X34791469Y-29754819D02*
X34696231Y-29754819D01*
X34696231Y-29754819D02*
X34553374Y-29707200D01*
X34553374Y-29707200D02*
X34458136Y-29611961D01*
X34458136Y-29611961D02*
X34410517Y-29516723D01*
X34410517Y-29516723D02*
X34362898Y-29326247D01*
X34362898Y-29326247D02*
X34362898Y-29183390D01*
X34362898Y-29183390D02*
X34410517Y-28992914D01*
X34410517Y-28992914D02*
X34458136Y-28897676D01*
X34458136Y-28897676D02*
X34553374Y-28802438D01*
X34553374Y-28802438D02*
X34696231Y-28754819D01*
X34696231Y-28754819D02*
X34791469Y-28754819D01*
X34791469Y-28754819D02*
X34934326Y-28802438D01*
X34934326Y-28802438D02*
X34981945Y-28850057D01*
X35934326Y-29754819D02*
X35362898Y-29754819D01*
X35648612Y-29754819D02*
X35648612Y-28754819D01*
X35648612Y-28754819D02*
X35553374Y-28897676D01*
X35553374Y-28897676D02*
X35458136Y-28992914D01*
X35458136Y-28992914D02*
X35362898Y-29040533D01*
X36553374Y-28754819D02*
X36648612Y-28754819D01*
X36648612Y-28754819D02*
X36743850Y-28802438D01*
X36743850Y-28802438D02*
X36791469Y-28850057D01*
X36791469Y-28850057D02*
X36839088Y-28945295D01*
X36839088Y-28945295D02*
X36886707Y-29135771D01*
X36886707Y-29135771D02*
X36886707Y-29373866D01*
X36886707Y-29373866D02*
X36839088Y-29564342D01*
X36839088Y-29564342D02*
X36791469Y-29659580D01*
X36791469Y-29659580D02*
X36743850Y-29707200D01*
X36743850Y-29707200D02*
X36648612Y-29754819D01*
X36648612Y-29754819D02*
X36553374Y-29754819D01*
X36553374Y-29754819D02*
X36458136Y-29707200D01*
X36458136Y-29707200D02*
X36410517Y-29659580D01*
X36410517Y-29659580D02*
X36362898Y-29564342D01*
X36362898Y-29564342D02*
X36315279Y-29373866D01*
X36315279Y-29373866D02*
X36315279Y-29135771D01*
X36315279Y-29135771D02*
X36362898Y-28945295D01*
X36362898Y-28945295D02*
X36410517Y-28850057D01*
X36410517Y-28850057D02*
X36458136Y-28802438D01*
X36458136Y-28802438D02*
X36553374Y-28754819D01*
X39849622Y-16588094D02*
X38849622Y-16588094D01*
X38849622Y-16588094D02*
X38849622Y-16349999D01*
X38849622Y-16349999D02*
X38897241Y-16207142D01*
X38897241Y-16207142D02*
X38992479Y-16111904D01*
X38992479Y-16111904D02*
X39087717Y-16064285D01*
X39087717Y-16064285D02*
X39278193Y-16016666D01*
X39278193Y-16016666D02*
X39421050Y-16016666D01*
X39421050Y-16016666D02*
X39611526Y-16064285D01*
X39611526Y-16064285D02*
X39706764Y-16111904D01*
X39706764Y-16111904D02*
X39802003Y-16207142D01*
X39802003Y-16207142D02*
X39849622Y-16349999D01*
X39849622Y-16349999D02*
X39849622Y-16588094D01*
X38849622Y-15683332D02*
X38849622Y-15064285D01*
X38849622Y-15064285D02*
X39230574Y-15397618D01*
X39230574Y-15397618D02*
X39230574Y-15254761D01*
X39230574Y-15254761D02*
X39278193Y-15159523D01*
X39278193Y-15159523D02*
X39325812Y-15111904D01*
X39325812Y-15111904D02*
X39421050Y-15064285D01*
X39421050Y-15064285D02*
X39659145Y-15064285D01*
X39659145Y-15064285D02*
X39754383Y-15111904D01*
X39754383Y-15111904D02*
X39802003Y-15159523D01*
X39802003Y-15159523D02*
X39849622Y-15254761D01*
X39849622Y-15254761D02*
X39849622Y-15540475D01*
X39849622Y-15540475D02*
X39802003Y-15635713D01*
X39802003Y-15635713D02*
X39754383Y-15683332D01*
X24191470Y-5907200D02*
X24334327Y-5954819D01*
X24334327Y-5954819D02*
X24572422Y-5954819D01*
X24572422Y-5954819D02*
X24667660Y-5907200D01*
X24667660Y-5907200D02*
X24715279Y-5859580D01*
X24715279Y-5859580D02*
X24762898Y-5764342D01*
X24762898Y-5764342D02*
X24762898Y-5669104D01*
X24762898Y-5669104D02*
X24715279Y-5573866D01*
X24715279Y-5573866D02*
X24667660Y-5526247D01*
X24667660Y-5526247D02*
X24572422Y-5478628D01*
X24572422Y-5478628D02*
X24381946Y-5431009D01*
X24381946Y-5431009D02*
X24286708Y-5383390D01*
X24286708Y-5383390D02*
X24239089Y-5335771D01*
X24239089Y-5335771D02*
X24191470Y-5240533D01*
X24191470Y-5240533D02*
X24191470Y-5145295D01*
X24191470Y-5145295D02*
X24239089Y-5050057D01*
X24239089Y-5050057D02*
X24286708Y-5002438D01*
X24286708Y-5002438D02*
X24381946Y-4954819D01*
X24381946Y-4954819D02*
X24620041Y-4954819D01*
X24620041Y-4954819D02*
X24762898Y-5002438D01*
X25096232Y-4954819D02*
X25334327Y-5954819D01*
X25334327Y-5954819D02*
X25524803Y-5240533D01*
X25524803Y-5240533D02*
X25715279Y-5954819D01*
X25715279Y-5954819D02*
X25953375Y-4954819D01*
X26858136Y-5954819D02*
X26286708Y-5954819D01*
X26572422Y-5954819D02*
X26572422Y-4954819D01*
X26572422Y-4954819D02*
X26477184Y-5097676D01*
X26477184Y-5097676D02*
X26381946Y-5192914D01*
X26381946Y-5192914D02*
X26286708Y-5240533D01*
X42449622Y-16438094D02*
X41449622Y-16438094D01*
X41449622Y-16438094D02*
X41449622Y-16199999D01*
X41449622Y-16199999D02*
X41497241Y-16057142D01*
X41497241Y-16057142D02*
X41592479Y-15961904D01*
X41592479Y-15961904D02*
X41687717Y-15914285D01*
X41687717Y-15914285D02*
X41878193Y-15866666D01*
X41878193Y-15866666D02*
X42021050Y-15866666D01*
X42021050Y-15866666D02*
X42211526Y-15914285D01*
X42211526Y-15914285D02*
X42306764Y-15961904D01*
X42306764Y-15961904D02*
X42402003Y-16057142D01*
X42402003Y-16057142D02*
X42449622Y-16199999D01*
X42449622Y-16199999D02*
X42449622Y-16438094D01*
X41544860Y-15485713D02*
X41497241Y-15438094D01*
X41497241Y-15438094D02*
X41449622Y-15342856D01*
X41449622Y-15342856D02*
X41449622Y-15104761D01*
X41449622Y-15104761D02*
X41497241Y-15009523D01*
X41497241Y-15009523D02*
X41544860Y-14961904D01*
X41544860Y-14961904D02*
X41640098Y-14914285D01*
X41640098Y-14914285D02*
X41735336Y-14914285D01*
X41735336Y-14914285D02*
X41878193Y-14961904D01*
X41878193Y-14961904D02*
X42449622Y-15533332D01*
X42449622Y-15533332D02*
X42449622Y-14914285D01*
X11831582Y-28446819D02*
X11831582Y-29256342D01*
X11831582Y-29256342D02*
X11879201Y-29351580D01*
X11879201Y-29351580D02*
X11926820Y-29399200D01*
X11926820Y-29399200D02*
X12022058Y-29446819D01*
X12022058Y-29446819D02*
X12212534Y-29446819D01*
X12212534Y-29446819D02*
X12307772Y-29399200D01*
X12307772Y-29399200D02*
X12355391Y-29351580D01*
X12355391Y-29351580D02*
X12403010Y-29256342D01*
X12403010Y-29256342D02*
X12403010Y-28446819D01*
X12831582Y-29399200D02*
X12974439Y-29446819D01*
X12974439Y-29446819D02*
X13212534Y-29446819D01*
X13212534Y-29446819D02*
X13307772Y-29399200D01*
X13307772Y-29399200D02*
X13355391Y-29351580D01*
X13355391Y-29351580D02*
X13403010Y-29256342D01*
X13403010Y-29256342D02*
X13403010Y-29161104D01*
X13403010Y-29161104D02*
X13355391Y-29065866D01*
X13355391Y-29065866D02*
X13307772Y-29018247D01*
X13307772Y-29018247D02*
X13212534Y-28970628D01*
X13212534Y-28970628D02*
X13022058Y-28923009D01*
X13022058Y-28923009D02*
X12926820Y-28875390D01*
X12926820Y-28875390D02*
X12879201Y-28827771D01*
X12879201Y-28827771D02*
X12831582Y-28732533D01*
X12831582Y-28732533D02*
X12831582Y-28637295D01*
X12831582Y-28637295D02*
X12879201Y-28542057D01*
X12879201Y-28542057D02*
X12926820Y-28494438D01*
X12926820Y-28494438D02*
X13022058Y-28446819D01*
X13022058Y-28446819D02*
X13260153Y-28446819D01*
X13260153Y-28446819D02*
X13403010Y-28494438D01*
X14164915Y-28923009D02*
X14307772Y-28970628D01*
X14307772Y-28970628D02*
X14355391Y-29018247D01*
X14355391Y-29018247D02*
X14403010Y-29113485D01*
X14403010Y-29113485D02*
X14403010Y-29256342D01*
X14403010Y-29256342D02*
X14355391Y-29351580D01*
X14355391Y-29351580D02*
X14307772Y-29399200D01*
X14307772Y-29399200D02*
X14212534Y-29446819D01*
X14212534Y-29446819D02*
X13831582Y-29446819D01*
X13831582Y-29446819D02*
X13831582Y-28446819D01*
X13831582Y-28446819D02*
X14164915Y-28446819D01*
X14164915Y-28446819D02*
X14260153Y-28494438D01*
X14260153Y-28494438D02*
X14307772Y-28542057D01*
X14307772Y-28542057D02*
X14355391Y-28637295D01*
X14355391Y-28637295D02*
X14355391Y-28732533D01*
X14355391Y-28732533D02*
X14307772Y-28827771D01*
X14307772Y-28827771D02*
X14260153Y-28875390D01*
X14260153Y-28875390D02*
X14164915Y-28923009D01*
X14164915Y-28923009D02*
X13831582Y-28923009D01*
X15355391Y-29446819D02*
X14783963Y-29446819D01*
X15069677Y-29446819D02*
X15069677Y-28446819D01*
X15069677Y-28446819D02*
X14974439Y-28589676D01*
X14974439Y-28589676D02*
X14879201Y-28684914D01*
X14879201Y-28684914D02*
X14783963Y-28732533D01*
D11*
X43925100Y-12286900D02*
X43925100Y-15030100D01*
X43925100Y-15030100D02*
X44251360Y-15030100D01*
X45141760Y-12286900D02*
X43925100Y-12286900D01*
X45348640Y-15030100D02*
X45725960Y-15030100D01*
X46874040Y-15030100D02*
X47251360Y-15030100D01*
X48348640Y-15030100D02*
X48674900Y-15030100D01*
X48674900Y-12286900D02*
X47458240Y-12286900D01*
X48674900Y-15030100D02*
X48674900Y-12286900D01*
X45069900Y-16825100D02*
X45069900Y-17151360D01*
X45069900Y-18248640D02*
X45069900Y-18625960D01*
X45069900Y-19774040D02*
X45069900Y-20151360D01*
X45069900Y-21248640D02*
X45069900Y-21574900D01*
X45069900Y-21574900D02*
X47813100Y-21574900D01*
X47813100Y-16825100D02*
X45069900Y-16825100D01*
X47813100Y-18041760D02*
X47813100Y-16825100D01*
X47813100Y-21574900D02*
X47813100Y-20358240D01*
X38848403Y-22844300D02*
X38848403Y-25587500D01*
X38848403Y-25587500D02*
X40065063Y-25587500D01*
X39174663Y-22844300D02*
X38848403Y-22844300D01*
X40649263Y-22844300D02*
X40271943Y-22844300D01*
X42174663Y-22844300D02*
X41797343Y-22844300D01*
X42381543Y-25587500D02*
X43598203Y-25587500D01*
X43598203Y-22844300D02*
X43271943Y-22844300D01*
X43598203Y-25587500D02*
X43598203Y-22844300D01*
D12*
X16199639Y-6716500D02*
X15983967Y-6716500D01*
X16199639Y-7436500D02*
X15983967Y-7436500D01*
X11764803Y-9646359D02*
X11764803Y-9953641D01*
X12524803Y-9646359D02*
X12524803Y-9953641D01*
X37290000Y-2370000D02*
X37290000Y-5030000D01*
X42430000Y-2370000D02*
X37290000Y-2370000D01*
X42430000Y-2370000D02*
X42430000Y-5030000D01*
X42430000Y-5030000D02*
X37290000Y-5030000D01*
X43700000Y-2370000D02*
X45030000Y-2370000D01*
X45030000Y-2370000D02*
X45030000Y-3700000D01*
X28869803Y-22675000D02*
X25419803Y-22675000D01*
X28869803Y-22675000D02*
X30819803Y-22675000D01*
X28869803Y-27795000D02*
X26919803Y-27795000D01*
X28869803Y-27795000D02*
X30819803Y-27795000D01*
X36509803Y-5765000D02*
X36509803Y-7235000D01*
X36509803Y-7235000D02*
X38794803Y-7235000D01*
X38794803Y-5765000D02*
X36509803Y-5765000D01*
X11514803Y-14746359D02*
X11514803Y-15053641D01*
X12274803Y-14746359D02*
X12274803Y-15053641D01*
X35514803Y-7053641D02*
X35514803Y-6746359D01*
X36274803Y-7053641D02*
X36274803Y-6746359D01*
X23082303Y-26640000D02*
X21407303Y-26640000D01*
X23082303Y-26640000D02*
X23732303Y-26640000D01*
X23082303Y-29760000D02*
X22432303Y-29760000D01*
X23082303Y-29760000D02*
X23732303Y-29760000D01*
X34444803Y-23600000D02*
X34444803Y-23000000D01*
X35144803Y-22300000D02*
X36544803Y-22300000D01*
X36544803Y-24300000D02*
X35144803Y-24300000D01*
X37244803Y-23000000D02*
X37244803Y-23600000D01*
X34444803Y-23000000D02*
G75*
G02*
X35144803Y-22300000I699999J1D01*
G01*
X35144803Y-24300000D02*
G75*
G02*
X34444803Y-23600000I-1J699999D01*
G01*
X36544803Y-22300000D02*
G75*
G02*
X37244803Y-23000000I0J-700000D01*
G01*
X37244803Y-23600000D02*
G75*
G02*
X36544803Y-24300000I-700000J0D01*
G01*
X34604803Y-10040580D02*
X34604803Y-9759420D01*
X35624803Y-10040580D02*
X35624803Y-9759420D01*
X35738444Y-4620000D02*
X35431162Y-4620000D01*
X35738444Y-5380000D02*
X35431162Y-5380000D01*
X33848444Y-4620000D02*
X33541162Y-4620000D01*
X33848444Y-5380000D02*
X33541162Y-5380000D01*
X7134803Y-19737500D02*
X7134803Y-19087500D01*
X7134803Y-19737500D02*
X7134803Y-21412500D01*
X10254803Y-19737500D02*
X10254803Y-19087500D01*
X10254803Y-19737500D02*
X10254803Y-20387500D01*
X18079803Y-23690000D02*
X18079803Y-24492470D01*
X18079803Y-25107530D02*
X18079803Y-25910000D01*
X21824803Y-23690000D02*
X18079803Y-23690000D01*
X21824803Y-23690000D02*
X21824803Y-24236529D01*
X21824803Y-25363471D02*
X21824803Y-25910000D01*
X21824803Y-25910000D02*
X18079803Y-25910000D01*
X22584803Y-23690000D02*
X23344803Y-23690000D01*
X23344803Y-23690000D02*
X23344803Y-24800000D01*
X39734803Y-7153641D02*
X39734803Y-6846359D01*
X40494803Y-7153641D02*
X40494803Y-6846359D01*
X25684803Y-28540000D02*
X26794803Y-28540000D01*
X25684803Y-29300000D02*
X25684803Y-28540000D01*
X25684803Y-30060000D02*
X25684803Y-29995000D01*
X25684803Y-30060000D02*
X26231332Y-30060000D01*
X25684803Y-30060000D02*
X27904803Y-30060000D01*
X27358274Y-30060000D02*
X27904803Y-30060000D01*
X27904803Y-30060000D02*
X27904803Y-29995000D01*
D13*
G36*
X3564362Y-5934860D02*
G01*
X3570907Y-5940907D01*
X3593200Y-5969725D01*
X3600367Y-5999309D01*
X3591535Y-6033048D01*
X3565828Y-6074330D01*
X3523305Y-6125502D01*
X3482295Y-6173635D01*
X3435519Y-6231943D01*
X3390312Y-6291163D01*
X3369433Y-6319838D01*
X3336481Y-6364542D01*
X3306435Y-6402494D01*
X3282920Y-6429280D01*
X3270758Y-6439981D01*
X3227483Y-6450923D01*
X3184508Y-6440656D01*
X3159597Y-6422544D01*
X3138690Y-6395266D01*
X3131434Y-6365978D01*
X3138570Y-6331046D01*
X3160839Y-6286835D01*
X3198874Y-6229862D01*
X3247486Y-6163899D01*
X3297933Y-6099018D01*
X3346817Y-6039317D01*
X3390741Y-5988893D01*
X3426308Y-5951845D01*
X3438680Y-5940629D01*
X3481601Y-5916702D01*
X3524775Y-5914782D01*
X3564362Y-5934860D01*
G37*
G36*
X7094873Y-8614987D02*
G01*
X7120339Y-8632322D01*
X7144138Y-8659166D01*
X7152639Y-8692181D01*
X7145450Y-8733999D01*
X7122181Y-8787251D01*
X7088808Y-8844524D01*
X7014762Y-8955455D01*
X6934219Y-9063818D01*
X6852926Y-9162107D01*
X6807868Y-9211363D01*
X6759482Y-9257117D01*
X6719402Y-9283045D01*
X6684739Y-9289920D01*
X6652604Y-9278511D01*
X6629094Y-9259093D01*
X6608612Y-9234157D01*
X6599805Y-9209124D01*
X6603760Y-9180782D01*
X6621564Y-9145924D01*
X6654307Y-9101339D01*
X6701452Y-9045669D01*
X6747346Y-8990575D01*
X6799432Y-8923637D01*
X6851590Y-8852955D01*
X6897696Y-8786632D01*
X6901503Y-8780908D01*
X6948611Y-8711594D01*
X6986598Y-8661096D01*
X7017841Y-8627801D01*
X7044716Y-8610093D01*
X7069602Y-8606359D01*
X7094873Y-8614987D01*
G37*
G36*
X6328276Y-9427266D02*
G01*
X6355630Y-9453908D01*
X6373663Y-9489571D01*
X6377619Y-9514853D01*
X6374875Y-9537901D01*
X6364985Y-9559245D01*
X6345460Y-9580824D01*
X6313814Y-9604573D01*
X6267559Y-9632431D01*
X6204208Y-9666335D01*
X6143726Y-9697023D01*
X5964690Y-9777023D01*
X5777208Y-9842860D01*
X5586227Y-9893299D01*
X5396697Y-9927102D01*
X5213562Y-9943033D01*
X5155144Y-9944158D01*
X5107383Y-9943409D01*
X5076415Y-9939983D01*
X5055616Y-9932302D01*
X5038364Y-9918782D01*
X5035001Y-9915484D01*
X5011033Y-9877718D01*
X5006230Y-9850484D01*
X5017187Y-9809345D01*
X5035001Y-9785484D01*
X5060038Y-9766523D01*
X5091112Y-9758103D01*
X5121668Y-9756714D01*
X5185898Y-9754345D01*
X5265597Y-9747809D01*
X5353337Y-9737962D01*
X5441689Y-9725659D01*
X5523225Y-9711758D01*
X5539548Y-9708562D01*
X5707543Y-9666617D01*
X5876484Y-9607740D01*
X6050924Y-9530288D01*
X6094722Y-9508443D01*
X6155326Y-9478249D01*
X6209945Y-9452244D01*
X6254659Y-9432200D01*
X6285547Y-9419890D01*
X6297447Y-9416797D01*
X6328276Y-9427266D01*
G37*
G36*
X5168819Y-5635787D02*
G01*
X5236756Y-5636435D01*
X5443107Y-5660699D01*
X5644569Y-5707519D01*
X5842618Y-5777215D01*
X5984957Y-5842255D01*
X6120494Y-5916566D01*
X6244732Y-5998938D01*
X6363981Y-6093985D01*
X6484552Y-6206322D01*
X6489279Y-6211029D01*
X6617447Y-6349405D01*
X6727511Y-6491699D01*
X6821010Y-6640953D01*
X6899481Y-6800211D01*
X6964460Y-6972514D01*
X7017485Y-7160904D01*
X7052385Y-7325531D01*
X7058179Y-7334976D01*
X7073811Y-7347704D01*
X7101192Y-7364760D01*
X7142236Y-7387185D01*
X7198856Y-7416025D01*
X7272965Y-7452321D01*
X7366476Y-7497117D01*
X7370731Y-7499140D01*
X7451178Y-7537854D01*
X7525389Y-7574464D01*
X7590515Y-7607491D01*
X7643702Y-7635458D01*
X7682100Y-7656888D01*
X7702857Y-7670304D01*
X7705054Y-7672346D01*
X7710274Y-7680022D01*
X7714532Y-7691131D01*
X7717924Y-7707943D01*
X7720547Y-7732724D01*
X7722498Y-7767744D01*
X7723874Y-7815269D01*
X7724772Y-7877568D01*
X7725289Y-7956909D01*
X7725520Y-8055559D01*
X7725566Y-8152731D01*
X7725566Y-8609095D01*
X7696795Y-8637865D01*
X7662044Y-8660699D01*
X7633814Y-8666635D01*
X7615376Y-8660647D01*
X7579169Y-8643492D01*
X7527329Y-8616385D01*
X7461995Y-8580540D01*
X7385301Y-8537173D01*
X7299386Y-8487499D01*
X7206386Y-8432732D01*
X7108438Y-8374088D01*
X7007679Y-8312781D01*
X6962681Y-8285075D01*
X6951421Y-8289816D01*
X6938814Y-8310315D01*
X6938352Y-8311406D01*
X6865818Y-8471677D01*
X6788338Y-8614107D01*
X6702228Y-8744264D01*
X6603805Y-8867716D01*
X6489710Y-8989709D01*
X6336809Y-9129341D01*
X6177097Y-9248471D01*
X6008068Y-9348447D01*
X5827212Y-9430617D01*
X5632024Y-9496330D01*
X5473670Y-9535851D01*
X5428369Y-9545017D01*
X5385876Y-9551820D01*
X5341438Y-9556597D01*
X5290298Y-9559683D01*
X5227702Y-9561413D01*
X5148893Y-9562122D01*
X5100000Y-9562199D01*
X4988263Y-9561128D01*
X4893849Y-9557327D01*
X4810712Y-9549915D01*
X4732806Y-9538011D01*
X4654084Y-9520734D01*
X4568500Y-9497201D01*
X4491905Y-9473558D01*
X4298620Y-9399823D01*
X4114876Y-9305578D01*
X3942204Y-9192344D01*
X3782136Y-9061642D01*
X3636202Y-8914994D01*
X3505934Y-8753921D01*
X3392862Y-8579944D01*
X3298519Y-8394584D01*
X3231529Y-8221227D01*
X3200418Y-8122880D01*
X3176793Y-8036037D01*
X3159711Y-7954506D01*
X3148228Y-7872096D01*
X3141402Y-7782613D01*
X3138290Y-7679867D01*
X3138015Y-7637362D01*
X3321087Y-7637362D01*
X3330709Y-7785072D01*
X3363792Y-7984975D01*
X3418240Y-8177391D01*
X3492938Y-8360846D01*
X3586773Y-8533871D01*
X3698631Y-8694993D01*
X3827399Y-8842742D01*
X3971962Y-8975646D01*
X4131208Y-9092233D01*
X4304022Y-9191033D01*
X4441391Y-9252386D01*
X4633242Y-9316316D01*
X4827258Y-9357680D01*
X5021827Y-9377046D01*
X5215335Y-9374984D01*
X5406167Y-9352063D01*
X5592711Y-9308852D01*
X5773353Y-9245921D01*
X5946478Y-9163838D01*
X6110474Y-9063172D01*
X6263726Y-8944494D01*
X6404621Y-8808372D01*
X6531545Y-8655375D01*
X6642885Y-8486073D01*
X6650277Y-8473234D01*
X6686268Y-8406901D01*
X6717770Y-8342659D01*
X6743311Y-8284138D01*
X6761421Y-8234968D01*
X6770627Y-8198779D01*
X6769474Y-8179224D01*
X6757414Y-8170018D01*
X6727269Y-8150152D01*
X6681124Y-8120912D01*
X6621061Y-8083587D01*
X6549165Y-8039466D01*
X6467519Y-7989837D01*
X6378207Y-7935988D01*
X6307292Y-7893513D01*
X5856023Y-7623992D01*
X5852985Y-8214689D01*
X5849948Y-8805387D01*
X5813992Y-8835642D01*
X5782968Y-8857464D01*
X5755331Y-8863836D01*
X5724182Y-8854503D01*
X5685143Y-8830921D01*
X5669118Y-8819562D01*
X5635422Y-8795238D01*
X5585288Y-8758847D01*
X5519947Y-8711290D01*
X5440631Y-8653467D01*
X5348573Y-8586277D01*
X5245004Y-8510620D01*
X5131156Y-8427395D01*
X5008261Y-8337503D01*
X4877551Y-8241843D01*
X4740258Y-8141316D01*
X4597613Y-8036820D01*
X4508076Y-7971203D01*
X4363868Y-7865538D01*
X4224982Y-7763831D01*
X4092581Y-7666932D01*
X3967828Y-7575689D01*
X3851885Y-7490951D01*
X3745917Y-7413567D01*
X3651085Y-7344385D01*
X3568554Y-7284254D01*
X3527260Y-7254222D01*
X3845824Y-7254222D01*
X3851685Y-7260083D01*
X3851928Y-7259840D01*
X3865578Y-7259840D01*
X3866662Y-7261311D01*
X3869755Y-7264054D01*
X3873430Y-7267298D01*
X3875127Y-7268959D01*
X3886095Y-7277523D01*
X3914658Y-7298933D01*
X3959478Y-7332208D01*
X4019223Y-7376364D01*
X4092555Y-7430419D01*
X4178140Y-7493392D01*
X4274643Y-7564298D01*
X4380727Y-7642157D01*
X4495058Y-7725986D01*
X4616301Y-7814803D01*
X4743120Y-7907624D01*
X4769701Y-7927070D01*
X4897267Y-8020344D01*
X5019413Y-8109580D01*
X5134818Y-8193817D01*
X5242162Y-8272096D01*
X5340126Y-8343455D01*
X5427388Y-8406934D01*
X5502628Y-8461575D01*
X5564527Y-8506415D01*
X5611764Y-8540495D01*
X5643019Y-8562854D01*
X5656972Y-8572533D01*
X5657588Y-8572865D01*
X5658580Y-8561516D01*
X5659507Y-8528959D01*
X5660350Y-8477429D01*
X5661089Y-8409159D01*
X5661705Y-8326383D01*
X5662178Y-8231338D01*
X5662489Y-8126256D01*
X5662619Y-8013372D01*
X5662622Y-7994705D01*
X5662622Y-7416546D01*
X5691829Y-7389106D01*
X5723515Y-7369019D01*
X5754449Y-7361667D01*
X5770626Y-7367713D01*
X5806033Y-7385552D01*
X5859908Y-7414739D01*
X5931486Y-7454826D01*
X6020006Y-7505366D01*
X6124705Y-7565914D01*
X6244819Y-7636023D01*
X6379585Y-7715245D01*
X6528241Y-7803135D01*
X6690024Y-7899245D01*
X6864171Y-8003129D01*
X7049918Y-8114340D01*
X7246503Y-8232432D01*
X7406161Y-8328605D01*
X7538025Y-8408126D01*
X7538025Y-8099662D01*
X7538025Y-7791198D01*
X6423341Y-7258981D01*
X6271473Y-7186481D01*
X6125512Y-7116821D01*
X5986854Y-7050667D01*
X5856896Y-6988685D01*
X5737035Y-6931539D01*
X5628668Y-6879895D01*
X5533191Y-6834419D01*
X5452002Y-6795776D01*
X5386496Y-6764632D01*
X5338071Y-6741653D01*
X5308124Y-6727503D01*
X5298098Y-6722858D01*
X5295869Y-6733434D01*
X5293838Y-6765736D01*
X5292037Y-6818046D01*
X5290496Y-6888647D01*
X5289246Y-6975823D01*
X5288316Y-7077857D01*
X5287738Y-7193032D01*
X5287541Y-7318245D01*
X5287541Y-7917540D01*
X5258770Y-7946310D01*
X5230259Y-7966294D01*
X5200866Y-7975063D01*
X5199795Y-7975080D01*
X5183810Y-7969477D01*
X5148881Y-7953192D01*
X5096509Y-7927016D01*
X5028194Y-7891737D01*
X4945439Y-7848145D01*
X4849742Y-7797028D01*
X4742606Y-7739176D01*
X4625532Y-7675379D01*
X4528219Y-7621963D01*
X4393988Y-7548053D01*
X4278876Y-7484663D01*
X4181456Y-7431023D01*
X4100303Y-7386362D01*
X4033991Y-7349909D01*
X3981094Y-7320894D01*
X3940185Y-7298547D01*
X3909841Y-7282095D01*
X3888633Y-7270770D01*
X3875137Y-7263799D01*
X3867928Y-7260413D01*
X3865578Y-7259840D01*
X3851928Y-7259840D01*
X3857545Y-7254222D01*
X3851685Y-7248361D01*
X3845824Y-7254222D01*
X3527260Y-7254222D01*
X3499487Y-7234023D01*
X3445046Y-7194541D01*
X3406395Y-7166655D01*
X3384696Y-7151215D01*
X3380220Y-7148257D01*
X3376724Y-7159707D01*
X3369843Y-7188387D01*
X3360936Y-7228568D01*
X3359070Y-7237301D01*
X3328390Y-7437111D01*
X3321087Y-7637362D01*
X3138015Y-7637362D01*
X3137812Y-7605860D01*
X3138535Y-7506624D01*
X3141284Y-7423434D01*
X3146881Y-7349571D01*
X3156150Y-7278313D01*
X3169914Y-7202941D01*
X3188996Y-7116734D01*
X3206722Y-7043239D01*
X3205565Y-7034789D01*
X3197448Y-7022775D01*
X3180672Y-7005816D01*
X3153538Y-6982533D01*
X3114347Y-6951544D01*
X3061399Y-6911469D01*
X2992995Y-6860928D01*
X2956429Y-6834265D01*
X3498830Y-6834265D01*
X3499349Y-6835466D01*
X3510069Y-6841683D01*
X3539755Y-6858329D01*
X3586832Y-6884534D01*
X3649726Y-6919426D01*
X3726863Y-6962135D01*
X3816669Y-7011789D01*
X3851685Y-7031129D01*
X3917570Y-7067519D01*
X4027992Y-7128453D01*
X4146361Y-7193720D01*
X4271102Y-7262451D01*
X4298951Y-7277788D01*
X5094140Y-7715697D01*
X5100000Y-7117628D01*
X5105861Y-6519559D01*
X5133532Y-6497158D01*
X5164262Y-6480569D01*
X5192139Y-6474798D01*
X5207459Y-6479758D01*
X5242203Y-6494104D01*
X5294671Y-6517055D01*
X5298098Y-6518595D01*
X5363164Y-6547829D01*
X5445982Y-6585646D01*
X5541425Y-6629724D01*
X5647796Y-6679282D01*
X5763393Y-6733538D01*
X5886519Y-6791711D01*
X6015472Y-6853021D01*
X6031701Y-6860764D01*
X6160472Y-6922173D01*
X6282979Y-6980504D01*
X6397599Y-7034988D01*
X6502705Y-7084856D01*
X6596672Y-7129341D01*
X6677874Y-7167673D01*
X6744685Y-7199085D01*
X6795480Y-7222807D01*
X6828634Y-7238073D01*
X6842521Y-7244113D01*
X6842845Y-7244173D01*
X6841953Y-7231421D01*
X6835322Y-7201572D01*
X6824419Y-7159836D01*
X6810710Y-7111424D01*
X6795663Y-7061545D01*
X6780744Y-7015412D01*
X6769542Y-6983783D01*
X6690684Y-6803801D01*
X6593980Y-6636796D01*
X6477713Y-6480124D01*
X6354578Y-6345422D01*
X6202760Y-6208419D01*
X6042218Y-6092775D01*
X5871507Y-5997722D01*
X5689185Y-5922493D01*
X5493806Y-5866318D01*
X5426174Y-5851823D01*
X5303988Y-5834024D01*
X5168819Y-5825154D01*
X5029361Y-5825213D01*
X4894306Y-5834200D01*
X4773827Y-5851823D01*
X4572791Y-5902618D01*
X4382586Y-5973825D01*
X4201049Y-6066347D01*
X4087146Y-6138023D01*
X4014375Y-6192600D01*
X3934363Y-6261469D01*
X3852337Y-6339405D01*
X3773524Y-6421180D01*
X3703150Y-6501569D01*
X3646442Y-6575344D01*
X3639037Y-6586109D01*
X3604056Y-6639605D01*
X3570881Y-6693315D01*
X3541641Y-6743438D01*
X3518466Y-6786172D01*
X3503486Y-6817715D01*
X3498830Y-6834265D01*
X2956429Y-6834265D01*
X2907435Y-6798540D01*
X2889290Y-6785371D01*
X2789782Y-6713146D01*
X2707609Y-6653256D01*
X2641112Y-6604296D01*
X2588633Y-6564862D01*
X2548513Y-6533547D01*
X2519093Y-6508947D01*
X2498715Y-6489656D01*
X2485720Y-6474269D01*
X2478451Y-6461380D01*
X2475248Y-6449585D01*
X2474452Y-6437477D01*
X2474435Y-6433861D01*
X2480981Y-6399491D01*
X2504006Y-6370129D01*
X2510498Y-6364447D01*
X2538346Y-6344925D01*
X2562102Y-6334626D01*
X2566174Y-6334149D01*
X2580670Y-6339655D01*
X2613193Y-6355299D01*
X2661295Y-6379798D01*
X2722528Y-6411872D01*
X2794445Y-6450239D01*
X2874599Y-6493619D01*
X2954753Y-6537539D01*
X3323718Y-6740882D01*
X3378994Y-6642277D01*
X3380220Y-6640246D01*
X3448589Y-6526962D01*
X3523750Y-6421047D01*
X3609602Y-6317874D01*
X3711030Y-6211029D01*
X3873336Y-6063880D01*
X4044291Y-5938505D01*
X4224182Y-5834780D01*
X4413295Y-5752576D01*
X4611917Y-5691769D01*
X4820337Y-5652233D01*
X5024037Y-5634407D01*
X5168819Y-5635787D01*
G37*
D12*
X7684803Y-13040000D02*
X8794803Y-13040000D01*
X7684803Y-13800000D02*
X7684803Y-13040000D01*
X7684803Y-14560000D02*
X7684803Y-17035000D01*
X7684803Y-14560000D02*
X8231332Y-14560000D01*
X7684803Y-17035000D02*
X8487273Y-17035000D01*
X9102333Y-17035000D02*
X9904803Y-17035000D01*
X9358274Y-14560000D02*
X9904803Y-14560000D01*
X9904803Y-14560000D02*
X9904803Y-17035000D01*
X40784803Y-10407836D02*
X40784803Y-10192164D01*
X41504803Y-10407836D02*
X41504803Y-10192164D01*
X16415000Y-2465000D02*
X16415000Y-3935000D01*
X16415000Y-3935000D02*
X18700000Y-3935000D01*
X18700000Y-2465000D02*
X16415000Y-2465000D01*
X33134803Y-22692164D02*
X33134803Y-22907836D01*
X33854803Y-22692164D02*
X33854803Y-22907836D01*
X34909803Y-15490000D02*
X34909803Y-16292470D01*
X34909803Y-16907530D02*
X34909803Y-17710000D01*
X36114803Y-15490000D02*
X34909803Y-15490000D01*
X36114803Y-15490000D02*
X36114803Y-16036529D01*
X36114803Y-17163471D02*
X36114803Y-17710000D01*
X36114803Y-17710000D02*
X34909803Y-17710000D01*
X36874803Y-15490000D02*
X37634803Y-15490000D01*
X37634803Y-15490000D02*
X37634803Y-16600000D01*
X31094803Y-29985000D02*
X33804803Y-29985000D01*
X33804803Y-28415000D02*
X31094803Y-28415000D01*
X33804803Y-29985000D02*
X33804803Y-28415000D01*
X49392164Y-17140000D02*
X49607836Y-17140000D01*
X49392164Y-17860000D02*
X49607836Y-17860000D01*
X31753641Y-6820000D02*
X31446359Y-6820000D01*
X31753641Y-7580000D02*
X31446359Y-7580000D01*
X15056803Y-4441500D02*
X15056803Y-6311500D01*
X15056803Y-6311500D02*
X19141803Y-6311500D01*
X19141803Y-4441500D02*
X15056803Y-4441500D01*
X9214803Y-10003641D02*
X9214803Y-9696359D01*
X9974803Y-10003641D02*
X9974803Y-9696359D01*
X12338444Y-11520000D02*
X12031162Y-11520000D01*
X12338444Y-12280000D02*
X12031162Y-12280000D01*
X10994803Y-22000000D02*
X10994803Y-20600000D01*
X11694803Y-19900000D02*
X12294803Y-19900000D01*
X12294803Y-22700000D02*
X11694803Y-22700000D01*
X12994803Y-20600000D02*
X12994803Y-22000000D01*
X10994803Y-20600000D02*
G75*
G02*
X11694803Y-19900000I700000J0D01*
G01*
X11694803Y-22700000D02*
G75*
G02*
X10994803Y-22000000I-1J699999D01*
G01*
X12294803Y-19900000D02*
G75*
G02*
X12994803Y-20600000I0J-700000D01*
G01*
X12994803Y-22000000D02*
G75*
G02*
X12294803Y-22700000I-699999J-1D01*
G01*
X40840000Y-19627836D02*
X40840000Y-19412164D01*
X41560000Y-19627836D02*
X41560000Y-19412164D01*
X38294803Y-18110000D02*
X38294803Y-14100000D01*
X38294803Y-18110000D02*
X40294803Y-18110000D01*
X40294803Y-18110000D02*
X40294803Y-14100000D01*
X33791162Y-25320000D02*
X34098444Y-25320000D01*
X33791162Y-26080000D02*
X34098444Y-26080000D01*
X35557303Y-20535000D02*
X39642303Y-20535000D01*
X39642303Y-18665000D02*
X35557303Y-18665000D01*
X39642303Y-20535000D02*
X39642303Y-18665000D01*
X42807836Y-20340000D02*
X42592164Y-20340000D01*
X42807836Y-21060000D02*
X42592164Y-21060000D01*
X33344803Y-6756359D02*
X33344803Y-7063641D01*
X34104803Y-6756359D02*
X34104803Y-7063641D01*
X34849803Y-12290000D02*
X34849803Y-13092470D01*
X34849803Y-13707530D02*
X34849803Y-14510000D01*
X36054803Y-12290000D02*
X34849803Y-12290000D01*
X36054803Y-12290000D02*
X36054803Y-12836529D01*
X36054803Y-13963471D02*
X36054803Y-14510000D01*
X36054803Y-14510000D02*
X34849803Y-14510000D01*
X36814803Y-12290000D02*
X37574803Y-12290000D01*
X37574803Y-12290000D02*
X37574803Y-13400000D01*
D14*
X28113417Y-17275877D02*
X28137130Y-17290647D01*
X28163781Y-17312227D01*
X28163781Y-17633773D01*
X28163696Y-17727830D01*
X28163332Y-17801932D01*
X28162527Y-17858704D01*
X28161116Y-17900768D01*
X28158936Y-17930748D01*
X28155824Y-17951267D01*
X28151617Y-17964949D01*
X28146151Y-17974416D01*
X28142275Y-17979082D01*
X28110837Y-17999575D01*
X28075036Y-17998739D01*
X28043676Y-17981264D01*
X28017025Y-17959684D01*
X28017025Y-17312227D01*
X28043676Y-17290647D01*
X28069397Y-17274949D01*
X28090403Y-17269067D01*
X28113417Y-17275877D01*
G36*
X28113417Y-17275877D02*
G01*
X28137130Y-17290647D01*
X28163781Y-17312227D01*
X28163781Y-17633773D01*
X28163696Y-17727830D01*
X28163332Y-17801932D01*
X28162527Y-17858704D01*
X28161116Y-17900768D01*
X28158936Y-17930748D01*
X28155824Y-17951267D01*
X28151617Y-17964949D01*
X28146151Y-17974416D01*
X28142275Y-17979082D01*
X28110837Y-17999575D01*
X28075036Y-17998739D01*
X28043676Y-17981264D01*
X28017025Y-17959684D01*
X28017025Y-17312227D01*
X28043676Y-17290647D01*
X28069397Y-17274949D01*
X28090403Y-17269067D01*
X28113417Y-17275877D01*
G37*
X21000981Y-17291645D02*
X21007561Y-17299218D01*
X21012724Y-17308987D01*
X21016639Y-17323571D01*
X21019479Y-17345585D01*
X21021416Y-17377648D01*
X21022620Y-17422375D01*
X21023264Y-17482385D01*
X21023519Y-17560294D01*
X21023558Y-17635956D01*
X21023489Y-17729802D01*
X21023165Y-17803689D01*
X21022417Y-17860232D01*
X21021071Y-17902049D01*
X21018957Y-17931757D01*
X21015903Y-17951973D01*
X21011737Y-17965314D01*
X21006287Y-17974398D01*
X21000981Y-17980267D01*
X20967977Y-17999947D01*
X20932812Y-17998181D01*
X20901348Y-17976717D01*
X20894119Y-17968337D01*
X20888469Y-17958614D01*
X20884204Y-17944861D01*
X20881130Y-17924389D01*
X20879051Y-17894512D01*
X20877773Y-17852541D01*
X20877102Y-17795789D01*
X20876844Y-17721567D01*
X20876803Y-17637537D01*
X20876803Y-17324485D01*
X20904512Y-17296776D01*
X20938666Y-17273463D01*
X20971797Y-17272623D01*
X21000981Y-17291645D01*
G36*
X21000981Y-17291645D02*
G01*
X21007561Y-17299218D01*
X21012724Y-17308987D01*
X21016639Y-17323571D01*
X21019479Y-17345585D01*
X21021416Y-17377648D01*
X21022620Y-17422375D01*
X21023264Y-17482385D01*
X21023519Y-17560294D01*
X21023558Y-17635956D01*
X21023489Y-17729802D01*
X21023165Y-17803689D01*
X21022417Y-17860232D01*
X21021071Y-17902049D01*
X21018957Y-17931757D01*
X21015903Y-17951973D01*
X21011737Y-17965314D01*
X21006287Y-17974398D01*
X21000981Y-17980267D01*
X20967977Y-17999947D01*
X20932812Y-17998181D01*
X20901348Y-17976717D01*
X20894119Y-17968337D01*
X20888469Y-17958614D01*
X20884204Y-17944861D01*
X20881130Y-17924389D01*
X20879051Y-17894512D01*
X20877773Y-17852541D01*
X20877102Y-17795789D01*
X20876844Y-17721567D01*
X20876803Y-17637537D01*
X20876803Y-17324485D01*
X20904512Y-17296776D01*
X20938666Y-17273463D01*
X20971797Y-17272623D01*
X21000981Y-17291645D01*
G37*
X21651760Y-12026571D02*
X21748035Y-12050809D01*
X21834619Y-12093641D01*
X21909430Y-12153419D01*
X21970385Y-12228494D01*
X22015404Y-12317220D01*
X22041667Y-12413530D01*
X22047517Y-12510795D01*
X22032663Y-12604654D01*
X21998963Y-12692511D01*
X21948275Y-12771770D01*
X21882458Y-12839836D01*
X21803369Y-12894112D01*
X21712869Y-12932002D01*
X21661603Y-12944426D01*
X21617105Y-12951947D01*
X21582804Y-12954919D01*
X21549843Y-12953094D01*
X21509369Y-12946225D01*
X21476272Y-12939250D01*
X21382856Y-12907741D01*
X21299184Y-12856617D01*
X21227138Y-12787429D01*
X21168603Y-12701728D01*
X21154655Y-12674489D01*
X21138217Y-12638122D01*
X21127909Y-12607582D01*
X21122343Y-12575450D01*
X21120134Y-12534307D01*
X21119855Y-12488222D01*
X21123942Y-12403865D01*
X21137357Y-12334586D01*
X21162547Y-12273961D01*
X21201957Y-12215567D01*
X21240505Y-12171302D01*
X21312397Y-12105484D01*
X21387490Y-12060053D01*
X21470241Y-12032850D01*
X21547875Y-12022576D01*
X21651760Y-12026571D01*
G36*
X21651760Y-12026571D02*
G01*
X21748035Y-12050809D01*
X21834619Y-12093641D01*
X21909430Y-12153419D01*
X21970385Y-12228494D01*
X22015404Y-12317220D01*
X22041667Y-12413530D01*
X22047517Y-12510795D01*
X22032663Y-12604654D01*
X21998963Y-12692511D01*
X21948275Y-12771770D01*
X21882458Y-12839836D01*
X21803369Y-12894112D01*
X21712869Y-12932002D01*
X21661603Y-12944426D01*
X21617105Y-12951947D01*
X21582804Y-12954919D01*
X21549843Y-12953094D01*
X21509369Y-12946225D01*
X21476272Y-12939250D01*
X21382856Y-12907741D01*
X21299184Y-12856617D01*
X21227138Y-12787429D01*
X21168603Y-12701728D01*
X21154655Y-12674489D01*
X21138217Y-12638122D01*
X21127909Y-12607582D01*
X21122343Y-12575450D01*
X21120134Y-12534307D01*
X21119855Y-12488222D01*
X21123942Y-12403865D01*
X21137357Y-12334586D01*
X21162547Y-12273961D01*
X21201957Y-12215567D01*
X21240505Y-12171302D01*
X21312397Y-12105484D01*
X21387490Y-12060053D01*
X21470241Y-12032850D01*
X21547875Y-12022576D01*
X21651760Y-12026571D01*
G37*
X28887868Y-17269163D02*
X28966575Y-17269542D01*
X29027666Y-17270333D01*
X29073620Y-17271670D01*
X29106917Y-17273683D01*
X29130039Y-17276506D01*
X29145465Y-17280269D01*
X29155674Y-17285105D01*
X29160616Y-17288822D01*
X29186260Y-17321358D01*
X29189362Y-17355138D01*
X29173514Y-17385826D01*
X29163151Y-17398089D01*
X29151999Y-17406450D01*
X29135838Y-17411657D01*
X29110445Y-17414457D01*
X29071601Y-17415596D01*
X29015083Y-17415821D01*
X29003983Y-17415822D01*
X28858047Y-17415822D01*
X28858047Y-17686756D01*
X28857951Y-17772154D01*
X28857514Y-17837864D01*
X28856515Y-17886774D01*
X28854731Y-17921773D01*
X28851940Y-17945749D01*
X28847920Y-17961593D01*
X28842448Y-17972191D01*
X28835469Y-17980267D01*
X28802537Y-18000112D01*
X28768157Y-17998548D01*
X28736979Y-17975906D01*
X28734689Y-17973100D01*
X28727232Y-17962492D01*
X28721550Y-17950081D01*
X28717404Y-17932850D01*
X28714553Y-17907784D01*
X28712757Y-17871867D01*
X28711775Y-17822083D01*
X28711367Y-17755417D01*
X28711292Y-17679589D01*
X28711292Y-17415822D01*
X28571930Y-17415822D01*
X28512125Y-17415418D01*
X28470721Y-17413840D01*
X28443551Y-17410547D01*
X28426449Y-17404992D01*
X28415246Y-17396631D01*
X28413886Y-17395178D01*
X28397528Y-17361939D01*
X28398975Y-17324362D01*
X28417781Y-17291645D01*
X28425053Y-17285298D01*
X28434430Y-17280266D01*
X28448412Y-17276396D01*
X28469499Y-17273537D01*
X28500192Y-17271535D01*
X28542992Y-17270239D01*
X28600398Y-17269498D01*
X28674913Y-17269158D01*
X28769036Y-17269068D01*
X28789063Y-17269067D01*
X28887868Y-17269163D01*
G36*
X28887868Y-17269163D02*
G01*
X28966575Y-17269542D01*
X29027666Y-17270333D01*
X29073620Y-17271670D01*
X29106917Y-17273683D01*
X29130039Y-17276506D01*
X29145465Y-17280269D01*
X29155674Y-17285105D01*
X29160616Y-17288822D01*
X29186260Y-17321358D01*
X29189362Y-17355138D01*
X29173514Y-17385826D01*
X29163151Y-17398089D01*
X29151999Y-17406450D01*
X29135838Y-17411657D01*
X29110445Y-17414457D01*
X29071601Y-17415596D01*
X29015083Y-17415821D01*
X29003983Y-17415822D01*
X28858047Y-17415822D01*
X28858047Y-17686756D01*
X28857951Y-17772154D01*
X28857514Y-17837864D01*
X28856515Y-17886774D01*
X28854731Y-17921773D01*
X28851940Y-17945749D01*
X28847920Y-17961593D01*
X28842448Y-17972191D01*
X28835469Y-17980267D01*
X28802537Y-18000112D01*
X28768157Y-17998548D01*
X28736979Y-17975906D01*
X28734689Y-17973100D01*
X28727232Y-17962492D01*
X28721550Y-17950081D01*
X28717404Y-17932850D01*
X28714553Y-17907784D01*
X28712757Y-17871867D01*
X28711775Y-17822083D01*
X28711367Y-17755417D01*
X28711292Y-17679589D01*
X28711292Y-17415822D01*
X28571930Y-17415822D01*
X28512125Y-17415418D01*
X28470721Y-17413840D01*
X28443551Y-17410547D01*
X28426449Y-17404992D01*
X28415246Y-17396631D01*
X28413886Y-17395178D01*
X28397528Y-17361939D01*
X28398975Y-17324362D01*
X28417781Y-17291645D01*
X28425053Y-17285298D01*
X28434430Y-17280266D01*
X28448412Y-17276396D01*
X28469499Y-17273537D01*
X28500192Y-17271535D01*
X28542992Y-17270239D01*
X28600398Y-17269498D01*
X28674913Y-17269158D01*
X28769036Y-17269068D01*
X28789063Y-17269067D01*
X28887868Y-17269163D01*
G37*
X30153626Y-17274533D02*
X30185005Y-17296776D01*
X30212714Y-17324485D01*
X30212714Y-17633920D01*
X30212641Y-17725799D01*
X30212298Y-17797840D01*
X30211495Y-17852780D01*
X30210044Y-17893360D01*
X30207755Y-17922317D01*
X30204439Y-17942391D01*
X30199908Y-17956321D01*
X30193972Y-17966845D01*
X30189317Y-17973100D01*
X30158586Y-17997673D01*
X30123299Y-18000341D01*
X30091048Y-17985271D01*
X30080391Y-17976374D01*
X30073267Y-17964557D01*
X30068970Y-17945526D01*
X30066794Y-17914992D01*
X30066031Y-17868662D01*
X30065958Y-17832871D01*
X30065958Y-17698045D01*
X29569247Y-17698045D01*
X29569247Y-17820700D01*
X29568734Y-17876787D01*
X29566679Y-17915333D01*
X29562311Y-17941361D01*
X29554859Y-17959897D01*
X29545850Y-17973100D01*
X29514947Y-17997604D01*
X29479999Y-18000506D01*
X29446541Y-17983089D01*
X29437407Y-17973959D01*
X29430955Y-17961855D01*
X29426700Y-17943001D01*
X29424155Y-17913620D01*
X29422832Y-17869937D01*
X29422246Y-17808175D01*
X29422178Y-17794000D01*
X29421694Y-17677631D01*
X29421444Y-17581727D01*
X29421526Y-17504177D01*
X29422034Y-17442869D01*
X29423065Y-17395690D01*
X29424716Y-17360530D01*
X29427082Y-17335276D01*
X29430260Y-17317817D01*
X29434347Y-17306041D01*
X29439437Y-17297835D01*
X29445069Y-17291645D01*
X29476931Y-17271844D01*
X29510160Y-17274533D01*
X29541538Y-17296776D01*
X29554236Y-17311126D01*
X29562329Y-17326978D01*
X29566845Y-17349554D01*
X29568809Y-17384078D01*
X29569247Y-17435776D01*
X29569247Y-17551289D01*
X30065958Y-17551289D01*
X30065958Y-17432756D01*
X30066465Y-17378148D01*
X30068501Y-17341275D01*
X30072838Y-17317307D01*
X30080250Y-17301415D01*
X30088536Y-17291645D01*
X30120397Y-17271844D01*
X30153626Y-17274533D01*
G36*
X30153626Y-17274533D02*
G01*
X30185005Y-17296776D01*
X30212714Y-17324485D01*
X30212714Y-17633920D01*
X30212641Y-17725799D01*
X30212298Y-17797840D01*
X30211495Y-17852780D01*
X30210044Y-17893360D01*
X30207755Y-17922317D01*
X30204439Y-17942391D01*
X30199908Y-17956321D01*
X30193972Y-17966845D01*
X30189317Y-17973100D01*
X30158586Y-17997673D01*
X30123299Y-18000341D01*
X30091048Y-17985271D01*
X30080391Y-17976374D01*
X30073267Y-17964557D01*
X30068970Y-17945526D01*
X30066794Y-17914992D01*
X30066031Y-17868662D01*
X30065958Y-17832871D01*
X30065958Y-17698045D01*
X29569247Y-17698045D01*
X29569247Y-17820700D01*
X29568734Y-17876787D01*
X29566679Y-17915333D01*
X29562311Y-17941361D01*
X29554859Y-17959897D01*
X29545850Y-17973100D01*
X29514947Y-17997604D01*
X29479999Y-18000506D01*
X29446541Y-17983089D01*
X29437407Y-17973959D01*
X29430955Y-17961855D01*
X29426700Y-17943001D01*
X29424155Y-17913620D01*
X29422832Y-17869937D01*
X29422246Y-17808175D01*
X29422178Y-17794000D01*
X29421694Y-17677631D01*
X29421444Y-17581727D01*
X29421526Y-17504177D01*
X29422034Y-17442869D01*
X29423065Y-17395690D01*
X29424716Y-17360530D01*
X29427082Y-17335276D01*
X29430260Y-17317817D01*
X29434347Y-17306041D01*
X29439437Y-17297835D01*
X29445069Y-17291645D01*
X29476931Y-17271844D01*
X29510160Y-17274533D01*
X29541538Y-17296776D01*
X29554236Y-17311126D01*
X29562329Y-17326978D01*
X29566845Y-17349554D01*
X29568809Y-17384078D01*
X29569247Y-17435776D01*
X29569247Y-17551289D01*
X30065958Y-17551289D01*
X30065958Y-17432756D01*
X30066465Y-17378148D01*
X30068501Y-17341275D01*
X30072838Y-17317307D01*
X30080250Y-17301415D01*
X30088536Y-17291645D01*
X30120397Y-17271844D01*
X30153626Y-17274533D01*
G37*
X24943112Y-17269275D02*
X25072091Y-17273636D01*
X25181794Y-17286861D01*
X25274029Y-17309741D01*
X25350605Y-17343070D01*
X25413330Y-17387638D01*
X25464015Y-17444236D01*
X25504466Y-17513658D01*
X25505262Y-17515351D01*
X25529404Y-17577483D01*
X25538006Y-17632509D01*
X25531034Y-17687887D01*
X25508457Y-17751073D01*
X25504175Y-17760689D01*
X25474975Y-17816966D01*
X25442159Y-17860451D01*
X25399805Y-17897417D01*
X25341993Y-17934135D01*
X25338634Y-17936052D01*
X25288307Y-17960227D01*
X25231424Y-17978282D01*
X25164330Y-17990839D01*
X25083368Y-17998522D01*
X24984885Y-18001953D01*
X24950089Y-18002251D01*
X24784397Y-18002845D01*
X24761000Y-17973100D01*
X24754060Y-17963319D01*
X24748645Y-17951897D01*
X24744568Y-17936095D01*
X24741640Y-17913175D01*
X24739670Y-17880396D01*
X24739028Y-17856089D01*
X24895647Y-17856089D01*
X24989529Y-17856089D01*
X25044467Y-17854483D01*
X25100863Y-17850255D01*
X25147148Y-17844292D01*
X25149942Y-17843790D01*
X25232151Y-17821736D01*
X25295917Y-17788600D01*
X25343255Y-17742847D01*
X25376185Y-17682939D01*
X25381911Y-17667061D01*
X25387524Y-17642333D01*
X25385094Y-17617902D01*
X25373270Y-17585400D01*
X25366143Y-17569434D01*
X25342803Y-17527006D01*
X25314683Y-17497240D01*
X25283743Y-17476511D01*
X25221769Y-17449537D01*
X25142454Y-17429998D01*
X25050056Y-17418746D01*
X24983136Y-17416270D01*
X24895647Y-17415822D01*
X24895647Y-17856089D01*
X24739028Y-17856089D01*
X24738471Y-17835021D01*
X24737853Y-17774311D01*
X24737628Y-17695526D01*
X24737603Y-17633920D01*
X24737603Y-17324485D01*
X24765312Y-17296776D01*
X24777609Y-17285544D01*
X24790906Y-17277853D01*
X24809475Y-17273040D01*
X24837589Y-17270446D01*
X24879520Y-17269410D01*
X24939540Y-17269270D01*
X24943112Y-17269275D01*
G36*
X24943112Y-17269275D02*
G01*
X25072091Y-17273636D01*
X25181794Y-17286861D01*
X25274029Y-17309741D01*
X25350605Y-17343070D01*
X25413330Y-17387638D01*
X25464015Y-17444236D01*
X25504466Y-17513658D01*
X25505262Y-17515351D01*
X25529404Y-17577483D01*
X25538006Y-17632509D01*
X25531034Y-17687887D01*
X25508457Y-17751073D01*
X25504175Y-17760689D01*
X25474975Y-17816966D01*
X25442159Y-17860451D01*
X25399805Y-17897417D01*
X25341993Y-17934135D01*
X25338634Y-17936052D01*
X25288307Y-17960227D01*
X25231424Y-17978282D01*
X25164330Y-17990839D01*
X25083368Y-17998522D01*
X24984885Y-18001953D01*
X24950089Y-18002251D01*
X24784397Y-18002845D01*
X24761000Y-17973100D01*
X24754060Y-17963319D01*
X24748645Y-17951897D01*
X24744568Y-17936095D01*
X24741640Y-17913175D01*
X24739670Y-17880396D01*
X24739028Y-17856089D01*
X24895647Y-17856089D01*
X24989529Y-17856089D01*
X25044467Y-17854483D01*
X25100863Y-17850255D01*
X25147148Y-17844292D01*
X25149942Y-17843790D01*
X25232151Y-17821736D01*
X25295917Y-17788600D01*
X25343255Y-17742847D01*
X25376185Y-17682939D01*
X25381911Y-17667061D01*
X25387524Y-17642333D01*
X25385094Y-17617902D01*
X25373270Y-17585400D01*
X25366143Y-17569434D01*
X25342803Y-17527006D01*
X25314683Y-17497240D01*
X25283743Y-17476511D01*
X25221769Y-17449537D01*
X25142454Y-17429998D01*
X25050056Y-17418746D01*
X24983136Y-17416270D01*
X24895647Y-17415822D01*
X24895647Y-17856089D01*
X24739028Y-17856089D01*
X24738471Y-17835021D01*
X24737853Y-17774311D01*
X24737628Y-17695526D01*
X24737603Y-17633920D01*
X24737603Y-17324485D01*
X24765312Y-17296776D01*
X24777609Y-17285544D01*
X24790906Y-17277853D01*
X24809475Y-17273040D01*
X24837589Y-17270446D01*
X24879520Y-17269410D01*
X24939540Y-17269270D01*
X24943112Y-17269275D01*
G37*
X17803432Y-17269066D02*
X17842914Y-17269467D01*
X17958603Y-17272259D01*
X18055492Y-17280550D01*
X18136884Y-17295232D01*
X18206080Y-17317193D01*
X18266383Y-17347322D01*
X18321095Y-17386510D01*
X18340636Y-17403532D01*
X18373053Y-17443363D01*
X18402283Y-17497413D01*
X18424812Y-17557323D01*
X18437124Y-17614739D01*
X18438403Y-17635956D01*
X18430386Y-17694769D01*
X18408904Y-17759013D01*
X18377804Y-17819821D01*
X18340937Y-17868330D01*
X18334949Y-17874182D01*
X18284224Y-17915321D01*
X18228678Y-17947435D01*
X18165107Y-17971365D01*
X18090309Y-17987953D01*
X18001081Y-17998041D01*
X17894221Y-18002469D01*
X17845275Y-18002845D01*
X17783041Y-18002545D01*
X17739275Y-18001292D01*
X17709872Y-17998554D01*
X17690724Y-17993801D01*
X17677726Y-17986501D01*
X17670758Y-17980267D01*
X17664177Y-17972694D01*
X17659015Y-17962924D01*
X17655100Y-17948340D01*
X17652260Y-17926326D01*
X17650323Y-17894264D01*
X17649119Y-17849536D01*
X17648475Y-17789526D01*
X17648220Y-17711617D01*
X17648181Y-17635956D01*
X17647933Y-17535041D01*
X17647986Y-17454427D01*
X17648946Y-17415822D01*
X17794936Y-17415822D01*
X17794936Y-17856089D01*
X17888069Y-17856004D01*
X17944110Y-17854396D01*
X18002804Y-17850256D01*
X18051775Y-17844464D01*
X18053265Y-17844226D01*
X18132411Y-17825090D01*
X18193801Y-17795287D01*
X18240498Y-17752878D01*
X18270168Y-17706961D01*
X18288450Y-17656026D01*
X18287032Y-17608200D01*
X18265815Y-17556933D01*
X18224314Y-17503899D01*
X18166805Y-17464600D01*
X18092053Y-17438331D01*
X18042095Y-17429035D01*
X17985387Y-17422507D01*
X17925284Y-17417782D01*
X17874164Y-17415817D01*
X17871136Y-17415808D01*
X17794936Y-17415822D01*
X17648946Y-17415822D01*
X17649543Y-17391851D01*
X17653805Y-17345055D01*
X17661973Y-17311778D01*
X17675247Y-17289759D01*
X17694829Y-17276739D01*
X17721920Y-17270457D01*
X17757721Y-17268653D01*
X17803432Y-17269066D01*
G36*
X17803432Y-17269066D02*
G01*
X17842914Y-17269467D01*
X17958603Y-17272259D01*
X18055492Y-17280550D01*
X18136884Y-17295232D01*
X18206080Y-17317193D01*
X18266383Y-17347322D01*
X18321095Y-17386510D01*
X18340636Y-17403532D01*
X18373053Y-17443363D01*
X18402283Y-17497413D01*
X18424812Y-17557323D01*
X18437124Y-17614739D01*
X18438403Y-17635956D01*
X18430386Y-17694769D01*
X18408904Y-17759013D01*
X18377804Y-17819821D01*
X18340937Y-17868330D01*
X18334949Y-17874182D01*
X18284224Y-17915321D01*
X18228678Y-17947435D01*
X18165107Y-17971365D01*
X18090309Y-17987953D01*
X18001081Y-17998041D01*
X17894221Y-18002469D01*
X17845275Y-18002845D01*
X17783041Y-18002545D01*
X17739275Y-18001292D01*
X17709872Y-17998554D01*
X17690724Y-17993801D01*
X17677726Y-17986501D01*
X17670758Y-17980267D01*
X17664177Y-17972694D01*
X17659015Y-17962924D01*
X17655100Y-17948340D01*
X17652260Y-17926326D01*
X17650323Y-17894264D01*
X17649119Y-17849536D01*
X17648475Y-17789526D01*
X17648220Y-17711617D01*
X17648181Y-17635956D01*
X17647933Y-17535041D01*
X17647986Y-17454427D01*
X17648946Y-17415822D01*
X17794936Y-17415822D01*
X17794936Y-17856089D01*
X17888069Y-17856004D01*
X17944110Y-17854396D01*
X18002804Y-17850256D01*
X18051775Y-17844464D01*
X18053265Y-17844226D01*
X18132411Y-17825090D01*
X18193801Y-17795287D01*
X18240498Y-17752878D01*
X18270168Y-17706961D01*
X18288450Y-17656026D01*
X18287032Y-17608200D01*
X18265815Y-17556933D01*
X18224314Y-17503899D01*
X18166805Y-17464600D01*
X18092053Y-17438331D01*
X18042095Y-17429035D01*
X17985387Y-17422507D01*
X17925284Y-17417782D01*
X17874164Y-17415817D01*
X17871136Y-17415808D01*
X17794936Y-17415822D01*
X17648946Y-17415822D01*
X17649543Y-17391851D01*
X17653805Y-17345055D01*
X17661973Y-17311778D01*
X17675247Y-17289759D01*
X17694829Y-17276739D01*
X17721920Y-17270457D01*
X17757721Y-17268653D01*
X17803432Y-17269066D01*
G37*
X22624689Y-17273448D02*
X22648255Y-17287273D01*
X22679068Y-17309881D01*
X22718725Y-17342338D01*
X22768823Y-17385708D01*
X22830960Y-17441058D01*
X22906731Y-17509451D01*
X22993469Y-17588084D01*
X23174092Y-17751878D01*
X23179736Y-17532029D01*
X23181774Y-17456351D01*
X23183740Y-17399994D01*
X23186069Y-17359706D01*
X23189197Y-17332235D01*
X23193558Y-17314329D01*
X23199587Y-17302737D01*
X23207719Y-17294208D01*
X23212031Y-17290623D01*
X23246562Y-17271670D01*
X23279420Y-17274441D01*
X23305485Y-17290633D01*
X23332136Y-17312199D01*
X23335451Y-17627151D01*
X23336368Y-17719779D01*
X23336835Y-17792544D01*
X23336690Y-17848161D01*
X23335771Y-17889342D01*
X23333916Y-17918803D01*
X23330964Y-17939255D01*
X23326753Y-17953413D01*
X23321121Y-17963991D01*
X23314876Y-17972474D01*
X23301364Y-17988207D01*
X23287920Y-17998636D01*
X23272679Y-18002639D01*
X23253777Y-17999094D01*
X23229348Y-17986879D01*
X23197530Y-17964871D01*
X23156455Y-17931949D01*
X23104261Y-17886991D01*
X23039081Y-17828875D01*
X22965247Y-17762099D01*
X22699958Y-17521458D01*
X22694314Y-17740589D01*
X22692272Y-17816128D01*
X22690301Y-17872354D01*
X22687964Y-17912524D01*
X22684822Y-17939896D01*
X22680439Y-17957728D01*
X22674379Y-17969279D01*
X22666203Y-17977807D01*
X22662019Y-17981282D01*
X22625038Y-18000372D01*
X22590095Y-17997493D01*
X22559667Y-17973100D01*
X22552706Y-17963286D01*
X22547280Y-17951826D01*
X22543200Y-17935968D01*
X22540274Y-17912963D01*
X22538311Y-17880062D01*
X22537120Y-17834516D01*
X22536511Y-17773573D01*
X22536292Y-17694486D01*
X22536269Y-17635956D01*
X22536343Y-17544407D01*
X22536690Y-17472687D01*
X22537502Y-17418045D01*
X22538970Y-17377732D01*
X22541284Y-17348998D01*
X22544636Y-17329093D01*
X22549215Y-17315268D01*
X22555214Y-17304772D01*
X22559667Y-17298811D01*
X22570953Y-17284691D01*
X22581502Y-17274029D01*
X22592910Y-17267892D01*
X22606773Y-17267343D01*
X22624689Y-17273448D01*
G36*
X22624689Y-17273448D02*
G01*
X22648255Y-17287273D01*
X22679068Y-17309881D01*
X22718725Y-17342338D01*
X22768823Y-17385708D01*
X22830960Y-17441058D01*
X22906731Y-17509451D01*
X22993469Y-17588084D01*
X23174092Y-17751878D01*
X23179736Y-17532029D01*
X23181774Y-17456351D01*
X23183740Y-17399994D01*
X23186069Y-17359706D01*
X23189197Y-17332235D01*
X23193558Y-17314329D01*
X23199587Y-17302737D01*
X23207719Y-17294208D01*
X23212031Y-17290623D01*
X23246562Y-17271670D01*
X23279420Y-17274441D01*
X23305485Y-17290633D01*
X23332136Y-17312199D01*
X23335451Y-17627151D01*
X23336368Y-17719779D01*
X23336835Y-17792544D01*
X23336690Y-17848161D01*
X23335771Y-17889342D01*
X23333916Y-17918803D01*
X23330964Y-17939255D01*
X23326753Y-17953413D01*
X23321121Y-17963991D01*
X23314876Y-17972474D01*
X23301364Y-17988207D01*
X23287920Y-17998636D01*
X23272679Y-18002639D01*
X23253777Y-17999094D01*
X23229348Y-17986879D01*
X23197530Y-17964871D01*
X23156455Y-17931949D01*
X23104261Y-17886991D01*
X23039081Y-17828875D01*
X22965247Y-17762099D01*
X22699958Y-17521458D01*
X22694314Y-17740589D01*
X22692272Y-17816128D01*
X22690301Y-17872354D01*
X22687964Y-17912524D01*
X22684822Y-17939896D01*
X22680439Y-17957728D01*
X22674379Y-17969279D01*
X22666203Y-17977807D01*
X22662019Y-17981282D01*
X22625038Y-18000372D01*
X22590095Y-17997493D01*
X22559667Y-17973100D01*
X22552706Y-17963286D01*
X22547280Y-17951826D01*
X22543200Y-17935968D01*
X22540274Y-17912963D01*
X22538311Y-17880062D01*
X22537120Y-17834516D01*
X22536511Y-17773573D01*
X22536292Y-17694486D01*
X22536269Y-17635956D01*
X22536343Y-17544407D01*
X22536690Y-17472687D01*
X22537502Y-17418045D01*
X22538970Y-17377732D01*
X22541284Y-17348998D01*
X22544636Y-17329093D01*
X22549215Y-17315268D01*
X22555214Y-17304772D01*
X22559667Y-17298811D01*
X22570953Y-17284691D01*
X22581502Y-17274029D01*
X22592910Y-17267892D01*
X22606773Y-17267343D01*
X22624689Y-17273448D01*
G37*
X21974722Y-17274599D02*
X22043238Y-17286095D01*
X22095860Y-17303967D01*
X22130095Y-17327499D01*
X22139424Y-17340924D01*
X22148910Y-17372148D01*
X22142526Y-17400395D01*
X22122373Y-17427182D01*
X22091058Y-17439713D01*
X22045620Y-17438696D01*
X22010477Y-17431906D01*
X21932384Y-17418971D01*
X21852577Y-17417742D01*
X21763248Y-17428241D01*
X21738574Y-17432690D01*
X21655512Y-17456108D01*
X21590530Y-17490945D01*
X21544342Y-17536604D01*
X21517658Y-17592494D01*
X21512140Y-17621388D01*
X21515752Y-17680012D01*
X21539074Y-17731879D01*
X21579979Y-17775978D01*
X21636344Y-17811299D01*
X21706043Y-17836829D01*
X21786951Y-17851559D01*
X21876943Y-17854478D01*
X21973893Y-17844575D01*
X21979367Y-17843641D01*
X22017928Y-17836459D01*
X22039309Y-17829521D01*
X22048576Y-17819227D01*
X22050797Y-17801976D01*
X22050847Y-17792841D01*
X22050847Y-17754489D01*
X21982372Y-17754489D01*
X21921903Y-17750347D01*
X21880638Y-17737147D01*
X21856628Y-17713730D01*
X21847926Y-17678936D01*
X21847820Y-17674394D01*
X21852911Y-17644654D01*
X21870370Y-17623419D01*
X21902864Y-17609366D01*
X21953060Y-17601173D01*
X22001680Y-17598161D01*
X22072347Y-17596433D01*
X22123605Y-17599070D01*
X22158564Y-17608800D01*
X22180333Y-17628353D01*
X22192023Y-17660456D01*
X22196743Y-17707838D01*
X22197603Y-17770071D01*
X22196194Y-17839535D01*
X22191955Y-17886786D01*
X22184867Y-17912012D01*
X22183492Y-17913988D01*
X22144575Y-17945508D01*
X22087517Y-17970470D01*
X22015934Y-17988340D01*
X21933445Y-17998586D01*
X21843664Y-18000673D01*
X21750211Y-17994068D01*
X21695247Y-17985956D01*
X21609037Y-17961554D01*
X21528911Y-17921662D01*
X21461826Y-17869887D01*
X21451630Y-17859539D01*
X21418501Y-17816035D01*
X21388609Y-17762118D01*
X21365446Y-17705592D01*
X21352505Y-17654259D01*
X21350945Y-17634544D01*
X21357585Y-17593419D01*
X21375235Y-17542252D01*
X21400506Y-17488394D01*
X21430014Y-17439195D01*
X21456084Y-17406334D01*
X21517038Y-17357452D01*
X21595834Y-17318545D01*
X21689646Y-17290494D01*
X21795653Y-17274179D01*
X21892803Y-17270192D01*
X21974722Y-17274599D01*
G36*
X21974722Y-17274599D02*
G01*
X22043238Y-17286095D01*
X22095860Y-17303967D01*
X22130095Y-17327499D01*
X22139424Y-17340924D01*
X22148910Y-17372148D01*
X22142526Y-17400395D01*
X22122373Y-17427182D01*
X22091058Y-17439713D01*
X22045620Y-17438696D01*
X22010477Y-17431906D01*
X21932384Y-17418971D01*
X21852577Y-17417742D01*
X21763248Y-17428241D01*
X21738574Y-17432690D01*
X21655512Y-17456108D01*
X21590530Y-17490945D01*
X21544342Y-17536604D01*
X21517658Y-17592494D01*
X21512140Y-17621388D01*
X21515752Y-17680012D01*
X21539074Y-17731879D01*
X21579979Y-17775978D01*
X21636344Y-17811299D01*
X21706043Y-17836829D01*
X21786951Y-17851559D01*
X21876943Y-17854478D01*
X21973893Y-17844575D01*
X21979367Y-17843641D01*
X22017928Y-17836459D01*
X22039309Y-17829521D01*
X22048576Y-17819227D01*
X22050797Y-17801976D01*
X22050847Y-17792841D01*
X22050847Y-17754489D01*
X21982372Y-17754489D01*
X21921903Y-17750347D01*
X21880638Y-17737147D01*
X21856628Y-17713730D01*
X21847926Y-17678936D01*
X21847820Y-17674394D01*
X21852911Y-17644654D01*
X21870370Y-17623419D01*
X21902864Y-17609366D01*
X21953060Y-17601173D01*
X22001680Y-17598161D01*
X22072347Y-17596433D01*
X22123605Y-17599070D01*
X22158564Y-17608800D01*
X22180333Y-17628353D01*
X22192023Y-17660456D01*
X22196743Y-17707838D01*
X22197603Y-17770071D01*
X22196194Y-17839535D01*
X22191955Y-17886786D01*
X22184867Y-17912012D01*
X22183492Y-17913988D01*
X22144575Y-17945508D01*
X22087517Y-17970470D01*
X22015934Y-17988340D01*
X21933445Y-17998586D01*
X21843664Y-18000673D01*
X21750211Y-17994068D01*
X21695247Y-17985956D01*
X21609037Y-17961554D01*
X21528911Y-17921662D01*
X21461826Y-17869887D01*
X21451630Y-17859539D01*
X21418501Y-17816035D01*
X21388609Y-17762118D01*
X21365446Y-17705592D01*
X21352505Y-17654259D01*
X21350945Y-17634544D01*
X21357585Y-17593419D01*
X21375235Y-17542252D01*
X21400506Y-17488394D01*
X21430014Y-17439195D01*
X21456084Y-17406334D01*
X21517038Y-17357452D01*
X21595834Y-17318545D01*
X21689646Y-17290494D01*
X21795653Y-17274179D01*
X21892803Y-17270192D01*
X21974722Y-17274599D01*
G37*
X24155146Y-17269260D02*
X24231504Y-17270174D01*
X24290020Y-17272311D01*
X24333058Y-17276175D01*
X24362986Y-17282267D01*
X24382171Y-17291090D01*
X24392979Y-17303146D01*
X24397776Y-17318939D01*
X24398930Y-17338970D01*
X24398936Y-17341335D01*
X24397934Y-17363992D01*
X24393199Y-17381503D01*
X24382136Y-17394574D01*
X24362151Y-17403913D01*
X24330649Y-17410227D01*
X24285035Y-17414222D01*
X24222716Y-17416606D01*
X24141096Y-17418086D01*
X24116080Y-17418414D01*
X23874003Y-17421467D01*
X23870617Y-17486378D01*
X23867232Y-17551289D01*
X24035379Y-17551289D01*
X24101069Y-17551531D01*
X24147975Y-17552556D01*
X24179886Y-17554811D01*
X24200594Y-17558742D01*
X24213887Y-17564798D01*
X24223558Y-17573424D01*
X24223620Y-17573493D01*
X24241159Y-17607112D01*
X24240525Y-17643448D01*
X24222117Y-17674423D01*
X24218474Y-17677607D01*
X24205544Y-17685812D01*
X24187827Y-17691521D01*
X24161373Y-17695162D01*
X24122235Y-17697167D01*
X24066465Y-17697964D01*
X24030797Y-17698045D01*
X23868358Y-17698045D01*
X23868358Y-17856089D01*
X24114964Y-17856089D01*
X24196383Y-17856231D01*
X24258213Y-17856814D01*
X24303440Y-17858068D01*
X24335051Y-17860227D01*
X24356034Y-17863523D01*
X24369376Y-17868189D01*
X24378064Y-17874457D01*
X24380253Y-17876733D01*
X24396417Y-17908280D01*
X24397600Y-17944168D01*
X24384339Y-17975285D01*
X24373846Y-17985271D01*
X24362932Y-17990769D01*
X24346020Y-17995022D01*
X24320436Y-17998180D01*
X24283504Y-18000392D01*
X24232549Y-18001806D01*
X24164897Y-18002572D01*
X24077872Y-18002838D01*
X24058197Y-18002845D01*
X23969714Y-18002787D01*
X23901030Y-18002467D01*
X23849367Y-18001667D01*
X23811948Y-18000167D01*
X23785993Y-17997749D01*
X23768725Y-17994194D01*
X23757365Y-17989282D01*
X23749135Y-17982795D01*
X23744620Y-17978138D01*
X23737824Y-17969889D01*
X23732515Y-17959669D01*
X23728509Y-17944800D01*
X23725624Y-17922602D01*
X23723677Y-17890393D01*
X23722484Y-17845496D01*
X23721864Y-17785228D01*
X23721632Y-17706911D01*
X23721603Y-17640994D01*
X23721674Y-17548628D01*
X23722011Y-17476117D01*
X23722801Y-17420737D01*
X23724229Y-17379765D01*
X23726482Y-17350478D01*
X23729746Y-17330153D01*
X23734207Y-17316066D01*
X23740051Y-17305495D01*
X23745000Y-17298811D01*
X23768397Y-17269067D01*
X24058577Y-17269067D01*
X24155146Y-17269260D01*
G36*
X24155146Y-17269260D02*
G01*
X24231504Y-17270174D01*
X24290020Y-17272311D01*
X24333058Y-17276175D01*
X24362986Y-17282267D01*
X24382171Y-17291090D01*
X24392979Y-17303146D01*
X24397776Y-17318939D01*
X24398930Y-17338970D01*
X24398936Y-17341335D01*
X24397934Y-17363992D01*
X24393199Y-17381503D01*
X24382136Y-17394574D01*
X24362151Y-17403913D01*
X24330649Y-17410227D01*
X24285035Y-17414222D01*
X24222716Y-17416606D01*
X24141096Y-17418086D01*
X24116080Y-17418414D01*
X23874003Y-17421467D01*
X23870617Y-17486378D01*
X23867232Y-17551289D01*
X24035379Y-17551289D01*
X24101069Y-17551531D01*
X24147975Y-17552556D01*
X24179886Y-17554811D01*
X24200594Y-17558742D01*
X24213887Y-17564798D01*
X24223558Y-17573424D01*
X24223620Y-17573493D01*
X24241159Y-17607112D01*
X24240525Y-17643448D01*
X24222117Y-17674423D01*
X24218474Y-17677607D01*
X24205544Y-17685812D01*
X24187827Y-17691521D01*
X24161373Y-17695162D01*
X24122235Y-17697167D01*
X24066465Y-17697964D01*
X24030797Y-17698045D01*
X23868358Y-17698045D01*
X23868358Y-17856089D01*
X24114964Y-17856089D01*
X24196383Y-17856231D01*
X24258213Y-17856814D01*
X24303440Y-17858068D01*
X24335051Y-17860227D01*
X24356034Y-17863523D01*
X24369376Y-17868189D01*
X24378064Y-17874457D01*
X24380253Y-17876733D01*
X24396417Y-17908280D01*
X24397600Y-17944168D01*
X24384339Y-17975285D01*
X24373846Y-17985271D01*
X24362932Y-17990769D01*
X24346020Y-17995022D01*
X24320436Y-17998180D01*
X24283504Y-18000392D01*
X24232549Y-18001806D01*
X24164897Y-18002572D01*
X24077872Y-18002838D01*
X24058197Y-18002845D01*
X23969714Y-18002787D01*
X23901030Y-18002467D01*
X23849367Y-18001667D01*
X23811948Y-18000167D01*
X23785993Y-17997749D01*
X23768725Y-17994194D01*
X23757365Y-17989282D01*
X23749135Y-17982795D01*
X23744620Y-17978138D01*
X23737824Y-17969889D01*
X23732515Y-17959669D01*
X23728509Y-17944800D01*
X23725624Y-17922602D01*
X23723677Y-17890393D01*
X23722484Y-17845496D01*
X23721864Y-17785228D01*
X23721632Y-17706911D01*
X23721603Y-17640994D01*
X23721674Y-17548628D01*
X23722011Y-17476117D01*
X23722801Y-17420737D01*
X23724229Y-17379765D01*
X23726482Y-17350478D01*
X23729746Y-17330153D01*
X23734207Y-17316066D01*
X23740051Y-17305495D01*
X23745000Y-17298811D01*
X23768397Y-17269067D01*
X24058577Y-17269067D01*
X24155146Y-17269260D01*
G37*
X19212009Y-17269146D02*
X19281417Y-17269518D01*
X19333806Y-17270385D01*
X19371956Y-17271946D01*
X19398644Y-17274403D01*
X19416650Y-17277957D01*
X19428754Y-17282810D01*
X19437734Y-17289161D01*
X19440985Y-17292084D01*
X19460760Y-17323142D01*
X19464321Y-17358828D01*
X19451312Y-17390510D01*
X19445297Y-17396913D01*
X19435568Y-17403121D01*
X19419902Y-17407910D01*
X19395395Y-17411514D01*
X19359142Y-17414164D01*
X19308238Y-17416095D01*
X19239777Y-17417539D01*
X19177186Y-17418418D01*
X18929469Y-17421467D01*
X18926084Y-17486378D01*
X18922698Y-17551289D01*
X19090845Y-17551289D01*
X19163844Y-17551919D01*
X19217286Y-17554553D01*
X19254175Y-17560309D01*
X19277515Y-17570304D01*
X19290309Y-17585656D01*
X19295561Y-17607482D01*
X19296358Y-17627738D01*
X19293880Y-17652592D01*
X19284526Y-17670906D01*
X19265420Y-17683637D01*
X19233685Y-17691741D01*
X19186444Y-17696176D01*
X19120820Y-17697899D01*
X19085002Y-17698045D01*
X18923825Y-17698045D01*
X18923825Y-17856089D01*
X19172181Y-17856089D01*
X19253590Y-17856202D01*
X19315461Y-17856712D01*
X19360835Y-17857870D01*
X19392749Y-17859930D01*
X19414244Y-17863146D01*
X19428360Y-17867772D01*
X19438135Y-17874059D01*
X19443114Y-17878667D01*
X19460193Y-17905560D01*
X19465692Y-17929467D01*
X19457840Y-17958667D01*
X19443114Y-17980267D01*
X19435257Y-17987066D01*
X19425115Y-17992346D01*
X19409959Y-17996298D01*
X19387062Y-17999113D01*
X19353694Y-18000982D01*
X19307128Y-18002098D01*
X19244636Y-18002651D01*
X19163489Y-18002833D01*
X19121381Y-18002845D01*
X19031205Y-18002765D01*
X18960879Y-18002398D01*
X18907674Y-18001552D01*
X18868863Y-18000036D01*
X18841716Y-17997659D01*
X18823505Y-17994229D01*
X18811503Y-17989554D01*
X18802981Y-17983444D01*
X18799647Y-17980267D01*
X18793048Y-17972670D01*
X18787876Y-17962870D01*
X18783957Y-17948239D01*
X18781119Y-17926152D01*
X18779188Y-17893982D01*
X18777991Y-17849103D01*
X18777355Y-17788889D01*
X18777106Y-17710713D01*
X18777069Y-17637923D01*
X18777103Y-17544707D01*
X18777338Y-17471431D01*
X18777973Y-17415458D01*
X18779209Y-17374151D01*
X18781247Y-17344872D01*
X18784286Y-17324984D01*
X18788526Y-17311850D01*
X18794168Y-17302832D01*
X18801412Y-17295293D01*
X18803197Y-17293612D01*
X18811858Y-17286172D01*
X18821921Y-17280409D01*
X18836178Y-17276112D01*
X18857420Y-17273064D01*
X18888439Y-17271051D01*
X18932026Y-17269860D01*
X18990972Y-17269275D01*
X19068069Y-17269083D01*
X19122802Y-17269067D01*
X19212009Y-17269146D01*
G36*
X19212009Y-17269146D02*
G01*
X19281417Y-17269518D01*
X19333806Y-17270385D01*
X19371956Y-17271946D01*
X19398644Y-17274403D01*
X19416650Y-17277957D01*
X19428754Y-17282810D01*
X19437734Y-17289161D01*
X19440985Y-17292084D01*
X19460760Y-17323142D01*
X19464321Y-17358828D01*
X19451312Y-17390510D01*
X19445297Y-17396913D01*
X19435568Y-17403121D01*
X19419902Y-17407910D01*
X19395395Y-17411514D01*
X19359142Y-17414164D01*
X19308238Y-17416095D01*
X19239777Y-17417539D01*
X19177186Y-17418418D01*
X18929469Y-17421467D01*
X18926084Y-17486378D01*
X18922698Y-17551289D01*
X19090845Y-17551289D01*
X19163844Y-17551919D01*
X19217286Y-17554553D01*
X19254175Y-17560309D01*
X19277515Y-17570304D01*
X19290309Y-17585656D01*
X19295561Y-17607482D01*
X19296358Y-17627738D01*
X19293880Y-17652592D01*
X19284526Y-17670906D01*
X19265420Y-17683637D01*
X19233685Y-17691741D01*
X19186444Y-17696176D01*
X19120820Y-17697899D01*
X19085002Y-17698045D01*
X18923825Y-17698045D01*
X18923825Y-17856089D01*
X19172181Y-17856089D01*
X19253590Y-17856202D01*
X19315461Y-17856712D01*
X19360835Y-17857870D01*
X19392749Y-17859930D01*
X19414244Y-17863146D01*
X19428360Y-17867772D01*
X19438135Y-17874059D01*
X19443114Y-17878667D01*
X19460193Y-17905560D01*
X19465692Y-17929467D01*
X19457840Y-17958667D01*
X19443114Y-17980267D01*
X19435257Y-17987066D01*
X19425115Y-17992346D01*
X19409959Y-17996298D01*
X19387062Y-17999113D01*
X19353694Y-18000982D01*
X19307128Y-18002098D01*
X19244636Y-18002651D01*
X19163489Y-18002833D01*
X19121381Y-18002845D01*
X19031205Y-18002765D01*
X18960879Y-18002398D01*
X18907674Y-18001552D01*
X18868863Y-18000036D01*
X18841716Y-17997659D01*
X18823505Y-17994229D01*
X18811503Y-17989554D01*
X18802981Y-17983444D01*
X18799647Y-17980267D01*
X18793048Y-17972670D01*
X18787876Y-17962870D01*
X18783957Y-17948239D01*
X18781119Y-17926152D01*
X18779188Y-17893982D01*
X18777991Y-17849103D01*
X18777355Y-17788889D01*
X18777106Y-17710713D01*
X18777069Y-17637923D01*
X18777103Y-17544707D01*
X18777338Y-17471431D01*
X18777973Y-17415458D01*
X18779209Y-17374151D01*
X18781247Y-17344872D01*
X18784286Y-17324984D01*
X18788526Y-17311850D01*
X18794168Y-17302832D01*
X18801412Y-17295293D01*
X18803197Y-17293612D01*
X18811858Y-17286172D01*
X18821921Y-17280409D01*
X18836178Y-17276112D01*
X18857420Y-17273064D01*
X18888439Y-17271051D01*
X18932026Y-17269860D01*
X18990972Y-17269275D01*
X19068069Y-17269083D01*
X19122802Y-17269067D01*
X19212009Y-17269146D01*
G37*
X27669468Y-17271034D02*
X27689058Y-17278035D01*
X27689813Y-17278377D01*
X27716416Y-17298678D01*
X27731073Y-17319561D01*
X27733941Y-17329352D01*
X27733799Y-17342361D01*
X27729764Y-17360895D01*
X27720949Y-17387257D01*
X27706472Y-17423752D01*
X27685448Y-17472687D01*
X27656991Y-17536365D01*
X27620218Y-17617093D01*
X27599978Y-17661216D01*
X27563428Y-17739985D01*
X27529118Y-17812423D01*
X27498355Y-17875880D01*
X27472451Y-17927708D01*
X27452713Y-17965259D01*
X27440453Y-17985884D01*
X27438027Y-17988733D01*
X27406986Y-18001302D01*
X27371924Y-17999619D01*
X27343803Y-17984332D01*
X27342657Y-17983089D01*
X27331471Y-17966154D01*
X27312707Y-17933170D01*
X27288678Y-17888380D01*
X27261700Y-17836032D01*
X27252004Y-17816742D01*
X27178817Y-17670150D01*
X27099043Y-17829393D01*
X27070570Y-17884415D01*
X27044153Y-17932132D01*
X27021951Y-17968893D01*
X27006122Y-17991044D01*
X27000757Y-17995741D01*
X26959060Y-18002102D01*
X26924652Y-17988733D01*
X26914531Y-17974446D01*
X26897017Y-17942692D01*
X26873538Y-17896597D01*
X26845523Y-17839285D01*
X26814402Y-17773880D01*
X26781602Y-17703507D01*
X26748553Y-17631291D01*
X26716684Y-17560355D01*
X26687422Y-17493825D01*
X26662198Y-17434826D01*
X26642439Y-17386481D01*
X26629575Y-17351915D01*
X26625034Y-17334253D01*
X26625080Y-17333613D01*
X26636129Y-17311388D01*
X26658213Y-17288753D01*
X26659513Y-17287768D01*
X26686656Y-17272425D01*
X26711761Y-17272574D01*
X26721171Y-17275466D01*
X26732637Y-17281718D01*
X26744813Y-17294014D01*
X26759160Y-17314908D01*
X26777139Y-17346949D01*
X26800210Y-17392688D01*
X26829833Y-17454677D01*
X26856548Y-17511898D01*
X26887283Y-17578226D01*
X26914824Y-17637874D01*
X26937741Y-17687725D01*
X26954601Y-17724664D01*
X26963976Y-17745573D01*
X26965343Y-17748845D01*
X26971492Y-17743497D01*
X26985625Y-17721109D01*
X27005860Y-17684946D01*
X27030318Y-17638277D01*
X27040051Y-17619022D01*
X27073020Y-17554004D01*
X27098446Y-17506654D01*
X27118415Y-17474219D01*
X27135013Y-17453946D01*
X27150327Y-17443082D01*
X27166443Y-17438875D01*
X27176946Y-17438400D01*
X27195473Y-17440042D01*
X27211707Y-17446831D01*
X27227838Y-17461566D01*
X27246054Y-17487044D01*
X27268542Y-17526061D01*
X27297492Y-17581414D01*
X27313465Y-17612903D01*
X27339373Y-17663087D01*
X27361970Y-17704704D01*
X27379261Y-17734242D01*
X27389253Y-17748189D01*
X27390612Y-17748770D01*
X27397064Y-17737793D01*
X27411511Y-17709290D01*
X27432506Y-17666244D01*
X27458600Y-17611638D01*
X27488349Y-17548454D01*
X27502983Y-17517071D01*
X27541053Y-17436078D01*
X27571708Y-17373756D01*
X27596540Y-17328071D01*
X27617140Y-17296989D01*
X27635101Y-17278478D01*
X27652013Y-17270504D01*
X27669468Y-17271034D01*
G36*
X27669468Y-17271034D02*
G01*
X27689058Y-17278035D01*
X27689813Y-17278377D01*
X27716416Y-17298678D01*
X27731073Y-17319561D01*
X27733941Y-17329352D01*
X27733799Y-17342361D01*
X27729764Y-17360895D01*
X27720949Y-17387257D01*
X27706472Y-17423752D01*
X27685448Y-17472687D01*
X27656991Y-17536365D01*
X27620218Y-17617093D01*
X27599978Y-17661216D01*
X27563428Y-17739985D01*
X27529118Y-17812423D01*
X27498355Y-17875880D01*
X27472451Y-17927708D01*
X27452713Y-17965259D01*
X27440453Y-17985884D01*
X27438027Y-17988733D01*
X27406986Y-18001302D01*
X27371924Y-17999619D01*
X27343803Y-17984332D01*
X27342657Y-17983089D01*
X27331471Y-17966154D01*
X27312707Y-17933170D01*
X27288678Y-17888380D01*
X27261700Y-17836032D01*
X27252004Y-17816742D01*
X27178817Y-17670150D01*
X27099043Y-17829393D01*
X27070570Y-17884415D01*
X27044153Y-17932132D01*
X27021951Y-17968893D01*
X27006122Y-17991044D01*
X27000757Y-17995741D01*
X26959060Y-18002102D01*
X26924652Y-17988733D01*
X26914531Y-17974446D01*
X26897017Y-17942692D01*
X26873538Y-17896597D01*
X26845523Y-17839285D01*
X26814402Y-17773880D01*
X26781602Y-17703507D01*
X26748553Y-17631291D01*
X26716684Y-17560355D01*
X26687422Y-17493825D01*
X26662198Y-17434826D01*
X26642439Y-17386481D01*
X26629575Y-17351915D01*
X26625034Y-17334253D01*
X26625080Y-17333613D01*
X26636129Y-17311388D01*
X26658213Y-17288753D01*
X26659513Y-17287768D01*
X26686656Y-17272425D01*
X26711761Y-17272574D01*
X26721171Y-17275466D01*
X26732637Y-17281718D01*
X26744813Y-17294014D01*
X26759160Y-17314908D01*
X26777139Y-17346949D01*
X26800210Y-17392688D01*
X26829833Y-17454677D01*
X26856548Y-17511898D01*
X26887283Y-17578226D01*
X26914824Y-17637874D01*
X26937741Y-17687725D01*
X26954601Y-17724664D01*
X26963976Y-17745573D01*
X26965343Y-17748845D01*
X26971492Y-17743497D01*
X26985625Y-17721109D01*
X27005860Y-17684946D01*
X27030318Y-17638277D01*
X27040051Y-17619022D01*
X27073020Y-17554004D01*
X27098446Y-17506654D01*
X27118415Y-17474219D01*
X27135013Y-17453946D01*
X27150327Y-17443082D01*
X27166443Y-17438875D01*
X27176946Y-17438400D01*
X27195473Y-17440042D01*
X27211707Y-17446831D01*
X27227838Y-17461566D01*
X27246054Y-17487044D01*
X27268542Y-17526061D01*
X27297492Y-17581414D01*
X27313465Y-17612903D01*
X27339373Y-17663087D01*
X27361970Y-17704704D01*
X27379261Y-17734242D01*
X27389253Y-17748189D01*
X27390612Y-17748770D01*
X27397064Y-17737793D01*
X27411511Y-17709290D01*
X27432506Y-17666244D01*
X27458600Y-17611638D01*
X27488349Y-17548454D01*
X27502983Y-17517071D01*
X27541053Y-17436078D01*
X27571708Y-17373756D01*
X27596540Y-17328071D01*
X27617140Y-17296989D01*
X27635101Y-17278478D01*
X27652013Y-17270504D01*
X27669468Y-17271034D01*
G37*
X20233100Y-17270351D02*
X20307915Y-17275581D01*
X20377497Y-17283750D01*
X20437801Y-17294550D01*
X20484783Y-17307673D01*
X20514397Y-17322813D01*
X20518943Y-17327269D01*
X20534749Y-17361850D01*
X20529956Y-17397351D01*
X20505439Y-17427725D01*
X20504269Y-17428596D01*
X20489849Y-17437954D01*
X20474795Y-17442876D01*
X20453798Y-17443473D01*
X20421546Y-17439861D01*
X20372730Y-17432154D01*
X20368803Y-17431505D01*
X20296064Y-17422569D01*
X20217586Y-17418161D01*
X20138876Y-17418119D01*
X20065442Y-17422279D01*
X20002792Y-17430479D01*
X19956433Y-17442557D01*
X19953387Y-17443771D01*
X19919755Y-17462615D01*
X19907939Y-17481685D01*
X19917189Y-17500439D01*
X19946756Y-17518337D01*
X19995892Y-17534837D01*
X20063846Y-17549396D01*
X20109158Y-17556406D01*
X20203347Y-17569889D01*
X20278259Y-17582214D01*
X20337086Y-17594449D01*
X20383018Y-17607661D01*
X20419248Y-17622917D01*
X20448965Y-17641285D01*
X20475361Y-17663831D01*
X20496573Y-17685971D01*
X20521738Y-17716819D01*
X20534122Y-17743345D01*
X20537995Y-17776026D01*
X20538136Y-17787995D01*
X20535227Y-17827712D01*
X20523601Y-17857259D01*
X20503480Y-17883486D01*
X20462587Y-17923576D01*
X20416986Y-17954149D01*
X20363290Y-17976203D01*
X20298111Y-17990735D01*
X20218059Y-17998741D01*
X20119746Y-18001218D01*
X20103514Y-18001177D01*
X20037954Y-17999818D01*
X19972937Y-17996730D01*
X19915551Y-17992356D01*
X19872881Y-17987140D01*
X19869431Y-17986541D01*
X19827007Y-17976491D01*
X19791023Y-17963796D01*
X19770653Y-17952190D01*
X19751696Y-17921572D01*
X19750376Y-17885918D01*
X19766718Y-17854144D01*
X19770374Y-17850551D01*
X19785488Y-17839876D01*
X19804388Y-17835276D01*
X19833641Y-17836059D01*
X19869152Y-17840127D01*
X19908833Y-17843762D01*
X19964458Y-17846828D01*
X20029397Y-17849053D01*
X20097018Y-17850164D01*
X20114803Y-17850237D01*
X20182675Y-17849964D01*
X20232349Y-17848646D01*
X20268193Y-17845827D01*
X20294579Y-17841050D01*
X20315877Y-17833857D01*
X20328677Y-17827867D01*
X20356803Y-17811233D01*
X20374735Y-17796168D01*
X20377356Y-17791897D01*
X20371827Y-17774263D01*
X20345543Y-17757192D01*
X20300325Y-17741458D01*
X20237995Y-17727838D01*
X20219632Y-17724804D01*
X20123713Y-17709738D01*
X20047162Y-17697146D01*
X19987023Y-17686111D01*
X19940343Y-17675720D01*
X19904166Y-17665056D01*
X19875538Y-17653205D01*
X19851505Y-17639251D01*
X19829111Y-17622281D01*
X19805401Y-17601378D01*
X19797423Y-17594049D01*
X19769450Y-17566699D01*
X19754643Y-17545029D01*
X19748851Y-17520232D01*
X19747914Y-17488983D01*
X19758228Y-17427705D01*
X19789051Y-17375640D01*
X19840208Y-17332958D01*
X19911520Y-17299825D01*
X19962403Y-17284964D01*
X20017703Y-17275366D01*
X20083950Y-17269936D01*
X20157097Y-17268367D01*
X20233100Y-17270351D01*
G36*
X20233100Y-17270351D02*
G01*
X20307915Y-17275581D01*
X20377497Y-17283750D01*
X20437801Y-17294550D01*
X20484783Y-17307673D01*
X20514397Y-17322813D01*
X20518943Y-17327269D01*
X20534749Y-17361850D01*
X20529956Y-17397351D01*
X20505439Y-17427725D01*
X20504269Y-17428596D01*
X20489849Y-17437954D01*
X20474795Y-17442876D01*
X20453798Y-17443473D01*
X20421546Y-17439861D01*
X20372730Y-17432154D01*
X20368803Y-17431505D01*
X20296064Y-17422569D01*
X20217586Y-17418161D01*
X20138876Y-17418119D01*
X20065442Y-17422279D01*
X20002792Y-17430479D01*
X19956433Y-17442557D01*
X19953387Y-17443771D01*
X19919755Y-17462615D01*
X19907939Y-17481685D01*
X19917189Y-17500439D01*
X19946756Y-17518337D01*
X19995892Y-17534837D01*
X20063846Y-17549396D01*
X20109158Y-17556406D01*
X20203347Y-17569889D01*
X20278259Y-17582214D01*
X20337086Y-17594449D01*
X20383018Y-17607661D01*
X20419248Y-17622917D01*
X20448965Y-17641285D01*
X20475361Y-17663831D01*
X20496573Y-17685971D01*
X20521738Y-17716819D01*
X20534122Y-17743345D01*
X20537995Y-17776026D01*
X20538136Y-17787995D01*
X20535227Y-17827712D01*
X20523601Y-17857259D01*
X20503480Y-17883486D01*
X20462587Y-17923576D01*
X20416986Y-17954149D01*
X20363290Y-17976203D01*
X20298111Y-17990735D01*
X20218059Y-17998741D01*
X20119746Y-18001218D01*
X20103514Y-18001177D01*
X20037954Y-17999818D01*
X19972937Y-17996730D01*
X19915551Y-17992356D01*
X19872881Y-17987140D01*
X19869431Y-17986541D01*
X19827007Y-17976491D01*
X19791023Y-17963796D01*
X19770653Y-17952190D01*
X19751696Y-17921572D01*
X19750376Y-17885918D01*
X19766718Y-17854144D01*
X19770374Y-17850551D01*
X19785488Y-17839876D01*
X19804388Y-17835276D01*
X19833641Y-17836059D01*
X19869152Y-17840127D01*
X19908833Y-17843762D01*
X19964458Y-17846828D01*
X20029397Y-17849053D01*
X20097018Y-17850164D01*
X20114803Y-17850237D01*
X20182675Y-17849964D01*
X20232349Y-17848646D01*
X20268193Y-17845827D01*
X20294579Y-17841050D01*
X20315877Y-17833857D01*
X20328677Y-17827867D01*
X20356803Y-17811233D01*
X20374735Y-17796168D01*
X20377356Y-17791897D01*
X20371827Y-17774263D01*
X20345543Y-17757192D01*
X20300325Y-17741458D01*
X20237995Y-17727838D01*
X20219632Y-17724804D01*
X20123713Y-17709738D01*
X20047162Y-17697146D01*
X19987023Y-17686111D01*
X19940343Y-17675720D01*
X19904166Y-17665056D01*
X19875538Y-17653205D01*
X19851505Y-17639251D01*
X19829111Y-17622281D01*
X19805401Y-17601378D01*
X19797423Y-17594049D01*
X19769450Y-17566699D01*
X19754643Y-17545029D01*
X19748851Y-17520232D01*
X19747914Y-17488983D01*
X19758228Y-17427705D01*
X19789051Y-17375640D01*
X19840208Y-17332958D01*
X19911520Y-17299825D01*
X19962403Y-17284964D01*
X20017703Y-17275366D01*
X20083950Y-17269936D01*
X20157097Y-17268367D01*
X20233100Y-17270351D01*
G37*
X24253232Y-12949071D02*
X24413373Y-12970245D01*
X24577313Y-13010385D01*
X24747116Y-13069889D01*
X24924846Y-13149154D01*
X24936113Y-13154699D01*
X24993808Y-13182725D01*
X25045355Y-13206802D01*
X25086994Y-13225249D01*
X25114965Y-13236386D01*
X25124536Y-13238933D01*
X25143753Y-13243941D01*
X25148364Y-13248147D01*
X25143261Y-13258580D01*
X25127221Y-13284868D01*
X25102091Y-13324257D01*
X25069717Y-13373991D01*
X25031946Y-13431315D01*
X24990625Y-13493476D01*
X24947601Y-13557718D01*
X24904720Y-13621285D01*
X24863829Y-13681425D01*
X24826774Y-13735380D01*
X24795403Y-13780397D01*
X24771562Y-13813721D01*
X24757097Y-13832597D01*
X24755112Y-13834787D01*
X24744994Y-13830138D01*
X24722653Y-13812962D01*
X24692083Y-13786440D01*
X24676339Y-13771964D01*
X24579850Y-13696682D01*
X24473139Y-13641241D01*
X24357635Y-13606141D01*
X24234765Y-13591880D01*
X24165364Y-13593051D01*
X24044226Y-13610212D01*
X23935008Y-13646094D01*
X23837385Y-13700959D01*
X23751031Y-13775070D01*
X23675618Y-13868688D01*
X23610821Y-13982076D01*
X23573404Y-14068667D01*
X23529551Y-14204366D01*
X23497231Y-14351850D01*
X23476360Y-14507314D01*
X23466854Y-14666956D01*
X23468630Y-14826973D01*
X23481606Y-14983561D01*
X23505697Y-15132918D01*
X23540821Y-15271240D01*
X23586895Y-15394724D01*
X23603176Y-15428978D01*
X23671423Y-15543064D01*
X23751882Y-15639557D01*
X23843373Y-15717670D01*
X23944714Y-15776617D01*
X24054723Y-15815612D01*
X24172218Y-15833868D01*
X24213686Y-15835211D01*
X24335244Y-15824290D01*
X24455681Y-15791474D01*
X24573469Y-15737439D01*
X24687080Y-15662865D01*
X24778488Y-15584539D01*
X24825018Y-15540008D01*
X25006286Y-15837271D01*
X25051383Y-15911433D01*
X25092622Y-15979646D01*
X25128538Y-16039459D01*
X25157669Y-16088420D01*
X25178553Y-16124079D01*
X25189727Y-16143984D01*
X25191178Y-16147079D01*
X25182949Y-16156718D01*
X25157370Y-16173999D01*
X25117676Y-16197283D01*
X25067100Y-16224934D01*
X25008877Y-16255315D01*
X24946240Y-16286790D01*
X24882424Y-16317722D01*
X24820663Y-16346473D01*
X24764191Y-16371408D01*
X24716241Y-16390889D01*
X24692789Y-16399318D01*
X24559024Y-16437133D01*
X24421130Y-16462136D01*
X24273425Y-16475140D01*
X24146636Y-16477468D01*
X24078681Y-16476373D01*
X24013080Y-16474275D01*
X23955650Y-16471434D01*
X23912206Y-16468106D01*
X23898101Y-16466422D01*
X23759087Y-16437587D01*
X23617560Y-16392468D01*
X23480078Y-16333750D01*
X23353197Y-16264120D01*
X23275692Y-16211441D01*
X23148284Y-16103239D01*
X23029981Y-15976671D01*
X22922975Y-15834866D01*
X22829455Y-15680951D01*
X22751613Y-15518053D01*
X22707759Y-15400756D01*
X22657511Y-15217128D01*
X22624012Y-15022581D01*
X22607252Y-14821325D01*
X22607219Y-14617568D01*
X22623904Y-14415521D01*
X22657296Y-14219392D01*
X22707383Y-14033391D01*
X22711200Y-14021803D01*
X22774084Y-13859750D01*
X22850831Y-13711832D01*
X22944045Y-13573865D01*
X23056330Y-13441661D01*
X23100195Y-13396399D01*
X23236337Y-13272457D01*
X23376294Y-13169915D01*
X23522214Y-13087656D01*
X23676245Y-13024564D01*
X23840535Y-12979523D01*
X23936092Y-12962033D01*
X24094826Y-12946466D01*
X24253232Y-12949071D01*
G36*
X24253232Y-12949071D02*
G01*
X24413373Y-12970245D01*
X24577313Y-13010385D01*
X24747116Y-13069889D01*
X24924846Y-13149154D01*
X24936113Y-13154699D01*
X24993808Y-13182725D01*
X25045355Y-13206802D01*
X25086994Y-13225249D01*
X25114965Y-13236386D01*
X25124536Y-13238933D01*
X25143753Y-13243941D01*
X25148364Y-13248147D01*
X25143261Y-13258580D01*
X25127221Y-13284868D01*
X25102091Y-13324257D01*
X25069717Y-13373991D01*
X25031946Y-13431315D01*
X24990625Y-13493476D01*
X24947601Y-13557718D01*
X24904720Y-13621285D01*
X24863829Y-13681425D01*
X24826774Y-13735380D01*
X24795403Y-13780397D01*
X24771562Y-13813721D01*
X24757097Y-13832597D01*
X24755112Y-13834787D01*
X24744994Y-13830138D01*
X24722653Y-13812962D01*
X24692083Y-13786440D01*
X24676339Y-13771964D01*
X24579850Y-13696682D01*
X24473139Y-13641241D01*
X24357635Y-13606141D01*
X24234765Y-13591880D01*
X24165364Y-13593051D01*
X24044226Y-13610212D01*
X23935008Y-13646094D01*
X23837385Y-13700959D01*
X23751031Y-13775070D01*
X23675618Y-13868688D01*
X23610821Y-13982076D01*
X23573404Y-14068667D01*
X23529551Y-14204366D01*
X23497231Y-14351850D01*
X23476360Y-14507314D01*
X23466854Y-14666956D01*
X23468630Y-14826973D01*
X23481606Y-14983561D01*
X23505697Y-15132918D01*
X23540821Y-15271240D01*
X23586895Y-15394724D01*
X23603176Y-15428978D01*
X23671423Y-15543064D01*
X23751882Y-15639557D01*
X23843373Y-15717670D01*
X23944714Y-15776617D01*
X24054723Y-15815612D01*
X24172218Y-15833868D01*
X24213686Y-15835211D01*
X24335244Y-15824290D01*
X24455681Y-15791474D01*
X24573469Y-15737439D01*
X24687080Y-15662865D01*
X24778488Y-15584539D01*
X24825018Y-15540008D01*
X25006286Y-15837271D01*
X25051383Y-15911433D01*
X25092622Y-15979646D01*
X25128538Y-16039459D01*
X25157669Y-16088420D01*
X25178553Y-16124079D01*
X25189727Y-16143984D01*
X25191178Y-16147079D01*
X25182949Y-16156718D01*
X25157370Y-16173999D01*
X25117676Y-16197283D01*
X25067100Y-16224934D01*
X25008877Y-16255315D01*
X24946240Y-16286790D01*
X24882424Y-16317722D01*
X24820663Y-16346473D01*
X24764191Y-16371408D01*
X24716241Y-16390889D01*
X24692789Y-16399318D01*
X24559024Y-16437133D01*
X24421130Y-16462136D01*
X24273425Y-16475140D01*
X24146636Y-16477468D01*
X24078681Y-16476373D01*
X24013080Y-16474275D01*
X23955650Y-16471434D01*
X23912206Y-16468106D01*
X23898101Y-16466422D01*
X23759087Y-16437587D01*
X23617560Y-16392468D01*
X23480078Y-16333750D01*
X23353197Y-16264120D01*
X23275692Y-16211441D01*
X23148284Y-16103239D01*
X23029981Y-15976671D01*
X22922975Y-15834866D01*
X22829455Y-15680951D01*
X22751613Y-15518053D01*
X22707759Y-15400756D01*
X22657511Y-15217128D01*
X22624012Y-15022581D01*
X22607252Y-14821325D01*
X22607219Y-14617568D01*
X22623904Y-14415521D01*
X22657296Y-14219392D01*
X22707383Y-14033391D01*
X22711200Y-14021803D01*
X22774084Y-13859750D01*
X22850831Y-13711832D01*
X22944045Y-13573865D01*
X23056330Y-13441661D01*
X23100195Y-13396399D01*
X23236337Y-13272457D01*
X23376294Y-13169915D01*
X23522214Y-13087656D01*
X23676245Y-13024564D01*
X23840535Y-12979523D01*
X23936092Y-12962033D01*
X24094826Y-12946466D01*
X24253232Y-12949071D01*
G37*
X30111310Y-14472245D02*
X30111329Y-14706662D01*
X30111355Y-14919603D01*
X30111428Y-15112168D01*
X30111585Y-15285459D01*
X30111867Y-15440576D01*
X30112312Y-15578620D01*
X30112959Y-15700692D01*
X30113848Y-15807894D01*
X30115016Y-15901326D01*
X30116504Y-15982090D01*
X30118349Y-16051286D01*
X30120592Y-16110015D01*
X30123272Y-16159379D01*
X30126426Y-16200478D01*
X30130095Y-16234413D01*
X30134316Y-16262286D01*
X30139130Y-16285198D01*
X30144576Y-16304249D01*
X30150691Y-16320540D01*
X30157515Y-16335173D01*
X30165088Y-16349249D01*
X30173448Y-16363868D01*
X30178642Y-16372974D01*
X30212907Y-16433689D01*
X29354758Y-16433689D01*
X29354758Y-16337733D01*
X29354027Y-16294370D01*
X29352075Y-16261205D01*
X29349266Y-16243424D01*
X29348024Y-16241778D01*
X29336602Y-16248662D01*
X29313887Y-16266505D01*
X29291188Y-16285879D01*
X29236603Y-16326614D01*
X29167124Y-16367617D01*
X29090073Y-16405123D01*
X29012768Y-16435364D01*
X28981916Y-16445012D01*
X28913419Y-16459578D01*
X28830567Y-16469539D01*
X28741174Y-16474583D01*
X28653051Y-16474396D01*
X28574010Y-16468666D01*
X28536314Y-16462858D01*
X28398217Y-16424797D01*
X28270916Y-16367073D01*
X28155095Y-16290211D01*
X28051440Y-16194739D01*
X27960636Y-16081179D01*
X27893834Y-15970381D01*
X27838967Y-15853625D01*
X27796966Y-15734276D01*
X27766970Y-15608283D01*
X27748114Y-15471594D01*
X27739535Y-15320158D01*
X27738809Y-15242711D01*
X27740903Y-15185934D01*
X28570020Y-15185934D01*
X28570227Y-15279002D01*
X28573140Y-15366692D01*
X28578803Y-15443772D01*
X28587258Y-15505009D01*
X28589841Y-15517350D01*
X28621643Y-15624633D01*
X28663301Y-15711658D01*
X28715166Y-15778642D01*
X28777584Y-15825805D01*
X28850903Y-15853365D01*
X28935472Y-15861541D01*
X29031638Y-15850551D01*
X29095114Y-15834829D01*
X29144257Y-15816639D01*
X29198386Y-15790791D01*
X29239047Y-15767089D01*
X29309603Y-15720721D01*
X29309603Y-14570530D01*
X29242195Y-14526962D01*
X29163670Y-14486040D01*
X29079484Y-14459389D01*
X28994360Y-14447465D01*
X28913019Y-14450722D01*
X28840183Y-14469615D01*
X28808229Y-14485184D01*
X28750304Y-14528181D01*
X28701347Y-14584953D01*
X28660193Y-14657575D01*
X28625677Y-14748121D01*
X28596636Y-14858666D01*
X28595355Y-14864533D01*
X28585184Y-14926788D01*
X28577542Y-15004594D01*
X28572473Y-15092720D01*
X28570020Y-15185934D01*
X27740903Y-15185934D01*
X27746660Y-15029895D01*
X27768605Y-14834059D01*
X27804589Y-14655332D01*
X27854562Y-14493845D01*
X27918471Y-14349726D01*
X27996265Y-14223106D01*
X28087892Y-14114115D01*
X28193300Y-14022883D01*
X28238465Y-13991932D01*
X28339414Y-13935785D01*
X28442704Y-13896174D01*
X28552792Y-13872014D01*
X28674133Y-13862219D01*
X28766639Y-13863265D01*
X28896293Y-13874231D01*
X29008887Y-13896046D01*
X29107678Y-13929714D01*
X29195924Y-13976236D01*
X29244789Y-14010448D01*
X29274156Y-14032362D01*
X29295846Y-14047333D01*
X29304056Y-14051733D01*
X29305671Y-14040904D01*
X29306962Y-14010251D01*
X29307941Y-13962526D01*
X29308620Y-13900479D01*
X29309013Y-13826862D01*
X29309133Y-13744427D01*
X29308991Y-13655925D01*
X29308600Y-13564107D01*
X29307974Y-13471724D01*
X29307123Y-13381528D01*
X29306063Y-13296271D01*
X29304804Y-13218703D01*
X29303359Y-13151576D01*
X29301741Y-13097641D01*
X29299964Y-13059650D01*
X29299472Y-13052667D01*
X29291895Y-12982251D01*
X29280334Y-12927102D01*
X29262595Y-12879981D01*
X29236485Y-12833647D01*
X29230218Y-12824067D01*
X29205786Y-12787378D01*
X30111114Y-12787378D01*
X30111310Y-14472245D01*
G36*
X30111310Y-14472245D02*
G01*
X30111329Y-14706662D01*
X30111355Y-14919603D01*
X30111428Y-15112168D01*
X30111585Y-15285459D01*
X30111867Y-15440576D01*
X30112312Y-15578620D01*
X30112959Y-15700692D01*
X30113848Y-15807894D01*
X30115016Y-15901326D01*
X30116504Y-15982090D01*
X30118349Y-16051286D01*
X30120592Y-16110015D01*
X30123272Y-16159379D01*
X30126426Y-16200478D01*
X30130095Y-16234413D01*
X30134316Y-16262286D01*
X30139130Y-16285198D01*
X30144576Y-16304249D01*
X30150691Y-16320540D01*
X30157515Y-16335173D01*
X30165088Y-16349249D01*
X30173448Y-16363868D01*
X30178642Y-16372974D01*
X30212907Y-16433689D01*
X29354758Y-16433689D01*
X29354758Y-16337733D01*
X29354027Y-16294370D01*
X29352075Y-16261205D01*
X29349266Y-16243424D01*
X29348024Y-16241778D01*
X29336602Y-16248662D01*
X29313887Y-16266505D01*
X29291188Y-16285879D01*
X29236603Y-16326614D01*
X29167124Y-16367617D01*
X29090073Y-16405123D01*
X29012768Y-16435364D01*
X28981916Y-16445012D01*
X28913419Y-16459578D01*
X28830567Y-16469539D01*
X28741174Y-16474583D01*
X28653051Y-16474396D01*
X28574010Y-16468666D01*
X28536314Y-16462858D01*
X28398217Y-16424797D01*
X28270916Y-16367073D01*
X28155095Y-16290211D01*
X28051440Y-16194739D01*
X27960636Y-16081179D01*
X27893834Y-15970381D01*
X27838967Y-15853625D01*
X27796966Y-15734276D01*
X27766970Y-15608283D01*
X27748114Y-15471594D01*
X27739535Y-15320158D01*
X27738809Y-15242711D01*
X27740903Y-15185934D01*
X28570020Y-15185934D01*
X28570227Y-15279002D01*
X28573140Y-15366692D01*
X28578803Y-15443772D01*
X28587258Y-15505009D01*
X28589841Y-15517350D01*
X28621643Y-15624633D01*
X28663301Y-15711658D01*
X28715166Y-15778642D01*
X28777584Y-15825805D01*
X28850903Y-15853365D01*
X28935472Y-15861541D01*
X29031638Y-15850551D01*
X29095114Y-15834829D01*
X29144257Y-15816639D01*
X29198386Y-15790791D01*
X29239047Y-15767089D01*
X29309603Y-15720721D01*
X29309603Y-14570530D01*
X29242195Y-14526962D01*
X29163670Y-14486040D01*
X29079484Y-14459389D01*
X28994360Y-14447465D01*
X28913019Y-14450722D01*
X28840183Y-14469615D01*
X28808229Y-14485184D01*
X28750304Y-14528181D01*
X28701347Y-14584953D01*
X28660193Y-14657575D01*
X28625677Y-14748121D01*
X28596636Y-14858666D01*
X28595355Y-14864533D01*
X28585184Y-14926788D01*
X28577542Y-15004594D01*
X28572473Y-15092720D01*
X28570020Y-15185934D01*
X27740903Y-15185934D01*
X27746660Y-15029895D01*
X27768605Y-14834059D01*
X27804589Y-14655332D01*
X27854562Y-14493845D01*
X27918471Y-14349726D01*
X27996265Y-14223106D01*
X28087892Y-14114115D01*
X28193300Y-14022883D01*
X28238465Y-13991932D01*
X28339414Y-13935785D01*
X28442704Y-13896174D01*
X28552792Y-13872014D01*
X28674133Y-13862219D01*
X28766639Y-13863265D01*
X28896293Y-13874231D01*
X29008887Y-13896046D01*
X29107678Y-13929714D01*
X29195924Y-13976236D01*
X29244789Y-14010448D01*
X29274156Y-14032362D01*
X29295846Y-14047333D01*
X29304056Y-14051733D01*
X29305671Y-14040904D01*
X29306962Y-14010251D01*
X29307941Y-13962526D01*
X29308620Y-13900479D01*
X29309013Y-13826862D01*
X29309133Y-13744427D01*
X29308991Y-13655925D01*
X29308600Y-13564107D01*
X29307974Y-13471724D01*
X29307123Y-13381528D01*
X29306063Y-13296271D01*
X29304804Y-13218703D01*
X29303359Y-13151576D01*
X29301741Y-13097641D01*
X29299964Y-13059650D01*
X29299472Y-13052667D01*
X29291895Y-12982251D01*
X29280334Y-12927102D01*
X29262595Y-12879981D01*
X29236485Y-12833647D01*
X29230218Y-12824067D01*
X29205786Y-12787378D01*
X30111114Y-12787378D01*
X30111310Y-14472245D01*
G37*
X26598377Y-13866552D02*
X26750295Y-13886567D01*
X26885559Y-13920202D01*
X27005042Y-13967725D01*
X27109618Y-14029405D01*
X27187227Y-14092965D01*
X27256068Y-14167099D01*
X27309809Y-14246871D01*
X27352713Y-14339091D01*
X27368187Y-14382161D01*
X27381047Y-14421142D01*
X27392249Y-14457289D01*
X27401923Y-14492434D01*
X27410199Y-14528410D01*
X27417206Y-14567050D01*
X27423075Y-14610185D01*
X27427934Y-14659649D01*
X27431913Y-14717273D01*
X27435143Y-14784891D01*
X27437752Y-14864334D01*
X27439870Y-14957436D01*
X27441627Y-15066027D01*
X27443152Y-15191942D01*
X27444575Y-15337012D01*
X27445828Y-15479778D01*
X27447154Y-15635968D01*
X27448359Y-15771239D01*
X27449569Y-15887246D01*
X27450909Y-15985645D01*
X27452503Y-16068093D01*
X27454478Y-16136246D01*
X27456959Y-16191760D01*
X27460072Y-16236292D01*
X27463941Y-16271498D01*
X27468692Y-16299034D01*
X27474451Y-16320556D01*
X27481342Y-16337722D01*
X27489492Y-16352186D01*
X27499026Y-16365606D01*
X27510069Y-16379638D01*
X27514369Y-16385071D01*
X27530189Y-16407910D01*
X27537225Y-16423463D01*
X27537247Y-16423922D01*
X27526370Y-16426121D01*
X27495385Y-16428147D01*
X27446760Y-16429942D01*
X27382966Y-16431451D01*
X27306472Y-16432616D01*
X27219747Y-16433380D01*
X27125260Y-16433686D01*
X27114353Y-16433689D01*
X26691460Y-16433689D01*
X26688198Y-16337622D01*
X26684936Y-16241556D01*
X26622847Y-16292543D01*
X26525517Y-16360057D01*
X26415616Y-16414749D01*
X26329152Y-16444978D01*
X26260081Y-16459666D01*
X26176728Y-16469659D01*
X26086962Y-16474646D01*
X25998648Y-16474313D01*
X25919654Y-16468351D01*
X25883425Y-16462638D01*
X25743406Y-16424776D01*
X25616981Y-16369932D01*
X25505063Y-16298924D01*
X25408565Y-16212568D01*
X25328403Y-16111679D01*
X25265490Y-15997076D01*
X25221115Y-15870984D01*
X25208781Y-15814401D01*
X25201171Y-15752202D01*
X25197542Y-15677363D01*
X25197048Y-15643467D01*
X25197113Y-15640282D01*
X25957051Y-15640282D01*
X25966344Y-15715333D01*
X25994531Y-15779160D01*
X26043000Y-15834798D01*
X26048057Y-15839211D01*
X26096351Y-15874037D01*
X26148060Y-15896620D01*
X26208792Y-15908540D01*
X26284155Y-15911383D01*
X26302262Y-15910978D01*
X26356081Y-15908325D01*
X26396111Y-15902909D01*
X26431127Y-15892745D01*
X26469906Y-15875850D01*
X26480548Y-15870672D01*
X26541199Y-15834844D01*
X26588018Y-15792212D01*
X26600755Y-15776973D01*
X26645425Y-15720462D01*
X26645425Y-15524586D01*
X26644889Y-15445939D01*
X26643199Y-15387988D01*
X26640231Y-15348875D01*
X26635860Y-15326741D01*
X26631775Y-15320274D01*
X26615850Y-15317111D01*
X26582067Y-15314488D01*
X26535143Y-15312655D01*
X26479796Y-15311857D01*
X26470909Y-15311842D01*
X26350133Y-15317096D01*
X26247463Y-15333263D01*
X26160909Y-15360961D01*
X26088484Y-15400808D01*
X26033554Y-15447758D01*
X25989007Y-15505645D01*
X25964283Y-15568693D01*
X25957051Y-15640282D01*
X25197113Y-15640282D01*
X25198981Y-15549712D01*
X25207325Y-15470812D01*
X25223571Y-15399590D01*
X25249208Y-15328864D01*
X25273204Y-15276493D01*
X25331823Y-15181196D01*
X25409920Y-15093170D01*
X25505118Y-15014017D01*
X25615041Y-14945340D01*
X25737313Y-14888741D01*
X25869558Y-14845821D01*
X25934225Y-14830882D01*
X26070407Y-14808777D01*
X26218852Y-14794194D01*
X26370308Y-14787813D01*
X26496867Y-14789445D01*
X26658753Y-14796224D01*
X26651333Y-14737245D01*
X26632041Y-14638092D01*
X26600907Y-14557372D01*
X26557072Y-14494466D01*
X26499674Y-14448756D01*
X26427851Y-14419622D01*
X26340744Y-14406447D01*
X26237489Y-14408611D01*
X26199514Y-14412612D01*
X26058323Y-14437780D01*
X25921510Y-14478814D01*
X25826981Y-14516815D01*
X25781821Y-14536190D01*
X25743388Y-14551760D01*
X25717037Y-14561405D01*
X25709349Y-14563452D01*
X25699605Y-14554374D01*
X25682886Y-14525405D01*
X25659035Y-14476217D01*
X25627896Y-14406484D01*
X25589310Y-14315879D01*
X25582713Y-14300089D01*
X25552656Y-14227772D01*
X25525677Y-14162425D01*
X25502939Y-14106906D01*
X25485609Y-14064072D01*
X25474851Y-14036781D01*
X25471744Y-14027942D01*
X25481743Y-14023187D01*
X25508020Y-14017910D01*
X25536292Y-14014231D01*
X25566449Y-14009474D01*
X25614236Y-14000028D01*
X25675415Y-13986820D01*
X25745749Y-13970776D01*
X25820997Y-13952820D01*
X25849558Y-13945797D01*
X25954619Y-13920209D01*
X26042283Y-13900147D01*
X26116871Y-13884969D01*
X26182706Y-13874035D01*
X26244110Y-13866704D01*
X26305405Y-13862335D01*
X26370913Y-13860287D01*
X26428931Y-13859889D01*
X26598377Y-13866552D01*
G36*
X26598377Y-13866552D02*
G01*
X26750295Y-13886567D01*
X26885559Y-13920202D01*
X27005042Y-13967725D01*
X27109618Y-14029405D01*
X27187227Y-14092965D01*
X27256068Y-14167099D01*
X27309809Y-14246871D01*
X27352713Y-14339091D01*
X27368187Y-14382161D01*
X27381047Y-14421142D01*
X27392249Y-14457289D01*
X27401923Y-14492434D01*
X27410199Y-14528410D01*
X27417206Y-14567050D01*
X27423075Y-14610185D01*
X27427934Y-14659649D01*
X27431913Y-14717273D01*
X27435143Y-14784891D01*
X27437752Y-14864334D01*
X27439870Y-14957436D01*
X27441627Y-15066027D01*
X27443152Y-15191942D01*
X27444575Y-15337012D01*
X27445828Y-15479778D01*
X27447154Y-15635968D01*
X27448359Y-15771239D01*
X27449569Y-15887246D01*
X27450909Y-15985645D01*
X27452503Y-16068093D01*
X27454478Y-16136246D01*
X27456959Y-16191760D01*
X27460072Y-16236292D01*
X27463941Y-16271498D01*
X27468692Y-16299034D01*
X27474451Y-16320556D01*
X27481342Y-16337722D01*
X27489492Y-16352186D01*
X27499026Y-16365606D01*
X27510069Y-16379638D01*
X27514369Y-16385071D01*
X27530189Y-16407910D01*
X27537225Y-16423463D01*
X27537247Y-16423922D01*
X27526370Y-16426121D01*
X27495385Y-16428147D01*
X27446760Y-16429942D01*
X27382966Y-16431451D01*
X27306472Y-16432616D01*
X27219747Y-16433380D01*
X27125260Y-16433686D01*
X27114353Y-16433689D01*
X26691460Y-16433689D01*
X26688198Y-16337622D01*
X26684936Y-16241556D01*
X26622847Y-16292543D01*
X26525517Y-16360057D01*
X26415616Y-16414749D01*
X26329152Y-16444978D01*
X26260081Y-16459666D01*
X26176728Y-16469659D01*
X26086962Y-16474646D01*
X25998648Y-16474313D01*
X25919654Y-16468351D01*
X25883425Y-16462638D01*
X25743406Y-16424776D01*
X25616981Y-16369932D01*
X25505063Y-16298924D01*
X25408565Y-16212568D01*
X25328403Y-16111679D01*
X25265490Y-15997076D01*
X25221115Y-15870984D01*
X25208781Y-15814401D01*
X25201171Y-15752202D01*
X25197542Y-15677363D01*
X25197048Y-15643467D01*
X25197113Y-15640282D01*
X25957051Y-15640282D01*
X25966344Y-15715333D01*
X25994531Y-15779160D01*
X26043000Y-15834798D01*
X26048057Y-15839211D01*
X26096351Y-15874037D01*
X26148060Y-15896620D01*
X26208792Y-15908540D01*
X26284155Y-15911383D01*
X26302262Y-15910978D01*
X26356081Y-15908325D01*
X26396111Y-15902909D01*
X26431127Y-15892745D01*
X26469906Y-15875850D01*
X26480548Y-15870672D01*
X26541199Y-15834844D01*
X26588018Y-15792212D01*
X26600755Y-15776973D01*
X26645425Y-15720462D01*
X26645425Y-15524586D01*
X26644889Y-15445939D01*
X26643199Y-15387988D01*
X26640231Y-15348875D01*
X26635860Y-15326741D01*
X26631775Y-15320274D01*
X26615850Y-15317111D01*
X26582067Y-15314488D01*
X26535143Y-15312655D01*
X26479796Y-15311857D01*
X26470909Y-15311842D01*
X26350133Y-15317096D01*
X26247463Y-15333263D01*
X26160909Y-15360961D01*
X26088484Y-15400808D01*
X26033554Y-15447758D01*
X25989007Y-15505645D01*
X25964283Y-15568693D01*
X25957051Y-15640282D01*
X25197113Y-15640282D01*
X25198981Y-15549712D01*
X25207325Y-15470812D01*
X25223571Y-15399590D01*
X25249208Y-15328864D01*
X25273204Y-15276493D01*
X25331823Y-15181196D01*
X25409920Y-15093170D01*
X25505118Y-15014017D01*
X25615041Y-14945340D01*
X25737313Y-14888741D01*
X25869558Y-14845821D01*
X25934225Y-14830882D01*
X26070407Y-14808777D01*
X26218852Y-14794194D01*
X26370308Y-14787813D01*
X26496867Y-14789445D01*
X26658753Y-14796224D01*
X26651333Y-14737245D01*
X26632041Y-14638092D01*
X26600907Y-14557372D01*
X26557072Y-14494466D01*
X26499674Y-14448756D01*
X26427851Y-14419622D01*
X26340744Y-14406447D01*
X26237489Y-14408611D01*
X26199514Y-14412612D01*
X26058323Y-14437780D01*
X25921510Y-14478814D01*
X25826981Y-14516815D01*
X25781821Y-14536190D01*
X25743388Y-14551760D01*
X25717037Y-14561405D01*
X25709349Y-14563452D01*
X25699605Y-14554374D01*
X25682886Y-14525405D01*
X25659035Y-14476217D01*
X25627896Y-14406484D01*
X25589310Y-14315879D01*
X25582713Y-14300089D01*
X25552656Y-14227772D01*
X25525677Y-14162425D01*
X25502939Y-14106906D01*
X25485609Y-14064072D01*
X25474851Y-14036781D01*
X25471744Y-14027942D01*
X25481743Y-14023187D01*
X25508020Y-14017910D01*
X25536292Y-14014231D01*
X25566449Y-14009474D01*
X25614236Y-14000028D01*
X25675415Y-13986820D01*
X25745749Y-13970776D01*
X25820997Y-13952820D01*
X25849558Y-13945797D01*
X25954619Y-13920209D01*
X26042283Y-13900147D01*
X26116871Y-13884969D01*
X26182706Y-13874035D01*
X26244110Y-13866704D01*
X26305405Y-13862335D01*
X26370913Y-13860287D01*
X26428931Y-13859889D01*
X26598377Y-13866552D01*
G37*
X20978403Y-12489054D02*
X20989268Y-12602993D01*
X21020885Y-12710616D01*
X21071788Y-12809615D01*
X21140510Y-12897684D01*
X21225584Y-12972516D01*
X21322571Y-13030384D01*
X21428839Y-13070005D01*
X21535853Y-13088573D01*
X21641503Y-13087434D01*
X21743678Y-13067930D01*
X21840269Y-13031406D01*
X21929165Y-12979205D01*
X22008257Y-12912673D01*
X22075434Y-12833152D01*
X22128586Y-12741987D01*
X22165604Y-12640523D01*
X22184376Y-12530102D01*
X22186314Y-12480206D01*
X22186314Y-12392267D01*
X22238243Y-12392267D01*
X22274550Y-12395111D01*
X22301448Y-12406911D01*
X22328554Y-12430649D01*
X22366936Y-12469031D01*
X22366936Y-14660602D01*
X22366927Y-14922739D01*
X22366895Y-15163241D01*
X22366831Y-15383048D01*
X22366727Y-15583101D01*
X22366576Y-15764344D01*
X22366369Y-15927716D01*
X22366097Y-16074160D01*
X22365753Y-16204617D01*
X22365329Y-16320029D01*
X22364816Y-16421338D01*
X22364206Y-16509484D01*
X22363491Y-16585410D01*
X22362663Y-16650057D01*
X22361714Y-16704367D01*
X22360636Y-16749280D01*
X22359420Y-16785740D01*
X22358058Y-16814687D01*
X22356542Y-16837063D01*
X22354865Y-16853809D01*
X22353017Y-16865868D01*
X22350990Y-16874180D01*
X22348778Y-16879687D01*
X22347695Y-16881537D01*
X22343532Y-16888549D01*
X22339998Y-16894996D01*
X22336168Y-16900900D01*
X22331121Y-16906286D01*
X22323932Y-16911178D01*
X22313680Y-16915598D01*
X22299439Y-16919572D01*
X22280289Y-16923121D01*
X22255304Y-16926270D01*
X22223563Y-16929042D01*
X22184141Y-16931461D01*
X22136117Y-16933551D01*
X22078566Y-16935335D01*
X22010566Y-16936837D01*
X21931193Y-16938080D01*
X21839524Y-16939089D01*
X21734637Y-16939885D01*
X21615607Y-16940494D01*
X21481513Y-16940939D01*
X21331430Y-16941243D01*
X21164436Y-16941430D01*
X20979607Y-16941524D01*
X20776020Y-16941548D01*
X20552753Y-16941525D01*
X20308881Y-16941480D01*
X20043482Y-16941437D01*
X20005099Y-16941432D01*
X19738121Y-16941389D01*
X19492801Y-16941318D01*
X19268220Y-16941213D01*
X19063458Y-16941066D01*
X18877597Y-16940869D01*
X18709715Y-16940616D01*
X18558895Y-16940300D01*
X18424216Y-16939913D01*
X18304759Y-16939447D01*
X18199604Y-16938897D01*
X18107832Y-16938253D01*
X18028524Y-16937511D01*
X17960760Y-16936661D01*
X17903621Y-16935697D01*
X17856186Y-16934611D01*
X17817537Y-16933397D01*
X17786754Y-16932047D01*
X17762918Y-16930555D01*
X17745109Y-16928911D01*
X17732408Y-16927111D01*
X17723895Y-16925145D01*
X17719537Y-16923477D01*
X17711075Y-16919906D01*
X17703306Y-16917270D01*
X17696201Y-16914634D01*
X17689730Y-16911062D01*
X17683864Y-16905621D01*
X17678574Y-16897375D01*
X17673829Y-16885390D01*
X17669601Y-16868731D01*
X17665860Y-16846463D01*
X17662576Y-16817652D01*
X17659720Y-16781363D01*
X17657263Y-16736661D01*
X17655174Y-16682611D01*
X17653425Y-16618279D01*
X17651986Y-16542730D01*
X17650827Y-16455030D01*
X17649920Y-16354243D01*
X17649234Y-16239434D01*
X17648740Y-16109670D01*
X17648408Y-15964015D01*
X17648210Y-15801535D01*
X17648116Y-15621295D01*
X17648095Y-15422360D01*
X17648118Y-15203796D01*
X17648157Y-14964668D01*
X17648181Y-14704040D01*
X17648181Y-14661889D01*
X17648167Y-14398992D01*
X17648142Y-14157732D01*
X17648132Y-13937165D01*
X17648161Y-13736352D01*
X17648255Y-13554349D01*
X17648441Y-13390216D01*
X17648744Y-13243011D01*
X17649189Y-13111792D01*
X17649769Y-13001867D01*
X17952606Y-13001867D01*
X17992396Y-13059711D01*
X18003567Y-13075479D01*
X18013637Y-13089441D01*
X18022665Y-13102784D01*
X18030706Y-13116693D01*
X18037817Y-13132356D01*
X18044056Y-13150958D01*
X18049478Y-13173686D01*
X18054141Y-13201727D01*
X18058102Y-13236267D01*
X18061418Y-13278492D01*
X18064144Y-13329589D01*
X18066339Y-13390744D01*
X18068058Y-13463144D01*
X18069359Y-13547975D01*
X18070298Y-13646422D01*
X18070933Y-13759674D01*
X18071319Y-13888916D01*
X18071515Y-14035334D01*
X18071576Y-14200116D01*
X18071560Y-14384447D01*
X18071523Y-14589513D01*
X18071514Y-14712133D01*
X18071538Y-14929082D01*
X18071572Y-15124642D01*
X18071560Y-15299999D01*
X18071445Y-15456341D01*
X18071173Y-15594857D01*
X18070685Y-15716734D01*
X18069927Y-15823160D01*
X18068841Y-15915322D01*
X18067372Y-15994409D01*
X18065463Y-16061608D01*
X18063059Y-16118107D01*
X18060102Y-16165093D01*
X18056537Y-16203755D01*
X18052308Y-16235280D01*
X18047357Y-16260855D01*
X18041630Y-16281670D01*
X18035070Y-16298911D01*
X18027620Y-16313765D01*
X18019224Y-16327422D01*
X18009827Y-16341069D01*
X17999371Y-16355893D01*
X17993280Y-16364783D01*
X17954507Y-16422400D01*
X18486071Y-16422400D01*
X18609320Y-16422365D01*
X18711816Y-16422215D01*
X18795383Y-16421878D01*
X18861847Y-16421286D01*
X18913032Y-16420367D01*
X18950762Y-16419051D01*
X18976863Y-16417269D01*
X18993159Y-16414951D01*
X19001475Y-16412026D01*
X19003635Y-16408424D01*
X19001464Y-16404075D01*
X19000268Y-16402645D01*
X18975118Y-16365573D01*
X18949220Y-16312772D01*
X18925611Y-16250770D01*
X18917342Y-16224357D01*
X18912725Y-16206416D01*
X18908824Y-16185355D01*
X18905555Y-16159089D01*
X18902837Y-16125532D01*
X18900588Y-16082599D01*
X18898726Y-16028204D01*
X18897167Y-15960262D01*
X18895831Y-15876688D01*
X18894634Y-15775395D01*
X18893495Y-15654300D01*
X18893118Y-15609600D01*
X18892101Y-15484449D01*
X18891343Y-15380082D01*
X18890900Y-15294707D01*
X18890833Y-15226533D01*
X18891198Y-15173765D01*
X18892055Y-15134614D01*
X18893462Y-15107285D01*
X18895478Y-15089986D01*
X18898160Y-15080926D01*
X18901567Y-15078312D01*
X18905759Y-15080351D01*
X18910232Y-15084667D01*
X18920587Y-15097602D01*
X18942645Y-15126676D01*
X18974846Y-15169759D01*
X19015629Y-15224718D01*
X19063433Y-15289423D01*
X19116698Y-15361742D01*
X19173863Y-15439544D01*
X19233366Y-15520698D01*
X19293648Y-15603072D01*
X19353148Y-15684536D01*
X19410305Y-15762957D01*
X19463558Y-15836204D01*
X19511346Y-15902147D01*
X19552110Y-15958654D01*
X19584287Y-16003593D01*
X19606318Y-16034834D01*
X19610886Y-16041466D01*
X19633807Y-16078369D01*
X19660615Y-16126359D01*
X19686014Y-16175897D01*
X19689235Y-16182577D01*
X19710913Y-16230772D01*
X19723499Y-16268334D01*
X19729229Y-16304160D01*
X19730347Y-16346200D01*
X19729713Y-16422400D01*
X20884152Y-16422400D01*
X20792988Y-16328669D01*
X20746191Y-16278775D01*
X20695904Y-16222295D01*
X20649859Y-16168026D01*
X20629434Y-16142673D01*
X20598996Y-16103128D01*
X20558941Y-16049916D01*
X20510442Y-15984667D01*
X20454668Y-15909011D01*
X20392792Y-15824577D01*
X20325984Y-15732994D01*
X20255416Y-15635892D01*
X20182258Y-15534901D01*
X20107682Y-15431650D01*
X20032859Y-15327768D01*
X19958960Y-15224885D01*
X19887157Y-15124631D01*
X19818619Y-15028636D01*
X19754519Y-14938527D01*
X19696028Y-14855936D01*
X19644317Y-14782492D01*
X19600556Y-14719824D01*
X19565918Y-14669561D01*
X19541573Y-14633334D01*
X19528692Y-14612771D01*
X19526934Y-14608668D01*
X19534893Y-14597342D01*
X19555688Y-14570162D01*
X19587956Y-14528829D01*
X19630333Y-14475044D01*
X19681456Y-14410506D01*
X19739962Y-14336918D01*
X19804489Y-14255978D01*
X19873672Y-14169388D01*
X19946150Y-14078848D01*
X20020557Y-13986060D01*
X20080286Y-13911702D01*
X21091292Y-13911702D01*
X21097201Y-13924659D01*
X21111531Y-13946908D01*
X21112578Y-13948391D01*
X21131365Y-13978544D01*
X21151012Y-14015375D01*
X21154911Y-14023511D01*
X21158447Y-14031940D01*
X21161573Y-14042059D01*
X21164317Y-14055260D01*
X21166711Y-14072938D01*
X21168784Y-14096484D01*
X21170568Y-14127293D01*
X21172091Y-14166757D01*
X21173384Y-14216269D01*
X21174477Y-14277223D01*
X21175400Y-14351011D01*
X21176184Y-14439028D01*
X21176858Y-14542665D01*
X21177453Y-14663316D01*
X21177998Y-14802374D01*
X21178524Y-14961232D01*
X21179058Y-15140089D01*
X21179597Y-15325207D01*
X21180031Y-15489145D01*
X21180294Y-15633303D01*
X21180319Y-15759079D01*
X21180038Y-15867871D01*
X21179384Y-15961077D01*
X21178289Y-16040097D01*
X21176685Y-16106328D01*
X21174506Y-16161170D01*
X21171684Y-16206021D01*
X21168152Y-16242278D01*
X21163842Y-16271341D01*
X21158686Y-16294609D01*
X21152618Y-16313479D01*
X21145570Y-16329351D01*
X21137474Y-16343622D01*
X21128263Y-16357691D01*
X21119763Y-16370158D01*
X21102627Y-16396452D01*
X21092481Y-16414037D01*
X21091292Y-16417257D01*
X21102199Y-16418334D01*
X21133392Y-16419335D01*
X21182580Y-16420235D01*
X21247470Y-16421010D01*
X21325773Y-16421637D01*
X21415196Y-16422091D01*
X21513447Y-16422349D01*
X21582358Y-16422400D01*
X21687351Y-16422180D01*
X21784193Y-16421548D01*
X21870696Y-16420549D01*
X21944671Y-16419227D01*
X22003929Y-16417626D01*
X22046283Y-16415791D01*
X22069543Y-16413765D01*
X22073425Y-16412493D01*
X22065727Y-16397591D01*
X22057729Y-16389560D01*
X22044557Y-16372434D01*
X22027318Y-16342183D01*
X22015396Y-16317622D01*
X21988758Y-16258711D01*
X21985683Y-15081845D01*
X21982608Y-13904978D01*
X21536950Y-13904978D01*
X21439133Y-13905142D01*
X21348739Y-13905611D01*
X21268173Y-13906347D01*
X21199841Y-13907316D01*
X21146147Y-13908480D01*
X21109498Y-13909803D01*
X21092299Y-13911249D01*
X21091292Y-13911702D01*
X20080286Y-13911702D01*
X20095533Y-13892722D01*
X20169713Y-13800537D01*
X20241734Y-13711204D01*
X20310234Y-13626424D01*
X20373848Y-13547898D01*
X20431215Y-13477326D01*
X20480970Y-13416409D01*
X20521751Y-13366847D01*
X20538915Y-13346178D01*
X20625207Y-13245516D01*
X20701806Y-13162259D01*
X20770620Y-13094438D01*
X20833555Y-13040089D01*
X20842936Y-13032722D01*
X20882447Y-13002117D01*
X19750687Y-13001867D01*
X19755976Y-13049844D01*
X19752673Y-13107188D01*
X19731142Y-13175463D01*
X19691168Y-13255212D01*
X19645860Y-13327495D01*
X19629642Y-13350140D01*
X19601589Y-13387696D01*
X19563373Y-13438021D01*
X19516666Y-13498973D01*
X19463142Y-13568411D01*
X19404472Y-13644194D01*
X19342328Y-13724180D01*
X19278382Y-13806228D01*
X19214308Y-13888196D01*
X19151776Y-13967943D01*
X19092460Y-14043327D01*
X19038032Y-14112207D01*
X18990164Y-14172442D01*
X18950528Y-14221889D01*
X18920797Y-14258408D01*
X18902642Y-14279858D01*
X18899583Y-14283156D01*
X18896724Y-14275149D01*
X18894510Y-14244855D01*
X18892946Y-14192556D01*
X18892036Y-14118531D01*
X18891783Y-14023063D01*
X18892190Y-13906434D01*
X18893099Y-13786445D01*
X18894421Y-13654333D01*
X18895946Y-13542594D01*
X18897922Y-13449025D01*
X18900597Y-13371419D01*
X18904221Y-13307574D01*
X18909042Y-13255283D01*
X18915309Y-13212344D01*
X18923271Y-13176551D01*
X18933176Y-13145700D01*
X18945272Y-13117586D01*
X18959810Y-13090005D01*
X18974492Y-13064966D01*
X19012489Y-13001867D01*
X17952606Y-13001867D01*
X17649769Y-13001867D01*
X17649802Y-12995617D01*
X17650608Y-12893544D01*
X17651633Y-12804633D01*
X17652903Y-12727941D01*
X17654443Y-12662527D01*
X17656279Y-12607449D01*
X17658436Y-12561765D01*
X17660940Y-12524534D01*
X17663816Y-12494813D01*
X17667090Y-12471662D01*
X17670788Y-12454139D01*
X17674934Y-12441301D01*
X17679556Y-12432208D01*
X17684677Y-12425918D01*
X17690325Y-12421488D01*
X17696524Y-12417978D01*
X17703299Y-12414445D01*
X17709295Y-12410876D01*
X17714528Y-12408300D01*
X17722704Y-12405972D01*
X17734917Y-12403878D01*
X17752262Y-12402007D01*
X17775834Y-12400347D01*
X17806726Y-12398884D01*
X17846035Y-12397608D01*
X17894853Y-12396504D01*
X17954276Y-12395561D01*
X18025399Y-12394767D01*
X18109315Y-12394109D01*
X18207120Y-12393575D01*
X18319909Y-12393153D01*
X18448774Y-12392829D01*
X18594812Y-12392592D01*
X18759117Y-12392430D01*
X18942783Y-12392330D01*
X19146906Y-12392280D01*
X19358050Y-12392267D01*
X20978403Y-12392267D01*
X20978403Y-12489054D01*
G36*
X20978403Y-12489054D02*
G01*
X20989268Y-12602993D01*
X21020885Y-12710616D01*
X21071788Y-12809615D01*
X21140510Y-12897684D01*
X21225584Y-12972516D01*
X21322571Y-13030384D01*
X21428839Y-13070005D01*
X21535853Y-13088573D01*
X21641503Y-13087434D01*
X21743678Y-13067930D01*
X21840269Y-13031406D01*
X21929165Y-12979205D01*
X22008257Y-12912673D01*
X22075434Y-12833152D01*
X22128586Y-12741987D01*
X22165604Y-12640523D01*
X22184376Y-12530102D01*
X22186314Y-12480206D01*
X22186314Y-12392267D01*
X22238243Y-12392267D01*
X22274550Y-12395111D01*
X22301448Y-12406911D01*
X22328554Y-12430649D01*
X22366936Y-12469031D01*
X22366936Y-14660602D01*
X22366927Y-14922739D01*
X22366895Y-15163241D01*
X22366831Y-15383048D01*
X22366727Y-15583101D01*
X22366576Y-15764344D01*
X22366369Y-15927716D01*
X22366097Y-16074160D01*
X22365753Y-16204617D01*
X22365329Y-16320029D01*
X22364816Y-16421338D01*
X22364206Y-16509484D01*
X22363491Y-16585410D01*
X22362663Y-16650057D01*
X22361714Y-16704367D01*
X22360636Y-16749280D01*
X22359420Y-16785740D01*
X22358058Y-16814687D01*
X22356542Y-16837063D01*
X22354865Y-16853809D01*
X22353017Y-16865868D01*
X22350990Y-16874180D01*
X22348778Y-16879687D01*
X22347695Y-16881537D01*
X22343532Y-16888549D01*
X22339998Y-16894996D01*
X22336168Y-16900900D01*
X22331121Y-16906286D01*
X22323932Y-16911178D01*
X22313680Y-16915598D01*
X22299439Y-16919572D01*
X22280289Y-16923121D01*
X22255304Y-16926270D01*
X22223563Y-16929042D01*
X22184141Y-16931461D01*
X22136117Y-16933551D01*
X22078566Y-16935335D01*
X22010566Y-16936837D01*
X21931193Y-16938080D01*
X21839524Y-16939089D01*
X21734637Y-16939885D01*
X21615607Y-16940494D01*
X21481513Y-16940939D01*
X21331430Y-16941243D01*
X21164436Y-16941430D01*
X20979607Y-16941524D01*
X20776020Y-16941548D01*
X20552753Y-16941525D01*
X20308881Y-16941480D01*
X20043482Y-16941437D01*
X20005099Y-16941432D01*
X19738121Y-16941389D01*
X19492801Y-16941318D01*
X19268220Y-16941213D01*
X19063458Y-16941066D01*
X18877597Y-16940869D01*
X18709715Y-16940616D01*
X18558895Y-16940300D01*
X18424216Y-16939913D01*
X18304759Y-16939447D01*
X18199604Y-16938897D01*
X18107832Y-16938253D01*
X18028524Y-16937511D01*
X17960760Y-16936661D01*
X17903621Y-16935697D01*
X17856186Y-16934611D01*
X17817537Y-16933397D01*
X17786754Y-16932047D01*
X17762918Y-16930555D01*
X17745109Y-16928911D01*
X17732408Y-16927111D01*
X17723895Y-16925145D01*
X17719537Y-16923477D01*
X17711075Y-16919906D01*
X17703306Y-16917270D01*
X17696201Y-16914634D01*
X17689730Y-16911062D01*
X17683864Y-16905621D01*
X17678574Y-16897375D01*
X17673829Y-16885390D01*
X17669601Y-16868731D01*
X17665860Y-16846463D01*
X17662576Y-16817652D01*
X17659720Y-16781363D01*
X17657263Y-16736661D01*
X17655174Y-16682611D01*
X17653425Y-16618279D01*
X17651986Y-16542730D01*
X17650827Y-16455030D01*
X17649920Y-16354243D01*
X17649234Y-16239434D01*
X17648740Y-16109670D01*
X17648408Y-15964015D01*
X17648210Y-15801535D01*
X17648116Y-15621295D01*
X17648095Y-15422360D01*
X17648118Y-15203796D01*
X17648157Y-14964668D01*
X17648181Y-14704040D01*
X17648181Y-14661889D01*
X17648167Y-14398992D01*
X17648142Y-14157732D01*
X17648132Y-13937165D01*
X17648161Y-13736352D01*
X17648255Y-13554349D01*
X17648441Y-13390216D01*
X17648744Y-13243011D01*
X17649189Y-13111792D01*
X17649769Y-13001867D01*
X17952606Y-13001867D01*
X17992396Y-13059711D01*
X18003567Y-13075479D01*
X18013637Y-13089441D01*
X18022665Y-13102784D01*
X18030706Y-13116693D01*
X18037817Y-13132356D01*
X18044056Y-13150958D01*
X18049478Y-13173686D01*
X18054141Y-13201727D01*
X18058102Y-13236267D01*
X18061418Y-13278492D01*
X18064144Y-13329589D01*
X18066339Y-13390744D01*
X18068058Y-13463144D01*
X18069359Y-13547975D01*
X18070298Y-13646422D01*
X18070933Y-13759674D01*
X18071319Y-13888916D01*
X18071515Y-14035334D01*
X18071576Y-14200116D01*
X18071560Y-14384447D01*
X18071523Y-14589513D01*
X18071514Y-14712133D01*
X18071538Y-14929082D01*
X18071572Y-15124642D01*
X18071560Y-15299999D01*
X18071445Y-15456341D01*
X18071173Y-15594857D01*
X18070685Y-15716734D01*
X18069927Y-15823160D01*
X18068841Y-15915322D01*
X18067372Y-15994409D01*
X18065463Y-16061608D01*
X18063059Y-16118107D01*
X18060102Y-16165093D01*
X18056537Y-16203755D01*
X18052308Y-16235280D01*
X18047357Y-16260855D01*
X18041630Y-16281670D01*
X18035070Y-16298911D01*
X18027620Y-16313765D01*
X18019224Y-16327422D01*
X18009827Y-16341069D01*
X17999371Y-16355893D01*
X17993280Y-16364783D01*
X17954507Y-16422400D01*
X18486071Y-16422400D01*
X18609320Y-16422365D01*
X18711816Y-16422215D01*
X18795383Y-16421878D01*
X18861847Y-16421286D01*
X18913032Y-16420367D01*
X18950762Y-16419051D01*
X18976863Y-16417269D01*
X18993159Y-16414951D01*
X19001475Y-16412026D01*
X19003635Y-16408424D01*
X19001464Y-16404075D01*
X19000268Y-16402645D01*
X18975118Y-16365573D01*
X18949220Y-16312772D01*
X18925611Y-16250770D01*
X18917342Y-16224357D01*
X18912725Y-16206416D01*
X18908824Y-16185355D01*
X18905555Y-16159089D01*
X18902837Y-16125532D01*
X18900588Y-16082599D01*
X18898726Y-16028204D01*
X18897167Y-15960262D01*
X18895831Y-15876688D01*
X18894634Y-15775395D01*
X18893495Y-15654300D01*
X18893118Y-15609600D01*
X18892101Y-15484449D01*
X18891343Y-15380082D01*
X18890900Y-15294707D01*
X18890833Y-15226533D01*
X18891198Y-15173765D01*
X18892055Y-15134614D01*
X18893462Y-15107285D01*
X18895478Y-15089986D01*
X18898160Y-15080926D01*
X18901567Y-15078312D01*
X18905759Y-15080351D01*
X18910232Y-15084667D01*
X18920587Y-15097602D01*
X18942645Y-15126676D01*
X18974846Y-15169759D01*
X19015629Y-15224718D01*
X19063433Y-15289423D01*
X19116698Y-15361742D01*
X19173863Y-15439544D01*
X19233366Y-15520698D01*
X19293648Y-15603072D01*
X19353148Y-15684536D01*
X19410305Y-15762957D01*
X19463558Y-15836204D01*
X19511346Y-15902147D01*
X19552110Y-15958654D01*
X19584287Y-16003593D01*
X19606318Y-16034834D01*
X19610886Y-16041466D01*
X19633807Y-16078369D01*
X19660615Y-16126359D01*
X19686014Y-16175897D01*
X19689235Y-16182577D01*
X19710913Y-16230772D01*
X19723499Y-16268334D01*
X19729229Y-16304160D01*
X19730347Y-16346200D01*
X19729713Y-16422400D01*
X20884152Y-16422400D01*
X20792988Y-16328669D01*
X20746191Y-16278775D01*
X20695904Y-16222295D01*
X20649859Y-16168026D01*
X20629434Y-16142673D01*
X20598996Y-16103128D01*
X20558941Y-16049916D01*
X20510442Y-15984667D01*
X20454668Y-15909011D01*
X20392792Y-15824577D01*
X20325984Y-15732994D01*
X20255416Y-15635892D01*
X20182258Y-15534901D01*
X20107682Y-15431650D01*
X20032859Y-15327768D01*
X19958960Y-15224885D01*
X19887157Y-15124631D01*
X19818619Y-15028636D01*
X19754519Y-14938527D01*
X19696028Y-14855936D01*
X19644317Y-14782492D01*
X19600556Y-14719824D01*
X19565918Y-14669561D01*
X19541573Y-14633334D01*
X19528692Y-14612771D01*
X19526934Y-14608668D01*
X19534893Y-14597342D01*
X19555688Y-14570162D01*
X19587956Y-14528829D01*
X19630333Y-14475044D01*
X19681456Y-14410506D01*
X19739962Y-14336918D01*
X19804489Y-14255978D01*
X19873672Y-14169388D01*
X19946150Y-14078848D01*
X20020557Y-13986060D01*
X20080286Y-13911702D01*
X21091292Y-13911702D01*
X21097201Y-13924659D01*
X21111531Y-13946908D01*
X21112578Y-13948391D01*
X21131365Y-13978544D01*
X21151012Y-14015375D01*
X21154911Y-14023511D01*
X21158447Y-14031940D01*
X21161573Y-14042059D01*
X21164317Y-14055260D01*
X21166711Y-14072938D01*
X21168784Y-14096484D01*
X21170568Y-14127293D01*
X21172091Y-14166757D01*
X21173384Y-14216269D01*
X21174477Y-14277223D01*
X21175400Y-14351011D01*
X21176184Y-14439028D01*
X21176858Y-14542665D01*
X21177453Y-14663316D01*
X21177998Y-14802374D01*
X21178524Y-14961232D01*
X21179058Y-15140089D01*
X21179597Y-15325207D01*
X21180031Y-15489145D01*
X21180294Y-15633303D01*
X21180319Y-15759079D01*
X21180038Y-15867871D01*
X21179384Y-15961077D01*
X21178289Y-16040097D01*
X21176685Y-16106328D01*
X21174506Y-16161170D01*
X21171684Y-16206021D01*
X21168152Y-16242278D01*
X21163842Y-16271341D01*
X21158686Y-16294609D01*
X21152618Y-16313479D01*
X21145570Y-16329351D01*
X21137474Y-16343622D01*
X21128263Y-16357691D01*
X21119763Y-16370158D01*
X21102627Y-16396452D01*
X21092481Y-16414037D01*
X21091292Y-16417257D01*
X21102199Y-16418334D01*
X21133392Y-16419335D01*
X21182580Y-16420235D01*
X21247470Y-16421010D01*
X21325773Y-16421637D01*
X21415196Y-16422091D01*
X21513447Y-16422349D01*
X21582358Y-16422400D01*
X21687351Y-16422180D01*
X21784193Y-16421548D01*
X21870696Y-16420549D01*
X21944671Y-16419227D01*
X22003929Y-16417626D01*
X22046283Y-16415791D01*
X22069543Y-16413765D01*
X22073425Y-16412493D01*
X22065727Y-16397591D01*
X22057729Y-16389560D01*
X22044557Y-16372434D01*
X22027318Y-16342183D01*
X22015396Y-16317622D01*
X21988758Y-16258711D01*
X21985683Y-15081845D01*
X21982608Y-13904978D01*
X21536950Y-13904978D01*
X21439133Y-13905142D01*
X21348739Y-13905611D01*
X21268173Y-13906347D01*
X21199841Y-13907316D01*
X21146147Y-13908480D01*
X21109498Y-13909803D01*
X21092299Y-13911249D01*
X21091292Y-13911702D01*
X20080286Y-13911702D01*
X20095533Y-13892722D01*
X20169713Y-13800537D01*
X20241734Y-13711204D01*
X20310234Y-13626424D01*
X20373848Y-13547898D01*
X20431215Y-13477326D01*
X20480970Y-13416409D01*
X20521751Y-13366847D01*
X20538915Y-13346178D01*
X20625207Y-13245516D01*
X20701806Y-13162259D01*
X20770620Y-13094438D01*
X20833555Y-13040089D01*
X20842936Y-13032722D01*
X20882447Y-13002117D01*
X19750687Y-13001867D01*
X19755976Y-13049844D01*
X19752673Y-13107188D01*
X19731142Y-13175463D01*
X19691168Y-13255212D01*
X19645860Y-13327495D01*
X19629642Y-13350140D01*
X19601589Y-13387696D01*
X19563373Y-13438021D01*
X19516666Y-13498973D01*
X19463142Y-13568411D01*
X19404472Y-13644194D01*
X19342328Y-13724180D01*
X19278382Y-13806228D01*
X19214308Y-13888196D01*
X19151776Y-13967943D01*
X19092460Y-14043327D01*
X19038032Y-14112207D01*
X18990164Y-14172442D01*
X18950528Y-14221889D01*
X18920797Y-14258408D01*
X18902642Y-14279858D01*
X18899583Y-14283156D01*
X18896724Y-14275149D01*
X18894510Y-14244855D01*
X18892946Y-14192556D01*
X18892036Y-14118531D01*
X18891783Y-14023063D01*
X18892190Y-13906434D01*
X18893099Y-13786445D01*
X18894421Y-13654333D01*
X18895946Y-13542594D01*
X18897922Y-13449025D01*
X18900597Y-13371419D01*
X18904221Y-13307574D01*
X18909042Y-13255283D01*
X18915309Y-13212344D01*
X18923271Y-13176551D01*
X18933176Y-13145700D01*
X18945272Y-13117586D01*
X18959810Y-13090005D01*
X18974492Y-13064966D01*
X19012489Y-13001867D01*
X17952606Y-13001867D01*
X17649769Y-13001867D01*
X17649802Y-12995617D01*
X17650608Y-12893544D01*
X17651633Y-12804633D01*
X17652903Y-12727941D01*
X17654443Y-12662527D01*
X17656279Y-12607449D01*
X17658436Y-12561765D01*
X17660940Y-12524534D01*
X17663816Y-12494813D01*
X17667090Y-12471662D01*
X17670788Y-12454139D01*
X17674934Y-12441301D01*
X17679556Y-12432208D01*
X17684677Y-12425918D01*
X17690325Y-12421488D01*
X17696524Y-12417978D01*
X17703299Y-12414445D01*
X17709295Y-12410876D01*
X17714528Y-12408300D01*
X17722704Y-12405972D01*
X17734917Y-12403878D01*
X17752262Y-12402007D01*
X17775834Y-12400347D01*
X17806726Y-12398884D01*
X17846035Y-12397608D01*
X17894853Y-12396504D01*
X17954276Y-12395561D01*
X18025399Y-12394767D01*
X18109315Y-12394109D01*
X18207120Y-12393575D01*
X18319909Y-12393153D01*
X18448774Y-12392829D01*
X18594812Y-12392592D01*
X18759117Y-12392430D01*
X18942783Y-12392330D01*
X19146906Y-12392280D01*
X19358050Y-12392267D01*
X20978403Y-12392267D01*
X20978403Y-12489054D01*
G37*
D12*
X36602639Y-21140000D02*
X36386967Y-21140000D01*
X36602639Y-21860000D02*
X36386967Y-21860000D01*
D11*
X37276753Y-11488299D02*
X39232553Y-11488299D01*
X39232553Y-8211699D02*
X37276753Y-8211699D01*
X39232553Y-10213260D02*
X39232553Y-9486738D01*
D12*
X10484803Y-9957836D02*
X10484803Y-9742164D01*
X11204803Y-9957836D02*
X11204803Y-9742164D01*
X20014803Y-27953641D02*
X20014803Y-27646359D01*
X20774803Y-27953641D02*
X20774803Y-27646359D01*
X10924803Y-18450000D02*
X10924803Y-17050000D01*
X11624803Y-16350000D02*
X12224803Y-16350000D01*
X12224803Y-19150000D02*
X11624803Y-19150000D01*
X12924803Y-17050000D02*
X12924803Y-18450000D01*
X10924803Y-17050000D02*
G75*
G02*
X11624803Y-16350000I699999J1D01*
G01*
X11624803Y-19150000D02*
G75*
G02*
X10924803Y-18450000I0J700000D01*
G01*
X12224803Y-16350000D02*
G75*
G02*
X12924803Y-17050000I1J-699999D01*
G01*
X12924803Y-18450000D02*
G75*
G02*
X12224803Y-19150000I-700000J0D01*
G01*
X12438444Y-12820000D02*
X12131162Y-12820000D01*
X12438444Y-13580000D02*
X12131162Y-13580000D01*
X16241162Y-22720000D02*
X16548444Y-22720000D01*
X16241162Y-23480000D02*
X16548444Y-23480000D01*
X22434803Y-3450000D02*
X28554803Y-3450000D01*
X22434803Y-7150000D02*
X22434803Y-3450000D01*
X28554803Y-3450000D02*
X28554803Y-7150000D01*
X28554803Y-7150000D02*
X22434803Y-7150000D01*
X40894803Y-18060000D02*
X40894803Y-14050000D01*
X40894803Y-18060000D02*
X42894803Y-18060000D01*
X42894803Y-18060000D02*
X42894803Y-14050000D01*
X21641162Y-22220000D02*
X21948444Y-22220000D01*
X21641162Y-22980000D02*
X21948444Y-22980000D01*
D15*
X9624803Y-31534000D02*
X9749803Y-30619000D01*
X9749803Y-25994000D02*
X10220803Y-25994000D01*
X9749803Y-27777000D02*
X9749803Y-25994000D01*
X9749803Y-30619000D02*
X9749803Y-30023000D01*
X9759803Y-27580000D02*
X9763803Y-27372000D01*
X9761803Y-27579000D02*
X9762803Y-27405000D01*
X10044803Y-31039000D02*
X9624803Y-31534000D01*
X10494803Y-31019000D02*
X10044803Y-31039000D01*
X10494803Y-31019000D02*
X10494803Y-31519000D01*
X10494803Y-31019000D02*
X16594803Y-31019000D01*
X10494803Y-31519000D02*
X16584803Y-31549000D01*
X11680803Y-25597000D02*
X11763803Y-25597000D01*
X15225803Y-25611000D02*
X15293803Y-25611000D01*
X16584803Y-31549000D02*
X16594803Y-31019000D01*
X16594803Y-31019000D02*
X16894803Y-31019000D01*
X16768803Y-25994000D02*
X17284803Y-25994000D01*
X16894803Y-31019000D02*
X17424803Y-31494000D01*
X17284803Y-25994000D02*
X17284803Y-27785000D01*
X17284803Y-30016000D02*
X17284803Y-30608000D01*
X17424803Y-31494000D02*
X17294803Y-30608000D01*
X14776803Y-21900000D02*
X32810803Y-21900000D01*
X14777803Y-7900000D02*
X14777803Y-8119000D01*
X14777803Y-7900000D02*
X32811803Y-7900000D01*
X14777803Y-21681000D02*
X14777803Y-21900000D01*
X32811803Y-7900000D02*
X32811803Y-8119000D01*
X32811803Y-21681000D02*
X32811803Y-21900000D01*
X14523803Y-7407000D02*
G75*
G02*
X14015803Y-7407000I-254000J0D01*
G01*
X14015803Y-7407000D02*
G75*
G02*
X14523803Y-7407000I254000J0D01*
G01*
D12*
X19648444Y-22220000D02*
X19341162Y-22220000D01*
X19648444Y-22980000D02*
X19341162Y-22980000D01*
X9931162Y-11520000D02*
X10238444Y-11520000D01*
X9931162Y-12280000D02*
X10238444Y-12280000D01*
%LPC*%
D13*
G36*
X47100100Y-14090300D02*
G01*
X46541300Y-14649100D01*
X46541300Y-14903100D01*
X46058700Y-14903100D01*
X46058700Y-14649100D01*
X45499900Y-14090300D01*
X45499900Y-11804300D01*
X47100100Y-11804300D01*
X47100100Y-14090300D01*
G37*
G36*
X48295700Y-20000100D02*
G01*
X46009700Y-20000100D01*
X45450900Y-19441300D01*
X45196900Y-19441300D01*
X45196900Y-18958700D01*
X45450900Y-18958700D01*
X46009700Y-18399900D01*
X48295700Y-18399900D01*
X48295700Y-20000100D01*
G37*
G36*
X41464603Y-23225300D02*
G01*
X42023403Y-23784100D01*
X42023403Y-26070100D01*
X40423203Y-26070100D01*
X40423203Y-23784100D01*
X40982003Y-23225300D01*
X40982003Y-22971300D01*
X41464603Y-22971300D01*
X41464603Y-23225300D01*
G37*
D16*
X44800000Y-15500000D03*
D17*
X46300000Y-15500000D03*
D16*
X47800000Y-15500000D03*
D18*
X44600000Y-17700000D03*
D19*
X45857300Y-19200000D03*
D18*
X44600000Y-20700000D03*
D16*
X42723303Y-22374400D03*
D17*
X41223303Y-22374400D03*
D16*
X39723303Y-22374400D03*
D20*
X16571803Y-7076500D03*
X15611803Y-7076500D03*
D21*
X12144803Y-9290000D03*
X12144803Y-10310000D03*
D22*
X49900000Y-28100000D03*
D23*
X43700000Y-3700000D03*
D24*
X41160000Y-3700000D03*
X38620000Y-3700000D03*
D25*
X26394803Y-23330000D03*
X26394803Y-24600000D03*
X26394803Y-25870000D03*
X26394803Y-27140000D03*
X31344803Y-27140000D03*
X31344803Y-25870000D03*
X31344803Y-24600000D03*
X31344803Y-23330000D03*
D26*
X37207303Y-6500000D03*
X38782303Y-6500000D03*
D21*
X11894803Y-14390000D03*
X11894803Y-15410000D03*
D27*
X35894803Y-7410000D03*
X35894803Y-6390000D03*
D28*
X22144803Y-27250000D03*
X22144803Y-29150000D03*
X24019803Y-28200000D03*
D29*
X35194803Y-23300000D03*
D30*
X36494803Y-23300000D03*
D31*
X35114803Y-10675000D03*
X35114803Y-9125000D03*
D32*
X36094803Y-5000000D03*
X35074803Y-5000000D03*
X34204803Y-5000000D03*
X33184803Y-5000000D03*
D33*
X7744803Y-20675000D03*
X9644803Y-20675000D03*
X8694803Y-18800000D03*
D34*
X22584803Y-24800000D03*
D35*
X21314803Y-24800000D03*
X20044803Y-24800000D03*
X18774803Y-24800000D03*
D27*
X40114803Y-7510000D03*
X40114803Y-6490000D03*
D34*
X26794803Y-29300000D03*
X8794803Y-13800000D03*
D35*
X8794803Y-15070000D03*
X8794803Y-16340000D03*
D36*
X41144803Y-10780000D03*
X41144803Y-9820000D03*
D26*
X17112500Y-3200000D03*
X18687500Y-3200000D03*
D37*
X33494803Y-22320000D03*
X33494803Y-23280000D03*
D34*
X36874803Y-16600000D03*
D35*
X35604803Y-16600000D03*
D38*
X32982303Y-29200000D03*
X31207303Y-29200000D03*
D39*
X49020000Y-17500000D03*
X49980000Y-17500000D03*
D32*
X32110000Y-7200000D03*
X31090000Y-7200000D03*
D40*
X16104303Y-5376500D03*
X18979303Y-5376500D03*
D27*
X9594803Y-10360000D03*
X9594803Y-9340000D03*
D32*
X12694803Y-11900000D03*
X11674803Y-11900000D03*
D41*
X11994803Y-21950000D03*
D42*
X11994803Y-20650000D03*
D22*
X2200000Y-28100000D03*
D36*
X41200000Y-20000000D03*
X41200000Y-19040000D03*
D43*
X39294803Y-17400000D03*
X39294803Y-14100000D03*
D44*
X33434803Y-25700000D03*
X34454803Y-25700000D03*
D45*
X38594803Y-19600000D03*
X35719803Y-19600000D03*
D20*
X43180000Y-20700000D03*
X42220000Y-20700000D03*
D21*
X33724803Y-6400000D03*
X33724803Y-7420000D03*
D34*
X36814803Y-13400000D03*
D35*
X35544803Y-13400000D03*
D20*
X36974803Y-21500000D03*
X36014803Y-21500000D03*
D46*
X36914803Y-8899998D03*
X36914803Y-9849999D03*
X36914803Y-10800000D03*
X39594503Y-10800000D03*
X39594503Y-8899998D03*
D36*
X10844803Y-10330000D03*
X10844803Y-9370000D03*
D27*
X20394803Y-28310000D03*
X20394803Y-27290000D03*
D47*
X11924803Y-17100000D03*
D48*
X11924803Y-18400000D03*
D32*
X12794803Y-13200000D03*
X11774803Y-13200000D03*
D44*
X15884803Y-23100000D03*
X16904803Y-23100000D03*
D49*
X29394803Y-5300000D03*
X21594803Y-5300000D03*
D22*
X49900000Y-3000000D03*
D43*
X41894803Y-17350000D03*
X41894803Y-14050000D03*
D44*
X21284803Y-22600000D03*
X22304803Y-22600000D03*
D50*
X12194803Y-25708000D03*
X12844803Y-25708000D03*
X13494803Y-25708000D03*
X14144803Y-25708000D03*
X14794803Y-25708000D03*
D51*
X15919803Y-26230000D03*
D52*
X17119803Y-28900000D03*
X9869803Y-28900000D03*
D51*
X11069803Y-26230000D03*
D22*
X2200000Y-3000000D03*
D53*
X14794803Y-8900000D03*
X14794803Y-10400000D03*
X14794803Y-11900000D03*
X14794803Y-13400000D03*
X14794803Y-14900000D03*
X14794803Y-16400000D03*
X14794803Y-17900000D03*
X14794803Y-19400000D03*
X14794803Y-20900000D03*
X32794803Y-20900000D03*
X32794803Y-19400000D03*
X32794803Y-17900000D03*
X32794803Y-16400000D03*
X32794803Y-14900000D03*
X32794803Y-13400000D03*
X32794803Y-11900000D03*
X32794803Y-10400000D03*
X32794803Y-8900000D03*
D32*
X20004803Y-22600000D03*
X18984803Y-22600000D03*
D44*
X9574803Y-11900000D03*
X10594803Y-11900000D03*
%LPD*%
M02*
