%TF.GenerationSoftware,KiCad,Pcbnew,(7.0.0)*%
%TF.CreationDate,2024-02-23T23:29:48+02:00*%
%TF.ProjectId,mains-detector,6d61696e-732d-4646-9574-6563746f722e,rev?*%
%TF.SameCoordinates,Original*%
%TF.FileFunction,Drillmap*%
%TF.FilePolarity,Positive*%
%FSLAX45Y45*%
G04 Gerber Fmt 4.5, Leading zero omitted, Abs format (unit mm)*
G04 Created by KiCad (PCBNEW (7.0.0)) date 2024-02-23 23:29:48*
%MOMM*%
%LPD*%
G01*
G04 APERTURE LIST*
%ADD10C,0.100000*%
%ADD11C,0.200000*%
%ADD12C,0.040000*%
%ADD13C,0.065000*%
%ADD14C,0.070000*%
G04 APERTURE END LIST*
D10*
X0Y0D02*
X5220000Y0D01*
X5220000Y0D02*
X5220000Y-3080000D01*
X5220000Y-3080000D02*
X0Y-3080000D01*
X0Y-3080000D02*
X0Y0D01*
D11*
D12*
X947000Y-1820000D02*
X987000Y-1860000D01*
X987000Y-1820000D02*
X947000Y-1860000D01*
X1107000Y-2350000D02*
X1147000Y-2390000D01*
X1147000Y-2350000D02*
X1107000Y-2390000D01*
X1107000Y-2460000D02*
X1147000Y-2500000D01*
X1147000Y-2460000D02*
X1107000Y-2500000D01*
X1107000Y-2570000D02*
X1147000Y-2610000D01*
X1147000Y-2570000D02*
X1107000Y-2610000D01*
X1150000Y-800000D02*
X1190000Y-840000D01*
X1190000Y-800000D02*
X1150000Y-840000D01*
X1227000Y-2350000D02*
X1267000Y-2390000D01*
X1267000Y-2350000D02*
X1227000Y-2390000D01*
X1227000Y-2460000D02*
X1267000Y-2500000D01*
X1267000Y-2460000D02*
X1227000Y-2500000D01*
X1277000Y-1260000D02*
X1317000Y-1300000D01*
X1317000Y-1260000D02*
X1277000Y-1300000D01*
X1290000Y-1500000D02*
X1330000Y-1540000D01*
X1330000Y-1500000D02*
X1290000Y-1540000D01*
X1337000Y-2350000D02*
X1377000Y-2390000D01*
X1377000Y-2350000D02*
X1337000Y-2390000D01*
X1337000Y-2460000D02*
X1377000Y-2500000D01*
X1377000Y-2460000D02*
X1337000Y-2500000D01*
X1467000Y-465000D02*
X1507000Y-505000D01*
X1507000Y-465000D02*
X1467000Y-505000D01*
X1467000Y-625000D02*
X1507000Y-665000D01*
X1507000Y-625000D02*
X1467000Y-665000D01*
X1467000Y-775000D02*
X1507000Y-815000D01*
X1507000Y-775000D02*
X1467000Y-815000D01*
X1547000Y-2730000D02*
X1587000Y-2770000D01*
X1587000Y-2730000D02*
X1547000Y-2770000D01*
X1587000Y-2370000D02*
X1627000Y-2410000D01*
X1627000Y-2370000D02*
X1587000Y-2410000D01*
X1602000Y-465000D02*
X1642000Y-505000D01*
X1642000Y-465000D02*
X1602000Y-505000D01*
X1602000Y-625000D02*
X1642000Y-665000D01*
X1642000Y-625000D02*
X1602000Y-665000D01*
X1857000Y-880000D02*
X1897000Y-920000D01*
X1897000Y-880000D02*
X1857000Y-920000D01*
X1877000Y-1650000D02*
X1917000Y-1690000D01*
X1917000Y-1650000D02*
X1877000Y-1690000D01*
X1877000Y-1780000D02*
X1917000Y-1820000D01*
X1917000Y-1780000D02*
X1877000Y-1820000D01*
X1877000Y-1910000D02*
X1917000Y-1950000D01*
X1917000Y-1910000D02*
X1877000Y-1950000D01*
X1877000Y-2040000D02*
X1917000Y-2080000D01*
X1917000Y-2040000D02*
X1877000Y-2080000D01*
X1987000Y-880000D02*
X2027000Y-920000D01*
X2027000Y-880000D02*
X1987000Y-920000D01*
X2117000Y-880000D02*
X2157000Y-920000D01*
X2157000Y-880000D02*
X2117000Y-920000D01*
X2247000Y-880000D02*
X2287000Y-920000D01*
X2287000Y-880000D02*
X2247000Y-920000D01*
X2250000Y-700000D02*
X2290000Y-740000D01*
X2290000Y-700000D02*
X2250000Y-740000D01*
X2377000Y-880000D02*
X2417000Y-920000D01*
X2417000Y-880000D02*
X2377000Y-920000D01*
X2507000Y-880000D02*
X2547000Y-920000D01*
X2547000Y-880000D02*
X2507000Y-920000D01*
X2607000Y-2680000D02*
X2647000Y-2720000D01*
X2647000Y-2680000D02*
X2607000Y-2720000D01*
X2617000Y-2060000D02*
X2657000Y-2100000D01*
X2657000Y-2060000D02*
X2617000Y-2100000D01*
X2627000Y-2360000D02*
X2667000Y-2400000D01*
X2667000Y-2360000D02*
X2627000Y-2400000D01*
X2647000Y-880000D02*
X2687000Y-920000D01*
X2687000Y-880000D02*
X2647000Y-920000D01*
X2747000Y-2060000D02*
X2787000Y-2100000D01*
X2787000Y-2060000D02*
X2747000Y-2100000D01*
X2777000Y-880000D02*
X2817000Y-920000D01*
X2817000Y-880000D02*
X2777000Y-920000D01*
X2877000Y-2060000D02*
X2917000Y-2100000D01*
X2917000Y-2060000D02*
X2877000Y-2100000D01*
X2907000Y-880000D02*
X2947000Y-920000D01*
X2947000Y-880000D02*
X2907000Y-920000D01*
X3007000Y-2060000D02*
X3047000Y-2100000D01*
X3047000Y-2060000D02*
X3007000Y-2100000D01*
X3137000Y-2060000D02*
X3177000Y-2100000D01*
X3177000Y-2060000D02*
X3137000Y-2100000D01*
X3267000Y-2060000D02*
X3307000Y-2100000D01*
X3307000Y-2060000D02*
X3267000Y-2100000D01*
X3327000Y-1460000D02*
X3367000Y-1500000D01*
X3367000Y-1460000D02*
X3327000Y-1500000D01*
X3327000Y-1630000D02*
X3367000Y-1670000D01*
X3367000Y-1630000D02*
X3327000Y-1670000D01*
X3500000Y-670000D02*
X3540000Y-710000D01*
X3540000Y-670000D02*
X3500000Y-710000D01*
X3677000Y-2120000D02*
X3717000Y-2160000D01*
X3717000Y-2120000D02*
X3677000Y-2160000D01*
X3687000Y-1480000D02*
X3727000Y-1520000D01*
X3727000Y-1480000D02*
X3687000Y-1520000D01*
X3817000Y-1480000D02*
X3857000Y-1520000D01*
X3857000Y-1480000D02*
X3817000Y-1520000D01*
X3857000Y-2510000D02*
X3897000Y-2550000D01*
X3897000Y-2510000D02*
X3857000Y-2550000D01*
X3857000Y-2640000D02*
X3897000Y-2680000D01*
X3897000Y-2640000D02*
X3857000Y-2680000D01*
X3947000Y-1480000D02*
X3987000Y-1520000D01*
X3987000Y-1480000D02*
X3947000Y-1520000D01*
X4007000Y-2240000D02*
X4047000Y-2280000D01*
X4047000Y-2240000D02*
X4007000Y-2280000D01*
X4007000Y-2370000D02*
X4047000Y-2410000D01*
X4047000Y-2370000D02*
X4007000Y-2410000D01*
X4007000Y-2510000D02*
X4047000Y-2550000D01*
X4047000Y-2510000D02*
X4007000Y-2550000D01*
X4007000Y-2640000D02*
X4047000Y-2680000D01*
X4047000Y-2640000D02*
X4007000Y-2680000D01*
X4047000Y-1240000D02*
X4087000Y-1280000D01*
X4087000Y-1240000D02*
X4047000Y-1280000D01*
X4177000Y-1240000D02*
X4217000Y-1280000D01*
X4217000Y-1240000D02*
X4177000Y-1280000D01*
X4327000Y-1220000D02*
X4367000Y-1260000D01*
X4367000Y-1220000D02*
X4327000Y-1260000D01*
X4467000Y-1090000D02*
X4507000Y-1130000D01*
X4507000Y-1090000D02*
X4467000Y-1130000D01*
X4467000Y-1220000D02*
X4507000Y-1260000D01*
X4507000Y-1220000D02*
X4467000Y-1260000D01*
D13*
X1129500Y-1380000D02*
G75*
G03*
X1129500Y-1380000I-32500J0D01*
G01*
X1129500Y-1507000D02*
G75*
G03*
X1129500Y-1507000I-32500J0D01*
G01*
X1129500Y-1634000D02*
G75*
G03*
X1129500Y-1634000I-32500J0D01*
G01*
X2127500Y-2480000D02*
G75*
G03*
X2127500Y-2480000I-32500J0D01*
G01*
X2254500Y-2480000D02*
G75*
G03*
X2254500Y-2480000I-32500J0D01*
G01*
X2381500Y-2480000D02*
G75*
G03*
X2381500Y-2480000I-32500J0D01*
G01*
X2508500Y-2480000D02*
G75*
G03*
X2508500Y-2480000I-32500J0D01*
G01*
X2929500Y-2930000D02*
G75*
G03*
X2929500Y-2930000I-32500J0D01*
G01*
X3804500Y-1340000D02*
G75*
G03*
X3804500Y-1340000I-32500J0D01*
G01*
X3810500Y-1660000D02*
G75*
G03*
X3810500Y-1660000I-32500J0D01*
G01*
X3931500Y-1340000D02*
G75*
G03*
X3931500Y-1340000I-32500J0D01*
G01*
X3937500Y-1660000D02*
G75*
G03*
X3937500Y-1660000I-32500J0D01*
G01*
D14*
X1204500Y-2855000D02*
X1204500Y-2925000D01*
X1169500Y-2890000D02*
X1239500Y-2890000D01*
D11*
X1169500Y-2870000D02*
X1169500Y-2910000D01*
X1169500Y-2910000D02*
G75*
G03*
X1239500Y-2910000I35000J0D01*
G01*
X1239500Y-2910000D02*
X1239500Y-2870000D01*
X1239500Y-2870000D02*
G75*
G03*
X1169500Y-2870000I-35000J0D01*
G01*
D14*
X1324500Y-2588000D02*
X1324500Y-2658000D01*
X1289500Y-2623000D02*
X1359500Y-2623000D01*
X1809500Y-2588000D02*
X1809500Y-2658000D01*
X1774500Y-2623000D02*
X1844500Y-2623000D01*
X1929500Y-2855000D02*
X1929500Y-2925000D01*
X1894500Y-2890000D02*
X1964500Y-2890000D01*
D11*
X1894500Y-2870000D02*
X1894500Y-2910000D01*
X1894500Y-2910000D02*
G75*
G03*
X1964500Y-2910000I35000J0D01*
G01*
X1964500Y-2910000D02*
X1964500Y-2870000D01*
X1964500Y-2870000D02*
G75*
G03*
X1894500Y-2870000I-35000J0D01*
G01*
X242619Y-3378476D02*
X242619Y-3178476D01*
X242619Y-3178476D02*
X290238Y-3178476D01*
X290238Y-3178476D02*
X318810Y-3188000D01*
X318810Y-3188000D02*
X337857Y-3207048D01*
X337857Y-3207048D02*
X347381Y-3226095D01*
X347381Y-3226095D02*
X356905Y-3264190D01*
X356905Y-3264190D02*
X356905Y-3292762D01*
X356905Y-3292762D02*
X347381Y-3330857D01*
X347381Y-3330857D02*
X337857Y-3349905D01*
X337857Y-3349905D02*
X318810Y-3368952D01*
X318810Y-3368952D02*
X290238Y-3378476D01*
X290238Y-3378476D02*
X242619Y-3378476D01*
X442619Y-3378476D02*
X442619Y-3245143D01*
X442619Y-3283238D02*
X452143Y-3264190D01*
X452143Y-3264190D02*
X461667Y-3254667D01*
X461667Y-3254667D02*
X480714Y-3245143D01*
X480714Y-3245143D02*
X499762Y-3245143D01*
X566429Y-3378476D02*
X566429Y-3245143D01*
X566429Y-3178476D02*
X556905Y-3188000D01*
X556905Y-3188000D02*
X566429Y-3197524D01*
X566429Y-3197524D02*
X575952Y-3188000D01*
X575952Y-3188000D02*
X566429Y-3178476D01*
X566429Y-3178476D02*
X566429Y-3197524D01*
X690238Y-3378476D02*
X671190Y-3368952D01*
X671190Y-3368952D02*
X661667Y-3349905D01*
X661667Y-3349905D02*
X661667Y-3178476D01*
X795000Y-3378476D02*
X775952Y-3368952D01*
X775952Y-3368952D02*
X766428Y-3349905D01*
X766428Y-3349905D02*
X766428Y-3178476D01*
X991190Y-3378476D02*
X991190Y-3178476D01*
X991190Y-3178476D02*
X1057857Y-3321333D01*
X1057857Y-3321333D02*
X1124524Y-3178476D01*
X1124524Y-3178476D02*
X1124524Y-3378476D01*
X1305476Y-3378476D02*
X1305476Y-3273714D01*
X1305476Y-3273714D02*
X1295952Y-3254667D01*
X1295952Y-3254667D02*
X1276905Y-3245143D01*
X1276905Y-3245143D02*
X1238809Y-3245143D01*
X1238809Y-3245143D02*
X1219762Y-3254667D01*
X1305476Y-3368952D02*
X1286429Y-3378476D01*
X1286429Y-3378476D02*
X1238809Y-3378476D01*
X1238809Y-3378476D02*
X1219762Y-3368952D01*
X1219762Y-3368952D02*
X1210238Y-3349905D01*
X1210238Y-3349905D02*
X1210238Y-3330857D01*
X1210238Y-3330857D02*
X1219762Y-3311809D01*
X1219762Y-3311809D02*
X1238809Y-3302286D01*
X1238809Y-3302286D02*
X1286429Y-3302286D01*
X1286429Y-3302286D02*
X1305476Y-3292762D01*
X1400714Y-3245143D02*
X1400714Y-3445143D01*
X1400714Y-3254667D02*
X1419762Y-3245143D01*
X1419762Y-3245143D02*
X1457857Y-3245143D01*
X1457857Y-3245143D02*
X1476905Y-3254667D01*
X1476905Y-3254667D02*
X1486428Y-3264190D01*
X1486428Y-3264190D02*
X1495952Y-3283238D01*
X1495952Y-3283238D02*
X1495952Y-3340381D01*
X1495952Y-3340381D02*
X1486428Y-3359428D01*
X1486428Y-3359428D02*
X1476905Y-3368952D01*
X1476905Y-3368952D02*
X1457857Y-3378476D01*
X1457857Y-3378476D02*
X1419762Y-3378476D01*
X1419762Y-3378476D02*
X1400714Y-3368952D01*
X1581667Y-3359428D02*
X1591190Y-3368952D01*
X1591190Y-3368952D02*
X1581667Y-3378476D01*
X1581667Y-3378476D02*
X1572143Y-3368952D01*
X1572143Y-3368952D02*
X1581667Y-3359428D01*
X1581667Y-3359428D02*
X1581667Y-3378476D01*
X1581667Y-3254667D02*
X1591190Y-3264190D01*
X1591190Y-3264190D02*
X1581667Y-3273714D01*
X1581667Y-3273714D02*
X1572143Y-3264190D01*
X1572143Y-3264190D02*
X1581667Y-3254667D01*
X1581667Y-3254667D02*
X1581667Y-3273714D01*
D12*
X-45000Y-3705000D02*
X-5000Y-3745000D01*
X-5000Y-3705000D02*
X-45000Y-3745000D01*
D11*
X280714Y-3598476D02*
X299762Y-3598476D01*
X299762Y-3598476D02*
X318810Y-3608000D01*
X318810Y-3608000D02*
X328333Y-3617524D01*
X328333Y-3617524D02*
X337857Y-3636571D01*
X337857Y-3636571D02*
X347381Y-3674667D01*
X347381Y-3674667D02*
X347381Y-3722286D01*
X347381Y-3722286D02*
X337857Y-3760381D01*
X337857Y-3760381D02*
X328333Y-3779428D01*
X328333Y-3779428D02*
X318810Y-3788952D01*
X318810Y-3788952D02*
X299762Y-3798476D01*
X299762Y-3798476D02*
X280714Y-3798476D01*
X280714Y-3798476D02*
X261667Y-3788952D01*
X261667Y-3788952D02*
X252143Y-3779428D01*
X252143Y-3779428D02*
X242619Y-3760381D01*
X242619Y-3760381D02*
X233095Y-3722286D01*
X233095Y-3722286D02*
X233095Y-3674667D01*
X233095Y-3674667D02*
X242619Y-3636571D01*
X242619Y-3636571D02*
X252143Y-3617524D01*
X252143Y-3617524D02*
X261667Y-3608000D01*
X261667Y-3608000D02*
X280714Y-3598476D01*
X433095Y-3779428D02*
X442619Y-3788952D01*
X442619Y-3788952D02*
X433095Y-3798476D01*
X433095Y-3798476D02*
X423571Y-3788952D01*
X423571Y-3788952D02*
X433095Y-3779428D01*
X433095Y-3779428D02*
X433095Y-3798476D01*
X614048Y-3665143D02*
X614048Y-3798476D01*
X566429Y-3588952D02*
X518809Y-3731809D01*
X518809Y-3731809D02*
X642619Y-3731809D01*
X756905Y-3598476D02*
X775952Y-3598476D01*
X775952Y-3598476D02*
X795000Y-3608000D01*
X795000Y-3608000D02*
X804524Y-3617524D01*
X804524Y-3617524D02*
X814048Y-3636571D01*
X814048Y-3636571D02*
X823571Y-3674667D01*
X823571Y-3674667D02*
X823571Y-3722286D01*
X823571Y-3722286D02*
X814048Y-3760381D01*
X814048Y-3760381D02*
X804524Y-3779428D01*
X804524Y-3779428D02*
X795000Y-3788952D01*
X795000Y-3788952D02*
X775952Y-3798476D01*
X775952Y-3798476D02*
X756905Y-3798476D01*
X756905Y-3798476D02*
X737857Y-3788952D01*
X737857Y-3788952D02*
X728333Y-3779428D01*
X728333Y-3779428D02*
X718809Y-3760381D01*
X718809Y-3760381D02*
X709286Y-3722286D01*
X709286Y-3722286D02*
X709286Y-3674667D01*
X709286Y-3674667D02*
X718809Y-3636571D01*
X718809Y-3636571D02*
X728333Y-3617524D01*
X728333Y-3617524D02*
X737857Y-3608000D01*
X737857Y-3608000D02*
X756905Y-3598476D01*
X947381Y-3598476D02*
X966429Y-3598476D01*
X966429Y-3598476D02*
X985476Y-3608000D01*
X985476Y-3608000D02*
X995000Y-3617524D01*
X995000Y-3617524D02*
X1004524Y-3636571D01*
X1004524Y-3636571D02*
X1014048Y-3674667D01*
X1014048Y-3674667D02*
X1014048Y-3722286D01*
X1014048Y-3722286D02*
X1004524Y-3760381D01*
X1004524Y-3760381D02*
X995000Y-3779428D01*
X995000Y-3779428D02*
X985476Y-3788952D01*
X985476Y-3788952D02*
X966429Y-3798476D01*
X966429Y-3798476D02*
X947381Y-3798476D01*
X947381Y-3798476D02*
X928333Y-3788952D01*
X928333Y-3788952D02*
X918809Y-3779428D01*
X918809Y-3779428D02*
X909286Y-3760381D01*
X909286Y-3760381D02*
X899762Y-3722286D01*
X899762Y-3722286D02*
X899762Y-3674667D01*
X899762Y-3674667D02*
X909286Y-3636571D01*
X909286Y-3636571D02*
X918809Y-3617524D01*
X918809Y-3617524D02*
X928333Y-3608000D01*
X928333Y-3608000D02*
X947381Y-3598476D01*
X1099762Y-3798476D02*
X1099762Y-3665143D01*
X1099762Y-3684190D02*
X1109286Y-3674667D01*
X1109286Y-3674667D02*
X1128333Y-3665143D01*
X1128333Y-3665143D02*
X1156905Y-3665143D01*
X1156905Y-3665143D02*
X1175952Y-3674667D01*
X1175952Y-3674667D02*
X1185476Y-3693714D01*
X1185476Y-3693714D02*
X1185476Y-3798476D01*
X1185476Y-3693714D02*
X1195000Y-3674667D01*
X1195000Y-3674667D02*
X1214048Y-3665143D01*
X1214048Y-3665143D02*
X1242619Y-3665143D01*
X1242619Y-3665143D02*
X1261667Y-3674667D01*
X1261667Y-3674667D02*
X1271191Y-3693714D01*
X1271191Y-3693714D02*
X1271191Y-3798476D01*
X1366429Y-3798476D02*
X1366429Y-3665143D01*
X1366429Y-3684190D02*
X1375952Y-3674667D01*
X1375952Y-3674667D02*
X1395000Y-3665143D01*
X1395000Y-3665143D02*
X1423571Y-3665143D01*
X1423571Y-3665143D02*
X1442619Y-3674667D01*
X1442619Y-3674667D02*
X1452143Y-3693714D01*
X1452143Y-3693714D02*
X1452143Y-3798476D01*
X1452143Y-3693714D02*
X1461667Y-3674667D01*
X1461667Y-3674667D02*
X1480714Y-3665143D01*
X1480714Y-3665143D02*
X1509286Y-3665143D01*
X1509286Y-3665143D02*
X1528333Y-3674667D01*
X1528333Y-3674667D02*
X1537857Y-3693714D01*
X1537857Y-3693714D02*
X1537857Y-3798476D01*
X1895952Y-3588952D02*
X1724524Y-3846095D01*
X2120714Y-3598476D02*
X2139762Y-3598476D01*
X2139762Y-3598476D02*
X2158810Y-3608000D01*
X2158810Y-3608000D02*
X2168333Y-3617524D01*
X2168333Y-3617524D02*
X2177857Y-3636571D01*
X2177857Y-3636571D02*
X2187381Y-3674667D01*
X2187381Y-3674667D02*
X2187381Y-3722286D01*
X2187381Y-3722286D02*
X2177857Y-3760381D01*
X2177857Y-3760381D02*
X2168333Y-3779428D01*
X2168333Y-3779428D02*
X2158810Y-3788952D01*
X2158810Y-3788952D02*
X2139762Y-3798476D01*
X2139762Y-3798476D02*
X2120714Y-3798476D01*
X2120714Y-3798476D02*
X2101667Y-3788952D01*
X2101667Y-3788952D02*
X2092143Y-3779428D01*
X2092143Y-3779428D02*
X2082619Y-3760381D01*
X2082619Y-3760381D02*
X2073095Y-3722286D01*
X2073095Y-3722286D02*
X2073095Y-3674667D01*
X2073095Y-3674667D02*
X2082619Y-3636571D01*
X2082619Y-3636571D02*
X2092143Y-3617524D01*
X2092143Y-3617524D02*
X2101667Y-3608000D01*
X2101667Y-3608000D02*
X2120714Y-3598476D01*
X2273095Y-3779428D02*
X2282619Y-3788952D01*
X2282619Y-3788952D02*
X2273095Y-3798476D01*
X2273095Y-3798476D02*
X2263572Y-3788952D01*
X2263572Y-3788952D02*
X2273095Y-3779428D01*
X2273095Y-3779428D02*
X2273095Y-3798476D01*
X2406429Y-3598476D02*
X2425476Y-3598476D01*
X2425476Y-3598476D02*
X2444524Y-3608000D01*
X2444524Y-3608000D02*
X2454048Y-3617524D01*
X2454048Y-3617524D02*
X2463572Y-3636571D01*
X2463572Y-3636571D02*
X2473095Y-3674667D01*
X2473095Y-3674667D02*
X2473095Y-3722286D01*
X2473095Y-3722286D02*
X2463572Y-3760381D01*
X2463572Y-3760381D02*
X2454048Y-3779428D01*
X2454048Y-3779428D02*
X2444524Y-3788952D01*
X2444524Y-3788952D02*
X2425476Y-3798476D01*
X2425476Y-3798476D02*
X2406429Y-3798476D01*
X2406429Y-3798476D02*
X2387381Y-3788952D01*
X2387381Y-3788952D02*
X2377857Y-3779428D01*
X2377857Y-3779428D02*
X2368333Y-3760381D01*
X2368333Y-3760381D02*
X2358810Y-3722286D01*
X2358810Y-3722286D02*
X2358810Y-3674667D01*
X2358810Y-3674667D02*
X2368333Y-3636571D01*
X2368333Y-3636571D02*
X2377857Y-3617524D01*
X2377857Y-3617524D02*
X2387381Y-3608000D01*
X2387381Y-3608000D02*
X2406429Y-3598476D01*
X2663572Y-3798476D02*
X2549286Y-3798476D01*
X2606429Y-3798476D02*
X2606429Y-3598476D01*
X2606429Y-3598476D02*
X2587381Y-3627048D01*
X2587381Y-3627048D02*
X2568333Y-3646095D01*
X2568333Y-3646095D02*
X2549286Y-3655619D01*
X2844524Y-3598476D02*
X2749286Y-3598476D01*
X2749286Y-3598476D02*
X2739762Y-3693714D01*
X2739762Y-3693714D02*
X2749286Y-3684190D01*
X2749286Y-3684190D02*
X2768333Y-3674667D01*
X2768333Y-3674667D02*
X2815952Y-3674667D01*
X2815952Y-3674667D02*
X2835000Y-3684190D01*
X2835000Y-3684190D02*
X2844524Y-3693714D01*
X2844524Y-3693714D02*
X2854048Y-3712762D01*
X2854048Y-3712762D02*
X2854048Y-3760381D01*
X2854048Y-3760381D02*
X2844524Y-3779428D01*
X2844524Y-3779428D02*
X2835000Y-3788952D01*
X2835000Y-3788952D02*
X2815952Y-3798476D01*
X2815952Y-3798476D02*
X2768333Y-3798476D01*
X2768333Y-3798476D02*
X2749286Y-3788952D01*
X2749286Y-3788952D02*
X2739762Y-3779428D01*
X2920714Y-3598476D02*
X3054048Y-3598476D01*
X3054048Y-3598476D02*
X2968333Y-3798476D01*
X3120714Y-3598476D02*
X3120714Y-3636571D01*
X3196905Y-3598476D02*
X3196905Y-3636571D01*
X3459762Y-3874667D02*
X3450238Y-3865143D01*
X3450238Y-3865143D02*
X3431191Y-3836571D01*
X3431191Y-3836571D02*
X3421667Y-3817524D01*
X3421667Y-3817524D02*
X3412143Y-3788952D01*
X3412143Y-3788952D02*
X3402619Y-3741333D01*
X3402619Y-3741333D02*
X3402619Y-3703238D01*
X3402619Y-3703238D02*
X3412143Y-3655619D01*
X3412143Y-3655619D02*
X3421667Y-3627048D01*
X3421667Y-3627048D02*
X3431191Y-3608000D01*
X3431191Y-3608000D02*
X3450238Y-3579428D01*
X3450238Y-3579428D02*
X3459762Y-3569905D01*
X3631191Y-3598476D02*
X3535952Y-3598476D01*
X3535952Y-3598476D02*
X3526429Y-3693714D01*
X3526429Y-3693714D02*
X3535952Y-3684190D01*
X3535952Y-3684190D02*
X3555000Y-3674667D01*
X3555000Y-3674667D02*
X3602619Y-3674667D01*
X3602619Y-3674667D02*
X3621667Y-3684190D01*
X3621667Y-3684190D02*
X3631191Y-3693714D01*
X3631191Y-3693714D02*
X3640714Y-3712762D01*
X3640714Y-3712762D02*
X3640714Y-3760381D01*
X3640714Y-3760381D02*
X3631191Y-3779428D01*
X3631191Y-3779428D02*
X3621667Y-3788952D01*
X3621667Y-3788952D02*
X3602619Y-3798476D01*
X3602619Y-3798476D02*
X3555000Y-3798476D01*
X3555000Y-3798476D02*
X3535952Y-3788952D01*
X3535952Y-3788952D02*
X3526429Y-3779428D01*
X3755000Y-3684190D02*
X3735952Y-3674667D01*
X3735952Y-3674667D02*
X3726429Y-3665143D01*
X3726429Y-3665143D02*
X3716905Y-3646095D01*
X3716905Y-3646095D02*
X3716905Y-3636571D01*
X3716905Y-3636571D02*
X3726429Y-3617524D01*
X3726429Y-3617524D02*
X3735952Y-3608000D01*
X3735952Y-3608000D02*
X3755000Y-3598476D01*
X3755000Y-3598476D02*
X3793095Y-3598476D01*
X3793095Y-3598476D02*
X3812143Y-3608000D01*
X3812143Y-3608000D02*
X3821667Y-3617524D01*
X3821667Y-3617524D02*
X3831191Y-3636571D01*
X3831191Y-3636571D02*
X3831191Y-3646095D01*
X3831191Y-3646095D02*
X3821667Y-3665143D01*
X3821667Y-3665143D02*
X3812143Y-3674667D01*
X3812143Y-3674667D02*
X3793095Y-3684190D01*
X3793095Y-3684190D02*
X3755000Y-3684190D01*
X3755000Y-3684190D02*
X3735952Y-3693714D01*
X3735952Y-3693714D02*
X3726429Y-3703238D01*
X3726429Y-3703238D02*
X3716905Y-3722286D01*
X3716905Y-3722286D02*
X3716905Y-3760381D01*
X3716905Y-3760381D02*
X3726429Y-3779428D01*
X3726429Y-3779428D02*
X3735952Y-3788952D01*
X3735952Y-3788952D02*
X3755000Y-3798476D01*
X3755000Y-3798476D02*
X3793095Y-3798476D01*
X3793095Y-3798476D02*
X3812143Y-3788952D01*
X3812143Y-3788952D02*
X3821667Y-3779428D01*
X3821667Y-3779428D02*
X3831191Y-3760381D01*
X3831191Y-3760381D02*
X3831191Y-3722286D01*
X3831191Y-3722286D02*
X3821667Y-3703238D01*
X3821667Y-3703238D02*
X3812143Y-3693714D01*
X3812143Y-3693714D02*
X3793095Y-3684190D01*
X4036905Y-3798476D02*
X4036905Y-3598476D01*
X4122619Y-3798476D02*
X4122619Y-3693714D01*
X4122619Y-3693714D02*
X4113095Y-3674667D01*
X4113095Y-3674667D02*
X4094048Y-3665143D01*
X4094048Y-3665143D02*
X4065476Y-3665143D01*
X4065476Y-3665143D02*
X4046429Y-3674667D01*
X4046429Y-3674667D02*
X4036905Y-3684190D01*
X4246429Y-3798476D02*
X4227381Y-3788952D01*
X4227381Y-3788952D02*
X4217857Y-3779428D01*
X4217857Y-3779428D02*
X4208334Y-3760381D01*
X4208334Y-3760381D02*
X4208334Y-3703238D01*
X4208334Y-3703238D02*
X4217857Y-3684190D01*
X4217857Y-3684190D02*
X4227381Y-3674667D01*
X4227381Y-3674667D02*
X4246429Y-3665143D01*
X4246429Y-3665143D02*
X4275000Y-3665143D01*
X4275000Y-3665143D02*
X4294048Y-3674667D01*
X4294048Y-3674667D02*
X4303572Y-3684190D01*
X4303572Y-3684190D02*
X4313095Y-3703238D01*
X4313095Y-3703238D02*
X4313095Y-3760381D01*
X4313095Y-3760381D02*
X4303572Y-3779428D01*
X4303572Y-3779428D02*
X4294048Y-3788952D01*
X4294048Y-3788952D02*
X4275000Y-3798476D01*
X4275000Y-3798476D02*
X4246429Y-3798476D01*
X4427381Y-3798476D02*
X4408334Y-3788952D01*
X4408334Y-3788952D02*
X4398810Y-3769905D01*
X4398810Y-3769905D02*
X4398810Y-3598476D01*
X4579762Y-3788952D02*
X4560715Y-3798476D01*
X4560715Y-3798476D02*
X4522619Y-3798476D01*
X4522619Y-3798476D02*
X4503572Y-3788952D01*
X4503572Y-3788952D02*
X4494048Y-3769905D01*
X4494048Y-3769905D02*
X4494048Y-3693714D01*
X4494048Y-3693714D02*
X4503572Y-3674667D01*
X4503572Y-3674667D02*
X4522619Y-3665143D01*
X4522619Y-3665143D02*
X4560715Y-3665143D01*
X4560715Y-3665143D02*
X4579762Y-3674667D01*
X4579762Y-3674667D02*
X4589286Y-3693714D01*
X4589286Y-3693714D02*
X4589286Y-3712762D01*
X4589286Y-3712762D02*
X4494048Y-3731809D01*
X4665476Y-3788952D02*
X4684524Y-3798476D01*
X4684524Y-3798476D02*
X4722619Y-3798476D01*
X4722619Y-3798476D02*
X4741667Y-3788952D01*
X4741667Y-3788952D02*
X4751191Y-3769905D01*
X4751191Y-3769905D02*
X4751191Y-3760381D01*
X4751191Y-3760381D02*
X4741667Y-3741333D01*
X4741667Y-3741333D02*
X4722619Y-3731809D01*
X4722619Y-3731809D02*
X4694048Y-3731809D01*
X4694048Y-3731809D02*
X4675000Y-3722286D01*
X4675000Y-3722286D02*
X4665476Y-3703238D01*
X4665476Y-3703238D02*
X4665476Y-3693714D01*
X4665476Y-3693714D02*
X4675000Y-3674667D01*
X4675000Y-3674667D02*
X4694048Y-3665143D01*
X4694048Y-3665143D02*
X4722619Y-3665143D01*
X4722619Y-3665143D02*
X4741667Y-3674667D01*
X4817857Y-3874667D02*
X4827381Y-3865143D01*
X4827381Y-3865143D02*
X4846429Y-3836571D01*
X4846429Y-3836571D02*
X4855953Y-3817524D01*
X4855953Y-3817524D02*
X4865476Y-3788952D01*
X4865476Y-3788952D02*
X4875000Y-3741333D01*
X4875000Y-3741333D02*
X4875000Y-3703238D01*
X4875000Y-3703238D02*
X4865476Y-3655619D01*
X4865476Y-3655619D02*
X4855953Y-3627048D01*
X4855953Y-3627048D02*
X4846429Y-3608000D01*
X4846429Y-3608000D02*
X4827381Y-3579428D01*
X4827381Y-3579428D02*
X4817857Y-3569905D01*
D13*
X-5000Y-3989000D02*
G75*
G03*
X-5000Y-3989000I-32500J0D01*
G01*
D11*
X280714Y-3862476D02*
X299762Y-3862476D01*
X299762Y-3862476D02*
X318810Y-3872000D01*
X318810Y-3872000D02*
X328333Y-3881524D01*
X328333Y-3881524D02*
X337857Y-3900571D01*
X337857Y-3900571D02*
X347381Y-3938667D01*
X347381Y-3938667D02*
X347381Y-3986286D01*
X347381Y-3986286D02*
X337857Y-4024381D01*
X337857Y-4024381D02*
X328333Y-4043428D01*
X328333Y-4043428D02*
X318810Y-4052952D01*
X318810Y-4052952D02*
X299762Y-4062476D01*
X299762Y-4062476D02*
X280714Y-4062476D01*
X280714Y-4062476D02*
X261667Y-4052952D01*
X261667Y-4052952D02*
X252143Y-4043428D01*
X252143Y-4043428D02*
X242619Y-4024381D01*
X242619Y-4024381D02*
X233095Y-3986286D01*
X233095Y-3986286D02*
X233095Y-3938667D01*
X233095Y-3938667D02*
X242619Y-3900571D01*
X242619Y-3900571D02*
X252143Y-3881524D01*
X252143Y-3881524D02*
X261667Y-3872000D01*
X261667Y-3872000D02*
X280714Y-3862476D01*
X433095Y-4043428D02*
X442619Y-4052952D01*
X442619Y-4052952D02*
X433095Y-4062476D01*
X433095Y-4062476D02*
X423571Y-4052952D01*
X423571Y-4052952D02*
X433095Y-4043428D01*
X433095Y-4043428D02*
X433095Y-4062476D01*
X614048Y-3862476D02*
X575952Y-3862476D01*
X575952Y-3862476D02*
X556905Y-3872000D01*
X556905Y-3872000D02*
X547381Y-3881524D01*
X547381Y-3881524D02*
X528333Y-3910095D01*
X528333Y-3910095D02*
X518809Y-3948190D01*
X518809Y-3948190D02*
X518809Y-4024381D01*
X518809Y-4024381D02*
X528333Y-4043428D01*
X528333Y-4043428D02*
X537857Y-4052952D01*
X537857Y-4052952D02*
X556905Y-4062476D01*
X556905Y-4062476D02*
X595000Y-4062476D01*
X595000Y-4062476D02*
X614048Y-4052952D01*
X614048Y-4052952D02*
X623571Y-4043428D01*
X623571Y-4043428D02*
X633095Y-4024381D01*
X633095Y-4024381D02*
X633095Y-3976762D01*
X633095Y-3976762D02*
X623571Y-3957714D01*
X623571Y-3957714D02*
X614048Y-3948190D01*
X614048Y-3948190D02*
X595000Y-3938667D01*
X595000Y-3938667D02*
X556905Y-3938667D01*
X556905Y-3938667D02*
X537857Y-3948190D01*
X537857Y-3948190D02*
X528333Y-3957714D01*
X528333Y-3957714D02*
X518809Y-3976762D01*
X814048Y-3862476D02*
X718809Y-3862476D01*
X718809Y-3862476D02*
X709286Y-3957714D01*
X709286Y-3957714D02*
X718809Y-3948190D01*
X718809Y-3948190D02*
X737857Y-3938667D01*
X737857Y-3938667D02*
X785476Y-3938667D01*
X785476Y-3938667D02*
X804524Y-3948190D01*
X804524Y-3948190D02*
X814048Y-3957714D01*
X814048Y-3957714D02*
X823571Y-3976762D01*
X823571Y-3976762D02*
X823571Y-4024381D01*
X823571Y-4024381D02*
X814048Y-4043428D01*
X814048Y-4043428D02*
X804524Y-4052952D01*
X804524Y-4052952D02*
X785476Y-4062476D01*
X785476Y-4062476D02*
X737857Y-4062476D01*
X737857Y-4062476D02*
X718809Y-4052952D01*
X718809Y-4052952D02*
X709286Y-4043428D01*
X947381Y-3862476D02*
X966429Y-3862476D01*
X966429Y-3862476D02*
X985476Y-3872000D01*
X985476Y-3872000D02*
X995000Y-3881524D01*
X995000Y-3881524D02*
X1004524Y-3900571D01*
X1004524Y-3900571D02*
X1014048Y-3938667D01*
X1014048Y-3938667D02*
X1014048Y-3986286D01*
X1014048Y-3986286D02*
X1004524Y-4024381D01*
X1004524Y-4024381D02*
X995000Y-4043428D01*
X995000Y-4043428D02*
X985476Y-4052952D01*
X985476Y-4052952D02*
X966429Y-4062476D01*
X966429Y-4062476D02*
X947381Y-4062476D01*
X947381Y-4062476D02*
X928333Y-4052952D01*
X928333Y-4052952D02*
X918809Y-4043428D01*
X918809Y-4043428D02*
X909286Y-4024381D01*
X909286Y-4024381D02*
X899762Y-3986286D01*
X899762Y-3986286D02*
X899762Y-3938667D01*
X899762Y-3938667D02*
X909286Y-3900571D01*
X909286Y-3900571D02*
X918809Y-3881524D01*
X918809Y-3881524D02*
X928333Y-3872000D01*
X928333Y-3872000D02*
X947381Y-3862476D01*
X1099762Y-4062476D02*
X1099762Y-3929143D01*
X1099762Y-3948190D02*
X1109286Y-3938667D01*
X1109286Y-3938667D02*
X1128333Y-3929143D01*
X1128333Y-3929143D02*
X1156905Y-3929143D01*
X1156905Y-3929143D02*
X1175952Y-3938667D01*
X1175952Y-3938667D02*
X1185476Y-3957714D01*
X1185476Y-3957714D02*
X1185476Y-4062476D01*
X1185476Y-3957714D02*
X1195000Y-3938667D01*
X1195000Y-3938667D02*
X1214048Y-3929143D01*
X1214048Y-3929143D02*
X1242619Y-3929143D01*
X1242619Y-3929143D02*
X1261667Y-3938667D01*
X1261667Y-3938667D02*
X1271191Y-3957714D01*
X1271191Y-3957714D02*
X1271191Y-4062476D01*
X1366429Y-4062476D02*
X1366429Y-3929143D01*
X1366429Y-3948190D02*
X1375952Y-3938667D01*
X1375952Y-3938667D02*
X1395000Y-3929143D01*
X1395000Y-3929143D02*
X1423571Y-3929143D01*
X1423571Y-3929143D02*
X1442619Y-3938667D01*
X1442619Y-3938667D02*
X1452143Y-3957714D01*
X1452143Y-3957714D02*
X1452143Y-4062476D01*
X1452143Y-3957714D02*
X1461667Y-3938667D01*
X1461667Y-3938667D02*
X1480714Y-3929143D01*
X1480714Y-3929143D02*
X1509286Y-3929143D01*
X1509286Y-3929143D02*
X1528333Y-3938667D01*
X1528333Y-3938667D02*
X1537857Y-3957714D01*
X1537857Y-3957714D02*
X1537857Y-4062476D01*
X1895952Y-3852952D02*
X1724524Y-4110095D01*
X2120714Y-3862476D02*
X2139762Y-3862476D01*
X2139762Y-3862476D02*
X2158810Y-3872000D01*
X2158810Y-3872000D02*
X2168333Y-3881524D01*
X2168333Y-3881524D02*
X2177857Y-3900571D01*
X2177857Y-3900571D02*
X2187381Y-3938667D01*
X2187381Y-3938667D02*
X2187381Y-3986286D01*
X2187381Y-3986286D02*
X2177857Y-4024381D01*
X2177857Y-4024381D02*
X2168333Y-4043428D01*
X2168333Y-4043428D02*
X2158810Y-4052952D01*
X2158810Y-4052952D02*
X2139762Y-4062476D01*
X2139762Y-4062476D02*
X2120714Y-4062476D01*
X2120714Y-4062476D02*
X2101667Y-4052952D01*
X2101667Y-4052952D02*
X2092143Y-4043428D01*
X2092143Y-4043428D02*
X2082619Y-4024381D01*
X2082619Y-4024381D02*
X2073095Y-3986286D01*
X2073095Y-3986286D02*
X2073095Y-3938667D01*
X2073095Y-3938667D02*
X2082619Y-3900571D01*
X2082619Y-3900571D02*
X2092143Y-3881524D01*
X2092143Y-3881524D02*
X2101667Y-3872000D01*
X2101667Y-3872000D02*
X2120714Y-3862476D01*
X2273095Y-4043428D02*
X2282619Y-4052952D01*
X2282619Y-4052952D02*
X2273095Y-4062476D01*
X2273095Y-4062476D02*
X2263572Y-4052952D01*
X2263572Y-4052952D02*
X2273095Y-4043428D01*
X2273095Y-4043428D02*
X2273095Y-4062476D01*
X2406429Y-3862476D02*
X2425476Y-3862476D01*
X2425476Y-3862476D02*
X2444524Y-3872000D01*
X2444524Y-3872000D02*
X2454048Y-3881524D01*
X2454048Y-3881524D02*
X2463572Y-3900571D01*
X2463572Y-3900571D02*
X2473095Y-3938667D01*
X2473095Y-3938667D02*
X2473095Y-3986286D01*
X2473095Y-3986286D02*
X2463572Y-4024381D01*
X2463572Y-4024381D02*
X2454048Y-4043428D01*
X2454048Y-4043428D02*
X2444524Y-4052952D01*
X2444524Y-4052952D02*
X2425476Y-4062476D01*
X2425476Y-4062476D02*
X2406429Y-4062476D01*
X2406429Y-4062476D02*
X2387381Y-4052952D01*
X2387381Y-4052952D02*
X2377857Y-4043428D01*
X2377857Y-4043428D02*
X2368333Y-4024381D01*
X2368333Y-4024381D02*
X2358810Y-3986286D01*
X2358810Y-3986286D02*
X2358810Y-3938667D01*
X2358810Y-3938667D02*
X2368333Y-3900571D01*
X2368333Y-3900571D02*
X2377857Y-3881524D01*
X2377857Y-3881524D02*
X2387381Y-3872000D01*
X2387381Y-3872000D02*
X2406429Y-3862476D01*
X2549286Y-3881524D02*
X2558810Y-3872000D01*
X2558810Y-3872000D02*
X2577857Y-3862476D01*
X2577857Y-3862476D02*
X2625476Y-3862476D01*
X2625476Y-3862476D02*
X2644524Y-3872000D01*
X2644524Y-3872000D02*
X2654048Y-3881524D01*
X2654048Y-3881524D02*
X2663572Y-3900571D01*
X2663572Y-3900571D02*
X2663572Y-3919619D01*
X2663572Y-3919619D02*
X2654048Y-3948190D01*
X2654048Y-3948190D02*
X2539762Y-4062476D01*
X2539762Y-4062476D02*
X2663572Y-4062476D01*
X2844524Y-3862476D02*
X2749286Y-3862476D01*
X2749286Y-3862476D02*
X2739762Y-3957714D01*
X2739762Y-3957714D02*
X2749286Y-3948190D01*
X2749286Y-3948190D02*
X2768333Y-3938667D01*
X2768333Y-3938667D02*
X2815952Y-3938667D01*
X2815952Y-3938667D02*
X2835000Y-3948190D01*
X2835000Y-3948190D02*
X2844524Y-3957714D01*
X2844524Y-3957714D02*
X2854048Y-3976762D01*
X2854048Y-3976762D02*
X2854048Y-4024381D01*
X2854048Y-4024381D02*
X2844524Y-4043428D01*
X2844524Y-4043428D02*
X2835000Y-4052952D01*
X2835000Y-4052952D02*
X2815952Y-4062476D01*
X2815952Y-4062476D02*
X2768333Y-4062476D01*
X2768333Y-4062476D02*
X2749286Y-4052952D01*
X2749286Y-4052952D02*
X2739762Y-4043428D01*
X3025476Y-3862476D02*
X2987381Y-3862476D01*
X2987381Y-3862476D02*
X2968333Y-3872000D01*
X2968333Y-3872000D02*
X2958810Y-3881524D01*
X2958810Y-3881524D02*
X2939762Y-3910095D01*
X2939762Y-3910095D02*
X2930238Y-3948190D01*
X2930238Y-3948190D02*
X2930238Y-4024381D01*
X2930238Y-4024381D02*
X2939762Y-4043428D01*
X2939762Y-4043428D02*
X2949286Y-4052952D01*
X2949286Y-4052952D02*
X2968333Y-4062476D01*
X2968333Y-4062476D02*
X3006429Y-4062476D01*
X3006429Y-4062476D02*
X3025476Y-4052952D01*
X3025476Y-4052952D02*
X3035000Y-4043428D01*
X3035000Y-4043428D02*
X3044524Y-4024381D01*
X3044524Y-4024381D02*
X3044524Y-3976762D01*
X3044524Y-3976762D02*
X3035000Y-3957714D01*
X3035000Y-3957714D02*
X3025476Y-3948190D01*
X3025476Y-3948190D02*
X3006429Y-3938667D01*
X3006429Y-3938667D02*
X2968333Y-3938667D01*
X2968333Y-3938667D02*
X2949286Y-3948190D01*
X2949286Y-3948190D02*
X2939762Y-3957714D01*
X2939762Y-3957714D02*
X2930238Y-3976762D01*
X3120714Y-3862476D02*
X3120714Y-3900571D01*
X3196905Y-3862476D02*
X3196905Y-3900571D01*
X3459762Y-4138667D02*
X3450238Y-4129143D01*
X3450238Y-4129143D02*
X3431191Y-4100571D01*
X3431191Y-4100571D02*
X3421667Y-4081524D01*
X3421667Y-4081524D02*
X3412143Y-4052952D01*
X3412143Y-4052952D02*
X3402619Y-4005333D01*
X3402619Y-4005333D02*
X3402619Y-3967238D01*
X3402619Y-3967238D02*
X3412143Y-3919619D01*
X3412143Y-3919619D02*
X3421667Y-3891048D01*
X3421667Y-3891048D02*
X3431191Y-3872000D01*
X3431191Y-3872000D02*
X3450238Y-3843428D01*
X3450238Y-3843428D02*
X3459762Y-3833905D01*
X3640714Y-4062476D02*
X3526429Y-4062476D01*
X3583571Y-4062476D02*
X3583571Y-3862476D01*
X3583571Y-3862476D02*
X3564524Y-3891048D01*
X3564524Y-3891048D02*
X3545476Y-3910095D01*
X3545476Y-3910095D02*
X3526429Y-3919619D01*
X3716905Y-3881524D02*
X3726429Y-3872000D01*
X3726429Y-3872000D02*
X3745476Y-3862476D01*
X3745476Y-3862476D02*
X3793095Y-3862476D01*
X3793095Y-3862476D02*
X3812143Y-3872000D01*
X3812143Y-3872000D02*
X3821667Y-3881524D01*
X3821667Y-3881524D02*
X3831191Y-3900571D01*
X3831191Y-3900571D02*
X3831191Y-3919619D01*
X3831191Y-3919619D02*
X3821667Y-3948190D01*
X3821667Y-3948190D02*
X3707381Y-4062476D01*
X3707381Y-4062476D02*
X3831191Y-4062476D01*
X4036905Y-4062476D02*
X4036905Y-3862476D01*
X4122619Y-4062476D02*
X4122619Y-3957714D01*
X4122619Y-3957714D02*
X4113095Y-3938667D01*
X4113095Y-3938667D02*
X4094048Y-3929143D01*
X4094048Y-3929143D02*
X4065476Y-3929143D01*
X4065476Y-3929143D02*
X4046429Y-3938667D01*
X4046429Y-3938667D02*
X4036905Y-3948190D01*
X4246429Y-4062476D02*
X4227381Y-4052952D01*
X4227381Y-4052952D02*
X4217857Y-4043428D01*
X4217857Y-4043428D02*
X4208334Y-4024381D01*
X4208334Y-4024381D02*
X4208334Y-3967238D01*
X4208334Y-3967238D02*
X4217857Y-3948190D01*
X4217857Y-3948190D02*
X4227381Y-3938667D01*
X4227381Y-3938667D02*
X4246429Y-3929143D01*
X4246429Y-3929143D02*
X4275000Y-3929143D01*
X4275000Y-3929143D02*
X4294048Y-3938667D01*
X4294048Y-3938667D02*
X4303572Y-3948190D01*
X4303572Y-3948190D02*
X4313095Y-3967238D01*
X4313095Y-3967238D02*
X4313095Y-4024381D01*
X4313095Y-4024381D02*
X4303572Y-4043428D01*
X4303572Y-4043428D02*
X4294048Y-4052952D01*
X4294048Y-4052952D02*
X4275000Y-4062476D01*
X4275000Y-4062476D02*
X4246429Y-4062476D01*
X4427381Y-4062476D02*
X4408334Y-4052952D01*
X4408334Y-4052952D02*
X4398810Y-4033905D01*
X4398810Y-4033905D02*
X4398810Y-3862476D01*
X4579762Y-4052952D02*
X4560715Y-4062476D01*
X4560715Y-4062476D02*
X4522619Y-4062476D01*
X4522619Y-4062476D02*
X4503572Y-4052952D01*
X4503572Y-4052952D02*
X4494048Y-4033905D01*
X4494048Y-4033905D02*
X4494048Y-3957714D01*
X4494048Y-3957714D02*
X4503572Y-3938667D01*
X4503572Y-3938667D02*
X4522619Y-3929143D01*
X4522619Y-3929143D02*
X4560715Y-3929143D01*
X4560715Y-3929143D02*
X4579762Y-3938667D01*
X4579762Y-3938667D02*
X4589286Y-3957714D01*
X4589286Y-3957714D02*
X4589286Y-3976762D01*
X4589286Y-3976762D02*
X4494048Y-3995809D01*
X4665476Y-4052952D02*
X4684524Y-4062476D01*
X4684524Y-4062476D02*
X4722619Y-4062476D01*
X4722619Y-4062476D02*
X4741667Y-4052952D01*
X4741667Y-4052952D02*
X4751191Y-4033905D01*
X4751191Y-4033905D02*
X4751191Y-4024381D01*
X4751191Y-4024381D02*
X4741667Y-4005333D01*
X4741667Y-4005333D02*
X4722619Y-3995809D01*
X4722619Y-3995809D02*
X4694048Y-3995809D01*
X4694048Y-3995809D02*
X4675000Y-3986286D01*
X4675000Y-3986286D02*
X4665476Y-3967238D01*
X4665476Y-3967238D02*
X4665476Y-3957714D01*
X4665476Y-3957714D02*
X4675000Y-3938667D01*
X4675000Y-3938667D02*
X4694048Y-3929143D01*
X4694048Y-3929143D02*
X4722619Y-3929143D01*
X4722619Y-3929143D02*
X4741667Y-3938667D01*
X4817857Y-4138667D02*
X4827381Y-4129143D01*
X4827381Y-4129143D02*
X4846429Y-4100571D01*
X4846429Y-4100571D02*
X4855953Y-4081524D01*
X4855953Y-4081524D02*
X4865476Y-4052952D01*
X4865476Y-4052952D02*
X4875000Y-4005333D01*
X4875000Y-4005333D02*
X4875000Y-3967238D01*
X4875000Y-3967238D02*
X4865476Y-3919619D01*
X4865476Y-3919619D02*
X4855953Y-3891048D01*
X4855953Y-3891048D02*
X4846429Y-3872000D01*
X4846429Y-3872000D02*
X4827381Y-3843428D01*
X4827381Y-3843428D02*
X4817857Y-3833905D01*
D14*
X-40000Y-4218000D02*
X-40000Y-4288000D01*
X-75000Y-4253000D02*
X-5000Y-4253000D01*
D11*
X280714Y-4126476D02*
X299762Y-4126476D01*
X299762Y-4126476D02*
X318810Y-4136000D01*
X318810Y-4136000D02*
X328333Y-4145524D01*
X328333Y-4145524D02*
X337857Y-4164571D01*
X337857Y-4164571D02*
X347381Y-4202667D01*
X347381Y-4202667D02*
X347381Y-4250286D01*
X347381Y-4250286D02*
X337857Y-4288381D01*
X337857Y-4288381D02*
X328333Y-4307429D01*
X328333Y-4307429D02*
X318810Y-4316952D01*
X318810Y-4316952D02*
X299762Y-4326476D01*
X299762Y-4326476D02*
X280714Y-4326476D01*
X280714Y-4326476D02*
X261667Y-4316952D01*
X261667Y-4316952D02*
X252143Y-4307429D01*
X252143Y-4307429D02*
X242619Y-4288381D01*
X242619Y-4288381D02*
X233095Y-4250286D01*
X233095Y-4250286D02*
X233095Y-4202667D01*
X233095Y-4202667D02*
X242619Y-4164571D01*
X242619Y-4164571D02*
X252143Y-4145524D01*
X252143Y-4145524D02*
X261667Y-4136000D01*
X261667Y-4136000D02*
X280714Y-4126476D01*
X433095Y-4307429D02*
X442619Y-4316952D01*
X442619Y-4316952D02*
X433095Y-4326476D01*
X433095Y-4326476D02*
X423571Y-4316952D01*
X423571Y-4316952D02*
X433095Y-4307429D01*
X433095Y-4307429D02*
X433095Y-4326476D01*
X509286Y-4126476D02*
X642619Y-4126476D01*
X642619Y-4126476D02*
X556905Y-4326476D01*
X756905Y-4126476D02*
X775952Y-4126476D01*
X775952Y-4126476D02*
X795000Y-4136000D01*
X795000Y-4136000D02*
X804524Y-4145524D01*
X804524Y-4145524D02*
X814048Y-4164571D01*
X814048Y-4164571D02*
X823571Y-4202667D01*
X823571Y-4202667D02*
X823571Y-4250286D01*
X823571Y-4250286D02*
X814048Y-4288381D01*
X814048Y-4288381D02*
X804524Y-4307429D01*
X804524Y-4307429D02*
X795000Y-4316952D01*
X795000Y-4316952D02*
X775952Y-4326476D01*
X775952Y-4326476D02*
X756905Y-4326476D01*
X756905Y-4326476D02*
X737857Y-4316952D01*
X737857Y-4316952D02*
X728333Y-4307429D01*
X728333Y-4307429D02*
X718809Y-4288381D01*
X718809Y-4288381D02*
X709286Y-4250286D01*
X709286Y-4250286D02*
X709286Y-4202667D01*
X709286Y-4202667D02*
X718809Y-4164571D01*
X718809Y-4164571D02*
X728333Y-4145524D01*
X728333Y-4145524D02*
X737857Y-4136000D01*
X737857Y-4136000D02*
X756905Y-4126476D01*
X947381Y-4126476D02*
X966429Y-4126476D01*
X966429Y-4126476D02*
X985476Y-4136000D01*
X985476Y-4136000D02*
X995000Y-4145524D01*
X995000Y-4145524D02*
X1004524Y-4164571D01*
X1004524Y-4164571D02*
X1014048Y-4202667D01*
X1014048Y-4202667D02*
X1014048Y-4250286D01*
X1014048Y-4250286D02*
X1004524Y-4288381D01*
X1004524Y-4288381D02*
X995000Y-4307429D01*
X995000Y-4307429D02*
X985476Y-4316952D01*
X985476Y-4316952D02*
X966429Y-4326476D01*
X966429Y-4326476D02*
X947381Y-4326476D01*
X947381Y-4326476D02*
X928333Y-4316952D01*
X928333Y-4316952D02*
X918809Y-4307429D01*
X918809Y-4307429D02*
X909286Y-4288381D01*
X909286Y-4288381D02*
X899762Y-4250286D01*
X899762Y-4250286D02*
X899762Y-4202667D01*
X899762Y-4202667D02*
X909286Y-4164571D01*
X909286Y-4164571D02*
X918809Y-4145524D01*
X918809Y-4145524D02*
X928333Y-4136000D01*
X928333Y-4136000D02*
X947381Y-4126476D01*
X1099762Y-4326476D02*
X1099762Y-4193143D01*
X1099762Y-4212190D02*
X1109286Y-4202667D01*
X1109286Y-4202667D02*
X1128333Y-4193143D01*
X1128333Y-4193143D02*
X1156905Y-4193143D01*
X1156905Y-4193143D02*
X1175952Y-4202667D01*
X1175952Y-4202667D02*
X1185476Y-4221714D01*
X1185476Y-4221714D02*
X1185476Y-4326476D01*
X1185476Y-4221714D02*
X1195000Y-4202667D01*
X1195000Y-4202667D02*
X1214048Y-4193143D01*
X1214048Y-4193143D02*
X1242619Y-4193143D01*
X1242619Y-4193143D02*
X1261667Y-4202667D01*
X1261667Y-4202667D02*
X1271191Y-4221714D01*
X1271191Y-4221714D02*
X1271191Y-4326476D01*
X1366429Y-4326476D02*
X1366429Y-4193143D01*
X1366429Y-4212190D02*
X1375952Y-4202667D01*
X1375952Y-4202667D02*
X1395000Y-4193143D01*
X1395000Y-4193143D02*
X1423571Y-4193143D01*
X1423571Y-4193143D02*
X1442619Y-4202667D01*
X1442619Y-4202667D02*
X1452143Y-4221714D01*
X1452143Y-4221714D02*
X1452143Y-4326476D01*
X1452143Y-4221714D02*
X1461667Y-4202667D01*
X1461667Y-4202667D02*
X1480714Y-4193143D01*
X1480714Y-4193143D02*
X1509286Y-4193143D01*
X1509286Y-4193143D02*
X1528333Y-4202667D01*
X1528333Y-4202667D02*
X1537857Y-4221714D01*
X1537857Y-4221714D02*
X1537857Y-4326476D01*
X1895952Y-4116952D02*
X1724524Y-4374095D01*
X2120714Y-4126476D02*
X2139762Y-4126476D01*
X2139762Y-4126476D02*
X2158810Y-4136000D01*
X2158810Y-4136000D02*
X2168333Y-4145524D01*
X2168333Y-4145524D02*
X2177857Y-4164571D01*
X2177857Y-4164571D02*
X2187381Y-4202667D01*
X2187381Y-4202667D02*
X2187381Y-4250286D01*
X2187381Y-4250286D02*
X2177857Y-4288381D01*
X2177857Y-4288381D02*
X2168333Y-4307429D01*
X2168333Y-4307429D02*
X2158810Y-4316952D01*
X2158810Y-4316952D02*
X2139762Y-4326476D01*
X2139762Y-4326476D02*
X2120714Y-4326476D01*
X2120714Y-4326476D02*
X2101667Y-4316952D01*
X2101667Y-4316952D02*
X2092143Y-4307429D01*
X2092143Y-4307429D02*
X2082619Y-4288381D01*
X2082619Y-4288381D02*
X2073095Y-4250286D01*
X2073095Y-4250286D02*
X2073095Y-4202667D01*
X2073095Y-4202667D02*
X2082619Y-4164571D01*
X2082619Y-4164571D02*
X2092143Y-4145524D01*
X2092143Y-4145524D02*
X2101667Y-4136000D01*
X2101667Y-4136000D02*
X2120714Y-4126476D01*
X2273095Y-4307429D02*
X2282619Y-4316952D01*
X2282619Y-4316952D02*
X2273095Y-4326476D01*
X2273095Y-4326476D02*
X2263572Y-4316952D01*
X2263572Y-4316952D02*
X2273095Y-4307429D01*
X2273095Y-4307429D02*
X2273095Y-4326476D01*
X2406429Y-4126476D02*
X2425476Y-4126476D01*
X2425476Y-4126476D02*
X2444524Y-4136000D01*
X2444524Y-4136000D02*
X2454048Y-4145524D01*
X2454048Y-4145524D02*
X2463572Y-4164571D01*
X2463572Y-4164571D02*
X2473095Y-4202667D01*
X2473095Y-4202667D02*
X2473095Y-4250286D01*
X2473095Y-4250286D02*
X2463572Y-4288381D01*
X2463572Y-4288381D02*
X2454048Y-4307429D01*
X2454048Y-4307429D02*
X2444524Y-4316952D01*
X2444524Y-4316952D02*
X2425476Y-4326476D01*
X2425476Y-4326476D02*
X2406429Y-4326476D01*
X2406429Y-4326476D02*
X2387381Y-4316952D01*
X2387381Y-4316952D02*
X2377857Y-4307429D01*
X2377857Y-4307429D02*
X2368333Y-4288381D01*
X2368333Y-4288381D02*
X2358810Y-4250286D01*
X2358810Y-4250286D02*
X2358810Y-4202667D01*
X2358810Y-4202667D02*
X2368333Y-4164571D01*
X2368333Y-4164571D02*
X2377857Y-4145524D01*
X2377857Y-4145524D02*
X2387381Y-4136000D01*
X2387381Y-4136000D02*
X2406429Y-4126476D01*
X2549286Y-4145524D02*
X2558810Y-4136000D01*
X2558810Y-4136000D02*
X2577857Y-4126476D01*
X2577857Y-4126476D02*
X2625476Y-4126476D01*
X2625476Y-4126476D02*
X2644524Y-4136000D01*
X2644524Y-4136000D02*
X2654048Y-4145524D01*
X2654048Y-4145524D02*
X2663572Y-4164571D01*
X2663572Y-4164571D02*
X2663572Y-4183619D01*
X2663572Y-4183619D02*
X2654048Y-4212190D01*
X2654048Y-4212190D02*
X2539762Y-4326476D01*
X2539762Y-4326476D02*
X2663572Y-4326476D01*
X2730238Y-4126476D02*
X2863571Y-4126476D01*
X2863571Y-4126476D02*
X2777857Y-4326476D01*
X3025476Y-4126476D02*
X2987381Y-4126476D01*
X2987381Y-4126476D02*
X2968333Y-4136000D01*
X2968333Y-4136000D02*
X2958810Y-4145524D01*
X2958810Y-4145524D02*
X2939762Y-4174095D01*
X2939762Y-4174095D02*
X2930238Y-4212190D01*
X2930238Y-4212190D02*
X2930238Y-4288381D01*
X2930238Y-4288381D02*
X2939762Y-4307429D01*
X2939762Y-4307429D02*
X2949286Y-4316952D01*
X2949286Y-4316952D02*
X2968333Y-4326476D01*
X2968333Y-4326476D02*
X3006429Y-4326476D01*
X3006429Y-4326476D02*
X3025476Y-4316952D01*
X3025476Y-4316952D02*
X3035000Y-4307429D01*
X3035000Y-4307429D02*
X3044524Y-4288381D01*
X3044524Y-4288381D02*
X3044524Y-4240762D01*
X3044524Y-4240762D02*
X3035000Y-4221714D01*
X3035000Y-4221714D02*
X3025476Y-4212190D01*
X3025476Y-4212190D02*
X3006429Y-4202667D01*
X3006429Y-4202667D02*
X2968333Y-4202667D01*
X2968333Y-4202667D02*
X2949286Y-4212190D01*
X2949286Y-4212190D02*
X2939762Y-4221714D01*
X2939762Y-4221714D02*
X2930238Y-4240762D01*
X3120714Y-4126476D02*
X3120714Y-4164571D01*
X3196905Y-4126476D02*
X3196905Y-4164571D01*
X3459762Y-4402667D02*
X3450238Y-4393143D01*
X3450238Y-4393143D02*
X3431191Y-4364571D01*
X3431191Y-4364571D02*
X3421667Y-4345524D01*
X3421667Y-4345524D02*
X3412143Y-4316952D01*
X3412143Y-4316952D02*
X3402619Y-4269333D01*
X3402619Y-4269333D02*
X3402619Y-4231238D01*
X3402619Y-4231238D02*
X3412143Y-4183619D01*
X3412143Y-4183619D02*
X3421667Y-4155048D01*
X3421667Y-4155048D02*
X3431191Y-4136000D01*
X3431191Y-4136000D02*
X3450238Y-4107428D01*
X3450238Y-4107428D02*
X3459762Y-4097905D01*
X3526429Y-4145524D02*
X3535952Y-4136000D01*
X3535952Y-4136000D02*
X3555000Y-4126476D01*
X3555000Y-4126476D02*
X3602619Y-4126476D01*
X3602619Y-4126476D02*
X3621667Y-4136000D01*
X3621667Y-4136000D02*
X3631191Y-4145524D01*
X3631191Y-4145524D02*
X3640714Y-4164571D01*
X3640714Y-4164571D02*
X3640714Y-4183619D01*
X3640714Y-4183619D02*
X3631191Y-4212190D01*
X3631191Y-4212190D02*
X3516905Y-4326476D01*
X3516905Y-4326476D02*
X3640714Y-4326476D01*
X3846429Y-4326476D02*
X3846429Y-4126476D01*
X3932143Y-4326476D02*
X3932143Y-4221714D01*
X3932143Y-4221714D02*
X3922619Y-4202667D01*
X3922619Y-4202667D02*
X3903572Y-4193143D01*
X3903572Y-4193143D02*
X3875000Y-4193143D01*
X3875000Y-4193143D02*
X3855952Y-4202667D01*
X3855952Y-4202667D02*
X3846429Y-4212190D01*
X4055952Y-4326476D02*
X4036905Y-4316952D01*
X4036905Y-4316952D02*
X4027381Y-4307429D01*
X4027381Y-4307429D02*
X4017857Y-4288381D01*
X4017857Y-4288381D02*
X4017857Y-4231238D01*
X4017857Y-4231238D02*
X4027381Y-4212190D01*
X4027381Y-4212190D02*
X4036905Y-4202667D01*
X4036905Y-4202667D02*
X4055952Y-4193143D01*
X4055952Y-4193143D02*
X4084524Y-4193143D01*
X4084524Y-4193143D02*
X4103572Y-4202667D01*
X4103572Y-4202667D02*
X4113095Y-4212190D01*
X4113095Y-4212190D02*
X4122619Y-4231238D01*
X4122619Y-4231238D02*
X4122619Y-4288381D01*
X4122619Y-4288381D02*
X4113095Y-4307429D01*
X4113095Y-4307429D02*
X4103572Y-4316952D01*
X4103572Y-4316952D02*
X4084524Y-4326476D01*
X4084524Y-4326476D02*
X4055952Y-4326476D01*
X4236905Y-4326476D02*
X4217857Y-4316952D01*
X4217857Y-4316952D02*
X4208334Y-4297905D01*
X4208334Y-4297905D02*
X4208334Y-4126476D01*
X4389286Y-4316952D02*
X4370238Y-4326476D01*
X4370238Y-4326476D02*
X4332143Y-4326476D01*
X4332143Y-4326476D02*
X4313095Y-4316952D01*
X4313095Y-4316952D02*
X4303572Y-4297905D01*
X4303572Y-4297905D02*
X4303572Y-4221714D01*
X4303572Y-4221714D02*
X4313095Y-4202667D01*
X4313095Y-4202667D02*
X4332143Y-4193143D01*
X4332143Y-4193143D02*
X4370238Y-4193143D01*
X4370238Y-4193143D02*
X4389286Y-4202667D01*
X4389286Y-4202667D02*
X4398810Y-4221714D01*
X4398810Y-4221714D02*
X4398810Y-4240762D01*
X4398810Y-4240762D02*
X4303572Y-4259810D01*
X4475000Y-4316952D02*
X4494048Y-4326476D01*
X4494048Y-4326476D02*
X4532143Y-4326476D01*
X4532143Y-4326476D02*
X4551191Y-4316952D01*
X4551191Y-4316952D02*
X4560715Y-4297905D01*
X4560715Y-4297905D02*
X4560715Y-4288381D01*
X4560715Y-4288381D02*
X4551191Y-4269333D01*
X4551191Y-4269333D02*
X4532143Y-4259810D01*
X4532143Y-4259810D02*
X4503572Y-4259810D01*
X4503572Y-4259810D02*
X4484524Y-4250286D01*
X4484524Y-4250286D02*
X4475000Y-4231238D01*
X4475000Y-4231238D02*
X4475000Y-4221714D01*
X4475000Y-4221714D02*
X4484524Y-4202667D01*
X4484524Y-4202667D02*
X4503572Y-4193143D01*
X4503572Y-4193143D02*
X4532143Y-4193143D01*
X4532143Y-4193143D02*
X4551191Y-4202667D01*
X4766429Y-4250286D02*
X4918810Y-4250286D01*
X4842619Y-4326476D02*
X4842619Y-4174095D01*
X5124524Y-4145524D02*
X5134048Y-4136000D01*
X5134048Y-4136000D02*
X5153095Y-4126476D01*
X5153095Y-4126476D02*
X5200715Y-4126476D01*
X5200715Y-4126476D02*
X5219762Y-4136000D01*
X5219762Y-4136000D02*
X5229286Y-4145524D01*
X5229286Y-4145524D02*
X5238810Y-4164571D01*
X5238810Y-4164571D02*
X5238810Y-4183619D01*
X5238810Y-4183619D02*
X5229286Y-4212190D01*
X5229286Y-4212190D02*
X5115000Y-4326476D01*
X5115000Y-4326476D02*
X5238810Y-4326476D01*
X5435000Y-4316952D02*
X5454048Y-4326476D01*
X5454048Y-4326476D02*
X5492143Y-4326476D01*
X5492143Y-4326476D02*
X5511191Y-4316952D01*
X5511191Y-4316952D02*
X5520715Y-4297905D01*
X5520715Y-4297905D02*
X5520715Y-4288381D01*
X5520715Y-4288381D02*
X5511191Y-4269333D01*
X5511191Y-4269333D02*
X5492143Y-4259810D01*
X5492143Y-4259810D02*
X5463572Y-4259810D01*
X5463572Y-4259810D02*
X5444524Y-4250286D01*
X5444524Y-4250286D02*
X5435000Y-4231238D01*
X5435000Y-4231238D02*
X5435000Y-4221714D01*
X5435000Y-4221714D02*
X5444524Y-4202667D01*
X5444524Y-4202667D02*
X5463572Y-4193143D01*
X5463572Y-4193143D02*
X5492143Y-4193143D01*
X5492143Y-4193143D02*
X5511191Y-4202667D01*
X5635000Y-4326476D02*
X5615953Y-4316952D01*
X5615953Y-4316952D02*
X5606429Y-4297905D01*
X5606429Y-4297905D02*
X5606429Y-4126476D01*
X5739762Y-4326476D02*
X5720714Y-4316952D01*
X5720714Y-4316952D02*
X5711191Y-4307429D01*
X5711191Y-4307429D02*
X5701667Y-4288381D01*
X5701667Y-4288381D02*
X5701667Y-4231238D01*
X5701667Y-4231238D02*
X5711191Y-4212190D01*
X5711191Y-4212190D02*
X5720714Y-4202667D01*
X5720714Y-4202667D02*
X5739762Y-4193143D01*
X5739762Y-4193143D02*
X5768334Y-4193143D01*
X5768334Y-4193143D02*
X5787381Y-4202667D01*
X5787381Y-4202667D02*
X5796905Y-4212190D01*
X5796905Y-4212190D02*
X5806429Y-4231238D01*
X5806429Y-4231238D02*
X5806429Y-4288381D01*
X5806429Y-4288381D02*
X5796905Y-4307429D01*
X5796905Y-4307429D02*
X5787381Y-4316952D01*
X5787381Y-4316952D02*
X5768334Y-4326476D01*
X5768334Y-4326476D02*
X5739762Y-4326476D01*
X5863572Y-4193143D02*
X5939762Y-4193143D01*
X5892143Y-4126476D02*
X5892143Y-4297905D01*
X5892143Y-4297905D02*
X5901667Y-4316952D01*
X5901667Y-4316952D02*
X5920714Y-4326476D01*
X5920714Y-4326476D02*
X5939762Y-4326476D01*
X5996905Y-4316952D02*
X6015953Y-4326476D01*
X6015953Y-4326476D02*
X6054048Y-4326476D01*
X6054048Y-4326476D02*
X6073095Y-4316952D01*
X6073095Y-4316952D02*
X6082619Y-4297905D01*
X6082619Y-4297905D02*
X6082619Y-4288381D01*
X6082619Y-4288381D02*
X6073095Y-4269333D01*
X6073095Y-4269333D02*
X6054048Y-4259810D01*
X6054048Y-4259810D02*
X6025476Y-4259810D01*
X6025476Y-4259810D02*
X6006429Y-4250286D01*
X6006429Y-4250286D02*
X5996905Y-4231238D01*
X5996905Y-4231238D02*
X5996905Y-4221714D01*
X5996905Y-4221714D02*
X6006429Y-4202667D01*
X6006429Y-4202667D02*
X6025476Y-4193143D01*
X6025476Y-4193143D02*
X6054048Y-4193143D01*
X6054048Y-4193143D02*
X6073095Y-4202667D01*
X6149286Y-4402667D02*
X6158810Y-4393143D01*
X6158810Y-4393143D02*
X6177857Y-4364571D01*
X6177857Y-4364571D02*
X6187381Y-4345524D01*
X6187381Y-4345524D02*
X6196905Y-4316952D01*
X6196905Y-4316952D02*
X6206429Y-4269333D01*
X6206429Y-4269333D02*
X6206429Y-4231238D01*
X6206429Y-4231238D02*
X6196905Y-4183619D01*
X6196905Y-4183619D02*
X6187381Y-4155048D01*
X6187381Y-4155048D02*
X6177857Y-4136000D01*
X6177857Y-4136000D02*
X6158810Y-4107428D01*
X6158810Y-4107428D02*
X6149286Y-4097905D01*
M02*
