G04 #@! TF.GenerationSoftware,KiCad,Pcbnew,8.0.1*
G04 #@! TF.CreationDate,2024-04-13T18:18:23+03:00*
G04 #@! TF.ProjectId,mains-detector,6d61696e-732d-4646-9574-6563746f722e,rev?*
G04 #@! TF.SameCoordinates,Original*
G04 #@! TF.FileFunction,Copper,L2,Inr*
G04 #@! TF.FilePolarity,Positive*
%FSLAX46Y46*%
G04 Gerber Fmt 4.6, Leading zero omitted, Abs format (unit mm)*
G04 Created by KiCad (PCBNEW 8.0.1) date 2024-04-13 18:18:23*
%MOMM*%
%LPD*%
G01*
G04 APERTURE LIST*
G04 #@! TA.AperFunction,ComponentPad*
%ADD10R,1.700000X1.700000*%
G04 #@! TD*
G04 #@! TA.AperFunction,ComponentPad*
%ADD11O,1.700000X1.700000*%
G04 #@! TD*
G04 #@! TA.AperFunction,ComponentPad*
%ADD12R,1.000000X1.000000*%
G04 #@! TD*
G04 #@! TA.AperFunction,ComponentPad*
%ADD13O,1.000000X1.000000*%
G04 #@! TD*
G04 #@! TA.AperFunction,ComponentPad*
%ADD14C,1.300000*%
G04 #@! TD*
G04 #@! TA.AperFunction,ComponentPad*
%ADD15O,1.300000X1.800000*%
G04 #@! TD*
G04 #@! TA.AperFunction,ViaPad*
%ADD16C,0.800000*%
G04 #@! TD*
G04 APERTURE END LIST*
D10*
X43700000Y-3700000D03*
D11*
X41160000Y-3700000D03*
X38620000Y-3700000D03*
D12*
X22584803Y-24800000D03*
D13*
X21314803Y-24800000D03*
X20044803Y-24800000D03*
X18774803Y-24800000D03*
D12*
X26794803Y-29300000D03*
X8794803Y-13800000D03*
D13*
X8794803Y-15070000D03*
X8794803Y-16340000D03*
D12*
X36874803Y-16600000D03*
D13*
X35604803Y-16600000D03*
D12*
X36814803Y-13400000D03*
D13*
X35544803Y-13400000D03*
D14*
X15919803Y-26230000D03*
D15*
X17119803Y-28900000D03*
X9869803Y-28900000D03*
D14*
X11069803Y-26230000D03*
D16*
X16594803Y-9000000D03*
X30694803Y-20800000D03*
X23094803Y-9000000D03*
X17894803Y-9000000D03*
X47400000Y-24800000D03*
X37494803Y-15000000D03*
X16794803Y-18000000D03*
X25494803Y-20800000D03*
X16794803Y-16700000D03*
X24194803Y-20800000D03*
X20494803Y-9000000D03*
X36194803Y-15000000D03*
X19194803Y-9000000D03*
X49100000Y-8800000D03*
X28094803Y-20800000D03*
X26794803Y-20800000D03*
X49100000Y-7500000D03*
X34794803Y-21400000D03*
X34894803Y-15000000D03*
X21794803Y-9000000D03*
X46500000Y-8800000D03*
X24494803Y-9000000D03*
X44800000Y-26100000D03*
X46500000Y-7500000D03*
X46100000Y-26100000D03*
X38494803Y-12600000D03*
X25794803Y-9000000D03*
X47400000Y-26100000D03*
X46100000Y-24800000D03*
X47800000Y-8800000D03*
X44800000Y-24800000D03*
X16794803Y-19300000D03*
X16794803Y-20600000D03*
X27094803Y-9000000D03*
X39794803Y-12600000D03*
X29394803Y-20800000D03*
X47800000Y-7500000D03*
X30924803Y-6000000D03*
X47700000Y-22600000D03*
X49800000Y-12600000D03*
X49100000Y-22600000D03*
X12694803Y-4850000D03*
X14044803Y-4850000D03*
X36594803Y-26600000D03*
X36594803Y-25300000D03*
X38094803Y-26600000D03*
X48400000Y-13900000D03*
X47700000Y-21300000D03*
X38094803Y-22600000D03*
X38094803Y-25300000D03*
X38094803Y-23900000D03*
X46300000Y-22600000D03*
X10924803Y-15200000D03*
X48400000Y-12600000D03*
X12694803Y-6450000D03*
X14044803Y-6450000D03*
X49100000Y-21300000D03*
X49800000Y-15100000D03*
X12694803Y-7950000D03*
X46300000Y-21300000D03*
X49800000Y-13900000D03*
X11394803Y-23700000D03*
X42694803Y-12400000D03*
X41294803Y-12400000D03*
X10294803Y-23700000D03*
X9094803Y-23700000D03*
X11394803Y-24800000D03*
X9094803Y-24800000D03*
X9094803Y-25900000D03*
X42694803Y-11100000D03*
X10294803Y-24800000D03*
X31294803Y-14800000D03*
X31294803Y-16500000D03*
X32800000Y-19400000D03*
X32800000Y-17900000D03*
X24294803Y-23800000D03*
X24094803Y-27000000D03*
X10794803Y-12800000D03*
X7494803Y-18400000D03*
X20524803Y-7200000D03*
X9524803Y-8200000D03*
X13894803Y-23900000D03*
X13494803Y-27500000D03*
G04 #@! TA.AperFunction,Conductor*
G36*
X52143039Y-19685D02*
G01*
X52188794Y-72489D01*
X52200000Y-124000D01*
X52200000Y-30676000D01*
X52180315Y-30743039D01*
X52127511Y-30788794D01*
X52076000Y-30800000D01*
X124000Y-30800000D01*
X56961Y-30780315D01*
X11206Y-30727511D01*
X0Y-30676000D01*
X0Y-28206287D01*
X849500Y-28206287D01*
X882754Y-28416243D01*
X931057Y-28564905D01*
X948444Y-28618414D01*
X1044951Y-28807820D01*
X1169890Y-28979786D01*
X1320213Y-29130109D01*
X1492179Y-29255048D01*
X1492181Y-29255049D01*
X1492184Y-29255051D01*
X1681588Y-29351557D01*
X1883757Y-29417246D01*
X2093713Y-29450500D01*
X2093714Y-29450500D01*
X2306286Y-29450500D01*
X2306287Y-29450500D01*
X2516243Y-29417246D01*
X2718412Y-29351557D01*
X2907816Y-29255051D01*
X2927835Y-29240506D01*
X8719803Y-29240506D01*
X8748120Y-29419293D01*
X8804054Y-29591444D01*
X8804055Y-29591447D01*
X8886237Y-29752734D01*
X8992626Y-29899169D01*
X9120633Y-30027176D01*
X9267068Y-30133565D01*
X9428355Y-30215747D01*
X9428358Y-30215748D01*
X9600502Y-30271680D01*
X9600515Y-30271683D01*
X9619803Y-30274738D01*
X9619803Y-29344975D01*
X9654898Y-29380070D01*
X9734708Y-29426148D01*
X9823725Y-29450000D01*
X9915881Y-29450000D01*
X10004898Y-29426148D01*
X10084708Y-29380070D01*
X10119803Y-29344975D01*
X10119803Y-30274737D01*
X10139090Y-30271683D01*
X10139103Y-30271680D01*
X10311247Y-30215748D01*
X10311250Y-30215747D01*
X10472537Y-30133565D01*
X10618972Y-30027176D01*
X10746979Y-29899169D01*
X10853368Y-29752734D01*
X10935550Y-29591447D01*
X10935551Y-29591444D01*
X10991485Y-29419293D01*
X11019803Y-29240506D01*
X15969803Y-29240506D01*
X15998120Y-29419293D01*
X16054054Y-29591444D01*
X16054055Y-29591447D01*
X16136237Y-29752734D01*
X16242626Y-29899169D01*
X16370633Y-30027176D01*
X16517068Y-30133565D01*
X16678355Y-30215747D01*
X16678358Y-30215748D01*
X16850502Y-30271680D01*
X16850515Y-30271683D01*
X16869803Y-30274738D01*
X16869803Y-29344975D01*
X16904898Y-29380070D01*
X16984708Y-29426148D01*
X17073725Y-29450000D01*
X17165881Y-29450000D01*
X17254898Y-29426148D01*
X17334708Y-29380070D01*
X17369803Y-29344975D01*
X17369803Y-30274737D01*
X17389090Y-30271683D01*
X17389103Y-30271680D01*
X17561247Y-30215748D01*
X17561250Y-30215747D01*
X17722537Y-30133565D01*
X17868972Y-30027176D01*
X17996979Y-29899169D01*
X18036439Y-29844856D01*
X25994303Y-29844856D01*
X25994305Y-29844882D01*
X25997216Y-29869987D01*
X25997218Y-29869991D01*
X26042596Y-29972764D01*
X26042597Y-29972765D01*
X26122038Y-30052206D01*
X26224812Y-30097585D01*
X26249938Y-30100500D01*
X27339667Y-30100499D01*
X27339682Y-30100497D01*
X27339685Y-30100497D01*
X27364790Y-30097586D01*
X27364791Y-30097585D01*
X27364794Y-30097585D01*
X27467568Y-30052206D01*
X27547009Y-29972765D01*
X27592388Y-29869991D01*
X27595303Y-29844865D01*
X27595302Y-28755136D01*
X27595300Y-28755117D01*
X27592389Y-28730012D01*
X27592388Y-28730010D01*
X27592388Y-28730009D01*
X27547009Y-28627235D01*
X27467568Y-28547794D01*
X27467566Y-28547793D01*
X27364795Y-28502415D01*
X27339668Y-28499500D01*
X26249946Y-28499500D01*
X26249920Y-28499502D01*
X26224815Y-28502413D01*
X26224811Y-28502415D01*
X26122038Y-28547793D01*
X26042597Y-28627234D01*
X25997218Y-28730006D01*
X25997218Y-28730008D01*
X25994303Y-28755131D01*
X25994303Y-29844856D01*
X18036439Y-29844856D01*
X18103368Y-29752734D01*
X18185550Y-29591447D01*
X18185551Y-29591444D01*
X18241485Y-29419293D01*
X18269803Y-29240506D01*
X18269803Y-29150000D01*
X17468752Y-29150000D01*
X17469803Y-29146078D01*
X17469803Y-28653922D01*
X17468752Y-28650000D01*
X18269803Y-28650000D01*
X18269803Y-28559493D01*
X18241485Y-28380706D01*
X18185551Y-28208555D01*
X18185550Y-28208552D01*
X18184396Y-28206287D01*
X48549500Y-28206287D01*
X48582754Y-28416243D01*
X48631057Y-28564905D01*
X48648444Y-28618414D01*
X48744951Y-28807820D01*
X48869890Y-28979786D01*
X49020213Y-29130109D01*
X49192179Y-29255048D01*
X49192181Y-29255049D01*
X49192184Y-29255051D01*
X49381588Y-29351557D01*
X49583757Y-29417246D01*
X49793713Y-29450500D01*
X49793714Y-29450500D01*
X50006286Y-29450500D01*
X50006287Y-29450500D01*
X50216243Y-29417246D01*
X50418412Y-29351557D01*
X50607816Y-29255051D01*
X50635283Y-29235095D01*
X50779786Y-29130109D01*
X50779788Y-29130106D01*
X50779792Y-29130104D01*
X50930104Y-28979792D01*
X50930106Y-28979788D01*
X50930109Y-28979786D01*
X51055048Y-28807820D01*
X51055047Y-28807820D01*
X51055051Y-28807816D01*
X51151557Y-28618412D01*
X51217246Y-28416243D01*
X51250500Y-28206287D01*
X51250500Y-27993713D01*
X51217246Y-27783757D01*
X51151557Y-27581588D01*
X51055051Y-27392184D01*
X51055049Y-27392181D01*
X51055048Y-27392179D01*
X50930109Y-27220213D01*
X50779786Y-27069890D01*
X50607820Y-26944951D01*
X50418414Y-26848444D01*
X50418413Y-26848443D01*
X50418412Y-26848443D01*
X50216243Y-26782754D01*
X50216241Y-26782753D01*
X50216240Y-26782753D01*
X50054957Y-26757208D01*
X50006287Y-26749500D01*
X49793713Y-26749500D01*
X49745042Y-26757208D01*
X49583760Y-26782753D01*
X49583757Y-26782754D01*
X49406927Y-26840210D01*
X49381585Y-26848444D01*
X49192179Y-26944951D01*
X49020213Y-27069890D01*
X48869890Y-27220213D01*
X48744951Y-27392179D01*
X48648444Y-27581585D01*
X48582753Y-27783760D01*
X48575757Y-27827931D01*
X48549500Y-27993713D01*
X48549500Y-28206287D01*
X18184396Y-28206287D01*
X18103368Y-28047265D01*
X17996979Y-27900830D01*
X17868972Y-27772823D01*
X17722537Y-27666434D01*
X17561250Y-27584252D01*
X17561244Y-27584250D01*
X17389098Y-27528318D01*
X17389088Y-27528315D01*
X17369803Y-27525260D01*
X17369803Y-28455025D01*
X17334708Y-28419930D01*
X17254898Y-28373852D01*
X17165881Y-28350000D01*
X17073725Y-28350000D01*
X16984708Y-28373852D01*
X16904898Y-28419930D01*
X16869803Y-28455025D01*
X16869803Y-27525260D01*
X16850517Y-27528315D01*
X16850507Y-27528318D01*
X16678361Y-27584250D01*
X16678355Y-27584252D01*
X16517068Y-27666434D01*
X16370633Y-27772823D01*
X16242626Y-27900830D01*
X16136237Y-28047265D01*
X16054055Y-28208552D01*
X16054054Y-28208555D01*
X15998120Y-28380706D01*
X15969803Y-28559493D01*
X15969803Y-28650000D01*
X16770854Y-28650000D01*
X16769803Y-28653922D01*
X16769803Y-29146078D01*
X16770854Y-29150000D01*
X15969803Y-29150000D01*
X15969803Y-29240506D01*
X11019803Y-29240506D01*
X11019803Y-29150000D01*
X10218752Y-29150000D01*
X10219803Y-29146078D01*
X10219803Y-28653922D01*
X10218752Y-28650000D01*
X11019803Y-28650000D01*
X11019803Y-28559493D01*
X10991485Y-28380706D01*
X10935551Y-28208555D01*
X10935550Y-28208552D01*
X10853368Y-28047265D01*
X10746979Y-27900830D01*
X10618972Y-27772823D01*
X10472537Y-27666434D01*
X10311250Y-27584252D01*
X10311244Y-27584250D01*
X10139098Y-27528318D01*
X10139088Y-27528315D01*
X10119803Y-27525260D01*
X10119803Y-28455025D01*
X10084708Y-28419930D01*
X10004898Y-28373852D01*
X9915881Y-28350000D01*
X9823725Y-28350000D01*
X9734708Y-28373852D01*
X9654898Y-28419930D01*
X9619803Y-28455025D01*
X9619803Y-27525260D01*
X9600517Y-27528315D01*
X9600507Y-27528318D01*
X9428361Y-27584250D01*
X9428355Y-27584252D01*
X9267068Y-27666434D01*
X9120633Y-27772823D01*
X8992626Y-27900830D01*
X8886237Y-28047265D01*
X8804055Y-28208552D01*
X8804054Y-28208555D01*
X8748120Y-28380706D01*
X8719803Y-28559493D01*
X8719803Y-28650000D01*
X9520854Y-28650000D01*
X9519803Y-28653922D01*
X9519803Y-29146078D01*
X9520854Y-29150000D01*
X8719803Y-29150000D01*
X8719803Y-29240506D01*
X2927835Y-29240506D01*
X2935283Y-29235095D01*
X3079786Y-29130109D01*
X3079788Y-29130106D01*
X3079792Y-29130104D01*
X3230104Y-28979792D01*
X3230106Y-28979788D01*
X3230109Y-28979786D01*
X3355048Y-28807820D01*
X3355047Y-28807820D01*
X3355051Y-28807816D01*
X3451557Y-28618412D01*
X3517246Y-28416243D01*
X3550500Y-28206287D01*
X3550500Y-27993713D01*
X3517246Y-27783757D01*
X3451557Y-27581588D01*
X3409986Y-27500000D01*
X12789158Y-27500000D01*
X12809662Y-27668869D01*
X12809663Y-27668874D01*
X12869985Y-27827931D01*
X12932278Y-27918177D01*
X12966620Y-27967929D01*
X13056172Y-28047265D01*
X13093953Y-28080736D01*
X13244576Y-28159789D01*
X13244578Y-28159790D01*
X13409747Y-28200500D01*
X13579859Y-28200500D01*
X13745028Y-28159790D01*
X13824495Y-28118081D01*
X13895652Y-28080736D01*
X13895653Y-28080734D01*
X13895655Y-28080734D01*
X14022986Y-27967929D01*
X14119621Y-27827930D01*
X14179943Y-27668872D01*
X14200448Y-27500000D01*
X14179943Y-27331128D01*
X14168327Y-27300500D01*
X14130425Y-27200559D01*
X15302794Y-27200559D01*
X15405007Y-27263847D01*
X15405011Y-27263849D01*
X15603739Y-27340836D01*
X15603744Y-27340837D01*
X15813242Y-27380000D01*
X16026364Y-27380000D01*
X16235861Y-27340837D01*
X16235866Y-27340836D01*
X16434594Y-27263849D01*
X16434601Y-27263846D01*
X16536809Y-27200560D01*
X16536809Y-27200559D01*
X16336250Y-27000000D01*
X23389158Y-27000000D01*
X23409662Y-27168869D01*
X23409663Y-27168874D01*
X23469985Y-27327931D01*
X23532278Y-27418177D01*
X23566620Y-27467929D01*
X23672308Y-27561560D01*
X23693953Y-27580736D01*
X23844576Y-27659789D01*
X23844578Y-27659790D01*
X24009747Y-27700500D01*
X24179859Y-27700500D01*
X24345028Y-27659790D01*
X24424495Y-27618081D01*
X24495652Y-27580736D01*
X24495653Y-27580734D01*
X24495655Y-27580734D01*
X24622986Y-27467929D01*
X24719621Y-27327930D01*
X24779943Y-27168872D01*
X24800448Y-27000000D01*
X24779943Y-26831128D01*
X24719621Y-26672070D01*
X24702465Y-26647216D01*
X24669874Y-26600000D01*
X35889158Y-26600000D01*
X35909662Y-26768869D01*
X35909663Y-26768874D01*
X35969985Y-26927931D01*
X36019732Y-27000000D01*
X36066620Y-27067929D01*
X36172308Y-27161560D01*
X36193953Y-27180736D01*
X36344576Y-27259789D01*
X36344578Y-27259790D01*
X36509747Y-27300500D01*
X36679859Y-27300500D01*
X36845028Y-27259790D01*
X36924495Y-27218081D01*
X36995652Y-27180736D01*
X36995653Y-27180734D01*
X36995655Y-27180734D01*
X37122986Y-27067929D01*
X37219621Y-26927930D01*
X37228861Y-26903564D01*
X37271039Y-26847862D01*
X37336636Y-26823805D01*
X37404826Y-26839032D01*
X37453960Y-26888707D01*
X37460745Y-26903565D01*
X37469985Y-26927931D01*
X37519732Y-27000000D01*
X37566620Y-27067929D01*
X37672308Y-27161560D01*
X37693953Y-27180736D01*
X37844576Y-27259789D01*
X37844578Y-27259790D01*
X38009747Y-27300500D01*
X38179859Y-27300500D01*
X38345028Y-27259790D01*
X38424495Y-27218081D01*
X38495652Y-27180736D01*
X38495653Y-27180734D01*
X38495655Y-27180734D01*
X38622986Y-27067929D01*
X38719621Y-26927930D01*
X38779943Y-26768872D01*
X38800448Y-26600000D01*
X38779943Y-26431128D01*
X38775444Y-26419266D01*
X38719620Y-26272068D01*
X38658776Y-26183922D01*
X38622986Y-26132071D01*
X38522234Y-26042812D01*
X38485110Y-25983627D01*
X38485877Y-25913761D01*
X38522233Y-25857187D01*
X38622986Y-25767929D01*
X38719621Y-25627930D01*
X38779943Y-25468872D01*
X38800448Y-25300000D01*
X38779943Y-25131128D01*
X38719621Y-24972070D01*
X38717411Y-24968869D01*
X38685279Y-24922318D01*
X38622986Y-24832071D01*
X38495655Y-24719266D01*
X38477612Y-24709796D01*
X38427400Y-24661212D01*
X38411425Y-24593194D01*
X38434760Y-24527336D01*
X38477612Y-24490203D01*
X38495655Y-24480734D01*
X38622986Y-24367929D01*
X38719621Y-24227930D01*
X38779943Y-24068872D01*
X38800448Y-23900000D01*
X38779943Y-23731128D01*
X38719621Y-23572070D01*
X38622986Y-23432071D01*
X38522234Y-23342812D01*
X38485110Y-23283627D01*
X38485877Y-23213761D01*
X38522233Y-23157187D01*
X38622986Y-23067929D01*
X38719621Y-22927930D01*
X38779943Y-22768872D01*
X38800448Y-22600000D01*
X45594355Y-22600000D01*
X45614859Y-22768869D01*
X45614860Y-22768874D01*
X45675182Y-22927931D01*
X45737475Y-23018177D01*
X45771817Y-23067929D01*
X45877505Y-23161560D01*
X45899150Y-23180736D01*
X46049773Y-23259789D01*
X46049775Y-23259790D01*
X46214944Y-23300500D01*
X46385056Y-23300500D01*
X46550225Y-23259790D01*
X46637925Y-23213761D01*
X46700849Y-23180736D01*
X46700850Y-23180734D01*
X46700852Y-23180734D01*
X46828183Y-23067929D01*
X46897951Y-22966853D01*
X46952233Y-22922864D01*
X47021681Y-22915204D01*
X47084246Y-22946307D01*
X47102047Y-22966851D01*
X47124584Y-22999500D01*
X47171816Y-23067928D01*
X47299150Y-23180736D01*
X47449773Y-23259789D01*
X47449775Y-23259790D01*
X47614944Y-23300500D01*
X47785056Y-23300500D01*
X47950225Y-23259790D01*
X48037925Y-23213761D01*
X48100849Y-23180736D01*
X48100850Y-23180734D01*
X48100852Y-23180734D01*
X48228183Y-23067929D01*
X48297951Y-22966853D01*
X48352233Y-22922864D01*
X48421681Y-22915204D01*
X48484246Y-22946307D01*
X48502047Y-22966851D01*
X48524584Y-22999500D01*
X48571816Y-23067928D01*
X48699150Y-23180736D01*
X48849773Y-23259789D01*
X48849775Y-23259790D01*
X49014944Y-23300500D01*
X49185056Y-23300500D01*
X49350225Y-23259790D01*
X49437925Y-23213761D01*
X49500849Y-23180736D01*
X49500850Y-23180734D01*
X49500852Y-23180734D01*
X49628183Y-23067929D01*
X49724818Y-22927930D01*
X49785140Y-22768872D01*
X49805645Y-22600000D01*
X49785140Y-22431128D01*
X49724818Y-22272070D01*
X49628183Y-22132071D01*
X49527431Y-22042812D01*
X49490307Y-21983627D01*
X49491074Y-21913761D01*
X49527430Y-21857187D01*
X49628183Y-21767929D01*
X49724818Y-21627930D01*
X49785140Y-21468872D01*
X49805645Y-21300000D01*
X49785140Y-21131128D01*
X49724818Y-20972070D01*
X49628183Y-20832071D01*
X49500852Y-20719266D01*
X49500849Y-20719263D01*
X49350226Y-20640210D01*
X49185056Y-20599500D01*
X49014944Y-20599500D01*
X48849773Y-20640210D01*
X48699150Y-20719263D01*
X48571818Y-20832070D01*
X48571817Y-20832071D01*
X48502048Y-20933146D01*
X48447767Y-20977136D01*
X48378318Y-20984795D01*
X48315753Y-20953691D01*
X48297952Y-20933148D01*
X48228183Y-20832071D01*
X48100852Y-20719266D01*
X48100849Y-20719263D01*
X47950226Y-20640210D01*
X47785056Y-20599500D01*
X47614944Y-20599500D01*
X47449773Y-20640210D01*
X47299150Y-20719263D01*
X47171818Y-20832070D01*
X47171817Y-20832071D01*
X47102048Y-20933146D01*
X47047767Y-20977136D01*
X46978318Y-20984795D01*
X46915753Y-20953691D01*
X46897952Y-20933148D01*
X46828183Y-20832071D01*
X46700852Y-20719266D01*
X46700849Y-20719263D01*
X46550226Y-20640210D01*
X46385056Y-20599500D01*
X46214944Y-20599500D01*
X46049773Y-20640210D01*
X45899150Y-20719263D01*
X45771816Y-20832072D01*
X45675182Y-20972068D01*
X45614860Y-21131125D01*
X45614859Y-21131130D01*
X45594355Y-21300000D01*
X45614859Y-21468869D01*
X45614860Y-21468874D01*
X45675182Y-21627931D01*
X45702049Y-21666854D01*
X45771817Y-21767929D01*
X45872566Y-21857185D01*
X45909693Y-21916374D01*
X45908925Y-21986239D01*
X45872566Y-22042814D01*
X45771818Y-22132070D01*
X45771816Y-22132072D01*
X45675182Y-22272068D01*
X45614860Y-22431125D01*
X45614859Y-22431130D01*
X45594355Y-22600000D01*
X38800448Y-22600000D01*
X38779943Y-22431128D01*
X38719621Y-22272070D01*
X38622986Y-22132071D01*
X38495655Y-22019266D01*
X38495652Y-22019263D01*
X38345029Y-21940210D01*
X38179859Y-21899500D01*
X38009747Y-21899500D01*
X37844576Y-21940210D01*
X37693953Y-22019263D01*
X37566619Y-22132072D01*
X37469985Y-22272068D01*
X37409663Y-22431125D01*
X37409662Y-22431130D01*
X37389158Y-22600000D01*
X37409662Y-22768869D01*
X37409663Y-22768874D01*
X37469985Y-22927931D01*
X37532278Y-23018177D01*
X37566620Y-23067929D01*
X37667369Y-23157185D01*
X37704496Y-23216374D01*
X37703728Y-23286239D01*
X37667369Y-23342814D01*
X37566620Y-23432071D01*
X37566619Y-23432072D01*
X37469985Y-23572068D01*
X37409663Y-23731125D01*
X37409662Y-23731130D01*
X37389158Y-23900000D01*
X37409662Y-24068869D01*
X37409663Y-24068874D01*
X37469985Y-24227931D01*
X37498335Y-24269002D01*
X37566620Y-24367929D01*
X37693951Y-24480734D01*
X37706997Y-24487581D01*
X37711994Y-24490204D01*
X37762206Y-24538789D01*
X37778180Y-24606808D01*
X37754844Y-24672666D01*
X37711994Y-24709796D01*
X37693952Y-24719265D01*
X37566619Y-24832072D01*
X37469986Y-24972067D01*
X37460745Y-24996435D01*
X37418566Y-25052137D01*
X37352969Y-25076194D01*
X37284778Y-25060967D01*
X37235646Y-25011290D01*
X37228861Y-24996435D01*
X37219621Y-24972070D01*
X37217411Y-24968869D01*
X37187438Y-24925445D01*
X37122986Y-24832071D01*
X36995655Y-24719266D01*
X36995652Y-24719263D01*
X36845029Y-24640210D01*
X36679859Y-24599500D01*
X36509747Y-24599500D01*
X36344576Y-24640210D01*
X36193953Y-24719263D01*
X36066619Y-24832072D01*
X35969985Y-24972068D01*
X35909663Y-25131125D01*
X35909662Y-25131130D01*
X35889158Y-25300000D01*
X35909662Y-25468869D01*
X35909663Y-25468874D01*
X35969985Y-25627931D01*
X36032278Y-25718177D01*
X36066620Y-25767929D01*
X36167369Y-25857185D01*
X36204496Y-25916374D01*
X36203728Y-25986239D01*
X36167369Y-26042814D01*
X36137955Y-26068874D01*
X36066619Y-26132072D01*
X35969985Y-26272068D01*
X35909663Y-26431125D01*
X35909662Y-26431130D01*
X35889158Y-26600000D01*
X24669874Y-26600000D01*
X24622986Y-26532071D01*
X24509047Y-26431130D01*
X24495652Y-26419263D01*
X24345029Y-26340210D01*
X24179859Y-26299500D01*
X24009747Y-26299500D01*
X23844576Y-26340210D01*
X23693953Y-26419263D01*
X23566619Y-26532072D01*
X23469985Y-26672068D01*
X23409663Y-26831125D01*
X23409662Y-26831130D01*
X23389158Y-27000000D01*
X16336250Y-27000000D01*
X15919804Y-26583553D01*
X15919803Y-26583553D01*
X15302794Y-27200559D01*
X14130425Y-27200559D01*
X14119621Y-27172070D01*
X14117411Y-27168869D01*
X14085279Y-27122318D01*
X14022986Y-27032071D01*
X13928119Y-26948026D01*
X13895652Y-26919263D01*
X13745029Y-26840210D01*
X13579859Y-26799500D01*
X13409747Y-26799500D01*
X13244576Y-26840210D01*
X13093953Y-26919263D01*
X12966619Y-27032072D01*
X12869985Y-27172068D01*
X12809663Y-27331125D01*
X12809662Y-27331130D01*
X12789158Y-27500000D01*
X3409986Y-27500000D01*
X3355051Y-27392184D01*
X3355049Y-27392181D01*
X3355048Y-27392179D01*
X3230109Y-27220213D01*
X3210455Y-27200559D01*
X10452794Y-27200559D01*
X10555007Y-27263847D01*
X10555011Y-27263849D01*
X10753739Y-27340836D01*
X10753744Y-27340837D01*
X10963242Y-27380000D01*
X11176364Y-27380000D01*
X11385861Y-27340837D01*
X11385866Y-27340836D01*
X11584594Y-27263849D01*
X11584601Y-27263846D01*
X11686809Y-27200560D01*
X11686809Y-27200559D01*
X11069804Y-26583553D01*
X11069803Y-26583553D01*
X10452794Y-27200559D01*
X3210455Y-27200559D01*
X3079786Y-27069890D01*
X2907820Y-26944951D01*
X2718414Y-26848444D01*
X2718413Y-26848443D01*
X2718412Y-26848443D01*
X2516243Y-26782754D01*
X2516241Y-26782753D01*
X2516240Y-26782753D01*
X2354957Y-26757208D01*
X2306287Y-26749500D01*
X2093713Y-26749500D01*
X2045042Y-26757208D01*
X1883760Y-26782753D01*
X1883757Y-26782754D01*
X1706927Y-26840210D01*
X1681585Y-26848444D01*
X1492179Y-26944951D01*
X1320213Y-27069890D01*
X1169890Y-27220213D01*
X1044951Y-27392179D01*
X948444Y-27581585D01*
X882753Y-27783760D01*
X875757Y-27827931D01*
X849500Y-27993713D01*
X849500Y-28206287D01*
X0Y-28206287D01*
X0Y-25900000D01*
X8389158Y-25900000D01*
X8409662Y-26068869D01*
X8409663Y-26068874D01*
X8469985Y-26227931D01*
X8527525Y-26311290D01*
X8566620Y-26367929D01*
X8653508Y-26444905D01*
X8693953Y-26480736D01*
X8791764Y-26532071D01*
X8844578Y-26559790D01*
X9009747Y-26600500D01*
X9179859Y-26600500D01*
X9345028Y-26559790D01*
X9439761Y-26510070D01*
X9495652Y-26480736D01*
X9495653Y-26480734D01*
X9495655Y-26480734D01*
X9622986Y-26367929D01*
X9697589Y-26259847D01*
X9751871Y-26215859D01*
X9821319Y-26208199D01*
X9883884Y-26239302D01*
X9919702Y-26299293D01*
X9923109Y-26318848D01*
X9934540Y-26442216D01*
X9934541Y-26442219D01*
X9992861Y-26647196D01*
X9992867Y-26647211D01*
X10087864Y-26837991D01*
X10087867Y-26837996D01*
X10096639Y-26849610D01*
X10719803Y-26226446D01*
X10719803Y-26276078D01*
X10743655Y-26365095D01*
X10789733Y-26444905D01*
X10854898Y-26510070D01*
X10934708Y-26556148D01*
X11023725Y-26580000D01*
X11115881Y-26580000D01*
X11204898Y-26556148D01*
X11284708Y-26510070D01*
X11349873Y-26444905D01*
X11395951Y-26365095D01*
X11419803Y-26276078D01*
X11419803Y-26230000D01*
X11423356Y-26230000D01*
X12042965Y-26849609D01*
X12042966Y-26849609D01*
X12051743Y-26837988D01*
X12051745Y-26837985D01*
X12146736Y-26647216D01*
X12146744Y-26647196D01*
X12205064Y-26442219D01*
X12205065Y-26442216D01*
X12224730Y-26230000D01*
X14764876Y-26230000D01*
X14784540Y-26442216D01*
X14784541Y-26442219D01*
X14842861Y-26647196D01*
X14842867Y-26647211D01*
X14937864Y-26837991D01*
X14937867Y-26837996D01*
X14946639Y-26849610D01*
X15520172Y-26276078D01*
X15569803Y-26276078D01*
X15593655Y-26365095D01*
X15639733Y-26444905D01*
X15704898Y-26510070D01*
X15784708Y-26556148D01*
X15873725Y-26580000D01*
X15965881Y-26580000D01*
X16054898Y-26556148D01*
X16134708Y-26510070D01*
X16199873Y-26444905D01*
X16245951Y-26365095D01*
X16269803Y-26276078D01*
X16269803Y-26230000D01*
X16273356Y-26230000D01*
X16892965Y-26849609D01*
X16892966Y-26849609D01*
X16901743Y-26837988D01*
X16901745Y-26837985D01*
X16996736Y-26647216D01*
X16996744Y-26647196D01*
X17055064Y-26442219D01*
X17055065Y-26442216D01*
X17074730Y-26230000D01*
X17074730Y-26229999D01*
X17055065Y-26017783D01*
X17055064Y-26017780D01*
X16996744Y-25812803D01*
X16996736Y-25812783D01*
X16901745Y-25622014D01*
X16901740Y-25622006D01*
X16892966Y-25610389D01*
X16273356Y-26229999D01*
X16273356Y-26230000D01*
X16269803Y-26230000D01*
X16269803Y-26183922D01*
X16245951Y-26094905D01*
X16199873Y-26015095D01*
X16134708Y-25949930D01*
X16054898Y-25903852D01*
X15965881Y-25880000D01*
X15873725Y-25880000D01*
X15784708Y-25903852D01*
X15704898Y-25949930D01*
X15639733Y-26015095D01*
X15593655Y-26094905D01*
X15569803Y-26183922D01*
X15569803Y-26276078D01*
X15520172Y-26276078D01*
X15566250Y-26230000D01*
X15566250Y-26229999D01*
X14946639Y-25610388D01*
X14937862Y-25622010D01*
X14842869Y-25812783D01*
X14842861Y-25812803D01*
X14784541Y-26017780D01*
X14784540Y-26017783D01*
X14764876Y-26229999D01*
X14764876Y-26230000D01*
X12224730Y-26230000D01*
X12224730Y-26229999D01*
X12205065Y-26017783D01*
X12205064Y-26017780D01*
X12146744Y-25812803D01*
X12146736Y-25812783D01*
X12051745Y-25622014D01*
X12051740Y-25622006D01*
X12042966Y-25610389D01*
X12042965Y-25610389D01*
X11423356Y-26229999D01*
X11423356Y-26230000D01*
X11419803Y-26230000D01*
X11419803Y-26183922D01*
X11395951Y-26094905D01*
X11349873Y-26015095D01*
X11284708Y-25949930D01*
X11204898Y-25903852D01*
X11115881Y-25880000D01*
X11066250Y-25880000D01*
X11069803Y-25876447D01*
X11410778Y-25535471D01*
X11472101Y-25501986D01*
X11477607Y-25501054D01*
X11479855Y-25500500D01*
X11479859Y-25500500D01*
X11645028Y-25459790D01*
X11758425Y-25400274D01*
X11795652Y-25380736D01*
X11795653Y-25380734D01*
X11795655Y-25380734D01*
X11922986Y-25267929D01*
X11928846Y-25259439D01*
X15302794Y-25259439D01*
X15919803Y-25876447D01*
X15919804Y-25876447D01*
X16536810Y-25259439D01*
X16434596Y-25196151D01*
X16434592Y-25196149D01*
X16235866Y-25119163D01*
X16235861Y-25119162D01*
X16026364Y-25080000D01*
X15813242Y-25080000D01*
X15603744Y-25119162D01*
X15603739Y-25119163D01*
X15405013Y-25196149D01*
X15405004Y-25196154D01*
X15302795Y-25259438D01*
X15302794Y-25259439D01*
X11928846Y-25259439D01*
X12019621Y-25127930D01*
X12049176Y-25050000D01*
X17805643Y-25050000D01*
X17846455Y-25184541D01*
X17939306Y-25358253D01*
X17939310Y-25358260D01*
X18064274Y-25510528D01*
X18216542Y-25635491D01*
X18390268Y-25728349D01*
X18524803Y-25769159D01*
X18524803Y-25050000D01*
X17805643Y-25050000D01*
X12049176Y-25050000D01*
X12079943Y-24968872D01*
X12095253Y-24842787D01*
X18449803Y-24842787D01*
X18471952Y-24925445D01*
X18514739Y-24999554D01*
X18575249Y-25060064D01*
X18649358Y-25102851D01*
X18732016Y-25125000D01*
X18817590Y-25125000D01*
X18900248Y-25102851D01*
X18974357Y-25060064D01*
X19024803Y-25009618D01*
X19024803Y-25769159D01*
X19159337Y-25728349D01*
X19333063Y-25635491D01*
X19485323Y-25510534D01*
X19487042Y-25508816D01*
X19488165Y-25508202D01*
X19490040Y-25506664D01*
X19490331Y-25507019D01*
X19548363Y-25475326D01*
X19618055Y-25480305D01*
X19640703Y-25491496D01*
X19692123Y-25523805D01*
X19695281Y-25525789D01*
X19865548Y-25585368D01*
X19865553Y-25585369D01*
X20044799Y-25605565D01*
X20044803Y-25605565D01*
X20044807Y-25605565D01*
X20224052Y-25585369D01*
X20224055Y-25585368D01*
X20224058Y-25585368D01*
X20394325Y-25525789D01*
X20547065Y-25429816D01*
X20592122Y-25384759D01*
X20653445Y-25351274D01*
X20723137Y-25356258D01*
X20767484Y-25384759D01*
X20812541Y-25429816D01*
X20880894Y-25472765D01*
X20960003Y-25522473D01*
X20965281Y-25525789D01*
X21135548Y-25585368D01*
X21135553Y-25585369D01*
X21314799Y-25605565D01*
X21314803Y-25605565D01*
X21314807Y-25605565D01*
X21494052Y-25585369D01*
X21494055Y-25585368D01*
X21494058Y-25585368D01*
X21664325Y-25525789D01*
X21669603Y-25522473D01*
X21716497Y-25493007D01*
X21783734Y-25474006D01*
X21850569Y-25494373D01*
X21870151Y-25510319D01*
X21912038Y-25552206D01*
X22014812Y-25597585D01*
X22039938Y-25600500D01*
X23129667Y-25600499D01*
X23129682Y-25600497D01*
X23129685Y-25600497D01*
X23154790Y-25597586D01*
X23154791Y-25597585D01*
X23154794Y-25597585D01*
X23257568Y-25552206D01*
X23337009Y-25472765D01*
X23382388Y-25369991D01*
X23385303Y-25344865D01*
X23385302Y-24255136D01*
X23385300Y-24255117D01*
X23382389Y-24230012D01*
X23382388Y-24230010D01*
X23382388Y-24230009D01*
X23337009Y-24127235D01*
X23257568Y-24047794D01*
X23257566Y-24047793D01*
X23154795Y-24002415D01*
X23129668Y-23999500D01*
X22039946Y-23999500D01*
X22039920Y-23999502D01*
X22014815Y-24002413D01*
X22014811Y-24002415D01*
X21912038Y-24047793D01*
X21912036Y-24047794D01*
X21870150Y-24089681D01*
X21808827Y-24123165D01*
X21739135Y-24118180D01*
X21716499Y-24106993D01*
X21664324Y-24074209D01*
X21494065Y-24014633D01*
X21494052Y-24014630D01*
X21314807Y-23994435D01*
X21314799Y-23994435D01*
X21135553Y-24014630D01*
X21135548Y-24014631D01*
X20965279Y-24074211D01*
X20812540Y-24170184D01*
X20767483Y-24215241D01*
X20706160Y-24248725D01*
X20636468Y-24243740D01*
X20592123Y-24215241D01*
X20547066Y-24170185D01*
X20547065Y-24170184D01*
X20394326Y-24074211D01*
X20224057Y-24014631D01*
X20224052Y-24014630D01*
X20044807Y-23994435D01*
X20044799Y-23994435D01*
X19865553Y-24014630D01*
X19865540Y-24014633D01*
X19695285Y-24074208D01*
X19640702Y-24108505D01*
X19573465Y-24127504D01*
X19506630Y-24107135D01*
X19487042Y-24091184D01*
X19485323Y-24089465D01*
X19333063Y-23964507D01*
X19333056Y-23964503D01*
X19159344Y-23871652D01*
X19024803Y-23830839D01*
X19024803Y-24590382D01*
X18974357Y-24539936D01*
X18900248Y-24497149D01*
X18817590Y-24475000D01*
X18732016Y-24475000D01*
X18649358Y-24497149D01*
X18575249Y-24539936D01*
X18514739Y-24600446D01*
X18471952Y-24674555D01*
X18449803Y-24757213D01*
X18449803Y-24842787D01*
X12095253Y-24842787D01*
X12100448Y-24800000D01*
X12079943Y-24631128D01*
X12068327Y-24600500D01*
X12026498Y-24490203D01*
X12019621Y-24472070D01*
X11922986Y-24332071D01*
X11922985Y-24332070D01*
X11918725Y-24325898D01*
X11919801Y-24325154D01*
X11893404Y-24269002D01*
X11902582Y-24199738D01*
X11918955Y-24174261D01*
X11918725Y-24174102D01*
X11922986Y-24167929D01*
X12019621Y-24027930D01*
X12068138Y-23900000D01*
X13189158Y-23900000D01*
X13209662Y-24068869D01*
X13209663Y-24068874D01*
X13269985Y-24227931D01*
X13298335Y-24269002D01*
X13366620Y-24367929D01*
X13459799Y-24450478D01*
X13493953Y-24480736D01*
X13625923Y-24549999D01*
X13644578Y-24559790D01*
X13809747Y-24600500D01*
X13979859Y-24600500D01*
X14145028Y-24559790D01*
X14163683Y-24549999D01*
X17805642Y-24549999D01*
X17805643Y-24550000D01*
X18524803Y-24550000D01*
X18524803Y-23830839D01*
X18524802Y-23830839D01*
X18390261Y-23871652D01*
X18216549Y-23964503D01*
X18216542Y-23964507D01*
X18064274Y-24089471D01*
X17939310Y-24241739D01*
X17939306Y-24241746D01*
X17846455Y-24415458D01*
X17805642Y-24549999D01*
X14163683Y-24549999D01*
X14224495Y-24518081D01*
X14295652Y-24480736D01*
X14295653Y-24480734D01*
X14295655Y-24480734D01*
X14422986Y-24367929D01*
X14519621Y-24227930D01*
X14579943Y-24068872D01*
X14600448Y-23900000D01*
X14588306Y-23800000D01*
X23589158Y-23800000D01*
X23609662Y-23968869D01*
X23609663Y-23968874D01*
X23669985Y-24127931D01*
X23719551Y-24199738D01*
X23766620Y-24267929D01*
X23832054Y-24325898D01*
X23893953Y-24380736D01*
X24044576Y-24459789D01*
X24044578Y-24459790D01*
X24209747Y-24500500D01*
X24379859Y-24500500D01*
X24545028Y-24459790D01*
X24629495Y-24415458D01*
X24695652Y-24380736D01*
X24695653Y-24380734D01*
X24695655Y-24380734D01*
X24822986Y-24267929D01*
X24919621Y-24127930D01*
X24979943Y-23968872D01*
X25000448Y-23800000D01*
X24979943Y-23631128D01*
X24919621Y-23472070D01*
X24892011Y-23432071D01*
X24885279Y-23422318D01*
X24822986Y-23332071D01*
X24710109Y-23232071D01*
X24695652Y-23219263D01*
X24545029Y-23140210D01*
X24379859Y-23099500D01*
X24209747Y-23099500D01*
X24044576Y-23140210D01*
X23893953Y-23219263D01*
X23766619Y-23332072D01*
X23669985Y-23472068D01*
X23609663Y-23631125D01*
X23609662Y-23631130D01*
X23589158Y-23800000D01*
X14588306Y-23800000D01*
X14579943Y-23731128D01*
X14519621Y-23572070D01*
X14422986Y-23432071D01*
X14295655Y-23319266D01*
X14295652Y-23319263D01*
X14145029Y-23240210D01*
X13979859Y-23199500D01*
X13809747Y-23199500D01*
X13644576Y-23240210D01*
X13493953Y-23319263D01*
X13366619Y-23432072D01*
X13269985Y-23572068D01*
X13209663Y-23731125D01*
X13209662Y-23731130D01*
X13189158Y-23900000D01*
X12068138Y-23900000D01*
X12079943Y-23868872D01*
X12100448Y-23700000D01*
X12079943Y-23531128D01*
X12019621Y-23372070D01*
X11992011Y-23332071D01*
X11970219Y-23300500D01*
X11922986Y-23232071D01*
X11795655Y-23119266D01*
X11795652Y-23119263D01*
X11645029Y-23040210D01*
X11479859Y-22999500D01*
X11309747Y-22999500D01*
X11144576Y-23040210D01*
X10993953Y-23119263D01*
X10927030Y-23178553D01*
X10863797Y-23208274D01*
X10794533Y-23199090D01*
X10762576Y-23178553D01*
X10695652Y-23119263D01*
X10545029Y-23040210D01*
X10379859Y-22999500D01*
X10209747Y-22999500D01*
X10044576Y-23040210D01*
X9893953Y-23119263D01*
X9824565Y-23180736D01*
X9781078Y-23219263D01*
X9777030Y-23222849D01*
X9713797Y-23252570D01*
X9644533Y-23243386D01*
X9612576Y-23222849D01*
X9608528Y-23219263D01*
X9495655Y-23119266D01*
X9495652Y-23119263D01*
X9345029Y-23040210D01*
X9179859Y-22999500D01*
X9009747Y-22999500D01*
X8844576Y-23040210D01*
X8693953Y-23119263D01*
X8566619Y-23232072D01*
X8469985Y-23372068D01*
X8409663Y-23531125D01*
X8409662Y-23531130D01*
X8389158Y-23700000D01*
X8409662Y-23868869D01*
X8409663Y-23868874D01*
X8469985Y-24027931D01*
X8570881Y-24174102D01*
X8569805Y-24174844D01*
X8596203Y-24231010D01*
X8587017Y-24300274D01*
X8570651Y-24325739D01*
X8570881Y-24325898D01*
X8469985Y-24472068D01*
X8409663Y-24631125D01*
X8409662Y-24631130D01*
X8389158Y-24800000D01*
X8409662Y-24968869D01*
X8409663Y-24968874D01*
X8469985Y-25127931D01*
X8570881Y-25274102D01*
X8569805Y-25274844D01*
X8596203Y-25331010D01*
X8587017Y-25400274D01*
X8570651Y-25425739D01*
X8570881Y-25425898D01*
X8469985Y-25572068D01*
X8409663Y-25731125D01*
X8409662Y-25731130D01*
X8389158Y-25900000D01*
X0Y-25900000D01*
X0Y-19400000D01*
X32094355Y-19400000D01*
X32114859Y-19568869D01*
X32114860Y-19568874D01*
X32175182Y-19727931D01*
X32237475Y-19818177D01*
X32271817Y-19867929D01*
X32377505Y-19961560D01*
X32399150Y-19980736D01*
X32549773Y-20059789D01*
X32549775Y-20059790D01*
X32714944Y-20100500D01*
X32885056Y-20100500D01*
X33050225Y-20059790D01*
X33129692Y-20018081D01*
X33200849Y-19980736D01*
X33200850Y-19980734D01*
X33200852Y-19980734D01*
X33328183Y-19867929D01*
X33424818Y-19727930D01*
X33485140Y-19568872D01*
X33505645Y-19400000D01*
X33485140Y-19231128D01*
X33424818Y-19072070D01*
X33328183Y-18932071D01*
X33200852Y-18819266D01*
X33200850Y-18819265D01*
X33200849Y-18819264D01*
X33087543Y-18759796D01*
X33037331Y-18711212D01*
X33021356Y-18643193D01*
X33044691Y-18577335D01*
X33087543Y-18540204D01*
X33117699Y-18524376D01*
X33200852Y-18480734D01*
X33328183Y-18367929D01*
X33424818Y-18227930D01*
X33485140Y-18068872D01*
X33505645Y-17900000D01*
X33485140Y-17731128D01*
X33424818Y-17572070D01*
X33328183Y-17432071D01*
X33200852Y-17319266D01*
X33200849Y-17319263D01*
X33050226Y-17240210D01*
X32885056Y-17199500D01*
X32714944Y-17199500D01*
X32549773Y-17240210D01*
X32399150Y-17319263D01*
X32271816Y-17432072D01*
X32175182Y-17572068D01*
X32114860Y-17731125D01*
X32114859Y-17731130D01*
X32094355Y-17900000D01*
X32114859Y-18068869D01*
X32114860Y-18068874D01*
X32175182Y-18227931D01*
X32237475Y-18318177D01*
X32271817Y-18367929D01*
X32377505Y-18461560D01*
X32399150Y-18480736D01*
X32512456Y-18540204D01*
X32562669Y-18588789D01*
X32578643Y-18656808D01*
X32555308Y-18722665D01*
X32512456Y-18759796D01*
X32399150Y-18819263D01*
X32271816Y-18932072D01*
X32175182Y-19072068D01*
X32114860Y-19231125D01*
X32114859Y-19231130D01*
X32094355Y-19400000D01*
X0Y-19400000D01*
X0Y-18400000D01*
X6789158Y-18400000D01*
X6809662Y-18568869D01*
X6809663Y-18568874D01*
X6869985Y-18727931D01*
X6932278Y-18818177D01*
X6966620Y-18867929D01*
X7039022Y-18932071D01*
X7093953Y-18980736D01*
X7244576Y-19059789D01*
X7244578Y-19059790D01*
X7409747Y-19100500D01*
X7579859Y-19100500D01*
X7745028Y-19059790D01*
X7824495Y-19018081D01*
X7895652Y-18980736D01*
X7895653Y-18980734D01*
X7895655Y-18980734D01*
X8022986Y-18867929D01*
X8119621Y-18727930D01*
X8179943Y-18568872D01*
X8200448Y-18400000D01*
X8179943Y-18231128D01*
X8119621Y-18072070D01*
X8117411Y-18068869D01*
X8085279Y-18022318D01*
X8022986Y-17932071D01*
X7895655Y-17819266D01*
X7895652Y-17819263D01*
X7745029Y-17740210D01*
X7579859Y-17699500D01*
X7409747Y-17699500D01*
X7244576Y-17740210D01*
X7093953Y-17819263D01*
X6966619Y-17932072D01*
X6869985Y-18072068D01*
X6809663Y-18231125D01*
X6809662Y-18231130D01*
X6789158Y-18400000D01*
X0Y-18400000D01*
X0Y-16340003D01*
X7989238Y-16340003D01*
X8009433Y-16519249D01*
X8009434Y-16519254D01*
X8069014Y-16689523D01*
X8125393Y-16779249D01*
X8164987Y-16842262D01*
X8292541Y-16969816D01*
X8445281Y-17065789D01*
X8549515Y-17102262D01*
X8615548Y-17125368D01*
X8615553Y-17125369D01*
X8794799Y-17145565D01*
X8794803Y-17145565D01*
X8794807Y-17145565D01*
X8974052Y-17125369D01*
X8974055Y-17125368D01*
X8974058Y-17125368D01*
X9144325Y-17065789D01*
X9297065Y-16969816D01*
X9424619Y-16842262D01*
X9520592Y-16689522D01*
X9580171Y-16519255D01*
X9580172Y-16519249D01*
X9582341Y-16500000D01*
X30589158Y-16500000D01*
X30609662Y-16668869D01*
X30609663Y-16668874D01*
X30669985Y-16827931D01*
X30732278Y-16918177D01*
X30766620Y-16967929D01*
X30872308Y-17061560D01*
X30893953Y-17080736D01*
X31044576Y-17159789D01*
X31044578Y-17159790D01*
X31209747Y-17200500D01*
X31379859Y-17200500D01*
X31545028Y-17159790D01*
X31624495Y-17118081D01*
X31695652Y-17080736D01*
X31695653Y-17080734D01*
X31695655Y-17080734D01*
X31822986Y-16967929D01*
X31919621Y-16827930D01*
X31979943Y-16668872D01*
X31988305Y-16600003D01*
X34799238Y-16600003D01*
X34819433Y-16779249D01*
X34819434Y-16779254D01*
X34879014Y-16949523D01*
X34952069Y-17065788D01*
X34974987Y-17102262D01*
X35102541Y-17229816D01*
X35119083Y-17240210D01*
X35244899Y-17319266D01*
X35255281Y-17325789D01*
X35425548Y-17385368D01*
X35425553Y-17385369D01*
X35604799Y-17405565D01*
X35604803Y-17405565D01*
X35604807Y-17405565D01*
X35784052Y-17385369D01*
X35784055Y-17385368D01*
X35784058Y-17385368D01*
X35954325Y-17325789D01*
X35964707Y-17319266D01*
X36006497Y-17293007D01*
X36073734Y-17274006D01*
X36140569Y-17294373D01*
X36160151Y-17310319D01*
X36202038Y-17352206D01*
X36304812Y-17397585D01*
X36329938Y-17400500D01*
X37419667Y-17400499D01*
X37419682Y-17400497D01*
X37419685Y-17400497D01*
X37444790Y-17397586D01*
X37444791Y-17397585D01*
X37444794Y-17397585D01*
X37547568Y-17352206D01*
X37627009Y-17272765D01*
X37672388Y-17169991D01*
X37675303Y-17144865D01*
X37675302Y-16055136D01*
X37675300Y-16055117D01*
X37672389Y-16030012D01*
X37672388Y-16030010D01*
X37672388Y-16030009D01*
X37627009Y-15927235D01*
X37547568Y-15847794D01*
X37524791Y-15837737D01*
X37444795Y-15802415D01*
X37419668Y-15799500D01*
X36329946Y-15799500D01*
X36329920Y-15799502D01*
X36304815Y-15802413D01*
X36304811Y-15802415D01*
X36202038Y-15847793D01*
X36202036Y-15847794D01*
X36160150Y-15889681D01*
X36098827Y-15923165D01*
X36029135Y-15918180D01*
X36006499Y-15906993D01*
X35954324Y-15874209D01*
X35784065Y-15814633D01*
X35784052Y-15814630D01*
X35604807Y-15794435D01*
X35604799Y-15794435D01*
X35425553Y-15814630D01*
X35425548Y-15814631D01*
X35255279Y-15874211D01*
X35102540Y-15970184D01*
X34974987Y-16097737D01*
X34879014Y-16250476D01*
X34819434Y-16420745D01*
X34819433Y-16420750D01*
X34799238Y-16599996D01*
X34799238Y-16600003D01*
X31988305Y-16600003D01*
X32000448Y-16500000D01*
X31979943Y-16331128D01*
X31919621Y-16172070D01*
X31911807Y-16160750D01*
X31868312Y-16097737D01*
X31822986Y-16032071D01*
X31695655Y-15919266D01*
X31695652Y-15919263D01*
X31545029Y-15840210D01*
X31379859Y-15799500D01*
X31209747Y-15799500D01*
X31044576Y-15840210D01*
X30893953Y-15919263D01*
X30766619Y-16032072D01*
X30669985Y-16172068D01*
X30609663Y-16331125D01*
X30609662Y-16331130D01*
X30589158Y-16500000D01*
X9582341Y-16500000D01*
X9600368Y-16340003D01*
X9600368Y-16339996D01*
X9580172Y-16160750D01*
X9580171Y-16160745D01*
X9558124Y-16097738D01*
X9520592Y-15990478D01*
X9507840Y-15970184D01*
X9457257Y-15889681D01*
X9424619Y-15837738D01*
X9379561Y-15792680D01*
X9346077Y-15731358D01*
X9351061Y-15661666D01*
X9379562Y-15617319D01*
X9424619Y-15572262D01*
X9520592Y-15419522D01*
X9580171Y-15249255D01*
X9585721Y-15200000D01*
X10219158Y-15200000D01*
X10239662Y-15368869D01*
X10239663Y-15368874D01*
X10299985Y-15527931D01*
X10330585Y-15572262D01*
X10396620Y-15667929D01*
X10468217Y-15731358D01*
X10523953Y-15780736D01*
X10674576Y-15859789D01*
X10674578Y-15859790D01*
X10839747Y-15900500D01*
X11009859Y-15900500D01*
X11175028Y-15859790D01*
X11261067Y-15814633D01*
X11325652Y-15780736D01*
X11325653Y-15780734D01*
X11325655Y-15780734D01*
X11452986Y-15667929D01*
X11549621Y-15527930D01*
X11609943Y-15368872D01*
X11630448Y-15200000D01*
X11609943Y-15031128D01*
X11549621Y-14872070D01*
X11499874Y-14800000D01*
X30589158Y-14800000D01*
X30609662Y-14968869D01*
X30609663Y-14968874D01*
X30669985Y-15127931D01*
X30719732Y-15200000D01*
X30766620Y-15267929D01*
X30872308Y-15361560D01*
X30893953Y-15380736D01*
X30983874Y-15427930D01*
X31044578Y-15459790D01*
X31209747Y-15500500D01*
X31379859Y-15500500D01*
X31545028Y-15459790D01*
X31624495Y-15418081D01*
X31695652Y-15380736D01*
X31695653Y-15380734D01*
X31695655Y-15380734D01*
X31822986Y-15267929D01*
X31919621Y-15127930D01*
X31979943Y-14968872D01*
X32000448Y-14800000D01*
X31979943Y-14631128D01*
X31975444Y-14619266D01*
X31930024Y-14499500D01*
X31919621Y-14472070D01*
X31915689Y-14466374D01*
X31874833Y-14407184D01*
X31822986Y-14332071D01*
X31705435Y-14227930D01*
X31695652Y-14219263D01*
X31545029Y-14140210D01*
X31379859Y-14099500D01*
X31209747Y-14099500D01*
X31044576Y-14140210D01*
X30893953Y-14219263D01*
X30766619Y-14332072D01*
X30669985Y-14472068D01*
X30609663Y-14631125D01*
X30609662Y-14631130D01*
X30589158Y-14800000D01*
X11499874Y-14800000D01*
X11452986Y-14732071D01*
X11339047Y-14631130D01*
X11325652Y-14619263D01*
X11175029Y-14540210D01*
X11009859Y-14499500D01*
X10839747Y-14499500D01*
X10674576Y-14540210D01*
X10523953Y-14619263D01*
X10396619Y-14732072D01*
X10299985Y-14872068D01*
X10239663Y-15031125D01*
X10239662Y-15031130D01*
X10219158Y-15200000D01*
X9585721Y-15200000D01*
X9600368Y-15070000D01*
X9595988Y-15031130D01*
X9580172Y-14890750D01*
X9580169Y-14890737D01*
X9520593Y-14720481D01*
X9520592Y-14720477D01*
X9487809Y-14668304D01*
X9468809Y-14601068D01*
X9489177Y-14534232D01*
X9505118Y-14514655D01*
X9547009Y-14472765D01*
X9592388Y-14369991D01*
X9595303Y-14344865D01*
X9595302Y-13650000D01*
X34575643Y-13650000D01*
X34616455Y-13784541D01*
X34709306Y-13958253D01*
X34709310Y-13958260D01*
X34834274Y-14110528D01*
X34986542Y-14235491D01*
X35160268Y-14328349D01*
X35294803Y-14369159D01*
X35294803Y-13650000D01*
X34575643Y-13650000D01*
X9595302Y-13650000D01*
X9595302Y-13255136D01*
X9595300Y-13255117D01*
X9592389Y-13230012D01*
X9592388Y-13230010D01*
X9592388Y-13230009D01*
X9547009Y-13127235D01*
X9467568Y-13047794D01*
X9394334Y-13015458D01*
X9364795Y-13002415D01*
X9339668Y-12999500D01*
X8249946Y-12999500D01*
X8249920Y-12999502D01*
X8224815Y-13002413D01*
X8224811Y-13002415D01*
X8122038Y-13047793D01*
X8042597Y-13127234D01*
X7997218Y-13230006D01*
X7997218Y-13230008D01*
X7994303Y-13255131D01*
X7994303Y-14344856D01*
X7994305Y-14344882D01*
X7997216Y-14369987D01*
X7997218Y-14369991D01*
X8042596Y-14472764D01*
X8084483Y-14514651D01*
X8117968Y-14575974D01*
X8112984Y-14645666D01*
X8101797Y-14668302D01*
X8069012Y-14720480D01*
X8009436Y-14890737D01*
X8009433Y-14890750D01*
X7989238Y-15069996D01*
X7989238Y-15070003D01*
X8009433Y-15249249D01*
X8009434Y-15249254D01*
X8069014Y-15419523D01*
X8164987Y-15572262D01*
X8164988Y-15572263D01*
X8210044Y-15617320D01*
X8243528Y-15678643D01*
X8238543Y-15748335D01*
X8210044Y-15792680D01*
X8164987Y-15837737D01*
X8069014Y-15990476D01*
X8009434Y-16160745D01*
X8009433Y-16160750D01*
X7989238Y-16339996D01*
X7989238Y-16340003D01*
X0Y-16340003D01*
X0Y-12800000D01*
X10089158Y-12800000D01*
X10109662Y-12968869D01*
X10109663Y-12968874D01*
X10169985Y-13127931D01*
X10229230Y-13213761D01*
X10266620Y-13267929D01*
X10367401Y-13357213D01*
X10393953Y-13380736D01*
X10544576Y-13459789D01*
X10544578Y-13459790D01*
X10709747Y-13500500D01*
X10879859Y-13500500D01*
X11045028Y-13459790D01*
X11077423Y-13442787D01*
X35219803Y-13442787D01*
X35241952Y-13525445D01*
X35284739Y-13599554D01*
X35345249Y-13660064D01*
X35419358Y-13702851D01*
X35502016Y-13725000D01*
X35587590Y-13725000D01*
X35670248Y-13702851D01*
X35744357Y-13660064D01*
X35794803Y-13609618D01*
X35794803Y-14369159D01*
X35929337Y-14328349D01*
X36103057Y-14235495D01*
X36123711Y-14218545D01*
X36188021Y-14191232D01*
X36234945Y-14198318D01*
X36235811Y-14195136D01*
X36244807Y-14197583D01*
X36244812Y-14197585D01*
X36269938Y-14200500D01*
X37359667Y-14200499D01*
X37359682Y-14200497D01*
X37359685Y-14200497D01*
X37384790Y-14197586D01*
X37384791Y-14197585D01*
X37384794Y-14197585D01*
X37487568Y-14152206D01*
X37567009Y-14072765D01*
X37612388Y-13969991D01*
X37615303Y-13944865D01*
X37615303Y-13900000D01*
X47694355Y-13900000D01*
X47714859Y-14068869D01*
X47714860Y-14068874D01*
X47775182Y-14227931D01*
X47802049Y-14266854D01*
X47871817Y-14367929D01*
X47977505Y-14461560D01*
X47999150Y-14480736D01*
X48135325Y-14552206D01*
X48149775Y-14559790D01*
X48314944Y-14600500D01*
X48485056Y-14600500D01*
X48650225Y-14559790D01*
X48765097Y-14499500D01*
X48800849Y-14480736D01*
X48800850Y-14480734D01*
X48800852Y-14480734D01*
X48928183Y-14367929D01*
X48997951Y-14266853D01*
X49052233Y-14222864D01*
X49121681Y-14215204D01*
X49184246Y-14246307D01*
X49202047Y-14266851D01*
X49271817Y-14367929D01*
X49271818Y-14367930D01*
X49316127Y-14407185D01*
X49353254Y-14466374D01*
X49352486Y-14536240D01*
X49316127Y-14592815D01*
X49271818Y-14632069D01*
X49175182Y-14772068D01*
X49114860Y-14931125D01*
X49114859Y-14931130D01*
X49094355Y-15100000D01*
X49114859Y-15268869D01*
X49114860Y-15268874D01*
X49175182Y-15427931D01*
X49225274Y-15500500D01*
X49271817Y-15567929D01*
X49377505Y-15661560D01*
X49399150Y-15680736D01*
X49549773Y-15759789D01*
X49549775Y-15759790D01*
X49714944Y-15800500D01*
X49885056Y-15800500D01*
X50050225Y-15759790D01*
X50144740Y-15710184D01*
X50200849Y-15680736D01*
X50200850Y-15680734D01*
X50200852Y-15680734D01*
X50328183Y-15567929D01*
X50424818Y-15427930D01*
X50485140Y-15268872D01*
X50505645Y-15100000D01*
X50485140Y-14931128D01*
X50424818Y-14772070D01*
X50397210Y-14732072D01*
X50328182Y-14632069D01*
X50283873Y-14592816D01*
X50246746Y-14533627D01*
X50247513Y-14463761D01*
X50283873Y-14407184D01*
X50328182Y-14367930D01*
X50328184Y-14367928D01*
X50424818Y-14227930D01*
X50485140Y-14068872D01*
X50505645Y-13900000D01*
X50485140Y-13731128D01*
X50424818Y-13572070D01*
X50328183Y-13432071D01*
X50227431Y-13342812D01*
X50190307Y-13283627D01*
X50191074Y-13213761D01*
X50227430Y-13157187D01*
X50328183Y-13067929D01*
X50424818Y-12927930D01*
X50485140Y-12768872D01*
X50505645Y-12600000D01*
X50485140Y-12431128D01*
X50485030Y-12430839D01*
X50424817Y-12272068D01*
X50388368Y-12219263D01*
X50328183Y-12132071D01*
X50233316Y-12048026D01*
X50200849Y-12019263D01*
X50050226Y-11940210D01*
X49885056Y-11899500D01*
X49714944Y-11899500D01*
X49549773Y-11940210D01*
X49399150Y-12019263D01*
X49308582Y-12099500D01*
X49271817Y-12132071D01*
X49202048Y-12233146D01*
X49147767Y-12277136D01*
X49078318Y-12284795D01*
X49015753Y-12253691D01*
X48997952Y-12233148D01*
X48928183Y-12132071D01*
X48839710Y-12053691D01*
X48800849Y-12019263D01*
X48650226Y-11940210D01*
X48485056Y-11899500D01*
X48314944Y-11899500D01*
X48149773Y-11940210D01*
X47999150Y-12019263D01*
X47871816Y-12132072D01*
X47775182Y-12272068D01*
X47714860Y-12431125D01*
X47714859Y-12431130D01*
X47694355Y-12600000D01*
X47714859Y-12768869D01*
X47714860Y-12768874D01*
X47775182Y-12927931D01*
X47824584Y-12999501D01*
X47871817Y-13067929D01*
X47972566Y-13157185D01*
X48009693Y-13216374D01*
X48008925Y-13286239D01*
X47972566Y-13342814D01*
X47871818Y-13432070D01*
X47871816Y-13432072D01*
X47775182Y-13572068D01*
X47714860Y-13731125D01*
X47714859Y-13731130D01*
X47694355Y-13900000D01*
X37615303Y-13900000D01*
X37615302Y-12855136D01*
X37615300Y-12855117D01*
X37612389Y-12830012D01*
X37612388Y-12830010D01*
X37612388Y-12830009D01*
X37567009Y-12727235D01*
X37487568Y-12647794D01*
X37449823Y-12631128D01*
X37384795Y-12602415D01*
X37359668Y-12599500D01*
X36269946Y-12599500D01*
X36269922Y-12599502D01*
X36244813Y-12602414D01*
X36235808Y-12604864D01*
X36234853Y-12601355D01*
X36183082Y-12608091D01*
X36123711Y-12581454D01*
X36103057Y-12564504D01*
X36103056Y-12564503D01*
X35929344Y-12471652D01*
X35794803Y-12430839D01*
X35794803Y-13190382D01*
X35744357Y-13139936D01*
X35670248Y-13097149D01*
X35587590Y-13075000D01*
X35502016Y-13075000D01*
X35419358Y-13097149D01*
X35345249Y-13139936D01*
X35284739Y-13200446D01*
X35241952Y-13274555D01*
X35219803Y-13357213D01*
X35219803Y-13442787D01*
X11077423Y-13442787D01*
X11124495Y-13418081D01*
X11195652Y-13380736D01*
X11195653Y-13380734D01*
X11195655Y-13380734D01*
X11322986Y-13267929D01*
X11404388Y-13149999D01*
X34575642Y-13149999D01*
X34575643Y-13150000D01*
X35294803Y-13150000D01*
X35294803Y-12430839D01*
X35294802Y-12430839D01*
X35160261Y-12471652D01*
X34986549Y-12564503D01*
X34986542Y-12564507D01*
X34834274Y-12689471D01*
X34709310Y-12841739D01*
X34709306Y-12841746D01*
X34616455Y-13015458D01*
X34575642Y-13149999D01*
X11404388Y-13149999D01*
X11419621Y-13127930D01*
X11479943Y-12968872D01*
X11500448Y-12800000D01*
X11479943Y-12631128D01*
X11419621Y-12472070D01*
X11419332Y-12471652D01*
X11369874Y-12400000D01*
X40589158Y-12400000D01*
X40609662Y-12568869D01*
X40609663Y-12568874D01*
X40669985Y-12727931D01*
X40719732Y-12800000D01*
X40766620Y-12867929D01*
X40834349Y-12927931D01*
X40893953Y-12980736D01*
X41044576Y-13059789D01*
X41044578Y-13059790D01*
X41209747Y-13100500D01*
X41379859Y-13100500D01*
X41545028Y-13059790D01*
X41659900Y-12999500D01*
X41695652Y-12980736D01*
X41695653Y-12980734D01*
X41695655Y-12980734D01*
X41822986Y-12867929D01*
X41892754Y-12766853D01*
X41947036Y-12722864D01*
X42016484Y-12715204D01*
X42079049Y-12746307D01*
X42096850Y-12766851D01*
X42098247Y-12768874D01*
X42166619Y-12867928D01*
X42293953Y-12980736D01*
X42444576Y-13059789D01*
X42444578Y-13059790D01*
X42609747Y-13100500D01*
X42779859Y-13100500D01*
X42945028Y-13059790D01*
X43059900Y-12999500D01*
X43095652Y-12980736D01*
X43095653Y-12980734D01*
X43095655Y-12980734D01*
X43222986Y-12867929D01*
X43319621Y-12727930D01*
X43379943Y-12568872D01*
X43400448Y-12400000D01*
X43379943Y-12231128D01*
X43375444Y-12219266D01*
X43319620Y-12072068D01*
X43283171Y-12019263D01*
X43222986Y-11932071D01*
X43122234Y-11842812D01*
X43085110Y-11783627D01*
X43085877Y-11713761D01*
X43122233Y-11657187D01*
X43222986Y-11567929D01*
X43319621Y-11427930D01*
X43379943Y-11268872D01*
X43400448Y-11100000D01*
X43379943Y-10931128D01*
X43319621Y-10772070D01*
X43222986Y-10632071D01*
X43095655Y-10519266D01*
X43095652Y-10519263D01*
X42945029Y-10440210D01*
X42779859Y-10399500D01*
X42609747Y-10399500D01*
X42444576Y-10440210D01*
X42293953Y-10519263D01*
X42166619Y-10632072D01*
X42069985Y-10772068D01*
X42009663Y-10931125D01*
X42009662Y-10931130D01*
X41989158Y-11100000D01*
X42009662Y-11268869D01*
X42009663Y-11268874D01*
X42069985Y-11427931D01*
X42132278Y-11518177D01*
X42166620Y-11567929D01*
X42267369Y-11657185D01*
X42304496Y-11716374D01*
X42303728Y-11786239D01*
X42267369Y-11842814D01*
X42166620Y-11932071D01*
X42096851Y-12033146D01*
X42042570Y-12077136D01*
X41973121Y-12084795D01*
X41910556Y-12053691D01*
X41892755Y-12033148D01*
X41822986Y-11932071D01*
X41695655Y-11819266D01*
X41695652Y-11819263D01*
X41545029Y-11740210D01*
X41379859Y-11699500D01*
X41209747Y-11699500D01*
X41044576Y-11740210D01*
X40893953Y-11819263D01*
X40766619Y-11932072D01*
X40669985Y-12072068D01*
X40609663Y-12231125D01*
X40609662Y-12231130D01*
X40589158Y-12400000D01*
X11369874Y-12400000D01*
X11322986Y-12332071D01*
X11228119Y-12248026D01*
X11195652Y-12219263D01*
X11045029Y-12140210D01*
X10879859Y-12099500D01*
X10709747Y-12099500D01*
X10544576Y-12140210D01*
X10393953Y-12219263D01*
X10266619Y-12332072D01*
X10169985Y-12472068D01*
X10109663Y-12631125D01*
X10109662Y-12631130D01*
X10089158Y-12800000D01*
X0Y-12800000D01*
X0Y-8200000D01*
X8819158Y-8200000D01*
X8839662Y-8368869D01*
X8839663Y-8368874D01*
X8899985Y-8527931D01*
X8956489Y-8609789D01*
X8996620Y-8667929D01*
X9102308Y-8761560D01*
X9123953Y-8780736D01*
X9274576Y-8859789D01*
X9274578Y-8859790D01*
X9439747Y-8900500D01*
X9609859Y-8900500D01*
X9775028Y-8859790D01*
X9854495Y-8818081D01*
X9925652Y-8780736D01*
X9925653Y-8780734D01*
X9925655Y-8780734D01*
X10052986Y-8667929D01*
X10149621Y-8527930D01*
X10209943Y-8368872D01*
X10230448Y-8200000D01*
X10209943Y-8031128D01*
X10179176Y-7950000D01*
X11989158Y-7950000D01*
X12009662Y-8118869D01*
X12009663Y-8118874D01*
X12069985Y-8277931D01*
X12132278Y-8368177D01*
X12166620Y-8417929D01*
X12272308Y-8511560D01*
X12293953Y-8530736D01*
X12444576Y-8609789D01*
X12444578Y-8609790D01*
X12609747Y-8650500D01*
X12779859Y-8650500D01*
X12945028Y-8609790D01*
X13024495Y-8568081D01*
X13095652Y-8530736D01*
X13095653Y-8530734D01*
X13095655Y-8530734D01*
X13222986Y-8417929D01*
X13319621Y-8277930D01*
X13379943Y-8118872D01*
X13400448Y-7950000D01*
X13379943Y-7781128D01*
X13319621Y-7622070D01*
X13317683Y-7619263D01*
X13285279Y-7572318D01*
X13222986Y-7482071D01*
X13095655Y-7369266D01*
X13095653Y-7369265D01*
X13095652Y-7369264D01*
X12982346Y-7309796D01*
X12932134Y-7261212D01*
X12917758Y-7200000D01*
X19819158Y-7200000D01*
X19839662Y-7368869D01*
X19839663Y-7368874D01*
X19899985Y-7527931D01*
X19908461Y-7540210D01*
X19996620Y-7667929D01*
X20069022Y-7732071D01*
X20123953Y-7780736D01*
X20274576Y-7859789D01*
X20274578Y-7859790D01*
X20439747Y-7900500D01*
X20609859Y-7900500D01*
X20775028Y-7859790D01*
X20854495Y-7818081D01*
X20925652Y-7780736D01*
X20925653Y-7780734D01*
X20925655Y-7780734D01*
X21052986Y-7667929D01*
X21149621Y-7527930D01*
X21209943Y-7368872D01*
X21230448Y-7200000D01*
X21209943Y-7031128D01*
X21149621Y-6872070D01*
X21052986Y-6732071D01*
X20925655Y-6619266D01*
X20925652Y-6619263D01*
X20775029Y-6540210D01*
X20609859Y-6499500D01*
X20439747Y-6499500D01*
X20274576Y-6540210D01*
X20123953Y-6619263D01*
X19996619Y-6732072D01*
X19899985Y-6872068D01*
X19839663Y-7031125D01*
X19839662Y-7031130D01*
X19819158Y-7200000D01*
X12917758Y-7200000D01*
X12916159Y-7193193D01*
X12939494Y-7127335D01*
X12982346Y-7090204D01*
X13012502Y-7074376D01*
X13095655Y-7030734D01*
X13222986Y-6917929D01*
X13267753Y-6853072D01*
X13322036Y-6809083D01*
X13391485Y-6801423D01*
X13454049Y-6832527D01*
X13471852Y-6853072D01*
X13516620Y-6917929D01*
X13622308Y-7011560D01*
X13643953Y-7030736D01*
X13757260Y-7090204D01*
X13794578Y-7109790D01*
X13959747Y-7150500D01*
X14129859Y-7150500D01*
X14295028Y-7109790D01*
X14374495Y-7068081D01*
X14445652Y-7030736D01*
X14445653Y-7030734D01*
X14445655Y-7030734D01*
X14572986Y-6917929D01*
X14669621Y-6777930D01*
X14729943Y-6618872D01*
X14750448Y-6450000D01*
X14729943Y-6281128D01*
X14669621Y-6122070D01*
X14648117Y-6090917D01*
X14617753Y-6046927D01*
X14585362Y-6000000D01*
X30219158Y-6000000D01*
X30239662Y-6168869D01*
X30239663Y-6168874D01*
X30299985Y-6327931D01*
X30362278Y-6418177D01*
X30396620Y-6467929D01*
X30478209Y-6540210D01*
X30523953Y-6580736D01*
X30674576Y-6659789D01*
X30674578Y-6659790D01*
X30839747Y-6700500D01*
X31009859Y-6700500D01*
X31175028Y-6659790D01*
X31254495Y-6618081D01*
X31325652Y-6580736D01*
X31325653Y-6580734D01*
X31325655Y-6580734D01*
X31452986Y-6467929D01*
X31549621Y-6327930D01*
X31609943Y-6168872D01*
X31630448Y-6000000D01*
X31609943Y-5831128D01*
X31549621Y-5672070D01*
X31452986Y-5532071D01*
X31325655Y-5419266D01*
X31325652Y-5419263D01*
X31175029Y-5340210D01*
X31009859Y-5299500D01*
X30839747Y-5299500D01*
X30674576Y-5340210D01*
X30523953Y-5419263D01*
X30396619Y-5532072D01*
X30299985Y-5672068D01*
X30239663Y-5831125D01*
X30239662Y-5831130D01*
X30219158Y-6000000D01*
X14585362Y-6000000D01*
X14572986Y-5982071D01*
X14445655Y-5869266D01*
X14445652Y-5869263D01*
X14295029Y-5790210D01*
X14241706Y-5777067D01*
X14214641Y-5770396D01*
X14154262Y-5735241D01*
X14122473Y-5673022D01*
X14129369Y-5603493D01*
X14172760Y-5548730D01*
X14214641Y-5529603D01*
X14295028Y-5509790D01*
X14374495Y-5468081D01*
X14445652Y-5430736D01*
X14445653Y-5430734D01*
X14445655Y-5430734D01*
X14572986Y-5317929D01*
X14669621Y-5177930D01*
X14729943Y-5018872D01*
X14750448Y-4850000D01*
X14729943Y-4681128D01*
X14669621Y-4522070D01*
X14648117Y-4490917D01*
X14617753Y-4446927D01*
X14572986Y-4382071D01*
X14445655Y-4269266D01*
X14445652Y-4269263D01*
X14295029Y-4190210D01*
X14129859Y-4149500D01*
X13959747Y-4149500D01*
X13794576Y-4190210D01*
X13643953Y-4269263D01*
X13516618Y-4382072D01*
X13471852Y-4446927D01*
X13417569Y-4490917D01*
X13348121Y-4498576D01*
X13285556Y-4467472D01*
X13267754Y-4446927D01*
X13222987Y-4382072D01*
X13095652Y-4269263D01*
X12945029Y-4190210D01*
X12779859Y-4149500D01*
X12609747Y-4149500D01*
X12444576Y-4190210D01*
X12293953Y-4269263D01*
X12166619Y-4382072D01*
X12069985Y-4522068D01*
X12009663Y-4681125D01*
X12009662Y-4681130D01*
X11989158Y-4850000D01*
X12009662Y-5018869D01*
X12009663Y-5018874D01*
X12069985Y-5177931D01*
X12107671Y-5232527D01*
X12166620Y-5317929D01*
X12272308Y-5411560D01*
X12293953Y-5430736D01*
X12444576Y-5509789D01*
X12444578Y-5509790D01*
X12509437Y-5525776D01*
X12524963Y-5529603D01*
X12585344Y-5564759D01*
X12617132Y-5626979D01*
X12610236Y-5696507D01*
X12566845Y-5751270D01*
X12524963Y-5770397D01*
X12444576Y-5790210D01*
X12293953Y-5869263D01*
X12166619Y-5982072D01*
X12069985Y-6122068D01*
X12009663Y-6281125D01*
X12009662Y-6281130D01*
X11989158Y-6450000D01*
X12009662Y-6618869D01*
X12009663Y-6618874D01*
X12069985Y-6777931D01*
X12107671Y-6832527D01*
X12166620Y-6917929D01*
X12272308Y-7011560D01*
X12293953Y-7030736D01*
X12407259Y-7090204D01*
X12457472Y-7138789D01*
X12473446Y-7206808D01*
X12450111Y-7272665D01*
X12407259Y-7309796D01*
X12293953Y-7369263D01*
X12166619Y-7482072D01*
X12069985Y-7622068D01*
X12009663Y-7781125D01*
X12009662Y-7781130D01*
X11989158Y-7950000D01*
X10179176Y-7950000D01*
X10149621Y-7872070D01*
X10052986Y-7732071D01*
X9925655Y-7619266D01*
X9925652Y-7619263D01*
X9775029Y-7540210D01*
X9609859Y-7499500D01*
X9439747Y-7499500D01*
X9274576Y-7540210D01*
X9123953Y-7619263D01*
X8996619Y-7732072D01*
X8899985Y-7872068D01*
X8839663Y-8031125D01*
X8839662Y-8031130D01*
X8819158Y-8200000D01*
X0Y-8200000D01*
X0Y-3106286D01*
X849500Y-3106286D01*
X880165Y-3299901D01*
X882754Y-3316243D01*
X944737Y-3507007D01*
X948444Y-3518414D01*
X1044951Y-3707820D01*
X1169890Y-3879786D01*
X1320213Y-4030109D01*
X1492179Y-4155048D01*
X1492181Y-4155049D01*
X1492184Y-4155051D01*
X1681588Y-4251557D01*
X1883757Y-4317246D01*
X2093713Y-4350500D01*
X2093714Y-4350500D01*
X2306286Y-4350500D01*
X2306287Y-4350500D01*
X2516243Y-4317246D01*
X2718412Y-4251557D01*
X2907816Y-4155051D01*
X2976623Y-4105060D01*
X3079786Y-4030109D01*
X3079788Y-4030106D01*
X3079792Y-4030104D01*
X3159896Y-3950000D01*
X37289364Y-3950000D01*
X37346567Y-4163486D01*
X37346570Y-4163492D01*
X37446399Y-4377578D01*
X37581894Y-4571082D01*
X37748917Y-4738105D01*
X37942421Y-4873600D01*
X38156507Y-4973429D01*
X38156516Y-4973433D01*
X38370000Y-5030634D01*
X38370000Y-4133012D01*
X38427007Y-4165925D01*
X38554174Y-4200000D01*
X38685826Y-4200000D01*
X38812993Y-4165925D01*
X38870000Y-4133012D01*
X38870000Y-5030633D01*
X39083483Y-4973433D01*
X39083492Y-4973429D01*
X39297578Y-4873600D01*
X39491082Y-4738105D01*
X39658105Y-4571082D01*
X39793600Y-4377578D01*
X39887294Y-4176651D01*
X39933466Y-4124212D01*
X40000660Y-4105060D01*
X40067541Y-4125276D01*
X40110676Y-4173785D01*
X40177632Y-4308253D01*
X40282355Y-4446927D01*
X40306128Y-4478407D01*
X40463698Y-4622052D01*
X40644981Y-4734298D01*
X40843802Y-4811321D01*
X41053390Y-4850500D01*
X41053392Y-4850500D01*
X41266608Y-4850500D01*
X41266610Y-4850500D01*
X41476198Y-4811321D01*
X41675019Y-4734298D01*
X41856302Y-4622052D01*
X42013872Y-4478407D01*
X42142366Y-4308255D01*
X42201145Y-4190210D01*
X42237403Y-4117394D01*
X42237403Y-4117393D01*
X42237405Y-4117389D01*
X42295756Y-3912310D01*
X42302029Y-3844605D01*
X42327814Y-3779669D01*
X42384614Y-3738981D01*
X42454395Y-3735461D01*
X42515002Y-3770225D01*
X42547193Y-3832238D01*
X42549500Y-3856047D01*
X42549500Y-4594856D01*
X42549502Y-4594882D01*
X42552413Y-4619987D01*
X42552415Y-4619991D01*
X42597793Y-4722764D01*
X42597794Y-4722765D01*
X42677235Y-4802206D01*
X42780009Y-4847585D01*
X42805135Y-4850500D01*
X44594864Y-4850499D01*
X44594879Y-4850497D01*
X44594882Y-4850497D01*
X44619987Y-4847586D01*
X44619988Y-4847585D01*
X44619991Y-4847585D01*
X44722765Y-4802206D01*
X44802206Y-4722765D01*
X44847585Y-4619991D01*
X44850500Y-4594865D01*
X44850499Y-3106286D01*
X48549500Y-3106286D01*
X48580165Y-3299901D01*
X48582754Y-3316243D01*
X48644737Y-3507007D01*
X48648444Y-3518414D01*
X48744951Y-3707820D01*
X48869890Y-3879786D01*
X49020213Y-4030109D01*
X49192179Y-4155048D01*
X49192181Y-4155049D01*
X49192184Y-4155051D01*
X49381588Y-4251557D01*
X49583757Y-4317246D01*
X49793713Y-4350500D01*
X49793714Y-4350500D01*
X50006286Y-4350500D01*
X50006287Y-4350500D01*
X50216243Y-4317246D01*
X50418412Y-4251557D01*
X50607816Y-4155051D01*
X50676623Y-4105060D01*
X50779786Y-4030109D01*
X50779788Y-4030106D01*
X50779792Y-4030104D01*
X50930104Y-3879792D01*
X50930106Y-3879788D01*
X50930109Y-3879786D01*
X51055048Y-3707820D01*
X51055047Y-3707820D01*
X51055051Y-3707816D01*
X51151557Y-3518412D01*
X51217246Y-3316243D01*
X51250500Y-3106287D01*
X51250500Y-2893713D01*
X51217246Y-2683757D01*
X51151557Y-2481588D01*
X51055051Y-2292184D01*
X51055049Y-2292181D01*
X51055048Y-2292179D01*
X50930109Y-2120213D01*
X50779786Y-1969890D01*
X50607820Y-1844951D01*
X50418414Y-1748444D01*
X50418413Y-1748443D01*
X50418412Y-1748443D01*
X50216243Y-1682754D01*
X50216241Y-1682753D01*
X50216240Y-1682753D01*
X50054957Y-1657208D01*
X50006287Y-1649500D01*
X49793713Y-1649500D01*
X49745042Y-1657208D01*
X49583760Y-1682753D01*
X49381585Y-1748444D01*
X49192179Y-1844951D01*
X49020213Y-1969890D01*
X48869890Y-2120213D01*
X48744951Y-2292179D01*
X48648444Y-2481585D01*
X48582753Y-2683760D01*
X48549500Y-2893713D01*
X48549500Y-3106286D01*
X44850499Y-3106286D01*
X44850499Y-2805136D01*
X44850497Y-2805117D01*
X44847586Y-2780012D01*
X44847585Y-2780010D01*
X44847585Y-2780009D01*
X44802206Y-2677235D01*
X44722765Y-2597794D01*
X44702124Y-2588680D01*
X44619992Y-2552415D01*
X44594865Y-2549500D01*
X42805143Y-2549500D01*
X42805117Y-2549502D01*
X42780012Y-2552413D01*
X42780008Y-2552415D01*
X42677235Y-2597793D01*
X42597794Y-2677234D01*
X42552415Y-2780006D01*
X42552415Y-2780008D01*
X42549500Y-2805131D01*
X42549500Y-3543951D01*
X42529815Y-3610990D01*
X42477011Y-3656745D01*
X42407853Y-3666689D01*
X42344297Y-3637664D01*
X42306523Y-3578886D01*
X42302029Y-3555391D01*
X42295756Y-3487689D01*
X42246974Y-3316243D01*
X42237405Y-3282611D01*
X42237403Y-3282606D01*
X42237403Y-3282605D01*
X42142367Y-3091746D01*
X42013872Y-2921593D01*
X41983289Y-2893713D01*
X41856302Y-2777948D01*
X41675019Y-2665702D01*
X41675017Y-2665701D01*
X41575608Y-2627190D01*
X41476198Y-2588679D01*
X41266610Y-2549500D01*
X41053390Y-2549500D01*
X40843802Y-2588679D01*
X40843799Y-2588679D01*
X40843799Y-2588680D01*
X40644982Y-2665701D01*
X40644980Y-2665702D01*
X40463699Y-2777947D01*
X40306127Y-2921593D01*
X40177634Y-3091744D01*
X40110676Y-3226215D01*
X40063173Y-3277452D01*
X39995510Y-3294873D01*
X39929170Y-3272947D01*
X39887294Y-3223348D01*
X39793600Y-3022422D01*
X39793599Y-3022420D01*
X39658113Y-2828926D01*
X39658108Y-2828920D01*
X39491082Y-2661894D01*
X39297578Y-2526399D01*
X39083492Y-2426570D01*
X39083486Y-2426567D01*
X38870000Y-2369364D01*
X38870000Y-3266988D01*
X38812993Y-3234075D01*
X38685826Y-3200000D01*
X38554174Y-3200000D01*
X38427007Y-3234075D01*
X38370000Y-3266988D01*
X38370000Y-2369364D01*
X38369999Y-2369364D01*
X38156513Y-2426567D01*
X38156507Y-2426570D01*
X37942422Y-2526399D01*
X37942420Y-2526400D01*
X37748926Y-2661886D01*
X37748920Y-2661891D01*
X37581891Y-2828920D01*
X37581886Y-2828926D01*
X37446400Y-3022420D01*
X37446399Y-3022422D01*
X37346570Y-3236507D01*
X37346567Y-3236513D01*
X37289364Y-3449999D01*
X37289364Y-3450000D01*
X38186988Y-3450000D01*
X38154075Y-3507007D01*
X38120000Y-3634174D01*
X38120000Y-3765826D01*
X38154075Y-3892993D01*
X38186988Y-3950000D01*
X37289364Y-3950000D01*
X3159896Y-3950000D01*
X3230104Y-3879792D01*
X3230106Y-3879788D01*
X3230109Y-3879786D01*
X3355048Y-3707820D01*
X3355047Y-3707820D01*
X3355051Y-3707816D01*
X3451557Y-3518412D01*
X3517246Y-3316243D01*
X3550500Y-3106287D01*
X3550500Y-2893713D01*
X3517246Y-2683757D01*
X3451557Y-2481588D01*
X3355051Y-2292184D01*
X3355049Y-2292181D01*
X3355048Y-2292179D01*
X3230109Y-2120213D01*
X3079786Y-1969890D01*
X2907820Y-1844951D01*
X2718414Y-1748444D01*
X2718413Y-1748443D01*
X2718412Y-1748443D01*
X2516243Y-1682754D01*
X2516241Y-1682753D01*
X2516240Y-1682753D01*
X2354957Y-1657208D01*
X2306287Y-1649500D01*
X2093713Y-1649500D01*
X2045042Y-1657208D01*
X1883760Y-1682753D01*
X1681585Y-1748444D01*
X1492179Y-1844951D01*
X1320213Y-1969890D01*
X1169890Y-2120213D01*
X1044951Y-2292179D01*
X948444Y-2481585D01*
X882753Y-2683760D01*
X849500Y-2893713D01*
X849500Y-3106286D01*
X0Y-3106286D01*
X0Y-124000D01*
X19685Y-56961D01*
X72489Y-11206D01*
X124000Y0D01*
X52076000Y0D01*
X52143039Y-19685D01*
G37*
G04 #@! TD.AperFunction*
M02*
