M48
; DRILL file {KiCad (7.0.0)} date Fri Feb 23 23:29:47 2024
; FORMAT={-:-/ absolute / metric / decimal}
; #@! TF.CreationDate,2024-02-23T23:29:47+02:00
; #@! TF.GenerationSoftware,Kicad,Pcbnew,(7.0.0)
; #@! TF.FileFunction,Plated,1,4,PTH
FMAT,2
METRIC
; #@! TA.AperFunction,Plated,PTH,ViaDrill
T1C0.400
; #@! TA.AperFunction,Plated,PTH,ComponentDrill
T2C0.650
; #@! TA.AperFunction,Plated,PTH,ComponentDrill
T3C0.700
%
G90
G05
T1
X9.67Y-18.4
X11.27Y-23.7
X11.27Y-24.8
X11.27Y-25.9
X11.7Y-8.2
X12.47Y-23.7
X12.47Y-24.8
X12.97Y-12.8
X13.1Y-15.2
X13.57Y-23.7
X13.57Y-24.8
X14.87Y-4.85
X14.87Y-6.45
X14.87Y-7.95
X15.67Y-27.5
X16.07Y-23.9
X16.22Y-4.85
X16.22Y-6.45
X18.77Y-9.0
X18.97Y-16.7
X18.97Y-18.0
X18.97Y-19.3
X18.97Y-20.6
X20.07Y-9.0
X21.37Y-9.0
X22.67Y-9.0
X22.7Y-7.2
X23.97Y-9.0
X25.27Y-9.0
X26.27Y-27.0
X26.37Y-20.8
X26.47Y-23.8
X26.67Y-9.0
X27.67Y-20.8
X27.97Y-9.0
X28.97Y-20.8
X29.27Y-9.0
X30.27Y-20.8
X31.57Y-20.8
X32.87Y-20.8
X33.47Y-14.8
X33.47Y-16.5
X35.2Y-6.9
X36.97Y-21.4
X37.07Y-15.0
X38.37Y-15.0
X38.77Y-25.3
X38.77Y-26.6
X39.67Y-15.0
X40.27Y-22.6
X40.27Y-23.9
X40.27Y-25.3
X40.27Y-26.6
X40.67Y-12.6
X41.97Y-12.6
X43.47Y-12.4
X44.87Y-11.1
X44.87Y-12.4
T2
X10.97Y-13.8
X10.97Y-15.07
X10.97Y-16.34
X20.95Y-24.8
X22.22Y-24.8
X23.49Y-24.8
X24.76Y-24.8
X28.97Y-29.3
X37.72Y-13.4
X37.78Y-16.6
X38.99Y-13.4
X39.05Y-16.6
T3
X13.245Y-26.23
X18.095Y-26.23
T3
X12.045Y-28.7G85X12.045Y-29.1
G05
X19.295Y-28.7G85X19.295Y-29.1
G05
T0
M30
