G04 #@! TF.GenerationSoftware,KiCad,Pcbnew,8.0.1*
G04 #@! TF.CreationDate,2024-04-13T18:18:23+03:00*
G04 #@! TF.ProjectId,mains-detector,6d61696e-732d-4646-9574-6563746f722e,rev?*
G04 #@! TF.SameCoordinates,Original*
G04 #@! TF.FileFunction,Legend,Bot*
G04 #@! TF.FilePolarity,Positive*
%FSLAX46Y46*%
G04 Gerber Fmt 4.6, Leading zero omitted, Abs format (unit mm)*
G04 Created by KiCad (PCBNEW 8.0.1) date 2024-04-13 18:18:23*
%MOMM*%
%LPD*%
G01*
G04 APERTURE LIST*
G04 Aperture macros list*
%AMRoundRect*
0 Rectangle with rounded corners*
0 $1 Rounding radius*
0 $2 $3 $4 $5 $6 $7 $8 $9 X,Y pos of 4 corners*
0 Add a 4 corners polygon primitive as box body*
4,1,4,$2,$3,$4,$5,$6,$7,$8,$9,$2,$3,0*
0 Add four circle primitives for the rounded corners*
1,1,$1+$1,$2,$3*
1,1,$1+$1,$4,$5*
1,1,$1+$1,$6,$7*
1,1,$1+$1,$8,$9*
0 Add four rect primitives between the rounded corners*
20,1,$1+$1,$2,$3,$4,$5,0*
20,1,$1+$1,$4,$5,$6,$7,0*
20,1,$1+$1,$6,$7,$8,$9,0*
20,1,$1+$1,$8,$9,$2,$3,0*%
G04 Aperture macros list end*
%ADD10C,0.150000*%
%ADD11C,0.120000*%
%ADD12C,2.200000*%
%ADD13R,1.700000X1.700000*%
%ADD14O,1.700000X1.700000*%
%ADD15R,1.000000X1.000000*%
%ADD16O,1.000000X1.000000*%
%ADD17C,1.300000*%
%ADD18O,1.300000X1.800000*%
%ADD19RoundRect,0.237500X-0.250000X-0.237500X0.250000X-0.237500X0.250000X0.237500X-0.250000X0.237500X0*%
G04 APERTURE END LIST*
D10*
X29637660Y-13954819D02*
X29970993Y-13478628D01*
X30209088Y-13954819D02*
X30209088Y-12954819D01*
X30209088Y-12954819D02*
X29828136Y-12954819D01*
X29828136Y-12954819D02*
X29732898Y-13002438D01*
X29732898Y-13002438D02*
X29685279Y-13050057D01*
X29685279Y-13050057D02*
X29637660Y-13145295D01*
X29637660Y-13145295D02*
X29637660Y-13288152D01*
X29637660Y-13288152D02*
X29685279Y-13383390D01*
X29685279Y-13383390D02*
X29732898Y-13431009D01*
X29732898Y-13431009D02*
X29828136Y-13478628D01*
X29828136Y-13478628D02*
X30209088Y-13478628D01*
X28685279Y-13954819D02*
X29256707Y-13954819D01*
X28970993Y-13954819D02*
X28970993Y-12954819D01*
X28970993Y-12954819D02*
X29066231Y-13097676D01*
X29066231Y-13097676D02*
X29161469Y-13192914D01*
X29161469Y-13192914D02*
X29256707Y-13240533D01*
X27828136Y-13288152D02*
X27828136Y-13954819D01*
X28066231Y-12907200D02*
X28304326Y-13621485D01*
X28304326Y-13621485D02*
X27685279Y-13621485D01*
X29737660Y-18384819D02*
X30070993Y-17908628D01*
X30309088Y-18384819D02*
X30309088Y-17384819D01*
X30309088Y-17384819D02*
X29928136Y-17384819D01*
X29928136Y-17384819D02*
X29832898Y-17432438D01*
X29832898Y-17432438D02*
X29785279Y-17480057D01*
X29785279Y-17480057D02*
X29737660Y-17575295D01*
X29737660Y-17575295D02*
X29737660Y-17718152D01*
X29737660Y-17718152D02*
X29785279Y-17813390D01*
X29785279Y-17813390D02*
X29832898Y-17861009D01*
X29832898Y-17861009D02*
X29928136Y-17908628D01*
X29928136Y-17908628D02*
X30309088Y-17908628D01*
X28785279Y-18384819D02*
X29356707Y-18384819D01*
X29070993Y-18384819D02*
X29070993Y-17384819D01*
X29070993Y-17384819D02*
X29166231Y-17527676D01*
X29166231Y-17527676D02*
X29261469Y-17622914D01*
X29261469Y-17622914D02*
X29356707Y-17670533D01*
X27880517Y-17384819D02*
X28356707Y-17384819D01*
X28356707Y-17384819D02*
X28404326Y-17861009D01*
X28404326Y-17861009D02*
X28356707Y-17813390D01*
X28356707Y-17813390D02*
X28261469Y-17765771D01*
X28261469Y-17765771D02*
X28023374Y-17765771D01*
X28023374Y-17765771D02*
X27928136Y-17813390D01*
X27928136Y-17813390D02*
X27880517Y-17861009D01*
X27880517Y-17861009D02*
X27832898Y-17956247D01*
X27832898Y-17956247D02*
X27832898Y-18194342D01*
X27832898Y-18194342D02*
X27880517Y-18289580D01*
X27880517Y-18289580D02*
X27928136Y-18337200D01*
X27928136Y-18337200D02*
X28023374Y-18384819D01*
X28023374Y-18384819D02*
X28261469Y-18384819D01*
X28261469Y-18384819D02*
X28356707Y-18337200D01*
X28356707Y-18337200D02*
X28404326Y-18289580D01*
D11*
X28840079Y-14277500D02*
X29349527Y-14277500D01*
X28840079Y-15322500D02*
X29349527Y-15322500D01*
X28840079Y-15977500D02*
X29349527Y-15977500D01*
X28840079Y-17022500D02*
X29349527Y-17022500D01*
%LPC*%
D12*
X49900000Y-28100000D03*
D13*
X43700000Y-3700000D03*
D14*
X41160000Y-3700000D03*
X38620000Y-3700000D03*
D15*
X22584803Y-24800000D03*
D16*
X21314803Y-24800000D03*
X20044803Y-24800000D03*
X18774803Y-24800000D03*
D15*
X26794803Y-29300000D03*
X8794803Y-13800000D03*
D16*
X8794803Y-15070000D03*
X8794803Y-16340000D03*
D15*
X36874803Y-16600000D03*
D16*
X35604803Y-16600000D03*
D12*
X2200000Y-28100000D03*
D15*
X36814803Y-13400000D03*
D16*
X35544803Y-13400000D03*
D12*
X49900000Y-3000000D03*
D17*
X15919803Y-26230000D03*
D18*
X17119803Y-28900000D03*
X9869803Y-28900000D03*
D17*
X11069803Y-26230000D03*
D12*
X2200000Y-3000000D03*
D19*
X28182303Y-14800000D03*
X30007303Y-14800000D03*
X28182303Y-16500000D03*
X30007303Y-16500000D03*
%LPD*%
M02*
