G04 #@! TF.GenerationSoftware,KiCad,Pcbnew,8.0.1*
G04 #@! TF.CreationDate,2024-04-13T18:18:23+03:00*
G04 #@! TF.ProjectId,mains-detector,6d61696e-732d-4646-9574-6563746f722e,rev?*
G04 #@! TF.SameCoordinates,Original*
G04 #@! TF.FileFunction,Copper,L3,Inr*
G04 #@! TF.FilePolarity,Positive*
%FSLAX46Y46*%
G04 Gerber Fmt 4.6, Leading zero omitted, Abs format (unit mm)*
G04 Created by KiCad (PCBNEW 8.0.1) date 2024-04-13 18:18:23*
%MOMM*%
%LPD*%
G01*
G04 APERTURE LIST*
G04 #@! TA.AperFunction,ComponentPad*
%ADD10R,1.700000X1.700000*%
G04 #@! TD*
G04 #@! TA.AperFunction,ComponentPad*
%ADD11O,1.700000X1.700000*%
G04 #@! TD*
G04 #@! TA.AperFunction,ComponentPad*
%ADD12R,1.000000X1.000000*%
G04 #@! TD*
G04 #@! TA.AperFunction,ComponentPad*
%ADD13O,1.000000X1.000000*%
G04 #@! TD*
G04 #@! TA.AperFunction,ComponentPad*
%ADD14C,1.300000*%
G04 #@! TD*
G04 #@! TA.AperFunction,ComponentPad*
%ADD15O,1.300000X1.800000*%
G04 #@! TD*
G04 #@! TA.AperFunction,ViaPad*
%ADD16C,0.800000*%
G04 #@! TD*
G04 APERTURE END LIST*
D10*
X43700000Y-3700000D03*
D11*
X41160000Y-3700000D03*
X38620000Y-3700000D03*
D12*
X22584803Y-24800000D03*
D13*
X21314803Y-24800000D03*
X20044803Y-24800000D03*
X18774803Y-24800000D03*
D12*
X26794803Y-29300000D03*
X8794803Y-13800000D03*
D13*
X8794803Y-15070000D03*
X8794803Y-16340000D03*
D12*
X36874803Y-16600000D03*
D13*
X35604803Y-16600000D03*
D12*
X36814803Y-13400000D03*
D13*
X35544803Y-13400000D03*
D14*
X15919803Y-26230000D03*
D15*
X17119803Y-28900000D03*
X9869803Y-28900000D03*
D14*
X11069803Y-26230000D03*
D16*
X16594803Y-9000000D03*
X30694803Y-20800000D03*
X23094803Y-9000000D03*
X17894803Y-9000000D03*
X47400000Y-24800000D03*
X37494803Y-15000000D03*
X16794803Y-18000000D03*
X25494803Y-20800000D03*
X16794803Y-16700000D03*
X24194803Y-20800000D03*
X20494803Y-9000000D03*
X36194803Y-15000000D03*
X19194803Y-9000000D03*
X49100000Y-8800000D03*
X28094803Y-20800000D03*
X26794803Y-20800000D03*
X49100000Y-7500000D03*
X34794803Y-21400000D03*
X34894803Y-15000000D03*
X21794803Y-9000000D03*
X46500000Y-8800000D03*
X24494803Y-9000000D03*
X44800000Y-26100000D03*
X46500000Y-7500000D03*
X46100000Y-26100000D03*
X38494803Y-12600000D03*
X25794803Y-9000000D03*
X47400000Y-26100000D03*
X46100000Y-24800000D03*
X47800000Y-8800000D03*
X44800000Y-24800000D03*
X16794803Y-19300000D03*
X16794803Y-20600000D03*
X27094803Y-9000000D03*
X39794803Y-12600000D03*
X29394803Y-20800000D03*
X47800000Y-7500000D03*
X30924803Y-6000000D03*
X47700000Y-22600000D03*
X49800000Y-12600000D03*
X49100000Y-22600000D03*
X12694803Y-4850000D03*
X14044803Y-4850000D03*
X36594803Y-26600000D03*
X36594803Y-25300000D03*
X38094803Y-26600000D03*
X48400000Y-13900000D03*
X47700000Y-21300000D03*
X38094803Y-22600000D03*
X38094803Y-25300000D03*
X38094803Y-23900000D03*
X46300000Y-22600000D03*
X10924803Y-15200000D03*
X48400000Y-12600000D03*
X12694803Y-6450000D03*
X14044803Y-6450000D03*
X49100000Y-21300000D03*
X49800000Y-15100000D03*
X12694803Y-7950000D03*
X46300000Y-21300000D03*
X49800000Y-13900000D03*
X11394803Y-23700000D03*
X42694803Y-12400000D03*
X41294803Y-12400000D03*
X10294803Y-23700000D03*
X9094803Y-23700000D03*
X11394803Y-24800000D03*
X9094803Y-24800000D03*
X9094803Y-25900000D03*
X42694803Y-11100000D03*
X10294803Y-24800000D03*
X31294803Y-14800000D03*
X31294803Y-16500000D03*
X32800000Y-19400000D03*
X32800000Y-17900000D03*
X24294803Y-23800000D03*
X24094803Y-27000000D03*
X10794803Y-12800000D03*
X7494803Y-18400000D03*
X20524803Y-7200000D03*
X9524803Y-8200000D03*
X13894803Y-23900000D03*
X13494803Y-27500000D03*
G04 #@! TA.AperFunction,Conductor*
G36*
X52143039Y-19685D02*
G01*
X52188794Y-72489D01*
X52200000Y-124000D01*
X52200000Y-30676000D01*
X52180315Y-30743039D01*
X52127511Y-30788794D01*
X52076000Y-30800000D01*
X124000Y-30800000D01*
X56961Y-30780315D01*
X11206Y-30727511D01*
X0Y-30676000D01*
X0Y-28206287D01*
X849500Y-28206287D01*
X882754Y-28416243D01*
X928288Y-28556383D01*
X948444Y-28618414D01*
X1044951Y-28807820D01*
X1169890Y-28979786D01*
X1320213Y-29130109D01*
X1492179Y-29255048D01*
X1492181Y-29255049D01*
X1492184Y-29255051D01*
X1681588Y-29351557D01*
X1883757Y-29417246D01*
X2093713Y-29450500D01*
X2093714Y-29450500D01*
X2306286Y-29450500D01*
X2306287Y-29450500D01*
X2516243Y-29417246D01*
X2718412Y-29351557D01*
X2907816Y-29255051D01*
X2923549Y-29243620D01*
X8919303Y-29243620D01*
X8955828Y-29427243D01*
X8955830Y-29427251D01*
X9027479Y-29600228D01*
X9027484Y-29600237D01*
X9131500Y-29755907D01*
X9131503Y-29755911D01*
X9263891Y-29888299D01*
X9263895Y-29888302D01*
X9419565Y-29992318D01*
X9419571Y-29992321D01*
X9419572Y-29992322D01*
X9592552Y-30063973D01*
X9761527Y-30097584D01*
X9776182Y-30100499D01*
X9776186Y-30100500D01*
X9776187Y-30100500D01*
X9963420Y-30100500D01*
X9963421Y-30100499D01*
X10147054Y-30063973D01*
X10320034Y-29992322D01*
X10475711Y-29888302D01*
X10608105Y-29755908D01*
X10712125Y-29600231D01*
X10783776Y-29427251D01*
X10820302Y-29243620D01*
X16169303Y-29243620D01*
X16205828Y-29427243D01*
X16205830Y-29427251D01*
X16277479Y-29600228D01*
X16277484Y-29600237D01*
X16381500Y-29755907D01*
X16381503Y-29755911D01*
X16513891Y-29888299D01*
X16513895Y-29888302D01*
X16669565Y-29992318D01*
X16669571Y-29992321D01*
X16669572Y-29992322D01*
X16842552Y-30063973D01*
X17011527Y-30097584D01*
X17026182Y-30100499D01*
X17026186Y-30100500D01*
X17026187Y-30100500D01*
X17213420Y-30100500D01*
X17213421Y-30100499D01*
X17397054Y-30063973D01*
X17570034Y-29992322D01*
X17725711Y-29888302D01*
X17769157Y-29844856D01*
X25994303Y-29844856D01*
X25994305Y-29844882D01*
X25997216Y-29869987D01*
X25997218Y-29869991D01*
X26042596Y-29972764D01*
X26042597Y-29972765D01*
X26122038Y-30052206D01*
X26224812Y-30097585D01*
X26249938Y-30100500D01*
X27339667Y-30100499D01*
X27339682Y-30100497D01*
X27339685Y-30100497D01*
X27364790Y-30097586D01*
X27364791Y-30097585D01*
X27364794Y-30097585D01*
X27467568Y-30052206D01*
X27547009Y-29972765D01*
X27592388Y-29869991D01*
X27595303Y-29844865D01*
X27595302Y-28755136D01*
X27595300Y-28755117D01*
X27592389Y-28730012D01*
X27592388Y-28730010D01*
X27592388Y-28730009D01*
X27547009Y-28627235D01*
X27467568Y-28547794D01*
X27467566Y-28547793D01*
X27364795Y-28502415D01*
X27339668Y-28499500D01*
X26249946Y-28499500D01*
X26249920Y-28499502D01*
X26224815Y-28502413D01*
X26224811Y-28502415D01*
X26122038Y-28547793D01*
X26042597Y-28627234D01*
X25997218Y-28730006D01*
X25997218Y-28730008D01*
X25994303Y-28755131D01*
X25994303Y-29844856D01*
X17769157Y-29844856D01*
X17858105Y-29755908D01*
X17962125Y-29600231D01*
X18033776Y-29427251D01*
X18070303Y-29243616D01*
X18070303Y-28556384D01*
X18033776Y-28372749D01*
X17964825Y-28206287D01*
X48549500Y-28206287D01*
X48582754Y-28416243D01*
X48628288Y-28556383D01*
X48648444Y-28618414D01*
X48744951Y-28807820D01*
X48869890Y-28979786D01*
X49020213Y-29130109D01*
X49192179Y-29255048D01*
X49192181Y-29255049D01*
X49192184Y-29255051D01*
X49381588Y-29351557D01*
X49583757Y-29417246D01*
X49793713Y-29450500D01*
X49793714Y-29450500D01*
X50006286Y-29450500D01*
X50006287Y-29450500D01*
X50216243Y-29417246D01*
X50418412Y-29351557D01*
X50607816Y-29255051D01*
X50629789Y-29239086D01*
X50779786Y-29130109D01*
X50779788Y-29130106D01*
X50779792Y-29130104D01*
X50930104Y-28979792D01*
X50930106Y-28979788D01*
X50930109Y-28979786D01*
X51055048Y-28807820D01*
X51055047Y-28807820D01*
X51055051Y-28807816D01*
X51151557Y-28618412D01*
X51217246Y-28416243D01*
X51250500Y-28206287D01*
X51250500Y-27993713D01*
X51217246Y-27783757D01*
X51151557Y-27581588D01*
X51055051Y-27392184D01*
X51055049Y-27392181D01*
X51055048Y-27392179D01*
X50930109Y-27220213D01*
X50779786Y-27069890D01*
X50607820Y-26944951D01*
X50418414Y-26848444D01*
X50418413Y-26848443D01*
X50418412Y-26848443D01*
X50216243Y-26782754D01*
X50216241Y-26782753D01*
X50216240Y-26782753D01*
X50054957Y-26757208D01*
X50006287Y-26749500D01*
X49793713Y-26749500D01*
X49745042Y-26757208D01*
X49583760Y-26782753D01*
X49583757Y-26782754D01*
X49406927Y-26840210D01*
X49381585Y-26848444D01*
X49192179Y-26944951D01*
X49020213Y-27069890D01*
X48869890Y-27220213D01*
X48744951Y-27392179D01*
X48648444Y-27581585D01*
X48582753Y-27783760D01*
X48553584Y-27967927D01*
X48549500Y-27993713D01*
X48549500Y-28206287D01*
X17964825Y-28206287D01*
X17962126Y-28199771D01*
X17962121Y-28199762D01*
X17858105Y-28044092D01*
X17858102Y-28044088D01*
X17725714Y-27911700D01*
X17725710Y-27911697D01*
X17570040Y-27807681D01*
X17570031Y-27807676D01*
X17397054Y-27736027D01*
X17397046Y-27736025D01*
X17213423Y-27699500D01*
X17213419Y-27699500D01*
X17026187Y-27699500D01*
X17026182Y-27699500D01*
X16842559Y-27736025D01*
X16842551Y-27736027D01*
X16669574Y-27807676D01*
X16669565Y-27807681D01*
X16513895Y-27911697D01*
X16513891Y-27911700D01*
X16381503Y-28044088D01*
X16381500Y-28044092D01*
X16277484Y-28199762D01*
X16277479Y-28199771D01*
X16205830Y-28372748D01*
X16205828Y-28372756D01*
X16169303Y-28556379D01*
X16169303Y-29243620D01*
X10820302Y-29243620D01*
X10820303Y-29243616D01*
X10820303Y-28556384D01*
X10783776Y-28372749D01*
X10714825Y-28206287D01*
X10712126Y-28199771D01*
X10712121Y-28199762D01*
X10608105Y-28044092D01*
X10608102Y-28044088D01*
X10475714Y-27911700D01*
X10475710Y-27911697D01*
X10320040Y-27807681D01*
X10320031Y-27807676D01*
X10147054Y-27736027D01*
X10147046Y-27736025D01*
X9963423Y-27699500D01*
X9963419Y-27699500D01*
X9776187Y-27699500D01*
X9776182Y-27699500D01*
X9592559Y-27736025D01*
X9592551Y-27736027D01*
X9419574Y-27807676D01*
X9419565Y-27807681D01*
X9263895Y-27911697D01*
X9263891Y-27911700D01*
X9131503Y-28044088D01*
X9131500Y-28044092D01*
X9027484Y-28199762D01*
X9027479Y-28199771D01*
X8955830Y-28372748D01*
X8955828Y-28372756D01*
X8919303Y-28556379D01*
X8919303Y-29243620D01*
X2923549Y-29243620D01*
X2929789Y-29239086D01*
X3079786Y-29130109D01*
X3079788Y-29130106D01*
X3079792Y-29130104D01*
X3230104Y-28979792D01*
X3230106Y-28979788D01*
X3230109Y-28979786D01*
X3355048Y-28807820D01*
X3355047Y-28807820D01*
X3355051Y-28807816D01*
X3451557Y-28618412D01*
X3517246Y-28416243D01*
X3550500Y-28206287D01*
X3550500Y-27993713D01*
X3517246Y-27783757D01*
X3451557Y-27581588D01*
X3409986Y-27500000D01*
X12789158Y-27500000D01*
X12809662Y-27668869D01*
X12809663Y-27668874D01*
X12869985Y-27827931D01*
X12927806Y-27911697D01*
X12966620Y-27967929D01*
X13052586Y-28044088D01*
X13093953Y-28080736D01*
X13244576Y-28159789D01*
X13244578Y-28159790D01*
X13409747Y-28200500D01*
X13579859Y-28200500D01*
X13745028Y-28159790D01*
X13824495Y-28118081D01*
X13895652Y-28080736D01*
X13895653Y-28080734D01*
X13895655Y-28080734D01*
X14022986Y-27967929D01*
X14119621Y-27827930D01*
X14179943Y-27668872D01*
X14200448Y-27500000D01*
X14179943Y-27331128D01*
X14119621Y-27172070D01*
X14117411Y-27168869D01*
X14078430Y-27112395D01*
X14022986Y-27032071D01*
X13928119Y-26948026D01*
X13895652Y-26919263D01*
X13745029Y-26840210D01*
X13579859Y-26799500D01*
X13409747Y-26799500D01*
X13244576Y-26840210D01*
X13093953Y-26919263D01*
X12966619Y-27032072D01*
X12869985Y-27172068D01*
X12809663Y-27331125D01*
X12809662Y-27331130D01*
X12789158Y-27500000D01*
X3409986Y-27500000D01*
X3355051Y-27392184D01*
X3355049Y-27392181D01*
X3355048Y-27392179D01*
X3230109Y-27220213D01*
X3079786Y-27069890D01*
X2907820Y-26944951D01*
X2718414Y-26848444D01*
X2718413Y-26848443D01*
X2718412Y-26848443D01*
X2516243Y-26782754D01*
X2516241Y-26782753D01*
X2516240Y-26782753D01*
X2354957Y-26757208D01*
X2306287Y-26749500D01*
X2093713Y-26749500D01*
X2045042Y-26757208D01*
X1883760Y-26782753D01*
X1883757Y-26782754D01*
X1706927Y-26840210D01*
X1681585Y-26848444D01*
X1492179Y-26944951D01*
X1320213Y-27069890D01*
X1169890Y-27220213D01*
X1044951Y-27392179D01*
X948444Y-27581585D01*
X882753Y-27783760D01*
X853584Y-27967927D01*
X849500Y-27993713D01*
X849500Y-28206287D01*
X0Y-28206287D01*
X0Y-25900000D01*
X8389158Y-25900000D01*
X8409662Y-26068869D01*
X8409663Y-26068874D01*
X8469985Y-26227931D01*
X8532278Y-26318177D01*
X8566620Y-26367929D01*
X8634349Y-26427931D01*
X8693953Y-26480736D01*
X8844576Y-26559789D01*
X8844578Y-26559790D01*
X9009747Y-26600500D01*
X9179859Y-26600500D01*
X9345028Y-26559790D01*
X9424495Y-26518081D01*
X9495652Y-26480736D01*
X9495653Y-26480734D01*
X9495655Y-26480734D01*
X9622986Y-26367929D01*
X9719621Y-26227930D01*
X9779943Y-26068872D01*
X9800448Y-25900000D01*
X9779943Y-25731128D01*
X9719621Y-25572070D01*
X9685385Y-25522471D01*
X9663502Y-25456119D01*
X9680967Y-25388467D01*
X9732234Y-25340997D01*
X9801027Y-25328779D01*
X9865505Y-25355693D01*
X9869661Y-25359216D01*
X9893950Y-25380733D01*
X9893952Y-25380735D01*
X10044577Y-25459790D01*
X10056453Y-25462717D01*
X10209403Y-25500415D01*
X10269784Y-25535571D01*
X10301573Y-25597790D01*
X10294677Y-25667319D01*
X10278767Y-25694116D01*
X10279053Y-25694307D01*
X10275665Y-25699376D01*
X10187407Y-25864497D01*
X10133056Y-26043666D01*
X10133055Y-26043668D01*
X10114704Y-26230000D01*
X10133055Y-26416331D01*
X10133056Y-26416333D01*
X10187407Y-26595502D01*
X10275665Y-26760623D01*
X10275667Y-26760626D01*
X10394445Y-26905357D01*
X10539176Y-27024135D01*
X10539179Y-27024137D01*
X10704300Y-27112395D01*
X10704302Y-27112396D01*
X10883469Y-27166746D01*
X10883471Y-27166747D01*
X10900177Y-27168392D01*
X11069803Y-27185099D01*
X11256134Y-27166747D01*
X11435304Y-27112396D01*
X11600428Y-27024136D01*
X11745160Y-26905357D01*
X11863939Y-26760625D01*
X11952199Y-26595501D01*
X12006550Y-26416331D01*
X12024902Y-26230000D01*
X14964704Y-26230000D01*
X14983055Y-26416331D01*
X14983056Y-26416333D01*
X15037407Y-26595502D01*
X15125665Y-26760623D01*
X15125667Y-26760626D01*
X15244445Y-26905357D01*
X15389176Y-27024135D01*
X15389179Y-27024137D01*
X15554300Y-27112395D01*
X15554302Y-27112396D01*
X15733469Y-27166746D01*
X15733471Y-27166747D01*
X15750177Y-27168392D01*
X15919803Y-27185099D01*
X16106134Y-27166747D01*
X16285304Y-27112396D01*
X16450428Y-27024136D01*
X16479838Y-27000000D01*
X23389158Y-27000000D01*
X23409662Y-27168869D01*
X23409663Y-27168874D01*
X23469985Y-27327931D01*
X23532278Y-27418177D01*
X23566620Y-27467929D01*
X23672308Y-27561560D01*
X23693953Y-27580736D01*
X23844576Y-27659789D01*
X23844578Y-27659790D01*
X24009747Y-27700500D01*
X24179859Y-27700500D01*
X24345028Y-27659790D01*
X24424495Y-27618081D01*
X24495652Y-27580736D01*
X24495653Y-27580734D01*
X24495655Y-27580734D01*
X24622986Y-27467929D01*
X24719621Y-27327930D01*
X24779943Y-27168872D01*
X24800448Y-27000000D01*
X24779943Y-26831128D01*
X24768327Y-26800500D01*
X24748986Y-26749500D01*
X24719621Y-26672070D01*
X24622986Y-26532071D01*
X24495655Y-26419266D01*
X24495652Y-26419263D01*
X24345029Y-26340210D01*
X24179859Y-26299500D01*
X24009747Y-26299500D01*
X23844576Y-26340210D01*
X23693953Y-26419263D01*
X23566619Y-26532072D01*
X23469985Y-26672068D01*
X23409663Y-26831125D01*
X23409662Y-26831130D01*
X23389158Y-27000000D01*
X16479838Y-27000000D01*
X16595160Y-26905357D01*
X16713939Y-26760625D01*
X16802199Y-26595501D01*
X16856550Y-26416331D01*
X16874902Y-26230000D01*
X16862098Y-26100000D01*
X44094355Y-26100000D01*
X44114859Y-26268869D01*
X44114860Y-26268874D01*
X44175182Y-26427931D01*
X44216398Y-26487641D01*
X44271817Y-26567929D01*
X44377505Y-26661560D01*
X44399150Y-26680736D01*
X44530169Y-26749500D01*
X44549775Y-26759790D01*
X44714944Y-26800500D01*
X44885056Y-26800500D01*
X45050225Y-26759790D01*
X45129692Y-26718081D01*
X45200849Y-26680736D01*
X45200850Y-26680734D01*
X45200852Y-26680734D01*
X45328183Y-26567929D01*
X45347950Y-26539292D01*
X45402232Y-26495301D01*
X45471681Y-26487641D01*
X45534246Y-26518744D01*
X45552050Y-26539292D01*
X45571814Y-26567926D01*
X45571816Y-26567928D01*
X45571817Y-26567929D01*
X45602941Y-26595502D01*
X45699150Y-26680736D01*
X45830169Y-26749500D01*
X45849775Y-26759790D01*
X46014944Y-26800500D01*
X46185056Y-26800500D01*
X46350225Y-26759790D01*
X46429692Y-26718081D01*
X46500849Y-26680736D01*
X46500850Y-26680734D01*
X46500852Y-26680734D01*
X46628183Y-26567929D01*
X46647950Y-26539292D01*
X46702232Y-26495301D01*
X46771681Y-26487641D01*
X46834246Y-26518744D01*
X46852050Y-26539292D01*
X46871814Y-26567926D01*
X46871816Y-26567928D01*
X46871817Y-26567929D01*
X46902941Y-26595502D01*
X46999150Y-26680736D01*
X47130169Y-26749500D01*
X47149775Y-26759790D01*
X47314944Y-26800500D01*
X47485056Y-26800500D01*
X47650225Y-26759790D01*
X47729692Y-26718081D01*
X47800849Y-26680736D01*
X47800850Y-26680734D01*
X47800852Y-26680734D01*
X47928183Y-26567929D01*
X48024818Y-26427930D01*
X48085140Y-26268872D01*
X48105645Y-26100000D01*
X48085140Y-25931128D01*
X48024818Y-25772070D01*
X47928183Y-25632071D01*
X47827431Y-25542812D01*
X47790307Y-25483627D01*
X47791074Y-25413761D01*
X47827430Y-25357187D01*
X47928183Y-25267929D01*
X48024818Y-25127930D01*
X48085140Y-24968872D01*
X48105645Y-24800000D01*
X48085140Y-24631128D01*
X48073524Y-24600500D01*
X48034329Y-24497149D01*
X48024818Y-24472070D01*
X47928183Y-24332071D01*
X47828478Y-24243740D01*
X47800849Y-24219263D01*
X47650226Y-24140210D01*
X47485056Y-24099500D01*
X47314944Y-24099500D01*
X47149773Y-24140210D01*
X46999150Y-24219263D01*
X46871815Y-24332072D01*
X46852049Y-24360709D01*
X46797766Y-24404699D01*
X46728318Y-24412358D01*
X46665753Y-24381254D01*
X46647951Y-24360709D01*
X46628184Y-24332072D01*
X46500849Y-24219263D01*
X46350226Y-24140210D01*
X46185056Y-24099500D01*
X46014944Y-24099500D01*
X45849773Y-24140210D01*
X45699150Y-24219263D01*
X45571815Y-24332072D01*
X45552049Y-24360709D01*
X45497766Y-24404699D01*
X45428318Y-24412358D01*
X45365753Y-24381254D01*
X45347951Y-24360709D01*
X45328184Y-24332072D01*
X45200849Y-24219263D01*
X45050226Y-24140210D01*
X44885056Y-24099500D01*
X44714944Y-24099500D01*
X44549773Y-24140210D01*
X44399150Y-24219263D01*
X44271816Y-24332072D01*
X44175182Y-24472068D01*
X44114860Y-24631125D01*
X44114859Y-24631130D01*
X44094355Y-24800000D01*
X44114859Y-24968869D01*
X44114860Y-24968874D01*
X44175182Y-25127931D01*
X44199999Y-25163884D01*
X44271817Y-25267929D01*
X44372566Y-25357185D01*
X44409693Y-25416374D01*
X44408925Y-25486239D01*
X44372566Y-25542814D01*
X44301736Y-25605565D01*
X44271816Y-25632072D01*
X44175182Y-25772068D01*
X44114860Y-25931125D01*
X44114859Y-25931130D01*
X44094355Y-26100000D01*
X16862098Y-26100000D01*
X16856550Y-26043669D01*
X16802199Y-25864499D01*
X16737444Y-25743350D01*
X16713940Y-25699376D01*
X16713938Y-25699373D01*
X16595160Y-25554642D01*
X16450429Y-25435864D01*
X16450426Y-25435862D01*
X16285305Y-25347604D01*
X16106136Y-25293253D01*
X16106134Y-25293252D01*
X15919803Y-25274901D01*
X15733471Y-25293252D01*
X15733469Y-25293253D01*
X15554300Y-25347604D01*
X15389179Y-25435862D01*
X15389176Y-25435864D01*
X15244445Y-25554642D01*
X15125667Y-25699373D01*
X15125665Y-25699376D01*
X15037407Y-25864497D01*
X14983056Y-26043666D01*
X14983055Y-26043668D01*
X14964704Y-26230000D01*
X12024902Y-26230000D01*
X12006550Y-26043669D01*
X11952199Y-25864499D01*
X11887444Y-25743350D01*
X11863940Y-25699376D01*
X11863938Y-25699373D01*
X11757201Y-25569314D01*
X11729888Y-25505004D01*
X11741679Y-25436136D01*
X11788831Y-25384576D01*
X11795412Y-25380861D01*
X11795655Y-25380734D01*
X11922986Y-25267929D01*
X12019621Y-25127930D01*
X12079943Y-24968872D01*
X12100448Y-24800003D01*
X17969238Y-24800003D01*
X17989433Y-24979249D01*
X17989434Y-24979254D01*
X18049014Y-25149523D01*
X18092509Y-25218744D01*
X18144987Y-25302262D01*
X18272541Y-25429816D01*
X18358181Y-25483627D01*
X18420003Y-25522473D01*
X18425281Y-25525789D01*
X18595548Y-25585368D01*
X18595553Y-25585369D01*
X18774799Y-25605565D01*
X18774803Y-25605565D01*
X18774807Y-25605565D01*
X18954052Y-25585369D01*
X18954055Y-25585368D01*
X18954058Y-25585368D01*
X19124325Y-25525789D01*
X19277065Y-25429816D01*
X19322122Y-25384759D01*
X19383445Y-25351274D01*
X19453137Y-25356258D01*
X19497484Y-25384759D01*
X19542541Y-25429816D01*
X19628181Y-25483627D01*
X19690003Y-25522473D01*
X19695281Y-25525789D01*
X19865548Y-25585368D01*
X19865553Y-25585369D01*
X20044799Y-25605565D01*
X20044803Y-25605565D01*
X20044807Y-25605565D01*
X20224052Y-25585369D01*
X20224055Y-25585368D01*
X20224058Y-25585368D01*
X20394325Y-25525789D01*
X20547065Y-25429816D01*
X20592122Y-25384759D01*
X20653445Y-25351274D01*
X20723137Y-25356258D01*
X20767484Y-25384759D01*
X20812541Y-25429816D01*
X20898181Y-25483627D01*
X20960003Y-25522473D01*
X20965281Y-25525789D01*
X21135548Y-25585368D01*
X21135553Y-25585369D01*
X21314799Y-25605565D01*
X21314803Y-25605565D01*
X21314807Y-25605565D01*
X21494052Y-25585369D01*
X21494053Y-25585368D01*
X21494058Y-25585368D01*
X21550763Y-25565525D01*
X21620539Y-25561963D01*
X21681167Y-25596692D01*
X21690982Y-25608255D01*
X21727615Y-25657190D01*
X21842709Y-25743350D01*
X21842716Y-25743354D01*
X21977423Y-25793596D01*
X21977430Y-25793598D01*
X22036958Y-25799999D01*
X22036975Y-25800000D01*
X22334803Y-25800000D01*
X22334803Y-25009618D01*
X22385249Y-25060064D01*
X22459358Y-25102851D01*
X22542016Y-25125000D01*
X22627590Y-25125000D01*
X22710248Y-25102851D01*
X22784357Y-25060064D01*
X22794421Y-25050000D01*
X22834803Y-25050000D01*
X22834803Y-25800000D01*
X23132631Y-25800000D01*
X23132647Y-25799999D01*
X23192175Y-25793598D01*
X23192182Y-25793596D01*
X23326889Y-25743354D01*
X23326896Y-25743350D01*
X23441990Y-25657190D01*
X23441993Y-25657187D01*
X23528153Y-25542093D01*
X23528157Y-25542086D01*
X23578399Y-25407379D01*
X23578401Y-25407372D01*
X23584802Y-25347844D01*
X23584803Y-25347827D01*
X23584803Y-25050000D01*
X22834803Y-25050000D01*
X22794421Y-25050000D01*
X22844867Y-24999554D01*
X22887654Y-24925445D01*
X22909803Y-24842787D01*
X22909803Y-24757213D01*
X22887654Y-24674555D01*
X22844867Y-24600446D01*
X22794421Y-24550000D01*
X22834803Y-24550000D01*
X23584803Y-24550000D01*
X23584803Y-24382369D01*
X23604488Y-24315330D01*
X23657292Y-24269575D01*
X23726450Y-24259631D01*
X23790006Y-24288656D01*
X23790997Y-24289525D01*
X23874699Y-24363678D01*
X23893950Y-24380733D01*
X23893952Y-24380735D01*
X24044576Y-24459789D01*
X24044578Y-24459790D01*
X24209747Y-24500500D01*
X24379859Y-24500500D01*
X24545028Y-24459790D01*
X24649994Y-24404699D01*
X24695652Y-24380736D01*
X24695653Y-24380734D01*
X24695655Y-24380734D01*
X24822986Y-24267929D01*
X24919621Y-24127930D01*
X24979943Y-23968872D01*
X25000448Y-23800000D01*
X24979943Y-23631128D01*
X24919621Y-23472070D01*
X24892011Y-23432071D01*
X24885279Y-23422318D01*
X24822986Y-23332071D01*
X24710109Y-23232071D01*
X24695652Y-23219263D01*
X24545029Y-23140210D01*
X24379859Y-23099500D01*
X24209747Y-23099500D01*
X24044576Y-23140210D01*
X23893953Y-23219263D01*
X23766619Y-23332072D01*
X23669985Y-23472068D01*
X23609663Y-23631125D01*
X23609662Y-23631130D01*
X23589158Y-23800000D01*
X23589158Y-23805257D01*
X23569473Y-23872296D01*
X23516669Y-23918051D01*
X23447511Y-23927995D01*
X23390847Y-23904524D01*
X23326891Y-23856646D01*
X23326889Y-23856645D01*
X23192182Y-23806403D01*
X23192175Y-23806401D01*
X23132647Y-23800000D01*
X22834803Y-23800000D01*
X22834803Y-24550000D01*
X22794421Y-24550000D01*
X22784357Y-24539936D01*
X22710248Y-24497149D01*
X22627590Y-24475000D01*
X22542016Y-24475000D01*
X22459358Y-24497149D01*
X22385249Y-24539936D01*
X22334803Y-24590382D01*
X22334803Y-23800000D01*
X22036958Y-23800000D01*
X21977430Y-23806401D01*
X21977423Y-23806403D01*
X21842716Y-23856645D01*
X21842709Y-23856649D01*
X21727615Y-23942809D01*
X21690983Y-23991743D01*
X21635049Y-24033613D01*
X21565357Y-24038597D01*
X21550763Y-24034473D01*
X21494060Y-24014632D01*
X21494052Y-24014630D01*
X21314807Y-23994435D01*
X21314799Y-23994435D01*
X21135553Y-24014630D01*
X21135548Y-24014631D01*
X20965279Y-24074211D01*
X20812540Y-24170184D01*
X20767483Y-24215241D01*
X20706160Y-24248725D01*
X20636468Y-24243740D01*
X20592123Y-24215241D01*
X20547066Y-24170185D01*
X20547065Y-24170184D01*
X20394326Y-24074211D01*
X20224057Y-24014631D01*
X20224052Y-24014630D01*
X20044807Y-23994435D01*
X20044799Y-23994435D01*
X19865553Y-24014630D01*
X19865548Y-24014631D01*
X19695279Y-24074211D01*
X19542540Y-24170184D01*
X19497483Y-24215241D01*
X19436160Y-24248725D01*
X19366468Y-24243740D01*
X19322123Y-24215241D01*
X19277066Y-24170185D01*
X19277065Y-24170184D01*
X19124326Y-24074211D01*
X18954057Y-24014631D01*
X18954052Y-24014630D01*
X18774807Y-23994435D01*
X18774799Y-23994435D01*
X18595553Y-24014630D01*
X18595548Y-24014631D01*
X18425279Y-24074211D01*
X18272540Y-24170184D01*
X18144987Y-24297737D01*
X18049014Y-24450476D01*
X17989434Y-24620745D01*
X17989433Y-24620750D01*
X17969238Y-24799996D01*
X17969238Y-24800003D01*
X12100448Y-24800003D01*
X12100448Y-24800000D01*
X12079943Y-24631128D01*
X12068327Y-24600500D01*
X12029132Y-24497149D01*
X12019621Y-24472070D01*
X11978404Y-24412358D01*
X11918725Y-24325898D01*
X11919801Y-24325154D01*
X11893404Y-24269002D01*
X11902582Y-24199738D01*
X11918955Y-24174261D01*
X11918725Y-24174102D01*
X11942119Y-24140210D01*
X12019621Y-24027930D01*
X12068138Y-23900000D01*
X13189158Y-23900000D01*
X13209662Y-24068869D01*
X13209663Y-24068874D01*
X13269985Y-24227931D01*
X13318170Y-24297738D01*
X13366620Y-24367929D01*
X13459797Y-24450476D01*
X13493953Y-24480736D01*
X13625925Y-24550000D01*
X13644578Y-24559790D01*
X13809747Y-24600500D01*
X13979859Y-24600500D01*
X14145028Y-24559790D01*
X14224495Y-24518081D01*
X14295652Y-24480736D01*
X14295653Y-24480734D01*
X14295655Y-24480734D01*
X14422986Y-24367929D01*
X14519621Y-24227930D01*
X14579943Y-24068872D01*
X14600448Y-23900000D01*
X14579943Y-23731128D01*
X14519621Y-23572070D01*
X14422986Y-23432071D01*
X14295655Y-23319266D01*
X14295652Y-23319263D01*
X14145029Y-23240210D01*
X13979859Y-23199500D01*
X13809747Y-23199500D01*
X13644576Y-23240210D01*
X13493953Y-23319263D01*
X13366619Y-23432072D01*
X13269985Y-23572068D01*
X13209663Y-23731125D01*
X13209662Y-23731130D01*
X13189158Y-23900000D01*
X12068138Y-23900000D01*
X12079943Y-23868872D01*
X12100448Y-23700000D01*
X12079943Y-23531128D01*
X12019621Y-23372070D01*
X11992011Y-23332071D01*
X11983171Y-23319263D01*
X11922986Y-23232071D01*
X11795655Y-23119266D01*
X11795652Y-23119263D01*
X11645029Y-23040210D01*
X11479859Y-22999500D01*
X11309747Y-22999500D01*
X11144576Y-23040210D01*
X10993953Y-23119263D01*
X10927030Y-23178553D01*
X10863797Y-23208274D01*
X10794533Y-23199090D01*
X10762576Y-23178553D01*
X10695652Y-23119263D01*
X10545029Y-23040210D01*
X10379859Y-22999500D01*
X10209747Y-22999500D01*
X10044576Y-23040210D01*
X9893953Y-23119263D01*
X9806862Y-23196419D01*
X9781078Y-23219263D01*
X9777030Y-23222849D01*
X9713797Y-23252570D01*
X9644533Y-23243386D01*
X9612576Y-23222849D01*
X9608528Y-23219263D01*
X9495655Y-23119266D01*
X9495652Y-23119263D01*
X9345029Y-23040210D01*
X9179859Y-22999500D01*
X9009747Y-22999500D01*
X8844576Y-23040210D01*
X8693953Y-23119263D01*
X8566619Y-23232072D01*
X8469985Y-23372068D01*
X8409663Y-23531125D01*
X8409662Y-23531130D01*
X8389158Y-23700000D01*
X8409662Y-23868869D01*
X8409663Y-23868874D01*
X8469985Y-24027931D01*
X8570881Y-24174102D01*
X8569805Y-24174844D01*
X8596203Y-24231010D01*
X8587017Y-24300274D01*
X8570651Y-24325739D01*
X8570881Y-24325898D01*
X8469985Y-24472068D01*
X8409663Y-24631125D01*
X8409662Y-24631130D01*
X8389158Y-24800000D01*
X8409662Y-24968869D01*
X8409663Y-24968874D01*
X8469985Y-25127931D01*
X8570881Y-25274102D01*
X8569805Y-25274844D01*
X8596203Y-25331010D01*
X8587017Y-25400274D01*
X8570651Y-25425739D01*
X8570881Y-25425898D01*
X8469985Y-25572068D01*
X8409663Y-25731125D01*
X8409662Y-25731130D01*
X8389158Y-25900000D01*
X0Y-25900000D01*
X0Y-20600000D01*
X16089158Y-20600000D01*
X16109662Y-20768869D01*
X16109663Y-20768874D01*
X16169985Y-20927931D01*
X16232278Y-21018177D01*
X16266620Y-21067929D01*
X16334349Y-21127931D01*
X16393953Y-21180736D01*
X16544576Y-21259789D01*
X16544578Y-21259790D01*
X16709747Y-21300500D01*
X16879859Y-21300500D01*
X17045028Y-21259790D01*
X17124495Y-21218081D01*
X17195652Y-21180736D01*
X17195653Y-21180734D01*
X17195655Y-21180734D01*
X17322986Y-21067929D01*
X17419621Y-20927930D01*
X17468138Y-20800000D01*
X23489158Y-20800000D01*
X23509662Y-20968869D01*
X23509663Y-20968874D01*
X23569985Y-21127931D01*
X23611201Y-21187641D01*
X23666620Y-21267929D01*
X23772308Y-21361560D01*
X23793953Y-21380736D01*
X23944576Y-21459789D01*
X23944578Y-21459790D01*
X24109747Y-21500500D01*
X24279859Y-21500500D01*
X24445028Y-21459790D01*
X24558947Y-21400000D01*
X24595652Y-21380736D01*
X24595653Y-21380734D01*
X24595655Y-21380734D01*
X24722986Y-21267929D01*
X24742753Y-21239292D01*
X24797035Y-21195301D01*
X24866484Y-21187641D01*
X24929049Y-21218744D01*
X24946853Y-21239292D01*
X24966617Y-21267926D01*
X25093953Y-21380736D01*
X25244576Y-21459789D01*
X25244578Y-21459790D01*
X25409747Y-21500500D01*
X25579859Y-21500500D01*
X25745028Y-21459790D01*
X25858947Y-21400000D01*
X25895652Y-21380736D01*
X25895653Y-21380734D01*
X25895655Y-21380734D01*
X26022986Y-21267929D01*
X26042753Y-21239292D01*
X26097035Y-21195301D01*
X26166484Y-21187641D01*
X26229049Y-21218744D01*
X26246853Y-21239292D01*
X26266617Y-21267926D01*
X26393953Y-21380736D01*
X26544576Y-21459789D01*
X26544578Y-21459790D01*
X26709747Y-21500500D01*
X26879859Y-21500500D01*
X27045028Y-21459790D01*
X27158947Y-21400000D01*
X27195652Y-21380736D01*
X27195653Y-21380734D01*
X27195655Y-21380734D01*
X27322986Y-21267929D01*
X27342753Y-21239292D01*
X27397035Y-21195301D01*
X27466484Y-21187641D01*
X27529049Y-21218744D01*
X27546853Y-21239292D01*
X27566617Y-21267926D01*
X27693953Y-21380736D01*
X27844576Y-21459789D01*
X27844578Y-21459790D01*
X28009747Y-21500500D01*
X28179859Y-21500500D01*
X28345028Y-21459790D01*
X28458947Y-21400000D01*
X28495652Y-21380736D01*
X28495653Y-21380734D01*
X28495655Y-21380734D01*
X28622986Y-21267929D01*
X28642753Y-21239292D01*
X28697035Y-21195301D01*
X28766484Y-21187641D01*
X28829049Y-21218744D01*
X28846853Y-21239292D01*
X28866617Y-21267926D01*
X28993953Y-21380736D01*
X29144576Y-21459789D01*
X29144578Y-21459790D01*
X29309747Y-21500500D01*
X29479859Y-21500500D01*
X29645028Y-21459790D01*
X29758947Y-21400000D01*
X29795652Y-21380736D01*
X29795653Y-21380734D01*
X29795655Y-21380734D01*
X29922986Y-21267929D01*
X29942753Y-21239292D01*
X29997035Y-21195301D01*
X30066484Y-21187641D01*
X30129049Y-21218744D01*
X30146853Y-21239292D01*
X30166617Y-21267926D01*
X30293953Y-21380736D01*
X30444576Y-21459789D01*
X30444578Y-21459790D01*
X30609747Y-21500500D01*
X30779859Y-21500500D01*
X30945028Y-21459790D01*
X31058947Y-21400000D01*
X34089158Y-21400000D01*
X34109662Y-21568869D01*
X34109663Y-21568874D01*
X34169985Y-21727931D01*
X34232278Y-21818177D01*
X34266620Y-21867929D01*
X34372308Y-21961560D01*
X34393953Y-21980736D01*
X34544576Y-22059789D01*
X34544578Y-22059790D01*
X34709747Y-22100500D01*
X34879859Y-22100500D01*
X35045028Y-22059790D01*
X35124495Y-22018081D01*
X35195652Y-21980736D01*
X35195653Y-21980734D01*
X35195655Y-21980734D01*
X35322986Y-21867929D01*
X35419621Y-21727930D01*
X35479943Y-21568872D01*
X35500448Y-21400000D01*
X35479943Y-21231128D01*
X35475246Y-21218744D01*
X35419620Y-21072068D01*
X35348386Y-20968869D01*
X35322986Y-20932071D01*
X35195655Y-20819266D01*
X35195652Y-20819263D01*
X35045029Y-20740210D01*
X34879859Y-20699500D01*
X34709747Y-20699500D01*
X34544576Y-20740210D01*
X34393953Y-20819263D01*
X34266619Y-20932072D01*
X34169985Y-21072068D01*
X34109663Y-21231125D01*
X34109662Y-21231130D01*
X34089158Y-21400000D01*
X31058947Y-21400000D01*
X31095652Y-21380736D01*
X31095653Y-21380734D01*
X31095655Y-21380734D01*
X31222986Y-21267929D01*
X31319621Y-21127930D01*
X31379943Y-20968872D01*
X31400448Y-20800000D01*
X31379943Y-20631128D01*
X31319621Y-20472070D01*
X31222986Y-20332071D01*
X31095655Y-20219266D01*
X31095652Y-20219263D01*
X30945029Y-20140210D01*
X30779859Y-20099500D01*
X30609747Y-20099500D01*
X30444576Y-20140210D01*
X30293953Y-20219263D01*
X30166618Y-20332072D01*
X30146852Y-20360709D01*
X30092569Y-20404699D01*
X30023121Y-20412358D01*
X29960556Y-20381254D01*
X29942754Y-20360709D01*
X29922987Y-20332072D01*
X29795652Y-20219263D01*
X29645029Y-20140210D01*
X29479859Y-20099500D01*
X29309747Y-20099500D01*
X29144576Y-20140210D01*
X28993953Y-20219263D01*
X28866618Y-20332072D01*
X28846852Y-20360709D01*
X28792569Y-20404699D01*
X28723121Y-20412358D01*
X28660556Y-20381254D01*
X28642754Y-20360709D01*
X28622987Y-20332072D01*
X28495652Y-20219263D01*
X28345029Y-20140210D01*
X28179859Y-20099500D01*
X28009747Y-20099500D01*
X27844576Y-20140210D01*
X27693953Y-20219263D01*
X27566618Y-20332072D01*
X27546852Y-20360709D01*
X27492569Y-20404699D01*
X27423121Y-20412358D01*
X27360556Y-20381254D01*
X27342754Y-20360709D01*
X27322987Y-20332072D01*
X27195652Y-20219263D01*
X27045029Y-20140210D01*
X26879859Y-20099500D01*
X26709747Y-20099500D01*
X26544576Y-20140210D01*
X26393953Y-20219263D01*
X26266618Y-20332072D01*
X26246852Y-20360709D01*
X26192569Y-20404699D01*
X26123121Y-20412358D01*
X26060556Y-20381254D01*
X26042754Y-20360709D01*
X26022987Y-20332072D01*
X25895652Y-20219263D01*
X25745029Y-20140210D01*
X25579859Y-20099500D01*
X25409747Y-20099500D01*
X25244576Y-20140210D01*
X25093953Y-20219263D01*
X24966618Y-20332072D01*
X24946852Y-20360709D01*
X24892569Y-20404699D01*
X24823121Y-20412358D01*
X24760556Y-20381254D01*
X24742754Y-20360709D01*
X24722987Y-20332072D01*
X24595652Y-20219263D01*
X24445029Y-20140210D01*
X24279859Y-20099500D01*
X24109747Y-20099500D01*
X23944576Y-20140210D01*
X23793953Y-20219263D01*
X23666619Y-20332072D01*
X23569985Y-20472068D01*
X23509663Y-20631125D01*
X23509662Y-20631130D01*
X23489158Y-20800000D01*
X17468138Y-20800000D01*
X17479943Y-20768872D01*
X17500448Y-20600000D01*
X17479943Y-20431128D01*
X17419621Y-20272070D01*
X17322986Y-20132071D01*
X17222234Y-20042812D01*
X17185110Y-19983627D01*
X17185877Y-19913761D01*
X17222233Y-19857187D01*
X17322986Y-19767929D01*
X17419621Y-19627930D01*
X17479943Y-19468872D01*
X17488306Y-19400000D01*
X32094355Y-19400000D01*
X32114859Y-19568869D01*
X32114860Y-19568874D01*
X32175182Y-19727931D01*
X32237475Y-19818177D01*
X32271817Y-19867929D01*
X32377505Y-19961560D01*
X32399150Y-19980736D01*
X32517434Y-20042816D01*
X32549775Y-20059790D01*
X32714944Y-20100500D01*
X32885056Y-20100500D01*
X33050225Y-20059790D01*
X33129692Y-20018081D01*
X33200849Y-19980736D01*
X33200850Y-19980734D01*
X33200852Y-19980734D01*
X33328183Y-19867929D01*
X33424818Y-19727930D01*
X33485140Y-19568872D01*
X33505645Y-19400000D01*
X33485140Y-19231128D01*
X33424818Y-19072070D01*
X33328183Y-18932071D01*
X33200852Y-18819266D01*
X33200850Y-18819265D01*
X33200849Y-18819264D01*
X33087543Y-18759796D01*
X33037331Y-18711212D01*
X33021356Y-18643193D01*
X33044691Y-18577335D01*
X33087543Y-18540204D01*
X33117699Y-18524376D01*
X33200852Y-18480734D01*
X33328183Y-18367929D01*
X33424818Y-18227930D01*
X33485140Y-18068872D01*
X33505645Y-17900000D01*
X33485140Y-17731128D01*
X33424818Y-17572070D01*
X33397208Y-17532071D01*
X33390476Y-17522318D01*
X33328183Y-17432071D01*
X33200852Y-17319266D01*
X33200849Y-17319263D01*
X33050226Y-17240210D01*
X32885056Y-17199500D01*
X32714944Y-17199500D01*
X32549773Y-17240210D01*
X32399150Y-17319263D01*
X32271816Y-17432072D01*
X32175182Y-17572068D01*
X32114860Y-17731125D01*
X32114859Y-17731130D01*
X32094355Y-17900000D01*
X32114859Y-18068869D01*
X32114860Y-18068874D01*
X32175182Y-18227931D01*
X32237475Y-18318177D01*
X32271817Y-18367929D01*
X32377505Y-18461560D01*
X32399150Y-18480736D01*
X32512456Y-18540204D01*
X32562669Y-18588789D01*
X32578643Y-18656808D01*
X32555308Y-18722665D01*
X32512456Y-18759796D01*
X32399150Y-18819263D01*
X32271816Y-18932072D01*
X32175182Y-19072068D01*
X32114860Y-19231125D01*
X32114859Y-19231130D01*
X32094355Y-19400000D01*
X17488306Y-19400000D01*
X17500448Y-19300000D01*
X17479943Y-19131128D01*
X17468327Y-19100500D01*
X17452888Y-19059789D01*
X17419621Y-18972070D01*
X17392011Y-18932071D01*
X17347737Y-18867929D01*
X17322986Y-18832071D01*
X17222234Y-18742812D01*
X17185110Y-18683627D01*
X17185877Y-18613761D01*
X17222233Y-18557187D01*
X17322986Y-18467929D01*
X17419621Y-18327930D01*
X17479943Y-18168872D01*
X17500448Y-18000000D01*
X17479943Y-17831128D01*
X17475444Y-17819266D01*
X17419620Y-17672068D01*
X17385279Y-17622318D01*
X17322986Y-17532071D01*
X17222234Y-17442812D01*
X17185110Y-17383627D01*
X17185877Y-17313761D01*
X17222233Y-17257187D01*
X17322986Y-17167929D01*
X17419621Y-17027930D01*
X17479943Y-16868872D01*
X17500448Y-16700000D01*
X17479943Y-16531128D01*
X17468138Y-16500000D01*
X30589158Y-16500000D01*
X30609662Y-16668869D01*
X30609663Y-16668874D01*
X30669985Y-16827931D01*
X30732278Y-16918177D01*
X30766620Y-16967929D01*
X30834349Y-17027931D01*
X30893953Y-17080736D01*
X31044576Y-17159789D01*
X31044578Y-17159790D01*
X31209747Y-17200500D01*
X31379859Y-17200500D01*
X31545028Y-17159790D01*
X31624495Y-17118081D01*
X31695652Y-17080736D01*
X31695653Y-17080734D01*
X31695655Y-17080734D01*
X31822986Y-16967929D01*
X31919621Y-16827930D01*
X31979943Y-16668872D01*
X32000448Y-16500000D01*
X31979943Y-16331128D01*
X31919621Y-16172070D01*
X31911807Y-16160750D01*
X31868312Y-16097737D01*
X31822986Y-16032071D01*
X31695655Y-15919266D01*
X31695652Y-15919263D01*
X31545029Y-15840210D01*
X31379859Y-15799500D01*
X31209747Y-15799500D01*
X31044576Y-15840210D01*
X30893953Y-15919263D01*
X30766619Y-16032072D01*
X30669985Y-16172068D01*
X30609663Y-16331125D01*
X30609662Y-16331130D01*
X30589158Y-16500000D01*
X17468138Y-16500000D01*
X17419621Y-16372070D01*
X17322986Y-16232071D01*
X17195655Y-16119266D01*
X17195652Y-16119263D01*
X17045029Y-16040210D01*
X16879859Y-15999500D01*
X16709747Y-15999500D01*
X16544576Y-16040210D01*
X16393953Y-16119263D01*
X16266619Y-16232072D01*
X16169985Y-16372068D01*
X16109663Y-16531125D01*
X16109662Y-16531130D01*
X16089158Y-16700000D01*
X16109662Y-16868869D01*
X16109663Y-16868874D01*
X16169985Y-17027931D01*
X16221293Y-17102262D01*
X16266620Y-17167929D01*
X16367369Y-17257185D01*
X16404496Y-17316374D01*
X16403728Y-17386239D01*
X16367369Y-17442814D01*
X16266620Y-17532071D01*
X16266619Y-17532072D01*
X16169985Y-17672068D01*
X16109663Y-17831125D01*
X16109662Y-17831130D01*
X16089158Y-18000000D01*
X16109662Y-18168869D01*
X16109663Y-18168874D01*
X16169985Y-18327931D01*
X16219732Y-18400000D01*
X16266620Y-18467929D01*
X16367369Y-18557185D01*
X16404496Y-18616374D01*
X16403728Y-18686239D01*
X16367369Y-18742814D01*
X16348202Y-18759796D01*
X16266619Y-18832072D01*
X16169985Y-18972068D01*
X16109663Y-19131125D01*
X16109662Y-19131130D01*
X16089158Y-19300000D01*
X16109662Y-19468869D01*
X16109663Y-19468874D01*
X16169985Y-19627931D01*
X16232278Y-19718177D01*
X16266620Y-19767929D01*
X16367369Y-19857185D01*
X16404496Y-19916374D01*
X16403728Y-19986239D01*
X16367369Y-20042814D01*
X16266620Y-20132071D01*
X16266619Y-20132072D01*
X16169985Y-20272068D01*
X16109663Y-20431125D01*
X16109662Y-20431130D01*
X16089158Y-20600000D01*
X0Y-20600000D01*
X0Y-18400000D01*
X6789158Y-18400000D01*
X6809662Y-18568869D01*
X6809663Y-18568874D01*
X6869985Y-18727931D01*
X6932278Y-18818177D01*
X6966620Y-18867929D01*
X7039022Y-18932071D01*
X7093953Y-18980736D01*
X7244576Y-19059789D01*
X7244578Y-19059790D01*
X7409747Y-19100500D01*
X7579859Y-19100500D01*
X7745028Y-19059790D01*
X7824495Y-19018081D01*
X7895652Y-18980736D01*
X7895653Y-18980734D01*
X7895655Y-18980734D01*
X8022986Y-18867929D01*
X8119621Y-18727930D01*
X8179943Y-18568872D01*
X8200448Y-18400000D01*
X8179943Y-18231128D01*
X8119621Y-18072070D01*
X8117411Y-18068869D01*
X8069874Y-18000000D01*
X8022986Y-17932071D01*
X7909047Y-17831130D01*
X7895652Y-17819263D01*
X7745029Y-17740210D01*
X7579859Y-17699500D01*
X7409747Y-17699500D01*
X7244576Y-17740210D01*
X7093953Y-17819263D01*
X6966619Y-17932072D01*
X6869985Y-18072068D01*
X6809663Y-18231125D01*
X6809662Y-18231130D01*
X6789158Y-18400000D01*
X0Y-18400000D01*
X0Y-14347844D01*
X7794803Y-14347844D01*
X7801204Y-14407372D01*
X7801206Y-14407379D01*
X7851448Y-14542086D01*
X7851452Y-14542093D01*
X7937612Y-14657186D01*
X7986545Y-14693818D01*
X8028416Y-14749752D01*
X8033400Y-14819444D01*
X8029276Y-14834037D01*
X8009435Y-14890742D01*
X8009434Y-14890746D01*
X7989238Y-15069996D01*
X7989238Y-15070003D01*
X8009433Y-15249249D01*
X8009434Y-15249254D01*
X8069014Y-15419523D01*
X8164987Y-15572262D01*
X8164988Y-15572263D01*
X8210044Y-15617320D01*
X8243528Y-15678643D01*
X8238543Y-15748335D01*
X8210044Y-15792680D01*
X8164987Y-15837737D01*
X8069014Y-15990476D01*
X8009434Y-16160745D01*
X8009433Y-16160750D01*
X7989238Y-16339996D01*
X7989238Y-16340003D01*
X8009433Y-16519249D01*
X8009434Y-16519254D01*
X8069014Y-16689523D01*
X8125393Y-16779249D01*
X8164987Y-16842262D01*
X8292541Y-16969816D01*
X8445281Y-17065789D01*
X8549515Y-17102262D01*
X8615548Y-17125368D01*
X8615553Y-17125369D01*
X8794799Y-17145565D01*
X8794803Y-17145565D01*
X8794807Y-17145565D01*
X8974052Y-17125369D01*
X8974055Y-17125368D01*
X8974058Y-17125368D01*
X9144325Y-17065789D01*
X9297065Y-16969816D01*
X9424619Y-16842262D01*
X9520592Y-16689522D01*
X9580171Y-16519255D01*
X9580172Y-16519249D01*
X9600368Y-16340003D01*
X9600368Y-16339996D01*
X9580172Y-16160750D01*
X9580171Y-16160745D01*
X9558124Y-16097738D01*
X9520592Y-15990478D01*
X9507840Y-15970184D01*
X9455156Y-15886337D01*
X9424619Y-15837738D01*
X9379561Y-15792680D01*
X9346077Y-15731358D01*
X9351061Y-15661666D01*
X9379562Y-15617319D01*
X9424619Y-15572262D01*
X9520592Y-15419522D01*
X9580171Y-15249255D01*
X9589228Y-15168872D01*
X9600368Y-15070003D01*
X9600368Y-15069996D01*
X9580172Y-14890748D01*
X9560329Y-14834041D01*
X9558591Y-14800000D01*
X30589158Y-14800000D01*
X30609662Y-14968869D01*
X30609663Y-14968874D01*
X30669985Y-15127931D01*
X30732278Y-15218177D01*
X30766620Y-15267929D01*
X30834349Y-15327931D01*
X30893953Y-15380736D01*
X31044576Y-15459789D01*
X31044578Y-15459790D01*
X31209747Y-15500500D01*
X31379859Y-15500500D01*
X31545028Y-15459790D01*
X31624495Y-15418081D01*
X31695652Y-15380736D01*
X31695653Y-15380734D01*
X31695655Y-15380734D01*
X31822986Y-15267929D01*
X31919621Y-15127930D01*
X31968138Y-15000000D01*
X34189158Y-15000000D01*
X34209662Y-15168869D01*
X34209663Y-15168874D01*
X34269985Y-15327931D01*
X34311201Y-15387641D01*
X34366620Y-15467929D01*
X34472308Y-15561560D01*
X34493953Y-15580736D01*
X34640887Y-15657853D01*
X34644578Y-15659790D01*
X34809747Y-15700500D01*
X34979859Y-15700500D01*
X35140333Y-15660947D01*
X35163840Y-15661980D01*
X35178021Y-15643822D01*
X35192665Y-15634788D01*
X35225949Y-15617319D01*
X35295655Y-15580734D01*
X35422986Y-15467929D01*
X35442753Y-15439292D01*
X35497035Y-15395301D01*
X35566484Y-15387641D01*
X35629049Y-15418744D01*
X35646853Y-15439292D01*
X35666617Y-15467926D01*
X35666619Y-15467928D01*
X35666620Y-15467929D01*
X35793951Y-15580734D01*
X35793952Y-15580734D01*
X35793954Y-15580736D01*
X35794371Y-15581024D01*
X35794605Y-15581313D01*
X35799565Y-15585707D01*
X35798834Y-15586531D01*
X35838360Y-15635308D01*
X35846017Y-15704757D01*
X35814912Y-15767321D01*
X35754921Y-15803136D01*
X35710045Y-15806292D01*
X35604807Y-15794435D01*
X35604799Y-15794435D01*
X35425553Y-15814630D01*
X35425545Y-15814632D01*
X35291245Y-15861626D01*
X35256993Y-15863373D01*
X35235981Y-15886337D01*
X35102542Y-15970182D01*
X34974987Y-16097737D01*
X34879014Y-16250476D01*
X34819434Y-16420745D01*
X34819433Y-16420750D01*
X34799238Y-16599996D01*
X34799238Y-16600003D01*
X34819433Y-16779249D01*
X34819434Y-16779254D01*
X34879014Y-16949523D01*
X34952069Y-17065788D01*
X34974987Y-17102262D01*
X35102541Y-17229816D01*
X35192883Y-17286582D01*
X35244899Y-17319266D01*
X35255281Y-17325789D01*
X35420573Y-17383627D01*
X35425548Y-17385368D01*
X35425553Y-17385369D01*
X35604799Y-17405565D01*
X35604803Y-17405565D01*
X35604807Y-17405565D01*
X35784052Y-17385369D01*
X35784055Y-17385368D01*
X35784058Y-17385368D01*
X35954325Y-17325789D01*
X35964707Y-17319266D01*
X36006497Y-17293007D01*
X36073734Y-17274006D01*
X36140569Y-17294373D01*
X36160151Y-17310319D01*
X36202038Y-17352206D01*
X36304812Y-17397585D01*
X36329938Y-17400500D01*
X37419667Y-17400499D01*
X37419682Y-17400497D01*
X37419685Y-17400497D01*
X37444790Y-17397586D01*
X37444791Y-17397585D01*
X37444794Y-17397585D01*
X37547568Y-17352206D01*
X37627009Y-17272765D01*
X37672388Y-17169991D01*
X37675303Y-17144865D01*
X37675302Y-16055136D01*
X37673571Y-16040210D01*
X37672389Y-16030012D01*
X37672388Y-16030010D01*
X37672388Y-16030009D01*
X37627009Y-15927235D01*
X37591247Y-15891473D01*
X37557762Y-15830150D01*
X37562746Y-15760458D01*
X37604618Y-15704525D01*
X37649252Y-15683396D01*
X37745028Y-15659790D01*
X37895652Y-15580736D01*
X37895653Y-15580734D01*
X37895655Y-15580734D01*
X38022986Y-15467929D01*
X38119621Y-15327930D01*
X38179943Y-15168872D01*
X38200448Y-15000000D01*
X38179943Y-14831128D01*
X38119621Y-14672070D01*
X38109347Y-14657186D01*
X38073118Y-14604699D01*
X38022986Y-14532071D01*
X37895655Y-14419266D01*
X37895652Y-14419263D01*
X37745029Y-14340210D01*
X37601118Y-14304739D01*
X37540737Y-14269582D01*
X37508949Y-14207363D01*
X37515845Y-14137834D01*
X37543109Y-14096664D01*
X37567009Y-14072765D01*
X37612388Y-13969991D01*
X37615303Y-13944865D01*
X37615302Y-12933030D01*
X37634986Y-12865992D01*
X37687790Y-12820237D01*
X37756949Y-12810293D01*
X37820505Y-12839318D01*
X37855243Y-12889059D01*
X37858535Y-12897738D01*
X37869985Y-12927931D01*
X37911201Y-12987641D01*
X37966620Y-13067929D01*
X38034349Y-13127931D01*
X38093953Y-13180736D01*
X38230031Y-13252155D01*
X38244578Y-13259790D01*
X38409747Y-13300500D01*
X38579859Y-13300500D01*
X38745028Y-13259790D01*
X38824495Y-13218081D01*
X38895652Y-13180736D01*
X38895653Y-13180734D01*
X38895655Y-13180734D01*
X39022986Y-13067929D01*
X39042753Y-13039292D01*
X39097035Y-12995301D01*
X39166484Y-12987641D01*
X39229049Y-13018744D01*
X39246853Y-13039292D01*
X39266617Y-13067926D01*
X39393953Y-13180736D01*
X39530031Y-13252155D01*
X39544578Y-13259790D01*
X39709747Y-13300500D01*
X39879859Y-13300500D01*
X40045028Y-13259790D01*
X40124495Y-13218081D01*
X40195652Y-13180736D01*
X40195653Y-13180734D01*
X40195655Y-13180734D01*
X40322986Y-13067929D01*
X40419621Y-12927930D01*
X40473574Y-12785664D01*
X40515751Y-12729962D01*
X40581349Y-12705904D01*
X40649539Y-12721130D01*
X40691565Y-12759194D01*
X40766620Y-12867929D01*
X40851146Y-12942812D01*
X40893953Y-12980736D01*
X41040988Y-13057906D01*
X41044578Y-13059790D01*
X41209747Y-13100500D01*
X41379859Y-13100500D01*
X41545028Y-13059790D01*
X41624495Y-13018081D01*
X41695652Y-12980736D01*
X41695653Y-12980734D01*
X41695655Y-12980734D01*
X41822986Y-12867929D01*
X41892754Y-12766853D01*
X41947036Y-12722864D01*
X42016484Y-12715204D01*
X42079049Y-12746307D01*
X42096850Y-12766851D01*
X42133700Y-12820237D01*
X42166619Y-12867928D01*
X42293953Y-12980736D01*
X42440988Y-13057906D01*
X42444578Y-13059790D01*
X42609747Y-13100500D01*
X42779859Y-13100500D01*
X42945028Y-13059790D01*
X43024495Y-13018081D01*
X43095652Y-12980736D01*
X43095653Y-12980734D01*
X43095655Y-12980734D01*
X43222986Y-12867929D01*
X43319621Y-12727930D01*
X43379943Y-12568872D01*
X43400448Y-12400000D01*
X43379943Y-12231128D01*
X43375444Y-12219266D01*
X43319620Y-12072068D01*
X43283171Y-12019263D01*
X43222986Y-11932071D01*
X43122234Y-11842812D01*
X43085110Y-11783627D01*
X43085877Y-11713761D01*
X43122233Y-11657187D01*
X43222986Y-11567929D01*
X43319621Y-11427930D01*
X43379943Y-11268872D01*
X43400448Y-11100000D01*
X43379943Y-10931128D01*
X43319621Y-10772070D01*
X43222986Y-10632071D01*
X43095655Y-10519266D01*
X43095652Y-10519263D01*
X42945029Y-10440210D01*
X42779859Y-10399500D01*
X42609747Y-10399500D01*
X42444576Y-10440210D01*
X42293953Y-10519263D01*
X42166619Y-10632072D01*
X42069985Y-10772068D01*
X42009663Y-10931125D01*
X42009662Y-10931130D01*
X41989158Y-11100000D01*
X42009662Y-11268869D01*
X42009663Y-11268874D01*
X42069985Y-11427931D01*
X42132278Y-11518177D01*
X42166620Y-11567929D01*
X42267369Y-11657185D01*
X42304496Y-11716374D01*
X42303728Y-11786239D01*
X42267369Y-11842814D01*
X42166620Y-11932071D01*
X42096851Y-12033146D01*
X42042570Y-12077136D01*
X41973121Y-12084795D01*
X41910556Y-12053691D01*
X41892755Y-12033148D01*
X41822986Y-11932071D01*
X41695655Y-11819266D01*
X41695652Y-11819263D01*
X41545029Y-11740210D01*
X41379859Y-11699500D01*
X41209747Y-11699500D01*
X41044576Y-11740210D01*
X40893953Y-11819263D01*
X40766619Y-11932072D01*
X40669985Y-12072068D01*
X40669985Y-12072069D01*
X40616031Y-12214335D01*
X40573853Y-12270038D01*
X40508255Y-12294095D01*
X40440065Y-12278868D01*
X40398039Y-12240804D01*
X40391360Y-12231128D01*
X40322986Y-12132071D01*
X40255259Y-12072070D01*
X40195652Y-12019263D01*
X40045029Y-11940210D01*
X39879859Y-11899500D01*
X39709747Y-11899500D01*
X39544576Y-11940210D01*
X39393953Y-12019263D01*
X39266618Y-12132072D01*
X39246852Y-12160709D01*
X39192569Y-12204699D01*
X39123121Y-12212358D01*
X39060556Y-12181254D01*
X39042754Y-12160709D01*
X39022987Y-12132072D01*
X38895652Y-12019263D01*
X38745029Y-11940210D01*
X38579859Y-11899500D01*
X38409747Y-11899500D01*
X38244576Y-11940210D01*
X38093953Y-12019263D01*
X37966619Y-12132072D01*
X37869985Y-12272068D01*
X37809663Y-12431125D01*
X37809662Y-12431130D01*
X37789158Y-12600000D01*
X37794688Y-12645546D01*
X37783227Y-12714469D01*
X37736323Y-12766255D01*
X37668867Y-12784462D01*
X37602277Y-12763309D01*
X37569292Y-12730568D01*
X37567008Y-12727234D01*
X37487568Y-12647794D01*
X37384795Y-12602415D01*
X37359668Y-12599500D01*
X36269946Y-12599500D01*
X36269920Y-12599502D01*
X36244815Y-12602413D01*
X36244811Y-12602415D01*
X36142038Y-12647793D01*
X36142036Y-12647794D01*
X36100150Y-12689681D01*
X36038827Y-12723165D01*
X35969135Y-12718180D01*
X35946499Y-12706993D01*
X35894324Y-12674209D01*
X35724065Y-12614633D01*
X35724052Y-12614630D01*
X35544807Y-12594435D01*
X35544799Y-12594435D01*
X35365553Y-12614630D01*
X35365548Y-12614631D01*
X35195279Y-12674211D01*
X35042540Y-12770184D01*
X34914987Y-12897737D01*
X34819014Y-13050476D01*
X34759434Y-13220745D01*
X34759433Y-13220750D01*
X34739238Y-13399996D01*
X34739238Y-13400003D01*
X34759433Y-13579249D01*
X34759434Y-13579254D01*
X34819014Y-13749523D01*
X34877616Y-13842787D01*
X34914987Y-13902262D01*
X35042541Y-14029816D01*
X35110891Y-14072763D01*
X35137254Y-14089328D01*
X35183545Y-14141663D01*
X35194193Y-14210716D01*
X35165818Y-14274565D01*
X35107428Y-14312937D01*
X35041608Y-14314719D01*
X34979860Y-14299500D01*
X34979859Y-14299500D01*
X34809747Y-14299500D01*
X34644576Y-14340210D01*
X34493953Y-14419263D01*
X34366619Y-14532072D01*
X34269985Y-14672068D01*
X34209663Y-14831125D01*
X34209662Y-14831130D01*
X34189158Y-15000000D01*
X31968138Y-15000000D01*
X31979943Y-14968872D01*
X32000448Y-14800000D01*
X31979943Y-14631128D01*
X31919621Y-14472070D01*
X31822986Y-14332071D01*
X31714442Y-14235910D01*
X31695652Y-14219263D01*
X31545029Y-14140210D01*
X31379859Y-14099500D01*
X31209747Y-14099500D01*
X31044576Y-14140210D01*
X30893953Y-14219263D01*
X30766619Y-14332072D01*
X30669985Y-14472068D01*
X30609663Y-14631125D01*
X30609662Y-14631130D01*
X30589158Y-14800000D01*
X9558591Y-14800000D01*
X9556766Y-14764262D01*
X9591495Y-14703635D01*
X9603060Y-14693819D01*
X9651992Y-14657188D01*
X9651993Y-14657187D01*
X9738153Y-14542093D01*
X9738157Y-14542086D01*
X9788399Y-14407379D01*
X9788401Y-14407372D01*
X9794802Y-14347844D01*
X9794803Y-14347827D01*
X9794803Y-14050000D01*
X9004421Y-14050000D01*
X9054867Y-13999554D01*
X9097654Y-13925445D01*
X9119803Y-13842787D01*
X9119803Y-13757213D01*
X9097654Y-13674555D01*
X9054867Y-13600446D01*
X8994357Y-13539936D01*
X8920248Y-13497149D01*
X8837590Y-13475000D01*
X8752016Y-13475000D01*
X8669358Y-13497149D01*
X8595249Y-13539936D01*
X8534739Y-13600446D01*
X8491952Y-13674555D01*
X8469803Y-13757213D01*
X8469803Y-13842787D01*
X8491952Y-13925445D01*
X8534739Y-13999554D01*
X8585185Y-14050000D01*
X7794803Y-14050000D01*
X7794803Y-14347844D01*
X0Y-14347844D01*
X0Y-13550000D01*
X7794803Y-13550000D01*
X8544803Y-13550000D01*
X8544803Y-12800000D01*
X9044803Y-12800000D01*
X9044803Y-13550000D01*
X9794803Y-13550000D01*
X9794803Y-13252172D01*
X9794802Y-13252155D01*
X9788401Y-13192627D01*
X9788399Y-13192620D01*
X9738157Y-13057913D01*
X9738153Y-13057906D01*
X9651993Y-12942812D01*
X9651990Y-12942809D01*
X9536896Y-12856649D01*
X9536889Y-12856645D01*
X9402182Y-12806403D01*
X9402175Y-12806401D01*
X9342647Y-12800000D01*
X10089158Y-12800000D01*
X10109662Y-12968869D01*
X10109663Y-12968874D01*
X10169985Y-13127931D01*
X10214642Y-13192627D01*
X10266620Y-13267929D01*
X10372308Y-13361560D01*
X10393953Y-13380736D01*
X10544576Y-13459789D01*
X10544578Y-13459790D01*
X10709747Y-13500500D01*
X10879859Y-13500500D01*
X11045028Y-13459790D01*
X11124495Y-13418081D01*
X11195652Y-13380736D01*
X11195653Y-13380734D01*
X11195655Y-13380734D01*
X11322986Y-13267929D01*
X11419621Y-13127930D01*
X11479943Y-12968872D01*
X11500448Y-12800000D01*
X11479943Y-12631128D01*
X11419621Y-12472070D01*
X11322986Y-12332071D01*
X11228119Y-12248026D01*
X11195652Y-12219263D01*
X11045029Y-12140210D01*
X10879859Y-12099500D01*
X10709747Y-12099500D01*
X10544576Y-12140210D01*
X10393953Y-12219263D01*
X10266619Y-12332072D01*
X10169985Y-12472068D01*
X10109663Y-12631125D01*
X10109662Y-12631130D01*
X10089158Y-12800000D01*
X9342647Y-12800000D01*
X9044803Y-12800000D01*
X8544803Y-12800000D01*
X8246958Y-12800000D01*
X8187430Y-12806401D01*
X8187423Y-12806403D01*
X8052716Y-12856645D01*
X8052709Y-12856649D01*
X7937615Y-12942809D01*
X7937612Y-12942812D01*
X7851452Y-13057906D01*
X7851448Y-13057913D01*
X7801206Y-13192620D01*
X7801204Y-13192627D01*
X7794803Y-13252155D01*
X7794803Y-13550000D01*
X0Y-13550000D01*
X0Y-9000000D01*
X15889158Y-9000000D01*
X15909662Y-9168869D01*
X15909663Y-9168874D01*
X15969985Y-9327931D01*
X16011201Y-9387641D01*
X16066620Y-9467929D01*
X16172308Y-9561560D01*
X16193953Y-9580736D01*
X16344576Y-9659789D01*
X16344578Y-9659790D01*
X16509747Y-9700500D01*
X16679859Y-9700500D01*
X16845028Y-9659790D01*
X16924495Y-9618081D01*
X16995652Y-9580736D01*
X16995653Y-9580734D01*
X16995655Y-9580734D01*
X17122986Y-9467929D01*
X17142753Y-9439292D01*
X17197035Y-9395301D01*
X17266484Y-9387641D01*
X17329049Y-9418744D01*
X17346853Y-9439292D01*
X17366617Y-9467926D01*
X17493953Y-9580736D01*
X17644576Y-9659789D01*
X17644578Y-9659790D01*
X17809747Y-9700500D01*
X17979859Y-9700500D01*
X18145028Y-9659790D01*
X18224495Y-9618081D01*
X18295652Y-9580736D01*
X18295653Y-9580734D01*
X18295655Y-9580734D01*
X18422986Y-9467929D01*
X18442753Y-9439292D01*
X18497035Y-9395301D01*
X18566484Y-9387641D01*
X18629049Y-9418744D01*
X18646853Y-9439292D01*
X18666617Y-9467926D01*
X18793953Y-9580736D01*
X18944576Y-9659789D01*
X18944578Y-9659790D01*
X19109747Y-9700500D01*
X19279859Y-9700500D01*
X19445028Y-9659790D01*
X19524495Y-9618081D01*
X19595652Y-9580736D01*
X19595653Y-9580734D01*
X19595655Y-9580734D01*
X19722986Y-9467929D01*
X19742753Y-9439292D01*
X19797035Y-9395301D01*
X19866484Y-9387641D01*
X19929049Y-9418744D01*
X19946853Y-9439292D01*
X19966617Y-9467926D01*
X20093953Y-9580736D01*
X20244576Y-9659789D01*
X20244578Y-9659790D01*
X20409747Y-9700500D01*
X20579859Y-9700500D01*
X20745028Y-9659790D01*
X20824495Y-9618081D01*
X20895652Y-9580736D01*
X20895653Y-9580734D01*
X20895655Y-9580734D01*
X21022986Y-9467929D01*
X21042753Y-9439292D01*
X21097035Y-9395301D01*
X21166484Y-9387641D01*
X21229049Y-9418744D01*
X21246853Y-9439292D01*
X21266617Y-9467926D01*
X21393953Y-9580736D01*
X21544576Y-9659789D01*
X21544578Y-9659790D01*
X21709747Y-9700500D01*
X21879859Y-9700500D01*
X22045028Y-9659790D01*
X22124495Y-9618081D01*
X22195652Y-9580736D01*
X22195653Y-9580734D01*
X22195655Y-9580734D01*
X22322986Y-9467929D01*
X22342753Y-9439292D01*
X22397035Y-9395301D01*
X22466484Y-9387641D01*
X22529049Y-9418744D01*
X22546853Y-9439292D01*
X22566617Y-9467926D01*
X22693953Y-9580736D01*
X22844576Y-9659789D01*
X22844578Y-9659790D01*
X23009747Y-9700500D01*
X23179859Y-9700500D01*
X23345028Y-9659790D01*
X23424495Y-9618081D01*
X23495652Y-9580736D01*
X23495653Y-9580734D01*
X23495655Y-9580734D01*
X23622986Y-9467929D01*
X23692754Y-9366853D01*
X23747036Y-9322864D01*
X23816484Y-9315204D01*
X23879049Y-9346307D01*
X23896850Y-9366851D01*
X23906435Y-9380736D01*
X23966619Y-9467928D01*
X24093953Y-9580736D01*
X24244576Y-9659789D01*
X24244578Y-9659790D01*
X24409747Y-9700500D01*
X24579859Y-9700500D01*
X24745028Y-9659790D01*
X24824495Y-9618081D01*
X24895652Y-9580736D01*
X24895653Y-9580734D01*
X24895655Y-9580734D01*
X25022986Y-9467929D01*
X25042753Y-9439292D01*
X25097035Y-9395301D01*
X25166484Y-9387641D01*
X25229049Y-9418744D01*
X25246853Y-9439292D01*
X25266617Y-9467926D01*
X25393953Y-9580736D01*
X25544576Y-9659789D01*
X25544578Y-9659790D01*
X25709747Y-9700500D01*
X25879859Y-9700500D01*
X26045028Y-9659790D01*
X26124495Y-9618081D01*
X26195652Y-9580736D01*
X26195653Y-9580734D01*
X26195655Y-9580734D01*
X26322986Y-9467929D01*
X26342753Y-9439292D01*
X26397035Y-9395301D01*
X26466484Y-9387641D01*
X26529049Y-9418744D01*
X26546853Y-9439292D01*
X26566617Y-9467926D01*
X26693953Y-9580736D01*
X26844576Y-9659789D01*
X26844578Y-9659790D01*
X27009747Y-9700500D01*
X27179859Y-9700500D01*
X27345028Y-9659790D01*
X27424495Y-9618081D01*
X27495652Y-9580736D01*
X27495653Y-9580734D01*
X27495655Y-9580734D01*
X27622986Y-9467929D01*
X27719621Y-9327930D01*
X27779943Y-9168872D01*
X27800448Y-9000000D01*
X27779943Y-8831128D01*
X27768138Y-8800000D01*
X45794355Y-8800000D01*
X45814859Y-8968869D01*
X45814860Y-8968874D01*
X45875182Y-9127931D01*
X45916398Y-9187641D01*
X45971817Y-9267929D01*
X46039546Y-9327931D01*
X46099150Y-9380736D01*
X46249773Y-9459789D01*
X46249775Y-9459790D01*
X46414944Y-9500500D01*
X46585056Y-9500500D01*
X46750225Y-9459790D01*
X46829692Y-9418081D01*
X46900849Y-9380736D01*
X46900850Y-9380734D01*
X46900852Y-9380734D01*
X47028183Y-9267929D01*
X47047950Y-9239292D01*
X47102232Y-9195301D01*
X47171681Y-9187641D01*
X47234246Y-9218744D01*
X47252050Y-9239292D01*
X47271814Y-9267926D01*
X47399150Y-9380736D01*
X47549773Y-9459789D01*
X47549775Y-9459790D01*
X47714944Y-9500500D01*
X47885056Y-9500500D01*
X48050225Y-9459790D01*
X48129692Y-9418081D01*
X48200849Y-9380736D01*
X48200850Y-9380734D01*
X48200852Y-9380734D01*
X48328183Y-9267929D01*
X48347950Y-9239292D01*
X48402232Y-9195301D01*
X48471681Y-9187641D01*
X48534246Y-9218744D01*
X48552050Y-9239292D01*
X48571814Y-9267926D01*
X48699150Y-9380736D01*
X48849773Y-9459789D01*
X48849775Y-9459790D01*
X49014944Y-9500500D01*
X49185056Y-9500500D01*
X49350225Y-9459790D01*
X49429692Y-9418081D01*
X49500849Y-9380736D01*
X49500850Y-9380734D01*
X49500852Y-9380734D01*
X49628183Y-9267929D01*
X49724818Y-9127930D01*
X49785140Y-8968872D01*
X49805645Y-8800000D01*
X49785140Y-8631128D01*
X49724818Y-8472070D01*
X49628183Y-8332071D01*
X49527431Y-8242812D01*
X49490307Y-8183627D01*
X49491074Y-8113761D01*
X49527430Y-8057187D01*
X49628183Y-7967929D01*
X49724818Y-7827930D01*
X49785140Y-7668872D01*
X49805645Y-7500000D01*
X49785140Y-7331128D01*
X49724818Y-7172070D01*
X49628183Y-7032071D01*
X49500852Y-6919266D01*
X49500849Y-6919263D01*
X49350226Y-6840210D01*
X49185056Y-6799500D01*
X49014944Y-6799500D01*
X48849773Y-6840210D01*
X48699150Y-6919263D01*
X48571815Y-7032072D01*
X48552049Y-7060709D01*
X48497766Y-7104699D01*
X48428318Y-7112358D01*
X48365753Y-7081254D01*
X48347951Y-7060709D01*
X48328184Y-7032072D01*
X48327118Y-7031128D01*
X48200852Y-6919266D01*
X48200849Y-6919263D01*
X48050226Y-6840210D01*
X47885056Y-6799500D01*
X47714944Y-6799500D01*
X47549773Y-6840210D01*
X47399150Y-6919263D01*
X47271815Y-7032072D01*
X47252049Y-7060709D01*
X47197766Y-7104699D01*
X47128318Y-7112358D01*
X47065753Y-7081254D01*
X47047951Y-7060709D01*
X47028184Y-7032072D01*
X47027118Y-7031128D01*
X46900852Y-6919266D01*
X46900849Y-6919263D01*
X46750226Y-6840210D01*
X46585056Y-6799500D01*
X46414944Y-6799500D01*
X46249773Y-6840210D01*
X46099150Y-6919263D01*
X45982638Y-7022484D01*
X45972882Y-7031128D01*
X45971816Y-7032072D01*
X45875182Y-7172068D01*
X45814860Y-7331125D01*
X45814859Y-7331130D01*
X45794355Y-7500000D01*
X45814859Y-7668869D01*
X45814860Y-7668874D01*
X45875182Y-7827931D01*
X45916398Y-7887641D01*
X45971817Y-7967929D01*
X46072566Y-8057185D01*
X46109693Y-8116374D01*
X46108925Y-8186239D01*
X46072566Y-8242814D01*
X46008582Y-8299500D01*
X45971816Y-8332072D01*
X45875182Y-8472068D01*
X45814860Y-8631125D01*
X45814859Y-8631130D01*
X45794355Y-8800000D01*
X27768138Y-8800000D01*
X27719621Y-8672070D01*
X27716761Y-8667927D01*
X27673118Y-8604699D01*
X27622986Y-8532071D01*
X27495655Y-8419266D01*
X27495652Y-8419263D01*
X27345029Y-8340210D01*
X27179859Y-8299500D01*
X27009747Y-8299500D01*
X26844576Y-8340210D01*
X26693953Y-8419263D01*
X26566618Y-8532072D01*
X26546852Y-8560709D01*
X26492569Y-8604699D01*
X26423121Y-8612358D01*
X26360556Y-8581254D01*
X26342754Y-8560709D01*
X26322987Y-8532072D01*
X26195652Y-8419263D01*
X26045029Y-8340210D01*
X25879859Y-8299500D01*
X25709747Y-8299500D01*
X25544576Y-8340210D01*
X25393953Y-8419263D01*
X25266618Y-8532072D01*
X25246852Y-8560709D01*
X25192569Y-8604699D01*
X25123121Y-8612358D01*
X25060556Y-8581254D01*
X25042754Y-8560709D01*
X25022987Y-8532072D01*
X24895652Y-8419263D01*
X24745029Y-8340210D01*
X24579859Y-8299500D01*
X24409747Y-8299500D01*
X24244576Y-8340210D01*
X24093953Y-8419263D01*
X24034347Y-8472070D01*
X23966620Y-8532071D01*
X23896851Y-8633146D01*
X23842570Y-8677136D01*
X23773121Y-8684795D01*
X23710556Y-8653691D01*
X23692755Y-8633148D01*
X23622986Y-8532071D01*
X23495655Y-8419266D01*
X23495652Y-8419263D01*
X23345029Y-8340210D01*
X23179859Y-8299500D01*
X23009747Y-8299500D01*
X22844576Y-8340210D01*
X22693953Y-8419263D01*
X22566618Y-8532072D01*
X22546852Y-8560709D01*
X22492569Y-8604699D01*
X22423121Y-8612358D01*
X22360556Y-8581254D01*
X22342754Y-8560709D01*
X22322987Y-8532072D01*
X22195652Y-8419263D01*
X22045029Y-8340210D01*
X21879859Y-8299500D01*
X21709747Y-8299500D01*
X21544576Y-8340210D01*
X21393953Y-8419263D01*
X21266618Y-8532072D01*
X21246852Y-8560709D01*
X21192569Y-8604699D01*
X21123121Y-8612358D01*
X21060556Y-8581254D01*
X21042754Y-8560709D01*
X21022987Y-8532072D01*
X20895652Y-8419263D01*
X20745029Y-8340210D01*
X20579859Y-8299500D01*
X20409747Y-8299500D01*
X20244576Y-8340210D01*
X20093953Y-8419263D01*
X19966618Y-8532072D01*
X19946852Y-8560709D01*
X19892569Y-8604699D01*
X19823121Y-8612358D01*
X19760556Y-8581254D01*
X19742754Y-8560709D01*
X19722987Y-8532072D01*
X19595652Y-8419263D01*
X19445029Y-8340210D01*
X19279859Y-8299500D01*
X19109747Y-8299500D01*
X18944576Y-8340210D01*
X18793953Y-8419263D01*
X18666618Y-8532072D01*
X18646852Y-8560709D01*
X18592569Y-8604699D01*
X18523121Y-8612358D01*
X18460556Y-8581254D01*
X18442754Y-8560709D01*
X18422987Y-8532072D01*
X18295652Y-8419263D01*
X18145029Y-8340210D01*
X17979859Y-8299500D01*
X17809747Y-8299500D01*
X17644576Y-8340210D01*
X17493953Y-8419263D01*
X17366618Y-8532072D01*
X17346852Y-8560709D01*
X17292569Y-8604699D01*
X17223121Y-8612358D01*
X17160556Y-8581254D01*
X17142754Y-8560709D01*
X17122987Y-8532072D01*
X16995652Y-8419263D01*
X16845029Y-8340210D01*
X16679859Y-8299500D01*
X16509747Y-8299500D01*
X16344576Y-8340210D01*
X16193953Y-8419263D01*
X16066619Y-8532072D01*
X15969985Y-8672068D01*
X15909663Y-8831125D01*
X15909662Y-8831130D01*
X15889158Y-9000000D01*
X0Y-9000000D01*
X0Y-8200000D01*
X8819158Y-8200000D01*
X8839662Y-8368869D01*
X8839663Y-8368874D01*
X8899985Y-8527931D01*
X8936792Y-8581254D01*
X8996620Y-8667929D01*
X9076245Y-8738470D01*
X9123953Y-8780736D01*
X9274576Y-8859789D01*
X9274578Y-8859790D01*
X9439747Y-8900500D01*
X9609859Y-8900500D01*
X9775028Y-8859790D01*
X9888947Y-8800000D01*
X9925652Y-8780736D01*
X9925653Y-8780734D01*
X9925655Y-8780734D01*
X10052986Y-8667929D01*
X10149621Y-8527930D01*
X10209943Y-8368872D01*
X10230448Y-8200000D01*
X10209943Y-8031128D01*
X10149621Y-7872070D01*
X10052986Y-7732071D01*
X9925655Y-7619266D01*
X9925652Y-7619263D01*
X9775029Y-7540210D01*
X9609859Y-7499500D01*
X9439747Y-7499500D01*
X9274576Y-7540210D01*
X9123953Y-7619263D01*
X8996619Y-7732072D01*
X8899985Y-7872068D01*
X8839663Y-8031125D01*
X8839662Y-8031130D01*
X8819158Y-8200000D01*
X0Y-8200000D01*
X0Y-7200000D01*
X19819158Y-7200000D01*
X19839662Y-7368869D01*
X19839663Y-7368874D01*
X19899985Y-7527931D01*
X19908461Y-7540210D01*
X19996620Y-7667929D01*
X20069022Y-7732071D01*
X20123953Y-7780736D01*
X20213874Y-7827930D01*
X20274578Y-7859790D01*
X20439747Y-7900500D01*
X20609859Y-7900500D01*
X20775028Y-7859790D01*
X20854495Y-7818081D01*
X20925652Y-7780736D01*
X20925653Y-7780734D01*
X20925655Y-7780734D01*
X21052986Y-7667929D01*
X21149621Y-7527930D01*
X21209943Y-7368872D01*
X21230448Y-7200000D01*
X21209943Y-7031128D01*
X21149621Y-6872070D01*
X21127629Y-6840210D01*
X21099529Y-6799500D01*
X21052986Y-6732071D01*
X20925655Y-6619266D01*
X20925652Y-6619263D01*
X20775029Y-6540210D01*
X20609859Y-6499500D01*
X20439747Y-6499500D01*
X20274576Y-6540210D01*
X20123953Y-6619263D01*
X19996619Y-6732072D01*
X19899985Y-6872068D01*
X19839663Y-7031125D01*
X19839662Y-7031130D01*
X19819158Y-7200000D01*
X0Y-7200000D01*
X0Y-3106286D01*
X849500Y-3106286D01*
X877426Y-3282607D01*
X882754Y-3316243D01*
X938460Y-3487689D01*
X948444Y-3518414D01*
X1044951Y-3707820D01*
X1169890Y-3879786D01*
X1320213Y-4030109D01*
X1492179Y-4155048D01*
X1492181Y-4155049D01*
X1492184Y-4155051D01*
X1681588Y-4251557D01*
X1883757Y-4317246D01*
X2093713Y-4350500D01*
X2093714Y-4350500D01*
X2306286Y-4350500D01*
X2306287Y-4350500D01*
X2516243Y-4317246D01*
X2718412Y-4251557D01*
X2907816Y-4155051D01*
X2959654Y-4117389D01*
X3079786Y-4030109D01*
X3079788Y-4030106D01*
X3079792Y-4030104D01*
X3230104Y-3879792D01*
X3230106Y-3879788D01*
X3230109Y-3879786D01*
X3355048Y-3707820D01*
X3355047Y-3707820D01*
X3355051Y-3707816D01*
X3359033Y-3700000D01*
X37464571Y-3700000D01*
X37484244Y-3912310D01*
X37542596Y-4117392D01*
X37542596Y-4117394D01*
X37637632Y-4308253D01*
X37669536Y-4350500D01*
X37766128Y-4478407D01*
X37923698Y-4622052D01*
X38104981Y-4734298D01*
X38303802Y-4811321D01*
X38513390Y-4850500D01*
X38513392Y-4850500D01*
X38726608Y-4850500D01*
X38726610Y-4850500D01*
X38936198Y-4811321D01*
X39135019Y-4734298D01*
X39316302Y-4622052D01*
X39473872Y-4478407D01*
X39602366Y-4308255D01*
X39678652Y-4155051D01*
X39697403Y-4117394D01*
X39697403Y-4117393D01*
X39697405Y-4117389D01*
X39755756Y-3912310D01*
X39766529Y-3796047D01*
X39792315Y-3731111D01*
X39834622Y-3700804D01*
X39943130Y-3700804D01*
X39979503Y-3721668D01*
X40011693Y-3783681D01*
X40013471Y-3796048D01*
X40024244Y-3912310D01*
X40082596Y-4117392D01*
X40082596Y-4117394D01*
X40177632Y-4308253D01*
X40209536Y-4350500D01*
X40306128Y-4478407D01*
X40463698Y-4622052D01*
X40644981Y-4734298D01*
X40843802Y-4811321D01*
X41053390Y-4850500D01*
X41053392Y-4850500D01*
X41266608Y-4850500D01*
X41266610Y-4850500D01*
X41476198Y-4811321D01*
X41675019Y-4734298D01*
X41856302Y-4622052D01*
X42013872Y-4478407D01*
X42142366Y-4308255D01*
X42218652Y-4155051D01*
X42237403Y-4117394D01*
X42237403Y-4117393D01*
X42237405Y-4117389D01*
X42295756Y-3912310D01*
X42302029Y-3844605D01*
X42327814Y-3779669D01*
X42384614Y-3738981D01*
X42454395Y-3735461D01*
X42515002Y-3770225D01*
X42547193Y-3832238D01*
X42549500Y-3856047D01*
X42549500Y-4594856D01*
X42549502Y-4594882D01*
X42552413Y-4619987D01*
X42552415Y-4619991D01*
X42597793Y-4722764D01*
X42597794Y-4722765D01*
X42677235Y-4802206D01*
X42780009Y-4847585D01*
X42805135Y-4850500D01*
X44594864Y-4850499D01*
X44594879Y-4850497D01*
X44594882Y-4850497D01*
X44619987Y-4847586D01*
X44619988Y-4847585D01*
X44619991Y-4847585D01*
X44722765Y-4802206D01*
X44802206Y-4722765D01*
X44847585Y-4619991D01*
X44850500Y-4594865D01*
X44850499Y-3106286D01*
X48549500Y-3106286D01*
X48577426Y-3282607D01*
X48582754Y-3316243D01*
X48638460Y-3487689D01*
X48648444Y-3518414D01*
X48744951Y-3707820D01*
X48869890Y-3879786D01*
X49020213Y-4030109D01*
X49192179Y-4155048D01*
X49192181Y-4155049D01*
X49192184Y-4155051D01*
X49381588Y-4251557D01*
X49583757Y-4317246D01*
X49793713Y-4350500D01*
X49793714Y-4350500D01*
X50006286Y-4350500D01*
X50006287Y-4350500D01*
X50216243Y-4317246D01*
X50418412Y-4251557D01*
X50607816Y-4155051D01*
X50659654Y-4117389D01*
X50779786Y-4030109D01*
X50779788Y-4030106D01*
X50779792Y-4030104D01*
X50930104Y-3879792D01*
X50930106Y-3879788D01*
X50930109Y-3879786D01*
X51055048Y-3707820D01*
X51055047Y-3707820D01*
X51055051Y-3707816D01*
X51151557Y-3518412D01*
X51217246Y-3316243D01*
X51250500Y-3106287D01*
X51250500Y-2893713D01*
X51217246Y-2683757D01*
X51151557Y-2481588D01*
X51055051Y-2292184D01*
X51055049Y-2292181D01*
X51055048Y-2292179D01*
X50930109Y-2120213D01*
X50779786Y-1969890D01*
X50607820Y-1844951D01*
X50418414Y-1748444D01*
X50418413Y-1748443D01*
X50418412Y-1748443D01*
X50216243Y-1682754D01*
X50216241Y-1682753D01*
X50216240Y-1682753D01*
X50054957Y-1657208D01*
X50006287Y-1649500D01*
X49793713Y-1649500D01*
X49745042Y-1657208D01*
X49583760Y-1682753D01*
X49381585Y-1748444D01*
X49192179Y-1844951D01*
X49020213Y-1969890D01*
X48869890Y-2120213D01*
X48744951Y-2292179D01*
X48648444Y-2481585D01*
X48582753Y-2683760D01*
X48549500Y-2893713D01*
X48549500Y-3106286D01*
X44850499Y-3106286D01*
X44850499Y-2805136D01*
X44850497Y-2805117D01*
X44847586Y-2780012D01*
X44847585Y-2780010D01*
X44847585Y-2780009D01*
X44802206Y-2677235D01*
X44722765Y-2597794D01*
X44702124Y-2588680D01*
X44619992Y-2552415D01*
X44594865Y-2549500D01*
X42805143Y-2549500D01*
X42805117Y-2549502D01*
X42780012Y-2552413D01*
X42780008Y-2552415D01*
X42677235Y-2597793D01*
X42597794Y-2677234D01*
X42552415Y-2780006D01*
X42552415Y-2780008D01*
X42549500Y-2805131D01*
X42549500Y-3543951D01*
X42529815Y-3610990D01*
X42477011Y-3656745D01*
X42407853Y-3666689D01*
X42344297Y-3637664D01*
X42306523Y-3578886D01*
X42302029Y-3555391D01*
X42295756Y-3487689D01*
X42246974Y-3316243D01*
X42237405Y-3282611D01*
X42237403Y-3282606D01*
X42237403Y-3282605D01*
X42142367Y-3091746D01*
X42013872Y-2921593D01*
X41886133Y-2805143D01*
X41856302Y-2777948D01*
X41675019Y-2665702D01*
X41675017Y-2665701D01*
X41575608Y-2627190D01*
X41476198Y-2588679D01*
X41266610Y-2549500D01*
X41053390Y-2549500D01*
X40843802Y-2588679D01*
X40843799Y-2588679D01*
X40843799Y-2588680D01*
X40644982Y-2665701D01*
X40644980Y-2665702D01*
X40463699Y-2777947D01*
X40306127Y-2921593D01*
X40177632Y-3091746D01*
X40082596Y-3282605D01*
X40082596Y-3282607D01*
X40024244Y-3487689D01*
X40013471Y-3603951D01*
X39987685Y-3668888D01*
X39943130Y-3700804D01*
X39834622Y-3700804D01*
X39836869Y-3699194D01*
X39800497Y-3678331D01*
X39768307Y-3616318D01*
X39766529Y-3603951D01*
X39760969Y-3543951D01*
X39755756Y-3487690D01*
X39697405Y-3282611D01*
X39697403Y-3282606D01*
X39697403Y-3282605D01*
X39602367Y-3091746D01*
X39473872Y-2921593D01*
X39346133Y-2805143D01*
X39316302Y-2777948D01*
X39135019Y-2665702D01*
X39135017Y-2665701D01*
X39035608Y-2627190D01*
X38936198Y-2588679D01*
X38726610Y-2549500D01*
X38513390Y-2549500D01*
X38303802Y-2588679D01*
X38303799Y-2588679D01*
X38303799Y-2588680D01*
X38104982Y-2665701D01*
X38104980Y-2665702D01*
X37923699Y-2777947D01*
X37766127Y-2921593D01*
X37637632Y-3091746D01*
X37542596Y-3282605D01*
X37542596Y-3282607D01*
X37484244Y-3487689D01*
X37464571Y-3699999D01*
X37464571Y-3700000D01*
X3359033Y-3700000D01*
X3451557Y-3518412D01*
X3517246Y-3316243D01*
X3550500Y-3106287D01*
X3550500Y-2893713D01*
X3517246Y-2683757D01*
X3451557Y-2481588D01*
X3355051Y-2292184D01*
X3355049Y-2292181D01*
X3355048Y-2292179D01*
X3230109Y-2120213D01*
X3079786Y-1969890D01*
X2907820Y-1844951D01*
X2718414Y-1748444D01*
X2718413Y-1748443D01*
X2718412Y-1748443D01*
X2516243Y-1682754D01*
X2516241Y-1682753D01*
X2516240Y-1682753D01*
X2354957Y-1657208D01*
X2306287Y-1649500D01*
X2093713Y-1649500D01*
X2045042Y-1657208D01*
X1883760Y-1682753D01*
X1681585Y-1748444D01*
X1492179Y-1844951D01*
X1320213Y-1969890D01*
X1169890Y-2120213D01*
X1044951Y-2292179D01*
X948444Y-2481585D01*
X882753Y-2683760D01*
X849500Y-2893713D01*
X849500Y-3106286D01*
X0Y-3106286D01*
X0Y-124000D01*
X19685Y-56961D01*
X72489Y-11206D01*
X124000Y0D01*
X52076000Y0D01*
X52143039Y-19685D01*
G37*
G04 #@! TD.AperFunction*
M02*
