%TF.GenerationSoftware,KiCad,Pcbnew,(7.0.0)*%
%TF.CreationDate,2024-02-23T23:29:38+02:00*%
%TF.ProjectId,mains-detector,6d61696e-732d-4646-9574-6563746f722e,rev?*%
%TF.SameCoordinates,Original*%
%TF.FileFunction,Soldermask,Top*%
%TF.FilePolarity,Negative*%
%FSLAX46Y46*%
G04 Gerber Fmt 4.6, Leading zero omitted, Abs format (unit mm)*
G04 Created by KiCad (PCBNEW (7.0.0)) date 2024-02-23 23:29:38*
%MOMM*%
%LPD*%
G01*
G04 APERTURE LIST*
G04 Aperture macros list*
%AMRoundRect*
0 Rectangle with rounded corners*
0 $1 Rounding radius*
0 $2 $3 $4 $5 $6 $7 $8 $9 X,Y pos of 4 corners*
0 Add a 4 corners polygon primitive as box body*
4,1,4,$2,$3,$4,$5,$6,$7,$8,$9,$2,$3,0*
0 Add four circle primitives for the rounded corners*
1,1,$1+$1,$2,$3*
1,1,$1+$1,$4,$5*
1,1,$1+$1,$6,$7*
1,1,$1+$1,$8,$9*
0 Add four rect primitives between the rounded corners*
20,1,$1+$1,$2,$3,$4,$5,0*
20,1,$1+$1,$4,$5,$6,$7,0*
20,1,$1+$1,$6,$7,$8,$9,0*
20,1,$1+$1,$8,$9,$2,$3,0*%
%AMFreePoly0*
4,1,19,0.500000,-0.750000,0.000000,-0.750000,0.000000,-0.744911,-0.071157,-0.744911,-0.207708,-0.704816,-0.327430,-0.627875,-0.420627,-0.520320,-0.479746,-0.390866,-0.500000,-0.250000,-0.500000,0.250000,-0.479746,0.390866,-0.420627,0.520320,-0.327430,0.627875,-0.207708,0.704816,-0.071157,0.744911,0.000000,0.744911,0.000000,0.750000,0.500000,0.750000,0.500000,-0.750000,0.500000,-0.750000,
$1*%
%AMFreePoly1*
4,1,19,0.000000,0.744911,0.071157,0.744911,0.207708,0.704816,0.327430,0.627875,0.420627,0.520320,0.479746,0.390866,0.500000,0.250000,0.500000,-0.250000,0.479746,-0.390866,0.420627,-0.520320,0.327430,-0.627875,0.207708,-0.704816,0.071157,-0.744911,0.000000,-0.744911,0.000000,-0.750000,-0.500000,-0.750000,-0.500000,0.750000,0.000000,0.750000,0.000000,0.744911,0.000000,0.744911,
$1*%
G04 Aperture macros list end*
%ADD10RoundRect,0.140000X0.140000X0.170000X-0.140000X0.170000X-0.140000X-0.170000X0.140000X-0.170000X0*%
%ADD11RoundRect,0.135000X-0.185000X0.135000X-0.185000X-0.135000X0.185000X-0.135000X0.185000X0.135000X0*%
%ADD12C,2.200000*%
%ADD13RoundRect,0.150000X-0.825000X-0.150000X0.825000X-0.150000X0.825000X0.150000X-0.825000X0.150000X0*%
%ADD14RoundRect,0.218750X-0.218750X-0.256250X0.218750X-0.256250X0.218750X0.256250X-0.218750X0.256250X0*%
%ADD15RoundRect,0.135000X0.185000X-0.135000X0.185000X0.135000X-0.185000X0.135000X-0.185000X-0.135000X0*%
%ADD16RoundRect,0.150000X-0.587500X-0.150000X0.587500X-0.150000X0.587500X0.150000X-0.587500X0.150000X0*%
%ADD17FreePoly0,0.000000*%
%ADD18FreePoly1,0.000000*%
%ADD19RoundRect,0.225000X0.250000X-0.225000X0.250000X0.225000X-0.250000X0.225000X-0.250000X-0.225000X0*%
%ADD20RoundRect,0.135000X0.135000X0.185000X-0.135000X0.185000X-0.135000X-0.185000X0.135000X-0.185000X0*%
%ADD21RoundRect,0.150000X0.150000X-0.587500X0.150000X0.587500X-0.150000X0.587500X-0.150000X-0.587500X0*%
%ADD22R,1.000000X1.000000*%
%ADD23O,1.000000X1.000000*%
%ADD24RoundRect,0.140000X0.170000X-0.140000X0.170000X0.140000X-0.170000X0.140000X-0.170000X-0.140000X0*%
%ADD25RoundRect,0.140000X-0.170000X0.140000X-0.170000X-0.140000X0.170000X-0.140000X0.170000X0.140000X0*%
%ADD26RoundRect,0.250000X0.312500X0.275000X-0.312500X0.275000X-0.312500X-0.275000X0.312500X-0.275000X0*%
%ADD27R,0.431800X1.193800*%
%ADD28R,0.482600X1.193800*%
%ADD29RoundRect,0.250000X-0.537500X-0.425000X0.537500X-0.425000X0.537500X0.425000X-0.537500X0.425000X0*%
%ADD30FreePoly0,90.000000*%
%ADD31FreePoly1,90.000000*%
%ADD32RoundRect,0.140000X-0.140000X-0.170000X0.140000X-0.170000X0.140000X0.170000X-0.140000X0.170000X0*%
%ADD33RoundRect,0.225000X0.375000X-0.225000X0.375000X0.225000X-0.375000X0.225000X-0.375000X-0.225000X0*%
%ADD34RoundRect,0.135000X-0.135000X-0.185000X0.135000X-0.185000X0.135000X0.185000X-0.135000X0.185000X0*%
%ADD35RoundRect,0.250000X0.537500X0.425000X-0.537500X0.425000X-0.537500X-0.425000X0.537500X-0.425000X0*%
%ADD36R,0.977900X0.508000*%
%ADD37FreePoly0,270.000000*%
%ADD38FreePoly1,270.000000*%
%ADD39R,1.500000X1.500000*%
%ADD40R,0.400000X1.600000*%
%ADD41C,1.300000*%
%ADD42O,1.300000X1.800000*%
%ADD43R,1.800000X1.100000*%
G04 APERTURE END LIST*
%TO.C,U1*%
G36*
X43639800Y-23225300D02*
G01*
X44198600Y-23784100D01*
X44198600Y-26070100D01*
X42598400Y-26070100D01*
X42598400Y-23784100D01*
X43157200Y-23225300D01*
X43157200Y-22971300D01*
X43639800Y-22971300D01*
X43639800Y-23225300D01*
G37*
%TD*%
D10*
%TO.C,C1*%
X18747000Y-7076500D03*
X17787000Y-7076500D03*
%TD*%
D11*
%TO.C,R9*%
X14320000Y-9290000D03*
X14320000Y-10310000D03*
%TD*%
D12*
%TO.C,H3*%
X49900000Y-28100000D03*
%TD*%
D13*
%TO.C,U3*%
X28570000Y-23330000D03*
X28570000Y-24600000D03*
X28570000Y-25870000D03*
X28570000Y-27140000D03*
X33520000Y-27140000D03*
X33520000Y-25870000D03*
X33520000Y-24600000D03*
X33520000Y-23330000D03*
%TD*%
D14*
%TO.C,D1*%
X39382500Y-6500000D03*
X40957500Y-6500000D03*
%TD*%
D11*
%TO.C,R3*%
X14070000Y-14390000D03*
X14070000Y-15410000D03*
%TD*%
D15*
%TO.C,R4*%
X38070000Y-7410000D03*
X38070000Y-6390000D03*
%TD*%
D16*
%TO.C,Q1*%
X24320000Y-27250000D03*
X24320000Y-29150000D03*
X26195000Y-28200000D03*
%TD*%
D17*
%TO.C,JP3*%
X37370000Y-23300000D03*
D18*
X38670000Y-23300000D03*
%TD*%
D19*
%TO.C,C8*%
X37290000Y-10675000D03*
X37290000Y-9125000D03*
%TD*%
D20*
%TO.C,R6*%
X38270000Y-5000000D03*
X37250000Y-5000000D03*
%TD*%
%TO.C,R7*%
X36380000Y-5000000D03*
X35360000Y-5000000D03*
%TD*%
D21*
%TO.C,Q2*%
X9920000Y-20675000D03*
X11820000Y-20675000D03*
X10870000Y-18800000D03*
%TD*%
D22*
%TO.C,J3*%
X24759999Y-24799999D03*
D23*
X23489999Y-24799999D03*
X22219999Y-24799999D03*
X20949999Y-24799999D03*
%TD*%
D15*
%TO.C,R5*%
X42290000Y-7510000D03*
X42290000Y-6490000D03*
%TD*%
D22*
%TO.C,J4*%
X28969999Y-29299999D03*
%TD*%
%TO.C,J2*%
X10969999Y-13799999D03*
D23*
X10969999Y-15069999D03*
X10969999Y-16339999D03*
%TD*%
D24*
%TO.C,C7*%
X43320000Y-10780000D03*
X43320000Y-9820000D03*
%TD*%
D25*
%TO.C,C9*%
X35670000Y-22320000D03*
X35670000Y-23280000D03*
%TD*%
D22*
%TO.C,SW2*%
X39049999Y-16599999D03*
D23*
X37779999Y-16599999D03*
%TD*%
D26*
%TO.C,C10*%
X35157500Y-29200000D03*
X33382500Y-29200000D03*
%TD*%
D27*
%TO.C,U1*%
X44898499Y-22374399D03*
D28*
X43398499Y-22374399D03*
D27*
X41898499Y-22374399D03*
%TD*%
D20*
%TO.C,R1*%
X34280000Y-7000000D03*
X33260000Y-7000000D03*
%TD*%
D29*
%TO.C,C2*%
X18279500Y-5376500D03*
X21154500Y-5376500D03*
%TD*%
D15*
%TO.C,R10*%
X11770000Y-10360000D03*
X11770000Y-9340000D03*
%TD*%
D20*
%TO.C,R12*%
X14870000Y-11900000D03*
X13850000Y-11900000D03*
%TD*%
D30*
%TO.C,JP2*%
X14170000Y-21950000D03*
D31*
X14170000Y-20650000D03*
%TD*%
D12*
%TO.C,H4*%
X2200000Y-28100000D03*
%TD*%
D32*
%TO.C,C5*%
X43390000Y-20800000D03*
X44350000Y-20800000D03*
%TD*%
D33*
%TO.C,D3*%
X41470000Y-17400000D03*
X41470000Y-14100000D03*
%TD*%
D34*
%TO.C,R17*%
X35610000Y-25700000D03*
X36630000Y-25700000D03*
%TD*%
D35*
%TO.C,C4*%
X40770000Y-19600000D03*
X37895000Y-19600000D03*
%TD*%
D22*
%TO.C,BT1*%
X38989999Y-13399999D03*
D23*
X37719999Y-13399999D03*
%TD*%
D10*
%TO.C,C6*%
X39150000Y-21500000D03*
X38190000Y-21500000D03*
%TD*%
D36*
%TO.C,U2*%
X39089999Y-8899997D03*
X39089999Y-9849998D03*
X39089999Y-10799999D03*
X41769699Y-10799999D03*
X41769699Y-8899997D03*
%TD*%
D24*
%TO.C,C3*%
X13020000Y-10330000D03*
X13020000Y-9370000D03*
%TD*%
D15*
%TO.C,R16*%
X22570000Y-28310000D03*
X22570000Y-27290000D03*
%TD*%
D37*
%TO.C,JP1*%
X14100000Y-17100000D03*
D38*
X14100000Y-18400000D03*
%TD*%
D20*
%TO.C,R11*%
X14970000Y-13200000D03*
X13950000Y-13200000D03*
%TD*%
D34*
%TO.C,R2*%
X18060000Y-23100000D03*
X19080000Y-23100000D03*
%TD*%
D39*
%TO.C,SW1*%
X31569999Y-5299999D03*
X23769999Y-5299999D03*
%TD*%
D12*
%TO.C,H2*%
X49900000Y-3000000D03*
%TD*%
D33*
%TO.C,D2*%
X44070000Y-17350000D03*
X44070000Y-14050000D03*
%TD*%
D34*
%TO.C,R18*%
X23460000Y-22600000D03*
X24480000Y-22600000D03*
%TD*%
D40*
%TO.C,USB1*%
X14369999Y-25707999D03*
X15019999Y-25707999D03*
X15669999Y-25707999D03*
X16319999Y-25707999D03*
X16969999Y-25707999D03*
D41*
X18095000Y-26230000D03*
D42*
X19294999Y-28899999D03*
X12044999Y-28899999D03*
D41*
X13245000Y-26230000D03*
%TD*%
D12*
%TO.C,H1*%
X2200000Y-3000000D03*
%TD*%
D43*
%TO.C,L1*%
X16969999Y-8899999D03*
X16969999Y-10399999D03*
X16969999Y-11899999D03*
X16969999Y-13399999D03*
X16969999Y-14899999D03*
X16969999Y-16399999D03*
X16969999Y-17899999D03*
X16969999Y-19399999D03*
X16969999Y-20899999D03*
X34969999Y-20899999D03*
X34969999Y-19399999D03*
X34969999Y-17899999D03*
X34969999Y-16399999D03*
X34969999Y-14899999D03*
X34969999Y-13399999D03*
X34969999Y-11899999D03*
X34969999Y-10399999D03*
X34969999Y-8899999D03*
%TD*%
D20*
%TO.C,R19*%
X22180000Y-22600000D03*
X21160000Y-22600000D03*
%TD*%
D34*
%TO.C,R13*%
X11750000Y-11900000D03*
X12770000Y-11900000D03*
%TD*%
M02*
