%TF.GenerationSoftware,KiCad,Pcbnew,(7.0.0)*%
%TF.CreationDate,2024-02-23T23:29:48+02:00*%
%TF.ProjectId,mains-detector,6d61696e-732d-4646-9574-6563746f722e,rev?*%
%TF.SameCoordinates,Original*%
%TF.FileFunction,Drillmap*%
%TF.FilePolarity,Positive*%
%FSLAX45Y45*%
G04 Gerber Fmt 4.5, Leading zero omitted, Abs format (unit mm)*
G04 Created by KiCad (PCBNEW (7.0.0)) date 2024-02-23 23:29:48*
%MOMM*%
%LPD*%
G01*
G04 APERTURE LIST*
%ADD10C,0.100000*%
%ADD11C,0.200000*%
%ADD12C,0.220000*%
G04 APERTURE END LIST*
D10*
X0Y0D02*
X5220000Y0D01*
X5220000Y0D02*
X5220000Y-3080000D01*
X5220000Y-3080000D02*
X0Y-3080000D01*
X0Y-3080000D02*
X0Y0D01*
D11*
D12*
X110000Y-190000D02*
X330000Y-410000D01*
X330000Y-190000D02*
X110000Y-410000D01*
X110000Y-2700000D02*
X330000Y-2920000D01*
X330000Y-2700000D02*
X110000Y-2920000D01*
X4880000Y-190000D02*
X5100000Y-410000D01*
X5100000Y-190000D02*
X4880000Y-410000D01*
X4880000Y-2700000D02*
X5100000Y-2920000D01*
X5100000Y-2700000D02*
X4880000Y-2920000D01*
D11*
X242619Y-3378476D02*
X242619Y-3178476D01*
X242619Y-3178476D02*
X290238Y-3178476D01*
X290238Y-3178476D02*
X318810Y-3188000D01*
X318810Y-3188000D02*
X337857Y-3207048D01*
X337857Y-3207048D02*
X347381Y-3226095D01*
X347381Y-3226095D02*
X356905Y-3264190D01*
X356905Y-3264190D02*
X356905Y-3292762D01*
X356905Y-3292762D02*
X347381Y-3330857D01*
X347381Y-3330857D02*
X337857Y-3349905D01*
X337857Y-3349905D02*
X318810Y-3368952D01*
X318810Y-3368952D02*
X290238Y-3378476D01*
X290238Y-3378476D02*
X242619Y-3378476D01*
X442619Y-3378476D02*
X442619Y-3245143D01*
X442619Y-3283238D02*
X452143Y-3264190D01*
X452143Y-3264190D02*
X461667Y-3254667D01*
X461667Y-3254667D02*
X480714Y-3245143D01*
X480714Y-3245143D02*
X499762Y-3245143D01*
X566429Y-3378476D02*
X566429Y-3245143D01*
X566429Y-3178476D02*
X556905Y-3188000D01*
X556905Y-3188000D02*
X566429Y-3197524D01*
X566429Y-3197524D02*
X575952Y-3188000D01*
X575952Y-3188000D02*
X566429Y-3178476D01*
X566429Y-3178476D02*
X566429Y-3197524D01*
X690238Y-3378476D02*
X671190Y-3368952D01*
X671190Y-3368952D02*
X661667Y-3349905D01*
X661667Y-3349905D02*
X661667Y-3178476D01*
X795000Y-3378476D02*
X775952Y-3368952D01*
X775952Y-3368952D02*
X766428Y-3349905D01*
X766428Y-3349905D02*
X766428Y-3178476D01*
X991190Y-3378476D02*
X991190Y-3178476D01*
X991190Y-3178476D02*
X1057857Y-3321333D01*
X1057857Y-3321333D02*
X1124524Y-3178476D01*
X1124524Y-3178476D02*
X1124524Y-3378476D01*
X1305476Y-3378476D02*
X1305476Y-3273714D01*
X1305476Y-3273714D02*
X1295952Y-3254667D01*
X1295952Y-3254667D02*
X1276905Y-3245143D01*
X1276905Y-3245143D02*
X1238809Y-3245143D01*
X1238809Y-3245143D02*
X1219762Y-3254667D01*
X1305476Y-3368952D02*
X1286429Y-3378476D01*
X1286429Y-3378476D02*
X1238809Y-3378476D01*
X1238809Y-3378476D02*
X1219762Y-3368952D01*
X1219762Y-3368952D02*
X1210238Y-3349905D01*
X1210238Y-3349905D02*
X1210238Y-3330857D01*
X1210238Y-3330857D02*
X1219762Y-3311809D01*
X1219762Y-3311809D02*
X1238809Y-3302286D01*
X1238809Y-3302286D02*
X1286429Y-3302286D01*
X1286429Y-3302286D02*
X1305476Y-3292762D01*
X1400714Y-3245143D02*
X1400714Y-3445143D01*
X1400714Y-3254667D02*
X1419762Y-3245143D01*
X1419762Y-3245143D02*
X1457857Y-3245143D01*
X1457857Y-3245143D02*
X1476905Y-3254667D01*
X1476905Y-3254667D02*
X1486428Y-3264190D01*
X1486428Y-3264190D02*
X1495952Y-3283238D01*
X1495952Y-3283238D02*
X1495952Y-3340381D01*
X1495952Y-3340381D02*
X1486428Y-3359428D01*
X1486428Y-3359428D02*
X1476905Y-3368952D01*
X1476905Y-3368952D02*
X1457857Y-3378476D01*
X1457857Y-3378476D02*
X1419762Y-3378476D01*
X1419762Y-3378476D02*
X1400714Y-3368952D01*
X1581667Y-3359428D02*
X1591190Y-3368952D01*
X1591190Y-3368952D02*
X1581667Y-3378476D01*
X1581667Y-3378476D02*
X1572143Y-3368952D01*
X1572143Y-3368952D02*
X1581667Y-3359428D01*
X1581667Y-3359428D02*
X1581667Y-3378476D01*
X1581667Y-3254667D02*
X1591190Y-3264190D01*
X1591190Y-3264190D02*
X1581667Y-3273714D01*
X1581667Y-3273714D02*
X1572143Y-3264190D01*
X1572143Y-3264190D02*
X1581667Y-3254667D01*
X1581667Y-3254667D02*
X1581667Y-3273714D01*
X-205000Y-3625000D02*
X-5000Y-3825000D01*
X-5000Y-3625000D02*
X-205000Y-3825000D01*
X233095Y-3617524D02*
X242619Y-3608000D01*
X242619Y-3608000D02*
X261667Y-3598476D01*
X261667Y-3598476D02*
X309286Y-3598476D01*
X309286Y-3598476D02*
X328333Y-3608000D01*
X328333Y-3608000D02*
X337857Y-3617524D01*
X337857Y-3617524D02*
X347381Y-3636571D01*
X347381Y-3636571D02*
X347381Y-3655619D01*
X347381Y-3655619D02*
X337857Y-3684190D01*
X337857Y-3684190D02*
X223571Y-3798476D01*
X223571Y-3798476D02*
X347381Y-3798476D01*
X433095Y-3779428D02*
X442619Y-3788952D01*
X442619Y-3788952D02*
X433095Y-3798476D01*
X433095Y-3798476D02*
X423571Y-3788952D01*
X423571Y-3788952D02*
X433095Y-3779428D01*
X433095Y-3779428D02*
X433095Y-3798476D01*
X518809Y-3617524D02*
X528333Y-3608000D01*
X528333Y-3608000D02*
X547381Y-3598476D01*
X547381Y-3598476D02*
X595000Y-3598476D01*
X595000Y-3598476D02*
X614048Y-3608000D01*
X614048Y-3608000D02*
X623571Y-3617524D01*
X623571Y-3617524D02*
X633095Y-3636571D01*
X633095Y-3636571D02*
X633095Y-3655619D01*
X633095Y-3655619D02*
X623571Y-3684190D01*
X623571Y-3684190D02*
X509286Y-3798476D01*
X509286Y-3798476D02*
X633095Y-3798476D01*
X756905Y-3598476D02*
X775952Y-3598476D01*
X775952Y-3598476D02*
X795000Y-3608000D01*
X795000Y-3608000D02*
X804524Y-3617524D01*
X804524Y-3617524D02*
X814048Y-3636571D01*
X814048Y-3636571D02*
X823571Y-3674667D01*
X823571Y-3674667D02*
X823571Y-3722286D01*
X823571Y-3722286D02*
X814048Y-3760381D01*
X814048Y-3760381D02*
X804524Y-3779428D01*
X804524Y-3779428D02*
X795000Y-3788952D01*
X795000Y-3788952D02*
X775952Y-3798476D01*
X775952Y-3798476D02*
X756905Y-3798476D01*
X756905Y-3798476D02*
X737857Y-3788952D01*
X737857Y-3788952D02*
X728333Y-3779428D01*
X728333Y-3779428D02*
X718809Y-3760381D01*
X718809Y-3760381D02*
X709286Y-3722286D01*
X709286Y-3722286D02*
X709286Y-3674667D01*
X709286Y-3674667D02*
X718809Y-3636571D01*
X718809Y-3636571D02*
X728333Y-3617524D01*
X728333Y-3617524D02*
X737857Y-3608000D01*
X737857Y-3608000D02*
X756905Y-3598476D01*
X947381Y-3598476D02*
X966429Y-3598476D01*
X966429Y-3598476D02*
X985476Y-3608000D01*
X985476Y-3608000D02*
X995000Y-3617524D01*
X995000Y-3617524D02*
X1004524Y-3636571D01*
X1004524Y-3636571D02*
X1014048Y-3674667D01*
X1014048Y-3674667D02*
X1014048Y-3722286D01*
X1014048Y-3722286D02*
X1004524Y-3760381D01*
X1004524Y-3760381D02*
X995000Y-3779428D01*
X995000Y-3779428D02*
X985476Y-3788952D01*
X985476Y-3788952D02*
X966429Y-3798476D01*
X966429Y-3798476D02*
X947381Y-3798476D01*
X947381Y-3798476D02*
X928333Y-3788952D01*
X928333Y-3788952D02*
X918809Y-3779428D01*
X918809Y-3779428D02*
X909286Y-3760381D01*
X909286Y-3760381D02*
X899762Y-3722286D01*
X899762Y-3722286D02*
X899762Y-3674667D01*
X899762Y-3674667D02*
X909286Y-3636571D01*
X909286Y-3636571D02*
X918809Y-3617524D01*
X918809Y-3617524D02*
X928333Y-3608000D01*
X928333Y-3608000D02*
X947381Y-3598476D01*
X1099762Y-3798476D02*
X1099762Y-3665143D01*
X1099762Y-3684190D02*
X1109286Y-3674667D01*
X1109286Y-3674667D02*
X1128333Y-3665143D01*
X1128333Y-3665143D02*
X1156905Y-3665143D01*
X1156905Y-3665143D02*
X1175952Y-3674667D01*
X1175952Y-3674667D02*
X1185476Y-3693714D01*
X1185476Y-3693714D02*
X1185476Y-3798476D01*
X1185476Y-3693714D02*
X1195000Y-3674667D01*
X1195000Y-3674667D02*
X1214048Y-3665143D01*
X1214048Y-3665143D02*
X1242619Y-3665143D01*
X1242619Y-3665143D02*
X1261667Y-3674667D01*
X1261667Y-3674667D02*
X1271191Y-3693714D01*
X1271191Y-3693714D02*
X1271191Y-3798476D01*
X1366429Y-3798476D02*
X1366429Y-3665143D01*
X1366429Y-3684190D02*
X1375952Y-3674667D01*
X1375952Y-3674667D02*
X1395000Y-3665143D01*
X1395000Y-3665143D02*
X1423571Y-3665143D01*
X1423571Y-3665143D02*
X1442619Y-3674667D01*
X1442619Y-3674667D02*
X1452143Y-3693714D01*
X1452143Y-3693714D02*
X1452143Y-3798476D01*
X1452143Y-3693714D02*
X1461667Y-3674667D01*
X1461667Y-3674667D02*
X1480714Y-3665143D01*
X1480714Y-3665143D02*
X1509286Y-3665143D01*
X1509286Y-3665143D02*
X1528333Y-3674667D01*
X1528333Y-3674667D02*
X1537857Y-3693714D01*
X1537857Y-3693714D02*
X1537857Y-3798476D01*
X1895952Y-3588952D02*
X1724524Y-3846095D01*
X2120714Y-3598476D02*
X2139762Y-3598476D01*
X2139762Y-3598476D02*
X2158810Y-3608000D01*
X2158810Y-3608000D02*
X2168333Y-3617524D01*
X2168333Y-3617524D02*
X2177857Y-3636571D01*
X2177857Y-3636571D02*
X2187381Y-3674667D01*
X2187381Y-3674667D02*
X2187381Y-3722286D01*
X2187381Y-3722286D02*
X2177857Y-3760381D01*
X2177857Y-3760381D02*
X2168333Y-3779428D01*
X2168333Y-3779428D02*
X2158810Y-3788952D01*
X2158810Y-3788952D02*
X2139762Y-3798476D01*
X2139762Y-3798476D02*
X2120714Y-3798476D01*
X2120714Y-3798476D02*
X2101667Y-3788952D01*
X2101667Y-3788952D02*
X2092143Y-3779428D01*
X2092143Y-3779428D02*
X2082619Y-3760381D01*
X2082619Y-3760381D02*
X2073095Y-3722286D01*
X2073095Y-3722286D02*
X2073095Y-3674667D01*
X2073095Y-3674667D02*
X2082619Y-3636571D01*
X2082619Y-3636571D02*
X2092143Y-3617524D01*
X2092143Y-3617524D02*
X2101667Y-3608000D01*
X2101667Y-3608000D02*
X2120714Y-3598476D01*
X2273095Y-3779428D02*
X2282619Y-3788952D01*
X2282619Y-3788952D02*
X2273095Y-3798476D01*
X2273095Y-3798476D02*
X2263572Y-3788952D01*
X2263572Y-3788952D02*
X2273095Y-3779428D01*
X2273095Y-3779428D02*
X2273095Y-3798476D01*
X2406429Y-3598476D02*
X2425476Y-3598476D01*
X2425476Y-3598476D02*
X2444524Y-3608000D01*
X2444524Y-3608000D02*
X2454048Y-3617524D01*
X2454048Y-3617524D02*
X2463572Y-3636571D01*
X2463572Y-3636571D02*
X2473095Y-3674667D01*
X2473095Y-3674667D02*
X2473095Y-3722286D01*
X2473095Y-3722286D02*
X2463572Y-3760381D01*
X2463572Y-3760381D02*
X2454048Y-3779428D01*
X2454048Y-3779428D02*
X2444524Y-3788952D01*
X2444524Y-3788952D02*
X2425476Y-3798476D01*
X2425476Y-3798476D02*
X2406429Y-3798476D01*
X2406429Y-3798476D02*
X2387381Y-3788952D01*
X2387381Y-3788952D02*
X2377857Y-3779428D01*
X2377857Y-3779428D02*
X2368333Y-3760381D01*
X2368333Y-3760381D02*
X2358810Y-3722286D01*
X2358810Y-3722286D02*
X2358810Y-3674667D01*
X2358810Y-3674667D02*
X2368333Y-3636571D01*
X2368333Y-3636571D02*
X2377857Y-3617524D01*
X2377857Y-3617524D02*
X2387381Y-3608000D01*
X2387381Y-3608000D02*
X2406429Y-3598476D01*
X2587381Y-3684190D02*
X2568333Y-3674667D01*
X2568333Y-3674667D02*
X2558810Y-3665143D01*
X2558810Y-3665143D02*
X2549286Y-3646095D01*
X2549286Y-3646095D02*
X2549286Y-3636571D01*
X2549286Y-3636571D02*
X2558810Y-3617524D01*
X2558810Y-3617524D02*
X2568333Y-3608000D01*
X2568333Y-3608000D02*
X2587381Y-3598476D01*
X2587381Y-3598476D02*
X2625476Y-3598476D01*
X2625476Y-3598476D02*
X2644524Y-3608000D01*
X2644524Y-3608000D02*
X2654048Y-3617524D01*
X2654048Y-3617524D02*
X2663572Y-3636571D01*
X2663572Y-3636571D02*
X2663572Y-3646095D01*
X2663572Y-3646095D02*
X2654048Y-3665143D01*
X2654048Y-3665143D02*
X2644524Y-3674667D01*
X2644524Y-3674667D02*
X2625476Y-3684190D01*
X2625476Y-3684190D02*
X2587381Y-3684190D01*
X2587381Y-3684190D02*
X2568333Y-3693714D01*
X2568333Y-3693714D02*
X2558810Y-3703238D01*
X2558810Y-3703238D02*
X2549286Y-3722286D01*
X2549286Y-3722286D02*
X2549286Y-3760381D01*
X2549286Y-3760381D02*
X2558810Y-3779428D01*
X2558810Y-3779428D02*
X2568333Y-3788952D01*
X2568333Y-3788952D02*
X2587381Y-3798476D01*
X2587381Y-3798476D02*
X2625476Y-3798476D01*
X2625476Y-3798476D02*
X2644524Y-3788952D01*
X2644524Y-3788952D02*
X2654048Y-3779428D01*
X2654048Y-3779428D02*
X2663572Y-3760381D01*
X2663572Y-3760381D02*
X2663572Y-3722286D01*
X2663572Y-3722286D02*
X2654048Y-3703238D01*
X2654048Y-3703238D02*
X2644524Y-3693714D01*
X2644524Y-3693714D02*
X2625476Y-3684190D01*
X2835000Y-3598476D02*
X2796905Y-3598476D01*
X2796905Y-3598476D02*
X2777857Y-3608000D01*
X2777857Y-3608000D02*
X2768333Y-3617524D01*
X2768333Y-3617524D02*
X2749286Y-3646095D01*
X2749286Y-3646095D02*
X2739762Y-3684190D01*
X2739762Y-3684190D02*
X2739762Y-3760381D01*
X2739762Y-3760381D02*
X2749286Y-3779428D01*
X2749286Y-3779428D02*
X2758810Y-3788952D01*
X2758810Y-3788952D02*
X2777857Y-3798476D01*
X2777857Y-3798476D02*
X2815952Y-3798476D01*
X2815952Y-3798476D02*
X2835000Y-3788952D01*
X2835000Y-3788952D02*
X2844524Y-3779428D01*
X2844524Y-3779428D02*
X2854048Y-3760381D01*
X2854048Y-3760381D02*
X2854048Y-3712762D01*
X2854048Y-3712762D02*
X2844524Y-3693714D01*
X2844524Y-3693714D02*
X2835000Y-3684190D01*
X2835000Y-3684190D02*
X2815952Y-3674667D01*
X2815952Y-3674667D02*
X2777857Y-3674667D01*
X2777857Y-3674667D02*
X2758810Y-3684190D01*
X2758810Y-3684190D02*
X2749286Y-3693714D01*
X2749286Y-3693714D02*
X2739762Y-3712762D01*
X3025476Y-3598476D02*
X2987381Y-3598476D01*
X2987381Y-3598476D02*
X2968333Y-3608000D01*
X2968333Y-3608000D02*
X2958810Y-3617524D01*
X2958810Y-3617524D02*
X2939762Y-3646095D01*
X2939762Y-3646095D02*
X2930238Y-3684190D01*
X2930238Y-3684190D02*
X2930238Y-3760381D01*
X2930238Y-3760381D02*
X2939762Y-3779428D01*
X2939762Y-3779428D02*
X2949286Y-3788952D01*
X2949286Y-3788952D02*
X2968333Y-3798476D01*
X2968333Y-3798476D02*
X3006429Y-3798476D01*
X3006429Y-3798476D02*
X3025476Y-3788952D01*
X3025476Y-3788952D02*
X3035000Y-3779428D01*
X3035000Y-3779428D02*
X3044524Y-3760381D01*
X3044524Y-3760381D02*
X3044524Y-3712762D01*
X3044524Y-3712762D02*
X3035000Y-3693714D01*
X3035000Y-3693714D02*
X3025476Y-3684190D01*
X3025476Y-3684190D02*
X3006429Y-3674667D01*
X3006429Y-3674667D02*
X2968333Y-3674667D01*
X2968333Y-3674667D02*
X2949286Y-3684190D01*
X2949286Y-3684190D02*
X2939762Y-3693714D01*
X2939762Y-3693714D02*
X2930238Y-3712762D01*
X3120714Y-3598476D02*
X3120714Y-3636571D01*
X3196905Y-3598476D02*
X3196905Y-3636571D01*
X3459762Y-3874667D02*
X3450238Y-3865143D01*
X3450238Y-3865143D02*
X3431191Y-3836571D01*
X3431191Y-3836571D02*
X3421667Y-3817524D01*
X3421667Y-3817524D02*
X3412143Y-3788952D01*
X3412143Y-3788952D02*
X3402619Y-3741333D01*
X3402619Y-3741333D02*
X3402619Y-3703238D01*
X3402619Y-3703238D02*
X3412143Y-3655619D01*
X3412143Y-3655619D02*
X3421667Y-3627048D01*
X3421667Y-3627048D02*
X3431191Y-3608000D01*
X3431191Y-3608000D02*
X3450238Y-3579428D01*
X3450238Y-3579428D02*
X3459762Y-3569905D01*
X3621667Y-3665143D02*
X3621667Y-3798476D01*
X3574048Y-3588952D02*
X3526429Y-3731809D01*
X3526429Y-3731809D02*
X3650238Y-3731809D01*
X3846429Y-3798476D02*
X3846429Y-3598476D01*
X3932143Y-3798476D02*
X3932143Y-3693714D01*
X3932143Y-3693714D02*
X3922619Y-3674667D01*
X3922619Y-3674667D02*
X3903572Y-3665143D01*
X3903572Y-3665143D02*
X3875000Y-3665143D01*
X3875000Y-3665143D02*
X3855952Y-3674667D01*
X3855952Y-3674667D02*
X3846429Y-3684190D01*
X4055952Y-3798476D02*
X4036905Y-3788952D01*
X4036905Y-3788952D02*
X4027381Y-3779428D01*
X4027381Y-3779428D02*
X4017857Y-3760381D01*
X4017857Y-3760381D02*
X4017857Y-3703238D01*
X4017857Y-3703238D02*
X4027381Y-3684190D01*
X4027381Y-3684190D02*
X4036905Y-3674667D01*
X4036905Y-3674667D02*
X4055952Y-3665143D01*
X4055952Y-3665143D02*
X4084524Y-3665143D01*
X4084524Y-3665143D02*
X4103572Y-3674667D01*
X4103572Y-3674667D02*
X4113095Y-3684190D01*
X4113095Y-3684190D02*
X4122619Y-3703238D01*
X4122619Y-3703238D02*
X4122619Y-3760381D01*
X4122619Y-3760381D02*
X4113095Y-3779428D01*
X4113095Y-3779428D02*
X4103572Y-3788952D01*
X4103572Y-3788952D02*
X4084524Y-3798476D01*
X4084524Y-3798476D02*
X4055952Y-3798476D01*
X4236905Y-3798476D02*
X4217857Y-3788952D01*
X4217857Y-3788952D02*
X4208334Y-3769905D01*
X4208334Y-3769905D02*
X4208334Y-3598476D01*
X4389286Y-3788952D02*
X4370238Y-3798476D01*
X4370238Y-3798476D02*
X4332143Y-3798476D01*
X4332143Y-3798476D02*
X4313095Y-3788952D01*
X4313095Y-3788952D02*
X4303572Y-3769905D01*
X4303572Y-3769905D02*
X4303572Y-3693714D01*
X4303572Y-3693714D02*
X4313095Y-3674667D01*
X4313095Y-3674667D02*
X4332143Y-3665143D01*
X4332143Y-3665143D02*
X4370238Y-3665143D01*
X4370238Y-3665143D02*
X4389286Y-3674667D01*
X4389286Y-3674667D02*
X4398810Y-3693714D01*
X4398810Y-3693714D02*
X4398810Y-3712762D01*
X4398810Y-3712762D02*
X4303572Y-3731809D01*
X4475000Y-3788952D02*
X4494048Y-3798476D01*
X4494048Y-3798476D02*
X4532143Y-3798476D01*
X4532143Y-3798476D02*
X4551191Y-3788952D01*
X4551191Y-3788952D02*
X4560715Y-3769905D01*
X4560715Y-3769905D02*
X4560715Y-3760381D01*
X4560715Y-3760381D02*
X4551191Y-3741333D01*
X4551191Y-3741333D02*
X4532143Y-3731809D01*
X4532143Y-3731809D02*
X4503572Y-3731809D01*
X4503572Y-3731809D02*
X4484524Y-3722286D01*
X4484524Y-3722286D02*
X4475000Y-3703238D01*
X4475000Y-3703238D02*
X4475000Y-3693714D01*
X4475000Y-3693714D02*
X4484524Y-3674667D01*
X4484524Y-3674667D02*
X4503572Y-3665143D01*
X4503572Y-3665143D02*
X4532143Y-3665143D01*
X4532143Y-3665143D02*
X4551191Y-3674667D01*
X4627381Y-3874667D02*
X4636905Y-3865143D01*
X4636905Y-3865143D02*
X4655953Y-3836571D01*
X4655953Y-3836571D02*
X4665476Y-3817524D01*
X4665476Y-3817524D02*
X4675000Y-3788952D01*
X4675000Y-3788952D02*
X4684524Y-3741333D01*
X4684524Y-3741333D02*
X4684524Y-3703238D01*
X4684524Y-3703238D02*
X4675000Y-3655619D01*
X4675000Y-3655619D02*
X4665476Y-3627048D01*
X4665476Y-3627048D02*
X4655953Y-3608000D01*
X4655953Y-3608000D02*
X4636905Y-3579428D01*
X4636905Y-3579428D02*
X4627381Y-3569905D01*
X4956905Y-3874667D02*
X4947381Y-3865143D01*
X4947381Y-3865143D02*
X4928334Y-3836571D01*
X4928334Y-3836571D02*
X4918810Y-3817524D01*
X4918810Y-3817524D02*
X4909286Y-3788952D01*
X4909286Y-3788952D02*
X4899762Y-3741333D01*
X4899762Y-3741333D02*
X4899762Y-3703238D01*
X4899762Y-3703238D02*
X4909286Y-3655619D01*
X4909286Y-3655619D02*
X4918810Y-3627048D01*
X4918810Y-3627048D02*
X4928334Y-3608000D01*
X4928334Y-3608000D02*
X4947381Y-3579428D01*
X4947381Y-3579428D02*
X4956905Y-3569905D01*
X5033095Y-3665143D02*
X5033095Y-3798476D01*
X5033095Y-3684190D02*
X5042619Y-3674667D01*
X5042619Y-3674667D02*
X5061667Y-3665143D01*
X5061667Y-3665143D02*
X5090238Y-3665143D01*
X5090238Y-3665143D02*
X5109286Y-3674667D01*
X5109286Y-3674667D02*
X5118810Y-3693714D01*
X5118810Y-3693714D02*
X5118810Y-3798476D01*
X5242619Y-3798476D02*
X5223572Y-3788952D01*
X5223572Y-3788952D02*
X5214048Y-3779428D01*
X5214048Y-3779428D02*
X5204524Y-3760381D01*
X5204524Y-3760381D02*
X5204524Y-3703238D01*
X5204524Y-3703238D02*
X5214048Y-3684190D01*
X5214048Y-3684190D02*
X5223572Y-3674667D01*
X5223572Y-3674667D02*
X5242619Y-3665143D01*
X5242619Y-3665143D02*
X5271191Y-3665143D01*
X5271191Y-3665143D02*
X5290238Y-3674667D01*
X5290238Y-3674667D02*
X5299762Y-3684190D01*
X5299762Y-3684190D02*
X5309286Y-3703238D01*
X5309286Y-3703238D02*
X5309286Y-3760381D01*
X5309286Y-3760381D02*
X5299762Y-3779428D01*
X5299762Y-3779428D02*
X5290238Y-3788952D01*
X5290238Y-3788952D02*
X5271191Y-3798476D01*
X5271191Y-3798476D02*
X5242619Y-3798476D01*
X5366429Y-3665143D02*
X5442619Y-3665143D01*
X5395000Y-3598476D02*
X5395000Y-3769905D01*
X5395000Y-3769905D02*
X5404524Y-3788952D01*
X5404524Y-3788952D02*
X5423572Y-3798476D01*
X5423572Y-3798476D02*
X5442619Y-3798476D01*
X5629286Y-3665143D02*
X5629286Y-3865143D01*
X5629286Y-3674667D02*
X5648333Y-3665143D01*
X5648333Y-3665143D02*
X5686429Y-3665143D01*
X5686429Y-3665143D02*
X5705476Y-3674667D01*
X5705476Y-3674667D02*
X5715000Y-3684190D01*
X5715000Y-3684190D02*
X5724524Y-3703238D01*
X5724524Y-3703238D02*
X5724524Y-3760381D01*
X5724524Y-3760381D02*
X5715000Y-3779428D01*
X5715000Y-3779428D02*
X5705476Y-3788952D01*
X5705476Y-3788952D02*
X5686429Y-3798476D01*
X5686429Y-3798476D02*
X5648333Y-3798476D01*
X5648333Y-3798476D02*
X5629286Y-3788952D01*
X5838810Y-3798476D02*
X5819762Y-3788952D01*
X5819762Y-3788952D02*
X5810238Y-3769905D01*
X5810238Y-3769905D02*
X5810238Y-3598476D01*
X6000714Y-3798476D02*
X6000714Y-3693714D01*
X6000714Y-3693714D02*
X5991191Y-3674667D01*
X5991191Y-3674667D02*
X5972143Y-3665143D01*
X5972143Y-3665143D02*
X5934048Y-3665143D01*
X5934048Y-3665143D02*
X5915000Y-3674667D01*
X6000714Y-3788952D02*
X5981667Y-3798476D01*
X5981667Y-3798476D02*
X5934048Y-3798476D01*
X5934048Y-3798476D02*
X5915000Y-3788952D01*
X5915000Y-3788952D02*
X5905476Y-3769905D01*
X5905476Y-3769905D02*
X5905476Y-3750857D01*
X5905476Y-3750857D02*
X5915000Y-3731809D01*
X5915000Y-3731809D02*
X5934048Y-3722286D01*
X5934048Y-3722286D02*
X5981667Y-3722286D01*
X5981667Y-3722286D02*
X6000714Y-3712762D01*
X6067381Y-3665143D02*
X6143572Y-3665143D01*
X6095953Y-3598476D02*
X6095953Y-3769905D01*
X6095953Y-3769905D02*
X6105476Y-3788952D01*
X6105476Y-3788952D02*
X6124524Y-3798476D01*
X6124524Y-3798476D02*
X6143572Y-3798476D01*
X6286429Y-3788952D02*
X6267381Y-3798476D01*
X6267381Y-3798476D02*
X6229286Y-3798476D01*
X6229286Y-3798476D02*
X6210238Y-3788952D01*
X6210238Y-3788952D02*
X6200714Y-3769905D01*
X6200714Y-3769905D02*
X6200714Y-3693714D01*
X6200714Y-3693714D02*
X6210238Y-3674667D01*
X6210238Y-3674667D02*
X6229286Y-3665143D01*
X6229286Y-3665143D02*
X6267381Y-3665143D01*
X6267381Y-3665143D02*
X6286429Y-3674667D01*
X6286429Y-3674667D02*
X6295953Y-3693714D01*
X6295953Y-3693714D02*
X6295953Y-3712762D01*
X6295953Y-3712762D02*
X6200714Y-3731809D01*
X6467381Y-3798476D02*
X6467381Y-3598476D01*
X6467381Y-3788952D02*
X6448334Y-3798476D01*
X6448334Y-3798476D02*
X6410238Y-3798476D01*
X6410238Y-3798476D02*
X6391191Y-3788952D01*
X6391191Y-3788952D02*
X6381667Y-3779428D01*
X6381667Y-3779428D02*
X6372143Y-3760381D01*
X6372143Y-3760381D02*
X6372143Y-3703238D01*
X6372143Y-3703238D02*
X6381667Y-3684190D01*
X6381667Y-3684190D02*
X6391191Y-3674667D01*
X6391191Y-3674667D02*
X6410238Y-3665143D01*
X6410238Y-3665143D02*
X6448334Y-3665143D01*
X6448334Y-3665143D02*
X6467381Y-3674667D01*
X6543572Y-3874667D02*
X6553095Y-3865143D01*
X6553095Y-3865143D02*
X6572143Y-3836571D01*
X6572143Y-3836571D02*
X6581667Y-3817524D01*
X6581667Y-3817524D02*
X6591191Y-3788952D01*
X6591191Y-3788952D02*
X6600714Y-3741333D01*
X6600714Y-3741333D02*
X6600714Y-3703238D01*
X6600714Y-3703238D02*
X6591191Y-3655619D01*
X6591191Y-3655619D02*
X6581667Y-3627048D01*
X6581667Y-3627048D02*
X6572143Y-3608000D01*
X6572143Y-3608000D02*
X6553095Y-3579428D01*
X6553095Y-3579428D02*
X6543572Y-3569905D01*
M02*
