%TF.GenerationSoftware,KiCad,Pcbnew,(7.0.0)*%
%TF.CreationDate,2024-02-23T23:29:38+02:00*%
%TF.ProjectId,mains-detector,6d61696e-732d-4646-9574-6563746f722e,rev?*%
%TF.SameCoordinates,Original*%
%TF.FileFunction,Copper,L2,Inr*%
%TF.FilePolarity,Positive*%
%FSLAX46Y46*%
G04 Gerber Fmt 4.6, Leading zero omitted, Abs format (unit mm)*
G04 Created by KiCad (PCBNEW (7.0.0)) date 2024-02-23 23:29:38*
%MOMM*%
%LPD*%
G01*
G04 APERTURE LIST*
%TA.AperFunction,ComponentPad*%
%ADD10R,1.000000X1.000000*%
%TD*%
%TA.AperFunction,ComponentPad*%
%ADD11O,1.000000X1.000000*%
%TD*%
%TA.AperFunction,ComponentPad*%
%ADD12C,1.300000*%
%TD*%
%TA.AperFunction,ComponentPad*%
%ADD13O,1.300000X1.800000*%
%TD*%
%TA.AperFunction,ViaPad*%
%ADD14C,0.800000*%
%TD*%
G04 APERTURE END LIST*
D10*
%TO.N,VCC*%
%TO.C,J3*%
X24759999Y-24799999D03*
D11*
%TO.N,IO4*%
X23489999Y-24799999D03*
%TO.N,IO5*%
X22219999Y-24799999D03*
%TO.N,GND*%
X20949999Y-24799999D03*
%TD*%
D10*
%TO.N,Net-(J4-Pin_1)*%
%TO.C,J4*%
X28969999Y-29299999D03*
%TD*%
%TO.N,VCC*%
%TO.C,J2*%
X10969999Y-13799999D03*
D11*
%TO.N,Net-(J2-Pin_2)*%
X10969999Y-15069999D03*
%TO.N,Net-(J2-Pin_3)*%
X10969999Y-16339999D03*
%TD*%
D10*
%TO.N,Net-(D2-K)*%
%TO.C,SW2*%
X39049999Y-16599999D03*
D11*
%TO.N,Net-(SW2-B)*%
X37779999Y-16599999D03*
%TD*%
D10*
%TO.N,Net-(BT1-+)*%
%TO.C,BT1*%
X38989999Y-13399999D03*
D11*
%TO.N,GND*%
X37719999Y-13399999D03*
%TD*%
D12*
%TO.N,GND*%
%TO.C,USB1*%
X18095000Y-26230000D03*
D13*
X19294999Y-28899999D03*
X12044999Y-28899999D03*
D12*
X13245000Y-26230000D03*
%TD*%
D14*
%TO.N,GND*%
X18770000Y-9000000D03*
X32870000Y-20800000D03*
X25270000Y-9000000D03*
X20070000Y-9000000D03*
X39670000Y-15000000D03*
X18970000Y-18000000D03*
X27670000Y-20800000D03*
X18970000Y-16700000D03*
X26370000Y-20800000D03*
X22670000Y-9000000D03*
X38370000Y-15000000D03*
X21370000Y-9000000D03*
X30270000Y-20800000D03*
X28970000Y-20800000D03*
X36970000Y-21400000D03*
X37070000Y-15000000D03*
X23970000Y-9000000D03*
X26670000Y-9000000D03*
X40670000Y-12600000D03*
X27970000Y-9000000D03*
X18970000Y-19300000D03*
X18970000Y-20600000D03*
X29270000Y-9000000D03*
X41970000Y-12600000D03*
X31570000Y-20800000D03*
%TO.N,VCC*%
X35200000Y-6900000D03*
X14870000Y-4850000D03*
X16220000Y-4850000D03*
X38770000Y-26600000D03*
X38770000Y-25300000D03*
X40270000Y-26600000D03*
X40270000Y-22600000D03*
X40270000Y-25300000D03*
X40270000Y-23900000D03*
X13100000Y-15200000D03*
X14870000Y-6450000D03*
X16220000Y-6450000D03*
X14870000Y-7950000D03*
%TO.N,VBUS*%
X13570000Y-23700000D03*
X44870000Y-12400000D03*
X43470000Y-12400000D03*
X12470000Y-23700000D03*
X11270000Y-23700000D03*
X13570000Y-24800000D03*
X11270000Y-24800000D03*
X11270000Y-25900000D03*
X44870000Y-11100000D03*
X12470000Y-24800000D03*
%TO.N,D+*%
X33470000Y-14800000D03*
%TO.N,D-*%
X33470000Y-16500000D03*
%TO.N,Net-(Q1-D)*%
X26470000Y-23800000D03*
X26270000Y-27000000D03*
%TO.N,Net-(Q2-G)*%
X12970000Y-12800000D03*
X9670000Y-18400000D03*
%TO.N,Net-(R10-Pad2)*%
X22700000Y-7200000D03*
X11700000Y-8200000D03*
%TO.N,Net-(USB1-D+)*%
X16070000Y-23900000D03*
%TO.N,Net-(USB1-D-)*%
X15670000Y-27500000D03*
%TD*%
%TA.AperFunction,Conductor*%
%TO.N,GND*%
G36*
X52137500Y-17113D02*
G01*
X52182887Y-62500D01*
X52199500Y-124500D01*
X52199500Y-30675500D01*
X52182887Y-30737500D01*
X52137500Y-30782887D01*
X52075500Y-30799500D01*
X124500Y-30799500D01*
X62500Y-30782887D01*
X17113Y-30737500D01*
X500Y-30675500D01*
X500Y-28100000D01*
X844341Y-28100000D01*
X864937Y-28335408D01*
X866336Y-28340630D01*
X866337Y-28340634D01*
X924694Y-28558430D01*
X924697Y-28558438D01*
X926097Y-28563663D01*
X1025965Y-28777829D01*
X1161505Y-28971401D01*
X1328599Y-29138495D01*
X1522171Y-29274035D01*
X1736337Y-29373903D01*
X1964592Y-29435063D01*
X2141034Y-29450500D01*
X2256258Y-29450500D01*
X2258966Y-29450500D01*
X2435408Y-29435063D01*
X2663663Y-29373903D01*
X2877829Y-29274035D01*
X2983137Y-29200298D01*
X10895000Y-29200298D01*
X10895265Y-29206030D01*
X10909209Y-29356509D01*
X10911307Y-29367731D01*
X10966491Y-29561685D01*
X10970622Y-29572348D01*
X11060506Y-29752860D01*
X11066513Y-29762562D01*
X11188046Y-29923497D01*
X11195731Y-29931927D01*
X11344767Y-30067792D01*
X11353874Y-30074669D01*
X11525330Y-30180829D01*
X11535547Y-30185917D01*
X11723591Y-30258766D01*
X11734576Y-30261891D01*
X11781570Y-30270676D01*
X11792598Y-30270294D01*
X11795000Y-30259527D01*
X12295000Y-30259527D01*
X12297401Y-30270294D01*
X12308429Y-30270676D01*
X12355423Y-30261891D01*
X12366408Y-30258766D01*
X12554452Y-30185917D01*
X12564669Y-30180829D01*
X12736125Y-30074669D01*
X12745232Y-30067792D01*
X12894268Y-29931927D01*
X12901953Y-29923497D01*
X13023486Y-29762562D01*
X13029493Y-29752860D01*
X13119377Y-29572348D01*
X13123508Y-29561685D01*
X13178692Y-29367731D01*
X13180790Y-29356509D01*
X13194734Y-29206030D01*
X13195000Y-29200298D01*
X18145000Y-29200298D01*
X18145265Y-29206030D01*
X18159209Y-29356509D01*
X18161307Y-29367731D01*
X18216491Y-29561685D01*
X18220622Y-29572348D01*
X18310506Y-29752860D01*
X18316513Y-29762562D01*
X18438046Y-29923497D01*
X18445731Y-29931927D01*
X18594767Y-30067792D01*
X18603874Y-30074669D01*
X18775330Y-30180829D01*
X18785547Y-30185917D01*
X18973591Y-30258766D01*
X18984576Y-30261891D01*
X19031570Y-30270676D01*
X19042598Y-30270294D01*
X19045000Y-30259527D01*
X19545000Y-30259527D01*
X19547401Y-30270294D01*
X19558429Y-30270676D01*
X19605423Y-30261891D01*
X19616408Y-30258766D01*
X19804452Y-30185917D01*
X19814669Y-30180829D01*
X19986125Y-30074669D01*
X19995232Y-30067792D01*
X20144268Y-29931927D01*
X20151953Y-29923497D01*
X20214024Y-29841302D01*
X28169500Y-29841302D01*
X28169501Y-29844864D01*
X28169912Y-29848411D01*
X28169913Y-29848422D01*
X28171340Y-29860722D01*
X28172415Y-29869991D01*
X28217794Y-29972765D01*
X28297235Y-30052206D01*
X28348109Y-30074669D01*
X28391477Y-30093818D01*
X28391478Y-30093818D01*
X28400009Y-30097585D01*
X28425135Y-30100500D01*
X29514864Y-30100499D01*
X29539991Y-30097585D01*
X29642765Y-30052206D01*
X29722206Y-29972765D01*
X29767585Y-29869991D01*
X29770500Y-29844865D01*
X29770499Y-28755136D01*
X29767585Y-28730009D01*
X29722206Y-28627235D01*
X29642765Y-28547794D01*
X29627833Y-28541201D01*
X29548522Y-28506181D01*
X29548517Y-28506179D01*
X29539991Y-28502415D01*
X29530726Y-28501340D01*
X29518414Y-28499911D01*
X29518401Y-28499910D01*
X29514865Y-28499500D01*
X29511290Y-28499500D01*
X28428714Y-28499500D01*
X28428696Y-28499500D01*
X28425136Y-28499501D01*
X28421589Y-28499912D01*
X28421577Y-28499913D01*
X28409277Y-28501340D01*
X28409275Y-28501340D01*
X28400009Y-28502415D01*
X28391479Y-28506180D01*
X28391476Y-28506182D01*
X28307745Y-28543153D01*
X28307743Y-28543154D01*
X28297235Y-28547794D01*
X28289112Y-28555916D01*
X28289109Y-28555919D01*
X28225919Y-28619109D01*
X28225916Y-28619112D01*
X28217794Y-28627235D01*
X28213154Y-28637743D01*
X28213153Y-28637745D01*
X28176181Y-28721477D01*
X28176179Y-28721484D01*
X28172415Y-28730009D01*
X28171340Y-28739271D01*
X28171340Y-28739273D01*
X28169911Y-28751585D01*
X28169910Y-28751599D01*
X28169500Y-28755135D01*
X28169500Y-28758708D01*
X28169500Y-28758709D01*
X28169500Y-29841285D01*
X28169500Y-29841302D01*
X20214024Y-29841302D01*
X20273486Y-29762562D01*
X20279493Y-29752860D01*
X20369377Y-29572348D01*
X20373508Y-29561685D01*
X20428692Y-29367731D01*
X20430790Y-29356509D01*
X20444734Y-29206030D01*
X20445000Y-29200298D01*
X20445000Y-29166326D01*
X20441549Y-29153450D01*
X20428674Y-29150000D01*
X19561326Y-29150000D01*
X19548450Y-29153450D01*
X19545000Y-29166326D01*
X19545000Y-30259527D01*
X19045000Y-30259527D01*
X19045000Y-29166326D01*
X19041549Y-29153450D01*
X19028674Y-29150000D01*
X18161326Y-29150000D01*
X18148450Y-29153450D01*
X18145000Y-29166326D01*
X18145000Y-29200298D01*
X13195000Y-29200298D01*
X13195000Y-29166326D01*
X13191549Y-29153450D01*
X13178674Y-29150000D01*
X12311326Y-29150000D01*
X12298450Y-29153450D01*
X12295000Y-29166326D01*
X12295000Y-30259527D01*
X11795000Y-30259527D01*
X11795000Y-29166326D01*
X11791549Y-29153450D01*
X11778674Y-29150000D01*
X10911326Y-29150000D01*
X10898450Y-29153450D01*
X10895000Y-29166326D01*
X10895000Y-29200298D01*
X2983137Y-29200298D01*
X3071401Y-29138495D01*
X3238495Y-28971401D01*
X3374035Y-28777830D01*
X3441256Y-28633674D01*
X10895000Y-28633674D01*
X10898450Y-28646549D01*
X10911326Y-28650000D01*
X11778674Y-28650000D01*
X11791549Y-28646549D01*
X11795000Y-28633674D01*
X12295000Y-28633674D01*
X12298450Y-28646549D01*
X12311326Y-28650000D01*
X13178674Y-28650000D01*
X13191549Y-28646549D01*
X13195000Y-28633674D01*
X18145000Y-28633674D01*
X18148450Y-28646549D01*
X18161326Y-28650000D01*
X19028674Y-28650000D01*
X19041549Y-28646549D01*
X19045000Y-28633674D01*
X19545000Y-28633674D01*
X19548450Y-28646549D01*
X19561326Y-28650000D01*
X20428674Y-28650000D01*
X20441549Y-28646549D01*
X20445000Y-28633674D01*
X20445000Y-28599702D01*
X20444734Y-28593969D01*
X20430790Y-28443490D01*
X20428692Y-28432268D01*
X20373508Y-28238314D01*
X20369377Y-28227651D01*
X20305815Y-28100000D01*
X48544341Y-28100000D01*
X48564937Y-28335408D01*
X48566336Y-28340630D01*
X48566337Y-28340634D01*
X48624694Y-28558430D01*
X48624697Y-28558438D01*
X48626097Y-28563663D01*
X48725965Y-28777829D01*
X48861505Y-28971401D01*
X49028599Y-29138495D01*
X49222171Y-29274035D01*
X49436337Y-29373903D01*
X49664592Y-29435063D01*
X49841034Y-29450500D01*
X49956258Y-29450500D01*
X49958966Y-29450500D01*
X50135408Y-29435063D01*
X50363663Y-29373903D01*
X50577829Y-29274035D01*
X50771401Y-29138495D01*
X50938495Y-28971401D01*
X51074035Y-28777830D01*
X51173903Y-28563663D01*
X51235063Y-28335408D01*
X51255659Y-28100000D01*
X51235063Y-27864592D01*
X51173903Y-27636337D01*
X51074035Y-27422171D01*
X50938495Y-27228599D01*
X50771401Y-27061505D01*
X50577829Y-26925965D01*
X50401387Y-26843688D01*
X50368572Y-26828386D01*
X50368570Y-26828385D01*
X50363663Y-26826097D01*
X50358438Y-26824697D01*
X50358430Y-26824694D01*
X50140634Y-26766337D01*
X50140630Y-26766336D01*
X50135408Y-26764937D01*
X50130020Y-26764465D01*
X50130017Y-26764465D01*
X49961664Y-26749736D01*
X49961662Y-26749735D01*
X49958966Y-26749500D01*
X49841034Y-26749500D01*
X49838338Y-26749735D01*
X49838335Y-26749736D01*
X49669982Y-26764465D01*
X49669977Y-26764465D01*
X49664592Y-26764937D01*
X49659371Y-26766335D01*
X49659365Y-26766337D01*
X49441569Y-26824694D01*
X49441557Y-26824698D01*
X49436337Y-26826097D01*
X49431432Y-26828383D01*
X49431427Y-26828386D01*
X49227081Y-26923675D01*
X49227077Y-26923677D01*
X49222171Y-26925965D01*
X49217738Y-26929068D01*
X49217731Y-26929073D01*
X49033034Y-27058399D01*
X49033029Y-27058402D01*
X49028599Y-27061505D01*
X49024775Y-27065328D01*
X49024769Y-27065334D01*
X48865336Y-27224767D01*
X48865330Y-27224773D01*
X48861505Y-27228599D01*
X48858406Y-27233023D01*
X48858399Y-27233033D01*
X48729066Y-27417740D01*
X48729061Y-27417747D01*
X48725965Y-27422170D01*
X48723683Y-27427061D01*
X48723678Y-27427072D01*
X48628386Y-27631427D01*
X48628383Y-27631432D01*
X48626097Y-27636337D01*
X48624698Y-27641557D01*
X48624694Y-27641569D01*
X48566337Y-27859365D01*
X48566335Y-27859371D01*
X48564937Y-27864592D01*
X48544341Y-28100000D01*
X20305815Y-28100000D01*
X20279493Y-28047139D01*
X20273486Y-28037437D01*
X20151953Y-27876502D01*
X20144268Y-27868072D01*
X19995232Y-27732207D01*
X19986125Y-27725330D01*
X19814669Y-27619170D01*
X19804452Y-27614082D01*
X19616408Y-27541233D01*
X19605423Y-27538108D01*
X19558429Y-27529323D01*
X19547401Y-27529705D01*
X19545000Y-27540473D01*
X19545000Y-28633674D01*
X19045000Y-28633674D01*
X19045000Y-27540473D01*
X19042598Y-27529705D01*
X19031570Y-27529323D01*
X18984576Y-27538108D01*
X18973591Y-27541233D01*
X18785547Y-27614082D01*
X18775330Y-27619170D01*
X18603874Y-27725330D01*
X18594767Y-27732207D01*
X18445731Y-27868072D01*
X18438046Y-27876502D01*
X18316513Y-28037437D01*
X18310506Y-28047139D01*
X18220622Y-28227651D01*
X18216491Y-28238314D01*
X18161307Y-28432268D01*
X18159209Y-28443490D01*
X18145265Y-28593969D01*
X18145000Y-28599702D01*
X18145000Y-28633674D01*
X13195000Y-28633674D01*
X13195000Y-28599702D01*
X13194734Y-28593969D01*
X13180790Y-28443490D01*
X13178692Y-28432268D01*
X13123508Y-28238314D01*
X13119377Y-28227651D01*
X13029493Y-28047139D01*
X13023486Y-28037437D01*
X12901953Y-27876502D01*
X12894268Y-27868072D01*
X12745232Y-27732207D01*
X12736125Y-27725330D01*
X12564669Y-27619170D01*
X12554452Y-27614082D01*
X12366408Y-27541233D01*
X12355423Y-27538108D01*
X12308429Y-27529323D01*
X12297401Y-27529705D01*
X12295000Y-27540473D01*
X12295000Y-28633674D01*
X11795000Y-28633674D01*
X11795000Y-27540473D01*
X11792598Y-27529705D01*
X11781570Y-27529323D01*
X11734576Y-27538108D01*
X11723591Y-27541233D01*
X11535547Y-27614082D01*
X11525330Y-27619170D01*
X11353874Y-27725330D01*
X11344767Y-27732207D01*
X11195731Y-27868072D01*
X11188046Y-27876502D01*
X11066513Y-28037437D01*
X11060506Y-28047139D01*
X10970622Y-28227651D01*
X10966491Y-28238314D01*
X10911307Y-28432268D01*
X10909209Y-28443490D01*
X10895265Y-28593969D01*
X10895000Y-28599702D01*
X10895000Y-28633674D01*
X3441256Y-28633674D01*
X3473903Y-28563663D01*
X3535063Y-28335408D01*
X3555659Y-28100000D01*
X3535063Y-27864592D01*
X3473903Y-27636337D01*
X3410328Y-27500000D01*
X14964355Y-27500000D01*
X14965259Y-27507445D01*
X14983955Y-27661423D01*
X14983956Y-27661427D01*
X14984860Y-27668872D01*
X14987518Y-27675882D01*
X14987520Y-27675888D01*
X15042520Y-27820912D01*
X15045182Y-27827930D01*
X15049444Y-27834105D01*
X15049445Y-27834106D01*
X15074208Y-27869982D01*
X15141817Y-27967929D01*
X15269148Y-28080734D01*
X15419775Y-28159790D01*
X15584944Y-28200500D01*
X15747556Y-28200500D01*
X15755056Y-28200500D01*
X15920225Y-28159790D01*
X16070852Y-28080734D01*
X16198183Y-27967929D01*
X16294818Y-27827930D01*
X16355140Y-27668872D01*
X16375645Y-27500000D01*
X16355140Y-27331128D01*
X16343524Y-27300500D01*
X16305447Y-27200098D01*
X17481979Y-27200098D01*
X17489916Y-27207944D01*
X17575330Y-27260829D01*
X17585547Y-27265917D01*
X17773591Y-27338766D01*
X17784576Y-27341891D01*
X17982807Y-27378947D01*
X17994166Y-27380000D01*
X18195834Y-27380000D01*
X18207192Y-27378947D01*
X18405423Y-27341891D01*
X18416408Y-27338766D01*
X18604453Y-27265917D01*
X18614666Y-27260831D01*
X18700084Y-27207943D01*
X18708019Y-27200098D01*
X18702089Y-27190643D01*
X18511446Y-27000000D01*
X25564355Y-27000000D01*
X25565259Y-27007445D01*
X25583955Y-27161423D01*
X25583956Y-27161427D01*
X25584860Y-27168872D01*
X25587518Y-27175882D01*
X25587520Y-27175888D01*
X25634779Y-27300500D01*
X25645182Y-27327930D01*
X25649444Y-27334105D01*
X25649445Y-27334106D01*
X25710231Y-27422170D01*
X25741817Y-27467929D01*
X25869148Y-27580734D01*
X26019775Y-27659790D01*
X26184944Y-27700500D01*
X26347556Y-27700500D01*
X26355056Y-27700500D01*
X26520225Y-27659790D01*
X26670852Y-27580734D01*
X26798183Y-27467929D01*
X26894818Y-27327930D01*
X26955140Y-27168872D01*
X26975645Y-27000000D01*
X26955140Y-26831128D01*
X26934190Y-26775888D01*
X26897479Y-26679087D01*
X26894818Y-26672070D01*
X26845071Y-26600000D01*
X38064355Y-26600000D01*
X38065259Y-26607445D01*
X38083955Y-26761423D01*
X38083956Y-26761427D01*
X38084860Y-26768872D01*
X38087518Y-26775882D01*
X38087520Y-26775888D01*
X38141896Y-26919266D01*
X38145182Y-26927930D01*
X38149444Y-26934105D01*
X38149445Y-26934106D01*
X38237382Y-27061505D01*
X38241817Y-27067929D01*
X38335768Y-27151162D01*
X38355758Y-27168872D01*
X38369148Y-27180734D01*
X38519775Y-27259790D01*
X38684944Y-27300500D01*
X38847556Y-27300500D01*
X38855056Y-27300500D01*
X39020225Y-27259790D01*
X39170852Y-27180734D01*
X39298183Y-27067929D01*
X39394818Y-26927930D01*
X39404058Y-26903565D01*
X39437772Y-26854721D01*
X39490324Y-26827139D01*
X39549676Y-26827139D01*
X39602228Y-26854721D01*
X39635941Y-26903565D01*
X39645182Y-26927930D01*
X39649444Y-26934105D01*
X39649445Y-26934106D01*
X39737382Y-27061505D01*
X39741817Y-27067929D01*
X39835768Y-27151162D01*
X39855758Y-27168872D01*
X39869148Y-27180734D01*
X40019775Y-27259790D01*
X40184944Y-27300500D01*
X40347556Y-27300500D01*
X40355056Y-27300500D01*
X40520225Y-27259790D01*
X40670852Y-27180734D01*
X40798183Y-27067929D01*
X40894818Y-26927930D01*
X40955140Y-26768872D01*
X40975645Y-26600000D01*
X40955140Y-26431128D01*
X40950641Y-26419266D01*
X40897479Y-26279087D01*
X40894818Y-26272070D01*
X40798183Y-26132071D01*
X40718438Y-26061423D01*
X40697433Y-26042814D01*
X40660556Y-25984497D01*
X40660556Y-25915499D01*
X40697433Y-25857185D01*
X40798183Y-25767929D01*
X40894818Y-25627930D01*
X40955140Y-25468872D01*
X40975645Y-25300000D01*
X40955140Y-25131128D01*
X40951387Y-25121233D01*
X40897479Y-24979087D01*
X40894818Y-24972070D01*
X40798183Y-24832071D01*
X40670852Y-24719266D01*
X40652807Y-24709795D01*
X40604317Y-24664150D01*
X40586434Y-24600000D01*
X40604317Y-24535850D01*
X40652807Y-24490204D01*
X40670852Y-24480734D01*
X40798183Y-24367929D01*
X40894818Y-24227930D01*
X40955140Y-24068872D01*
X40975645Y-23900000D01*
X40955140Y-23731128D01*
X40894818Y-23572070D01*
X40798183Y-23432071D01*
X40697431Y-23342812D01*
X40660556Y-23284499D01*
X40660556Y-23215501D01*
X40697431Y-23157187D01*
X40798183Y-23067929D01*
X40894818Y-22927930D01*
X40955140Y-22768872D01*
X40975645Y-22600000D01*
X40955140Y-22431128D01*
X40894818Y-22272070D01*
X40798183Y-22132071D01*
X40670852Y-22019266D01*
X40645823Y-22006129D01*
X40526866Y-21943695D01*
X40526862Y-21943693D01*
X40520225Y-21940210D01*
X40512947Y-21938416D01*
X40512944Y-21938415D01*
X40362337Y-21901294D01*
X40362332Y-21901293D01*
X40355056Y-21899500D01*
X40184944Y-21899500D01*
X40177668Y-21901293D01*
X40177662Y-21901294D01*
X40027055Y-21938415D01*
X40027050Y-21938416D01*
X40019775Y-21940210D01*
X40013140Y-21943692D01*
X40013133Y-21943695D01*
X39875791Y-22015779D01*
X39875788Y-22015780D01*
X39869148Y-22019266D01*
X39863537Y-22024236D01*
X39863531Y-22024241D01*
X39747430Y-22127098D01*
X39741817Y-22132071D01*
X39737562Y-22138235D01*
X39737557Y-22138241D01*
X39649445Y-22265893D01*
X39649442Y-22265897D01*
X39645182Y-22272070D01*
X39642523Y-22279081D01*
X39642520Y-22279087D01*
X39587520Y-22424111D01*
X39587517Y-22424119D01*
X39584860Y-22431128D01*
X39583956Y-22438570D01*
X39583955Y-22438576D01*
X39565356Y-22591755D01*
X39564355Y-22600000D01*
X39565259Y-22607445D01*
X39583955Y-22761423D01*
X39583956Y-22761427D01*
X39584860Y-22768872D01*
X39587518Y-22775882D01*
X39587520Y-22775888D01*
X39642520Y-22920912D01*
X39645182Y-22927930D01*
X39649444Y-22934105D01*
X39649445Y-22934106D01*
X39722683Y-23040210D01*
X39741817Y-23067929D01*
X39795829Y-23115779D01*
X39842566Y-23157185D01*
X39879443Y-23215501D01*
X39879443Y-23284499D01*
X39842566Y-23342815D01*
X39747430Y-23427098D01*
X39741817Y-23432071D01*
X39737562Y-23438235D01*
X39737557Y-23438241D01*
X39649445Y-23565893D01*
X39649442Y-23565897D01*
X39645182Y-23572070D01*
X39642523Y-23579081D01*
X39642520Y-23579087D01*
X39587520Y-23724111D01*
X39587517Y-23724119D01*
X39584860Y-23731128D01*
X39583956Y-23738570D01*
X39583955Y-23738576D01*
X39577401Y-23792555D01*
X39564355Y-23900000D01*
X39565259Y-23907445D01*
X39583955Y-24061423D01*
X39583956Y-24061427D01*
X39584860Y-24068872D01*
X39587518Y-24075882D01*
X39587520Y-24075888D01*
X39642520Y-24220912D01*
X39645182Y-24227930D01*
X39649444Y-24234105D01*
X39649445Y-24234106D01*
X39721324Y-24338241D01*
X39741817Y-24367929D01*
X39869148Y-24480734D01*
X39887192Y-24490204D01*
X39935682Y-24535851D01*
X39953565Y-24600000D01*
X39935682Y-24664149D01*
X39887192Y-24709795D01*
X39882692Y-24712157D01*
X39875789Y-24715780D01*
X39875788Y-24715781D01*
X39869148Y-24719266D01*
X39863537Y-24724236D01*
X39863531Y-24724241D01*
X39769614Y-24807445D01*
X39741817Y-24832071D01*
X39737562Y-24838235D01*
X39737557Y-24838241D01*
X39649445Y-24965893D01*
X39649442Y-24965897D01*
X39645182Y-24972070D01*
X39642523Y-24979081D01*
X39642520Y-24979087D01*
X39635942Y-24996434D01*
X39602227Y-25045278D01*
X39549675Y-25072860D01*
X39490325Y-25072860D01*
X39437773Y-25045278D01*
X39404058Y-24996434D01*
X39397479Y-24979087D01*
X39394818Y-24972070D01*
X39298183Y-24832071D01*
X39170852Y-24719266D01*
X39145823Y-24706129D01*
X39026866Y-24643695D01*
X39026862Y-24643693D01*
X39020225Y-24640210D01*
X39012947Y-24638416D01*
X39012944Y-24638415D01*
X38862337Y-24601294D01*
X38862332Y-24601293D01*
X38855056Y-24599500D01*
X38684944Y-24599500D01*
X38677668Y-24601293D01*
X38677662Y-24601294D01*
X38527055Y-24638415D01*
X38527050Y-24638416D01*
X38519775Y-24640210D01*
X38513140Y-24643692D01*
X38513133Y-24643695D01*
X38375791Y-24715779D01*
X38375788Y-24715780D01*
X38369148Y-24719266D01*
X38363537Y-24724236D01*
X38363531Y-24724241D01*
X38269614Y-24807445D01*
X38241817Y-24832071D01*
X38237562Y-24838235D01*
X38237557Y-24838241D01*
X38149445Y-24965893D01*
X38149442Y-24965897D01*
X38145182Y-24972070D01*
X38142523Y-24979081D01*
X38142520Y-24979087D01*
X38087520Y-25124111D01*
X38087517Y-25124119D01*
X38084860Y-25131128D01*
X38083956Y-25138570D01*
X38083955Y-25138576D01*
X38068249Y-25267929D01*
X38064355Y-25300000D01*
X38065259Y-25307445D01*
X38083955Y-25461423D01*
X38083956Y-25461427D01*
X38084860Y-25468872D01*
X38087518Y-25475882D01*
X38087520Y-25475888D01*
X38142520Y-25620912D01*
X38145182Y-25627930D01*
X38149444Y-25634105D01*
X38149445Y-25634106D01*
X38226035Y-25745066D01*
X38241817Y-25767929D01*
X38275775Y-25798013D01*
X38342566Y-25857185D01*
X38379443Y-25915501D01*
X38379443Y-25984499D01*
X38342566Y-26042815D01*
X38247430Y-26127098D01*
X38241817Y-26132071D01*
X38237562Y-26138235D01*
X38237557Y-26138241D01*
X38149445Y-26265893D01*
X38149442Y-26265897D01*
X38145182Y-26272070D01*
X38142523Y-26279081D01*
X38142520Y-26279087D01*
X38087520Y-26424111D01*
X38087517Y-26424119D01*
X38084860Y-26431128D01*
X38083956Y-26438570D01*
X38083955Y-26438576D01*
X38065760Y-26588431D01*
X38064355Y-26600000D01*
X26845071Y-26600000D01*
X26828952Y-26576647D01*
X26802442Y-26538241D01*
X26802441Y-26538240D01*
X26798183Y-26532071D01*
X26719374Y-26462252D01*
X26676468Y-26424241D01*
X26676466Y-26424239D01*
X26670852Y-26419266D01*
X26573039Y-26367929D01*
X26526866Y-26343695D01*
X26526862Y-26343693D01*
X26520225Y-26340210D01*
X26512947Y-26338416D01*
X26512944Y-26338415D01*
X26362337Y-26301294D01*
X26362332Y-26301293D01*
X26355056Y-26299500D01*
X26184944Y-26299500D01*
X26177668Y-26301293D01*
X26177662Y-26301294D01*
X26027055Y-26338415D01*
X26027050Y-26338416D01*
X26019775Y-26340210D01*
X26013140Y-26343692D01*
X26013133Y-26343695D01*
X25875791Y-26415779D01*
X25875788Y-26415780D01*
X25869148Y-26419266D01*
X25863537Y-26424236D01*
X25863531Y-26424241D01*
X25747430Y-26527098D01*
X25741817Y-26532071D01*
X25737562Y-26538235D01*
X25737557Y-26538241D01*
X25649445Y-26665893D01*
X25649442Y-26665897D01*
X25645182Y-26672070D01*
X25642523Y-26679081D01*
X25642520Y-26679087D01*
X25587520Y-26824111D01*
X25587517Y-26824119D01*
X25584860Y-26831128D01*
X25583956Y-26838570D01*
X25583955Y-26838576D01*
X25573106Y-26927930D01*
X25564355Y-27000000D01*
X18511446Y-27000000D01*
X18106542Y-26595095D01*
X18095000Y-26588431D01*
X18083457Y-26595095D01*
X17487909Y-27190643D01*
X17481979Y-27200098D01*
X16305447Y-27200098D01*
X16297479Y-27179087D01*
X16294818Y-27172070D01*
X16198183Y-27032071D01*
X16070852Y-26919266D01*
X16040940Y-26903567D01*
X15926866Y-26843695D01*
X15926862Y-26843693D01*
X15920225Y-26840210D01*
X15912947Y-26838416D01*
X15912944Y-26838415D01*
X15762337Y-26801294D01*
X15762332Y-26801293D01*
X15755056Y-26799500D01*
X15584944Y-26799500D01*
X15577668Y-26801293D01*
X15577662Y-26801294D01*
X15427055Y-26838415D01*
X15427050Y-26838416D01*
X15419775Y-26840210D01*
X15413140Y-26843692D01*
X15413133Y-26843695D01*
X15275791Y-26915779D01*
X15275788Y-26915780D01*
X15269148Y-26919266D01*
X15263537Y-26924236D01*
X15263531Y-26924241D01*
X15169614Y-27007445D01*
X15141817Y-27032071D01*
X15137562Y-27038235D01*
X15137557Y-27038241D01*
X15049445Y-27165893D01*
X15049442Y-27165897D01*
X15045182Y-27172070D01*
X15042523Y-27179081D01*
X15042520Y-27179087D01*
X14987520Y-27324111D01*
X14987517Y-27324119D01*
X14984860Y-27331128D01*
X14983956Y-27338570D01*
X14983955Y-27338576D01*
X14974344Y-27417731D01*
X14964355Y-27500000D01*
X3410328Y-27500000D01*
X3374035Y-27422171D01*
X3238495Y-27228599D01*
X3209994Y-27200098D01*
X12631979Y-27200098D01*
X12639916Y-27207944D01*
X12725330Y-27260829D01*
X12735547Y-27265917D01*
X12923591Y-27338766D01*
X12934576Y-27341891D01*
X13132807Y-27378947D01*
X13144166Y-27380000D01*
X13345834Y-27380000D01*
X13357192Y-27378947D01*
X13555423Y-27341891D01*
X13566408Y-27338766D01*
X13754453Y-27265917D01*
X13764666Y-27260831D01*
X13850084Y-27207943D01*
X13858019Y-27200098D01*
X13852089Y-27190643D01*
X13256542Y-26595095D01*
X13245000Y-26588431D01*
X13233457Y-26595095D01*
X12637909Y-27190643D01*
X12631979Y-27200098D01*
X3209994Y-27200098D01*
X3071401Y-27061505D01*
X2877829Y-26925965D01*
X2701387Y-26843688D01*
X2668572Y-26828386D01*
X2668570Y-26828385D01*
X2663663Y-26826097D01*
X2658438Y-26824697D01*
X2658430Y-26824694D01*
X2440634Y-26766337D01*
X2440630Y-26766336D01*
X2435408Y-26764937D01*
X2430020Y-26764465D01*
X2430017Y-26764465D01*
X2261664Y-26749736D01*
X2261662Y-26749735D01*
X2258966Y-26749500D01*
X2141034Y-26749500D01*
X2138338Y-26749735D01*
X2138335Y-26749736D01*
X1969982Y-26764465D01*
X1969977Y-26764465D01*
X1964592Y-26764937D01*
X1959371Y-26766335D01*
X1959365Y-26766337D01*
X1741569Y-26824694D01*
X1741557Y-26824698D01*
X1736337Y-26826097D01*
X1731432Y-26828383D01*
X1731427Y-26828386D01*
X1527081Y-26923675D01*
X1527077Y-26923677D01*
X1522171Y-26925965D01*
X1517738Y-26929068D01*
X1517731Y-26929073D01*
X1333034Y-27058399D01*
X1333029Y-27058402D01*
X1328599Y-27061505D01*
X1324775Y-27065328D01*
X1324769Y-27065334D01*
X1165336Y-27224767D01*
X1165330Y-27224773D01*
X1161505Y-27228599D01*
X1158406Y-27233023D01*
X1158399Y-27233033D01*
X1029066Y-27417740D01*
X1029061Y-27417747D01*
X1025965Y-27422170D01*
X1023683Y-27427061D01*
X1023678Y-27427072D01*
X928386Y-27631427D01*
X928383Y-27631432D01*
X926097Y-27636337D01*
X924698Y-27641557D01*
X924694Y-27641569D01*
X866337Y-27859365D01*
X866335Y-27859371D01*
X864937Y-27864592D01*
X844341Y-28100000D01*
X500Y-28100000D01*
X500Y-25900000D01*
X10564355Y-25900000D01*
X10565259Y-25907445D01*
X10583955Y-26061423D01*
X10583956Y-26061427D01*
X10584860Y-26068872D01*
X10587518Y-26075882D01*
X10587520Y-26075888D01*
X10642520Y-26220912D01*
X10645182Y-26227930D01*
X10649444Y-26234105D01*
X10649445Y-26234106D01*
X10722683Y-26340210D01*
X10741817Y-26367929D01*
X10869148Y-26480734D01*
X11019775Y-26559790D01*
X11184944Y-26600500D01*
X11347556Y-26600500D01*
X11355056Y-26600500D01*
X11520225Y-26559790D01*
X11670852Y-26480734D01*
X11798183Y-26367929D01*
X11872786Y-26259847D01*
X11917834Y-26220167D01*
X11976245Y-26206297D01*
X12034325Y-26221491D01*
X12078460Y-26262188D01*
X12098306Y-26318848D01*
X12109209Y-26436509D01*
X12111307Y-26447731D01*
X12166491Y-26641685D01*
X12170622Y-26652348D01*
X12260503Y-26832854D01*
X12262918Y-26836754D01*
X12272246Y-26843686D01*
X12284412Y-26837032D01*
X12891446Y-26230000D01*
X13603431Y-26230000D01*
X13610095Y-26241542D01*
X14205588Y-26837034D01*
X14217753Y-26843688D01*
X14227080Y-26836757D01*
X14229495Y-26832857D01*
X14319377Y-26652348D01*
X14323508Y-26641685D01*
X14378692Y-26447731D01*
X14380790Y-26436509D01*
X14399398Y-26235709D01*
X16940602Y-26235709D01*
X16959209Y-26436509D01*
X16961307Y-26447731D01*
X17016491Y-26641685D01*
X17020622Y-26652348D01*
X17110503Y-26832854D01*
X17112918Y-26836754D01*
X17122246Y-26843686D01*
X17134412Y-26837032D01*
X17729903Y-26241542D01*
X17736567Y-26230000D01*
X18453431Y-26230000D01*
X18460095Y-26241542D01*
X19055588Y-26837034D01*
X19067753Y-26843688D01*
X19077080Y-26836757D01*
X19079495Y-26832857D01*
X19169377Y-26652348D01*
X19173508Y-26641685D01*
X19228692Y-26447731D01*
X19230790Y-26436509D01*
X19249398Y-26235709D01*
X19249398Y-26224291D01*
X19230790Y-26023490D01*
X19228692Y-26012268D01*
X19173508Y-25818314D01*
X19169377Y-25807651D01*
X19079493Y-25627139D01*
X19077082Y-25623244D01*
X19067752Y-25616311D01*
X19055588Y-25622964D01*
X18460095Y-26218457D01*
X18453431Y-26230000D01*
X17736567Y-26230000D01*
X17729903Y-26218457D01*
X17134412Y-25622966D01*
X17122245Y-25616311D01*
X17112918Y-25623244D01*
X17110504Y-25627142D01*
X17020622Y-25807651D01*
X17016491Y-25818314D01*
X16961307Y-26012268D01*
X16959209Y-26023490D01*
X16940602Y-26224291D01*
X16940602Y-26235709D01*
X14399398Y-26235709D01*
X14399398Y-26224291D01*
X14380790Y-26023490D01*
X14378692Y-26012268D01*
X14323508Y-25818314D01*
X14319377Y-25807651D01*
X14229493Y-25627139D01*
X14227082Y-25623244D01*
X14217752Y-25616311D01*
X14205588Y-25622964D01*
X13610095Y-26218457D01*
X13603431Y-26230000D01*
X12891446Y-26230000D01*
X13245000Y-25876447D01*
X13587011Y-25534434D01*
X13620414Y-25510626D01*
X13654734Y-25500500D01*
X13655056Y-25500500D01*
X13820225Y-25459790D01*
X13970852Y-25380734D01*
X14098183Y-25267929D01*
X14103725Y-25259900D01*
X17481979Y-25259900D01*
X17487909Y-25269355D01*
X18083457Y-25864903D01*
X18095000Y-25871567D01*
X18106542Y-25864903D01*
X18702089Y-25269355D01*
X18708019Y-25259900D01*
X18700082Y-25252054D01*
X18614669Y-25199170D01*
X18604452Y-25194082D01*
X18416408Y-25121233D01*
X18405423Y-25118108D01*
X18207192Y-25081052D01*
X18195834Y-25080000D01*
X17994166Y-25080000D01*
X17982807Y-25081052D01*
X17784576Y-25118108D01*
X17773591Y-25121233D01*
X17585546Y-25194082D01*
X17575333Y-25199168D01*
X17489916Y-25252054D01*
X17481979Y-25259900D01*
X14103725Y-25259900D01*
X14194818Y-25127930D01*
X14223382Y-25052612D01*
X19984361Y-25052612D01*
X19985054Y-25063896D01*
X20019883Y-25178712D01*
X20024520Y-25189905D01*
X20111633Y-25352882D01*
X20118374Y-25362970D01*
X20235609Y-25505821D01*
X20244178Y-25514390D01*
X20387029Y-25631625D01*
X20397117Y-25638366D01*
X20560094Y-25725479D01*
X20571287Y-25730116D01*
X20686103Y-25764945D01*
X20697387Y-25765638D01*
X20700000Y-25754637D01*
X21200000Y-25754637D01*
X21202612Y-25765638D01*
X21213896Y-25764945D01*
X21328712Y-25730116D01*
X21339905Y-25725479D01*
X21502882Y-25638366D01*
X21512970Y-25631625D01*
X21655813Y-25514397D01*
X21661724Y-25508486D01*
X21708452Y-25479123D01*
X21763293Y-25472943D01*
X21815381Y-25491169D01*
X21870478Y-25525789D01*
X22040745Y-25585368D01*
X22220000Y-25605565D01*
X22399255Y-25585368D01*
X22569522Y-25525789D01*
X22722262Y-25429816D01*
X22767319Y-25384758D01*
X22822906Y-25352665D01*
X22887094Y-25352665D01*
X22942680Y-25384758D01*
X22987738Y-25429816D01*
X23140478Y-25525789D01*
X23310745Y-25585368D01*
X23490000Y-25605565D01*
X23669255Y-25585368D01*
X23839522Y-25525789D01*
X23891694Y-25493006D01*
X23943783Y-25474780D01*
X23998621Y-25480958D01*
X24045348Y-25510319D01*
X24087235Y-25552206D01*
X24132223Y-25572070D01*
X24181477Y-25593818D01*
X24181478Y-25593818D01*
X24190009Y-25597585D01*
X24215135Y-25600500D01*
X25304864Y-25600499D01*
X25329991Y-25597585D01*
X25432765Y-25552206D01*
X25512206Y-25472765D01*
X25557585Y-25369991D01*
X25560500Y-25344865D01*
X25560499Y-24255136D01*
X25557585Y-24230009D01*
X25512206Y-24127235D01*
X25432765Y-24047794D01*
X25401765Y-24034106D01*
X25338522Y-24006181D01*
X25338517Y-24006179D01*
X25329991Y-24002415D01*
X25320726Y-24001340D01*
X25308414Y-23999911D01*
X25308401Y-23999910D01*
X25304865Y-23999500D01*
X25301290Y-23999500D01*
X24218714Y-23999500D01*
X24218696Y-23999500D01*
X24215136Y-23999501D01*
X24211589Y-23999912D01*
X24211577Y-23999913D01*
X24199277Y-24001340D01*
X24199275Y-24001340D01*
X24190009Y-24002415D01*
X24181479Y-24006180D01*
X24181476Y-24006182D01*
X24097745Y-24043153D01*
X24097743Y-24043154D01*
X24087235Y-24047794D01*
X24079111Y-24055917D01*
X24079108Y-24055920D01*
X24045347Y-24089681D01*
X23998621Y-24119041D01*
X23943783Y-24125219D01*
X23891696Y-24106993D01*
X23845417Y-24077914D01*
X23845409Y-24077910D01*
X23839522Y-24074211D01*
X23832959Y-24071914D01*
X23832956Y-24071913D01*
X23675824Y-24016930D01*
X23675819Y-24016928D01*
X23669255Y-24014632D01*
X23662335Y-24013852D01*
X23662334Y-24013852D01*
X23496923Y-23995215D01*
X23490000Y-23994435D01*
X23483077Y-23995215D01*
X23317665Y-24013852D01*
X23317662Y-24013852D01*
X23310745Y-24014632D01*
X23304182Y-24016928D01*
X23304175Y-24016930D01*
X23147043Y-24071913D01*
X23147036Y-24071915D01*
X23140478Y-24074211D01*
X23134590Y-24077910D01*
X23134587Y-24077912D01*
X22993638Y-24166476D01*
X22993633Y-24166479D01*
X22987738Y-24170184D01*
X22982813Y-24175108D01*
X22982809Y-24175112D01*
X22942681Y-24215241D01*
X22887094Y-24247335D01*
X22822906Y-24247335D01*
X22767319Y-24215241D01*
X22727190Y-24175112D01*
X22722262Y-24170184D01*
X22668369Y-24136321D01*
X22575412Y-24077912D01*
X22569522Y-24074211D01*
X22562959Y-24071914D01*
X22562956Y-24071913D01*
X22405824Y-24016930D01*
X22405819Y-24016928D01*
X22399255Y-24014632D01*
X22392335Y-24013852D01*
X22392334Y-24013852D01*
X22226923Y-23995215D01*
X22220000Y-23994435D01*
X22213077Y-23995215D01*
X22047665Y-24013852D01*
X22047662Y-24013852D01*
X22040745Y-24014632D01*
X22034182Y-24016928D01*
X22034175Y-24016930D01*
X21877043Y-24071913D01*
X21877036Y-24071915D01*
X21870478Y-24074211D01*
X21864593Y-24077908D01*
X21864584Y-24077913D01*
X21815380Y-24108830D01*
X21763294Y-24127055D01*
X21708459Y-24120878D01*
X21661733Y-24091521D01*
X21655817Y-24085606D01*
X21512970Y-23968374D01*
X21502882Y-23961633D01*
X21339905Y-23874520D01*
X21328712Y-23869883D01*
X21213896Y-23835054D01*
X21202612Y-23834361D01*
X21200000Y-23845363D01*
X21200000Y-25754637D01*
X20700000Y-25754637D01*
X20700000Y-25066326D01*
X20696549Y-25053450D01*
X20683674Y-25050000D01*
X19995363Y-25050000D01*
X19984361Y-25052612D01*
X14223382Y-25052612D01*
X14255140Y-24968872D01*
X14275645Y-24800000D01*
X14255140Y-24631128D01*
X14243524Y-24600500D01*
X14197479Y-24479087D01*
X14194818Y-24472070D01*
X14098183Y-24332071D01*
X14096031Y-24330164D01*
X14069532Y-24279675D01*
X14069532Y-24220325D01*
X14096031Y-24169835D01*
X14098183Y-24167929D01*
X14194818Y-24027930D01*
X14243335Y-23900000D01*
X15364355Y-23900000D01*
X15365259Y-23907445D01*
X15383955Y-24061423D01*
X15383956Y-24061427D01*
X15384860Y-24068872D01*
X15387518Y-24075882D01*
X15387520Y-24075888D01*
X15442520Y-24220912D01*
X15445182Y-24227930D01*
X15449444Y-24234105D01*
X15449445Y-24234106D01*
X15521324Y-24338241D01*
X15541817Y-24367929D01*
X15669148Y-24480734D01*
X15819775Y-24559790D01*
X15984944Y-24600500D01*
X16147556Y-24600500D01*
X16155056Y-24600500D01*
X16320225Y-24559790D01*
X16343857Y-24547387D01*
X19984361Y-24547387D01*
X19995363Y-24550000D01*
X20683674Y-24550000D01*
X20696549Y-24546549D01*
X20700000Y-24533674D01*
X20700000Y-23845363D01*
X20697387Y-23834361D01*
X20686103Y-23835054D01*
X20571287Y-23869883D01*
X20560094Y-23874520D01*
X20397117Y-23961633D01*
X20387029Y-23968374D01*
X20244178Y-24085609D01*
X20235609Y-24094178D01*
X20118374Y-24237029D01*
X20111633Y-24247117D01*
X20024520Y-24410094D01*
X20019883Y-24421287D01*
X19985054Y-24536103D01*
X19984361Y-24547387D01*
X16343857Y-24547387D01*
X16470852Y-24480734D01*
X16598183Y-24367929D01*
X16694818Y-24227930D01*
X16755140Y-24068872D01*
X16775645Y-23900000D01*
X16763503Y-23800000D01*
X25764355Y-23800000D01*
X25765259Y-23807445D01*
X25783955Y-23961423D01*
X25783956Y-23961427D01*
X25784860Y-23968872D01*
X25787518Y-23975882D01*
X25787520Y-23975888D01*
X25842520Y-24120912D01*
X25845182Y-24127930D01*
X25849444Y-24134105D01*
X25849445Y-24134106D01*
X25932986Y-24255136D01*
X25941817Y-24267929D01*
X26069148Y-24380734D01*
X26219775Y-24459790D01*
X26384944Y-24500500D01*
X26547556Y-24500500D01*
X26555056Y-24500500D01*
X26720225Y-24459790D01*
X26870852Y-24380734D01*
X26998183Y-24267929D01*
X27094818Y-24127930D01*
X27155140Y-23968872D01*
X27175645Y-23800000D01*
X27155140Y-23631128D01*
X27094818Y-23472070D01*
X26998183Y-23332071D01*
X26892467Y-23238415D01*
X26876468Y-23224241D01*
X26876466Y-23224239D01*
X26870852Y-23219266D01*
X26836610Y-23201294D01*
X26726866Y-23143695D01*
X26726862Y-23143693D01*
X26720225Y-23140210D01*
X26712947Y-23138416D01*
X26712944Y-23138415D01*
X26562337Y-23101294D01*
X26562332Y-23101293D01*
X26555056Y-23099500D01*
X26384944Y-23099500D01*
X26377668Y-23101293D01*
X26377662Y-23101294D01*
X26227055Y-23138415D01*
X26227050Y-23138416D01*
X26219775Y-23140210D01*
X26213140Y-23143692D01*
X26213133Y-23143695D01*
X26075791Y-23215779D01*
X26075788Y-23215780D01*
X26069148Y-23219266D01*
X26063537Y-23224236D01*
X26063531Y-23224241D01*
X25950655Y-23324241D01*
X25941817Y-23332071D01*
X25937562Y-23338235D01*
X25937557Y-23338241D01*
X25849445Y-23465893D01*
X25849442Y-23465897D01*
X25845182Y-23472070D01*
X25842523Y-23479081D01*
X25842520Y-23479087D01*
X25787520Y-23624111D01*
X25787517Y-23624119D01*
X25784860Y-23631128D01*
X25783956Y-23638570D01*
X25783955Y-23638576D01*
X25771813Y-23738576D01*
X25764355Y-23800000D01*
X16763503Y-23800000D01*
X16755140Y-23731128D01*
X16694818Y-23572070D01*
X16598183Y-23432071D01*
X16497435Y-23342816D01*
X16476468Y-23324241D01*
X16476466Y-23324239D01*
X16470852Y-23319266D01*
X16404610Y-23284499D01*
X16326866Y-23243695D01*
X16326862Y-23243693D01*
X16320225Y-23240210D01*
X16312947Y-23238416D01*
X16312944Y-23238415D01*
X16162337Y-23201294D01*
X16162332Y-23201293D01*
X16155056Y-23199500D01*
X15984944Y-23199500D01*
X15977668Y-23201293D01*
X15977662Y-23201294D01*
X15827055Y-23238415D01*
X15827050Y-23238416D01*
X15819775Y-23240210D01*
X15813140Y-23243692D01*
X15813133Y-23243695D01*
X15675791Y-23315779D01*
X15675788Y-23315780D01*
X15669148Y-23319266D01*
X15663537Y-23324236D01*
X15663531Y-23324241D01*
X15547430Y-23427098D01*
X15541817Y-23432071D01*
X15537562Y-23438235D01*
X15537557Y-23438241D01*
X15449445Y-23565893D01*
X15449442Y-23565897D01*
X15445182Y-23572070D01*
X15442523Y-23579081D01*
X15442520Y-23579087D01*
X15387520Y-23724111D01*
X15387517Y-23724119D01*
X15384860Y-23731128D01*
X15383956Y-23738570D01*
X15383955Y-23738576D01*
X15377401Y-23792555D01*
X15364355Y-23900000D01*
X14243335Y-23900000D01*
X14255140Y-23868872D01*
X14275645Y-23700000D01*
X14255140Y-23531128D01*
X14194818Y-23372070D01*
X14098183Y-23232071D01*
X13970852Y-23119266D01*
X13936610Y-23101294D01*
X13826866Y-23043695D01*
X13826862Y-23043693D01*
X13820225Y-23040210D01*
X13812947Y-23038416D01*
X13812944Y-23038415D01*
X13662337Y-23001294D01*
X13662332Y-23001293D01*
X13655056Y-22999500D01*
X13484944Y-22999500D01*
X13477668Y-23001293D01*
X13477662Y-23001294D01*
X13327055Y-23038415D01*
X13327050Y-23038416D01*
X13319775Y-23040210D01*
X13313140Y-23043692D01*
X13313133Y-23043695D01*
X13175791Y-23115779D01*
X13175788Y-23115780D01*
X13169148Y-23119266D01*
X13147533Y-23138415D01*
X13102225Y-23178554D01*
X13049673Y-23206134D01*
X12990323Y-23206134D01*
X12937772Y-23178552D01*
X12876468Y-23124241D01*
X12876464Y-23124238D01*
X12870852Y-23119266D01*
X12836610Y-23101294D01*
X12726866Y-23043695D01*
X12726862Y-23043693D01*
X12720225Y-23040210D01*
X12712947Y-23038416D01*
X12712944Y-23038415D01*
X12562337Y-23001294D01*
X12562332Y-23001293D01*
X12555056Y-22999500D01*
X12384944Y-22999500D01*
X12377668Y-23001293D01*
X12377662Y-23001294D01*
X12227055Y-23038415D01*
X12227050Y-23038416D01*
X12219775Y-23040210D01*
X12213140Y-23043692D01*
X12213133Y-23043695D01*
X12075791Y-23115779D01*
X12075788Y-23115780D01*
X12069148Y-23119266D01*
X11976558Y-23201294D01*
X11952227Y-23222849D01*
X11899675Y-23250430D01*
X11840325Y-23250430D01*
X11787773Y-23222849D01*
X11779479Y-23215501D01*
X11670852Y-23119266D01*
X11636610Y-23101294D01*
X11526866Y-23043695D01*
X11526862Y-23043693D01*
X11520225Y-23040210D01*
X11512947Y-23038416D01*
X11512944Y-23038415D01*
X11362337Y-23001294D01*
X11362332Y-23001293D01*
X11355056Y-22999500D01*
X11184944Y-22999500D01*
X11177668Y-23001293D01*
X11177662Y-23001294D01*
X11027055Y-23038415D01*
X11027050Y-23038416D01*
X11019775Y-23040210D01*
X11013140Y-23043692D01*
X11013133Y-23043695D01*
X10875791Y-23115779D01*
X10875788Y-23115780D01*
X10869148Y-23119266D01*
X10863537Y-23124236D01*
X10863531Y-23124241D01*
X10750655Y-23224241D01*
X10741817Y-23232071D01*
X10737562Y-23238235D01*
X10737557Y-23238241D01*
X10649445Y-23365893D01*
X10649442Y-23365897D01*
X10645182Y-23372070D01*
X10642523Y-23379081D01*
X10642520Y-23379087D01*
X10587520Y-23524111D01*
X10587517Y-23524119D01*
X10584860Y-23531128D01*
X10583956Y-23538570D01*
X10583955Y-23538576D01*
X10571813Y-23638576D01*
X10564355Y-23700000D01*
X10565259Y-23707445D01*
X10583955Y-23861423D01*
X10583956Y-23861427D01*
X10584860Y-23868872D01*
X10587518Y-23875882D01*
X10587520Y-23875888D01*
X10641010Y-24016930D01*
X10645182Y-24027930D01*
X10649444Y-24034105D01*
X10649445Y-24034106D01*
X10718470Y-24134106D01*
X10741817Y-24167929D01*
X10743968Y-24169835D01*
X10770468Y-24220325D01*
X10770468Y-24279675D01*
X10743968Y-24330164D01*
X10741817Y-24332071D01*
X10737562Y-24338235D01*
X10737557Y-24338241D01*
X10649445Y-24465893D01*
X10649442Y-24465897D01*
X10645182Y-24472070D01*
X10642523Y-24479081D01*
X10642520Y-24479087D01*
X10587520Y-24624111D01*
X10587517Y-24624119D01*
X10584860Y-24631128D01*
X10583956Y-24638570D01*
X10583955Y-24638576D01*
X10574581Y-24715779D01*
X10564355Y-24800000D01*
X10565259Y-24807445D01*
X10583955Y-24961423D01*
X10583956Y-24961427D01*
X10584860Y-24968872D01*
X10587518Y-24975882D01*
X10587520Y-24975888D01*
X10641457Y-25118108D01*
X10645182Y-25127930D01*
X10649444Y-25134105D01*
X10649445Y-25134106D01*
X10687960Y-25189905D01*
X10741817Y-25267929D01*
X10743966Y-25269833D01*
X10770467Y-25320319D01*
X10770469Y-25379669D01*
X10743972Y-25430161D01*
X10741817Y-25432071D01*
X10737557Y-25438242D01*
X10737554Y-25438246D01*
X10649445Y-25565893D01*
X10649442Y-25565897D01*
X10645182Y-25572070D01*
X10642523Y-25579081D01*
X10642520Y-25579087D01*
X10587520Y-25724111D01*
X10587517Y-25724119D01*
X10584860Y-25731128D01*
X10583956Y-25738570D01*
X10583955Y-25738576D01*
X10567807Y-25871567D01*
X10564355Y-25900000D01*
X500Y-25900000D01*
X500Y-18400000D01*
X8964355Y-18400000D01*
X8965259Y-18407445D01*
X8983955Y-18561423D01*
X8983956Y-18561427D01*
X8984860Y-18568872D01*
X8987518Y-18575882D01*
X8987520Y-18575888D01*
X9042520Y-18720912D01*
X9045182Y-18727930D01*
X9141817Y-18867929D01*
X9269148Y-18980734D01*
X9419775Y-19059790D01*
X9584944Y-19100500D01*
X9747556Y-19100500D01*
X9755056Y-19100500D01*
X9920225Y-19059790D01*
X10070852Y-18980734D01*
X10198183Y-18867929D01*
X10294818Y-18727930D01*
X10355140Y-18568872D01*
X10375645Y-18400000D01*
X10355140Y-18231128D01*
X10294818Y-18072070D01*
X10198183Y-17932071D01*
X10070852Y-17819266D01*
X10045823Y-17806129D01*
X9926866Y-17743695D01*
X9926862Y-17743693D01*
X9920225Y-17740210D01*
X9912947Y-17738416D01*
X9912944Y-17738415D01*
X9762337Y-17701294D01*
X9762332Y-17701293D01*
X9755056Y-17699500D01*
X9584944Y-17699500D01*
X9577668Y-17701293D01*
X9577662Y-17701294D01*
X9427055Y-17738415D01*
X9427050Y-17738416D01*
X9419775Y-17740210D01*
X9413140Y-17743692D01*
X9413133Y-17743695D01*
X9275791Y-17815779D01*
X9275788Y-17815780D01*
X9269148Y-17819266D01*
X9263537Y-17824236D01*
X9263531Y-17824241D01*
X9147430Y-17927098D01*
X9141817Y-17932071D01*
X9137562Y-17938235D01*
X9137557Y-17938241D01*
X9049445Y-18065893D01*
X9049442Y-18065897D01*
X9045182Y-18072070D01*
X9042523Y-18079081D01*
X9042520Y-18079087D01*
X8987520Y-18224111D01*
X8987517Y-18224119D01*
X8984860Y-18231128D01*
X8983956Y-18238570D01*
X8983955Y-18238576D01*
X8965356Y-18391755D01*
X8964355Y-18400000D01*
X500Y-18400000D01*
X500Y-16340000D01*
X10164435Y-16340000D01*
X10165215Y-16346923D01*
X10182462Y-16500000D01*
X10184632Y-16519255D01*
X10186928Y-16525819D01*
X10186930Y-16525824D01*
X10236985Y-16668872D01*
X10244211Y-16689522D01*
X10247912Y-16695412D01*
X10331178Y-16827930D01*
X10340184Y-16842262D01*
X10467738Y-16969816D01*
X10620478Y-17065789D01*
X10790745Y-17125368D01*
X10970000Y-17145565D01*
X11149255Y-17125368D01*
X11319522Y-17065789D01*
X11472262Y-16969816D01*
X11599816Y-16842262D01*
X11695789Y-16689522D01*
X11755368Y-16519255D01*
X11757537Y-16500000D01*
X32764355Y-16500000D01*
X32765259Y-16507445D01*
X32783955Y-16661423D01*
X32783956Y-16661427D01*
X32784860Y-16668872D01*
X32787518Y-16675882D01*
X32787520Y-16675888D01*
X32824097Y-16772334D01*
X32845182Y-16827930D01*
X32941817Y-16967929D01*
X33035768Y-17051162D01*
X33052278Y-17065789D01*
X33069148Y-17080734D01*
X33219775Y-17159790D01*
X33384944Y-17200500D01*
X33547556Y-17200500D01*
X33555056Y-17200500D01*
X33720225Y-17159790D01*
X33870852Y-17080734D01*
X33998183Y-16967929D01*
X34094818Y-16827930D01*
X34155140Y-16668872D01*
X34163503Y-16600000D01*
X36974435Y-16600000D01*
X36994632Y-16779255D01*
X36996928Y-16785819D01*
X36996930Y-16785824D01*
X37009208Y-16820912D01*
X37054211Y-16949522D01*
X37150184Y-17102262D01*
X37277738Y-17229816D01*
X37430478Y-17325789D01*
X37600745Y-17385368D01*
X37780000Y-17405565D01*
X37959255Y-17385368D01*
X38129522Y-17325789D01*
X38181694Y-17293006D01*
X38233783Y-17274780D01*
X38288621Y-17280958D01*
X38335348Y-17310319D01*
X38377235Y-17352206D01*
X38447133Y-17383069D01*
X38471477Y-17393818D01*
X38471478Y-17393818D01*
X38480009Y-17397585D01*
X38505135Y-17400500D01*
X39594864Y-17400499D01*
X39619991Y-17397585D01*
X39722765Y-17352206D01*
X39802206Y-17272765D01*
X39847585Y-17169991D01*
X39850500Y-17144865D01*
X39850499Y-16055136D01*
X39847585Y-16030009D01*
X39802206Y-15927235D01*
X39722765Y-15847794D01*
X39699990Y-15837738D01*
X39628522Y-15806181D01*
X39628517Y-15806179D01*
X39619991Y-15802415D01*
X39610726Y-15801340D01*
X39598414Y-15799911D01*
X39598401Y-15799910D01*
X39594865Y-15799500D01*
X39591290Y-15799500D01*
X38508714Y-15799500D01*
X38508696Y-15799500D01*
X38505136Y-15799501D01*
X38501589Y-15799912D01*
X38501577Y-15799913D01*
X38489277Y-15801340D01*
X38489275Y-15801340D01*
X38480009Y-15802415D01*
X38471479Y-15806180D01*
X38471476Y-15806182D01*
X38387745Y-15843153D01*
X38387743Y-15843154D01*
X38377235Y-15847794D01*
X38369111Y-15855917D01*
X38369108Y-15855920D01*
X38335347Y-15889681D01*
X38288621Y-15919041D01*
X38233783Y-15925219D01*
X38181696Y-15906993D01*
X38135417Y-15877914D01*
X38135409Y-15877910D01*
X38129522Y-15874211D01*
X38122959Y-15871914D01*
X38122956Y-15871913D01*
X37965824Y-15816930D01*
X37965819Y-15816928D01*
X37959255Y-15814632D01*
X37952335Y-15813852D01*
X37952334Y-15813852D01*
X37786923Y-15795215D01*
X37780000Y-15794435D01*
X37773077Y-15795215D01*
X37607665Y-15813852D01*
X37607662Y-15813852D01*
X37600745Y-15814632D01*
X37594182Y-15816928D01*
X37594175Y-15816930D01*
X37437043Y-15871913D01*
X37437036Y-15871915D01*
X37430478Y-15874211D01*
X37424590Y-15877910D01*
X37424587Y-15877912D01*
X37283638Y-15966476D01*
X37283633Y-15966479D01*
X37277738Y-15970184D01*
X37272813Y-15975108D01*
X37272809Y-15975112D01*
X37155112Y-16092809D01*
X37155108Y-16092813D01*
X37150184Y-16097738D01*
X37146479Y-16103633D01*
X37146476Y-16103638D01*
X37057912Y-16244587D01*
X37057910Y-16244590D01*
X37054211Y-16250478D01*
X37051915Y-16257036D01*
X37051913Y-16257043D01*
X36996930Y-16414175D01*
X36996928Y-16414182D01*
X36994632Y-16420745D01*
X36993852Y-16427662D01*
X36993852Y-16427665D01*
X36975215Y-16593077D01*
X36974435Y-16600000D01*
X34163503Y-16600000D01*
X34175645Y-16500000D01*
X34155140Y-16331128D01*
X34094818Y-16172070D01*
X34028952Y-16076647D01*
X34002442Y-16038241D01*
X34002441Y-16038240D01*
X33998183Y-16032071D01*
X33891711Y-15937745D01*
X33876468Y-15924241D01*
X33876466Y-15924239D01*
X33870852Y-15919266D01*
X33814483Y-15889681D01*
X33726866Y-15843695D01*
X33726862Y-15843693D01*
X33720225Y-15840210D01*
X33712947Y-15838416D01*
X33712944Y-15838415D01*
X33562337Y-15801294D01*
X33562332Y-15801293D01*
X33555056Y-15799500D01*
X33384944Y-15799500D01*
X33377668Y-15801293D01*
X33377662Y-15801294D01*
X33227055Y-15838415D01*
X33227050Y-15838416D01*
X33219775Y-15840210D01*
X33213140Y-15843692D01*
X33213133Y-15843695D01*
X33075791Y-15915779D01*
X33075788Y-15915780D01*
X33069148Y-15919266D01*
X33063537Y-15924236D01*
X33063531Y-15924241D01*
X32953776Y-16021476D01*
X32941817Y-16032071D01*
X32937562Y-16038235D01*
X32937557Y-16038241D01*
X32849445Y-16165893D01*
X32849442Y-16165897D01*
X32845182Y-16172070D01*
X32842523Y-16179081D01*
X32842520Y-16179087D01*
X32787520Y-16324111D01*
X32787517Y-16324119D01*
X32784860Y-16331128D01*
X32783956Y-16338570D01*
X32783955Y-16338576D01*
X32782942Y-16346923D01*
X32764355Y-16500000D01*
X11757537Y-16500000D01*
X11775565Y-16340000D01*
X11755368Y-16160745D01*
X11695789Y-15990478D01*
X11599816Y-15837738D01*
X11554758Y-15792680D01*
X11522665Y-15737094D01*
X11522665Y-15672906D01*
X11554759Y-15617319D01*
X11554759Y-15617318D01*
X11599816Y-15572262D01*
X11695789Y-15419522D01*
X11755368Y-15249255D01*
X11760918Y-15200000D01*
X12394355Y-15200000D01*
X12395259Y-15207445D01*
X12413955Y-15361423D01*
X12413956Y-15361427D01*
X12414860Y-15368872D01*
X12417518Y-15375882D01*
X12417520Y-15375888D01*
X12464779Y-15500500D01*
X12475182Y-15527930D01*
X12571817Y-15667929D01*
X12699148Y-15780734D01*
X12798368Y-15832809D01*
X12842399Y-15855919D01*
X12849775Y-15859790D01*
X13014944Y-15900500D01*
X13177556Y-15900500D01*
X13185056Y-15900500D01*
X13350225Y-15859790D01*
X13500852Y-15780734D01*
X13628183Y-15667929D01*
X13724818Y-15527930D01*
X13785140Y-15368872D01*
X13805645Y-15200000D01*
X13785140Y-15031128D01*
X13764190Y-14975888D01*
X13727479Y-14879087D01*
X13724818Y-14872070D01*
X13675071Y-14800000D01*
X32764355Y-14800000D01*
X32765259Y-14807445D01*
X32783955Y-14961423D01*
X32783956Y-14961427D01*
X32784860Y-14968872D01*
X32787518Y-14975882D01*
X32787520Y-14975888D01*
X32842520Y-15120912D01*
X32845182Y-15127930D01*
X32849444Y-15134105D01*
X32849445Y-15134106D01*
X32900067Y-15207445D01*
X32941817Y-15267929D01*
X33035768Y-15351162D01*
X33055758Y-15368872D01*
X33069148Y-15380734D01*
X33219775Y-15459790D01*
X33384944Y-15500500D01*
X33547556Y-15500500D01*
X33555056Y-15500500D01*
X33720225Y-15459790D01*
X33870852Y-15380734D01*
X33998183Y-15267929D01*
X34094818Y-15127930D01*
X34155140Y-14968872D01*
X34175645Y-14800000D01*
X34155140Y-14631128D01*
X34150641Y-14619266D01*
X34097479Y-14479087D01*
X34094818Y-14472070D01*
X34017962Y-14360726D01*
X34002442Y-14338241D01*
X34002441Y-14338240D01*
X33998183Y-14332071D01*
X33892409Y-14238364D01*
X33876468Y-14224241D01*
X33876466Y-14224239D01*
X33870852Y-14219266D01*
X33819224Y-14192169D01*
X33726866Y-14143695D01*
X33726862Y-14143693D01*
X33720225Y-14140210D01*
X33712947Y-14138416D01*
X33712944Y-14138415D01*
X33562337Y-14101294D01*
X33562332Y-14101293D01*
X33555056Y-14099500D01*
X33384944Y-14099500D01*
X33377668Y-14101293D01*
X33377662Y-14101294D01*
X33227055Y-14138415D01*
X33227050Y-14138416D01*
X33219775Y-14140210D01*
X33213140Y-14143692D01*
X33213133Y-14143695D01*
X33075791Y-14215779D01*
X33075788Y-14215780D01*
X33069148Y-14219266D01*
X33063537Y-14224236D01*
X33063531Y-14224241D01*
X32947430Y-14327098D01*
X32941817Y-14332071D01*
X32937562Y-14338235D01*
X32937557Y-14338241D01*
X32849445Y-14465893D01*
X32849442Y-14465897D01*
X32845182Y-14472070D01*
X32842523Y-14479081D01*
X32842520Y-14479087D01*
X32787520Y-14624111D01*
X32787517Y-14624119D01*
X32784860Y-14631128D01*
X32783956Y-14638570D01*
X32783955Y-14638576D01*
X32773207Y-14727098D01*
X32764355Y-14800000D01*
X13675071Y-14800000D01*
X13628183Y-14732071D01*
X13522649Y-14638576D01*
X13506468Y-14624241D01*
X13506466Y-14624239D01*
X13500852Y-14619266D01*
X13475823Y-14606129D01*
X13356866Y-14543695D01*
X13356862Y-14543693D01*
X13350225Y-14540210D01*
X13342947Y-14538416D01*
X13342944Y-14538415D01*
X13192337Y-14501294D01*
X13192332Y-14501293D01*
X13185056Y-14499500D01*
X13014944Y-14499500D01*
X13007668Y-14501293D01*
X13007662Y-14501294D01*
X12857055Y-14538415D01*
X12857050Y-14538416D01*
X12849775Y-14540210D01*
X12843140Y-14543692D01*
X12843133Y-14543695D01*
X12705791Y-14615779D01*
X12705788Y-14615780D01*
X12699148Y-14619266D01*
X12693537Y-14624236D01*
X12693531Y-14624241D01*
X12577492Y-14727043D01*
X12571817Y-14732071D01*
X12567562Y-14738235D01*
X12567557Y-14738241D01*
X12479445Y-14865893D01*
X12479442Y-14865897D01*
X12475182Y-14872070D01*
X12472523Y-14879081D01*
X12472520Y-14879087D01*
X12417520Y-15024111D01*
X12417517Y-15024119D01*
X12414860Y-15031128D01*
X12413956Y-15038570D01*
X12413955Y-15038576D01*
X12410140Y-15070000D01*
X12394355Y-15200000D01*
X11760918Y-15200000D01*
X11775565Y-15070000D01*
X11755368Y-14890745D01*
X11695789Y-14720478D01*
X11663006Y-14668304D01*
X11644780Y-14616215D01*
X11650959Y-14561376D01*
X11680318Y-14514652D01*
X11722206Y-14472765D01*
X11767585Y-14369991D01*
X11770500Y-14344865D01*
X11770499Y-13652612D01*
X36754361Y-13652612D01*
X36755054Y-13663896D01*
X36789883Y-13778712D01*
X36794520Y-13789905D01*
X36881633Y-13952882D01*
X36888374Y-13962970D01*
X37005609Y-14105821D01*
X37014178Y-14114390D01*
X37157029Y-14231625D01*
X37167117Y-14238366D01*
X37330094Y-14325479D01*
X37341287Y-14330116D01*
X37456103Y-14364945D01*
X37467387Y-14365638D01*
X37470000Y-14354637D01*
X37970000Y-14354637D01*
X37972612Y-14365638D01*
X37983896Y-14364945D01*
X38098712Y-14330116D01*
X38109905Y-14325479D01*
X38272885Y-14238364D01*
X38282972Y-14231625D01*
X38300095Y-14217573D01*
X38352817Y-14192169D01*
X38411319Y-14193774D01*
X38411472Y-14193815D01*
X38420009Y-14197585D01*
X38445135Y-14200500D01*
X39534864Y-14200499D01*
X39559991Y-14197585D01*
X39662765Y-14152206D01*
X39742206Y-14072765D01*
X39787585Y-13969991D01*
X39790500Y-13944865D01*
X39790499Y-12855136D01*
X39787585Y-12830009D01*
X39742206Y-12727235D01*
X39662765Y-12647794D01*
X39625020Y-12631128D01*
X39568522Y-12606181D01*
X39568517Y-12606179D01*
X39559991Y-12602415D01*
X39550726Y-12601340D01*
X39538414Y-12599911D01*
X39538401Y-12599910D01*
X39534865Y-12599500D01*
X39531290Y-12599500D01*
X38448714Y-12599500D01*
X38448696Y-12599500D01*
X38445136Y-12599501D01*
X38441589Y-12599912D01*
X38441577Y-12599913D01*
X38429276Y-12601340D01*
X38429274Y-12601340D01*
X38420009Y-12602415D01*
X38411479Y-12606180D01*
X38411307Y-12606228D01*
X38352812Y-12607830D01*
X38300097Y-12582429D01*
X38282970Y-12568373D01*
X38272882Y-12561633D01*
X38109905Y-12474520D01*
X38098712Y-12469883D01*
X37983896Y-12435054D01*
X37972612Y-12434361D01*
X37970000Y-12445363D01*
X37970000Y-14354637D01*
X37470000Y-14354637D01*
X37470000Y-13666326D01*
X37466549Y-13653450D01*
X37453674Y-13650000D01*
X36765363Y-13650000D01*
X36754361Y-13652612D01*
X11770499Y-13652612D01*
X11770499Y-13255136D01*
X11767585Y-13230009D01*
X11722206Y-13127235D01*
X11642765Y-13047794D01*
X11627833Y-13041201D01*
X11548522Y-13006181D01*
X11548517Y-13006179D01*
X11539991Y-13002415D01*
X11530726Y-13001340D01*
X11518414Y-12999911D01*
X11518401Y-12999910D01*
X11514865Y-12999500D01*
X11511290Y-12999500D01*
X10428714Y-12999500D01*
X10428696Y-12999500D01*
X10425136Y-12999501D01*
X10421589Y-12999912D01*
X10421577Y-12999913D01*
X10409277Y-13001340D01*
X10409275Y-13001340D01*
X10400009Y-13002415D01*
X10391479Y-13006180D01*
X10391476Y-13006182D01*
X10307745Y-13043153D01*
X10307743Y-13043154D01*
X10297235Y-13047794D01*
X10289112Y-13055916D01*
X10289109Y-13055919D01*
X10225919Y-13119109D01*
X10225916Y-13119112D01*
X10217794Y-13127235D01*
X10213154Y-13137743D01*
X10213153Y-13137745D01*
X10176181Y-13221477D01*
X10176179Y-13221484D01*
X10172415Y-13230009D01*
X10171340Y-13239271D01*
X10171340Y-13239273D01*
X10169911Y-13251585D01*
X10169910Y-13251599D01*
X10169500Y-13255135D01*
X10169500Y-13258708D01*
X10169500Y-13258709D01*
X10169500Y-14341285D01*
X10169500Y-14341302D01*
X10169501Y-14344864D01*
X10169912Y-14348411D01*
X10169913Y-14348422D01*
X10170634Y-14354637D01*
X10172415Y-14369991D01*
X10217794Y-14472765D01*
X10225919Y-14480890D01*
X10259680Y-14514651D01*
X10289040Y-14561376D01*
X10295220Y-14616214D01*
X10276994Y-14668301D01*
X10247919Y-14714574D01*
X10247913Y-14714585D01*
X10244211Y-14720478D01*
X10241913Y-14727043D01*
X10241910Y-14727051D01*
X10186930Y-14884175D01*
X10186928Y-14884182D01*
X10184632Y-14890745D01*
X10183852Y-14897662D01*
X10183852Y-14897665D01*
X10175829Y-14968872D01*
X10164435Y-15070000D01*
X10165215Y-15076923D01*
X10178243Y-15192555D01*
X10184632Y-15249255D01*
X10186928Y-15255819D01*
X10186930Y-15255824D01*
X10230638Y-15380734D01*
X10244211Y-15419522D01*
X10340184Y-15572262D01*
X10345112Y-15577190D01*
X10385241Y-15617319D01*
X10417335Y-15672906D01*
X10417335Y-15737094D01*
X10385241Y-15792681D01*
X10345112Y-15832809D01*
X10345108Y-15832813D01*
X10340184Y-15837738D01*
X10336479Y-15843633D01*
X10336476Y-15843638D01*
X10247912Y-15984587D01*
X10247910Y-15984590D01*
X10244211Y-15990478D01*
X10241915Y-15997036D01*
X10241913Y-15997043D01*
X10186930Y-16154175D01*
X10186928Y-16154182D01*
X10184632Y-16160745D01*
X10183852Y-16167662D01*
X10183852Y-16167665D01*
X10173782Y-16257043D01*
X10164435Y-16340000D01*
X500Y-16340000D01*
X500Y-12800000D01*
X12264355Y-12800000D01*
X12265259Y-12807445D01*
X12283955Y-12961423D01*
X12283956Y-12961427D01*
X12284860Y-12968872D01*
X12287518Y-12975882D01*
X12287520Y-12975888D01*
X12342520Y-13120912D01*
X12345182Y-13127930D01*
X12349444Y-13134105D01*
X12349445Y-13134106D01*
X12435452Y-13258709D01*
X12441817Y-13267929D01*
X12569148Y-13380734D01*
X12719775Y-13459790D01*
X12884944Y-13500500D01*
X13047556Y-13500500D01*
X13055056Y-13500500D01*
X13220225Y-13459790D01*
X13370852Y-13380734D01*
X13498183Y-13267929D01*
X13581388Y-13147387D01*
X36754361Y-13147387D01*
X36765363Y-13150000D01*
X37453674Y-13150000D01*
X37466549Y-13146549D01*
X37470000Y-13133674D01*
X37470000Y-12445363D01*
X37467387Y-12434361D01*
X37456103Y-12435054D01*
X37341287Y-12469883D01*
X37330094Y-12474520D01*
X37167117Y-12561633D01*
X37157029Y-12568374D01*
X37014178Y-12685609D01*
X37005609Y-12694178D01*
X36888374Y-12837029D01*
X36881633Y-12847117D01*
X36794520Y-13010094D01*
X36789883Y-13021287D01*
X36755054Y-13136103D01*
X36754361Y-13147387D01*
X13581388Y-13147387D01*
X13594818Y-13127930D01*
X13655140Y-12968872D01*
X13675645Y-12800000D01*
X13655140Y-12631128D01*
X13634190Y-12575888D01*
X13597479Y-12479087D01*
X13594818Y-12472070D01*
X13545071Y-12400000D01*
X42764355Y-12400000D01*
X42765259Y-12407445D01*
X42783955Y-12561423D01*
X42783956Y-12561427D01*
X42784860Y-12568872D01*
X42787518Y-12575882D01*
X42787520Y-12575888D01*
X42842520Y-12720912D01*
X42845182Y-12727930D01*
X42849444Y-12734105D01*
X42849445Y-12734106D01*
X42932986Y-12855136D01*
X42941817Y-12867929D01*
X43035768Y-12951162D01*
X43055758Y-12968872D01*
X43069148Y-12980734D01*
X43188076Y-13043153D01*
X43212399Y-13055919D01*
X43219775Y-13059790D01*
X43384944Y-13100500D01*
X43547556Y-13100500D01*
X43555056Y-13100500D01*
X43720225Y-13059790D01*
X43870852Y-12980734D01*
X43998183Y-12867929D01*
X44067951Y-12766852D01*
X44112374Y-12727497D01*
X44170000Y-12713294D01*
X44227626Y-12727497D01*
X44272048Y-12766852D01*
X44289790Y-12792555D01*
X44332986Y-12855136D01*
X44341817Y-12867929D01*
X44435768Y-12951162D01*
X44455758Y-12968872D01*
X44469148Y-12980734D01*
X44588076Y-13043153D01*
X44612399Y-13055919D01*
X44619775Y-13059790D01*
X44784944Y-13100500D01*
X44947556Y-13100500D01*
X44955056Y-13100500D01*
X45120225Y-13059790D01*
X45270852Y-12980734D01*
X45398183Y-12867929D01*
X45494818Y-12727930D01*
X45555140Y-12568872D01*
X45575645Y-12400000D01*
X45555140Y-12231128D01*
X45550641Y-12219266D01*
X45497479Y-12079087D01*
X45494818Y-12072070D01*
X45398183Y-11932071D01*
X45297431Y-11842812D01*
X45260556Y-11784499D01*
X45260556Y-11715501D01*
X45297431Y-11657187D01*
X45398183Y-11567929D01*
X45494818Y-11427930D01*
X45555140Y-11268872D01*
X45575645Y-11100000D01*
X45555140Y-10931128D01*
X45494818Y-10772070D01*
X45398183Y-10632071D01*
X45270852Y-10519266D01*
X45245823Y-10506129D01*
X45126866Y-10443695D01*
X45126862Y-10443693D01*
X45120225Y-10440210D01*
X45112947Y-10438416D01*
X45112944Y-10438415D01*
X44962337Y-10401294D01*
X44962332Y-10401293D01*
X44955056Y-10399500D01*
X44784944Y-10399500D01*
X44777668Y-10401293D01*
X44777662Y-10401294D01*
X44627055Y-10438415D01*
X44627050Y-10438416D01*
X44619775Y-10440210D01*
X44613140Y-10443692D01*
X44613133Y-10443695D01*
X44475791Y-10515779D01*
X44475788Y-10515780D01*
X44469148Y-10519266D01*
X44463537Y-10524236D01*
X44463531Y-10524241D01*
X44347430Y-10627098D01*
X44341817Y-10632071D01*
X44337562Y-10638235D01*
X44337557Y-10638241D01*
X44249445Y-10765893D01*
X44249442Y-10765897D01*
X44245182Y-10772070D01*
X44242523Y-10779081D01*
X44242520Y-10779087D01*
X44187520Y-10924111D01*
X44187517Y-10924119D01*
X44184860Y-10931128D01*
X44183956Y-10938570D01*
X44183955Y-10938576D01*
X44165356Y-11091755D01*
X44164355Y-11100000D01*
X44165259Y-11107445D01*
X44183955Y-11261423D01*
X44183956Y-11261427D01*
X44184860Y-11268872D01*
X44187518Y-11275882D01*
X44187520Y-11275888D01*
X44242520Y-11420912D01*
X44245182Y-11427930D01*
X44341817Y-11567929D01*
X44401342Y-11620663D01*
X44442566Y-11657185D01*
X44479443Y-11715501D01*
X44479443Y-11784499D01*
X44442566Y-11842815D01*
X44442565Y-11842816D01*
X44341817Y-11932071D01*
X44337562Y-11938235D01*
X44337557Y-11938241D01*
X44272050Y-12033145D01*
X44227625Y-12072502D01*
X44170000Y-12086705D01*
X44112375Y-12072502D01*
X44067950Y-12033145D01*
X44002442Y-11938241D01*
X44002441Y-11938240D01*
X43998183Y-11932071D01*
X43897435Y-11842816D01*
X43876468Y-11824241D01*
X43876466Y-11824239D01*
X43870852Y-11819266D01*
X43804610Y-11784499D01*
X43726866Y-11743695D01*
X43726862Y-11743693D01*
X43720225Y-11740210D01*
X43712947Y-11738416D01*
X43712944Y-11738415D01*
X43562337Y-11701294D01*
X43562332Y-11701293D01*
X43555056Y-11699500D01*
X43384944Y-11699500D01*
X43377668Y-11701293D01*
X43377662Y-11701294D01*
X43227055Y-11738415D01*
X43227050Y-11738416D01*
X43219775Y-11740210D01*
X43213140Y-11743692D01*
X43213133Y-11743695D01*
X43075791Y-11815779D01*
X43075788Y-11815780D01*
X43069148Y-11819266D01*
X43063537Y-11824236D01*
X43063531Y-11824241D01*
X42947430Y-11927098D01*
X42941817Y-11932071D01*
X42937562Y-11938235D01*
X42937557Y-11938241D01*
X42849445Y-12065893D01*
X42849442Y-12065897D01*
X42845182Y-12072070D01*
X42842523Y-12079081D01*
X42842520Y-12079087D01*
X42787520Y-12224111D01*
X42787517Y-12224119D01*
X42784860Y-12231128D01*
X42783956Y-12238570D01*
X42783955Y-12238576D01*
X42773207Y-12327098D01*
X42764355Y-12400000D01*
X13545071Y-12400000D01*
X13498183Y-12332071D01*
X13392649Y-12238576D01*
X13376468Y-12224241D01*
X13376466Y-12224239D01*
X13370852Y-12219266D01*
X13345823Y-12206129D01*
X13226866Y-12143695D01*
X13226862Y-12143693D01*
X13220225Y-12140210D01*
X13212947Y-12138416D01*
X13212944Y-12138415D01*
X13062337Y-12101294D01*
X13062332Y-12101293D01*
X13055056Y-12099500D01*
X12884944Y-12099500D01*
X12877668Y-12101293D01*
X12877662Y-12101294D01*
X12727055Y-12138415D01*
X12727050Y-12138416D01*
X12719775Y-12140210D01*
X12713140Y-12143692D01*
X12713133Y-12143695D01*
X12575791Y-12215779D01*
X12575788Y-12215780D01*
X12569148Y-12219266D01*
X12563537Y-12224236D01*
X12563531Y-12224241D01*
X12447430Y-12327098D01*
X12441817Y-12332071D01*
X12437562Y-12338235D01*
X12437557Y-12338241D01*
X12349445Y-12465893D01*
X12349442Y-12465897D01*
X12345182Y-12472070D01*
X12342523Y-12479081D01*
X12342520Y-12479087D01*
X12287520Y-12624111D01*
X12287517Y-12624119D01*
X12284860Y-12631128D01*
X12283956Y-12638570D01*
X12283955Y-12638576D01*
X12273106Y-12727930D01*
X12264355Y-12800000D01*
X500Y-12800000D01*
X500Y-8200000D01*
X10994355Y-8200000D01*
X10995259Y-8207445D01*
X11013955Y-8361423D01*
X11013956Y-8361427D01*
X11014860Y-8368872D01*
X11017518Y-8375882D01*
X11017520Y-8375888D01*
X11035350Y-8422901D01*
X11075182Y-8527930D01*
X11079444Y-8534105D01*
X11079445Y-8534106D01*
X11159786Y-8650500D01*
X11171817Y-8667929D01*
X11299148Y-8780734D01*
X11449775Y-8859790D01*
X11614944Y-8900500D01*
X11777556Y-8900500D01*
X11785056Y-8900500D01*
X11950225Y-8859790D01*
X12100852Y-8780734D01*
X12228183Y-8667929D01*
X12324818Y-8527930D01*
X12385140Y-8368872D01*
X12405645Y-8200000D01*
X12385140Y-8031128D01*
X12354373Y-7950000D01*
X14164355Y-7950000D01*
X14165259Y-7957445D01*
X14183955Y-8111423D01*
X14183956Y-8111427D01*
X14184860Y-8118872D01*
X14187518Y-8125882D01*
X14187520Y-8125888D01*
X14242520Y-8270912D01*
X14245182Y-8277930D01*
X14341817Y-8417929D01*
X14469148Y-8530734D01*
X14619775Y-8609790D01*
X14784944Y-8650500D01*
X14947556Y-8650500D01*
X14955056Y-8650500D01*
X15120225Y-8609790D01*
X15270852Y-8530734D01*
X15398183Y-8417929D01*
X15494818Y-8277930D01*
X15555140Y-8118872D01*
X15575645Y-7950000D01*
X15555140Y-7781128D01*
X15494818Y-7622070D01*
X15411452Y-7501294D01*
X15402442Y-7488241D01*
X15402441Y-7488240D01*
X15398183Y-7482071D01*
X15270852Y-7369266D01*
X15157541Y-7309795D01*
X15109051Y-7264150D01*
X15091168Y-7200000D01*
X21994355Y-7200000D01*
X21995259Y-7207445D01*
X22013955Y-7361423D01*
X22013956Y-7361427D01*
X22014860Y-7368872D01*
X22017518Y-7375882D01*
X22017520Y-7375888D01*
X22055904Y-7477098D01*
X22075182Y-7527930D01*
X22079444Y-7534105D01*
X22079445Y-7534106D01*
X22140162Y-7622070D01*
X22171817Y-7667929D01*
X22299148Y-7780734D01*
X22449775Y-7859790D01*
X22614944Y-7900500D01*
X22777556Y-7900500D01*
X22785056Y-7900500D01*
X22950225Y-7859790D01*
X23100852Y-7780734D01*
X23228183Y-7667929D01*
X23324818Y-7527930D01*
X23385140Y-7368872D01*
X23405645Y-7200000D01*
X23385140Y-7031128D01*
X23335410Y-6900000D01*
X34494355Y-6900000D01*
X34495259Y-6907445D01*
X34513955Y-7061423D01*
X34513956Y-7061427D01*
X34514860Y-7068872D01*
X34517518Y-7075882D01*
X34517520Y-7075888D01*
X34567413Y-7207445D01*
X34575182Y-7227930D01*
X34579444Y-7234105D01*
X34579445Y-7234106D01*
X34631689Y-7309795D01*
X34671817Y-7367929D01*
X34799148Y-7480734D01*
X34949775Y-7559790D01*
X35114944Y-7600500D01*
X35277556Y-7600500D01*
X35285056Y-7600500D01*
X35450225Y-7559790D01*
X35600852Y-7480734D01*
X35728183Y-7367929D01*
X35824818Y-7227930D01*
X35885140Y-7068872D01*
X35905645Y-6900000D01*
X35885140Y-6731128D01*
X35824818Y-6572070D01*
X35728183Y-6432071D01*
X35600852Y-6319266D01*
X35528187Y-6281128D01*
X35456866Y-6243695D01*
X35456862Y-6243693D01*
X35450225Y-6240210D01*
X35442947Y-6238416D01*
X35442944Y-6238415D01*
X35292337Y-6201294D01*
X35292332Y-6201293D01*
X35285056Y-6199500D01*
X35114944Y-6199500D01*
X35107668Y-6201293D01*
X35107662Y-6201294D01*
X34957055Y-6238415D01*
X34957050Y-6238416D01*
X34949775Y-6240210D01*
X34943140Y-6243692D01*
X34943133Y-6243695D01*
X34805791Y-6315779D01*
X34805788Y-6315780D01*
X34799148Y-6319266D01*
X34793537Y-6324236D01*
X34793531Y-6324241D01*
X34677430Y-6427098D01*
X34671817Y-6432071D01*
X34667562Y-6438235D01*
X34667557Y-6438241D01*
X34579445Y-6565893D01*
X34579442Y-6565897D01*
X34575182Y-6572070D01*
X34572523Y-6579081D01*
X34572520Y-6579087D01*
X34517520Y-6724111D01*
X34517517Y-6724119D01*
X34514860Y-6731128D01*
X34513956Y-6738570D01*
X34513955Y-6738576D01*
X34510029Y-6770912D01*
X34494355Y-6900000D01*
X23335410Y-6900000D01*
X23324818Y-6872070D01*
X23228183Y-6732071D01*
X23100852Y-6619266D01*
X23075823Y-6606129D01*
X22956866Y-6543695D01*
X22956862Y-6543693D01*
X22950225Y-6540210D01*
X22942947Y-6538416D01*
X22942944Y-6538415D01*
X22792337Y-6501294D01*
X22792332Y-6501293D01*
X22785056Y-6499500D01*
X22614944Y-6499500D01*
X22607668Y-6501293D01*
X22607662Y-6501294D01*
X22457055Y-6538415D01*
X22457050Y-6538416D01*
X22449775Y-6540210D01*
X22443140Y-6543692D01*
X22443133Y-6543695D01*
X22305791Y-6615779D01*
X22305788Y-6615780D01*
X22299148Y-6619266D01*
X22293537Y-6624236D01*
X22293531Y-6624241D01*
X22180802Y-6724111D01*
X22171817Y-6732071D01*
X22167562Y-6738235D01*
X22167557Y-6738241D01*
X22079445Y-6865893D01*
X22079442Y-6865897D01*
X22075182Y-6872070D01*
X22072523Y-6879081D01*
X22072520Y-6879087D01*
X22017520Y-7024111D01*
X22017517Y-7024119D01*
X22014860Y-7031128D01*
X22013956Y-7038570D01*
X22013955Y-7038576D01*
X22002144Y-7135849D01*
X21994355Y-7200000D01*
X15091168Y-7200000D01*
X15109051Y-7135850D01*
X15157541Y-7090204D01*
X15270852Y-7030734D01*
X15398183Y-6917929D01*
X15442950Y-6853072D01*
X15487374Y-6813716D01*
X15545000Y-6799513D01*
X15602626Y-6813716D01*
X15647049Y-6853072D01*
X15691817Y-6917929D01*
X15819148Y-7030734D01*
X15969775Y-7109790D01*
X16134944Y-7150500D01*
X16297556Y-7150500D01*
X16305056Y-7150500D01*
X16470225Y-7109790D01*
X16620852Y-7030734D01*
X16748183Y-6917929D01*
X16844818Y-6777930D01*
X16905140Y-6618872D01*
X16925645Y-6450000D01*
X16905140Y-6281128D01*
X16844818Y-6122070D01*
X16748183Y-5982071D01*
X16620852Y-5869266D01*
X16595823Y-5856129D01*
X16476866Y-5793695D01*
X16476862Y-5793693D01*
X16470225Y-5790210D01*
X16462947Y-5788416D01*
X16462944Y-5788415D01*
X16406715Y-5774556D01*
X16389838Y-5770396D01*
X16332899Y-5738734D01*
X16299869Y-5682576D01*
X16299869Y-5617424D01*
X16332899Y-5561266D01*
X16389838Y-5529603D01*
X16470225Y-5509790D01*
X16620852Y-5430734D01*
X16748183Y-5317929D01*
X16844818Y-5177930D01*
X16905140Y-5018872D01*
X16925645Y-4850000D01*
X16905140Y-4681128D01*
X16844818Y-4522070D01*
X16748183Y-4382071D01*
X16620852Y-4269266D01*
X16595823Y-4256129D01*
X16476866Y-4193695D01*
X16476862Y-4193693D01*
X16470225Y-4190210D01*
X16462947Y-4188416D01*
X16462944Y-4188415D01*
X16312337Y-4151294D01*
X16312332Y-4151293D01*
X16305056Y-4149500D01*
X16134944Y-4149500D01*
X16127668Y-4151293D01*
X16127662Y-4151294D01*
X15977055Y-4188415D01*
X15977050Y-4188416D01*
X15969775Y-4190210D01*
X15963140Y-4193692D01*
X15963133Y-4193695D01*
X15825791Y-4265779D01*
X15825788Y-4265780D01*
X15819148Y-4269266D01*
X15813537Y-4274236D01*
X15813531Y-4274241D01*
X15727453Y-4350500D01*
X15691817Y-4382071D01*
X15687559Y-4388239D01*
X15687556Y-4388243D01*
X15647049Y-4446927D01*
X15602625Y-4486283D01*
X15545000Y-4500486D01*
X15487375Y-4486283D01*
X15442951Y-4446927D01*
X15402443Y-4388243D01*
X15398183Y-4382071D01*
X15270852Y-4269266D01*
X15245823Y-4256129D01*
X15126866Y-4193695D01*
X15126862Y-4193693D01*
X15120225Y-4190210D01*
X15112947Y-4188416D01*
X15112944Y-4188415D01*
X14962337Y-4151294D01*
X14962332Y-4151293D01*
X14955056Y-4149500D01*
X14784944Y-4149500D01*
X14777668Y-4151293D01*
X14777662Y-4151294D01*
X14627055Y-4188415D01*
X14627050Y-4188416D01*
X14619775Y-4190210D01*
X14613140Y-4193692D01*
X14613133Y-4193695D01*
X14475791Y-4265779D01*
X14475788Y-4265780D01*
X14469148Y-4269266D01*
X14463537Y-4274236D01*
X14463531Y-4274241D01*
X14377453Y-4350500D01*
X14341817Y-4382071D01*
X14337562Y-4388235D01*
X14337557Y-4388241D01*
X14249445Y-4515893D01*
X14249442Y-4515897D01*
X14245182Y-4522070D01*
X14242523Y-4529081D01*
X14242520Y-4529087D01*
X14187520Y-4674111D01*
X14187517Y-4674119D01*
X14184860Y-4681128D01*
X14183956Y-4688570D01*
X14183955Y-4688576D01*
X14165356Y-4841755D01*
X14164355Y-4850000D01*
X14165259Y-4857445D01*
X14183955Y-5011423D01*
X14183956Y-5011427D01*
X14184860Y-5018872D01*
X14187518Y-5025882D01*
X14187520Y-5025888D01*
X14242520Y-5170912D01*
X14245182Y-5177930D01*
X14341817Y-5317929D01*
X14469148Y-5430734D01*
X14619775Y-5509790D01*
X14680790Y-5524828D01*
X14700160Y-5529603D01*
X14757100Y-5561266D01*
X14790130Y-5617424D01*
X14790130Y-5682576D01*
X14757100Y-5738734D01*
X14700160Y-5770397D01*
X14627055Y-5788415D01*
X14627050Y-5788416D01*
X14619775Y-5790210D01*
X14613140Y-5793692D01*
X14613133Y-5793695D01*
X14475791Y-5865779D01*
X14475788Y-5865780D01*
X14469148Y-5869266D01*
X14463537Y-5874236D01*
X14463531Y-5874241D01*
X14347430Y-5977098D01*
X14341817Y-5982071D01*
X14337562Y-5988235D01*
X14337557Y-5988241D01*
X14249445Y-6115893D01*
X14249442Y-6115897D01*
X14245182Y-6122070D01*
X14242523Y-6129081D01*
X14242520Y-6129087D01*
X14187520Y-6274111D01*
X14187517Y-6274119D01*
X14184860Y-6281128D01*
X14183956Y-6288570D01*
X14183955Y-6288576D01*
X14180229Y-6319266D01*
X14164355Y-6450000D01*
X14165259Y-6457445D01*
X14183955Y-6611423D01*
X14183956Y-6611427D01*
X14184860Y-6618872D01*
X14187518Y-6625882D01*
X14187520Y-6625888D01*
X14227790Y-6732071D01*
X14245182Y-6777930D01*
X14249444Y-6784105D01*
X14249445Y-6784106D01*
X14310162Y-6872070D01*
X14341817Y-6917929D01*
X14469148Y-7030734D01*
X14582461Y-7090206D01*
X14630948Y-7135849D01*
X14648831Y-7199998D01*
X14630949Y-7264148D01*
X14582458Y-7309795D01*
X14475789Y-7365780D01*
X14475785Y-7365782D01*
X14469148Y-7369266D01*
X14463537Y-7374236D01*
X14463531Y-7374241D01*
X14348943Y-7475758D01*
X14341817Y-7482071D01*
X14337562Y-7488235D01*
X14337557Y-7488241D01*
X14249445Y-7615893D01*
X14249442Y-7615897D01*
X14245182Y-7622070D01*
X14242523Y-7629081D01*
X14242520Y-7629087D01*
X14187520Y-7774111D01*
X14187517Y-7774119D01*
X14184860Y-7781128D01*
X14183956Y-7788570D01*
X14183955Y-7788576D01*
X14172965Y-7879087D01*
X14164355Y-7950000D01*
X12354373Y-7950000D01*
X12324818Y-7872070D01*
X12228183Y-7732071D01*
X12100852Y-7619266D01*
X12061677Y-7598705D01*
X11956866Y-7543695D01*
X11956862Y-7543693D01*
X11950225Y-7540210D01*
X11942947Y-7538416D01*
X11942944Y-7538415D01*
X11792337Y-7501294D01*
X11792332Y-7501293D01*
X11785056Y-7499500D01*
X11614944Y-7499500D01*
X11607668Y-7501293D01*
X11607662Y-7501294D01*
X11457055Y-7538415D01*
X11457050Y-7538416D01*
X11449775Y-7540210D01*
X11443140Y-7543692D01*
X11443133Y-7543695D01*
X11305791Y-7615779D01*
X11305788Y-7615780D01*
X11299148Y-7619266D01*
X11293537Y-7624236D01*
X11293531Y-7624241D01*
X11177430Y-7727098D01*
X11171817Y-7732071D01*
X11167562Y-7738235D01*
X11167557Y-7738241D01*
X11079445Y-7865893D01*
X11079442Y-7865897D01*
X11075182Y-7872070D01*
X11072523Y-7879081D01*
X11072520Y-7879087D01*
X11017520Y-8024111D01*
X11017517Y-8024119D01*
X11014860Y-8031128D01*
X11013956Y-8038570D01*
X11013955Y-8038576D01*
X11005110Y-8111423D01*
X10994355Y-8200000D01*
X500Y-8200000D01*
X500Y-3000000D01*
X844341Y-3000000D01*
X864937Y-3235408D01*
X866336Y-3240630D01*
X866337Y-3240634D01*
X924694Y-3458430D01*
X924697Y-3458438D01*
X926097Y-3463663D01*
X1025965Y-3677829D01*
X1161505Y-3871401D01*
X1328599Y-4038495D01*
X1522171Y-4174035D01*
X1736337Y-4273903D01*
X1964592Y-4335063D01*
X2141034Y-4350500D01*
X2256258Y-4350500D01*
X2258966Y-4350500D01*
X2435408Y-4335063D01*
X2663663Y-4273903D01*
X2877829Y-4174035D01*
X3071401Y-4038495D01*
X3238495Y-3871401D01*
X3374035Y-3677830D01*
X3473903Y-3463663D01*
X3535063Y-3235408D01*
X3555659Y-3000000D01*
X48544341Y-3000000D01*
X48564937Y-3235408D01*
X48566336Y-3240630D01*
X48566337Y-3240634D01*
X48624694Y-3458430D01*
X48624697Y-3458438D01*
X48626097Y-3463663D01*
X48725965Y-3677829D01*
X48861505Y-3871401D01*
X49028599Y-4038495D01*
X49222171Y-4174035D01*
X49436337Y-4273903D01*
X49664592Y-4335063D01*
X49841034Y-4350500D01*
X49956258Y-4350500D01*
X49958966Y-4350500D01*
X50135408Y-4335063D01*
X50363663Y-4273903D01*
X50577829Y-4174035D01*
X50771401Y-4038495D01*
X50938495Y-3871401D01*
X51074035Y-3677830D01*
X51173903Y-3463663D01*
X51235063Y-3235408D01*
X51255659Y-3000000D01*
X51235063Y-2764592D01*
X51173903Y-2536337D01*
X51074035Y-2322171D01*
X50938495Y-2128599D01*
X50771401Y-1961505D01*
X50577829Y-1825965D01*
X50363663Y-1726097D01*
X50358438Y-1724697D01*
X50358430Y-1724694D01*
X50140634Y-1666337D01*
X50140630Y-1666336D01*
X50135408Y-1664937D01*
X50130020Y-1664465D01*
X50130017Y-1664465D01*
X49961664Y-1649736D01*
X49961662Y-1649735D01*
X49958966Y-1649500D01*
X49841034Y-1649500D01*
X49838338Y-1649735D01*
X49838335Y-1649736D01*
X49669982Y-1664465D01*
X49669977Y-1664465D01*
X49664592Y-1664937D01*
X49659371Y-1666335D01*
X49659365Y-1666337D01*
X49441569Y-1724694D01*
X49441557Y-1724698D01*
X49436337Y-1726097D01*
X49431432Y-1728383D01*
X49431427Y-1728386D01*
X49227081Y-1823675D01*
X49227077Y-1823677D01*
X49222171Y-1825965D01*
X49217738Y-1829068D01*
X49217731Y-1829073D01*
X49033034Y-1958399D01*
X49033029Y-1958402D01*
X49028599Y-1961505D01*
X49024775Y-1965328D01*
X49024769Y-1965334D01*
X48865336Y-2124767D01*
X48865330Y-2124773D01*
X48861505Y-2128599D01*
X48858406Y-2133023D01*
X48858399Y-2133033D01*
X48729066Y-2317740D01*
X48729061Y-2317747D01*
X48725965Y-2322170D01*
X48723683Y-2327061D01*
X48723678Y-2327072D01*
X48628386Y-2531427D01*
X48628383Y-2531432D01*
X48626097Y-2536337D01*
X48624698Y-2541557D01*
X48624694Y-2541569D01*
X48566337Y-2759365D01*
X48566335Y-2759371D01*
X48564937Y-2764592D01*
X48544341Y-3000000D01*
X3555659Y-3000000D01*
X3535063Y-2764592D01*
X3473903Y-2536337D01*
X3374035Y-2322171D01*
X3238495Y-2128599D01*
X3071401Y-1961505D01*
X2877829Y-1825965D01*
X2663663Y-1726097D01*
X2658438Y-1724697D01*
X2658430Y-1724694D01*
X2440634Y-1666337D01*
X2440630Y-1666336D01*
X2435408Y-1664937D01*
X2430020Y-1664465D01*
X2430017Y-1664465D01*
X2261664Y-1649736D01*
X2261662Y-1649735D01*
X2258966Y-1649500D01*
X2141034Y-1649500D01*
X2138338Y-1649735D01*
X2138335Y-1649736D01*
X1969982Y-1664465D01*
X1969977Y-1664465D01*
X1964592Y-1664937D01*
X1959371Y-1666335D01*
X1959365Y-1666337D01*
X1741569Y-1724694D01*
X1741557Y-1724698D01*
X1736337Y-1726097D01*
X1731432Y-1728383D01*
X1731427Y-1728386D01*
X1527081Y-1823675D01*
X1527077Y-1823677D01*
X1522171Y-1825965D01*
X1517738Y-1829068D01*
X1517731Y-1829073D01*
X1333034Y-1958399D01*
X1333029Y-1958402D01*
X1328599Y-1961505D01*
X1324775Y-1965328D01*
X1324769Y-1965334D01*
X1165336Y-2124767D01*
X1165330Y-2124773D01*
X1161505Y-2128599D01*
X1158406Y-2133023D01*
X1158399Y-2133033D01*
X1029066Y-2317740D01*
X1029061Y-2317747D01*
X1025965Y-2322170D01*
X1023683Y-2327061D01*
X1023678Y-2327072D01*
X928386Y-2531427D01*
X928383Y-2531432D01*
X926097Y-2536337D01*
X924698Y-2541557D01*
X924694Y-2541569D01*
X866337Y-2759365D01*
X866335Y-2759371D01*
X864937Y-2764592D01*
X844341Y-3000000D01*
X500Y-3000000D01*
X500Y-124500D01*
X17113Y-62500D01*
X62500Y-17113D01*
X124500Y-500D01*
X52075500Y-500D01*
X52137500Y-17113D01*
G37*
%TD.AperFunction*%
%TD*%
M02*
