M48
; DRILL file {KiCad 8.0.1} date 2024-04-13T18:18:32+0300
; FORMAT={-:-/ absolute / metric / decimal}
; #@! TF.CreationDate,2024-04-13T18:18:32+03:00
; #@! TF.GenerationSoftware,Kicad,Pcbnew,8.0.1
; #@! TF.FileFunction,Plated,1,4,PTH
FMAT,2
METRIC
; #@! TA.AperFunction,Plated,PTH,ViaDrill
T1C0.400
; #@! TA.AperFunction,Plated,PTH,ComponentDrill
T2C0.650
; #@! TA.AperFunction,Plated,PTH,ComponentDrill
T3C0.700
; #@! TA.AperFunction,Plated,PTH,ComponentDrill
T4C1.000
%
G90
G05
T1
X7.495Y-18.4
X9.095Y-23.7
X9.095Y-24.8
X9.095Y-25.9
X9.525Y-8.2
X10.295Y-23.7
X10.295Y-24.8
X10.795Y-12.8
X10.925Y-15.2
X11.395Y-23.7
X11.395Y-24.8
X12.695Y-4.85
X12.695Y-6.45
X12.695Y-7.95
X13.495Y-27.5
X13.895Y-23.9
X14.045Y-4.85
X14.045Y-6.45
X16.595Y-9.0
X16.795Y-16.7
X16.795Y-18.0
X16.795Y-19.3
X16.795Y-20.6
X17.895Y-9.0
X19.195Y-9.0
X20.495Y-9.0
X20.525Y-7.2
X21.795Y-9.0
X23.095Y-9.0
X24.095Y-27.0
X24.195Y-20.8
X24.295Y-23.8
X24.495Y-9.0
X25.495Y-20.8
X25.795Y-9.0
X26.795Y-20.8
X27.095Y-9.0
X28.095Y-20.8
X29.395Y-20.8
X30.695Y-20.8
X30.925Y-6.0
X31.295Y-14.8
X31.295Y-16.5
X32.8Y-17.9
X32.8Y-19.4
X34.795Y-21.4
X34.895Y-15.0
X36.195Y-15.0
X36.595Y-25.3
X36.595Y-26.6
X37.495Y-15.0
X38.095Y-22.6
X38.095Y-23.9
X38.095Y-25.3
X38.095Y-26.6
X38.495Y-12.6
X39.795Y-12.6
X41.295Y-12.4
X42.695Y-11.1
X42.695Y-12.4
X44.8Y-24.8
X44.8Y-26.1
X46.1Y-24.8
X46.1Y-26.1
X46.3Y-21.3
X46.3Y-22.6
X46.5Y-7.5
X46.5Y-8.8
X47.4Y-24.8
X47.4Y-26.1
X47.7Y-21.3
X47.7Y-22.6
X47.8Y-7.5
X47.8Y-8.8
X48.4Y-12.6
X48.4Y-13.9
X49.1Y-7.5
X49.1Y-8.8
X49.1Y-21.3
X49.1Y-22.6
X49.8Y-12.6
X49.8Y-13.9
X49.8Y-15.1
T2
X8.795Y-13.8
X8.795Y-15.07
X8.795Y-16.34
X18.775Y-24.8
X20.045Y-24.8
X21.315Y-24.8
X22.585Y-24.8
X26.795Y-29.3
X35.545Y-13.4
X35.605Y-16.6
X36.815Y-13.4
X36.875Y-16.6
T3
X11.07Y-26.23
X15.92Y-26.23
T4
X38.62Y-3.7
X41.16Y-3.7
X43.7Y-3.7
T3
X9.87Y-28.7G85X9.87Y-29.1
G05
X17.12Y-28.7G85X17.12Y-29.1
G05
M30
