%TF.GenerationSoftware,KiCad,Pcbnew,(7.0.0)*%
%TF.CreationDate,2024-02-23T23:29:38+02:00*%
%TF.ProjectId,mains-detector,6d61696e-732d-4646-9574-6563746f722e,rev?*%
%TF.SameCoordinates,Original*%
%TF.FileFunction,Legend,Bot*%
%TF.FilePolarity,Positive*%
%FSLAX46Y46*%
G04 Gerber Fmt 4.6, Leading zero omitted, Abs format (unit mm)*
G04 Created by KiCad (PCBNEW (7.0.0)) date 2024-02-23 23:29:38*
%MOMM*%
%LPD*%
G01*
G04 APERTURE LIST*
G04 Aperture macros list*
%AMRoundRect*
0 Rectangle with rounded corners*
0 $1 Rounding radius*
0 $2 $3 $4 $5 $6 $7 $8 $9 X,Y pos of 4 corners*
0 Add a 4 corners polygon primitive as box body*
4,1,4,$2,$3,$4,$5,$6,$7,$8,$9,$2,$3,0*
0 Add four circle primitives for the rounded corners*
1,1,$1+$1,$2,$3*
1,1,$1+$1,$4,$5*
1,1,$1+$1,$6,$7*
1,1,$1+$1,$8,$9*
0 Add four rect primitives between the rounded corners*
20,1,$1+$1,$2,$3,$4,$5,0*
20,1,$1+$1,$4,$5,$6,$7,0*
20,1,$1+$1,$6,$7,$8,$9,0*
20,1,$1+$1,$8,$9,$2,$3,0*%
G04 Aperture macros list end*
%ADD10C,0.150000*%
%ADD11C,0.120000*%
%ADD12C,2.200000*%
%ADD13R,1.000000X1.000000*%
%ADD14O,1.000000X1.000000*%
%ADD15C,1.300000*%
%ADD16O,1.300000X1.800000*%
%ADD17RoundRect,0.237500X-0.250000X-0.237500X0.250000X-0.237500X0.250000X0.237500X-0.250000X0.237500X0*%
G04 APERTURE END LIST*
D10*
%TO.C,R14*%
X31812857Y-13867380D02*
X32146190Y-13391190D01*
X32384285Y-13867380D02*
X32384285Y-12867380D01*
X32384285Y-12867380D02*
X32003333Y-12867380D01*
X32003333Y-12867380D02*
X31908095Y-12915000D01*
X31908095Y-12915000D02*
X31860476Y-12962619D01*
X31860476Y-12962619D02*
X31812857Y-13057857D01*
X31812857Y-13057857D02*
X31812857Y-13200714D01*
X31812857Y-13200714D02*
X31860476Y-13295952D01*
X31860476Y-13295952D02*
X31908095Y-13343571D01*
X31908095Y-13343571D02*
X32003333Y-13391190D01*
X32003333Y-13391190D02*
X32384285Y-13391190D01*
X30860476Y-13867380D02*
X31431904Y-13867380D01*
X31146190Y-13867380D02*
X31146190Y-12867380D01*
X31146190Y-12867380D02*
X31241428Y-13010238D01*
X31241428Y-13010238D02*
X31336666Y-13105476D01*
X31336666Y-13105476D02*
X31431904Y-13153095D01*
X30003333Y-13200714D02*
X30003333Y-13867380D01*
X30241428Y-12819761D02*
X30479523Y-13534047D01*
X30479523Y-13534047D02*
X29860476Y-13534047D01*
%TO.C,R15*%
X31912857Y-18297380D02*
X32246190Y-17821190D01*
X32484285Y-18297380D02*
X32484285Y-17297380D01*
X32484285Y-17297380D02*
X32103333Y-17297380D01*
X32103333Y-17297380D02*
X32008095Y-17345000D01*
X32008095Y-17345000D02*
X31960476Y-17392619D01*
X31960476Y-17392619D02*
X31912857Y-17487857D01*
X31912857Y-17487857D02*
X31912857Y-17630714D01*
X31912857Y-17630714D02*
X31960476Y-17725952D01*
X31960476Y-17725952D02*
X32008095Y-17773571D01*
X32008095Y-17773571D02*
X32103333Y-17821190D01*
X32103333Y-17821190D02*
X32484285Y-17821190D01*
X30960476Y-18297380D02*
X31531904Y-18297380D01*
X31246190Y-18297380D02*
X31246190Y-17297380D01*
X31246190Y-17297380D02*
X31341428Y-17440238D01*
X31341428Y-17440238D02*
X31436666Y-17535476D01*
X31436666Y-17535476D02*
X31531904Y-17583095D01*
X30055714Y-17297380D02*
X30531904Y-17297380D01*
X30531904Y-17297380D02*
X30579523Y-17773571D01*
X30579523Y-17773571D02*
X30531904Y-17725952D01*
X30531904Y-17725952D02*
X30436666Y-17678333D01*
X30436666Y-17678333D02*
X30198571Y-17678333D01*
X30198571Y-17678333D02*
X30103333Y-17725952D01*
X30103333Y-17725952D02*
X30055714Y-17773571D01*
X30055714Y-17773571D02*
X30008095Y-17868809D01*
X30008095Y-17868809D02*
X30008095Y-18106904D01*
X30008095Y-18106904D02*
X30055714Y-18202142D01*
X30055714Y-18202142D02*
X30103333Y-18249761D01*
X30103333Y-18249761D02*
X30198571Y-18297380D01*
X30198571Y-18297380D02*
X30436666Y-18297380D01*
X30436666Y-18297380D02*
X30531904Y-18249761D01*
X30531904Y-18249761D02*
X30579523Y-18202142D01*
D11*
%TO.C,R14*%
X31015276Y-14277500D02*
X31524724Y-14277500D01*
X31015276Y-15322500D02*
X31524724Y-15322500D01*
%TO.C,R15*%
X31015276Y-15977500D02*
X31524724Y-15977500D01*
X31015276Y-17022500D02*
X31524724Y-17022500D01*
%TD*%
%LPC*%
D12*
%TO.C,H3*%
X49900000Y-28100000D03*
%TD*%
D13*
%TO.C,J3*%
X24759999Y-24799999D03*
D14*
X23489999Y-24799999D03*
X22219999Y-24799999D03*
X20949999Y-24799999D03*
%TD*%
D13*
%TO.C,J4*%
X28969999Y-29299999D03*
%TD*%
%TO.C,J2*%
X10969999Y-13799999D03*
D14*
X10969999Y-15069999D03*
X10969999Y-16339999D03*
%TD*%
D13*
%TO.C,SW2*%
X39049999Y-16599999D03*
D14*
X37779999Y-16599999D03*
%TD*%
D12*
%TO.C,H4*%
X2200000Y-28100000D03*
%TD*%
D13*
%TO.C,BT1*%
X38989999Y-13399999D03*
D14*
X37719999Y-13399999D03*
%TD*%
D12*
%TO.C,H2*%
X49900000Y-3000000D03*
%TD*%
D15*
%TO.C,USB1*%
X18095000Y-26230000D03*
D16*
X19294999Y-28899999D03*
X12044999Y-28899999D03*
D15*
X13245000Y-26230000D03*
%TD*%
D12*
%TO.C,H1*%
X2200000Y-3000000D03*
%TD*%
D17*
%TO.C,R14*%
X30357500Y-14800000D03*
X32182500Y-14800000D03*
%TD*%
%TO.C,R15*%
X30357500Y-16500000D03*
X32182500Y-16500000D03*
%TD*%
M02*
