%TF.GenerationSoftware,KiCad,Pcbnew,(7.0.0)*%
%TF.CreationDate,2024-02-23T23:29:38+02:00*%
%TF.ProjectId,mains-detector,6d61696e-732d-4646-9574-6563746f722e,rev?*%
%TF.SameCoordinates,Original*%
%TF.FileFunction,Copper,L1,Top*%
%TF.FilePolarity,Positive*%
%FSLAX46Y46*%
G04 Gerber Fmt 4.6, Leading zero omitted, Abs format (unit mm)*
G04 Created by KiCad (PCBNEW (7.0.0)) date 2024-02-23 23:29:38*
%MOMM*%
%LPD*%
G01*
G04 APERTURE LIST*
G04 Aperture macros list*
%AMRoundRect*
0 Rectangle with rounded corners*
0 $1 Rounding radius*
0 $2 $3 $4 $5 $6 $7 $8 $9 X,Y pos of 4 corners*
0 Add a 4 corners polygon primitive as box body*
4,1,4,$2,$3,$4,$5,$6,$7,$8,$9,$2,$3,0*
0 Add four circle primitives for the rounded corners*
1,1,$1+$1,$2,$3*
1,1,$1+$1,$4,$5*
1,1,$1+$1,$6,$7*
1,1,$1+$1,$8,$9*
0 Add four rect primitives between the rounded corners*
20,1,$1+$1,$2,$3,$4,$5,0*
20,1,$1+$1,$4,$5,$6,$7,0*
20,1,$1+$1,$6,$7,$8,$9,0*
20,1,$1+$1,$8,$9,$2,$3,0*%
%AMFreePoly0*
4,1,19,0.500000,-0.750000,0.000000,-0.750000,0.000000,-0.744911,-0.071157,-0.744911,-0.207708,-0.704816,-0.327430,-0.627875,-0.420627,-0.520320,-0.479746,-0.390866,-0.500000,-0.250000,-0.500000,0.250000,-0.479746,0.390866,-0.420627,0.520320,-0.327430,0.627875,-0.207708,0.704816,-0.071157,0.744911,0.000000,0.744911,0.000000,0.750000,0.500000,0.750000,0.500000,-0.750000,0.500000,-0.750000,
$1*%
%AMFreePoly1*
4,1,19,0.000000,0.744911,0.071157,0.744911,0.207708,0.704816,0.327430,0.627875,0.420627,0.520320,0.479746,0.390866,0.500000,0.250000,0.500000,-0.250000,0.479746,-0.390866,0.420627,-0.520320,0.327430,-0.627875,0.207708,-0.704816,0.071157,-0.744911,0.000000,-0.744911,0.000000,-0.750000,-0.500000,-0.750000,-0.500000,0.750000,0.000000,0.750000,0.000000,0.744911,0.000000,0.744911,
$1*%
G04 Aperture macros list end*
%TA.AperFunction,SMDPad,CuDef*%
%ADD10RoundRect,0.140000X0.140000X0.170000X-0.140000X0.170000X-0.140000X-0.170000X0.140000X-0.170000X0*%
%TD*%
%TA.AperFunction,SMDPad,CuDef*%
%ADD11RoundRect,0.135000X-0.185000X0.135000X-0.185000X-0.135000X0.185000X-0.135000X0.185000X0.135000X0*%
%TD*%
%TA.AperFunction,SMDPad,CuDef*%
%ADD12RoundRect,0.150000X-0.825000X-0.150000X0.825000X-0.150000X0.825000X0.150000X-0.825000X0.150000X0*%
%TD*%
%TA.AperFunction,SMDPad,CuDef*%
%ADD13RoundRect,0.218750X-0.218750X-0.256250X0.218750X-0.256250X0.218750X0.256250X-0.218750X0.256250X0*%
%TD*%
%TA.AperFunction,SMDPad,CuDef*%
%ADD14RoundRect,0.135000X0.185000X-0.135000X0.185000X0.135000X-0.185000X0.135000X-0.185000X-0.135000X0*%
%TD*%
%TA.AperFunction,SMDPad,CuDef*%
%ADD15RoundRect,0.150000X-0.587500X-0.150000X0.587500X-0.150000X0.587500X0.150000X-0.587500X0.150000X0*%
%TD*%
%TA.AperFunction,SMDPad,CuDef*%
%ADD16FreePoly0,0.000000*%
%TD*%
%TA.AperFunction,SMDPad,CuDef*%
%ADD17FreePoly1,0.000000*%
%TD*%
%TA.AperFunction,SMDPad,CuDef*%
%ADD18RoundRect,0.225000X0.250000X-0.225000X0.250000X0.225000X-0.250000X0.225000X-0.250000X-0.225000X0*%
%TD*%
%TA.AperFunction,SMDPad,CuDef*%
%ADD19RoundRect,0.135000X0.135000X0.185000X-0.135000X0.185000X-0.135000X-0.185000X0.135000X-0.185000X0*%
%TD*%
%TA.AperFunction,SMDPad,CuDef*%
%ADD20RoundRect,0.150000X0.150000X-0.587500X0.150000X0.587500X-0.150000X0.587500X-0.150000X-0.587500X0*%
%TD*%
%TA.AperFunction,ComponentPad*%
%ADD21R,1.000000X1.000000*%
%TD*%
%TA.AperFunction,ComponentPad*%
%ADD22O,1.000000X1.000000*%
%TD*%
%TA.AperFunction,SMDPad,CuDef*%
%ADD23RoundRect,0.140000X0.170000X-0.140000X0.170000X0.140000X-0.170000X0.140000X-0.170000X-0.140000X0*%
%TD*%
%TA.AperFunction,SMDPad,CuDef*%
%ADD24RoundRect,0.140000X-0.170000X0.140000X-0.170000X-0.140000X0.170000X-0.140000X0.170000X0.140000X0*%
%TD*%
%TA.AperFunction,SMDPad,CuDef*%
%ADD25RoundRect,0.250000X0.312500X0.275000X-0.312500X0.275000X-0.312500X-0.275000X0.312500X-0.275000X0*%
%TD*%
%TA.AperFunction,SMDPad,CuDef*%
%ADD26R,0.431800X1.193800*%
%TD*%
%TA.AperFunction,SMDPad,CuDef*%
%ADD27R,0.482600X1.193800*%
%TD*%
%TA.AperFunction,SMDPad,CuDef*%
%ADD28RoundRect,0.250000X-0.537500X-0.425000X0.537500X-0.425000X0.537500X0.425000X-0.537500X0.425000X0*%
%TD*%
%TA.AperFunction,SMDPad,CuDef*%
%ADD29FreePoly0,90.000000*%
%TD*%
%TA.AperFunction,SMDPad,CuDef*%
%ADD30FreePoly1,90.000000*%
%TD*%
%TA.AperFunction,SMDPad,CuDef*%
%ADD31RoundRect,0.140000X-0.140000X-0.170000X0.140000X-0.170000X0.140000X0.170000X-0.140000X0.170000X0*%
%TD*%
%TA.AperFunction,SMDPad,CuDef*%
%ADD32RoundRect,0.225000X0.375000X-0.225000X0.375000X0.225000X-0.375000X0.225000X-0.375000X-0.225000X0*%
%TD*%
%TA.AperFunction,SMDPad,CuDef*%
%ADD33RoundRect,0.135000X-0.135000X-0.185000X0.135000X-0.185000X0.135000X0.185000X-0.135000X0.185000X0*%
%TD*%
%TA.AperFunction,SMDPad,CuDef*%
%ADD34RoundRect,0.250000X0.537500X0.425000X-0.537500X0.425000X-0.537500X-0.425000X0.537500X-0.425000X0*%
%TD*%
%TA.AperFunction,SMDPad,CuDef*%
%ADD35R,0.977900X0.508000*%
%TD*%
%TA.AperFunction,SMDPad,CuDef*%
%ADD36FreePoly0,270.000000*%
%TD*%
%TA.AperFunction,SMDPad,CuDef*%
%ADD37FreePoly1,270.000000*%
%TD*%
%TA.AperFunction,SMDPad,CuDef*%
%ADD38R,1.500000X1.500000*%
%TD*%
%TA.AperFunction,SMDPad,CuDef*%
%ADD39R,0.400000X1.600000*%
%TD*%
%TA.AperFunction,ComponentPad*%
%ADD40C,1.300000*%
%TD*%
%TA.AperFunction,ComponentPad*%
%ADD41O,1.300000X1.800000*%
%TD*%
%TA.AperFunction,SMDPad,CuDef*%
%ADD42R,1.800000X1.100000*%
%TD*%
%TA.AperFunction,ViaPad*%
%ADD43C,0.800000*%
%TD*%
%TA.AperFunction,Conductor*%
%ADD44C,0.250000*%
%TD*%
%TA.AperFunction,Conductor*%
%ADD45C,0.500000*%
%TD*%
G04 APERTURE END LIST*
%TO.C,U1*%
G36*
X43639800Y-23225300D02*
G01*
X44224000Y-23758700D01*
X44224000Y-26222500D01*
X42573000Y-26222500D01*
X42573000Y-23758700D01*
X43157200Y-23199900D01*
X43157200Y-22971300D01*
X43639800Y-22971300D01*
X43639800Y-23225300D01*
G37*
%TD*%
D10*
%TO.P,C1,1*%
%TO.N,GND*%
X18747000Y-7076500D03*
%TO.P,C1,2*%
%TO.N,VCC*%
X17787000Y-7076500D03*
%TD*%
D11*
%TO.P,R9,1*%
%TO.N,VCC*%
X14320000Y-9290000D03*
%TO.P,R9,2*%
%TO.N,EN*%
X14320000Y-10310000D03*
%TD*%
D12*
%TO.P,U3,1,GND*%
%TO.N,Net-(Q1-D)*%
X28570000Y-23330000D03*
%TO.P,U3,2,TR*%
%TO.N,Net-(J4-Pin_1)*%
X28570000Y-24600000D03*
%TO.P,U3,3,Q*%
%TO.N,IO4*%
X28570000Y-25870000D03*
%TO.P,U3,4,R*%
%TO.N,unconnected-(U3-R-Pad4)*%
X28570000Y-27140000D03*
%TO.P,U3,5,CV*%
%TO.N,unconnected-(U3-CV-Pad5)*%
X33520000Y-27140000D03*
%TO.P,U3,6,THR*%
%TO.N,Net-(U3-DIS)*%
X33520000Y-25870000D03*
%TO.P,U3,7,DIS*%
X33520000Y-24600000D03*
%TO.P,U3,8,VCC*%
%TO.N,Net-(JP3-A)*%
X33520000Y-23330000D03*
%TD*%
D13*
%TO.P,D1,1,K*%
%TO.N,Net-(D1-K)*%
X39382500Y-6500000D03*
%TO.P,D1,2,A*%
%TO.N,VBUS*%
X40957500Y-6500000D03*
%TD*%
D11*
%TO.P,R3,1*%
%TO.N,VCC*%
X14070000Y-14390000D03*
%TO.P,R3,2*%
%TO.N,Net-(JP1-A)*%
X14070000Y-15410000D03*
%TD*%
D14*
%TO.P,R4,1*%
%TO.N,Net-(U2-CHRG)*%
X38070000Y-7410000D03*
%TO.P,R4,2*%
%TO.N,Net-(D1-K)*%
X38070000Y-6390000D03*
%TD*%
D15*
%TO.P,Q1,1,G*%
%TO.N,IO5*%
X24320000Y-27250000D03*
%TO.P,Q1,2,S*%
%TO.N,GND*%
X24320000Y-29150000D03*
%TO.P,Q1,3,D*%
%TO.N,Net-(Q1-D)*%
X26195000Y-28200000D03*
%TD*%
D16*
%TO.P,JP3,1,A*%
%TO.N,Net-(JP3-A)*%
X37370000Y-23300000D03*
D17*
%TO.P,JP3,2,B*%
%TO.N,VCC*%
X38670000Y-23300000D03*
%TD*%
D18*
%TO.P,C8,1*%
%TO.N,Net-(BT1-+)*%
X37290000Y-10675000D03*
%TO.P,C8,2*%
%TO.N,GND*%
X37290000Y-9125000D03*
%TD*%
D19*
%TO.P,R6,1*%
%TO.N,VBUS*%
X38270000Y-5000000D03*
%TO.P,R6,2*%
%TO.N,SENSE*%
X37250000Y-5000000D03*
%TD*%
%TO.P,R7,1*%
%TO.N,SENSE*%
X36380000Y-5000000D03*
%TO.P,R7,2*%
%TO.N,GND*%
X35360000Y-5000000D03*
%TD*%
D20*
%TO.P,Q2,1,G*%
%TO.N,Net-(Q2-G)*%
X9920000Y-20675000D03*
%TO.P,Q2,2,S*%
%TO.N,GND*%
X11820000Y-20675000D03*
%TO.P,Q2,3,D*%
%TO.N,Net-(J2-Pin_3)*%
X10870000Y-18800000D03*
%TD*%
D21*
%TO.P,J3,1,Pin_1*%
%TO.N,VCC*%
X24759999Y-24799999D03*
D22*
%TO.P,J3,2,Pin_2*%
%TO.N,IO4*%
X23489999Y-24799999D03*
%TO.P,J3,3,Pin_3*%
%TO.N,IO5*%
X22219999Y-24799999D03*
%TO.P,J3,4,Pin_4*%
%TO.N,GND*%
X20949999Y-24799999D03*
%TD*%
D14*
%TO.P,R5,1*%
%TO.N,Net-(U2-PROG)*%
X42290000Y-7510000D03*
%TO.P,R5,2*%
%TO.N,GND*%
X42290000Y-6490000D03*
%TD*%
D21*
%TO.P,J4,1,Pin_1*%
%TO.N,Net-(J4-Pin_1)*%
X28969999Y-29299999D03*
%TD*%
%TO.P,J2,1,Pin_1*%
%TO.N,VCC*%
X10969999Y-13799999D03*
D22*
%TO.P,J2,2,Pin_2*%
%TO.N,Net-(J2-Pin_2)*%
X10969999Y-15069999D03*
%TO.P,J2,3,Pin_3*%
%TO.N,Net-(J2-Pin_3)*%
X10969999Y-16339999D03*
%TD*%
D23*
%TO.P,C7,1*%
%TO.N,VBUS*%
X43320000Y-10780000D03*
%TO.P,C7,2*%
%TO.N,GND*%
X43320000Y-9820000D03*
%TD*%
D24*
%TO.P,C9,1*%
%TO.N,GND*%
X35670000Y-22320000D03*
%TO.P,C9,2*%
%TO.N,Net-(JP3-A)*%
X35670000Y-23280000D03*
%TD*%
D21*
%TO.P,SW2,1,A*%
%TO.N,Net-(D2-K)*%
X39049999Y-16599999D03*
D22*
%TO.P,SW2,2,B*%
%TO.N,Net-(SW2-B)*%
X37779999Y-16599999D03*
%TD*%
D25*
%TO.P,C10,1*%
%TO.N,Net-(U3-DIS)*%
X35157500Y-29200000D03*
%TO.P,C10,2*%
%TO.N,GND*%
X33382500Y-29200000D03*
%TD*%
D26*
%TO.P,U1,1,VSS*%
%TO.N,GND*%
X44898499Y-22374399D03*
D27*
%TO.P,U1,2,VIN*%
%TO.N,Net-(SW2-B)*%
X43398499Y-22374399D03*
D26*
%TO.P,U1,3,VOUT*%
%TO.N,VCC*%
X41898499Y-22374399D03*
%TD*%
D19*
%TO.P,R1,1*%
%TO.N,VCC*%
X34280000Y-7000000D03*
%TO.P,R1,2*%
%TO.N,Net-(L1-IO2)*%
X33260000Y-7000000D03*
%TD*%
D28*
%TO.P,C2,1*%
%TO.N,VCC*%
X18279500Y-5376500D03*
%TO.P,C2,2*%
%TO.N,GND*%
X21154500Y-5376500D03*
%TD*%
D14*
%TO.P,R10,1*%
%TO.N,EN*%
X11770000Y-10360000D03*
%TO.P,R10,2*%
%TO.N,Net-(R10-Pad2)*%
X11770000Y-9340000D03*
%TD*%
D19*
%TO.P,R12,1*%
%TO.N,TX_EN*%
X14870000Y-11900000D03*
%TO.P,R12,2*%
%TO.N,Net-(Q2-G)*%
X13850000Y-11900000D03*
%TD*%
D29*
%TO.P,JP2,1,A*%
%TO.N,Net-(JP2-A)*%
X14170000Y-21950000D03*
D30*
%TO.P,JP2,2,B*%
%TO.N,Net-(JP2-B)*%
X14170000Y-20650000D03*
%TD*%
D31*
%TO.P,C5,1*%
%TO.N,Net-(SW2-B)*%
X43390000Y-20800000D03*
%TO.P,C5,2*%
%TO.N,GND*%
X44350000Y-20800000D03*
%TD*%
D32*
%TO.P,D3,1,K*%
%TO.N,Net-(D2-K)*%
X41470000Y-17400000D03*
%TO.P,D3,2,A*%
%TO.N,Net-(BT1-+)*%
X41470000Y-14100000D03*
%TD*%
D33*
%TO.P,R17,1*%
%TO.N,Net-(U3-DIS)*%
X35610000Y-25700000D03*
%TO.P,R17,2*%
%TO.N,Net-(JP3-A)*%
X36630000Y-25700000D03*
%TD*%
D34*
%TO.P,C4,1*%
%TO.N,Net-(SW2-B)*%
X40770000Y-19600000D03*
%TO.P,C4,2*%
%TO.N,GND*%
X37895000Y-19600000D03*
%TD*%
D21*
%TO.P,BT1,1,+*%
%TO.N,Net-(BT1-+)*%
X38989999Y-13399999D03*
D22*
%TO.P,BT1,2,-*%
%TO.N,GND*%
X37719999Y-13399999D03*
%TD*%
D10*
%TO.P,C6,1*%
%TO.N,VCC*%
X39150000Y-21500000D03*
%TO.P,C6,2*%
%TO.N,GND*%
X38190000Y-21500000D03*
%TD*%
D35*
%TO.P,U2,1,CHRG*%
%TO.N,Net-(U2-CHRG)*%
X39089999Y-8899997D03*
%TO.P,U2,2,GND*%
%TO.N,GND*%
X39089999Y-9849998D03*
%TO.P,U2,3,BAT*%
%TO.N,Net-(BT1-+)*%
X39089999Y-10799999D03*
%TO.P,U2,4,VCC*%
%TO.N,VBUS*%
X41769699Y-10799999D03*
%TO.P,U2,5,PROG*%
%TO.N,Net-(U2-PROG)*%
X41769699Y-8899997D03*
%TD*%
D23*
%TO.P,C3,1*%
%TO.N,EN*%
X13020000Y-10330000D03*
%TO.P,C3,2*%
%TO.N,GND*%
X13020000Y-9370000D03*
%TD*%
D14*
%TO.P,R16,1*%
%TO.N,GND*%
X22570000Y-28310000D03*
%TO.P,R16,2*%
%TO.N,IO5*%
X22570000Y-27290000D03*
%TD*%
D36*
%TO.P,JP1,1,A*%
%TO.N,Net-(JP1-A)*%
X14100000Y-17100000D03*
D37*
%TO.P,JP1,2,B*%
%TO.N,Net-(JP1-B)*%
X14100000Y-18400000D03*
%TD*%
D19*
%TO.P,R11,1*%
%TO.N,TX*%
X14970000Y-13200000D03*
%TO.P,R11,2*%
%TO.N,Net-(J2-Pin_2)*%
X13950000Y-13200000D03*
%TD*%
D33*
%TO.P,R2,1*%
%TO.N,Net-(JP2-A)*%
X18060000Y-23100000D03*
%TO.P,R2,2*%
%TO.N,GND*%
X19080000Y-23100000D03*
%TD*%
D38*
%TO.P,SW1,1,1*%
%TO.N,GND*%
X31569999Y-5299999D03*
%TO.P,SW1,2,2*%
%TO.N,Net-(R10-Pad2)*%
X23769999Y-5299999D03*
%TD*%
D32*
%TO.P,D2,1,K*%
%TO.N,Net-(D2-K)*%
X44070000Y-17350000D03*
%TO.P,D2,2,A*%
%TO.N,VBUS*%
X44070000Y-14050000D03*
%TD*%
D33*
%TO.P,R18,1*%
%TO.N,IO4*%
X23460000Y-22600000D03*
%TO.P,R18,2*%
%TO.N,Net-(L1-IO4)*%
X24480000Y-22600000D03*
%TD*%
D39*
%TO.P,USB1,1,VBUS*%
%TO.N,VBUS*%
X14369999Y-25707999D03*
%TO.P,USB1,2,D-*%
%TO.N,Net-(USB1-D-)*%
X15019999Y-25707999D03*
%TO.P,USB1,3,D+*%
%TO.N,Net-(USB1-D+)*%
X15669999Y-25707999D03*
%TO.P,USB1,4,ID*%
%TO.N,unconnected-(USB1-ID-Pad4)*%
X16319999Y-25707999D03*
%TO.P,USB1,5,GND*%
%TO.N,GND*%
X16969999Y-25707999D03*
D40*
%TO.P,USB1,6,SH1*%
X18095000Y-26230000D03*
D41*
%TO.P,USB1,7,SH2*%
X19294999Y-28899999D03*
%TO.P,USB1,8,SH3*%
X12044999Y-28899999D03*
D40*
%TO.P,USB1,9,SH4*%
X13245000Y-26230000D03*
%TD*%
D42*
%TO.P,L1,1,VCC*%
%TO.N,VCC*%
X16969999Y-8899999D03*
%TO.P,L1,2,EN*%
%TO.N,EN*%
X16969999Y-10399999D03*
%TO.P,L1,3,IO4*%
%TO.N,Net-(L1-IO4)*%
X16969999Y-11899999D03*
%TO.P,L1,4,IO5*%
%TO.N,Net-(L1-IO5)*%
X16969999Y-13399999D03*
%TO.P,L1,5,IO6*%
%TO.N,TX_EN*%
X16969999Y-14899999D03*
%TO.P,L1,6,IO7*%
%TO.N,TX*%
X16969999Y-16399999D03*
%TO.P,L1,7,IO8*%
%TO.N,Net-(JP1-B)*%
X16969999Y-17899999D03*
%TO.P,L1,8,IO9*%
%TO.N,Net-(JP2-B)*%
X16969999Y-19399999D03*
%TO.P,L1,9,GND*%
%TO.N,GND*%
X16969999Y-20899999D03*
%TO.P,L1,10,IO10*%
%TO.N,unconnected-(L1-IO10-Pad10)*%
X34969999Y-20899999D03*
%TO.P,L1,11,RXD*%
%TO.N,unconnected-(L1-RXD-Pad11)*%
X34969999Y-19399999D03*
%TO.P,L1,12,TXD*%
%TO.N,unconnected-(L1-TXD-Pad12)*%
X34969999Y-17899999D03*
%TO.P,L1,13,IO18*%
%TO.N,D-*%
X34969999Y-16399999D03*
%TO.P,L1,14,IO19*%
%TO.N,D+*%
X34969999Y-14899999D03*
%TO.P,L1,15,IO3*%
%TO.N,SENSE*%
X34969999Y-13399999D03*
%TO.P,L1,16,IO2*%
%TO.N,Net-(L1-IO2)*%
X34969999Y-11899999D03*
%TO.P,L1,17,IO1*%
%TO.N,unconnected-(L1-IO1-Pad17)*%
X34969999Y-10399999D03*
%TO.P,L1,18,IO0*%
%TO.N,unconnected-(L1-IO0-Pad18)*%
X34969999Y-8899999D03*
%TD*%
D19*
%TO.P,R19,1*%
%TO.N,IO5*%
X22180000Y-22600000D03*
%TO.P,R19,2*%
%TO.N,Net-(L1-IO5)*%
X21160000Y-22600000D03*
%TD*%
D33*
%TO.P,R13,1*%
%TO.N,GND*%
X11750000Y-11900000D03*
%TO.P,R13,2*%
%TO.N,Net-(Q2-G)*%
X12770000Y-11900000D03*
%TD*%
D43*
%TO.N,GND*%
X18770000Y-9000000D03*
X32870000Y-20800000D03*
X25270000Y-9000000D03*
X20070000Y-9000000D03*
X39670000Y-15000000D03*
X18970000Y-18000000D03*
X27670000Y-20800000D03*
X18970000Y-16700000D03*
X26370000Y-20800000D03*
X22670000Y-9000000D03*
X38370000Y-15000000D03*
X21370000Y-9000000D03*
X30270000Y-20800000D03*
X28970000Y-20800000D03*
X36970000Y-21400000D03*
X37070000Y-15000000D03*
X23970000Y-9000000D03*
X26670000Y-9000000D03*
X40670000Y-12600000D03*
X27970000Y-9000000D03*
X18970000Y-19300000D03*
X18970000Y-20600000D03*
X29270000Y-9000000D03*
X41970000Y-12600000D03*
X31570000Y-20800000D03*
%TO.N,VCC*%
X35200000Y-6900000D03*
X14870000Y-4850000D03*
X16220000Y-4850000D03*
X38770000Y-26600000D03*
X38770000Y-25300000D03*
X40270000Y-26600000D03*
X40270000Y-22600000D03*
X40270000Y-25300000D03*
X40270000Y-23900000D03*
X13100000Y-15200000D03*
X14870000Y-6450000D03*
X16220000Y-6450000D03*
X14870000Y-7950000D03*
%TO.N,VBUS*%
X13570000Y-23700000D03*
X44870000Y-12400000D03*
X43470000Y-12400000D03*
X12470000Y-23700000D03*
X11270000Y-23700000D03*
X13570000Y-24800000D03*
X11270000Y-24800000D03*
X11270000Y-25900000D03*
X44870000Y-11100000D03*
X12470000Y-24800000D03*
%TO.N,D+*%
X33470000Y-14800000D03*
%TO.N,D-*%
X33470000Y-16500000D03*
%TO.N,Net-(Q1-D)*%
X26470000Y-23800000D03*
X26270000Y-27000000D03*
%TO.N,Net-(Q2-G)*%
X12970000Y-12800000D03*
X9670000Y-18400000D03*
%TO.N,Net-(R10-Pad2)*%
X22700000Y-7200000D03*
X11700000Y-8200000D03*
%TO.N,Net-(USB1-D+)*%
X16070000Y-23900000D03*
%TO.N,Net-(USB1-D-)*%
X15670000Y-27500000D03*
%TD*%
D44*
%TO.N,Net-(U3-DIS)*%
X35610000Y-28747500D02*
X35157500Y-29200000D01*
X35610000Y-25700000D02*
X35610000Y-28747500D01*
D45*
%TO.N,Net-(BT1-+)*%
X39090000Y-10800000D02*
X37415000Y-10800000D01*
X38990000Y-10900000D02*
X39090000Y-10800000D01*
X38990000Y-13400000D02*
X38990000Y-10900000D01*
X41470000Y-14100000D02*
X39690000Y-14100000D01*
X39690000Y-14100000D02*
X38990000Y-13400000D01*
X38970000Y-10920000D02*
X39090000Y-10800000D01*
X37415000Y-10800000D02*
X37290000Y-10675000D01*
%TO.N,GND*%
X39782949Y-9849999D02*
X40270000Y-10337050D01*
X38014999Y-9849999D02*
X39090000Y-9849999D01*
X39090000Y-9849999D02*
X39782949Y-9849999D01*
X37290000Y-9125000D02*
X38014999Y-9849999D01*
X38190000Y-19895000D02*
X37895000Y-19600000D01*
X38190000Y-21500000D02*
X38190000Y-19895000D01*
X40270000Y-10337050D02*
X40270000Y-11200000D01*
D44*
%TO.N,VCC*%
X35200000Y-6900000D02*
X35100000Y-7000000D01*
D45*
X17787000Y-5869000D02*
X18279500Y-5376500D01*
X17787000Y-7076500D02*
X17787000Y-5869000D01*
D44*
X14070000Y-14390000D02*
X13380000Y-14390000D01*
X35100000Y-7000000D02*
X34280000Y-7000000D01*
X13380000Y-14390000D02*
X13070000Y-14700000D01*
X13070000Y-14700000D02*
X13070000Y-15200000D01*
%TO.N,EN*%
X13020000Y-10330000D02*
X11800000Y-10330000D01*
X16880000Y-10310000D02*
X16970000Y-10400000D01*
X14320000Y-10310000D02*
X16880000Y-10310000D01*
X14320000Y-10310000D02*
X13040000Y-10310000D01*
X11800000Y-10330000D02*
X11770000Y-10360000D01*
X13040000Y-10310000D02*
X13020000Y-10330000D01*
D45*
%TO.N,Net-(SW2-B)*%
X40042894Y-19600000D02*
X40507500Y-19600000D01*
X40507500Y-19600000D02*
X42270000Y-19600000D01*
X37750000Y-17307106D02*
X40042894Y-19600000D01*
X42270000Y-19600000D02*
X43398500Y-20728500D01*
X37750000Y-16600000D02*
X37750000Y-17307106D01*
X43398500Y-20728500D02*
X43398500Y-22374400D01*
D44*
%TO.N,VBUS*%
X40957500Y-6500000D02*
X39457500Y-5000000D01*
D45*
X41769700Y-10800000D02*
X42470000Y-10800000D01*
D44*
X40770000Y-6687500D02*
X40957500Y-6500000D01*
X40770000Y-9800300D02*
X40770000Y-6687500D01*
X41769700Y-10800000D02*
X40770000Y-9800300D01*
D45*
X42470000Y-10800000D02*
X42490000Y-10780000D01*
X42490000Y-10780000D02*
X43320000Y-10780000D01*
D44*
X39457500Y-5000000D02*
X38270000Y-5000000D01*
%TO.N,Net-(JP3-A)*%
X37370000Y-24960000D02*
X36630000Y-25700000D01*
X35690000Y-23300000D02*
X35670000Y-23280000D01*
X37370000Y-23300000D02*
X35690000Y-23300000D01*
X37370000Y-23300000D02*
X37370000Y-24960000D01*
X35670000Y-23280000D02*
X33570000Y-23280000D01*
X33570000Y-23280000D02*
X33520000Y-23330000D01*
%TO.N,Net-(U3-DIS)*%
X35610000Y-25700000D02*
X33690000Y-25700000D01*
X33690000Y-25700000D02*
X33520000Y-25870000D01*
X33520000Y-25870000D02*
X33520000Y-24600000D01*
%TO.N,Net-(D1-K)*%
X38070000Y-6390000D02*
X39272500Y-6390000D01*
X39272500Y-6390000D02*
X39382500Y-6500000D01*
D45*
%TO.N,Net-(D2-K)*%
X39820000Y-17400000D02*
X39020000Y-16600000D01*
X41470000Y-17400000D02*
X39820000Y-17400000D01*
X44070000Y-17350000D02*
X41520000Y-17350000D01*
X41520000Y-17350000D02*
X41470000Y-17400000D01*
D44*
%TO.N,Net-(J2-Pin_2)*%
X13850000Y-13200000D02*
X11980000Y-15070000D01*
X11980000Y-15070000D02*
X10970000Y-15070000D01*
D45*
%TO.N,Net-(J2-Pin_3)*%
X10870000Y-16440000D02*
X10970000Y-16340000D01*
X10870000Y-18800000D02*
X10870000Y-16440000D01*
D44*
%TO.N,IO4*%
X24052894Y-25870000D02*
X23490000Y-25307106D01*
X23490000Y-24800000D02*
X23490000Y-22630000D01*
X23490000Y-25307106D02*
X23490000Y-24600000D01*
X28570000Y-25870000D02*
X24052894Y-25870000D01*
X23490000Y-22630000D02*
X23460000Y-22600000D01*
%TO.N,IO5*%
X22220000Y-22640000D02*
X22180000Y-22600000D01*
X24280000Y-27290000D02*
X24320000Y-27250000D01*
X22220000Y-24600000D02*
X22220000Y-26940000D01*
X22570000Y-27290000D02*
X24280000Y-27290000D01*
X22220000Y-24800000D02*
X22220000Y-22640000D01*
X22220000Y-26940000D02*
X22570000Y-27290000D01*
%TO.N,Net-(J4-Pin_1)*%
X30470000Y-25400000D02*
X30470000Y-27800000D01*
X29670000Y-24600000D02*
X30470000Y-25400000D01*
X30470000Y-27800000D02*
X28970000Y-29300000D01*
X28570000Y-24600000D02*
X29670000Y-24600000D01*
%TO.N,Net-(JP1-A)*%
X14070000Y-15410000D02*
X14070000Y-17050000D01*
%TO.N,Net-(JP1-B)*%
X13820000Y-18200000D02*
X16670000Y-18200000D01*
X16670000Y-18200000D02*
X16970000Y-17900000D01*
%TO.N,Net-(JP2-A)*%
X18060000Y-23100000D02*
X15320000Y-23100000D01*
X15320000Y-23100000D02*
X14170000Y-21950000D01*
%TO.N,Net-(JP2-B)*%
X14170000Y-20650000D02*
X15420000Y-19400000D01*
X15420000Y-19400000D02*
X16970000Y-19400000D01*
%TO.N,Net-(L1-IO2)*%
X33820000Y-11900000D02*
X34970000Y-11900000D01*
X33260000Y-11340000D02*
X33820000Y-11900000D01*
X33260000Y-7000000D02*
X33260000Y-11340000D01*
%TO.N,SENSE*%
X35770000Y-13400000D02*
X34970000Y-13400000D01*
X36380000Y-5000000D02*
X36270000Y-5110000D01*
X36380000Y-5000000D02*
X37250000Y-5000000D01*
X36270000Y-12900000D02*
X35770000Y-13400000D01*
X36270000Y-5110000D02*
X36270000Y-12900000D01*
%TO.N,D+*%
X33570000Y-14900000D02*
X33470000Y-14800000D01*
X34970000Y-14900000D02*
X33570000Y-14900000D01*
%TO.N,D-*%
X34970000Y-16400000D02*
X33570000Y-16400000D01*
X33570000Y-16400000D02*
X33470000Y-16500000D01*
%TO.N,TX*%
X15820000Y-16400000D02*
X16970000Y-16400000D01*
X14970000Y-15550000D02*
X15820000Y-16400000D01*
X14970000Y-13200000D02*
X14970000Y-15550000D01*
%TO.N,TX_EN*%
X15745000Y-12775000D02*
X15745000Y-14575000D01*
X15745000Y-14575000D02*
X16070000Y-14900000D01*
X14870000Y-11900000D02*
X15745000Y-12775000D01*
X16070000Y-14900000D02*
X16970000Y-14900000D01*
%TO.N,Net-(L1-IO5)*%
X21160000Y-16990000D02*
X17570000Y-13400000D01*
X17570000Y-13400000D02*
X16970000Y-13400000D01*
X21160000Y-22600000D02*
X21160000Y-16990000D01*
%TO.N,Net-(L1-IO4)*%
X24480000Y-22600000D02*
X24480000Y-18260000D01*
X18120000Y-11900000D02*
X16970000Y-11900000D01*
X24480000Y-18260000D02*
X18120000Y-11900000D01*
%TO.N,Net-(Q1-D)*%
X26195000Y-27075000D02*
X26270000Y-27000000D01*
X28500000Y-23400000D02*
X28570000Y-23330000D01*
X26870000Y-23400000D02*
X28500000Y-23400000D01*
X26195000Y-28200000D02*
X26195000Y-27075000D01*
X26470000Y-23800000D02*
X26870000Y-23400000D01*
%TO.N,Net-(Q2-G)*%
X9670000Y-20425000D02*
X9920000Y-20675000D01*
X9670000Y-18400000D02*
X9670000Y-20425000D01*
X12770000Y-11900000D02*
X12970000Y-12100000D01*
X13850000Y-11900000D02*
X12770000Y-11900000D01*
X12970000Y-12100000D02*
X12970000Y-12800000D01*
%TO.N,Net-(U2-CHRG)*%
X39090000Y-8899998D02*
X38070000Y-7879998D01*
X38070000Y-7879998D02*
X38070000Y-7410000D01*
%TO.N,Net-(U2-PROG)*%
X41769700Y-8899998D02*
X42290000Y-8379698D01*
X42290000Y-8379698D02*
X42290000Y-7510000D01*
%TO.N,Net-(R10-Pad2)*%
X11770000Y-9340000D02*
X11770000Y-8200000D01*
X23770000Y-5300000D02*
X23770000Y-6100000D01*
X23770000Y-6100000D02*
X22670000Y-7200000D01*
%TO.N,Net-(USB1-D+)*%
X16070000Y-23900000D02*
X16170000Y-23900000D01*
X15670000Y-25316000D02*
X15670000Y-24400000D01*
X16070000Y-24000000D02*
X16070000Y-23900000D01*
X16170000Y-23900000D02*
X16070000Y-24000000D01*
X15670000Y-24400000D02*
X16070000Y-24000000D01*
%TO.N,Net-(USB1-D-)*%
X15670000Y-27500000D02*
X15020000Y-26850000D01*
X15020000Y-26850000D02*
X15020000Y-25316000D01*
%TD*%
%TA.AperFunction,Conductor*%
%TO.N,VCC*%
G36*
X42608000Y-20916613D02*
G01*
X42653387Y-20962000D01*
X42670000Y-21024000D01*
X42670000Y-21321144D01*
X42656485Y-21377439D01*
X42618885Y-21421462D01*
X42565398Y-21443617D01*
X42507682Y-21439075D01*
X42473310Y-21418011D01*
X42471589Y-21420311D01*
X42363589Y-21339462D01*
X42348177Y-21331047D01*
X42229041Y-21286611D01*
X42214067Y-21283073D01*
X42165514Y-21277853D01*
X42158918Y-21277500D01*
X42130726Y-21277500D01*
X42117850Y-21280950D01*
X42114400Y-21293826D01*
X42114400Y-23454974D01*
X42117850Y-23467849D01*
X42130726Y-23471300D01*
X42158918Y-23471300D01*
X42168850Y-23470768D01*
X42168902Y-23471748D01*
X42228553Y-23481197D01*
X42278717Y-23522269D01*
X42301295Y-23583043D01*
X42293371Y-23628318D01*
X42296155Y-23629038D01*
X42291180Y-23648267D01*
X42288281Y-23659468D01*
X42283863Y-23673192D01*
X42276651Y-23691808D01*
X42276649Y-23691815D01*
X42272500Y-23702527D01*
X42272500Y-23714014D01*
X42271326Y-23720294D01*
X42270888Y-23726676D01*
X42268010Y-23737800D01*
X42269344Y-23749214D01*
X42268559Y-23760678D01*
X42267147Y-23760581D01*
X42264631Y-23791388D01*
X42242262Y-23834671D01*
X41876548Y-24291814D01*
X41876546Y-24291817D01*
X41870000Y-24300000D01*
X41870000Y-24310483D01*
X41870000Y-27476000D01*
X41853387Y-27538000D01*
X41808000Y-27583387D01*
X41746000Y-27600000D01*
X38194000Y-27600000D01*
X38132000Y-27583387D01*
X38086613Y-27538000D01*
X38070000Y-27476000D01*
X38070000Y-24624000D01*
X38086613Y-24562000D01*
X38132000Y-24516613D01*
X38194000Y-24500000D01*
X38753674Y-24500000D01*
X38770000Y-24500000D01*
X38770000Y-23015818D01*
X41182600Y-23015818D01*
X41182953Y-23022414D01*
X41188173Y-23070967D01*
X41191711Y-23085941D01*
X41236147Y-23205077D01*
X41244562Y-23220489D01*
X41320098Y-23321392D01*
X41332507Y-23333801D01*
X41433410Y-23409337D01*
X41448822Y-23417752D01*
X41567958Y-23462188D01*
X41582932Y-23465726D01*
X41631485Y-23470946D01*
X41638082Y-23471300D01*
X41666274Y-23471300D01*
X41679149Y-23467849D01*
X41682600Y-23454974D01*
X41682600Y-22606626D01*
X41679149Y-22593750D01*
X41666274Y-22590300D01*
X41198926Y-22590300D01*
X41186050Y-22593750D01*
X41182600Y-22606626D01*
X41182600Y-23015818D01*
X38770000Y-23015818D01*
X38770000Y-22425043D01*
X38787683Y-22361226D01*
X38835688Y-22315610D01*
X38897210Y-22301897D01*
X38900000Y-22290075D01*
X39400000Y-22290075D01*
X39402590Y-22301054D01*
X39413857Y-22300479D01*
X39538706Y-22264207D01*
X39552908Y-22258061D01*
X39678660Y-22183691D01*
X39690896Y-22174200D01*
X39722922Y-22142174D01*
X41182600Y-22142174D01*
X41186050Y-22155049D01*
X41198926Y-22158500D01*
X41666274Y-22158500D01*
X41679149Y-22155049D01*
X41682600Y-22142174D01*
X41682600Y-21293826D01*
X41679149Y-21280950D01*
X41666274Y-21277500D01*
X41638082Y-21277500D01*
X41631485Y-21277853D01*
X41582932Y-21283073D01*
X41567958Y-21286611D01*
X41448822Y-21331047D01*
X41433410Y-21339462D01*
X41332507Y-21414998D01*
X41320098Y-21427407D01*
X41244562Y-21528310D01*
X41236147Y-21543722D01*
X41191711Y-21662858D01*
X41188173Y-21677832D01*
X41182953Y-21726385D01*
X41182600Y-21732982D01*
X41182600Y-22142174D01*
X39722922Y-22142174D01*
X39794200Y-22070896D01*
X39803691Y-22058660D01*
X39878060Y-21932909D01*
X39884208Y-21918702D01*
X39925376Y-21777002D01*
X39927310Y-21766415D01*
X39924782Y-21753706D01*
X39911641Y-21750000D01*
X39416326Y-21750000D01*
X39403450Y-21753450D01*
X39400000Y-21766326D01*
X39400000Y-22290075D01*
X38900000Y-22290075D01*
X38900000Y-21374000D01*
X38916613Y-21312000D01*
X38962000Y-21266613D01*
X39024000Y-21250000D01*
X39911637Y-21250000D01*
X39924781Y-21246293D01*
X39927309Y-21233585D01*
X39925375Y-21222994D01*
X39884208Y-21081297D01*
X39880725Y-21073247D01*
X39870988Y-21013301D01*
X39890886Y-20955921D01*
X39935644Y-20914872D01*
X39994526Y-20900000D01*
X42546000Y-20900000D01*
X42608000Y-20916613D01*
G37*
%TD.AperFunction*%
%TD*%
%TA.AperFunction,Conductor*%
%TO.N,VCC*%
G36*
X17317994Y-4116254D02*
G01*
X17363279Y-4160755D01*
X17380601Y-4221836D01*
X17365420Y-4283485D01*
X17321716Y-4329539D01*
X17279808Y-4355387D01*
X17268544Y-4364294D01*
X17154794Y-4478044D01*
X17145890Y-4489305D01*
X17061432Y-4626233D01*
X17055370Y-4639232D01*
X17004624Y-4792374D01*
X17001805Y-4805541D01*
X16992319Y-4898390D01*
X16992000Y-4904668D01*
X16992000Y-5110174D01*
X16995450Y-5123049D01*
X17008326Y-5126500D01*
X18120000Y-5126500D01*
X18120000Y-5626500D01*
X17008327Y-5626500D01*
X16995451Y-5629950D01*
X16992001Y-5642826D01*
X16992001Y-5848329D01*
X16992321Y-5854611D01*
X17001805Y-5947459D01*
X17004623Y-5960622D01*
X17055370Y-6113767D01*
X17061432Y-6126766D01*
X17145890Y-6263694D01*
X17154794Y-6274955D01*
X17176440Y-6296601D01*
X17208534Y-6352188D01*
X17208534Y-6416376D01*
X17176440Y-6471963D01*
X17142799Y-6505603D01*
X17133308Y-6517839D01*
X17058939Y-6643590D01*
X17052791Y-6657797D01*
X17011623Y-6799497D01*
X17009689Y-6810084D01*
X17012217Y-6822793D01*
X17025359Y-6826500D01*
X17913000Y-6826500D01*
X17975000Y-6843113D01*
X18020387Y-6888500D01*
X18037000Y-6950500D01*
X18037000Y-7202500D01*
X18020387Y-7264500D01*
X17975000Y-7309887D01*
X17913000Y-7326500D01*
X17025363Y-7326500D01*
X17012218Y-7330206D01*
X17009690Y-7342914D01*
X17011624Y-7353505D01*
X17052791Y-7495202D01*
X17058939Y-7509409D01*
X17133308Y-7635160D01*
X17142799Y-7647396D01*
X17199327Y-7703924D01*
X17231421Y-7759511D01*
X17231421Y-7823697D01*
X17220000Y-7866323D01*
X17220000Y-9026000D01*
X17203387Y-9088000D01*
X17158000Y-9133387D01*
X17096000Y-9150000D01*
X15586326Y-9150000D01*
X15573450Y-9153450D01*
X15570000Y-9166326D01*
X15570000Y-9476000D01*
X15553387Y-9538000D01*
X15508000Y-9583387D01*
X15446000Y-9600000D01*
X15236578Y-9600000D01*
X15189875Y-9590869D01*
X15150051Y-9564820D01*
X15139970Y-9550255D01*
X15131325Y-9543045D01*
X15118415Y-9540000D01*
X14194000Y-9540000D01*
X14132000Y-9523387D01*
X14086613Y-9478000D01*
X14070000Y-9416000D01*
X14070000Y-9023674D01*
X14570000Y-9023674D01*
X14573450Y-9036549D01*
X14586326Y-9040000D01*
X15118415Y-9040000D01*
X15129394Y-9037409D01*
X15128819Y-9026143D01*
X15094582Y-8908299D01*
X15088434Y-8894092D01*
X15014708Y-8769428D01*
X15005217Y-8757192D01*
X14902807Y-8654782D01*
X14890571Y-8645291D01*
X14870928Y-8633674D01*
X15570000Y-8633674D01*
X15573450Y-8646549D01*
X15586326Y-8650000D01*
X16703674Y-8650000D01*
X16716549Y-8646549D01*
X16720000Y-8633674D01*
X16720000Y-7866326D01*
X16716549Y-7853450D01*
X16703674Y-7850000D01*
X16025482Y-7850000D01*
X16018885Y-7850353D01*
X15970332Y-7855573D01*
X15955358Y-7859111D01*
X15836222Y-7903547D01*
X15820810Y-7911962D01*
X15719907Y-7987498D01*
X15707498Y-7999907D01*
X15631962Y-8100810D01*
X15623547Y-8116222D01*
X15579111Y-8235358D01*
X15575573Y-8250332D01*
X15570353Y-8298885D01*
X15570000Y-8305482D01*
X15570000Y-8633674D01*
X14870928Y-8633674D01*
X14765907Y-8571565D01*
X14751700Y-8565417D01*
X14611212Y-8524601D01*
X14598808Y-8522335D01*
X14587098Y-8521414D01*
X14573706Y-8524078D01*
X14570000Y-8537221D01*
X14570000Y-9023674D01*
X14070000Y-9023674D01*
X14070000Y-8537221D01*
X14066004Y-8523054D01*
X14018512Y-8501534D01*
X13982787Y-8458003D01*
X13970000Y-8403160D01*
X13970000Y-4224000D01*
X13986613Y-4162000D01*
X14032000Y-4116613D01*
X14094000Y-4100000D01*
X17256620Y-4100000D01*
X17317994Y-4116254D01*
G37*
%TD.AperFunction*%
%TD*%
%TA.AperFunction,Conductor*%
%TO.N,GND*%
G36*
X40232610Y-6957760D02*
G01*
X40278085Y-7004018D01*
X40278774Y-7005244D01*
X40281885Y-7013132D01*
X40319306Y-7062478D01*
X40338032Y-7097877D01*
X40344500Y-7137401D01*
X40344500Y-9732907D01*
X40344500Y-9867693D01*
X40347512Y-9876964D01*
X40347514Y-9876973D01*
X40351962Y-9890660D01*
X40356504Y-9909579D01*
X40360281Y-9933426D01*
X40364709Y-9942116D01*
X40364710Y-9942119D01*
X40371243Y-9954939D01*
X40378688Y-9972914D01*
X40386151Y-9995881D01*
X40392711Y-10004910D01*
X40400342Y-10015413D01*
X40410507Y-10032000D01*
X40421472Y-10053520D01*
X40428372Y-10060420D01*
X40943931Y-10575979D01*
X40970811Y-10616207D01*
X40980250Y-10663660D01*
X40980250Y-11095285D01*
X40980250Y-11095302D01*
X40980251Y-11098864D01*
X40980662Y-11102411D01*
X40980663Y-11102422D01*
X40982090Y-11114722D01*
X40983165Y-11123991D01*
X41028544Y-11226765D01*
X41107985Y-11306206D01*
X41164449Y-11331137D01*
X41202227Y-11347818D01*
X41202228Y-11347818D01*
X41210759Y-11351585D01*
X41235885Y-11354500D01*
X42257130Y-11354499D01*
X42312009Y-11367304D01*
X42355554Y-11403075D01*
X42378770Y-11454423D01*
X42376864Y-11510743D01*
X42375014Y-11517612D01*
X42374480Y-11521642D01*
X42374478Y-11521656D01*
X42365036Y-11593013D01*
X42365035Y-11593023D01*
X42364500Y-11597069D01*
X42364500Y-12546008D01*
X42364526Y-12546891D01*
X42364527Y-12546914D01*
X42365028Y-12563508D01*
X42365056Y-12564432D01*
X42365959Y-12579378D01*
X42366043Y-12580307D01*
X42366048Y-12580368D01*
X42366813Y-12588797D01*
X42366813Y-12611220D01*
X42366047Y-12619644D01*
X42366041Y-12619713D01*
X42365961Y-12620602D01*
X42365904Y-12621535D01*
X42365903Y-12621556D01*
X42365324Y-12631140D01*
X42365057Y-12635549D01*
X42365029Y-12636475D01*
X42365027Y-12636520D01*
X42364529Y-12653006D01*
X42364528Y-12653056D01*
X42364500Y-12653992D01*
X42364500Y-12654961D01*
X42364500Y-13359786D01*
X42345894Y-13425117D01*
X42295660Y-13470842D01*
X42228872Y-13483240D01*
X42165574Y-13458590D01*
X42134558Y-13435070D01*
X42104975Y-13412636D01*
X42097079Y-13409522D01*
X41977988Y-13362558D01*
X41977985Y-13362557D01*
X41970590Y-13359641D01*
X41962699Y-13358693D01*
X41962694Y-13358692D01*
X41889821Y-13349941D01*
X41889811Y-13349940D01*
X41886144Y-13349500D01*
X41053856Y-13349500D01*
X41050189Y-13349940D01*
X41050178Y-13349941D01*
X40977305Y-13358692D01*
X40977298Y-13358693D01*
X40969410Y-13359641D01*
X40962016Y-13362556D01*
X40962011Y-13362558D01*
X40842920Y-13409522D01*
X40842916Y-13409523D01*
X40835025Y-13412636D01*
X40828266Y-13417761D01*
X40828265Y-13417762D01*
X40763883Y-13466585D01*
X40719922Y-13499922D01*
X40714799Y-13506677D01*
X40708801Y-13512676D01*
X40706956Y-13510831D01*
X40675928Y-13536540D01*
X40620737Y-13549500D01*
X39969386Y-13549500D01*
X39921933Y-13540061D01*
X39881705Y-13513181D01*
X39826818Y-13458294D01*
X39799938Y-13418066D01*
X39790499Y-13370613D01*
X39790499Y-12858714D01*
X39790499Y-12855136D01*
X39787585Y-12830009D01*
X39742206Y-12727235D01*
X39662765Y-12647794D01*
X39652254Y-12643153D01*
X39652250Y-12643150D01*
X39614414Y-12626444D01*
X39575479Y-12599331D01*
X39549577Y-12559579D01*
X39540500Y-12513010D01*
X39540500Y-11474412D01*
X39552052Y-11422149D01*
X39584554Y-11379624D01*
X39631952Y-11354760D01*
X39639670Y-11352660D01*
X39648941Y-11351585D01*
X39751715Y-11306206D01*
X39831156Y-11226765D01*
X39876535Y-11123991D01*
X39879450Y-11098865D01*
X39879449Y-10565694D01*
X39892567Y-10510186D01*
X39923351Y-10473356D01*
X39922769Y-10472774D01*
X39941451Y-10454091D01*
X40016987Y-10353188D01*
X40025402Y-10337776D01*
X40069838Y-10218640D01*
X40073376Y-10203666D01*
X40078596Y-10155113D01*
X40078950Y-10148517D01*
X40078950Y-10116325D01*
X40075499Y-10103449D01*
X40062624Y-10099999D01*
X38964000Y-10099999D01*
X38902000Y-10083386D01*
X38856613Y-10037999D01*
X38840000Y-9975999D01*
X38840000Y-9723999D01*
X38856613Y-9661999D01*
X38902000Y-9616612D01*
X38964000Y-9599999D01*
X40062624Y-9599999D01*
X40075499Y-9596548D01*
X40078950Y-9583673D01*
X40078950Y-9551481D01*
X40078596Y-9544884D01*
X40073376Y-9496331D01*
X40069838Y-9481357D01*
X40025402Y-9362221D01*
X40016987Y-9346809D01*
X39941451Y-9245906D01*
X39922769Y-9227224D01*
X39923350Y-9226642D01*
X39892565Y-9189806D01*
X39879449Y-9134305D01*
X39879449Y-8601134D01*
X39876535Y-8576007D01*
X39831156Y-8473233D01*
X39751715Y-8393792D01*
X39736783Y-8387199D01*
X39657472Y-8352179D01*
X39657467Y-8352177D01*
X39648941Y-8348413D01*
X39639676Y-8347338D01*
X39627364Y-8345909D01*
X39627351Y-8345908D01*
X39623815Y-8345498D01*
X39620240Y-8345498D01*
X39188610Y-8345498D01*
X39141157Y-8336059D01*
X39100929Y-8309179D01*
X38672855Y-7881105D01*
X38644547Y-7837271D01*
X38636779Y-7785671D01*
X38646403Y-7751501D01*
X38644381Y-7750794D01*
X38647451Y-7742021D01*
X38687741Y-7626879D01*
X38690500Y-7597457D01*
X38690499Y-7298689D01*
X38709105Y-7233359D01*
X38759340Y-7187634D01*
X38826129Y-7175237D01*
X38889424Y-7199886D01*
X38906868Y-7213115D01*
X39039654Y-7265479D01*
X39123098Y-7275500D01*
X39638202Y-7275500D01*
X39641902Y-7275500D01*
X39725346Y-7265479D01*
X39858132Y-7213115D01*
X39971867Y-7126867D01*
X40058115Y-7013132D01*
X40061225Y-7005243D01*
X40061915Y-7004018D01*
X40107390Y-6957760D01*
X40170000Y-6940793D01*
X40232610Y-6957760D01*
G37*
%TD.AperFunction*%
%TA.AperFunction,Conductor*%
G36*
X37833632Y-5503844D02*
G01*
X37929206Y-5574381D01*
X37940857Y-5578458D01*
X37943698Y-5580473D01*
X37946191Y-5581791D01*
X37946017Y-5582118D01*
X37996851Y-5618183D01*
X38023127Y-5681612D01*
X38011629Y-5749299D01*
X37965881Y-5800492D01*
X37899909Y-5819500D01*
X37835447Y-5819500D01*
X37835425Y-5819500D01*
X37832544Y-5819501D01*
X37829671Y-5819770D01*
X37829656Y-5819771D01*
X37810637Y-5821554D01*
X37810633Y-5821554D01*
X37803121Y-5822259D01*
X37795996Y-5824752D01*
X37795992Y-5824753D01*
X37687978Y-5862549D01*
X37687975Y-5862550D01*
X37679206Y-5865619D01*
X37671730Y-5871136D01*
X37671729Y-5871137D01*
X37581051Y-5938060D01*
X37581047Y-5938063D01*
X37573577Y-5943577D01*
X37568063Y-5951047D01*
X37568060Y-5951051D01*
X37501137Y-6041729D01*
X37495619Y-6049206D01*
X37492550Y-6057975D01*
X37492549Y-6057978D01*
X37454752Y-6165994D01*
X37454750Y-6166000D01*
X37452259Y-6173121D01*
X37451554Y-6180637D01*
X37451554Y-6180638D01*
X37449770Y-6199657D01*
X37449769Y-6199670D01*
X37449500Y-6202543D01*
X37449500Y-6205435D01*
X37449500Y-6205436D01*
X37449500Y-6574553D01*
X37449500Y-6574574D01*
X37449501Y-6577456D01*
X37449770Y-6580329D01*
X37449771Y-6580343D01*
X37451554Y-6599362D01*
X37452259Y-6606879D01*
X37454752Y-6614005D01*
X37454753Y-6614007D01*
X37456593Y-6619266D01*
X37495619Y-6730794D01*
X37501137Y-6738271D01*
X37501139Y-6738274D01*
X37566154Y-6826367D01*
X37587610Y-6873917D01*
X37587610Y-6926083D01*
X37566154Y-6973633D01*
X37501139Y-7061725D01*
X37501135Y-7061730D01*
X37495619Y-7069206D01*
X37492550Y-7077975D01*
X37492549Y-7077978D01*
X37454752Y-7185994D01*
X37454750Y-7186000D01*
X37452259Y-7193121D01*
X37451554Y-7200637D01*
X37451554Y-7200638D01*
X37449770Y-7219657D01*
X37449769Y-7219670D01*
X37449500Y-7222543D01*
X37449500Y-7225435D01*
X37449500Y-7225436D01*
X37449500Y-7594553D01*
X37449500Y-7594574D01*
X37449501Y-7597456D01*
X37449770Y-7600329D01*
X37449771Y-7600343D01*
X37451402Y-7617741D01*
X37452259Y-7626879D01*
X37454752Y-7634005D01*
X37454753Y-7634007D01*
X37479825Y-7705659D01*
X37495619Y-7750794D01*
X37573577Y-7856423D01*
X37581051Y-7861939D01*
X37581052Y-7861940D01*
X37598434Y-7874769D01*
X37630767Y-7910142D01*
X37644438Y-7947412D01*
X37644500Y-7947392D01*
X37645034Y-7949036D01*
X37645038Y-7949048D01*
X37647513Y-7956665D01*
X37647514Y-7956668D01*
X37651962Y-7970358D01*
X37656504Y-7989277D01*
X37660281Y-8013124D01*
X37662051Y-8016597D01*
X37666285Y-8070399D01*
X37644130Y-8123886D01*
X37600107Y-8161485D01*
X37571448Y-8168365D01*
X37572094Y-8170775D01*
X37543450Y-8178450D01*
X37540000Y-8191326D01*
X37540000Y-9251000D01*
X37523387Y-9313000D01*
X37478000Y-9358387D01*
X37416000Y-9375000D01*
X37164000Y-9375000D01*
X37102000Y-9358387D01*
X37056613Y-9313000D01*
X37040000Y-9251000D01*
X37040000Y-8191327D01*
X37036549Y-8178451D01*
X37023674Y-8175001D01*
X36994835Y-8175001D01*
X36988552Y-8175321D01*
X36899132Y-8184455D01*
X36885963Y-8187274D01*
X36858503Y-8196374D01*
X36800636Y-8201225D01*
X36746906Y-8179197D01*
X36709097Y-8135123D01*
X36695500Y-8078668D01*
X36695500Y-5662289D01*
X36713894Y-5597301D01*
X36763620Y-5551594D01*
X36829923Y-5538728D01*
X36893135Y-5562520D01*
X36909206Y-5574381D01*
X37033121Y-5617741D01*
X37062543Y-5620500D01*
X37437456Y-5620499D01*
X37466879Y-5617741D01*
X37590794Y-5574381D01*
X37686367Y-5503844D01*
X37733916Y-5482389D01*
X37786084Y-5482389D01*
X37833632Y-5503844D01*
G37*
%TD.AperFunction*%
%TA.AperFunction,Conductor*%
G36*
X52137500Y-17113D02*
G01*
X52182887Y-62500D01*
X52199500Y-124500D01*
X52199500Y-30675500D01*
X52182887Y-30737500D01*
X52137500Y-30782887D01*
X52075500Y-30799500D01*
X124500Y-30799500D01*
X62500Y-30782887D01*
X17113Y-30737500D01*
X500Y-30675500D01*
X500Y-28100000D01*
X844341Y-28100000D01*
X844813Y-28105395D01*
X864366Y-28328890D01*
X864937Y-28335408D01*
X866336Y-28340630D01*
X866337Y-28340634D01*
X924694Y-28558430D01*
X924697Y-28558438D01*
X926097Y-28563663D01*
X1025965Y-28777829D01*
X1029072Y-28782266D01*
X1029073Y-28782268D01*
X1071463Y-28842807D01*
X1161505Y-28971401D01*
X1328599Y-29138495D01*
X1522171Y-29274035D01*
X1736337Y-29373903D01*
X1964592Y-29435063D01*
X2141034Y-29450500D01*
X2256258Y-29450500D01*
X2258966Y-29450500D01*
X2435408Y-29435063D01*
X2663663Y-29373903D01*
X2877829Y-29274035D01*
X2983137Y-29200298D01*
X10895000Y-29200298D01*
X10895265Y-29206030D01*
X10909209Y-29356509D01*
X10911307Y-29367731D01*
X10966491Y-29561685D01*
X10970622Y-29572348D01*
X11060506Y-29752860D01*
X11066513Y-29762562D01*
X11188046Y-29923497D01*
X11195731Y-29931927D01*
X11344767Y-30067792D01*
X11353874Y-30074669D01*
X11525330Y-30180829D01*
X11535547Y-30185917D01*
X11723591Y-30258766D01*
X11734576Y-30261891D01*
X11781570Y-30270676D01*
X11792598Y-30270294D01*
X11795000Y-30259527D01*
X12295000Y-30259527D01*
X12297401Y-30270294D01*
X12308429Y-30270676D01*
X12355423Y-30261891D01*
X12366408Y-30258766D01*
X12554452Y-30185917D01*
X12564669Y-30180829D01*
X12736125Y-30074669D01*
X12745232Y-30067792D01*
X12894268Y-29931927D01*
X12901953Y-29923497D01*
X13023486Y-29762562D01*
X13029493Y-29752860D01*
X13119377Y-29572348D01*
X13123508Y-29561685D01*
X13178692Y-29367731D01*
X13180790Y-29356509D01*
X13194734Y-29206030D01*
X13195000Y-29200298D01*
X18145000Y-29200298D01*
X18145265Y-29206030D01*
X18159209Y-29356509D01*
X18161307Y-29367731D01*
X18216491Y-29561685D01*
X18220622Y-29572348D01*
X18310506Y-29752860D01*
X18316513Y-29762562D01*
X18438046Y-29923497D01*
X18445731Y-29931927D01*
X18594767Y-30067792D01*
X18603874Y-30074669D01*
X18775330Y-30180829D01*
X18785547Y-30185917D01*
X18973591Y-30258766D01*
X18984576Y-30261891D01*
X19031570Y-30270676D01*
X19042598Y-30270294D01*
X19045000Y-30259527D01*
X19545000Y-30259527D01*
X19547401Y-30270294D01*
X19558429Y-30270676D01*
X19605423Y-30261891D01*
X19616408Y-30258766D01*
X19804452Y-30185917D01*
X19814669Y-30180829D01*
X19986125Y-30074669D01*
X19995232Y-30067792D01*
X20144268Y-29931927D01*
X20151953Y-29923497D01*
X20273486Y-29762562D01*
X20279493Y-29752860D01*
X20369377Y-29572348D01*
X20373508Y-29561685D01*
X20416445Y-29410776D01*
X23087807Y-29410776D01*
X23129041Y-29552705D01*
X23135189Y-29566912D01*
X23210844Y-29694838D01*
X23220335Y-29707074D01*
X23325425Y-29812164D01*
X23337661Y-29821655D01*
X23465587Y-29897310D01*
X23479794Y-29903458D01*
X23623920Y-29945331D01*
X23636326Y-29947597D01*
X23664423Y-29949808D01*
X23669303Y-29950000D01*
X24053674Y-29950000D01*
X24066549Y-29946549D01*
X24070000Y-29933674D01*
X24570000Y-29933674D01*
X24573450Y-29946549D01*
X24586326Y-29950000D01*
X24970697Y-29950000D01*
X24975576Y-29949808D01*
X25003673Y-29947597D01*
X25016079Y-29945331D01*
X25160205Y-29903458D01*
X25174412Y-29897310D01*
X25302338Y-29821655D01*
X25314574Y-29812164D01*
X25419664Y-29707074D01*
X25429155Y-29694838D01*
X25504810Y-29566912D01*
X25510958Y-29552705D01*
X25552192Y-29410776D01*
X25550786Y-29403706D01*
X25537644Y-29400000D01*
X24586326Y-29400000D01*
X24573450Y-29403450D01*
X24570000Y-29416326D01*
X24570000Y-29933674D01*
X24070000Y-29933674D01*
X24070000Y-29416326D01*
X24066549Y-29403450D01*
X24053674Y-29400000D01*
X23102356Y-29400000D01*
X23089213Y-29403706D01*
X23087807Y-29410776D01*
X20416445Y-29410776D01*
X20428692Y-29367731D01*
X20430790Y-29356509D01*
X20444734Y-29206030D01*
X20445000Y-29200298D01*
X20445000Y-29166326D01*
X20441549Y-29153450D01*
X20428674Y-29150000D01*
X19561326Y-29150000D01*
X19548450Y-29153450D01*
X19545000Y-29166326D01*
X19545000Y-30259527D01*
X19045000Y-30259527D01*
X19045000Y-29166326D01*
X19041549Y-29153450D01*
X19028674Y-29150000D01*
X18161326Y-29150000D01*
X18148450Y-29153450D01*
X18145000Y-29166326D01*
X18145000Y-29200298D01*
X13195000Y-29200298D01*
X13195000Y-29166326D01*
X13191549Y-29153450D01*
X13178674Y-29150000D01*
X12311326Y-29150000D01*
X12298450Y-29153450D01*
X12295000Y-29166326D01*
X12295000Y-30259527D01*
X11795000Y-30259527D01*
X11795000Y-29166326D01*
X11791549Y-29153450D01*
X11778674Y-29150000D01*
X10911326Y-29150000D01*
X10898450Y-29153450D01*
X10895000Y-29166326D01*
X10895000Y-29200298D01*
X2983137Y-29200298D01*
X3071401Y-29138495D01*
X3238495Y-28971401D01*
X3374035Y-28777830D01*
X3473903Y-28563663D01*
X3535063Y-28335408D01*
X3555659Y-28100000D01*
X3535063Y-27864592D01*
X3479890Y-27658682D01*
X3475305Y-27641569D01*
X3475304Y-27641567D01*
X3473903Y-27636337D01*
X3374035Y-27422171D01*
X3238495Y-27228599D01*
X3071401Y-27061505D01*
X2994121Y-27007393D01*
X2882268Y-26929073D01*
X2882266Y-26929072D01*
X2877829Y-26925965D01*
X2758887Y-26870501D01*
X2668572Y-26828386D01*
X2668570Y-26828385D01*
X2663663Y-26826097D01*
X2658438Y-26824697D01*
X2658430Y-26824694D01*
X2440634Y-26766337D01*
X2440630Y-26766336D01*
X2435408Y-26764937D01*
X2430020Y-26764465D01*
X2430017Y-26764465D01*
X2261664Y-26749736D01*
X2261662Y-26749735D01*
X2258966Y-26749500D01*
X2141034Y-26749500D01*
X2138338Y-26749735D01*
X2138335Y-26749736D01*
X1969982Y-26764465D01*
X1969977Y-26764465D01*
X1964592Y-26764937D01*
X1959371Y-26766335D01*
X1959365Y-26766337D01*
X1741569Y-26824694D01*
X1741557Y-26824698D01*
X1736337Y-26826097D01*
X1731432Y-26828383D01*
X1731427Y-26828386D01*
X1527081Y-26923675D01*
X1527077Y-26923677D01*
X1522171Y-26925965D01*
X1517738Y-26929068D01*
X1517731Y-26929073D01*
X1333034Y-27058399D01*
X1333029Y-27058402D01*
X1328599Y-27061505D01*
X1324775Y-27065328D01*
X1324769Y-27065334D01*
X1165336Y-27224767D01*
X1165330Y-27224773D01*
X1161505Y-27228599D01*
X1158406Y-27233023D01*
X1158399Y-27233033D01*
X1029066Y-27417740D01*
X1029061Y-27417747D01*
X1025965Y-27422170D01*
X1023683Y-27427061D01*
X1023678Y-27427072D01*
X928386Y-27631427D01*
X928383Y-27631432D01*
X926097Y-27636337D01*
X924698Y-27641557D01*
X924694Y-27641569D01*
X866337Y-27859365D01*
X866335Y-27859371D01*
X864937Y-27864592D01*
X864465Y-27869977D01*
X864465Y-27869982D01*
X853473Y-27995620D01*
X844341Y-28100000D01*
X500Y-28100000D01*
X500Y-18400000D01*
X8964355Y-18400000D01*
X8965259Y-18407445D01*
X8983955Y-18561423D01*
X8983956Y-18561427D01*
X8984860Y-18568872D01*
X8987518Y-18575882D01*
X8987520Y-18575888D01*
X9042520Y-18720912D01*
X9045182Y-18727930D01*
X9049444Y-18734105D01*
X9049445Y-18734106D01*
X9129786Y-18850500D01*
X9141817Y-18867929D01*
X9202730Y-18921893D01*
X9233575Y-18963814D01*
X9244500Y-19014705D01*
X9244500Y-20357607D01*
X9244500Y-20492393D01*
X9247512Y-20501664D01*
X9247514Y-20501673D01*
X9251962Y-20515360D01*
X9256504Y-20534279D01*
X9258547Y-20547181D01*
X9260281Y-20558126D01*
X9269864Y-20576934D01*
X9271243Y-20579639D01*
X9278688Y-20597614D01*
X9286151Y-20620581D01*
X9295820Y-20633889D01*
X9313431Y-20668453D01*
X9319500Y-20706771D01*
X9319500Y-21316766D01*
X9319769Y-21319641D01*
X9319770Y-21319649D01*
X9321649Y-21339687D01*
X9321649Y-21339691D01*
X9322354Y-21347199D01*
X9324842Y-21354311D01*
X9324844Y-21354317D01*
X9364138Y-21466613D01*
X9364139Y-21466616D01*
X9367207Y-21475382D01*
X9372722Y-21482855D01*
X9372724Y-21482858D01*
X9433083Y-21564641D01*
X9447850Y-21584650D01*
X9557118Y-21665293D01*
X9685301Y-21710146D01*
X9715734Y-21713000D01*
X10121373Y-21713000D01*
X10124266Y-21713000D01*
X10154699Y-21710146D01*
X10282882Y-21665293D01*
X10392150Y-21584650D01*
X10472793Y-21475382D01*
X10517646Y-21347199D01*
X10519662Y-21325697D01*
X11020000Y-21325697D01*
X11020191Y-21330576D01*
X11022402Y-21358673D01*
X11024668Y-21371079D01*
X11066541Y-21515205D01*
X11072689Y-21529412D01*
X11148344Y-21657338D01*
X11157835Y-21669574D01*
X11262925Y-21774664D01*
X11275161Y-21784155D01*
X11403087Y-21859810D01*
X11417294Y-21865958D01*
X11559223Y-21907192D01*
X11566293Y-21905786D01*
X11570000Y-21892644D01*
X12070000Y-21892644D01*
X12073706Y-21905786D01*
X12080776Y-21907192D01*
X12222705Y-21865958D01*
X12236912Y-21859810D01*
X12364838Y-21784155D01*
X12377074Y-21774664D01*
X12482164Y-21669574D01*
X12491655Y-21657338D01*
X12567310Y-21529412D01*
X12573458Y-21515205D01*
X12615331Y-21371079D01*
X12617597Y-21358673D01*
X12619808Y-21330576D01*
X12620000Y-21325697D01*
X12620000Y-20941326D01*
X12616549Y-20928450D01*
X12603674Y-20925000D01*
X12086326Y-20925000D01*
X12073450Y-20928450D01*
X12070000Y-20941326D01*
X12070000Y-21892644D01*
X11570000Y-21892644D01*
X11570000Y-20941326D01*
X11566549Y-20928450D01*
X11553674Y-20925000D01*
X11036326Y-20925000D01*
X11023450Y-20928450D01*
X11020000Y-20941326D01*
X11020000Y-21325697D01*
X10519662Y-21325697D01*
X10520500Y-21316766D01*
X10520500Y-20033234D01*
X10517646Y-20002801D01*
X10515154Y-19995681D01*
X10513544Y-19988306D01*
X10515750Y-19987824D01*
X10511538Y-19939382D01*
X10536210Y-19883167D01*
X10584824Y-19845676D01*
X10645463Y-19836099D01*
X10665734Y-19838000D01*
X10668627Y-19838000D01*
X10901708Y-19838000D01*
X10954286Y-19849699D01*
X10996942Y-19882587D01*
X11021630Y-19930460D01*
X11023689Y-19984284D01*
X11022403Y-19991323D01*
X11020191Y-20019423D01*
X11020000Y-20024303D01*
X11020000Y-20408674D01*
X11023450Y-20421549D01*
X11036326Y-20425000D01*
X11553674Y-20425000D01*
X11566549Y-20421549D01*
X11570000Y-20408674D01*
X12070000Y-20408674D01*
X12073450Y-20421549D01*
X12086326Y-20425000D01*
X12603674Y-20425000D01*
X12616549Y-20421549D01*
X12620000Y-20408674D01*
X12620000Y-20024303D01*
X12619808Y-20019423D01*
X12617597Y-19991326D01*
X12615331Y-19978920D01*
X12573458Y-19834794D01*
X12567310Y-19820587D01*
X12491655Y-19692661D01*
X12482164Y-19680425D01*
X12377074Y-19575335D01*
X12364838Y-19565844D01*
X12236912Y-19490189D01*
X12222705Y-19484041D01*
X12080776Y-19442807D01*
X12073706Y-19444213D01*
X12070000Y-19457356D01*
X12070000Y-20408674D01*
X11570000Y-20408674D01*
X11570000Y-19457356D01*
X11565963Y-19443043D01*
X11519013Y-19421770D01*
X11483288Y-19378238D01*
X11470500Y-19323395D01*
X11470500Y-18161127D01*
X11470500Y-18158234D01*
X11467646Y-18127801D01*
X11427457Y-18012948D01*
X11420500Y-17971996D01*
X11420500Y-17069813D01*
X11432779Y-17016013D01*
X11466964Y-16973144D01*
X11472262Y-16969816D01*
X11599816Y-16842262D01*
X11695789Y-16689522D01*
X11755368Y-16519255D01*
X11775565Y-16340000D01*
X11755368Y-16160745D01*
X11695789Y-15990478D01*
X11599816Y-15837738D01*
X11554758Y-15792680D01*
X11522665Y-15737094D01*
X11522665Y-15672906D01*
X11554759Y-15617319D01*
X11572670Y-15599408D01*
X11599816Y-15572262D01*
X11611587Y-15553527D01*
X11656599Y-15510973D01*
X11716581Y-15495500D01*
X12037634Y-15495500D01*
X12047393Y-15495500D01*
X12070354Y-15488038D01*
X12089272Y-15483496D01*
X12113126Y-15479719D01*
X12134639Y-15468756D01*
X12152607Y-15461312D01*
X12175581Y-15453849D01*
X12195109Y-15439659D01*
X12211706Y-15429488D01*
X12233220Y-15418528D01*
X12242953Y-15408794D01*
X12295532Y-15377546D01*
X12356658Y-15375235D01*
X12411450Y-15402427D01*
X12446577Y-15452504D01*
X12472519Y-15520910D01*
X12472521Y-15520914D01*
X12475182Y-15527930D01*
X12479444Y-15534105D01*
X12479445Y-15534106D01*
X12560178Y-15651068D01*
X12571817Y-15667929D01*
X12665225Y-15750681D01*
X12688950Y-15771700D01*
X12699148Y-15780734D01*
X12798368Y-15832809D01*
X12842399Y-15855919D01*
X12849775Y-15859790D01*
X13014944Y-15900500D01*
X13177556Y-15900500D01*
X13185056Y-15900500D01*
X13350225Y-15859790D01*
X13419406Y-15823480D01*
X13469540Y-15809504D01*
X13520999Y-15817336D01*
X13564709Y-15845597D01*
X13568060Y-15848948D01*
X13573577Y-15856423D01*
X13581051Y-15861939D01*
X13594134Y-15871595D01*
X13631195Y-15915484D01*
X13644500Y-15971365D01*
X13644500Y-16228410D01*
X13624816Y-16295449D01*
X13572012Y-16341204D01*
X13453930Y-16395130D01*
X13453920Y-16395135D01*
X13449905Y-16396969D01*
X13446192Y-16399354D01*
X13446183Y-16399360D01*
X13380437Y-16441612D01*
X13380428Y-16441618D01*
X13376707Y-16444010D01*
X13373361Y-16446909D01*
X13373352Y-16446916D01*
X13271399Y-16535257D01*
X13271386Y-16535269D01*
X13268046Y-16538164D01*
X13265151Y-16541504D01*
X13265142Y-16541514D01*
X13213958Y-16600584D01*
X13213952Y-16600591D01*
X13211063Y-16603926D01*
X13208678Y-16607635D01*
X13208672Y-16607645D01*
X13135725Y-16721153D01*
X13135718Y-16721165D01*
X13133331Y-16724880D01*
X13131492Y-16728905D01*
X13131488Y-16728914D01*
X13099027Y-16799993D01*
X13099021Y-16800006D01*
X13097185Y-16804029D01*
X13095937Y-16808279D01*
X13095936Y-16808282D01*
X13057926Y-16937731D01*
X13057923Y-16937741D01*
X13056678Y-16941984D01*
X13056048Y-16946361D01*
X13056047Y-16946369D01*
X13044924Y-17023730D01*
X13044923Y-17023742D01*
X13044295Y-17028111D01*
X13044295Y-17600000D01*
X13045057Y-17604814D01*
X13045058Y-17604820D01*
X13057178Y-17681343D01*
X13059257Y-17694468D01*
X13063686Y-17703161D01*
X13066456Y-17711687D01*
X13072523Y-17750000D01*
X13066456Y-17788313D01*
X13063685Y-17796839D01*
X13059257Y-17805532D01*
X13057730Y-17815170D01*
X13057730Y-17815172D01*
X13045058Y-17895179D01*
X13045057Y-17895186D01*
X13044295Y-17900000D01*
X13044295Y-18471889D01*
X13044923Y-18476258D01*
X13044924Y-18476269D01*
X13056047Y-18553630D01*
X13056678Y-18558016D01*
X13057924Y-18562261D01*
X13057926Y-18562268D01*
X13080175Y-18638039D01*
X13097185Y-18695971D01*
X13099023Y-18699997D01*
X13099027Y-18700006D01*
X13131488Y-18771085D01*
X13133331Y-18775120D01*
X13135721Y-18778840D01*
X13135725Y-18778846D01*
X13208672Y-18892354D01*
X13211063Y-18896074D01*
X13268046Y-18961836D01*
X13271394Y-18964737D01*
X13271399Y-18964742D01*
X13347113Y-19030347D01*
X13376707Y-19055990D01*
X13449905Y-19103031D01*
X13580690Y-19162759D01*
X13664178Y-19187273D01*
X13806493Y-19207735D01*
X13889081Y-19207735D01*
X13893507Y-19207735D01*
X13897889Y-19207105D01*
X13898850Y-19206967D01*
X13916496Y-19205705D01*
X14283504Y-19205705D01*
X14301150Y-19206967D01*
X14302110Y-19207105D01*
X14302112Y-19207105D01*
X14306493Y-19207735D01*
X14389081Y-19207735D01*
X14393507Y-19207735D01*
X14535822Y-19187273D01*
X14619310Y-19162759D01*
X14750095Y-19103031D01*
X14801610Y-19069924D01*
X14858331Y-19050670D01*
X14917461Y-19060252D01*
X14965200Y-19096434D01*
X14990408Y-19150773D01*
X14987202Y-19210588D01*
X14956330Y-19261921D01*
X14410275Y-19807976D01*
X14370047Y-19834856D01*
X14322594Y-19844295D01*
X13986496Y-19844295D01*
X13968850Y-19843033D01*
X13967889Y-19842894D01*
X13967874Y-19842892D01*
X13963507Y-19842265D01*
X13876493Y-19842265D01*
X13872124Y-19842893D01*
X13872112Y-19842894D01*
X13738567Y-19862095D01*
X13738554Y-19862097D01*
X13734178Y-19862727D01*
X13729923Y-19863976D01*
X13729920Y-19863977D01*
X13654939Y-19885993D01*
X13654934Y-19885994D01*
X13650690Y-19887241D01*
X13646664Y-19889079D01*
X13646663Y-19889080D01*
X13523930Y-19945130D01*
X13523920Y-19945135D01*
X13519905Y-19946969D01*
X13516192Y-19949354D01*
X13516183Y-19949360D01*
X13450437Y-19991612D01*
X13450428Y-19991618D01*
X13446707Y-19994010D01*
X13443361Y-19996909D01*
X13443352Y-19996916D01*
X13341399Y-20085257D01*
X13341386Y-20085269D01*
X13338046Y-20088164D01*
X13335151Y-20091504D01*
X13335142Y-20091514D01*
X13283958Y-20150584D01*
X13283952Y-20150591D01*
X13281063Y-20153926D01*
X13278678Y-20157635D01*
X13278672Y-20157645D01*
X13205725Y-20271153D01*
X13205718Y-20271165D01*
X13203331Y-20274880D01*
X13201492Y-20278905D01*
X13201488Y-20278914D01*
X13169027Y-20349993D01*
X13169021Y-20350006D01*
X13167185Y-20354029D01*
X13165938Y-20358276D01*
X13165936Y-20358282D01*
X13127926Y-20487731D01*
X13127923Y-20487741D01*
X13126678Y-20491984D01*
X13126048Y-20496361D01*
X13126047Y-20496369D01*
X13114924Y-20573730D01*
X13114923Y-20573742D01*
X13114295Y-20578111D01*
X13114295Y-21150000D01*
X13115057Y-21154814D01*
X13115058Y-21154820D01*
X13118905Y-21179109D01*
X13129257Y-21244468D01*
X13133686Y-21253161D01*
X13136456Y-21261687D01*
X13142523Y-21300000D01*
X13136456Y-21338313D01*
X13133685Y-21346839D01*
X13129257Y-21355532D01*
X13127730Y-21365170D01*
X13127730Y-21365172D01*
X13115058Y-21445179D01*
X13115057Y-21445186D01*
X13114295Y-21450000D01*
X13114295Y-22021889D01*
X13114923Y-22026258D01*
X13114924Y-22026269D01*
X13126047Y-22103630D01*
X13126678Y-22108016D01*
X13127924Y-22112261D01*
X13127926Y-22112268D01*
X13140488Y-22155049D01*
X13167185Y-22245971D01*
X13169023Y-22249997D01*
X13169027Y-22250006D01*
X13192583Y-22301585D01*
X13203331Y-22325120D01*
X13205721Y-22328840D01*
X13205725Y-22328846D01*
X13278672Y-22442354D01*
X13281063Y-22446074D01*
X13283958Y-22449415D01*
X13313786Y-22483839D01*
X13338046Y-22511836D01*
X13341394Y-22514737D01*
X13341399Y-22514742D01*
X13413004Y-22576787D01*
X13447353Y-22625512D01*
X13454994Y-22684635D01*
X13434161Y-22740491D01*
X13389669Y-22780170D01*
X13331802Y-22794500D01*
X10694000Y-22794500D01*
X10689983Y-22795028D01*
X10689980Y-22795029D01*
X10618956Y-22804379D01*
X10618941Y-22804381D01*
X10614930Y-22804910D01*
X10611018Y-22805958D01*
X10611009Y-22805960D01*
X10556851Y-22820472D01*
X10556845Y-22820473D01*
X10552930Y-22821523D01*
X10549184Y-22823074D01*
X10549174Y-22823078D01*
X10486760Y-22848931D01*
X10486758Y-22848931D01*
X10479250Y-22852042D01*
X10472806Y-22856986D01*
X10472800Y-22856990D01*
X10419210Y-22898112D01*
X10419203Y-22898117D01*
X10415979Y-22900592D01*
X10413106Y-22903464D01*
X10413098Y-22903472D01*
X10373472Y-22943098D01*
X10373464Y-22943106D01*
X10370592Y-22945979D01*
X10368117Y-22949203D01*
X10368112Y-22949210D01*
X10326990Y-23002800D01*
X10326986Y-23002806D01*
X10322042Y-23009250D01*
X10318931Y-23016758D01*
X10318931Y-23016760D01*
X10293078Y-23079174D01*
X10293074Y-23079184D01*
X10291523Y-23082930D01*
X10290473Y-23086845D01*
X10290472Y-23086851D01*
X10275960Y-23141009D01*
X10275958Y-23141018D01*
X10274910Y-23144930D01*
X10274381Y-23148941D01*
X10274379Y-23148956D01*
X10265652Y-23215247D01*
X10264500Y-23224000D01*
X10264500Y-26230000D01*
X10264500Y-27576000D01*
X10265028Y-27580017D01*
X10265029Y-27580019D01*
X10274379Y-27651043D01*
X10274381Y-27651055D01*
X10274910Y-27655070D01*
X10275958Y-27658984D01*
X10275960Y-27658990D01*
X10290226Y-27712231D01*
X10291523Y-27717070D01*
X10293076Y-27720820D01*
X10293078Y-27720825D01*
X10308021Y-27756901D01*
X10322042Y-27790750D01*
X10326988Y-27797196D01*
X10326990Y-27797199D01*
X10361012Y-27841536D01*
X10370592Y-27854021D01*
X10415979Y-27899408D01*
X10479250Y-27947958D01*
X10552930Y-27978477D01*
X10614930Y-27995090D01*
X10694000Y-28005500D01*
X10698053Y-28005500D01*
X10880974Y-28005500D01*
X10941313Y-28021171D01*
X10986401Y-28064222D01*
X11004842Y-28123772D01*
X10991975Y-28184770D01*
X10970620Y-28227655D01*
X10966491Y-28238314D01*
X10911307Y-28432268D01*
X10909209Y-28443490D01*
X10895265Y-28593969D01*
X10895000Y-28599702D01*
X10895000Y-28633674D01*
X10898450Y-28646549D01*
X10911326Y-28650000D01*
X13178674Y-28650000D01*
X13191549Y-28646549D01*
X13195000Y-28633674D01*
X18145000Y-28633674D01*
X18148450Y-28646549D01*
X18161326Y-28650000D01*
X19028674Y-28650000D01*
X19041549Y-28646549D01*
X19045000Y-28633674D01*
X19545000Y-28633674D01*
X19548450Y-28646549D01*
X19561326Y-28650000D01*
X20428674Y-28650000D01*
X20441549Y-28646549D01*
X20445000Y-28633674D01*
X20445000Y-28599702D01*
X20444734Y-28593969D01*
X20441826Y-28562590D01*
X21760605Y-28562590D01*
X21761180Y-28573856D01*
X21795417Y-28691700D01*
X21801565Y-28705907D01*
X21875291Y-28830571D01*
X21884782Y-28842807D01*
X21987192Y-28945217D01*
X21999428Y-28954708D01*
X22124092Y-29028434D01*
X22138299Y-29034582D01*
X22278787Y-29075398D01*
X22291191Y-29077664D01*
X22302901Y-29078585D01*
X22316293Y-29075921D01*
X22320000Y-29062779D01*
X22820000Y-29062779D01*
X22823706Y-29075921D01*
X22837098Y-29078585D01*
X22848808Y-29077664D01*
X22861212Y-29075398D01*
X23001697Y-29034583D01*
X23015909Y-29028434D01*
X23028592Y-29020933D01*
X23038778Y-29010586D01*
X23043647Y-28992222D01*
X23068377Y-28944461D01*
X23111003Y-28911664D01*
X23163506Y-28900000D01*
X24053674Y-28900000D01*
X24066549Y-28896549D01*
X24070000Y-28883674D01*
X24070000Y-28366326D01*
X24066549Y-28353450D01*
X24053674Y-28350000D01*
X23669303Y-28350000D01*
X23664423Y-28350191D01*
X23636326Y-28352402D01*
X23623920Y-28354668D01*
X23479794Y-28396541D01*
X23465586Y-28402689D01*
X23443909Y-28415509D01*
X23433721Y-28425858D01*
X23425858Y-28455515D01*
X23424843Y-28455245D01*
X23413387Y-28498000D01*
X23368000Y-28543387D01*
X23306000Y-28560000D01*
X22836326Y-28560000D01*
X22823450Y-28563450D01*
X22820000Y-28576326D01*
X22820000Y-29062779D01*
X22320000Y-29062779D01*
X22320000Y-28576326D01*
X22316549Y-28563450D01*
X22303674Y-28560000D01*
X21771585Y-28560000D01*
X21760605Y-28562590D01*
X20441826Y-28562590D01*
X20430790Y-28443490D01*
X20428692Y-28432268D01*
X20373508Y-28238314D01*
X20369377Y-28227651D01*
X20279493Y-28047139D01*
X20273486Y-28037437D01*
X20151953Y-27876502D01*
X20144268Y-27868072D01*
X19995232Y-27732207D01*
X19986125Y-27725330D01*
X19814669Y-27619170D01*
X19804452Y-27614082D01*
X19616408Y-27541233D01*
X19605423Y-27538108D01*
X19558429Y-27529323D01*
X19547401Y-27529705D01*
X19545000Y-27540473D01*
X19545000Y-28633674D01*
X19045000Y-28633674D01*
X19045000Y-27540473D01*
X19042598Y-27529705D01*
X19031570Y-27529323D01*
X18984576Y-27538108D01*
X18973591Y-27541233D01*
X18785547Y-27614082D01*
X18775330Y-27619170D01*
X18603874Y-27725330D01*
X18594767Y-27732207D01*
X18445731Y-27868072D01*
X18438046Y-27876502D01*
X18316513Y-28037437D01*
X18310506Y-28047139D01*
X18220622Y-28227651D01*
X18216491Y-28238314D01*
X18161307Y-28432268D01*
X18159209Y-28443490D01*
X18145265Y-28593969D01*
X18145000Y-28599702D01*
X18145000Y-28633674D01*
X13195000Y-28633674D01*
X13195000Y-28599702D01*
X13194734Y-28593969D01*
X13180790Y-28443490D01*
X13178692Y-28432268D01*
X13123508Y-28238314D01*
X13119379Y-28227655D01*
X13098025Y-28184770D01*
X13085158Y-28123772D01*
X13103599Y-28064222D01*
X13148687Y-28021171D01*
X13209026Y-28005500D01*
X14441947Y-28005500D01*
X14446000Y-28005500D01*
X14525070Y-27995090D01*
X14587070Y-27978477D01*
X14660750Y-27947958D01*
X14724021Y-27899408D01*
X14769408Y-27854021D01*
X14817958Y-27790750D01*
X14818080Y-27790454D01*
X14865194Y-27745196D01*
X14932799Y-27731391D01*
X14997316Y-27755856D01*
X15038767Y-27811016D01*
X15045182Y-27827930D01*
X15049444Y-27834105D01*
X15049445Y-27834106D01*
X15130178Y-27951068D01*
X15141817Y-27967929D01*
X15269148Y-28080734D01*
X15419775Y-28159790D01*
X15584944Y-28200500D01*
X15747556Y-28200500D01*
X15755056Y-28200500D01*
X15920225Y-28159790D01*
X16070852Y-28080734D01*
X16198183Y-27967929D01*
X16294818Y-27827930D01*
X16355140Y-27668872D01*
X16375645Y-27500000D01*
X16355140Y-27331128D01*
X16305447Y-27200098D01*
X17481979Y-27200098D01*
X17489916Y-27207944D01*
X17575330Y-27260829D01*
X17585547Y-27265917D01*
X17773591Y-27338766D01*
X17784576Y-27341891D01*
X17982807Y-27378947D01*
X17994166Y-27380000D01*
X18195834Y-27380000D01*
X18207192Y-27378947D01*
X18405423Y-27341891D01*
X18416408Y-27338766D01*
X18604453Y-27265917D01*
X18614666Y-27260831D01*
X18700084Y-27207943D01*
X18708019Y-27200098D01*
X18702089Y-27190643D01*
X18106542Y-26595095D01*
X18095000Y-26588431D01*
X18083457Y-26595095D01*
X17487909Y-27190643D01*
X17481979Y-27200098D01*
X16305447Y-27200098D01*
X16294818Y-27172070D01*
X16207614Y-27045734D01*
X16202442Y-27038241D01*
X16202441Y-27038240D01*
X16198183Y-27032071D01*
X16190553Y-27025311D01*
X16189023Y-27023095D01*
X16187596Y-27021484D01*
X16187791Y-27021310D01*
X16156841Y-26976470D01*
X16149687Y-26917552D01*
X16170733Y-26862059D01*
X16215157Y-26822702D01*
X16272780Y-26808499D01*
X16308305Y-26808499D01*
X16363807Y-26821615D01*
X16400643Y-26852400D01*
X16401225Y-26851819D01*
X16419907Y-26870501D01*
X16520810Y-26946037D01*
X16536222Y-26954452D01*
X16655358Y-26998888D01*
X16670332Y-27002426D01*
X16718885Y-27007646D01*
X16725482Y-27008000D01*
X16753674Y-27008000D01*
X16766549Y-27004549D01*
X16768617Y-26996832D01*
X17171382Y-26996832D01*
X17173450Y-27004549D01*
X17181167Y-27006617D01*
X17184700Y-27005769D01*
X17179708Y-26997622D01*
X17172841Y-26990755D01*
X17171382Y-26996832D01*
X16768617Y-26996832D01*
X16770000Y-26991674D01*
X16770000Y-26786770D01*
X17170000Y-26786770D01*
X17172841Y-26798604D01*
X17741446Y-26230000D01*
X18453431Y-26230000D01*
X18460095Y-26241542D01*
X19055588Y-26837034D01*
X19067753Y-26843688D01*
X19077080Y-26836757D01*
X19079495Y-26832857D01*
X19169377Y-26652348D01*
X19173508Y-26641685D01*
X19228692Y-26447731D01*
X19230790Y-26436509D01*
X19249398Y-26235709D01*
X19249398Y-26224291D01*
X19230790Y-26023490D01*
X19228692Y-26012268D01*
X19173508Y-25818314D01*
X19169377Y-25807651D01*
X19079493Y-25627139D01*
X19077082Y-25623244D01*
X19067752Y-25616311D01*
X19055588Y-25622964D01*
X18460095Y-26218457D01*
X18453431Y-26230000D01*
X17741446Y-26230000D01*
X18095000Y-25876447D01*
X18702089Y-25269355D01*
X18708019Y-25259900D01*
X18700082Y-25252054D01*
X18614669Y-25199170D01*
X18604452Y-25194082D01*
X18416408Y-25121233D01*
X18405423Y-25118108D01*
X18207192Y-25081052D01*
X18195834Y-25080000D01*
X17994166Y-25080000D01*
X17982806Y-25081052D01*
X17816785Y-25112087D01*
X17762829Y-25110216D01*
X17714783Y-25085595D01*
X17689272Y-25052612D01*
X19984361Y-25052612D01*
X19985054Y-25063896D01*
X20019883Y-25178712D01*
X20024520Y-25189905D01*
X20111633Y-25352882D01*
X20118374Y-25362970D01*
X20235609Y-25505821D01*
X20244178Y-25514390D01*
X20387029Y-25631625D01*
X20397117Y-25638366D01*
X20560094Y-25725479D01*
X20571287Y-25730116D01*
X20686103Y-25764945D01*
X20697387Y-25765638D01*
X20700000Y-25754637D01*
X20700000Y-25066326D01*
X20696549Y-25053450D01*
X20683674Y-25050000D01*
X19995363Y-25050000D01*
X19984361Y-25052612D01*
X17689272Y-25052612D01*
X17681753Y-25042891D01*
X17670000Y-24990198D01*
X17670000Y-24863482D01*
X17669646Y-24856885D01*
X17664426Y-24808332D01*
X17660888Y-24793358D01*
X17616452Y-24674222D01*
X17608037Y-24658810D01*
X17532501Y-24557907D01*
X17521981Y-24547387D01*
X19984361Y-24547387D01*
X19995363Y-24550000D01*
X20683674Y-24550000D01*
X20696549Y-24546549D01*
X20700000Y-24533674D01*
X20700000Y-23845363D01*
X20697387Y-23834361D01*
X20686103Y-23835054D01*
X20571287Y-23869883D01*
X20560094Y-23874520D01*
X20397117Y-23961633D01*
X20387029Y-23968374D01*
X20244178Y-24085609D01*
X20235609Y-24094178D01*
X20118374Y-24237029D01*
X20111633Y-24247117D01*
X20024520Y-24410094D01*
X20019883Y-24421287D01*
X19985054Y-24536103D01*
X19984361Y-24547387D01*
X17521981Y-24547387D01*
X17520092Y-24545498D01*
X17419189Y-24469962D01*
X17403777Y-24461547D01*
X17284641Y-24417111D01*
X17269667Y-24413573D01*
X17221114Y-24408353D01*
X17214518Y-24408000D01*
X17186326Y-24408000D01*
X17173450Y-24411450D01*
X17170000Y-24424326D01*
X17170000Y-26786770D01*
X16770000Y-26786770D01*
X16770000Y-26711920D01*
X16780565Y-26661834D01*
X16813818Y-26586522D01*
X16817585Y-26577991D01*
X16820500Y-26552865D01*
X16820499Y-24863136D01*
X16817585Y-24838009D01*
X16780565Y-24754166D01*
X16770000Y-24704080D01*
X16770000Y-24424326D01*
X16766425Y-24410987D01*
X16719350Y-24386128D01*
X16686584Y-24341831D01*
X16676244Y-24287711D01*
X16690372Y-24234454D01*
X16690553Y-24234108D01*
X16694818Y-24227930D01*
X16755140Y-24068872D01*
X16775645Y-23900000D01*
X16755140Y-23731128D01*
X16752040Y-23722954D01*
X16740859Y-23693470D01*
X16733705Y-23634553D01*
X16754751Y-23579059D01*
X16799176Y-23539703D01*
X16856801Y-23525500D01*
X17498635Y-23525500D01*
X17554516Y-23538805D01*
X17598405Y-23575866D01*
X17613577Y-23596423D01*
X17719206Y-23674381D01*
X17843121Y-23717741D01*
X17872543Y-23720500D01*
X18247456Y-23720499D01*
X18276879Y-23717741D01*
X18353597Y-23690895D01*
X18422142Y-23687046D01*
X18482231Y-23720256D01*
X18547192Y-23785217D01*
X18559428Y-23794708D01*
X18684092Y-23868434D01*
X18698299Y-23874582D01*
X18816143Y-23908819D01*
X18827409Y-23909394D01*
X18830000Y-23898415D01*
X19330000Y-23898415D01*
X19332590Y-23909394D01*
X19343856Y-23908819D01*
X19461700Y-23874582D01*
X19475907Y-23868434D01*
X19600571Y-23794708D01*
X19612807Y-23785217D01*
X19715217Y-23682807D01*
X19724708Y-23670571D01*
X19798434Y-23545907D01*
X19804582Y-23531700D01*
X19845398Y-23391212D01*
X19847664Y-23378808D01*
X19848585Y-23367098D01*
X19845921Y-23353706D01*
X19832779Y-23350000D01*
X19346326Y-23350000D01*
X19333450Y-23353450D01*
X19330000Y-23366326D01*
X19330000Y-23898415D01*
X18830000Y-23898415D01*
X18830000Y-22833674D01*
X19330000Y-22833674D01*
X19333450Y-22846549D01*
X19346326Y-22850000D01*
X19832779Y-22850000D01*
X19845921Y-22846293D01*
X19848585Y-22832901D01*
X19847664Y-22821191D01*
X19845398Y-22808787D01*
X19804582Y-22668299D01*
X19798434Y-22654092D01*
X19724708Y-22529428D01*
X19715217Y-22517192D01*
X19612807Y-22414782D01*
X19600571Y-22405291D01*
X19475907Y-22331565D01*
X19461700Y-22325417D01*
X19343856Y-22291180D01*
X19332590Y-22290605D01*
X19330000Y-22301585D01*
X19330000Y-22833674D01*
X18830000Y-22833674D01*
X18830000Y-22301585D01*
X18827409Y-22290605D01*
X18816143Y-22291180D01*
X18698299Y-22325417D01*
X18684092Y-22331565D01*
X18559428Y-22405291D01*
X18547196Y-22414779D01*
X18482231Y-22479744D01*
X18422142Y-22512953D01*
X18353597Y-22509104D01*
X18299228Y-22490079D01*
X18284001Y-22484751D01*
X18284000Y-22484750D01*
X18276879Y-22482259D01*
X18269361Y-22481554D01*
X18250342Y-22479770D01*
X18250330Y-22479769D01*
X18247457Y-22479500D01*
X18244563Y-22479500D01*
X17875446Y-22479500D01*
X17875424Y-22479500D01*
X17872544Y-22479501D01*
X17869671Y-22479770D01*
X17869656Y-22479771D01*
X17850637Y-22481554D01*
X17850633Y-22481554D01*
X17843121Y-22482259D01*
X17835996Y-22484752D01*
X17835992Y-22484753D01*
X17727978Y-22522549D01*
X17727975Y-22522550D01*
X17719206Y-22525619D01*
X17711730Y-22531136D01*
X17711729Y-22531137D01*
X17621051Y-22598060D01*
X17621047Y-22598063D01*
X17613577Y-22603577D01*
X17608063Y-22611047D01*
X17608060Y-22611051D01*
X17598405Y-22624134D01*
X17554516Y-22661195D01*
X17498635Y-22674500D01*
X15547610Y-22674500D01*
X15500157Y-22665061D01*
X15459929Y-22638181D01*
X15200368Y-22378620D01*
X15174059Y-22339749D01*
X15164084Y-22293884D01*
X15171753Y-22248295D01*
X15172815Y-22245971D01*
X15213322Y-22108016D01*
X15225705Y-22021889D01*
X15225705Y-21494518D01*
X15570000Y-21494518D01*
X15570353Y-21501114D01*
X15575573Y-21549667D01*
X15579111Y-21564641D01*
X15623547Y-21683777D01*
X15631962Y-21699189D01*
X15707498Y-21800092D01*
X15719907Y-21812501D01*
X15820810Y-21888037D01*
X15836222Y-21896452D01*
X15955358Y-21940888D01*
X15970332Y-21944426D01*
X16018885Y-21949646D01*
X16025482Y-21950000D01*
X16703674Y-21950000D01*
X16716549Y-21946549D01*
X16720000Y-21933674D01*
X17220000Y-21933674D01*
X17223450Y-21946549D01*
X17236326Y-21950000D01*
X17914518Y-21950000D01*
X17921114Y-21949646D01*
X17969667Y-21944426D01*
X17984641Y-21940888D01*
X18103777Y-21896452D01*
X18119189Y-21888037D01*
X18220092Y-21812501D01*
X18232501Y-21800092D01*
X18308037Y-21699189D01*
X18316452Y-21683777D01*
X18360888Y-21564641D01*
X18364426Y-21549667D01*
X18369646Y-21501114D01*
X18370000Y-21494518D01*
X18370000Y-21166326D01*
X18366549Y-21153450D01*
X18353674Y-21150000D01*
X17236326Y-21150000D01*
X17223450Y-21153450D01*
X17220000Y-21166326D01*
X17220000Y-21933674D01*
X16720000Y-21933674D01*
X16720000Y-21166326D01*
X16716549Y-21153450D01*
X16703674Y-21150000D01*
X15586326Y-21150000D01*
X15573450Y-21153450D01*
X15570000Y-21166326D01*
X15570000Y-21494518D01*
X15225705Y-21494518D01*
X15225705Y-21450000D01*
X15210743Y-21355532D01*
X15206310Y-21346832D01*
X15203544Y-21338319D01*
X15197475Y-21300000D01*
X15203544Y-21261681D01*
X15206309Y-21253168D01*
X15210743Y-21244468D01*
X15225705Y-21150000D01*
X15225705Y-20578111D01*
X15213322Y-20491984D01*
X15172815Y-20354029D01*
X15171751Y-20351699D01*
X15164084Y-20306109D01*
X15174061Y-20260247D01*
X15200365Y-20221381D01*
X15409660Y-20012086D01*
X15467530Y-19979406D01*
X15533968Y-19981304D01*
X15589881Y-20017237D01*
X15619207Y-20076881D01*
X15613520Y-20143102D01*
X15579112Y-20235354D01*
X15575573Y-20250332D01*
X15570353Y-20298885D01*
X15570000Y-20305482D01*
X15570000Y-20633674D01*
X15573450Y-20646549D01*
X15586326Y-20650000D01*
X18353674Y-20650000D01*
X18366549Y-20646549D01*
X18370000Y-20633674D01*
X18370000Y-20305482D01*
X18369646Y-20298885D01*
X18364426Y-20250332D01*
X18360888Y-20235358D01*
X18316452Y-20116222D01*
X18308037Y-20100810D01*
X18232501Y-19999907D01*
X18213819Y-19981225D01*
X18214400Y-19980643D01*
X18183615Y-19943807D01*
X18170499Y-19888306D01*
X18170499Y-18805136D01*
X18167585Y-18780009D01*
X18132295Y-18700086D01*
X18121730Y-18650000D01*
X18132296Y-18599913D01*
X18163817Y-18528525D01*
X18163818Y-18528523D01*
X18167585Y-18519991D01*
X18170500Y-18494865D01*
X18170499Y-17305136D01*
X18167585Y-17280009D01*
X18163815Y-17271470D01*
X18132296Y-17200085D01*
X18121730Y-17149998D01*
X18132296Y-17099913D01*
X18167585Y-17019991D01*
X18170500Y-16994865D01*
X18170499Y-15805136D01*
X18167585Y-15780009D01*
X18163815Y-15771470D01*
X18132296Y-15700085D01*
X18121730Y-15649998D01*
X18132296Y-15599913D01*
X18167585Y-15519991D01*
X18170500Y-15494865D01*
X18170499Y-14901607D01*
X18184014Y-14845314D01*
X18221614Y-14801291D01*
X18275101Y-14779136D01*
X18332817Y-14783678D01*
X18382180Y-14813928D01*
X20698181Y-17129929D01*
X20725061Y-17170157D01*
X20734500Y-17217610D01*
X20734500Y-22034424D01*
X20728287Y-22073183D01*
X20710270Y-22108057D01*
X20635619Y-22209206D01*
X20632550Y-22217975D01*
X20632549Y-22217978D01*
X20594752Y-22325994D01*
X20594750Y-22326000D01*
X20592259Y-22333121D01*
X20591554Y-22340637D01*
X20591554Y-22340638D01*
X20589770Y-22359657D01*
X20589769Y-22359670D01*
X20589500Y-22362543D01*
X20589500Y-22365435D01*
X20589500Y-22365436D01*
X20589500Y-22834553D01*
X20589500Y-22834574D01*
X20589501Y-22837456D01*
X20589770Y-22840329D01*
X20589771Y-22840343D01*
X20591554Y-22859361D01*
X20592259Y-22866879D01*
X20594752Y-22874005D01*
X20594753Y-22874007D01*
X20624718Y-22959641D01*
X20635619Y-22990794D01*
X20654783Y-23016760D01*
X20706512Y-23086851D01*
X20713577Y-23096423D01*
X20819206Y-23174381D01*
X20943121Y-23217741D01*
X20972543Y-23220500D01*
X21347456Y-23220499D01*
X21376879Y-23217741D01*
X21500794Y-23174381D01*
X21596367Y-23103844D01*
X21643915Y-23082390D01*
X21696081Y-23082389D01*
X21743628Y-23103841D01*
X21744134Y-23104214D01*
X21781194Y-23148102D01*
X21794500Y-23203984D01*
X21794500Y-23937244D01*
X21775262Y-24003584D01*
X21723516Y-24049339D01*
X21655320Y-24060311D01*
X21591835Y-24033097D01*
X21512970Y-23968373D01*
X21502882Y-23961633D01*
X21339905Y-23874520D01*
X21328712Y-23869883D01*
X21213896Y-23835054D01*
X21202612Y-23834361D01*
X21200000Y-23845363D01*
X21200000Y-25754637D01*
X21202612Y-25765638D01*
X21213896Y-25764945D01*
X21328712Y-25730116D01*
X21339905Y-25725479D01*
X21502882Y-25638366D01*
X21512970Y-25631626D01*
X21591835Y-25566903D01*
X21655320Y-25539689D01*
X21723516Y-25550661D01*
X21775262Y-25596416D01*
X21794500Y-25662756D01*
X21794500Y-26872607D01*
X21794500Y-27007393D01*
X21797512Y-27016664D01*
X21797514Y-27016673D01*
X21801962Y-27030360D01*
X21806504Y-27049279D01*
X21807948Y-27058399D01*
X21810281Y-27073126D01*
X21814709Y-27081816D01*
X21814710Y-27081819D01*
X21821243Y-27094639D01*
X21828688Y-27112614D01*
X21836151Y-27135581D01*
X21848481Y-27152552D01*
X21850342Y-27155113D01*
X21860507Y-27171700D01*
X21871472Y-27193220D01*
X21878372Y-27200120D01*
X21913181Y-27234929D01*
X21940061Y-27275157D01*
X21949500Y-27322609D01*
X21949500Y-27474553D01*
X21949500Y-27474574D01*
X21949501Y-27477456D01*
X21949770Y-27480329D01*
X21949771Y-27480343D01*
X21950916Y-27492555D01*
X21952259Y-27506879D01*
X21979104Y-27583596D01*
X21982953Y-27652142D01*
X21949744Y-27712231D01*
X21884779Y-27777196D01*
X21875291Y-27789428D01*
X21801565Y-27914092D01*
X21795417Y-27928299D01*
X21761180Y-28046143D01*
X21760605Y-28057409D01*
X21771585Y-28060000D01*
X23368415Y-28060000D01*
X23379394Y-28057409D01*
X23378819Y-28046143D01*
X23350829Y-27949800D01*
X23348026Y-27892369D01*
X23371430Y-27839848D01*
X23416008Y-27803531D01*
X23472175Y-27791226D01*
X23519405Y-27803400D01*
X23519618Y-27802793D01*
X23647801Y-27847646D01*
X23678234Y-27850500D01*
X24958873Y-27850500D01*
X24961766Y-27850500D01*
X24992199Y-27847646D01*
X24999319Y-27845154D01*
X25006694Y-27843544D01*
X25007176Y-27845752D01*
X25055603Y-27841536D01*
X25111823Y-27866203D01*
X25149320Y-27914816D01*
X25158901Y-27975458D01*
X25157000Y-27995734D01*
X25157000Y-27998627D01*
X25157000Y-28231708D01*
X25145301Y-28284286D01*
X25112413Y-28326942D01*
X25064540Y-28351630D01*
X25010716Y-28353689D01*
X25003676Y-28352403D01*
X24975576Y-28350191D01*
X24970697Y-28350000D01*
X24586326Y-28350000D01*
X24573450Y-28353450D01*
X24570000Y-28366326D01*
X24570000Y-28883674D01*
X24573450Y-28896549D01*
X24586326Y-28900000D01*
X25537644Y-28900000D01*
X25551956Y-28895963D01*
X25573230Y-28849013D01*
X25616762Y-28813288D01*
X25671605Y-28800500D01*
X26833873Y-28800500D01*
X26836766Y-28800500D01*
X26867199Y-28797646D01*
X26995382Y-28752793D01*
X27104650Y-28672150D01*
X27185293Y-28562882D01*
X27230146Y-28434699D01*
X27233000Y-28404266D01*
X27233000Y-27995734D01*
X27230146Y-27965301D01*
X27217198Y-27928299D01*
X27193474Y-27860499D01*
X27185293Y-27837118D01*
X27173332Y-27820912D01*
X27123965Y-27754021D01*
X27104650Y-27727850D01*
X27054381Y-27690750D01*
X27002858Y-27652724D01*
X27002855Y-27652722D01*
X26995382Y-27647207D01*
X26986615Y-27644139D01*
X26986609Y-27644136D01*
X26890316Y-27610442D01*
X26842649Y-27580131D01*
X26813373Y-27531820D01*
X26808565Y-27475536D01*
X26829220Y-27422963D01*
X26894818Y-27327930D01*
X26955140Y-27168872D01*
X26975645Y-27000000D01*
X26955140Y-26831128D01*
X26951944Y-26822702D01*
X26900969Y-26688290D01*
X26894818Y-26672070D01*
X26812536Y-26552865D01*
X26802442Y-26538241D01*
X26802441Y-26538240D01*
X26798183Y-26532071D01*
X26775882Y-26512314D01*
X26742168Y-26463471D01*
X26735014Y-26404554D01*
X26756060Y-26349060D01*
X26800484Y-26309703D01*
X26858110Y-26295500D01*
X27326797Y-26295500D01*
X27374250Y-26304939D01*
X27414478Y-26331819D01*
X27417331Y-26334672D01*
X27422850Y-26342150D01*
X27507405Y-26404554D01*
X27508321Y-26405230D01*
X27545382Y-26449119D01*
X27558687Y-26505000D01*
X27545382Y-26560881D01*
X27508321Y-26604770D01*
X27440473Y-26654844D01*
X27422850Y-26667850D01*
X27417333Y-26675324D01*
X27417331Y-26675327D01*
X27347724Y-26769641D01*
X27347720Y-26769646D01*
X27342207Y-26777118D01*
X27339140Y-26785880D01*
X27339138Y-26785886D01*
X27299844Y-26898182D01*
X27299842Y-26898189D01*
X27297354Y-26905301D01*
X27296650Y-26912807D01*
X27296649Y-26912812D01*
X27294770Y-26932850D01*
X27294500Y-26935734D01*
X27294500Y-27344266D01*
X27294769Y-27347141D01*
X27294770Y-27347149D01*
X27296649Y-27367187D01*
X27296649Y-27367191D01*
X27297354Y-27374699D01*
X27299842Y-27381811D01*
X27299844Y-27381817D01*
X27339138Y-27494113D01*
X27339139Y-27494116D01*
X27342207Y-27502882D01*
X27347722Y-27510355D01*
X27347724Y-27510358D01*
X27369950Y-27540473D01*
X27422850Y-27612150D01*
X27460309Y-27639796D01*
X27519172Y-27683239D01*
X27532118Y-27692793D01*
X27540886Y-27695861D01*
X27632305Y-27727850D01*
X27660301Y-27737646D01*
X27690734Y-27740500D01*
X29446373Y-27740500D01*
X29449266Y-27740500D01*
X29479699Y-27737646D01*
X29607882Y-27692793D01*
X29679692Y-27639794D01*
X29736372Y-27616730D01*
X29797183Y-27623582D01*
X29847311Y-27658682D01*
X29874549Y-27713483D01*
X29872260Y-27774636D01*
X29841004Y-27827247D01*
X29205069Y-28463181D01*
X29164841Y-28490061D01*
X29117388Y-28499500D01*
X28428714Y-28499500D01*
X28428696Y-28499500D01*
X28425136Y-28499501D01*
X28421589Y-28499912D01*
X28421577Y-28499913D01*
X28409277Y-28501340D01*
X28409275Y-28501340D01*
X28400009Y-28502415D01*
X28391479Y-28506180D01*
X28391476Y-28506182D01*
X28307745Y-28543153D01*
X28307743Y-28543154D01*
X28297235Y-28547794D01*
X28289112Y-28555916D01*
X28289109Y-28555919D01*
X28225919Y-28619109D01*
X28225916Y-28619112D01*
X28217794Y-28627235D01*
X28213154Y-28637743D01*
X28213153Y-28637745D01*
X28176181Y-28721477D01*
X28176179Y-28721484D01*
X28172415Y-28730009D01*
X28171340Y-28739271D01*
X28171340Y-28739273D01*
X28169911Y-28751585D01*
X28169910Y-28751599D01*
X28169500Y-28755135D01*
X28169500Y-28758708D01*
X28169500Y-28758709D01*
X28169500Y-29841285D01*
X28169500Y-29841302D01*
X28169501Y-29844864D01*
X28169912Y-29848411D01*
X28169913Y-29848422D01*
X28171340Y-29860722D01*
X28172415Y-29869991D01*
X28176181Y-29878521D01*
X28176182Y-29878523D01*
X28184477Y-29897310D01*
X28217794Y-29972765D01*
X28297235Y-30052206D01*
X28348109Y-30074669D01*
X28391477Y-30093818D01*
X28391478Y-30093818D01*
X28400009Y-30097585D01*
X28425135Y-30100500D01*
X29514864Y-30100499D01*
X29539991Y-30097585D01*
X29642765Y-30052206D01*
X29722206Y-29972765D01*
X29767585Y-29869991D01*
X29770500Y-29844865D01*
X29770500Y-29521829D01*
X32320001Y-29521829D01*
X32320321Y-29528111D01*
X32329805Y-29620959D01*
X32332623Y-29634122D01*
X32383370Y-29787267D01*
X32389432Y-29800266D01*
X32473890Y-29937194D01*
X32482794Y-29948455D01*
X32596544Y-30062205D01*
X32607805Y-30071109D01*
X32744733Y-30155567D01*
X32757732Y-30161629D01*
X32910874Y-30212375D01*
X32924041Y-30215194D01*
X33016890Y-30224680D01*
X33023168Y-30225000D01*
X33116174Y-30225000D01*
X33129049Y-30221549D01*
X33132500Y-30208674D01*
X33132500Y-29466326D01*
X33129049Y-29453450D01*
X33116174Y-29450000D01*
X32336327Y-29450000D01*
X32323451Y-29453450D01*
X32320001Y-29466326D01*
X32320001Y-29521829D01*
X29770500Y-29521829D01*
X29770499Y-29152608D01*
X29779938Y-29105156D01*
X29806815Y-29064931D01*
X29938072Y-28933674D01*
X32320000Y-28933674D01*
X32323450Y-28946549D01*
X32336326Y-28950000D01*
X33116174Y-28950000D01*
X33129049Y-28946549D01*
X33132500Y-28933674D01*
X33132500Y-28191327D01*
X33129049Y-28178451D01*
X33116174Y-28175001D01*
X33023171Y-28175001D01*
X33016888Y-28175321D01*
X32924040Y-28184805D01*
X32910877Y-28187623D01*
X32757732Y-28238370D01*
X32744733Y-28244432D01*
X32607805Y-28328890D01*
X32596544Y-28337794D01*
X32482794Y-28451544D01*
X32473890Y-28462805D01*
X32389432Y-28599733D01*
X32383370Y-28612732D01*
X32332624Y-28765874D01*
X32329805Y-28779041D01*
X32320319Y-28871890D01*
X32320000Y-28878168D01*
X32320000Y-28933674D01*
X29938072Y-28933674D01*
X30794553Y-28077195D01*
X30794554Y-28077192D01*
X30818528Y-28053220D01*
X30829494Y-28031696D01*
X30839653Y-28015119D01*
X30853849Y-27995581D01*
X30861312Y-27972607D01*
X30868756Y-27954639D01*
X30879719Y-27933126D01*
X30883496Y-27909272D01*
X30888038Y-27890354D01*
X30895500Y-27867393D01*
X30895500Y-27732607D01*
X30895500Y-27344266D01*
X32244500Y-27344266D01*
X32244769Y-27347141D01*
X32244770Y-27347149D01*
X32246649Y-27367187D01*
X32246649Y-27367191D01*
X32247354Y-27374699D01*
X32249842Y-27381811D01*
X32249844Y-27381817D01*
X32289138Y-27494113D01*
X32289139Y-27494116D01*
X32292207Y-27502882D01*
X32297722Y-27510355D01*
X32297724Y-27510358D01*
X32319950Y-27540473D01*
X32372850Y-27612150D01*
X32410309Y-27639796D01*
X32469172Y-27683239D01*
X32482118Y-27692793D01*
X32490886Y-27695861D01*
X32582305Y-27727850D01*
X32610301Y-27737646D01*
X32640734Y-27740500D01*
X34396373Y-27740500D01*
X34399266Y-27740500D01*
X34429699Y-27737646D01*
X34557882Y-27692793D01*
X34667150Y-27612150D01*
X34747793Y-27502882D01*
X34792646Y-27374699D01*
X34795500Y-27344266D01*
X34795500Y-26935734D01*
X34792646Y-26905301D01*
X34747793Y-26777118D01*
X34739836Y-26766337D01*
X34682235Y-26688290D01*
X34667150Y-26667850D01*
X34581678Y-26604769D01*
X34544618Y-26560881D01*
X34531312Y-26505000D01*
X34544618Y-26449119D01*
X34581679Y-26405230D01*
X34582595Y-26404554D01*
X34667150Y-26342150D01*
X34747793Y-26232882D01*
X34756308Y-26208548D01*
X34782450Y-26165160D01*
X34823763Y-26135847D01*
X34873350Y-26125500D01*
X35048635Y-26125500D01*
X35104515Y-26138805D01*
X35148404Y-26175865D01*
X35160269Y-26191941D01*
X35178287Y-26226816D01*
X35184500Y-26265576D01*
X35184500Y-28250500D01*
X35167887Y-28312500D01*
X35122500Y-28357887D01*
X35060500Y-28374500D01*
X34801898Y-28374500D01*
X34798233Y-28374940D01*
X34798218Y-28374941D01*
X34721331Y-28384174D01*
X34721324Y-28384175D01*
X34713436Y-28385123D01*
X34706040Y-28388039D01*
X34706038Y-28388040D01*
X34580551Y-28437526D01*
X34580548Y-28437527D01*
X34572658Y-28440639D01*
X34565899Y-28445764D01*
X34565898Y-28445765D01*
X34480307Y-28510671D01*
X34416918Y-28535329D01*
X34350058Y-28522841D01*
X34299843Y-28476963D01*
X34291112Y-28462808D01*
X34282205Y-28451544D01*
X34168455Y-28337794D01*
X34157194Y-28328890D01*
X34020266Y-28244432D01*
X34007267Y-28238370D01*
X33854125Y-28187624D01*
X33840958Y-28184805D01*
X33748109Y-28175319D01*
X33741832Y-28175000D01*
X33648826Y-28175000D01*
X33635950Y-28178450D01*
X33632500Y-28191326D01*
X33632500Y-30208673D01*
X33635950Y-30221548D01*
X33648826Y-30224999D01*
X33741829Y-30224999D01*
X33748111Y-30224678D01*
X33840959Y-30215194D01*
X33854122Y-30212376D01*
X34007267Y-30161629D01*
X34020266Y-30155567D01*
X34157194Y-30071109D01*
X34168455Y-30062205D01*
X34282205Y-29948455D01*
X34291112Y-29937191D01*
X34299842Y-29923038D01*
X34350056Y-29877159D01*
X34416918Y-29864670D01*
X34480306Y-29889328D01*
X34572658Y-29959361D01*
X34713436Y-30014877D01*
X34801898Y-30025500D01*
X35509401Y-30025500D01*
X35513102Y-30025500D01*
X35601564Y-30014877D01*
X35742342Y-29959361D01*
X35862922Y-29867922D01*
X35954361Y-29747342D01*
X36009877Y-29606564D01*
X36020500Y-29518102D01*
X36020500Y-28885453D01*
X36022026Y-28866059D01*
X36023496Y-28856776D01*
X36028037Y-28837859D01*
X36035500Y-28814893D01*
X36035500Y-28680107D01*
X36035500Y-28100000D01*
X48544341Y-28100000D01*
X48544813Y-28105395D01*
X48564366Y-28328890D01*
X48564937Y-28335408D01*
X48566336Y-28340630D01*
X48566337Y-28340634D01*
X48624694Y-28558430D01*
X48624697Y-28558438D01*
X48626097Y-28563663D01*
X48725965Y-28777829D01*
X48729072Y-28782266D01*
X48729073Y-28782268D01*
X48771463Y-28842807D01*
X48861505Y-28971401D01*
X49028599Y-29138495D01*
X49222171Y-29274035D01*
X49436337Y-29373903D01*
X49664592Y-29435063D01*
X49841034Y-29450500D01*
X49956258Y-29450500D01*
X49958966Y-29450500D01*
X50135408Y-29435063D01*
X50363663Y-29373903D01*
X50577829Y-29274035D01*
X50771401Y-29138495D01*
X50938495Y-28971401D01*
X51074035Y-28777830D01*
X51173903Y-28563663D01*
X51235063Y-28335408D01*
X51255659Y-28100000D01*
X51235063Y-27864592D01*
X51179890Y-27658682D01*
X51175305Y-27641569D01*
X51175304Y-27641567D01*
X51173903Y-27636337D01*
X51074035Y-27422171D01*
X50938495Y-27228599D01*
X50771401Y-27061505D01*
X50694121Y-27007393D01*
X50582268Y-26929073D01*
X50582266Y-26929072D01*
X50577829Y-26925965D01*
X50458887Y-26870501D01*
X50368572Y-26828386D01*
X50368570Y-26828385D01*
X50363663Y-26826097D01*
X50358438Y-26824697D01*
X50358430Y-26824694D01*
X50140634Y-26766337D01*
X50140630Y-26766336D01*
X50135408Y-26764937D01*
X50130020Y-26764465D01*
X50130017Y-26764465D01*
X49961664Y-26749736D01*
X49961662Y-26749735D01*
X49958966Y-26749500D01*
X49841034Y-26749500D01*
X49838338Y-26749735D01*
X49838335Y-26749736D01*
X49669982Y-26764465D01*
X49669977Y-26764465D01*
X49664592Y-26764937D01*
X49659371Y-26766335D01*
X49659365Y-26766337D01*
X49441569Y-26824694D01*
X49441557Y-26824698D01*
X49436337Y-26826097D01*
X49431432Y-26828383D01*
X49431427Y-26828386D01*
X49227081Y-26923675D01*
X49227077Y-26923677D01*
X49222171Y-26925965D01*
X49217738Y-26929068D01*
X49217731Y-26929073D01*
X49033034Y-27058399D01*
X49033029Y-27058402D01*
X49028599Y-27061505D01*
X49024775Y-27065328D01*
X49024769Y-27065334D01*
X48865336Y-27224767D01*
X48865330Y-27224773D01*
X48861505Y-27228599D01*
X48858406Y-27233023D01*
X48858399Y-27233033D01*
X48729066Y-27417740D01*
X48729061Y-27417747D01*
X48725965Y-27422170D01*
X48723683Y-27427061D01*
X48723678Y-27427072D01*
X48628386Y-27631427D01*
X48628383Y-27631432D01*
X48626097Y-27636337D01*
X48624698Y-27641557D01*
X48624694Y-27641569D01*
X48566337Y-27859365D01*
X48566335Y-27859371D01*
X48564937Y-27864592D01*
X48564465Y-27869977D01*
X48564465Y-27869982D01*
X48553473Y-27995620D01*
X48544341Y-28100000D01*
X36035500Y-28100000D01*
X36035500Y-26332768D01*
X36053894Y-26267781D01*
X36103619Y-26222073D01*
X36169922Y-26209207D01*
X36233134Y-26232998D01*
X36244711Y-26241542D01*
X36289206Y-26274381D01*
X36413121Y-26317741D01*
X36442543Y-26320500D01*
X36817456Y-26320499D01*
X36846879Y-26317741D01*
X36970794Y-26274381D01*
X37076423Y-26196423D01*
X37154381Y-26090794D01*
X37197741Y-25966879D01*
X37200500Y-25937457D01*
X37200499Y-25782608D01*
X37209938Y-25735156D01*
X37236813Y-25694933D01*
X37552820Y-25378926D01*
X37602182Y-25348679D01*
X37659898Y-25344137D01*
X37713385Y-25366292D01*
X37750985Y-25410315D01*
X37764500Y-25466610D01*
X37764500Y-27476000D01*
X37765028Y-27480017D01*
X37765029Y-27480019D01*
X37774379Y-27551043D01*
X37774381Y-27551055D01*
X37774910Y-27555070D01*
X37775958Y-27558984D01*
X37775960Y-27558990D01*
X37789747Y-27610442D01*
X37791523Y-27617070D01*
X37793076Y-27620820D01*
X37793078Y-27620825D01*
X37800936Y-27639796D01*
X37822042Y-27690750D01*
X37826988Y-27697196D01*
X37826990Y-27697199D01*
X37846136Y-27722150D01*
X37870592Y-27754021D01*
X37915979Y-27799408D01*
X37931108Y-27811017D01*
X37970880Y-27841536D01*
X37979250Y-27847958D01*
X38052930Y-27878477D01*
X38114930Y-27895090D01*
X38194000Y-27905500D01*
X41741947Y-27905500D01*
X41746000Y-27905500D01*
X41825070Y-27895090D01*
X41887070Y-27878477D01*
X41960750Y-27847958D01*
X42024021Y-27799408D01*
X42069408Y-27754021D01*
X42117958Y-27690750D01*
X42148477Y-27617070D01*
X42165090Y-27555070D01*
X42175500Y-27476000D01*
X42175500Y-26547906D01*
X42194069Y-26482634D01*
X42244216Y-26436912D01*
X42310921Y-26424433D01*
X42374205Y-26448935D01*
X42376228Y-26450462D01*
X42385049Y-26457785D01*
X42412067Y-26482416D01*
X42422786Y-26486568D01*
X42424880Y-26487865D01*
X42425112Y-26488024D01*
X42425361Y-26488134D01*
X42427568Y-26489233D01*
X42436736Y-26496156D01*
X42465048Y-26504211D01*
X42471887Y-26506157D01*
X42482750Y-26509798D01*
X42506109Y-26518848D01*
X42506110Y-26518848D01*
X42516827Y-26523000D01*
X42528321Y-26523000D01*
X42530739Y-26523452D01*
X42531014Y-26523516D01*
X42531280Y-26523529D01*
X42533743Y-26523757D01*
X42544793Y-26526901D01*
X42581183Y-26523528D01*
X42592624Y-26523000D01*
X44170840Y-26523000D01*
X44182280Y-26523529D01*
X44184743Y-26523757D01*
X44195793Y-26526901D01*
X44232183Y-26523528D01*
X44243624Y-26523000D01*
X44246109Y-26523000D01*
X44251844Y-26523000D01*
X44259939Y-26521486D01*
X44271259Y-26519907D01*
X44307660Y-26516535D01*
X44317947Y-26511412D01*
X44320317Y-26510738D01*
X44320587Y-26510674D01*
X44320842Y-26510562D01*
X44323138Y-26509672D01*
X44334433Y-26507561D01*
X44365530Y-26488305D01*
X44375488Y-26482759D01*
X44408228Y-26466458D01*
X44415972Y-26457961D01*
X44417924Y-26456488D01*
X44418165Y-26456322D01*
X44418367Y-26456121D01*
X44420177Y-26454470D01*
X44429952Y-26448419D01*
X44451980Y-26419247D01*
X44459284Y-26410451D01*
X44483916Y-26383433D01*
X44488069Y-26372709D01*
X44489360Y-26370626D01*
X44489521Y-26370389D01*
X44489637Y-26370129D01*
X44490728Y-26367936D01*
X44497656Y-26358764D01*
X44507659Y-26323602D01*
X44511292Y-26312763D01*
X44524500Y-26278673D01*
X44524500Y-26267179D01*
X44524952Y-26264761D01*
X44525016Y-26264486D01*
X44525029Y-26264220D01*
X44525257Y-26261756D01*
X44528401Y-26250707D01*
X44525936Y-26224110D01*
X44525029Y-26214317D01*
X44524500Y-26202876D01*
X44524500Y-23811743D01*
X44525038Y-23800205D01*
X44525225Y-23798193D01*
X44528379Y-23787144D01*
X44525019Y-23750584D01*
X44524500Y-23739240D01*
X44524500Y-23736596D01*
X44524500Y-23730856D01*
X44523021Y-23722947D01*
X44521427Y-23711492D01*
X44520404Y-23700358D01*
X44518100Y-23675268D01*
X44512983Y-23664972D01*
X44512203Y-23662223D01*
X44511171Y-23659560D01*
X44509061Y-23648267D01*
X44503213Y-23638823D01*
X44496125Y-23576717D01*
X44520476Y-23518844D01*
X44570055Y-23480318D01*
X44628104Y-23471623D01*
X44628150Y-23470768D01*
X44638082Y-23471300D01*
X44666274Y-23471300D01*
X44679149Y-23467849D01*
X44682600Y-23454974D01*
X45114400Y-23454974D01*
X45117850Y-23467849D01*
X45130726Y-23471300D01*
X45158918Y-23471300D01*
X45165514Y-23470946D01*
X45214067Y-23465726D01*
X45229041Y-23462188D01*
X45348177Y-23417752D01*
X45363589Y-23409337D01*
X45464492Y-23333801D01*
X45476901Y-23321392D01*
X45552437Y-23220489D01*
X45560852Y-23205077D01*
X45605288Y-23085941D01*
X45608826Y-23070967D01*
X45614046Y-23022414D01*
X45614400Y-23015818D01*
X45614400Y-22606626D01*
X45610949Y-22593750D01*
X45598074Y-22590300D01*
X45130726Y-22590300D01*
X45117850Y-22593750D01*
X45114400Y-22606626D01*
X45114400Y-23454974D01*
X44682600Y-23454974D01*
X44682600Y-22282500D01*
X44699213Y-22220500D01*
X44744600Y-22175113D01*
X44806600Y-22158500D01*
X45598074Y-22158500D01*
X45610949Y-22155049D01*
X45614400Y-22142174D01*
X45614400Y-21732982D01*
X45614046Y-21726385D01*
X45608826Y-21677832D01*
X45605288Y-21662858D01*
X45560852Y-21543722D01*
X45552437Y-21528310D01*
X45476901Y-21427407D01*
X45464492Y-21414998D01*
X45363589Y-21339462D01*
X45348177Y-21331047D01*
X45229041Y-21286611D01*
X45206513Y-21281288D01*
X45206832Y-21279935D01*
X45166201Y-21266221D01*
X45127350Y-21229140D01*
X45107822Y-21179109D01*
X45111282Y-21125514D01*
X45125376Y-21077002D01*
X45127310Y-21066415D01*
X45124782Y-21053706D01*
X45111641Y-21050000D01*
X44224000Y-21050000D01*
X44162000Y-21033387D01*
X44116613Y-20988000D01*
X44100000Y-20926000D01*
X44100000Y-20533674D01*
X44600000Y-20533674D01*
X44603450Y-20546549D01*
X44616326Y-20550000D01*
X45111637Y-20550000D01*
X45124781Y-20546293D01*
X45127309Y-20533585D01*
X45125375Y-20522994D01*
X45084208Y-20381297D01*
X45078060Y-20367090D01*
X45003691Y-20241339D01*
X44994200Y-20229103D01*
X44890896Y-20125799D01*
X44878660Y-20116308D01*
X44752908Y-20041938D01*
X44738706Y-20035792D01*
X44613857Y-19999520D01*
X44602590Y-19998945D01*
X44600000Y-20009925D01*
X44600000Y-20533674D01*
X44100000Y-20533674D01*
X44100000Y-20009925D01*
X44097409Y-19998945D01*
X44086142Y-19999520D01*
X43961293Y-20035792D01*
X43947091Y-20041938D01*
X43821340Y-20116307D01*
X43809099Y-20125802D01*
X43779393Y-20155508D01*
X43723805Y-20187601D01*
X43659619Y-20187601D01*
X43604032Y-20155507D01*
X42667405Y-19218880D01*
X42664493Y-19215868D01*
X42620680Y-19168956D01*
X42613439Y-19164552D01*
X42613431Y-19164546D01*
X42585573Y-19147605D01*
X42575081Y-19140465D01*
X42550585Y-19121890D01*
X42542342Y-19115639D01*
X42534459Y-19112530D01*
X42534450Y-19112525D01*
X42525642Y-19109052D01*
X42506713Y-19099650D01*
X42498631Y-19094735D01*
X42498624Y-19094732D01*
X42491382Y-19090328D01*
X42483216Y-19088039D01*
X42483214Y-19088039D01*
X42462715Y-19082295D01*
X42451814Y-19079240D01*
X42439786Y-19075196D01*
X42409453Y-19063235D01*
X42401564Y-19060124D01*
X42393129Y-19059256D01*
X42393127Y-19059256D01*
X42383713Y-19058288D01*
X42362954Y-19054343D01*
X42353829Y-19051786D01*
X42353820Y-19051784D01*
X42345665Y-19049500D01*
X42337188Y-19049500D01*
X42304582Y-19049500D01*
X42291901Y-19048850D01*
X42259466Y-19045515D01*
X42259462Y-19045515D01*
X42251028Y-19044648D01*
X42242671Y-19046088D01*
X42242667Y-19046089D01*
X42233344Y-19047697D01*
X42212275Y-19049500D01*
X41934162Y-19049500D01*
X41886058Y-19039789D01*
X41845489Y-19012178D01*
X41818808Y-18970990D01*
X41813396Y-18957267D01*
X41791861Y-18902658D01*
X41700422Y-18782078D01*
X41685941Y-18771097D01*
X41658568Y-18750339D01*
X41579842Y-18690639D01*
X41439064Y-18635123D01*
X41431174Y-18634175D01*
X41431168Y-18634174D01*
X41354281Y-18624941D01*
X41354267Y-18624940D01*
X41350602Y-18624500D01*
X40189398Y-18624500D01*
X40185733Y-18624940D01*
X40185718Y-18624941D01*
X40108831Y-18634174D01*
X40108824Y-18634175D01*
X40100936Y-18635123D01*
X40093540Y-18638039D01*
X40093542Y-18638039D01*
X40001321Y-18674406D01*
X39954420Y-18683043D01*
X39907728Y-18673340D01*
X39868151Y-18646732D01*
X38833599Y-17612180D01*
X38803349Y-17562817D01*
X38798807Y-17505101D01*
X38820962Y-17451614D01*
X38864985Y-17414014D01*
X38921280Y-17400499D01*
X38990612Y-17400499D01*
X39038065Y-17409938D01*
X39078293Y-17436818D01*
X39422593Y-17781118D01*
X39425535Y-17784162D01*
X39463529Y-17824844D01*
X39463531Y-17824845D01*
X39469320Y-17831044D01*
X39504419Y-17852388D01*
X39514914Y-17859530D01*
X39547658Y-17884361D01*
X39555543Y-17887470D01*
X39555546Y-17887472D01*
X39564349Y-17890943D01*
X39583281Y-17900345D01*
X39598618Y-17909672D01*
X39612081Y-17913444D01*
X39638181Y-17920757D01*
X39650207Y-17924800D01*
X39688436Y-17939876D01*
X39706278Y-17941710D01*
X39727051Y-17945657D01*
X39744335Y-17950500D01*
X39785418Y-17950500D01*
X39798098Y-17951149D01*
X39838972Y-17955352D01*
X39856655Y-17952303D01*
X39877725Y-17950500D01*
X40620737Y-17950500D01*
X40675928Y-17963460D01*
X40706956Y-17989168D01*
X40708801Y-17987324D01*
X40714797Y-17993320D01*
X40719922Y-18000078D01*
X40835025Y-18087364D01*
X40969410Y-18140359D01*
X41053856Y-18150500D01*
X41882444Y-18150500D01*
X41886144Y-18150500D01*
X41970590Y-18140359D01*
X42104975Y-18087364D01*
X42220078Y-18000078D01*
X42225203Y-17993320D01*
X42258378Y-17949574D01*
X42302021Y-17913444D01*
X42357181Y-17900500D01*
X43220737Y-17900500D01*
X43275928Y-17913460D01*
X43306956Y-17939168D01*
X43308801Y-17937324D01*
X43314798Y-17943321D01*
X43319922Y-17950078D01*
X43435025Y-18037364D01*
X43569410Y-18090359D01*
X43653856Y-18100500D01*
X44482444Y-18100500D01*
X44486144Y-18100500D01*
X44570590Y-18090359D01*
X44704975Y-18037364D01*
X44820078Y-17950078D01*
X44907364Y-17834975D01*
X44960359Y-17700590D01*
X44970500Y-17616144D01*
X44970500Y-17083856D01*
X44960359Y-16999410D01*
X44907364Y-16865025D01*
X44820078Y-16749922D01*
X44704975Y-16662636D01*
X44681098Y-16653220D01*
X44577988Y-16612558D01*
X44577985Y-16612557D01*
X44570590Y-16609641D01*
X44562699Y-16608693D01*
X44562694Y-16608692D01*
X44489821Y-16599941D01*
X44489811Y-16599940D01*
X44486144Y-16599500D01*
X43653856Y-16599500D01*
X43650189Y-16599940D01*
X43650178Y-16599941D01*
X43577305Y-16608692D01*
X43577298Y-16608693D01*
X43569410Y-16609641D01*
X43562016Y-16612556D01*
X43562011Y-16612558D01*
X43442920Y-16659522D01*
X43442916Y-16659523D01*
X43435025Y-16662636D01*
X43428266Y-16667761D01*
X43428265Y-16667762D01*
X43326676Y-16744800D01*
X43319922Y-16749922D01*
X43314799Y-16756677D01*
X43308801Y-16762676D01*
X43306956Y-16760831D01*
X43275928Y-16786540D01*
X43220737Y-16799500D01*
X42261221Y-16799500D01*
X42221697Y-16793032D01*
X42186298Y-16774306D01*
X42104975Y-16712636D01*
X42061301Y-16695413D01*
X41977988Y-16662558D01*
X41977985Y-16662557D01*
X41970590Y-16659641D01*
X41962699Y-16658693D01*
X41962694Y-16658692D01*
X41889821Y-16649941D01*
X41889811Y-16649940D01*
X41886144Y-16649500D01*
X41053856Y-16649500D01*
X41050189Y-16649940D01*
X41050178Y-16649941D01*
X40977305Y-16658692D01*
X40977298Y-16658693D01*
X40969410Y-16659641D01*
X40962016Y-16662556D01*
X40962011Y-16662558D01*
X40842920Y-16709522D01*
X40842916Y-16709523D01*
X40835025Y-16712636D01*
X40828266Y-16717761D01*
X40828265Y-16717762D01*
X40726676Y-16794800D01*
X40719922Y-16799922D01*
X40714799Y-16806677D01*
X40708801Y-16812676D01*
X40706956Y-16810831D01*
X40675928Y-16836540D01*
X40620737Y-16849500D01*
X40099387Y-16849500D01*
X40051934Y-16840061D01*
X40011706Y-16813181D01*
X39886818Y-16688293D01*
X39859938Y-16648065D01*
X39850499Y-16600612D01*
X39850499Y-16058714D01*
X39850499Y-16055136D01*
X39847585Y-16030009D01*
X39802206Y-15927235D01*
X39722765Y-15847794D01*
X39699990Y-15837738D01*
X39628522Y-15806181D01*
X39628517Y-15806179D01*
X39619991Y-15802415D01*
X39610726Y-15801340D01*
X39598414Y-15799911D01*
X39598401Y-15799910D01*
X39594865Y-15799500D01*
X39591290Y-15799500D01*
X38508714Y-15799500D01*
X38508696Y-15799500D01*
X38505136Y-15799501D01*
X38501589Y-15799912D01*
X38501577Y-15799913D01*
X38489277Y-15801340D01*
X38489275Y-15801340D01*
X38480009Y-15802415D01*
X38471479Y-15806180D01*
X38471476Y-15806182D01*
X38387745Y-15843153D01*
X38387743Y-15843154D01*
X38377235Y-15847794D01*
X38369111Y-15855917D01*
X38369108Y-15855920D01*
X38335347Y-15889681D01*
X38288621Y-15919041D01*
X38233783Y-15925219D01*
X38181696Y-15906993D01*
X38135417Y-15877914D01*
X38135409Y-15877910D01*
X38129522Y-15874211D01*
X38122959Y-15871914D01*
X38122956Y-15871913D01*
X37965824Y-15816930D01*
X37965819Y-15816928D01*
X37959255Y-15814632D01*
X37952335Y-15813852D01*
X37952334Y-15813852D01*
X37786923Y-15795215D01*
X37780000Y-15794435D01*
X37773077Y-15795215D01*
X37607665Y-15813852D01*
X37607662Y-15813852D01*
X37600745Y-15814632D01*
X37594182Y-15816928D01*
X37594175Y-15816930D01*
X37437043Y-15871913D01*
X37437036Y-15871915D01*
X37430478Y-15874211D01*
X37424590Y-15877910D01*
X37424587Y-15877912D01*
X37283638Y-15966476D01*
X37283633Y-15966479D01*
X37277738Y-15970184D01*
X37272813Y-15975108D01*
X37272809Y-15975112D01*
X37155112Y-16092809D01*
X37155108Y-16092813D01*
X37150184Y-16097738D01*
X37146479Y-16103633D01*
X37146476Y-16103638D01*
X37057912Y-16244587D01*
X37057910Y-16244590D01*
X37054211Y-16250478D01*
X37051915Y-16257036D01*
X37051913Y-16257043D01*
X36996930Y-16414175D01*
X36996928Y-16414182D01*
X36994632Y-16420745D01*
X36993852Y-16427662D01*
X36993852Y-16427665D01*
X36981730Y-16535257D01*
X36974435Y-16600000D01*
X36975215Y-16606923D01*
X36993249Y-16766986D01*
X36994632Y-16779255D01*
X36996928Y-16785819D01*
X36996930Y-16785824D01*
X37050085Y-16937731D01*
X37054211Y-16949522D01*
X37057912Y-16955412D01*
X37140943Y-17087556D01*
X37150184Y-17102262D01*
X37155111Y-17107189D01*
X37155112Y-17107190D01*
X37163181Y-17115259D01*
X37190061Y-17155487D01*
X37199500Y-17202940D01*
X37199500Y-17295584D01*
X37199428Y-17299817D01*
X37197527Y-17355453D01*
X37197527Y-17355457D01*
X37197238Y-17363932D01*
X37206965Y-17403850D01*
X37209334Y-17416314D01*
X37213774Y-17448620D01*
X37213775Y-17448624D01*
X37214930Y-17457026D01*
X37218309Y-17464805D01*
X37222080Y-17473486D01*
X37228818Y-17493522D01*
X37233067Y-17510958D01*
X37237221Y-17518347D01*
X37237222Y-17518348D01*
X37253207Y-17546778D01*
X37258849Y-17558139D01*
X37275220Y-17595826D01*
X37280570Y-17602402D01*
X37280572Y-17602405D01*
X37286540Y-17609740D01*
X37298438Y-17627222D01*
X37307234Y-17642865D01*
X37313232Y-17648863D01*
X37313233Y-17648864D01*
X37336286Y-17671917D01*
X37344793Y-17681343D01*
X37365365Y-17706630D01*
X37365367Y-17706632D01*
X37370722Y-17713214D01*
X37377654Y-17718107D01*
X37377656Y-17718109D01*
X37385379Y-17723560D01*
X37401552Y-17737183D01*
X37877688Y-18213319D01*
X37907938Y-18262682D01*
X37912480Y-18320398D01*
X37890325Y-18373885D01*
X37846302Y-18411485D01*
X37790007Y-18425000D01*
X37310671Y-18425000D01*
X37304388Y-18425321D01*
X37211540Y-18434805D01*
X37198377Y-18437623D01*
X37045232Y-18488370D01*
X37032233Y-18494432D01*
X36895305Y-18578890D01*
X36884044Y-18587794D01*
X36770294Y-18701544D01*
X36761390Y-18712805D01*
X36676932Y-18849733D01*
X36670870Y-18862732D01*
X36620124Y-19015874D01*
X36617305Y-19029041D01*
X36607819Y-19121890D01*
X36607500Y-19128168D01*
X36607500Y-19333674D01*
X36610950Y-19346549D01*
X36623826Y-19350000D01*
X38021000Y-19350000D01*
X38083000Y-19366613D01*
X38128387Y-19412000D01*
X38145000Y-19474000D01*
X38145000Y-19726000D01*
X38128387Y-19788000D01*
X38083000Y-19833387D01*
X38021000Y-19850000D01*
X36623827Y-19850000D01*
X36610951Y-19853450D01*
X36607501Y-19866326D01*
X36607501Y-20071829D01*
X36607821Y-20078111D01*
X36617305Y-20170959D01*
X36620123Y-20184122D01*
X36670870Y-20337267D01*
X36676932Y-20350266D01*
X36761390Y-20487194D01*
X36770294Y-20498455D01*
X36884044Y-20612205D01*
X36895305Y-20621109D01*
X37032233Y-20705567D01*
X37045232Y-20711629D01*
X37198374Y-20762375D01*
X37211541Y-20765194D01*
X37304390Y-20774680D01*
X37310667Y-20774999D01*
X37417285Y-20774999D01*
X37479566Y-20791774D01*
X37524996Y-20837562D01*
X37541282Y-20899972D01*
X37524018Y-20962120D01*
X37461939Y-21067089D01*
X37455791Y-21081297D01*
X37414623Y-21222997D01*
X37412689Y-21233584D01*
X37415217Y-21246293D01*
X37428359Y-21250000D01*
X38316000Y-21250000D01*
X38378000Y-21266613D01*
X38423387Y-21312000D01*
X38440000Y-21374000D01*
X38440000Y-21626000D01*
X38423387Y-21688000D01*
X38378000Y-21733387D01*
X38316000Y-21750000D01*
X37428363Y-21750000D01*
X37415218Y-21753706D01*
X37412690Y-21766414D01*
X37414624Y-21777005D01*
X37455791Y-21918702D01*
X37461939Y-21932909D01*
X37535429Y-22057174D01*
X37552693Y-22119321D01*
X37536407Y-22181732D01*
X37490978Y-22227519D01*
X37428697Y-22244295D01*
X37298111Y-22244295D01*
X37293742Y-22244923D01*
X37293730Y-22244924D01*
X37216369Y-22256047D01*
X37216361Y-22256048D01*
X37211984Y-22256678D01*
X37207741Y-22257923D01*
X37207731Y-22257926D01*
X37078282Y-22295936D01*
X37078279Y-22295937D01*
X37074029Y-22297185D01*
X37070006Y-22299021D01*
X37069993Y-22299027D01*
X36998914Y-22331488D01*
X36998905Y-22331492D01*
X36994880Y-22333331D01*
X36991165Y-22335718D01*
X36991153Y-22335725D01*
X36877645Y-22408672D01*
X36877635Y-22408678D01*
X36873926Y-22411063D01*
X36870591Y-22413952D01*
X36870584Y-22413958D01*
X36811514Y-22465142D01*
X36811504Y-22465151D01*
X36808164Y-22468046D01*
X36805269Y-22471386D01*
X36805257Y-22471399D01*
X36716916Y-22573352D01*
X36716909Y-22573361D01*
X36714010Y-22576707D01*
X36711615Y-22580433D01*
X36711614Y-22580435D01*
X36696246Y-22604348D01*
X36646988Y-22648414D01*
X36582090Y-22660916D01*
X36519987Y-22638303D01*
X36478323Y-22586998D01*
X36472132Y-22572844D01*
X36460075Y-22570000D01*
X34879925Y-22570000D01*
X34868945Y-22572590D01*
X34869521Y-22583860D01*
X34902073Y-22695905D01*
X34904979Y-22752778D01*
X34882158Y-22804952D01*
X34838422Y-22841424D01*
X34782997Y-22854500D01*
X34703413Y-22854500D01*
X34664654Y-22848287D01*
X34629783Y-22830272D01*
X34557882Y-22777207D01*
X34549116Y-22774139D01*
X34549113Y-22774138D01*
X34436817Y-22734844D01*
X34436811Y-22734842D01*
X34429699Y-22732354D01*
X34422191Y-22731649D01*
X34422187Y-22731649D01*
X34402149Y-22729770D01*
X34402141Y-22729769D01*
X34399266Y-22729500D01*
X32640734Y-22729500D01*
X32637859Y-22729769D01*
X32637850Y-22729770D01*
X32617812Y-22731649D01*
X32617807Y-22731650D01*
X32610301Y-22732354D01*
X32603189Y-22734842D01*
X32603182Y-22734844D01*
X32490886Y-22774138D01*
X32490880Y-22774140D01*
X32482118Y-22777207D01*
X32474646Y-22782720D01*
X32474641Y-22782724D01*
X32380327Y-22852331D01*
X32380324Y-22852333D01*
X32372850Y-22857850D01*
X32367333Y-22865324D01*
X32367331Y-22865327D01*
X32297724Y-22959641D01*
X32297720Y-22959646D01*
X32292207Y-22967118D01*
X32289140Y-22975880D01*
X32289138Y-22975886D01*
X32249844Y-23088182D01*
X32249842Y-23088189D01*
X32247354Y-23095301D01*
X32246650Y-23102807D01*
X32246649Y-23102812D01*
X32245846Y-23111378D01*
X32244500Y-23125734D01*
X32244500Y-23534266D01*
X32244769Y-23537141D01*
X32244770Y-23537149D01*
X32246649Y-23557187D01*
X32246649Y-23557191D01*
X32247354Y-23564699D01*
X32249842Y-23571811D01*
X32249844Y-23571817D01*
X32289138Y-23684113D01*
X32289139Y-23684116D01*
X32292207Y-23692882D01*
X32297722Y-23700355D01*
X32297724Y-23700358D01*
X32360353Y-23785217D01*
X32372850Y-23802150D01*
X32451545Y-23860229D01*
X32458321Y-23865230D01*
X32495382Y-23909119D01*
X32508687Y-23965000D01*
X32495382Y-24020881D01*
X32458321Y-24064770D01*
X32382251Y-24120912D01*
X32372850Y-24127850D01*
X32367333Y-24135324D01*
X32367331Y-24135327D01*
X32297724Y-24229641D01*
X32297720Y-24229646D01*
X32292207Y-24237118D01*
X32289140Y-24245880D01*
X32289138Y-24245886D01*
X32249844Y-24358182D01*
X32249842Y-24358189D01*
X32247354Y-24365301D01*
X32246650Y-24372807D01*
X32246649Y-24372812D01*
X32244770Y-24392850D01*
X32244500Y-24395734D01*
X32244500Y-24804266D01*
X32244769Y-24807141D01*
X32244770Y-24807149D01*
X32246649Y-24827187D01*
X32246649Y-24827191D01*
X32247354Y-24834699D01*
X32249842Y-24841811D01*
X32249844Y-24841817D01*
X32289138Y-24954113D01*
X32289139Y-24954116D01*
X32292207Y-24962882D01*
X32297722Y-24970355D01*
X32297724Y-24970358D01*
X32312367Y-24990198D01*
X32372850Y-25072150D01*
X32452775Y-25131137D01*
X32458321Y-25135230D01*
X32495382Y-25179119D01*
X32508687Y-25235000D01*
X32495382Y-25290881D01*
X32458321Y-25334770D01*
X32393649Y-25382500D01*
X32372850Y-25397850D01*
X32367333Y-25405324D01*
X32367331Y-25405327D01*
X32297724Y-25499641D01*
X32297720Y-25499646D01*
X32292207Y-25507118D01*
X32289140Y-25515880D01*
X32289138Y-25515886D01*
X32249844Y-25628182D01*
X32249842Y-25628189D01*
X32247354Y-25635301D01*
X32246650Y-25642807D01*
X32246649Y-25642812D01*
X32244779Y-25662756D01*
X32244500Y-25665734D01*
X32244500Y-26074266D01*
X32244769Y-26077141D01*
X32244770Y-26077149D01*
X32246649Y-26097187D01*
X32246649Y-26097191D01*
X32247354Y-26104699D01*
X32249842Y-26111811D01*
X32249844Y-26111817D01*
X32289138Y-26224113D01*
X32289139Y-26224116D01*
X32292207Y-26232882D01*
X32297722Y-26240355D01*
X32297724Y-26240358D01*
X32325099Y-26277450D01*
X32372850Y-26342150D01*
X32457405Y-26404554D01*
X32458321Y-26405230D01*
X32495382Y-26449119D01*
X32508687Y-26505000D01*
X32495382Y-26560881D01*
X32458321Y-26604770D01*
X32390473Y-26654844D01*
X32372850Y-26667850D01*
X32367333Y-26675324D01*
X32367331Y-26675327D01*
X32297724Y-26769641D01*
X32297720Y-26769646D01*
X32292207Y-26777118D01*
X32289140Y-26785880D01*
X32289138Y-26785886D01*
X32249844Y-26898182D01*
X32249842Y-26898189D01*
X32247354Y-26905301D01*
X32246650Y-26912807D01*
X32246649Y-26912812D01*
X32244770Y-26932850D01*
X32244500Y-26935734D01*
X32244500Y-27344266D01*
X30895500Y-27344266D01*
X30895500Y-25366512D01*
X30895500Y-25332607D01*
X30888039Y-25309646D01*
X30883495Y-25290719D01*
X30881245Y-25276511D01*
X30879719Y-25266874D01*
X30868754Y-25245356D01*
X30861310Y-25227383D01*
X30853849Y-25204419D01*
X30839657Y-25184886D01*
X30829489Y-25168293D01*
X30822959Y-25155477D01*
X30818528Y-25146780D01*
X30723220Y-25051472D01*
X29947194Y-24275446D01*
X29923220Y-24251472D01*
X29901700Y-24240507D01*
X29885113Y-24230342D01*
X29881047Y-24227388D01*
X29865581Y-24216151D01*
X29856299Y-24213135D01*
X29856297Y-24213134D01*
X29842615Y-24208689D01*
X29824643Y-24201244D01*
X29803126Y-24190281D01*
X29793483Y-24188753D01*
X29790028Y-24187631D01*
X29755838Y-24170290D01*
X29728579Y-24143335D01*
X29722671Y-24135330D01*
X29722668Y-24135327D01*
X29717150Y-24127850D01*
X29709672Y-24122331D01*
X29709669Y-24122328D01*
X29631679Y-24064770D01*
X29594618Y-24020881D01*
X29581312Y-23965000D01*
X29594618Y-23909119D01*
X29631679Y-23865230D01*
X29638455Y-23860229D01*
X29717150Y-23802150D01*
X29797793Y-23692882D01*
X29842646Y-23564699D01*
X29845500Y-23534266D01*
X29845500Y-23125734D01*
X29842646Y-23095301D01*
X29797793Y-22967118D01*
X29784576Y-22949210D01*
X29748695Y-22900592D01*
X29717150Y-22857850D01*
X29701491Y-22846293D01*
X29615358Y-22782724D01*
X29615355Y-22782722D01*
X29607882Y-22777207D01*
X29599116Y-22774139D01*
X29599113Y-22774138D01*
X29486817Y-22734844D01*
X29486811Y-22734842D01*
X29479699Y-22732354D01*
X29472191Y-22731649D01*
X29472187Y-22731649D01*
X29452149Y-22729770D01*
X29452141Y-22729769D01*
X29449266Y-22729500D01*
X27690734Y-22729500D01*
X27687859Y-22729769D01*
X27687850Y-22729770D01*
X27667812Y-22731649D01*
X27667807Y-22731650D01*
X27660301Y-22732354D01*
X27653189Y-22734842D01*
X27653182Y-22734844D01*
X27540886Y-22774138D01*
X27540880Y-22774140D01*
X27532118Y-22777207D01*
X27524646Y-22782720D01*
X27524641Y-22782724D01*
X27430327Y-22852331D01*
X27430324Y-22852333D01*
X27422850Y-22857850D01*
X27373929Y-22924135D01*
X27330042Y-22961195D01*
X27274161Y-22974500D01*
X26937393Y-22974500D01*
X26802607Y-22974500D01*
X26793328Y-22977514D01*
X26793327Y-22977515D01*
X26779636Y-22981963D01*
X26760726Y-22986503D01*
X26748909Y-22988374D01*
X26736874Y-22990281D01*
X26728183Y-22994708D01*
X26728180Y-22994710D01*
X26715357Y-23001244D01*
X26697388Y-23008687D01*
X26683699Y-23013135D01*
X26683695Y-23013136D01*
X26674419Y-23016151D01*
X26666524Y-23021886D01*
X26666525Y-23021886D01*
X26654881Y-23030345D01*
X26638302Y-23040505D01*
X26625474Y-23047041D01*
X26625470Y-23047043D01*
X26616780Y-23051472D01*
X26609881Y-23058370D01*
X26609878Y-23058373D01*
X26605071Y-23063181D01*
X26564843Y-23090061D01*
X26517390Y-23099500D01*
X26384944Y-23099500D01*
X26377668Y-23101293D01*
X26377662Y-23101294D01*
X26227055Y-23138415D01*
X26227050Y-23138416D01*
X26219775Y-23140210D01*
X26213140Y-23143692D01*
X26213133Y-23143695D01*
X26075791Y-23215779D01*
X26075788Y-23215780D01*
X26069148Y-23219266D01*
X26063537Y-23224236D01*
X26063531Y-23224241D01*
X25953871Y-23321392D01*
X25941817Y-23332071D01*
X25937562Y-23338235D01*
X25937557Y-23338241D01*
X25849445Y-23465893D01*
X25849442Y-23465897D01*
X25845182Y-23472070D01*
X25842523Y-23479081D01*
X25842520Y-23479087D01*
X25787520Y-23624111D01*
X25787517Y-23624119D01*
X25784860Y-23631128D01*
X25783956Y-23638570D01*
X25783955Y-23638576D01*
X25771042Y-23744925D01*
X25764355Y-23800000D01*
X25765259Y-23807445D01*
X25783955Y-23961423D01*
X25783956Y-23961427D01*
X25784860Y-23968872D01*
X25787518Y-23975882D01*
X25787520Y-23975888D01*
X25842520Y-24120912D01*
X25845182Y-24127930D01*
X25849444Y-24134105D01*
X25849445Y-24134106D01*
X25935087Y-24258180D01*
X25941817Y-24267929D01*
X26025837Y-24342364D01*
X26053094Y-24366512D01*
X26069148Y-24380734D01*
X26219775Y-24459790D01*
X26384944Y-24500500D01*
X26547556Y-24500500D01*
X26555056Y-24500500D01*
X26720225Y-24459790D01*
X26870852Y-24380734D01*
X26998183Y-24267929D01*
X27094818Y-24127930D01*
X27155140Y-23968872D01*
X27159307Y-23934553D01*
X27180353Y-23879060D01*
X27224777Y-23839703D01*
X27282403Y-23825500D01*
X27413686Y-23825500D01*
X27452446Y-23831713D01*
X27487318Y-23849729D01*
X27501545Y-23860229D01*
X27508322Y-23865231D01*
X27545382Y-23909120D01*
X27558687Y-23965001D01*
X27545381Y-24020882D01*
X27508321Y-24064770D01*
X27432251Y-24120912D01*
X27422850Y-24127850D01*
X27417333Y-24135324D01*
X27417331Y-24135327D01*
X27347724Y-24229641D01*
X27347720Y-24229646D01*
X27342207Y-24237118D01*
X27339140Y-24245880D01*
X27339138Y-24245886D01*
X27299844Y-24358182D01*
X27299842Y-24358189D01*
X27297354Y-24365301D01*
X27296650Y-24372807D01*
X27296649Y-24372812D01*
X27294770Y-24392850D01*
X27294500Y-24395734D01*
X27294500Y-24804266D01*
X27294769Y-24807141D01*
X27294770Y-24807149D01*
X27296649Y-24827187D01*
X27296649Y-24827191D01*
X27297354Y-24834699D01*
X27299842Y-24841811D01*
X27299844Y-24841817D01*
X27339138Y-24954113D01*
X27339139Y-24954116D01*
X27342207Y-24962882D01*
X27347722Y-24970355D01*
X27347724Y-24970358D01*
X27362367Y-24990198D01*
X27422850Y-25072150D01*
X27502775Y-25131137D01*
X27508321Y-25135230D01*
X27545382Y-25179119D01*
X27558687Y-25235000D01*
X27545382Y-25290881D01*
X27508321Y-25334770D01*
X27443649Y-25382500D01*
X27422850Y-25397850D01*
X27417331Y-25405327D01*
X27414478Y-25408181D01*
X27374250Y-25435061D01*
X27326797Y-25444500D01*
X25684500Y-25444500D01*
X25622500Y-25427887D01*
X25577113Y-25382500D01*
X25560500Y-25320500D01*
X25560499Y-24258714D01*
X25560499Y-24255136D01*
X25557585Y-24230009D01*
X25512206Y-24127235D01*
X25432765Y-24047794D01*
X25408799Y-24037212D01*
X25338522Y-24006181D01*
X25338517Y-24006179D01*
X25329991Y-24002415D01*
X25320726Y-24001340D01*
X25308414Y-23999911D01*
X25308401Y-23999910D01*
X25304865Y-23999500D01*
X25301290Y-23999500D01*
X24218714Y-23999500D01*
X24218696Y-23999500D01*
X24215136Y-23999501D01*
X24211589Y-23999912D01*
X24211577Y-23999913D01*
X24199277Y-24001340D01*
X24199275Y-24001340D01*
X24190009Y-24002415D01*
X24181477Y-24006181D01*
X24181470Y-24006184D01*
X24089586Y-24046755D01*
X24029485Y-24056916D01*
X23971805Y-24037212D01*
X23930481Y-23992405D01*
X23915500Y-23933321D01*
X23915500Y-23254909D01*
X23933894Y-23189922D01*
X23983619Y-23144214D01*
X24049922Y-23131348D01*
X24113134Y-23155139D01*
X24139206Y-23174381D01*
X24263121Y-23217741D01*
X24292543Y-23220500D01*
X24667456Y-23220499D01*
X24696879Y-23217741D01*
X24820794Y-23174381D01*
X24926423Y-23096423D01*
X25004381Y-22990794D01*
X25047741Y-22866879D01*
X25050500Y-22837457D01*
X25050499Y-22362544D01*
X25047741Y-22333121D01*
X25004381Y-22209206D01*
X24929729Y-22108057D01*
X24911713Y-22073183D01*
X24905500Y-22034424D01*
X24905500Y-18202367D01*
X24905500Y-18192607D01*
X24898039Y-18169646D01*
X24893495Y-18150719D01*
X24891245Y-18136511D01*
X24889719Y-18126874D01*
X24878754Y-18105356D01*
X24871310Y-18087383D01*
X24863849Y-18064419D01*
X24849653Y-18044880D01*
X24839491Y-18028296D01*
X24828528Y-18006780D01*
X24733220Y-17911472D01*
X18397194Y-11575446D01*
X18373220Y-11551472D01*
X18351700Y-11540507D01*
X18335113Y-11530342D01*
X18329545Y-11526297D01*
X18315581Y-11516151D01*
X18306299Y-11513135D01*
X18306297Y-11513134D01*
X18292615Y-11508689D01*
X18274643Y-11501244D01*
X18253126Y-11490281D01*
X18251134Y-11489965D01*
X18211526Y-11467097D01*
X18181219Y-11425383D01*
X18170499Y-11374948D01*
X18170499Y-11308714D01*
X18170499Y-11308710D01*
X18170499Y-11305136D01*
X18167585Y-11280009D01*
X18163815Y-11271470D01*
X18132296Y-11200085D01*
X18121730Y-11149998D01*
X18132296Y-11099913D01*
X18167585Y-11019991D01*
X18170500Y-10994865D01*
X18170499Y-9805136D01*
X18167585Y-9780009D01*
X18132295Y-9700086D01*
X18121730Y-9650000D01*
X18132296Y-9599913D01*
X18163817Y-9528525D01*
X18163817Y-9528524D01*
X18167585Y-9519991D01*
X18170500Y-9494865D01*
X18170499Y-8305136D01*
X18167585Y-8280009D01*
X18122206Y-8177235D01*
X18042765Y-8097794D01*
X17992453Y-8075579D01*
X17948522Y-8056181D01*
X17948517Y-8056179D01*
X17939991Y-8052415D01*
X17930726Y-8051340D01*
X17918414Y-8049911D01*
X17918401Y-8049910D01*
X17914865Y-8049500D01*
X17911290Y-8049500D01*
X17649500Y-8049500D01*
X17587500Y-8032887D01*
X17542113Y-7987500D01*
X17525500Y-7925500D01*
X17525500Y-7918575D01*
X17526561Y-7902390D01*
X17529629Y-7879087D01*
X17536921Y-7823697D01*
X17536921Y-7811000D01*
X17553534Y-7749000D01*
X17598921Y-7703613D01*
X17660921Y-7687000D01*
X17977172Y-7687000D01*
X17980066Y-7687000D01*
X18009819Y-7684210D01*
X18032424Y-7676299D01*
X18100972Y-7672448D01*
X18161062Y-7705659D01*
X18206103Y-7750700D01*
X18218339Y-7760191D01*
X18344091Y-7834561D01*
X18358293Y-7840707D01*
X18483142Y-7876979D01*
X18494409Y-7877554D01*
X18497000Y-7866575D01*
X18997000Y-7866575D01*
X18999590Y-7877554D01*
X19010857Y-7876979D01*
X19135706Y-7840707D01*
X19149908Y-7834561D01*
X19275660Y-7760191D01*
X19287896Y-7750700D01*
X19391200Y-7647396D01*
X19400691Y-7635160D01*
X19475060Y-7509409D01*
X19481208Y-7495202D01*
X19522376Y-7353502D01*
X19524310Y-7342915D01*
X19521782Y-7330206D01*
X19508641Y-7326500D01*
X19013326Y-7326500D01*
X19000450Y-7329950D01*
X18997000Y-7342826D01*
X18997000Y-7866575D01*
X18497000Y-7866575D01*
X18497000Y-7200000D01*
X21994355Y-7200000D01*
X21995259Y-7207445D01*
X22013955Y-7361423D01*
X22013956Y-7361427D01*
X22014860Y-7368872D01*
X22017518Y-7375882D01*
X22017520Y-7375888D01*
X22069089Y-7511865D01*
X22075182Y-7527930D01*
X22079444Y-7534105D01*
X22079445Y-7534106D01*
X22152781Y-7640352D01*
X22171817Y-7667929D01*
X22299148Y-7780734D01*
X22449775Y-7859790D01*
X22614944Y-7900500D01*
X22777556Y-7900500D01*
X22785056Y-7900500D01*
X22950225Y-7859790D01*
X23100852Y-7780734D01*
X23228183Y-7667929D01*
X23324818Y-7527930D01*
X23385140Y-7368872D01*
X23405645Y-7200000D01*
X23398424Y-7140533D01*
X23404303Y-7085139D01*
X23433837Y-7037909D01*
X24084929Y-6386818D01*
X24125158Y-6359938D01*
X24172611Y-6350499D01*
X24561286Y-6350499D01*
X24564864Y-6350499D01*
X24589991Y-6347585D01*
X24692765Y-6302206D01*
X24772206Y-6222765D01*
X24817585Y-6119991D01*
X24820500Y-6094865D01*
X24820500Y-6094518D01*
X30320000Y-6094518D01*
X30320353Y-6101114D01*
X30325573Y-6149667D01*
X30329111Y-6164641D01*
X30373547Y-6283777D01*
X30381962Y-6299189D01*
X30457498Y-6400092D01*
X30469907Y-6412501D01*
X30570810Y-6488037D01*
X30586222Y-6496452D01*
X30705358Y-6540888D01*
X30720332Y-6544426D01*
X30768885Y-6549646D01*
X30775482Y-6550000D01*
X31303674Y-6550000D01*
X31316549Y-6546549D01*
X31320000Y-6533674D01*
X31820000Y-6533674D01*
X31823450Y-6546549D01*
X31836326Y-6550000D01*
X32364518Y-6550000D01*
X32371114Y-6549646D01*
X32419667Y-6544426D01*
X32434638Y-6540888D01*
X32560604Y-6493906D01*
X32629678Y-6488789D01*
X32690720Y-6521517D01*
X32724687Y-6581879D01*
X32720980Y-6651041D01*
X32692259Y-6733121D01*
X32691554Y-6740637D01*
X32691554Y-6740638D01*
X32689770Y-6759657D01*
X32689769Y-6759670D01*
X32689500Y-6762543D01*
X32689500Y-6765435D01*
X32689500Y-6765436D01*
X32689500Y-7234553D01*
X32689500Y-7234574D01*
X32689501Y-7237456D01*
X32689770Y-7240329D01*
X32689771Y-7240343D01*
X32691554Y-7259362D01*
X32692259Y-7266879D01*
X32694752Y-7274005D01*
X32694753Y-7274007D01*
X32727618Y-7367929D01*
X32735619Y-7390794D01*
X32801998Y-7480734D01*
X32810270Y-7491942D01*
X32828287Y-7526817D01*
X32834500Y-7565576D01*
X32834500Y-11272607D01*
X32834500Y-11407393D01*
X32837512Y-11416664D01*
X32837514Y-11416673D01*
X32841962Y-11430360D01*
X32846504Y-11449279D01*
X32847462Y-11455331D01*
X32850281Y-11473126D01*
X32860345Y-11492878D01*
X32861243Y-11494639D01*
X32868689Y-11512615D01*
X32871626Y-11521656D01*
X32876151Y-11535581D01*
X32881889Y-11543478D01*
X32890342Y-11555113D01*
X32900507Y-11571700D01*
X32911472Y-11593220D01*
X32918372Y-11600120D01*
X32935446Y-11617194D01*
X33471469Y-12153216D01*
X33471472Y-12153220D01*
X33566780Y-12248528D01*
X33588298Y-12259492D01*
X33604882Y-12269655D01*
X33624420Y-12283850D01*
X33647390Y-12291313D01*
X33665353Y-12298753D01*
X33686874Y-12309719D01*
X33688863Y-12310034D01*
X33728473Y-12332902D01*
X33758781Y-12374616D01*
X33769501Y-12425052D01*
X33769501Y-12494864D01*
X33769912Y-12498411D01*
X33769913Y-12498422D01*
X33770668Y-12504930D01*
X33772415Y-12519991D01*
X33776182Y-12528523D01*
X33776184Y-12528529D01*
X33807703Y-12599913D01*
X33818269Y-12649998D01*
X33807704Y-12700084D01*
X33776182Y-12771474D01*
X33776179Y-12771483D01*
X33772415Y-12780009D01*
X33771340Y-12789271D01*
X33771340Y-12789273D01*
X33769911Y-12801585D01*
X33769910Y-12801599D01*
X33769500Y-12805135D01*
X33769500Y-12808709D01*
X33769500Y-12808710D01*
X33769500Y-13994081D01*
X33756987Y-14048364D01*
X33721973Y-14091692D01*
X33671526Y-14115319D01*
X33615825Y-14114478D01*
X33562337Y-14101294D01*
X33562332Y-14101293D01*
X33555056Y-14099500D01*
X33384944Y-14099500D01*
X33377668Y-14101293D01*
X33377662Y-14101294D01*
X33227055Y-14138415D01*
X33227050Y-14138416D01*
X33219775Y-14140210D01*
X33213140Y-14143692D01*
X33213133Y-14143695D01*
X33075791Y-14215779D01*
X33075788Y-14215780D01*
X33069148Y-14219266D01*
X33063537Y-14224236D01*
X33063531Y-14224241D01*
X32947430Y-14327098D01*
X32941817Y-14332071D01*
X32937562Y-14338235D01*
X32937557Y-14338241D01*
X32849445Y-14465893D01*
X32849442Y-14465897D01*
X32845182Y-14472070D01*
X32842523Y-14479081D01*
X32842520Y-14479087D01*
X32787520Y-14624111D01*
X32787517Y-14624119D01*
X32784860Y-14631128D01*
X32783956Y-14638570D01*
X32783955Y-14638576D01*
X32772957Y-14729158D01*
X32764355Y-14800000D01*
X32765259Y-14807445D01*
X32783955Y-14961423D01*
X32783956Y-14961427D01*
X32784860Y-14968872D01*
X32787518Y-14975882D01*
X32787520Y-14975888D01*
X32842520Y-15120912D01*
X32845182Y-15127930D01*
X32849444Y-15134105D01*
X32849445Y-15134106D01*
X32930254Y-15251178D01*
X32941817Y-15267929D01*
X33003291Y-15322390D01*
X33056854Y-15369843D01*
X33069148Y-15380734D01*
X33219775Y-15459790D01*
X33384944Y-15500500D01*
X33547556Y-15500500D01*
X33555056Y-15500500D01*
X33642257Y-15479006D01*
X33699460Y-15478499D01*
X33750807Y-15503726D01*
X33785364Y-15549318D01*
X33807704Y-15599914D01*
X33818269Y-15650000D01*
X33807703Y-15700086D01*
X33785363Y-15750681D01*
X33750806Y-15796273D01*
X33699460Y-15821500D01*
X33642254Y-15820992D01*
X33562337Y-15801294D01*
X33562332Y-15801293D01*
X33555056Y-15799500D01*
X33384944Y-15799500D01*
X33377668Y-15801293D01*
X33377662Y-15801294D01*
X33227055Y-15838415D01*
X33227050Y-15838416D01*
X33219775Y-15840210D01*
X33213140Y-15843692D01*
X33213133Y-15843695D01*
X33075791Y-15915779D01*
X33075788Y-15915780D01*
X33069148Y-15919266D01*
X33063537Y-15924236D01*
X33063531Y-15924241D01*
X32953776Y-16021476D01*
X32941817Y-16032071D01*
X32937562Y-16038235D01*
X32937557Y-16038241D01*
X32849445Y-16165893D01*
X32849442Y-16165897D01*
X32845182Y-16172070D01*
X32842523Y-16179081D01*
X32842520Y-16179087D01*
X32787520Y-16324111D01*
X32787517Y-16324119D01*
X32784860Y-16331128D01*
X32783956Y-16338570D01*
X32783955Y-16338576D01*
X32765356Y-16491755D01*
X32764355Y-16500000D01*
X32765259Y-16507445D01*
X32783955Y-16661423D01*
X32783956Y-16661427D01*
X32784860Y-16668872D01*
X32787518Y-16675882D01*
X32787520Y-16675888D01*
X32842520Y-16820912D01*
X32845182Y-16827930D01*
X32849444Y-16834105D01*
X32849445Y-16834106D01*
X32920972Y-16937731D01*
X32941817Y-16967929D01*
X33069148Y-17080734D01*
X33219775Y-17159790D01*
X33384944Y-17200500D01*
X33547556Y-17200500D01*
X33555056Y-17200500D01*
X33615825Y-17185521D01*
X33671524Y-17184680D01*
X33721973Y-17208307D01*
X33756987Y-17251634D01*
X33769500Y-17305918D01*
X33769500Y-18491285D01*
X33769500Y-18491302D01*
X33769501Y-18494864D01*
X33769912Y-18498411D01*
X33769913Y-18498422D01*
X33771340Y-18510722D01*
X33772415Y-18519991D01*
X33776181Y-18528521D01*
X33776182Y-18528523D01*
X33807704Y-18599914D01*
X33818269Y-18650000D01*
X33807704Y-18700086D01*
X33776181Y-18771477D01*
X33776179Y-18771484D01*
X33772415Y-18780009D01*
X33771340Y-18789271D01*
X33771340Y-18789273D01*
X33769911Y-18801585D01*
X33769910Y-18801599D01*
X33769500Y-18805135D01*
X33769500Y-18808708D01*
X33769500Y-18808709D01*
X33769500Y-19991285D01*
X33769500Y-19991302D01*
X33769501Y-19994864D01*
X33769912Y-19998411D01*
X33769913Y-19998422D01*
X33771340Y-20010722D01*
X33772415Y-20019991D01*
X33776181Y-20028521D01*
X33776182Y-20028523D01*
X33807704Y-20099914D01*
X33818269Y-20150000D01*
X33807704Y-20200086D01*
X33776181Y-20271477D01*
X33776179Y-20271484D01*
X33772415Y-20280009D01*
X33771340Y-20289271D01*
X33771340Y-20289273D01*
X33769911Y-20301585D01*
X33769910Y-20301599D01*
X33769500Y-20305135D01*
X33769500Y-20308708D01*
X33769500Y-20308709D01*
X33769500Y-21491285D01*
X33769500Y-21491302D01*
X33769501Y-21494864D01*
X33769912Y-21498411D01*
X33769913Y-21498422D01*
X33771340Y-21510722D01*
X33772415Y-21519991D01*
X33817794Y-21622765D01*
X33897235Y-21702206D01*
X33962312Y-21730940D01*
X33991477Y-21743818D01*
X33991478Y-21743818D01*
X34000009Y-21747585D01*
X34025135Y-21750500D01*
X34795259Y-21750499D01*
X34854138Y-21765371D01*
X34898896Y-21806419D01*
X34918794Y-21863797D01*
X34909060Y-21923742D01*
X34905792Y-21931293D01*
X34869520Y-22056142D01*
X34868945Y-22067409D01*
X34879925Y-22070000D01*
X36460075Y-22070000D01*
X36471054Y-22067409D01*
X36470479Y-22056142D01*
X36434207Y-21931293D01*
X36428061Y-21917091D01*
X36353691Y-21791339D01*
X36344200Y-21779103D01*
X36240893Y-21675796D01*
X36228660Y-21666307D01*
X36221848Y-21662278D01*
X36182811Y-21625826D01*
X36162727Y-21576337D01*
X36165206Y-21525377D01*
X36167585Y-21519991D01*
X36170500Y-21494865D01*
X36170499Y-20305136D01*
X36167585Y-20280009D01*
X36132295Y-20200086D01*
X36121730Y-20150000D01*
X36132296Y-20099913D01*
X36163817Y-20028525D01*
X36163818Y-20028523D01*
X36167585Y-20019991D01*
X36170500Y-19994865D01*
X36170499Y-18805136D01*
X36167585Y-18780009D01*
X36132295Y-18700086D01*
X36121730Y-18650000D01*
X36132296Y-18599913D01*
X36163817Y-18528525D01*
X36163818Y-18528523D01*
X36167585Y-18519991D01*
X36170500Y-18494865D01*
X36170499Y-17305136D01*
X36167585Y-17280009D01*
X36163815Y-17271470D01*
X36132296Y-17200085D01*
X36121730Y-17149998D01*
X36132296Y-17099913D01*
X36167585Y-17019991D01*
X36170500Y-16994865D01*
X36170499Y-15805136D01*
X36167585Y-15780009D01*
X36132295Y-15700086D01*
X36121730Y-15650000D01*
X36132296Y-15599913D01*
X36132297Y-15599912D01*
X36167585Y-15519991D01*
X36170500Y-15494865D01*
X36170499Y-14305136D01*
X36167585Y-14280009D01*
X36132295Y-14200086D01*
X36121730Y-14150000D01*
X36132296Y-14099913D01*
X36163817Y-14028525D01*
X36163817Y-14028524D01*
X36167585Y-14019991D01*
X36170500Y-13994865D01*
X36170499Y-13652612D01*
X36754361Y-13652612D01*
X36755054Y-13663896D01*
X36789883Y-13778712D01*
X36794520Y-13789905D01*
X36881633Y-13952882D01*
X36888374Y-13962970D01*
X37005609Y-14105821D01*
X37014178Y-14114390D01*
X37157029Y-14231625D01*
X37167117Y-14238366D01*
X37330094Y-14325479D01*
X37341287Y-14330116D01*
X37456103Y-14364945D01*
X37467387Y-14365638D01*
X37470000Y-14354637D01*
X37470000Y-13666326D01*
X37466549Y-13653450D01*
X37453674Y-13650000D01*
X36765363Y-13650000D01*
X36754361Y-13652612D01*
X36170499Y-13652612D01*
X36170499Y-13652608D01*
X36179938Y-13605156D01*
X36206815Y-13564931D01*
X36594554Y-13177194D01*
X36594553Y-13177194D01*
X36602663Y-13169084D01*
X36654829Y-13137961D01*
X36715522Y-13135351D01*
X36726864Y-13140857D01*
X36765363Y-13150000D01*
X37453674Y-13150000D01*
X37466549Y-13146549D01*
X37470000Y-13133674D01*
X37470000Y-12445363D01*
X37467387Y-12434361D01*
X37456103Y-12435054D01*
X37341287Y-12469883D01*
X37330094Y-12474520D01*
X37167117Y-12561633D01*
X37157029Y-12568374D01*
X37014178Y-12685609D01*
X37005609Y-12694178D01*
X36915353Y-12804155D01*
X36866952Y-12840051D01*
X36807345Y-12848893D01*
X36750609Y-12828592D01*
X36710142Y-12783943D01*
X36695500Y-12725490D01*
X36695500Y-11511224D01*
X36709893Y-11453238D01*
X36749732Y-11408713D01*
X36805767Y-11387987D01*
X36864989Y-11395869D01*
X36914410Y-11415359D01*
X36998856Y-11425500D01*
X37577444Y-11425500D01*
X37581144Y-11425500D01*
X37665590Y-11415359D01*
X37799975Y-11362364D01*
X37800527Y-11363766D01*
X37851188Y-11350500D01*
X38315500Y-11350500D01*
X38377500Y-11367113D01*
X38422887Y-11412500D01*
X38439500Y-11474500D01*
X38439500Y-12443811D01*
X38423391Y-12504930D01*
X38379249Y-12550169D01*
X38318543Y-12567774D01*
X38257047Y-12553169D01*
X38109905Y-12474520D01*
X38098712Y-12469883D01*
X37983896Y-12435054D01*
X37972612Y-12434361D01*
X37970000Y-12445363D01*
X37970000Y-14354637D01*
X37972612Y-14365638D01*
X37983896Y-14364945D01*
X38098712Y-14330116D01*
X38109905Y-14325479D01*
X38272885Y-14238364D01*
X38282972Y-14231625D01*
X38300095Y-14217573D01*
X38352817Y-14192169D01*
X38411319Y-14193774D01*
X38411472Y-14193815D01*
X38420009Y-14197585D01*
X38445135Y-14200500D01*
X38960613Y-14200499D01*
X39008066Y-14209938D01*
X39048294Y-14236818D01*
X39292579Y-14481103D01*
X39295521Y-14484147D01*
X39333529Y-14524844D01*
X39333531Y-14524845D01*
X39339320Y-14531044D01*
X39374120Y-14552206D01*
X39374419Y-14552388D01*
X39384917Y-14559533D01*
X39417657Y-14584361D01*
X39434351Y-14590944D01*
X39453291Y-14600351D01*
X39468618Y-14609672D01*
X39491967Y-14616214D01*
X39508177Y-14620756D01*
X39520214Y-14624804D01*
X39550542Y-14636764D01*
X39550545Y-14636764D01*
X39558435Y-14639876D01*
X39576284Y-14641710D01*
X39597056Y-14645658D01*
X39614335Y-14650500D01*
X39655425Y-14650500D01*
X39668104Y-14651149D01*
X39708971Y-14655351D01*
X39726650Y-14652302D01*
X39747718Y-14650500D01*
X40620737Y-14650500D01*
X40675928Y-14663460D01*
X40706956Y-14689168D01*
X40708801Y-14687324D01*
X40714798Y-14693321D01*
X40719922Y-14700078D01*
X40835025Y-14787364D01*
X40969410Y-14840359D01*
X41053856Y-14850500D01*
X41882444Y-14850500D01*
X41886144Y-14850500D01*
X41970590Y-14840359D01*
X42104975Y-14787364D01*
X42165573Y-14741410D01*
X42228872Y-14716760D01*
X42295660Y-14729158D01*
X42345894Y-14774883D01*
X42364500Y-14840214D01*
X42364500Y-15276000D01*
X42365028Y-15280017D01*
X42365029Y-15280019D01*
X42374379Y-15351043D01*
X42374381Y-15351055D01*
X42374910Y-15355070D01*
X42375958Y-15358984D01*
X42375960Y-15358990D01*
X42390066Y-15411631D01*
X42391523Y-15417070D01*
X42422042Y-15490750D01*
X42426988Y-15497196D01*
X42426990Y-15497199D01*
X42456818Y-15536071D01*
X42470592Y-15554021D01*
X42515979Y-15599408D01*
X42579250Y-15647958D01*
X42652930Y-15678477D01*
X42714930Y-15695090D01*
X42794000Y-15705500D01*
X45341947Y-15705500D01*
X45346000Y-15705500D01*
X45425070Y-15695090D01*
X45487070Y-15678477D01*
X45560750Y-15647958D01*
X45624021Y-15599408D01*
X45669408Y-15554021D01*
X45717958Y-15490750D01*
X45748477Y-15417070D01*
X45765090Y-15355070D01*
X45775500Y-15276000D01*
X45775500Y-10424000D01*
X45765090Y-10344930D01*
X45748477Y-10282930D01*
X45717958Y-10209250D01*
X45712617Y-10202290D01*
X45671887Y-10149210D01*
X45669408Y-10145979D01*
X45624021Y-10100592D01*
X45595167Y-10078451D01*
X45567199Y-10056990D01*
X45567196Y-10056988D01*
X45560750Y-10052042D01*
X45512364Y-10032000D01*
X45490825Y-10023078D01*
X45490820Y-10023076D01*
X45487070Y-10021523D01*
X45470041Y-10016960D01*
X45428990Y-10005960D01*
X45428984Y-10005958D01*
X45425070Y-10004910D01*
X45421055Y-10004381D01*
X45421043Y-10004379D01*
X45350019Y-9995029D01*
X45350017Y-9995028D01*
X45346000Y-9994500D01*
X44222837Y-9994500D01*
X44219286Y-9994913D01*
X44219272Y-9994914D01*
X44156256Y-10002247D01*
X44156242Y-10002249D01*
X44152688Y-10002663D01*
X44149207Y-10003484D01*
X44149191Y-10003487D01*
X44100755Y-10014915D01*
X44100752Y-10014915D01*
X44097263Y-10015739D01*
X44093907Y-10016954D01*
X44093889Y-10016960D01*
X44037621Y-10037343D01*
X44037618Y-10037344D01*
X44030861Y-10039792D01*
X44024850Y-10043723D01*
X44024841Y-10043728D01*
X44015601Y-10049773D01*
X43983138Y-10064836D01*
X43947725Y-10070000D01*
X42529925Y-10070000D01*
X42518945Y-10072590D01*
X42520257Y-10098268D01*
X42516910Y-10098438D01*
X42517469Y-10139644D01*
X42484450Y-10196704D01*
X42426853Y-10228777D01*
X42393257Y-10236964D01*
X42380785Y-10239335D01*
X42366311Y-10241324D01*
X42340080Y-10244929D01*
X42339851Y-10243260D01*
X42310681Y-10245562D01*
X42310649Y-10246119D01*
X42307064Y-10245911D01*
X42303515Y-10245500D01*
X42299940Y-10245500D01*
X41868310Y-10245500D01*
X41820857Y-10236061D01*
X41780629Y-10209181D01*
X41237626Y-9666178D01*
X41207376Y-9616815D01*
X41202834Y-9559099D01*
X41224989Y-9505612D01*
X41269012Y-9468012D01*
X41325303Y-9454497D01*
X42303514Y-9454497D01*
X42328641Y-9451583D01*
X42345188Y-9444276D01*
X42406863Y-9434251D01*
X42465598Y-9455576D01*
X42506476Y-9502837D01*
X42519117Y-9564032D01*
X42518944Y-9567409D01*
X42529925Y-9570000D01*
X43053674Y-9570000D01*
X43066549Y-9566549D01*
X43070000Y-9553674D01*
X43570000Y-9553674D01*
X43573450Y-9566549D01*
X43586326Y-9570000D01*
X44110075Y-9570000D01*
X44121054Y-9567409D01*
X44120479Y-9556142D01*
X44084207Y-9431293D01*
X44078061Y-9417091D01*
X44003691Y-9291339D01*
X43994200Y-9279103D01*
X43890896Y-9175799D01*
X43878660Y-9166308D01*
X43752909Y-9091939D01*
X43738702Y-9085791D01*
X43597002Y-9044623D01*
X43586415Y-9042689D01*
X43573706Y-9045217D01*
X43570000Y-9058359D01*
X43570000Y-9553674D01*
X43070000Y-9553674D01*
X43070000Y-9058363D01*
X43066293Y-9045218D01*
X43053585Y-9042690D01*
X43042994Y-9044624D01*
X42901297Y-9085791D01*
X42887090Y-9091939D01*
X42761336Y-9166310D01*
X42759146Y-9168009D01*
X42757032Y-9168855D01*
X42754622Y-9170281D01*
X42754401Y-9169908D01*
X42695784Y-9193382D01*
X42628595Y-9181381D01*
X42577933Y-9135644D01*
X42559149Y-9070029D01*
X42559149Y-8763657D01*
X42568589Y-8716204D01*
X42595466Y-8675978D01*
X42614553Y-8656893D01*
X42614552Y-8656893D01*
X42638528Y-8632918D01*
X42649494Y-8611394D01*
X42659653Y-8594817D01*
X42673849Y-8575279D01*
X42681312Y-8552305D01*
X42688756Y-8534337D01*
X42699719Y-8512824D01*
X42703496Y-8488970D01*
X42708038Y-8470052D01*
X42715500Y-8447091D01*
X42715500Y-8312305D01*
X42715500Y-8071365D01*
X42728805Y-8015484D01*
X42765866Y-7971595D01*
X42767542Y-7970358D01*
X42786423Y-7956423D01*
X42864381Y-7850794D01*
X42907741Y-7726879D01*
X42910500Y-7697457D01*
X42910499Y-7322544D01*
X42907741Y-7293121D01*
X42880895Y-7216402D01*
X42877046Y-7147856D01*
X42910256Y-7087767D01*
X42975220Y-7022803D01*
X42984708Y-7010571D01*
X43058434Y-6885907D01*
X43064582Y-6871700D01*
X43098819Y-6753856D01*
X43099394Y-6742590D01*
X43088415Y-6740000D01*
X42164000Y-6740000D01*
X42102000Y-6723387D01*
X42056613Y-6678000D01*
X42040000Y-6616000D01*
X42040000Y-6223674D01*
X42540000Y-6223674D01*
X42543450Y-6236549D01*
X42556326Y-6240000D01*
X43088415Y-6240000D01*
X43099394Y-6237409D01*
X43098819Y-6226143D01*
X43064582Y-6108299D01*
X43058434Y-6094092D01*
X42984708Y-5969428D01*
X42975217Y-5957192D01*
X42872807Y-5854782D01*
X42860571Y-5845291D01*
X42735907Y-5771565D01*
X42721700Y-5765417D01*
X42581212Y-5724601D01*
X42568808Y-5722335D01*
X42557098Y-5721414D01*
X42543706Y-5724078D01*
X42540000Y-5737221D01*
X42540000Y-6223674D01*
X42040000Y-6223674D01*
X42040000Y-5737221D01*
X42036293Y-5724078D01*
X42022901Y-5721414D01*
X42011191Y-5722335D01*
X41998787Y-5724601D01*
X41858299Y-5765417D01*
X41844092Y-5771565D01*
X41719429Y-5845290D01*
X41707183Y-5854789D01*
X41704054Y-5857918D01*
X41653886Y-5888420D01*
X41595309Y-5892423D01*
X41541458Y-5869031D01*
X41439889Y-5792009D01*
X41433132Y-5786885D01*
X41425246Y-5783775D01*
X41425244Y-5783774D01*
X41307739Y-5737436D01*
X41307736Y-5737435D01*
X41300346Y-5734521D01*
X41292457Y-5733573D01*
X41292451Y-5733572D01*
X41220579Y-5724941D01*
X41220569Y-5724940D01*
X41216902Y-5724500D01*
X41213202Y-5724500D01*
X40835110Y-5724500D01*
X40787657Y-5715061D01*
X40747429Y-5688181D01*
X39717620Y-4658372D01*
X39710720Y-4651472D01*
X39689200Y-4640507D01*
X39672613Y-4630342D01*
X39666957Y-4626233D01*
X39653081Y-4616151D01*
X39643799Y-4613135D01*
X39643797Y-4613134D01*
X39630115Y-4608689D01*
X39612143Y-4601244D01*
X39605417Y-4597817D01*
X39599319Y-4594710D01*
X39599316Y-4594709D01*
X39590626Y-4590281D01*
X39580987Y-4588754D01*
X39580986Y-4588754D01*
X39566779Y-4586504D01*
X39547860Y-4581962D01*
X39534173Y-4577514D01*
X39534164Y-4577512D01*
X39524893Y-4574500D01*
X39515137Y-4574500D01*
X38831365Y-4574500D01*
X38775484Y-4561195D01*
X38731595Y-4524134D01*
X38721939Y-4511051D01*
X38716423Y-4503577D01*
X38704999Y-4495146D01*
X38662833Y-4464026D01*
X38610794Y-4425619D01*
X38602021Y-4422549D01*
X38494005Y-4384752D01*
X38494001Y-4384751D01*
X38486879Y-4382259D01*
X38479361Y-4381554D01*
X38460342Y-4379770D01*
X38460330Y-4379769D01*
X38457457Y-4379500D01*
X38454563Y-4379500D01*
X38085446Y-4379500D01*
X38085424Y-4379500D01*
X38082544Y-4379501D01*
X38079671Y-4379770D01*
X38079656Y-4379771D01*
X38060637Y-4381554D01*
X38060633Y-4381554D01*
X38053121Y-4382259D01*
X38045996Y-4384752D01*
X38045992Y-4384753D01*
X37937978Y-4422549D01*
X37937975Y-4422550D01*
X37929206Y-4425619D01*
X37921730Y-4431135D01*
X37921725Y-4431139D01*
X37833633Y-4496154D01*
X37786083Y-4517610D01*
X37733917Y-4517610D01*
X37686367Y-4496154D01*
X37598274Y-4431139D01*
X37598271Y-4431137D01*
X37590794Y-4425619D01*
X37582021Y-4422549D01*
X37474005Y-4384752D01*
X37474001Y-4384751D01*
X37466879Y-4382259D01*
X37459361Y-4381554D01*
X37440342Y-4379770D01*
X37440330Y-4379769D01*
X37437457Y-4379500D01*
X37434563Y-4379500D01*
X37065446Y-4379500D01*
X37065424Y-4379500D01*
X37062544Y-4379501D01*
X37059671Y-4379770D01*
X37059656Y-4379771D01*
X37040637Y-4381554D01*
X37040633Y-4381554D01*
X37033121Y-4382259D01*
X37025996Y-4384752D01*
X37025992Y-4384753D01*
X36917978Y-4422549D01*
X36917975Y-4422550D01*
X36909206Y-4425619D01*
X36901733Y-4431134D01*
X36901726Y-4431138D01*
X36888631Y-4440803D01*
X36841082Y-4462257D01*
X36788918Y-4462257D01*
X36741369Y-4440803D01*
X36728273Y-4431138D01*
X36728269Y-4431136D01*
X36720794Y-4425619D01*
X36712021Y-4422549D01*
X36604005Y-4384752D01*
X36604001Y-4384751D01*
X36596879Y-4382259D01*
X36589361Y-4381554D01*
X36570342Y-4379770D01*
X36570330Y-4379769D01*
X36567457Y-4379500D01*
X36564563Y-4379500D01*
X36195446Y-4379500D01*
X36195424Y-4379500D01*
X36192544Y-4379501D01*
X36189671Y-4379770D01*
X36189656Y-4379771D01*
X36170637Y-4381554D01*
X36170633Y-4381554D01*
X36163121Y-4382259D01*
X36090078Y-4407818D01*
X36086403Y-4409104D01*
X36017856Y-4412953D01*
X35957768Y-4379743D01*
X35892807Y-4314782D01*
X35880571Y-4305291D01*
X35755907Y-4231565D01*
X35741700Y-4225417D01*
X35623856Y-4191180D01*
X35612590Y-4190605D01*
X35610000Y-4201585D01*
X35610000Y-5798415D01*
X35612590Y-5809394D01*
X35623853Y-5808819D01*
X35685906Y-5790792D01*
X35742778Y-5787887D01*
X35794952Y-5810708D01*
X35831424Y-5854444D01*
X35844500Y-5909869D01*
X35844500Y-6259603D01*
X35831657Y-6314559D01*
X35795788Y-6358131D01*
X35744324Y-6381293D01*
X35687924Y-6379248D01*
X35638273Y-6352418D01*
X35606468Y-6324241D01*
X35606466Y-6324239D01*
X35600852Y-6319266D01*
X35533234Y-6283777D01*
X35456866Y-6243695D01*
X35456862Y-6243693D01*
X35450225Y-6240210D01*
X35442947Y-6238416D01*
X35442944Y-6238415D01*
X35292337Y-6201294D01*
X35292332Y-6201293D01*
X35285056Y-6199500D01*
X35114944Y-6199500D01*
X35107668Y-6201293D01*
X35107662Y-6201294D01*
X34957055Y-6238415D01*
X34957050Y-6238416D01*
X34949775Y-6240210D01*
X34943140Y-6243692D01*
X34943133Y-6243695D01*
X34805791Y-6315779D01*
X34805788Y-6315780D01*
X34799148Y-6319266D01*
X34793537Y-6324236D01*
X34793531Y-6324241D01*
X34717070Y-6391979D01*
X34658772Y-6420832D01*
X34593890Y-6416205D01*
X34540746Y-6397609D01*
X34521325Y-6390813D01*
X34504001Y-6384751D01*
X34504000Y-6384750D01*
X34496879Y-6382259D01*
X34489361Y-6381554D01*
X34470342Y-6379770D01*
X34470330Y-6379769D01*
X34467457Y-6379500D01*
X34464563Y-6379500D01*
X34095446Y-6379500D01*
X34095424Y-6379500D01*
X34092544Y-6379501D01*
X34089671Y-6379770D01*
X34089656Y-6379771D01*
X34070637Y-6381554D01*
X34070633Y-6381554D01*
X34063121Y-6382259D01*
X34055996Y-6384752D01*
X34055992Y-6384753D01*
X33947978Y-6422549D01*
X33947975Y-6422550D01*
X33939206Y-6425619D01*
X33931730Y-6431135D01*
X33931725Y-6431139D01*
X33843633Y-6496154D01*
X33796083Y-6517610D01*
X33743917Y-6517610D01*
X33696367Y-6496154D01*
X33608274Y-6431139D01*
X33608271Y-6431137D01*
X33600794Y-6425619D01*
X33592021Y-6422549D01*
X33484005Y-6384752D01*
X33484001Y-6384751D01*
X33476879Y-6382259D01*
X33469361Y-6381554D01*
X33450342Y-6379770D01*
X33450330Y-6379769D01*
X33447457Y-6379500D01*
X33444563Y-6379500D01*
X33075446Y-6379500D01*
X33075424Y-6379500D01*
X33072544Y-6379501D01*
X33069671Y-6379770D01*
X33069656Y-6379771D01*
X33050637Y-6381554D01*
X33050633Y-6381554D01*
X33043121Y-6382259D01*
X33024700Y-6388705D01*
X32932196Y-6421073D01*
X32863032Y-6424780D01*
X32802670Y-6390813D01*
X32769943Y-6329770D01*
X32775061Y-6260697D01*
X32810887Y-6164645D01*
X32814426Y-6149667D01*
X32819646Y-6101114D01*
X32820000Y-6094518D01*
X32820000Y-5566326D01*
X32816549Y-5553450D01*
X32803674Y-5550000D01*
X31836326Y-5550000D01*
X31823450Y-5553450D01*
X31820000Y-5566326D01*
X31820000Y-6533674D01*
X31320000Y-6533674D01*
X31320000Y-5566326D01*
X31316549Y-5553450D01*
X31303674Y-5550000D01*
X30336326Y-5550000D01*
X30323450Y-5553450D01*
X30320000Y-5566326D01*
X30320000Y-6094518D01*
X24820500Y-6094518D01*
X24820499Y-5267098D01*
X34591414Y-5267098D01*
X34592335Y-5278808D01*
X34594601Y-5291212D01*
X34635417Y-5431700D01*
X34641565Y-5445907D01*
X34715291Y-5570571D01*
X34724782Y-5582807D01*
X34827192Y-5685217D01*
X34839428Y-5694708D01*
X34964092Y-5768434D01*
X34978299Y-5774582D01*
X35096143Y-5808819D01*
X35107409Y-5809394D01*
X35110000Y-5798415D01*
X35110000Y-5266326D01*
X35106549Y-5253450D01*
X35093674Y-5250000D01*
X34607221Y-5250000D01*
X34594078Y-5253706D01*
X34591414Y-5267098D01*
X24820499Y-5267098D01*
X24820499Y-5033674D01*
X30320000Y-5033674D01*
X30323450Y-5046549D01*
X30336326Y-5050000D01*
X31303674Y-5050000D01*
X31316549Y-5046549D01*
X31320000Y-5033674D01*
X31820000Y-5033674D01*
X31823450Y-5046549D01*
X31836326Y-5050000D01*
X32803674Y-5050000D01*
X32816549Y-5046549D01*
X32820000Y-5033674D01*
X32820000Y-4732901D01*
X34591414Y-4732901D01*
X34594078Y-4746293D01*
X34607221Y-4750000D01*
X35093674Y-4750000D01*
X35106549Y-4746549D01*
X35110000Y-4733674D01*
X35110000Y-4201585D01*
X35107409Y-4190605D01*
X35096143Y-4191180D01*
X34978299Y-4225417D01*
X34964092Y-4231565D01*
X34839428Y-4305291D01*
X34827192Y-4314782D01*
X34724782Y-4417192D01*
X34715291Y-4429428D01*
X34641565Y-4554092D01*
X34635417Y-4568299D01*
X34594601Y-4708787D01*
X34592335Y-4721191D01*
X34591414Y-4732901D01*
X32820000Y-4732901D01*
X32820000Y-4505482D01*
X32819646Y-4498885D01*
X32814426Y-4450332D01*
X32810888Y-4435358D01*
X32766452Y-4316222D01*
X32758037Y-4300810D01*
X32682501Y-4199907D01*
X32670092Y-4187498D01*
X32569189Y-4111962D01*
X32553777Y-4103547D01*
X32434641Y-4059111D01*
X32419667Y-4055573D01*
X32371114Y-4050353D01*
X32364518Y-4050000D01*
X31836326Y-4050000D01*
X31823450Y-4053450D01*
X31820000Y-4066326D01*
X31820000Y-5033674D01*
X31320000Y-5033674D01*
X31320000Y-4066326D01*
X31316549Y-4053450D01*
X31303674Y-4050000D01*
X30775482Y-4050000D01*
X30768885Y-4050353D01*
X30720332Y-4055573D01*
X30705358Y-4059111D01*
X30586222Y-4103547D01*
X30570810Y-4111962D01*
X30469907Y-4187498D01*
X30457498Y-4199907D01*
X30381962Y-4300810D01*
X30373547Y-4316222D01*
X30329111Y-4435358D01*
X30325573Y-4450332D01*
X30320353Y-4498885D01*
X30320000Y-4505482D01*
X30320000Y-5033674D01*
X24820499Y-5033674D01*
X24820499Y-4505136D01*
X24817585Y-4480009D01*
X24772206Y-4377235D01*
X24692765Y-4297794D01*
X24677833Y-4291201D01*
X24598522Y-4256181D01*
X24598517Y-4256179D01*
X24589991Y-4252415D01*
X24580726Y-4251340D01*
X24568414Y-4249911D01*
X24568401Y-4249910D01*
X24564865Y-4249500D01*
X24561290Y-4249500D01*
X22978714Y-4249500D01*
X22978696Y-4249500D01*
X22975136Y-4249501D01*
X22971589Y-4249912D01*
X22971577Y-4249913D01*
X22959277Y-4251340D01*
X22959275Y-4251340D01*
X22950009Y-4252415D01*
X22941479Y-4256180D01*
X22941476Y-4256182D01*
X22857745Y-4293153D01*
X22857743Y-4293154D01*
X22847235Y-4297794D01*
X22839112Y-4305916D01*
X22839109Y-4305919D01*
X22775919Y-4369109D01*
X22775916Y-4369112D01*
X22767794Y-4377235D01*
X22763154Y-4387743D01*
X22763153Y-4387745D01*
X22726181Y-4471477D01*
X22726179Y-4471484D01*
X22722415Y-4480009D01*
X22721340Y-4489271D01*
X22721340Y-4489273D01*
X22719911Y-4501585D01*
X22719910Y-4501599D01*
X22719500Y-4505135D01*
X22719500Y-4508708D01*
X22719500Y-4508709D01*
X22719500Y-6091285D01*
X22719500Y-6091302D01*
X22719501Y-6094864D01*
X22719912Y-6098411D01*
X22719913Y-6098422D01*
X22721059Y-6108299D01*
X22722415Y-6119991D01*
X22726181Y-6128521D01*
X22726182Y-6128523D01*
X22742727Y-6165994D01*
X22767794Y-6222765D01*
X22775918Y-6230889D01*
X22775919Y-6230890D01*
X22818958Y-6273929D01*
X22851051Y-6329514D01*
X22851053Y-6393698D01*
X22818965Y-6449285D01*
X22805077Y-6463175D01*
X22764846Y-6490059D01*
X22717389Y-6499500D01*
X22614944Y-6499500D01*
X22607668Y-6501293D01*
X22607662Y-6501294D01*
X22457055Y-6538415D01*
X22457050Y-6538416D01*
X22449775Y-6540210D01*
X22443140Y-6543692D01*
X22443133Y-6543695D01*
X22305791Y-6615779D01*
X22305788Y-6615780D01*
X22299148Y-6619266D01*
X22293537Y-6624236D01*
X22293531Y-6624241D01*
X22183161Y-6722021D01*
X22171817Y-6732071D01*
X22167562Y-6738235D01*
X22167557Y-6738241D01*
X22079445Y-6865893D01*
X22079442Y-6865897D01*
X22075182Y-6872070D01*
X22072523Y-6879081D01*
X22072520Y-6879087D01*
X22017520Y-7024111D01*
X22017517Y-7024119D01*
X22014860Y-7031128D01*
X22013956Y-7038570D01*
X22013955Y-7038576D01*
X22003235Y-7126867D01*
X21994355Y-7200000D01*
X18497000Y-7200000D01*
X18497000Y-6950500D01*
X18513613Y-6888500D01*
X18559000Y-6843113D01*
X18621000Y-6826500D01*
X19508637Y-6826500D01*
X19521781Y-6822793D01*
X19524309Y-6810085D01*
X19522375Y-6799494D01*
X19481208Y-6657797D01*
X19475060Y-6643590D01*
X19400691Y-6517839D01*
X19391200Y-6505603D01*
X19287896Y-6402299D01*
X19275660Y-6392808D01*
X19246152Y-6375357D01*
X19198994Y-6325322D01*
X19185742Y-6257855D01*
X19210467Y-6193702D01*
X19301361Y-6073842D01*
X19356877Y-5933064D01*
X19367052Y-5848329D01*
X19867001Y-5848329D01*
X19867321Y-5854611D01*
X19876805Y-5947459D01*
X19879623Y-5960622D01*
X19930370Y-6113767D01*
X19936432Y-6126766D01*
X20020890Y-6263694D01*
X20029794Y-6274955D01*
X20143544Y-6388705D01*
X20154805Y-6397609D01*
X20291733Y-6482067D01*
X20304732Y-6488129D01*
X20457874Y-6538875D01*
X20471041Y-6541694D01*
X20563890Y-6551180D01*
X20570168Y-6551500D01*
X20888174Y-6551500D01*
X20901049Y-6548049D01*
X20904500Y-6535174D01*
X20904500Y-6535173D01*
X21404500Y-6535173D01*
X21407950Y-6548048D01*
X21420826Y-6551499D01*
X21738829Y-6551499D01*
X21745111Y-6551178D01*
X21837959Y-6541694D01*
X21851122Y-6538876D01*
X22004267Y-6488129D01*
X22017266Y-6482067D01*
X22154194Y-6397609D01*
X22165455Y-6388705D01*
X22279205Y-6274955D01*
X22288109Y-6263694D01*
X22372567Y-6126766D01*
X22378629Y-6113767D01*
X22429375Y-5960625D01*
X22432194Y-5947458D01*
X22441680Y-5854609D01*
X22442000Y-5848332D01*
X22442000Y-5642826D01*
X22438549Y-5629950D01*
X22425674Y-5626500D01*
X21420826Y-5626500D01*
X21407950Y-5629950D01*
X21404500Y-5642826D01*
X21404500Y-6535173D01*
X20904500Y-6535173D01*
X20904500Y-5642826D01*
X20901049Y-5629950D01*
X20888174Y-5626500D01*
X19883327Y-5626500D01*
X19870451Y-5629950D01*
X19867001Y-5642826D01*
X19867001Y-5848329D01*
X19367052Y-5848329D01*
X19367500Y-5844602D01*
X19367500Y-5110174D01*
X19867000Y-5110174D01*
X19870450Y-5123049D01*
X19883326Y-5126500D01*
X20888174Y-5126500D01*
X20901049Y-5123049D01*
X20904500Y-5110174D01*
X21404500Y-5110174D01*
X21407950Y-5123049D01*
X21420826Y-5126500D01*
X22425673Y-5126500D01*
X22438548Y-5123049D01*
X22441999Y-5110174D01*
X22441999Y-4904671D01*
X22441678Y-4898388D01*
X22432194Y-4805540D01*
X22429376Y-4792377D01*
X22378629Y-4639232D01*
X22372567Y-4626233D01*
X22288109Y-4489305D01*
X22279205Y-4478044D01*
X22165455Y-4364294D01*
X22154194Y-4355390D01*
X22017266Y-4270932D01*
X22004267Y-4264870D01*
X21851125Y-4214124D01*
X21837958Y-4211305D01*
X21745109Y-4201819D01*
X21738832Y-4201500D01*
X21420826Y-4201500D01*
X21407950Y-4204950D01*
X21404500Y-4217826D01*
X21404500Y-5110174D01*
X20904500Y-5110174D01*
X20904500Y-4217827D01*
X20901049Y-4204951D01*
X20888174Y-4201501D01*
X20570171Y-4201501D01*
X20563888Y-4201821D01*
X20471040Y-4211305D01*
X20457877Y-4214123D01*
X20304732Y-4264870D01*
X20291733Y-4270932D01*
X20154805Y-4355390D01*
X20143544Y-4364294D01*
X20029794Y-4478044D01*
X20020890Y-4489305D01*
X19936432Y-4626233D01*
X19930370Y-4639232D01*
X19879624Y-4792374D01*
X19876805Y-4805541D01*
X19867319Y-4898390D01*
X19867000Y-4904668D01*
X19867000Y-5110174D01*
X19367500Y-5110174D01*
X19367500Y-4908398D01*
X19356877Y-4819936D01*
X19301361Y-4679158D01*
X19209922Y-4558578D01*
X19089342Y-4467139D01*
X18948564Y-4411623D01*
X18940674Y-4410675D01*
X18940668Y-4410674D01*
X18863781Y-4401441D01*
X18863767Y-4401440D01*
X18860102Y-4401000D01*
X17804033Y-4401000D01*
X17738068Y-4381998D01*
X17692320Y-4330816D01*
X17680810Y-4263140D01*
X17684756Y-4228053D01*
X17686055Y-4216507D01*
X17674511Y-4138486D01*
X17657189Y-4077405D01*
X17626055Y-4004937D01*
X17577406Y-3942856D01*
X17558701Y-3924475D01*
X17534982Y-3901166D01*
X17534978Y-3901162D01*
X17532121Y-3898355D01*
X17528933Y-3895946D01*
X17528928Y-3895941D01*
X17475611Y-3855643D01*
X17475610Y-3855642D01*
X17469202Y-3850799D01*
X17396205Y-3820935D01*
X17392336Y-3819910D01*
X17392332Y-3819909D01*
X17338708Y-3805707D01*
X17338696Y-3805704D01*
X17334831Y-3804681D01*
X17330852Y-3804163D01*
X17260602Y-3795018D01*
X17260596Y-3795017D01*
X17256620Y-3794500D01*
X14094000Y-3794500D01*
X14089983Y-3795028D01*
X14089980Y-3795029D01*
X14018956Y-3804379D01*
X14018941Y-3804381D01*
X14014930Y-3804910D01*
X14011018Y-3805958D01*
X14011009Y-3805960D01*
X13956851Y-3820472D01*
X13956845Y-3820473D01*
X13952930Y-3821523D01*
X13949184Y-3823074D01*
X13949174Y-3823078D01*
X13886760Y-3848931D01*
X13886758Y-3848931D01*
X13879250Y-3852042D01*
X13872806Y-3856986D01*
X13872800Y-3856990D01*
X13819210Y-3898112D01*
X13819203Y-3898117D01*
X13815979Y-3900592D01*
X13813106Y-3903464D01*
X13813098Y-3903472D01*
X13773472Y-3943098D01*
X13773464Y-3943106D01*
X13770592Y-3945979D01*
X13768117Y-3949203D01*
X13768112Y-3949210D01*
X13726990Y-4002800D01*
X13726986Y-4002806D01*
X13722042Y-4009250D01*
X13718931Y-4016758D01*
X13718931Y-4016760D01*
X13693078Y-4079174D01*
X13693074Y-4079184D01*
X13691523Y-4082930D01*
X13690473Y-4086845D01*
X13690472Y-4086851D01*
X13675960Y-4141009D01*
X13675958Y-4141018D01*
X13674910Y-4144930D01*
X13674381Y-4148941D01*
X13674379Y-4148956D01*
X13665029Y-4219980D01*
X13664500Y-4224000D01*
X13664500Y-8344500D01*
X13664500Y-8403160D01*
X13664904Y-8406677D01*
X13664905Y-8406684D01*
X13669553Y-8447091D01*
X13672480Y-8472529D01*
X13673285Y-8475982D01*
X13673286Y-8475987D01*
X13684460Y-8523913D01*
X13684462Y-8523921D01*
X13685267Y-8527372D01*
X13686435Y-8530638D01*
X13689203Y-8589292D01*
X13664660Y-8642656D01*
X13618313Y-8678737D01*
X13560560Y-8689442D01*
X13504359Y-8672367D01*
X13452906Y-8641937D01*
X13438702Y-8635791D01*
X13297002Y-8594623D01*
X13286415Y-8592689D01*
X13273706Y-8595217D01*
X13270000Y-8608359D01*
X13270000Y-9496000D01*
X13253387Y-9558000D01*
X13208000Y-9603387D01*
X13146000Y-9620000D01*
X12894000Y-9620000D01*
X12832000Y-9603387D01*
X12786613Y-9558000D01*
X12770000Y-9496000D01*
X12770000Y-8608363D01*
X12766293Y-8595218D01*
X12753585Y-8592690D01*
X12742994Y-8594624D01*
X12601297Y-8635791D01*
X12587089Y-8641939D01*
X12494355Y-8696782D01*
X12433270Y-8714033D01*
X12371653Y-8698798D01*
X12325647Y-8655068D01*
X12307307Y-8594301D01*
X12321301Y-8533025D01*
X12324818Y-8527930D01*
X12385140Y-8368872D01*
X12405645Y-8200000D01*
X12385140Y-8031128D01*
X12324818Y-7872070D01*
X12228183Y-7732071D01*
X12116093Y-7632768D01*
X12106468Y-7624241D01*
X12106466Y-7624239D01*
X12100852Y-7619266D01*
X12053766Y-7594553D01*
X11956866Y-7543695D01*
X11956862Y-7543693D01*
X11950225Y-7540210D01*
X11942947Y-7538416D01*
X11942944Y-7538415D01*
X11792337Y-7501294D01*
X11792332Y-7501293D01*
X11785056Y-7499500D01*
X11614944Y-7499500D01*
X11607668Y-7501293D01*
X11607662Y-7501294D01*
X11457055Y-7538415D01*
X11457050Y-7538416D01*
X11449775Y-7540210D01*
X11443140Y-7543692D01*
X11443133Y-7543695D01*
X11305791Y-7615779D01*
X11305788Y-7615780D01*
X11299148Y-7619266D01*
X11293537Y-7624236D01*
X11293531Y-7624241D01*
X11177430Y-7727098D01*
X11171817Y-7732071D01*
X11167562Y-7738235D01*
X11167557Y-7738241D01*
X11079445Y-7865893D01*
X11079442Y-7865897D01*
X11075182Y-7872070D01*
X11072523Y-7879081D01*
X11072520Y-7879087D01*
X11017520Y-8024111D01*
X11017517Y-8024119D01*
X11014860Y-8031128D01*
X11013956Y-8038570D01*
X11013955Y-8038576D01*
X10995900Y-8187274D01*
X10994355Y-8200000D01*
X10995259Y-8207445D01*
X11013955Y-8361423D01*
X11013956Y-8361427D01*
X11014860Y-8368872D01*
X11017518Y-8375882D01*
X11017520Y-8375888D01*
X11065797Y-8503184D01*
X11075182Y-8527930D01*
X11079444Y-8534105D01*
X11079445Y-8534106D01*
X11162939Y-8655068D01*
X11171817Y-8667929D01*
X11249157Y-8736446D01*
X11283328Y-8786514D01*
X11289682Y-8846799D01*
X11266700Y-8902893D01*
X11201136Y-8991729D01*
X11201132Y-8991735D01*
X11195619Y-8999206D01*
X11192550Y-9007975D01*
X11192549Y-9007978D01*
X11154752Y-9115994D01*
X11154750Y-9116000D01*
X11152259Y-9123121D01*
X11151554Y-9130637D01*
X11151554Y-9130638D01*
X11149770Y-9149657D01*
X11149769Y-9149670D01*
X11149500Y-9152543D01*
X11149500Y-9155435D01*
X11149500Y-9155436D01*
X11149500Y-9524553D01*
X11149500Y-9524574D01*
X11149501Y-9527456D01*
X11149770Y-9530329D01*
X11149771Y-9530343D01*
X11151554Y-9549362D01*
X11152259Y-9556879D01*
X11154752Y-9564005D01*
X11154753Y-9564007D01*
X11192549Y-9672021D01*
X11195619Y-9680794D01*
X11201137Y-9688271D01*
X11201139Y-9688274D01*
X11266154Y-9776367D01*
X11287610Y-9823917D01*
X11287610Y-9876083D01*
X11266154Y-9923633D01*
X11201139Y-10011725D01*
X11201135Y-10011730D01*
X11195619Y-10019206D01*
X11192550Y-10027975D01*
X11192549Y-10027978D01*
X11154752Y-10135994D01*
X11154750Y-10136000D01*
X11152259Y-10143121D01*
X11151554Y-10150637D01*
X11151554Y-10150638D01*
X11149770Y-10169657D01*
X11149769Y-10169670D01*
X11149500Y-10172543D01*
X11149500Y-10175435D01*
X11149500Y-10175436D01*
X11149500Y-10544553D01*
X11149500Y-10544574D01*
X11149501Y-10547456D01*
X11149770Y-10550329D01*
X11149771Y-10550343D01*
X11151554Y-10569362D01*
X11152259Y-10576879D01*
X11154752Y-10584005D01*
X11154753Y-10584007D01*
X11182625Y-10663660D01*
X11195619Y-10700794D01*
X11225819Y-10741713D01*
X11266991Y-10797500D01*
X11273577Y-10806423D01*
X11379206Y-10884381D01*
X11387979Y-10887451D01*
X11396191Y-10891791D01*
X11395352Y-10893377D01*
X11436293Y-10920721D01*
X11464736Y-10975689D01*
X11463069Y-11037556D01*
X11431708Y-11090912D01*
X11378465Y-11122464D01*
X11368298Y-11125417D01*
X11354092Y-11131565D01*
X11229428Y-11205291D01*
X11217192Y-11214782D01*
X11114782Y-11317192D01*
X11105291Y-11329428D01*
X11031565Y-11454092D01*
X11025417Y-11468299D01*
X10984601Y-11608787D01*
X10982335Y-11621191D01*
X10981414Y-11632901D01*
X10984078Y-11646293D01*
X10997221Y-11650000D01*
X11876000Y-11650000D01*
X11938000Y-11666613D01*
X11983387Y-11712000D01*
X12000000Y-11774000D01*
X12000000Y-12698415D01*
X12002590Y-12709394D01*
X12013856Y-12708819D01*
X12106664Y-12681856D01*
X12163537Y-12678950D01*
X12215711Y-12701771D01*
X12252183Y-12745507D01*
X12264587Y-12798085D01*
X12264355Y-12800000D01*
X12265259Y-12807445D01*
X12283955Y-12961423D01*
X12283956Y-12961427D01*
X12284860Y-12968872D01*
X12287518Y-12975882D01*
X12287520Y-12975888D01*
X12342520Y-13120912D01*
X12345182Y-13127930D01*
X12349444Y-13134105D01*
X12349445Y-13134106D01*
X12435452Y-13258709D01*
X12441817Y-13267929D01*
X12531509Y-13347389D01*
X12545502Y-13359786D01*
X12569148Y-13380734D01*
X12719775Y-13459790D01*
X12727055Y-13461584D01*
X12734073Y-13464246D01*
X12733185Y-13466585D01*
X12778516Y-13491687D01*
X12811629Y-13547386D01*
X12812125Y-13612182D01*
X12779869Y-13668382D01*
X11978722Y-14469529D01*
X11926625Y-14500633D01*
X11866007Y-14503295D01*
X11811383Y-14476878D01*
X11775833Y-14427707D01*
X11767867Y-14367557D01*
X11770087Y-14348422D01*
X11770500Y-14344865D01*
X11770499Y-13255136D01*
X11767585Y-13230009D01*
X11722206Y-13127235D01*
X11642765Y-13047794D01*
X11609545Y-13033126D01*
X11548522Y-13006181D01*
X11548517Y-13006179D01*
X11539991Y-13002415D01*
X11530726Y-13001340D01*
X11518414Y-12999911D01*
X11518401Y-12999910D01*
X11514865Y-12999500D01*
X11511290Y-12999500D01*
X10428714Y-12999500D01*
X10428696Y-12999500D01*
X10425136Y-12999501D01*
X10421589Y-12999912D01*
X10421577Y-12999913D01*
X10409277Y-13001340D01*
X10409275Y-13001340D01*
X10400009Y-13002415D01*
X10391479Y-13006180D01*
X10391476Y-13006182D01*
X10307745Y-13043153D01*
X10307743Y-13043154D01*
X10297235Y-13047794D01*
X10289112Y-13055916D01*
X10289109Y-13055919D01*
X10225919Y-13119109D01*
X10225916Y-13119112D01*
X10217794Y-13127235D01*
X10213154Y-13137743D01*
X10213153Y-13137745D01*
X10176181Y-13221477D01*
X10176179Y-13221484D01*
X10172415Y-13230009D01*
X10171340Y-13239271D01*
X10171340Y-13239273D01*
X10169911Y-13251585D01*
X10169910Y-13251599D01*
X10169500Y-13255135D01*
X10169500Y-13258708D01*
X10169500Y-13258709D01*
X10169500Y-14341285D01*
X10169500Y-14341302D01*
X10169501Y-14344864D01*
X10169912Y-14348411D01*
X10169913Y-14348422D01*
X10170634Y-14354637D01*
X10172415Y-14369991D01*
X10217794Y-14472765D01*
X10225919Y-14480890D01*
X10259680Y-14514651D01*
X10289040Y-14561376D01*
X10295220Y-14616214D01*
X10276994Y-14668301D01*
X10247919Y-14714574D01*
X10247913Y-14714585D01*
X10244211Y-14720478D01*
X10241913Y-14727043D01*
X10241910Y-14727051D01*
X10186930Y-14884175D01*
X10186928Y-14884182D01*
X10184632Y-14890745D01*
X10183852Y-14897662D01*
X10183852Y-14897665D01*
X10175829Y-14968872D01*
X10164435Y-15070000D01*
X10165215Y-15076923D01*
X10173811Y-15153220D01*
X10184632Y-15249255D01*
X10186928Y-15255819D01*
X10186930Y-15255824D01*
X10241913Y-15412956D01*
X10244211Y-15419522D01*
X10247912Y-15425412D01*
X10326691Y-15550789D01*
X10340184Y-15572262D01*
X10345112Y-15577190D01*
X10385241Y-15617319D01*
X10417335Y-15672906D01*
X10417335Y-15737094D01*
X10385241Y-15792681D01*
X10345112Y-15832809D01*
X10345108Y-15832813D01*
X10340184Y-15837738D01*
X10336479Y-15843633D01*
X10336476Y-15843638D01*
X10247912Y-15984587D01*
X10247910Y-15984590D01*
X10244211Y-15990478D01*
X10241915Y-15997036D01*
X10241913Y-15997043D01*
X10186930Y-16154175D01*
X10186928Y-16154182D01*
X10184632Y-16160745D01*
X10183852Y-16167662D01*
X10183852Y-16167665D01*
X10173782Y-16257043D01*
X10164435Y-16340000D01*
X10165215Y-16346923D01*
X10182462Y-16500000D01*
X10184632Y-16519255D01*
X10186928Y-16525819D01*
X10186930Y-16525824D01*
X10236985Y-16668872D01*
X10244211Y-16689522D01*
X10247910Y-16695409D01*
X10247912Y-16695413D01*
X10300494Y-16779096D01*
X10319500Y-16845068D01*
X10319500Y-17764033D01*
X10306657Y-17818989D01*
X10270788Y-17862561D01*
X10219323Y-17885723D01*
X10162924Y-17883677D01*
X10113275Y-17856850D01*
X10070852Y-17819266D01*
X9998168Y-17781118D01*
X9926866Y-17743695D01*
X9926862Y-17743693D01*
X9920225Y-17740210D01*
X9912947Y-17738416D01*
X9912944Y-17738415D01*
X9762337Y-17701294D01*
X9762332Y-17701293D01*
X9755056Y-17699500D01*
X9584944Y-17699500D01*
X9577668Y-17701293D01*
X9577662Y-17701294D01*
X9427055Y-17738415D01*
X9427050Y-17738416D01*
X9419775Y-17740210D01*
X9413140Y-17743692D01*
X9413133Y-17743695D01*
X9275791Y-17815779D01*
X9275788Y-17815780D01*
X9269148Y-17819266D01*
X9263537Y-17824236D01*
X9263531Y-17824241D01*
X9147430Y-17927098D01*
X9141817Y-17932071D01*
X9137562Y-17938235D01*
X9137557Y-17938241D01*
X9049445Y-18065893D01*
X9049442Y-18065897D01*
X9045182Y-18072070D01*
X9042523Y-18079081D01*
X9042520Y-18079087D01*
X8987520Y-18224111D01*
X8987517Y-18224119D01*
X8984860Y-18231128D01*
X8983956Y-18238570D01*
X8983955Y-18238576D01*
X8967526Y-18373885D01*
X8964355Y-18400000D01*
X500Y-18400000D01*
X500Y-12167098D01*
X10981414Y-12167098D01*
X10982335Y-12178808D01*
X10984601Y-12191212D01*
X11025417Y-12331700D01*
X11031565Y-12345907D01*
X11105291Y-12470571D01*
X11114782Y-12482807D01*
X11217192Y-12585217D01*
X11229428Y-12594708D01*
X11354092Y-12668434D01*
X11368299Y-12674582D01*
X11486143Y-12708819D01*
X11497409Y-12709394D01*
X11500000Y-12698415D01*
X11500000Y-12166326D01*
X11496549Y-12153450D01*
X11483674Y-12150000D01*
X10997221Y-12150000D01*
X10984078Y-12153706D01*
X10981414Y-12167098D01*
X500Y-12167098D01*
X500Y-3000000D01*
X844341Y-3000000D01*
X864937Y-3235408D01*
X866336Y-3240630D01*
X866337Y-3240634D01*
X924694Y-3458430D01*
X924697Y-3458438D01*
X926097Y-3463663D01*
X1025965Y-3677829D01*
X1161505Y-3871401D01*
X1328599Y-4038495D01*
X1522171Y-4174035D01*
X1736337Y-4273903D01*
X1964592Y-4335063D01*
X2141034Y-4350500D01*
X2256258Y-4350500D01*
X2258966Y-4350500D01*
X2435408Y-4335063D01*
X2663663Y-4273903D01*
X2877829Y-4174035D01*
X3071401Y-4038495D01*
X3238495Y-3871401D01*
X3374035Y-3677830D01*
X3473903Y-3463663D01*
X3535063Y-3235408D01*
X3555659Y-3000000D01*
X48544341Y-3000000D01*
X48564937Y-3235408D01*
X48566336Y-3240630D01*
X48566337Y-3240634D01*
X48624694Y-3458430D01*
X48624697Y-3458438D01*
X48626097Y-3463663D01*
X48725965Y-3677829D01*
X48861505Y-3871401D01*
X49028599Y-4038495D01*
X49222171Y-4174035D01*
X49436337Y-4273903D01*
X49664592Y-4335063D01*
X49841034Y-4350500D01*
X49956258Y-4350500D01*
X49958966Y-4350500D01*
X50135408Y-4335063D01*
X50363663Y-4273903D01*
X50577829Y-4174035D01*
X50771401Y-4038495D01*
X50938495Y-3871401D01*
X51074035Y-3677830D01*
X51173903Y-3463663D01*
X51235063Y-3235408D01*
X51255659Y-3000000D01*
X51235063Y-2764592D01*
X51173903Y-2536337D01*
X51074035Y-2322171D01*
X50938495Y-2128599D01*
X50771401Y-1961505D01*
X50577829Y-1825965D01*
X50363663Y-1726097D01*
X50358438Y-1724697D01*
X50358430Y-1724694D01*
X50140634Y-1666337D01*
X50140630Y-1666336D01*
X50135408Y-1664937D01*
X50130020Y-1664465D01*
X50130017Y-1664465D01*
X49961664Y-1649736D01*
X49961662Y-1649735D01*
X49958966Y-1649500D01*
X49841034Y-1649500D01*
X49838338Y-1649735D01*
X49838335Y-1649736D01*
X49669982Y-1664465D01*
X49669977Y-1664465D01*
X49664592Y-1664937D01*
X49659371Y-1666335D01*
X49659365Y-1666337D01*
X49441569Y-1724694D01*
X49441557Y-1724698D01*
X49436337Y-1726097D01*
X49431432Y-1728383D01*
X49431427Y-1728386D01*
X49227081Y-1823675D01*
X49227077Y-1823677D01*
X49222171Y-1825965D01*
X49217738Y-1829068D01*
X49217731Y-1829073D01*
X49033034Y-1958399D01*
X49033029Y-1958402D01*
X49028599Y-1961505D01*
X49024775Y-1965328D01*
X49024769Y-1965334D01*
X48865336Y-2124767D01*
X48865330Y-2124773D01*
X48861505Y-2128599D01*
X48858406Y-2133023D01*
X48858399Y-2133033D01*
X48729066Y-2317740D01*
X48729061Y-2317747D01*
X48725965Y-2322170D01*
X48723683Y-2327061D01*
X48723678Y-2327072D01*
X48628386Y-2531427D01*
X48628383Y-2531432D01*
X48626097Y-2536337D01*
X48624698Y-2541557D01*
X48624694Y-2541569D01*
X48566337Y-2759365D01*
X48566335Y-2759371D01*
X48564937Y-2764592D01*
X48544341Y-3000000D01*
X3555659Y-3000000D01*
X3535063Y-2764592D01*
X3473903Y-2536337D01*
X3374035Y-2322171D01*
X3238495Y-2128599D01*
X3071401Y-1961505D01*
X2877829Y-1825965D01*
X2663663Y-1726097D01*
X2658438Y-1724697D01*
X2658430Y-1724694D01*
X2440634Y-1666337D01*
X2440630Y-1666336D01*
X2435408Y-1664937D01*
X2430020Y-1664465D01*
X2430017Y-1664465D01*
X2261664Y-1649736D01*
X2261662Y-1649735D01*
X2258966Y-1649500D01*
X2141034Y-1649500D01*
X2138338Y-1649735D01*
X2138335Y-1649736D01*
X1969982Y-1664465D01*
X1969977Y-1664465D01*
X1964592Y-1664937D01*
X1959371Y-1666335D01*
X1959365Y-1666337D01*
X1741569Y-1724694D01*
X1741557Y-1724698D01*
X1736337Y-1726097D01*
X1731432Y-1728383D01*
X1731427Y-1728386D01*
X1527081Y-1823675D01*
X1527077Y-1823677D01*
X1522171Y-1825965D01*
X1517738Y-1829068D01*
X1517731Y-1829073D01*
X1333034Y-1958399D01*
X1333029Y-1958402D01*
X1328599Y-1961505D01*
X1324775Y-1965328D01*
X1324769Y-1965334D01*
X1165336Y-2124767D01*
X1165330Y-2124773D01*
X1161505Y-2128599D01*
X1158406Y-2133023D01*
X1158399Y-2133033D01*
X1029066Y-2317740D01*
X1029061Y-2317747D01*
X1025965Y-2322170D01*
X1023683Y-2327061D01*
X1023678Y-2327072D01*
X928386Y-2531427D01*
X928383Y-2531432D01*
X926097Y-2536337D01*
X924698Y-2541557D01*
X924694Y-2541569D01*
X866337Y-2759365D01*
X866335Y-2759371D01*
X864937Y-2764592D01*
X844341Y-3000000D01*
X500Y-3000000D01*
X500Y-124500D01*
X17113Y-62500D01*
X62500Y-17113D01*
X124500Y-500D01*
X52075500Y-500D01*
X52137500Y-17113D01*
G37*
%TD.AperFunction*%
%TD*%
%TA.AperFunction,Conductor*%
%TO.N,VBUS*%
G36*
X45408000Y-10316613D02*
G01*
X45453387Y-10362000D01*
X45470000Y-10424000D01*
X45470000Y-15276000D01*
X45453387Y-15338000D01*
X45408000Y-15383387D01*
X45346000Y-15400000D01*
X42794000Y-15400000D01*
X42732000Y-15383387D01*
X42686613Y-15338000D01*
X42670000Y-15276000D01*
X42670000Y-14320165D01*
X42970001Y-14320165D01*
X42970321Y-14326447D01*
X42979455Y-14415867D01*
X42982274Y-14429036D01*
X43031180Y-14576625D01*
X43037246Y-14589633D01*
X43118632Y-14721580D01*
X43127537Y-14732842D01*
X43237157Y-14842462D01*
X43248419Y-14851367D01*
X43380366Y-14932753D01*
X43393374Y-14938819D01*
X43540969Y-14987727D01*
X43554125Y-14990543D01*
X43643555Y-14999680D01*
X43649832Y-15000000D01*
X43803674Y-15000000D01*
X43816549Y-14996549D01*
X43820000Y-14983674D01*
X43820000Y-14983673D01*
X44320000Y-14983673D01*
X44323450Y-14996548D01*
X44336326Y-14999999D01*
X44490165Y-14999999D01*
X44496447Y-14999678D01*
X44585867Y-14990544D01*
X44599036Y-14987725D01*
X44746625Y-14938819D01*
X44759633Y-14932753D01*
X44891580Y-14851367D01*
X44902842Y-14842462D01*
X45012462Y-14732842D01*
X45021367Y-14721580D01*
X45102753Y-14589633D01*
X45108819Y-14576625D01*
X45157727Y-14429030D01*
X45160543Y-14415874D01*
X45169680Y-14326444D01*
X45170000Y-14320168D01*
X45170000Y-14316326D01*
X45166549Y-14303450D01*
X45153674Y-14300000D01*
X44336326Y-14300000D01*
X44323450Y-14303450D01*
X44320000Y-14316326D01*
X44320000Y-14983673D01*
X43820000Y-14983673D01*
X43820000Y-14316326D01*
X43816549Y-14303450D01*
X43803674Y-14300000D01*
X42986327Y-14300000D01*
X42973451Y-14303450D01*
X42970001Y-14316326D01*
X42970001Y-14320165D01*
X42670000Y-14320165D01*
X42670000Y-13783674D01*
X42970000Y-13783674D01*
X42973450Y-13796549D01*
X42986326Y-13800000D01*
X43803674Y-13800000D01*
X43816549Y-13796549D01*
X43820000Y-13783674D01*
X44320000Y-13783674D01*
X44323450Y-13796549D01*
X44336326Y-13800000D01*
X45153673Y-13800000D01*
X45166548Y-13796549D01*
X45169999Y-13783674D01*
X45169999Y-13779835D01*
X45169678Y-13773552D01*
X45160544Y-13684132D01*
X45157725Y-13670963D01*
X45108819Y-13523374D01*
X45102753Y-13510366D01*
X45021367Y-13378419D01*
X45012462Y-13367157D01*
X44902842Y-13257537D01*
X44891580Y-13248632D01*
X44759633Y-13167246D01*
X44746625Y-13161180D01*
X44599030Y-13112272D01*
X44585874Y-13109456D01*
X44496444Y-13100319D01*
X44490168Y-13100000D01*
X44336326Y-13100000D01*
X44323450Y-13103450D01*
X44320000Y-13116326D01*
X44320000Y-13783674D01*
X43820000Y-13783674D01*
X43820000Y-13116327D01*
X43816549Y-13103451D01*
X43803674Y-13100001D01*
X43649835Y-13100001D01*
X43643552Y-13100321D01*
X43554132Y-13109455D01*
X43540963Y-13112274D01*
X43393374Y-13161180D01*
X43380366Y-13167246D01*
X43248419Y-13248632D01*
X43237157Y-13257537D01*
X43127537Y-13367157D01*
X43118632Y-13378419D01*
X43037246Y-13510366D01*
X43031180Y-13523374D01*
X42982272Y-13670969D01*
X42979456Y-13684125D01*
X42970319Y-13773555D01*
X42970000Y-13779832D01*
X42970000Y-13783674D01*
X42670000Y-13783674D01*
X42670000Y-12653992D01*
X42670904Y-12639045D01*
X42674741Y-12607445D01*
X42675645Y-12600000D01*
X42670903Y-12560954D01*
X42670000Y-12546008D01*
X42670000Y-11597069D01*
X42686776Y-11534788D01*
X42732563Y-11489359D01*
X42794974Y-11473073D01*
X42857121Y-11490337D01*
X42887090Y-11508060D01*
X42901297Y-11514208D01*
X43042997Y-11555376D01*
X43053584Y-11557310D01*
X43066293Y-11554782D01*
X43070000Y-11541641D01*
X43070000Y-11541637D01*
X43570000Y-11541637D01*
X43573706Y-11554781D01*
X43586414Y-11557309D01*
X43597005Y-11555375D01*
X43738702Y-11514208D01*
X43752909Y-11508060D01*
X43878660Y-11433691D01*
X43890896Y-11424200D01*
X43994200Y-11320896D01*
X44003691Y-11308660D01*
X44078061Y-11182908D01*
X44084207Y-11168706D01*
X44120479Y-11043857D01*
X44121054Y-11032590D01*
X44110075Y-11030000D01*
X43586326Y-11030000D01*
X43573450Y-11033450D01*
X43570000Y-11046326D01*
X43570000Y-11541637D01*
X43070000Y-11541637D01*
X43070000Y-10654000D01*
X43086613Y-10592000D01*
X43132000Y-10546613D01*
X43194000Y-10530000D01*
X44110075Y-10530000D01*
X44121054Y-10527409D01*
X44120479Y-10516142D01*
X44103760Y-10458594D01*
X44100855Y-10401722D01*
X44123676Y-10349548D01*
X44167412Y-10313076D01*
X44222837Y-10300000D01*
X45346000Y-10300000D01*
X45408000Y-10316613D01*
G37*
%TD.AperFunction*%
%TD*%
%TA.AperFunction,Conductor*%
%TO.N,VBUS*%
G36*
X14508000Y-23116613D02*
G01*
X14553387Y-23162000D01*
X14570000Y-23224000D01*
X14570000Y-24704080D01*
X14559435Y-24754166D01*
X14526181Y-24829477D01*
X14526179Y-24829484D01*
X14522415Y-24838009D01*
X14521340Y-24847271D01*
X14521340Y-24847273D01*
X14519911Y-24859585D01*
X14519910Y-24859599D01*
X14519500Y-24863135D01*
X14519500Y-24866708D01*
X14519500Y-24866709D01*
X14519500Y-26549285D01*
X14519500Y-26549302D01*
X14519501Y-26552864D01*
X14519912Y-26556411D01*
X14519913Y-26556422D01*
X14521340Y-26568722D01*
X14522415Y-26577991D01*
X14526181Y-26586521D01*
X14526182Y-26586523D01*
X14559435Y-26661834D01*
X14570000Y-26711920D01*
X14570000Y-27576000D01*
X14553387Y-27638000D01*
X14508000Y-27683387D01*
X14446000Y-27700000D01*
X12082100Y-27700000D01*
X12075820Y-27699841D01*
X12002891Y-27696142D01*
X12002885Y-27696142D01*
X11996610Y-27695824D01*
X11990397Y-27696775D01*
X11990391Y-27696776D01*
X11978685Y-27698570D01*
X11959908Y-27700000D01*
X10694000Y-27700000D01*
X10632000Y-27683387D01*
X10586613Y-27638000D01*
X10570000Y-27576000D01*
X10570000Y-26230000D01*
X12289901Y-26230000D01*
X12290498Y-26236061D01*
X12307655Y-26410268D01*
X12307656Y-26410276D01*
X12308253Y-26416331D01*
X12310018Y-26422152D01*
X12310020Y-26422158D01*
X12360837Y-26589678D01*
X12360839Y-26589683D01*
X12362604Y-26595501D01*
X12450864Y-26760625D01*
X12569643Y-26905357D01*
X12714375Y-27024136D01*
X12879499Y-27112396D01*
X13058669Y-27166747D01*
X13245000Y-27185099D01*
X13431331Y-27166747D01*
X13610501Y-27112396D01*
X13775625Y-27024136D01*
X13829032Y-26980305D01*
X13887315Y-26953845D01*
X13951030Y-26959976D01*
X14055358Y-26998888D01*
X14070332Y-27002426D01*
X14118885Y-27007646D01*
X14125482Y-27008000D01*
X14153674Y-27008000D01*
X14166549Y-27004549D01*
X14170000Y-26991674D01*
X14170000Y-26473448D01*
X14175338Y-26437457D01*
X14181747Y-26416331D01*
X14200099Y-26230000D01*
X14181747Y-26043669D01*
X14175338Y-26022542D01*
X14170000Y-25986552D01*
X14170000Y-24424326D01*
X14166549Y-24411450D01*
X14153674Y-24408000D01*
X14125482Y-24408000D01*
X14118885Y-24408353D01*
X14070332Y-24413573D01*
X14055358Y-24417111D01*
X13936222Y-24461547D01*
X13920810Y-24469962D01*
X13819907Y-24545498D01*
X13807498Y-24557907D01*
X13731962Y-24658810D01*
X13723547Y-24674222D01*
X13679111Y-24793358D01*
X13675573Y-24808332D01*
X13670353Y-24856885D01*
X13670000Y-24863482D01*
X13670000Y-25198457D01*
X13656760Y-25254209D01*
X13619867Y-25298055D01*
X13567199Y-25320631D01*
X13510005Y-25317118D01*
X13437161Y-25295021D01*
X13437155Y-25295020D01*
X13431331Y-25293253D01*
X13425276Y-25292656D01*
X13425268Y-25292655D01*
X13251061Y-25275498D01*
X13245000Y-25274901D01*
X13238939Y-25275498D01*
X13064731Y-25292655D01*
X13064721Y-25292656D01*
X13058669Y-25293253D01*
X13052849Y-25295018D01*
X13052841Y-25295020D01*
X12885321Y-25345837D01*
X12885312Y-25345840D01*
X12879499Y-25347604D01*
X12874134Y-25350471D01*
X12874128Y-25350474D01*
X12719751Y-25432990D01*
X12719747Y-25432992D01*
X12714375Y-25435864D01*
X12709667Y-25439727D01*
X12709662Y-25439731D01*
X12574349Y-25550780D01*
X12574344Y-25550784D01*
X12569643Y-25554643D01*
X12565784Y-25559344D01*
X12565780Y-25559349D01*
X12454731Y-25694662D01*
X12454727Y-25694667D01*
X12450864Y-25699375D01*
X12447992Y-25704747D01*
X12447990Y-25704751D01*
X12365474Y-25859128D01*
X12365471Y-25859134D01*
X12362604Y-25864499D01*
X12360840Y-25870312D01*
X12360837Y-25870321D01*
X12310020Y-26037841D01*
X12310018Y-26037849D01*
X12308253Y-26043669D01*
X12307656Y-26049721D01*
X12307655Y-26049731D01*
X12291255Y-26216247D01*
X12289901Y-26230000D01*
X10570000Y-26230000D01*
X10570000Y-23224000D01*
X10586613Y-23162000D01*
X10632000Y-23116613D01*
X10694000Y-23100000D01*
X14446000Y-23100000D01*
X14508000Y-23116613D01*
G37*
%TD.AperFunction*%
%TD*%
M02*
