%TF.GenerationSoftware,KiCad,Pcbnew,(7.0.0)*%
%TF.CreationDate,2024-02-23T23:29:38+02:00*%
%TF.ProjectId,mains-detector,6d61696e-732d-4646-9574-6563746f722e,rev?*%
%TF.SameCoordinates,Original*%
%TF.FileFunction,Copper,L3,Inr*%
%TF.FilePolarity,Positive*%
%FSLAX46Y46*%
G04 Gerber Fmt 4.6, Leading zero omitted, Abs format (unit mm)*
G04 Created by KiCad (PCBNEW (7.0.0)) date 2024-02-23 23:29:38*
%MOMM*%
%LPD*%
G01*
G04 APERTURE LIST*
%TA.AperFunction,ComponentPad*%
%ADD10R,1.000000X1.000000*%
%TD*%
%TA.AperFunction,ComponentPad*%
%ADD11O,1.000000X1.000000*%
%TD*%
%TA.AperFunction,ComponentPad*%
%ADD12C,1.300000*%
%TD*%
%TA.AperFunction,ComponentPad*%
%ADD13O,1.300000X1.800000*%
%TD*%
%TA.AperFunction,ViaPad*%
%ADD14C,0.800000*%
%TD*%
G04 APERTURE END LIST*
D10*
%TO.N,VCC*%
%TO.C,J3*%
X24759999Y-24799999D03*
D11*
%TO.N,IO4*%
X23489999Y-24799999D03*
%TO.N,IO5*%
X22219999Y-24799999D03*
%TO.N,GND*%
X20949999Y-24799999D03*
%TD*%
D10*
%TO.N,Net-(J4-Pin_1)*%
%TO.C,J4*%
X28969999Y-29299999D03*
%TD*%
%TO.N,VCC*%
%TO.C,J2*%
X10969999Y-13799999D03*
D11*
%TO.N,Net-(J2-Pin_2)*%
X10969999Y-15069999D03*
%TO.N,Net-(J2-Pin_3)*%
X10969999Y-16339999D03*
%TD*%
D10*
%TO.N,Net-(D2-K)*%
%TO.C,SW2*%
X39049999Y-16599999D03*
D11*
%TO.N,Net-(SW2-B)*%
X37779999Y-16599999D03*
%TD*%
D10*
%TO.N,Net-(BT1-+)*%
%TO.C,BT1*%
X38989999Y-13399999D03*
D11*
%TO.N,GND*%
X37719999Y-13399999D03*
%TD*%
D12*
%TO.N,GND*%
%TO.C,USB1*%
X18095000Y-26230000D03*
D13*
X19294999Y-28899999D03*
X12044999Y-28899999D03*
D12*
X13245000Y-26230000D03*
%TD*%
D14*
%TO.N,GND*%
X18770000Y-9000000D03*
X32870000Y-20800000D03*
X25270000Y-9000000D03*
X20070000Y-9000000D03*
X39670000Y-15000000D03*
X18970000Y-18000000D03*
X27670000Y-20800000D03*
X18970000Y-16700000D03*
X26370000Y-20800000D03*
X22670000Y-9000000D03*
X38370000Y-15000000D03*
X21370000Y-9000000D03*
X30270000Y-20800000D03*
X28970000Y-20800000D03*
X36970000Y-21400000D03*
X37070000Y-15000000D03*
X23970000Y-9000000D03*
X26670000Y-9000000D03*
X40670000Y-12600000D03*
X27970000Y-9000000D03*
X18970000Y-19300000D03*
X18970000Y-20600000D03*
X29270000Y-9000000D03*
X41970000Y-12600000D03*
X31570000Y-20800000D03*
%TO.N,VCC*%
X35200000Y-6900000D03*
X14870000Y-4850000D03*
X16220000Y-4850000D03*
X38770000Y-26600000D03*
X38770000Y-25300000D03*
X40270000Y-26600000D03*
X40270000Y-22600000D03*
X40270000Y-25300000D03*
X40270000Y-23900000D03*
X13100000Y-15200000D03*
X14870000Y-6450000D03*
X16220000Y-6450000D03*
X14870000Y-7950000D03*
%TO.N,VBUS*%
X13570000Y-23700000D03*
X44870000Y-12400000D03*
X43470000Y-12400000D03*
X12470000Y-23700000D03*
X11270000Y-23700000D03*
X13570000Y-24800000D03*
X11270000Y-24800000D03*
X11270000Y-25900000D03*
X44870000Y-11100000D03*
X12470000Y-24800000D03*
%TO.N,D+*%
X33470000Y-14800000D03*
%TO.N,D-*%
X33470000Y-16500000D03*
%TO.N,Net-(Q1-D)*%
X26470000Y-23800000D03*
X26270000Y-27000000D03*
%TO.N,Net-(Q2-G)*%
X12970000Y-12800000D03*
X9670000Y-18400000D03*
%TO.N,Net-(R10-Pad2)*%
X22700000Y-7200000D03*
X11700000Y-8200000D03*
%TO.N,Net-(USB1-D+)*%
X16070000Y-23900000D03*
%TO.N,Net-(USB1-D-)*%
X15670000Y-27500000D03*
%TD*%
%TA.AperFunction,Conductor*%
%TO.N,VCC*%
G36*
X52137500Y-17113D02*
G01*
X52182887Y-62500D01*
X52199500Y-124500D01*
X52199500Y-30675500D01*
X52182887Y-30737500D01*
X52137500Y-30782887D01*
X52075500Y-30799500D01*
X124500Y-30799500D01*
X62500Y-30782887D01*
X17113Y-30737500D01*
X500Y-30675500D01*
X500Y-28100000D01*
X844341Y-28100000D01*
X864937Y-28335408D01*
X866336Y-28340630D01*
X866337Y-28340634D01*
X924694Y-28558430D01*
X924697Y-28558438D01*
X926097Y-28563663D01*
X1025965Y-28777829D01*
X1161505Y-28971401D01*
X1328599Y-29138495D01*
X1522171Y-29274035D01*
X1736337Y-29373903D01*
X1964592Y-29435063D01*
X2141034Y-29450500D01*
X2256258Y-29450500D01*
X2258966Y-29450500D01*
X2435408Y-29435063D01*
X2663663Y-29373903D01*
X2877829Y-29274035D01*
X2986124Y-29198206D01*
X11094500Y-29198206D01*
X11094816Y-29201317D01*
X11094817Y-29201329D01*
X11108519Y-29336068D01*
X11109155Y-29342321D01*
X11119064Y-29373903D01*
X11140362Y-29441786D01*
X11167026Y-29526768D01*
X11170078Y-29532266D01*
X11170079Y-29532269D01*
X11257788Y-29690291D01*
X11260841Y-29695791D01*
X11386760Y-29842468D01*
X11391729Y-29846314D01*
X11391732Y-29846317D01*
X11410342Y-29860722D01*
X11539627Y-29960796D01*
X11713184Y-30045930D01*
X11900326Y-30094385D01*
X12093390Y-30104176D01*
X12284474Y-30074903D01*
X12465753Y-30007764D01*
X12629807Y-29905509D01*
X12769919Y-29772323D01*
X12880353Y-29613658D01*
X12956587Y-29436012D01*
X12995500Y-29246656D01*
X12995500Y-29198206D01*
X18344500Y-29198206D01*
X18344816Y-29201317D01*
X18344817Y-29201329D01*
X18358519Y-29336068D01*
X18359155Y-29342321D01*
X18369064Y-29373903D01*
X18390362Y-29441786D01*
X18417026Y-29526768D01*
X18420078Y-29532266D01*
X18420079Y-29532269D01*
X18507788Y-29690291D01*
X18510841Y-29695791D01*
X18636760Y-29842468D01*
X18641729Y-29846314D01*
X18641732Y-29846317D01*
X18660342Y-29860722D01*
X18789627Y-29960796D01*
X18963184Y-30045930D01*
X19150326Y-30094385D01*
X19343390Y-30104176D01*
X19534474Y-30074903D01*
X19715753Y-30007764D01*
X19879807Y-29905509D01*
X19947353Y-29841302D01*
X28169500Y-29841302D01*
X28169501Y-29844864D01*
X28169912Y-29848411D01*
X28169913Y-29848422D01*
X28171340Y-29860722D01*
X28172415Y-29869991D01*
X28217794Y-29972765D01*
X28297235Y-30052206D01*
X28343693Y-30072719D01*
X28391477Y-30093818D01*
X28391478Y-30093818D01*
X28400009Y-30097585D01*
X28425135Y-30100500D01*
X29514864Y-30100499D01*
X29539991Y-30097585D01*
X29642765Y-30052206D01*
X29722206Y-29972765D01*
X29767585Y-29869991D01*
X29770500Y-29844865D01*
X29770499Y-28755136D01*
X29767585Y-28730009D01*
X29722206Y-28627235D01*
X29642765Y-28547794D01*
X29627833Y-28541201D01*
X29548522Y-28506181D01*
X29548517Y-28506179D01*
X29539991Y-28502415D01*
X29530726Y-28501340D01*
X29518414Y-28499911D01*
X29518401Y-28499910D01*
X29514865Y-28499500D01*
X29511290Y-28499500D01*
X28428714Y-28499500D01*
X28428696Y-28499500D01*
X28425136Y-28499501D01*
X28421589Y-28499912D01*
X28421577Y-28499913D01*
X28409277Y-28501340D01*
X28409275Y-28501340D01*
X28400009Y-28502415D01*
X28391479Y-28506180D01*
X28391476Y-28506182D01*
X28307745Y-28543153D01*
X28307743Y-28543154D01*
X28297235Y-28547794D01*
X28289112Y-28555916D01*
X28289109Y-28555919D01*
X28225919Y-28619109D01*
X28225916Y-28619112D01*
X28217794Y-28627235D01*
X28213154Y-28637743D01*
X28213153Y-28637745D01*
X28176181Y-28721477D01*
X28176179Y-28721484D01*
X28172415Y-28730009D01*
X28171340Y-28739271D01*
X28171340Y-28739273D01*
X28169911Y-28751585D01*
X28169910Y-28751599D01*
X28169500Y-28755135D01*
X28169500Y-28758708D01*
X28169500Y-28758709D01*
X28169500Y-29841285D01*
X28169500Y-29841302D01*
X19947353Y-29841302D01*
X20019919Y-29772323D01*
X20130353Y-29613658D01*
X20206587Y-29436012D01*
X20245500Y-29246656D01*
X20245500Y-28601794D01*
X20230845Y-28457679D01*
X20172974Y-28273232D01*
X20079159Y-28104209D01*
X20075546Y-28100000D01*
X48544341Y-28100000D01*
X48564937Y-28335408D01*
X48566336Y-28340630D01*
X48566337Y-28340634D01*
X48624694Y-28558430D01*
X48624697Y-28558438D01*
X48626097Y-28563663D01*
X48725965Y-28777829D01*
X48861505Y-28971401D01*
X49028599Y-29138495D01*
X49222171Y-29274035D01*
X49436337Y-29373903D01*
X49664592Y-29435063D01*
X49841034Y-29450500D01*
X49956258Y-29450500D01*
X49958966Y-29450500D01*
X50135408Y-29435063D01*
X50363663Y-29373903D01*
X50577829Y-29274035D01*
X50771401Y-29138495D01*
X50938495Y-28971401D01*
X51074035Y-28777830D01*
X51173903Y-28563663D01*
X51235063Y-28335408D01*
X51255659Y-28100000D01*
X51235063Y-27864592D01*
X51173903Y-27636337D01*
X51074035Y-27422171D01*
X50938495Y-27228599D01*
X50771401Y-27061505D01*
X50577829Y-26925965D01*
X50363663Y-26826097D01*
X50358438Y-26824697D01*
X50358430Y-26824694D01*
X50140634Y-26766337D01*
X50140630Y-26766336D01*
X50135408Y-26764937D01*
X50130020Y-26764465D01*
X50130017Y-26764465D01*
X49961664Y-26749736D01*
X49961662Y-26749735D01*
X49958966Y-26749500D01*
X49841034Y-26749500D01*
X49838338Y-26749735D01*
X49838335Y-26749736D01*
X49669982Y-26764465D01*
X49669977Y-26764465D01*
X49664592Y-26764937D01*
X49659371Y-26766335D01*
X49659365Y-26766337D01*
X49441569Y-26824694D01*
X49441557Y-26824698D01*
X49436337Y-26826097D01*
X49431432Y-26828383D01*
X49431427Y-26828386D01*
X49227081Y-26923675D01*
X49227077Y-26923677D01*
X49222171Y-26925965D01*
X49217738Y-26929068D01*
X49217731Y-26929073D01*
X49033034Y-27058399D01*
X49033029Y-27058402D01*
X49028599Y-27061505D01*
X49024775Y-27065328D01*
X49024769Y-27065334D01*
X48865336Y-27224767D01*
X48865330Y-27224773D01*
X48861505Y-27228599D01*
X48858406Y-27233023D01*
X48858399Y-27233033D01*
X48729066Y-27417740D01*
X48729061Y-27417747D01*
X48725965Y-27422170D01*
X48723683Y-27427061D01*
X48723678Y-27427072D01*
X48628386Y-27631427D01*
X48628383Y-27631432D01*
X48626097Y-27636337D01*
X48624698Y-27641557D01*
X48624694Y-27641569D01*
X48566337Y-27859365D01*
X48566335Y-27859371D01*
X48564937Y-27864592D01*
X48564465Y-27869977D01*
X48564465Y-27869982D01*
X48550217Y-28032836D01*
X48544341Y-28100000D01*
X20075546Y-28100000D01*
X19953240Y-27957532D01*
X19948270Y-27953685D01*
X19948267Y-27953682D01*
X19840135Y-27869982D01*
X19800373Y-27839204D01*
X19794727Y-27836434D01*
X19794723Y-27836432D01*
X19632463Y-27756840D01*
X19626816Y-27754070D01*
X19620723Y-27752492D01*
X19620722Y-27752492D01*
X19511236Y-27724144D01*
X19439674Y-27705615D01*
X19433391Y-27705296D01*
X19433389Y-27705296D01*
X19252891Y-27696142D01*
X19252885Y-27696142D01*
X19246610Y-27695824D01*
X19240397Y-27696775D01*
X19240391Y-27696776D01*
X19061740Y-27724144D01*
X19061730Y-27724146D01*
X19055526Y-27725097D01*
X19049638Y-27727277D01*
X19049629Y-27727280D01*
X18880148Y-27790050D01*
X18880143Y-27790051D01*
X18874247Y-27792236D01*
X18868913Y-27795560D01*
X18868906Y-27795564D01*
X18715529Y-27891164D01*
X18715521Y-27891169D01*
X18710193Y-27894491D01*
X18705638Y-27898819D01*
X18705635Y-27898823D01*
X18574637Y-28023345D01*
X18574631Y-28023351D01*
X18570081Y-28027677D01*
X18566491Y-28032834D01*
X18566490Y-28032836D01*
X18463237Y-28181183D01*
X18463233Y-28181188D01*
X18459647Y-28186342D01*
X18457171Y-28192111D01*
X18457168Y-28192117D01*
X18393435Y-28340634D01*
X18383413Y-28363988D01*
X18382148Y-28370138D01*
X18382148Y-28370142D01*
X18345765Y-28547185D01*
X18345764Y-28547191D01*
X18344500Y-28553344D01*
X18344500Y-29198206D01*
X12995500Y-29198206D01*
X12995500Y-28601794D01*
X12980845Y-28457679D01*
X12922974Y-28273232D01*
X12829159Y-28104209D01*
X12703240Y-27957532D01*
X12698270Y-27953685D01*
X12698267Y-27953682D01*
X12590135Y-27869982D01*
X12550373Y-27839204D01*
X12544727Y-27836434D01*
X12544723Y-27836432D01*
X12382463Y-27756840D01*
X12376816Y-27754070D01*
X12370723Y-27752492D01*
X12370722Y-27752492D01*
X12261236Y-27724144D01*
X12189674Y-27705615D01*
X12183391Y-27705296D01*
X12183389Y-27705296D01*
X12002891Y-27696142D01*
X12002885Y-27696142D01*
X11996610Y-27695824D01*
X11990397Y-27696775D01*
X11990391Y-27696776D01*
X11811740Y-27724144D01*
X11811730Y-27724146D01*
X11805526Y-27725097D01*
X11799638Y-27727277D01*
X11799629Y-27727280D01*
X11630148Y-27790050D01*
X11630143Y-27790051D01*
X11624247Y-27792236D01*
X11618913Y-27795560D01*
X11618906Y-27795564D01*
X11465529Y-27891164D01*
X11465521Y-27891169D01*
X11460193Y-27894491D01*
X11455638Y-27898819D01*
X11455635Y-27898823D01*
X11324637Y-28023345D01*
X11324631Y-28023351D01*
X11320081Y-28027677D01*
X11316491Y-28032834D01*
X11316490Y-28032836D01*
X11213237Y-28181183D01*
X11213233Y-28181188D01*
X11209647Y-28186342D01*
X11207171Y-28192111D01*
X11207168Y-28192117D01*
X11143435Y-28340634D01*
X11133413Y-28363988D01*
X11132148Y-28370138D01*
X11132148Y-28370142D01*
X11095765Y-28547185D01*
X11095764Y-28547191D01*
X11094500Y-28553344D01*
X11094500Y-29198206D01*
X2986124Y-29198206D01*
X3071401Y-29138495D01*
X3238495Y-28971401D01*
X3374035Y-28777830D01*
X3473903Y-28563663D01*
X3535063Y-28335408D01*
X3555659Y-28100000D01*
X3535063Y-27864592D01*
X3473903Y-27636337D01*
X3410328Y-27500000D01*
X14964355Y-27500000D01*
X14965259Y-27507445D01*
X14983955Y-27661423D01*
X14983956Y-27661427D01*
X14984860Y-27668872D01*
X14987518Y-27675882D01*
X14987520Y-27675888D01*
X15018221Y-27756840D01*
X15045182Y-27827930D01*
X15049444Y-27834105D01*
X15049445Y-27834106D01*
X15088829Y-27891164D01*
X15141817Y-27967929D01*
X15269148Y-28080734D01*
X15419775Y-28159790D01*
X15584944Y-28200500D01*
X15747556Y-28200500D01*
X15755056Y-28200500D01*
X15920225Y-28159790D01*
X16070852Y-28080734D01*
X16198183Y-27967929D01*
X16294818Y-27827930D01*
X16355140Y-27668872D01*
X16375645Y-27500000D01*
X16355140Y-27331128D01*
X16294818Y-27172070D01*
X16198183Y-27032071D01*
X16070852Y-26919266D01*
X16035383Y-26900650D01*
X15926866Y-26843695D01*
X15926862Y-26843693D01*
X15920225Y-26840210D01*
X15912947Y-26838416D01*
X15912944Y-26838415D01*
X15762337Y-26801294D01*
X15762332Y-26801293D01*
X15755056Y-26799500D01*
X15584944Y-26799500D01*
X15577668Y-26801293D01*
X15577662Y-26801294D01*
X15427055Y-26838415D01*
X15427050Y-26838416D01*
X15419775Y-26840210D01*
X15413140Y-26843692D01*
X15413133Y-26843695D01*
X15275791Y-26915779D01*
X15275788Y-26915780D01*
X15269148Y-26919266D01*
X15263537Y-26924236D01*
X15263531Y-26924241D01*
X15147430Y-27027098D01*
X15141817Y-27032071D01*
X15137562Y-27038235D01*
X15137557Y-27038241D01*
X15049445Y-27165893D01*
X15049442Y-27165897D01*
X15045182Y-27172070D01*
X15042523Y-27179081D01*
X15042520Y-27179087D01*
X14987520Y-27324111D01*
X14987517Y-27324119D01*
X14984860Y-27331128D01*
X14983956Y-27338570D01*
X14983955Y-27338576D01*
X14974344Y-27417731D01*
X14964355Y-27500000D01*
X3410328Y-27500000D01*
X3374035Y-27422171D01*
X3238495Y-27228599D01*
X3071401Y-27061505D01*
X2877829Y-26925965D01*
X2663663Y-26826097D01*
X2658438Y-26824697D01*
X2658430Y-26824694D01*
X2440634Y-26766337D01*
X2440630Y-26766336D01*
X2435408Y-26764937D01*
X2430020Y-26764465D01*
X2430017Y-26764465D01*
X2261664Y-26749736D01*
X2261662Y-26749735D01*
X2258966Y-26749500D01*
X2141034Y-26749500D01*
X2138338Y-26749735D01*
X2138335Y-26749736D01*
X1969982Y-26764465D01*
X1969977Y-26764465D01*
X1964592Y-26764937D01*
X1959371Y-26766335D01*
X1959365Y-26766337D01*
X1741569Y-26824694D01*
X1741557Y-26824698D01*
X1736337Y-26826097D01*
X1731432Y-26828383D01*
X1731427Y-26828386D01*
X1527081Y-26923675D01*
X1527077Y-26923677D01*
X1522171Y-26925965D01*
X1517738Y-26929068D01*
X1517731Y-26929073D01*
X1333034Y-27058399D01*
X1333029Y-27058402D01*
X1328599Y-27061505D01*
X1324775Y-27065328D01*
X1324769Y-27065334D01*
X1165336Y-27224767D01*
X1165330Y-27224773D01*
X1161505Y-27228599D01*
X1158406Y-27233023D01*
X1158399Y-27233033D01*
X1029066Y-27417740D01*
X1029061Y-27417747D01*
X1025965Y-27422170D01*
X1023683Y-27427061D01*
X1023678Y-27427072D01*
X928386Y-27631427D01*
X928383Y-27631432D01*
X926097Y-27636337D01*
X924698Y-27641557D01*
X924694Y-27641569D01*
X866337Y-27859365D01*
X866335Y-27859371D01*
X864937Y-27864592D01*
X864465Y-27869977D01*
X864465Y-27869982D01*
X850217Y-28032836D01*
X844341Y-28100000D01*
X500Y-28100000D01*
X500Y-25900000D01*
X10564355Y-25900000D01*
X10565259Y-25907445D01*
X10583955Y-26061423D01*
X10583956Y-26061427D01*
X10584860Y-26068872D01*
X10587518Y-26075882D01*
X10587520Y-26075888D01*
X10642520Y-26220912D01*
X10645182Y-26227930D01*
X10649444Y-26234105D01*
X10649445Y-26234106D01*
X10722683Y-26340210D01*
X10741817Y-26367929D01*
X10869148Y-26480734D01*
X11019775Y-26559790D01*
X11184944Y-26600500D01*
X11347556Y-26600500D01*
X11355056Y-26600500D01*
X11520225Y-26559790D01*
X11670852Y-26480734D01*
X11798183Y-26367929D01*
X11894818Y-26227930D01*
X11955140Y-26068872D01*
X11975645Y-25900000D01*
X11955140Y-25731128D01*
X11941310Y-25694662D01*
X11900157Y-25586148D01*
X11894818Y-25572070D01*
X11880122Y-25550780D01*
X11860582Y-25522471D01*
X11839535Y-25466977D01*
X11846689Y-25408060D01*
X11880403Y-25359215D01*
X11932955Y-25331633D01*
X11992306Y-25331633D01*
X12044857Y-25359214D01*
X12069148Y-25380734D01*
X12219775Y-25459790D01*
X12227055Y-25461584D01*
X12227057Y-25461585D01*
X12231650Y-25462717D01*
X12384616Y-25500419D01*
X12436815Y-25527689D01*
X12470546Y-25575967D01*
X12478198Y-25634363D01*
X12458045Y-25689702D01*
X12454725Y-25694669D01*
X12450864Y-25699375D01*
X12447995Y-25704742D01*
X12447990Y-25704750D01*
X12365474Y-25859128D01*
X12365471Y-25859134D01*
X12362604Y-25864499D01*
X12360840Y-25870312D01*
X12360837Y-25870321D01*
X12310020Y-26037841D01*
X12310018Y-26037849D01*
X12308253Y-26043669D01*
X12307656Y-26049721D01*
X12307655Y-26049731D01*
X12291255Y-26216247D01*
X12289901Y-26230000D01*
X12290498Y-26236061D01*
X12307655Y-26410268D01*
X12307656Y-26410276D01*
X12308253Y-26416331D01*
X12310018Y-26422152D01*
X12310020Y-26422158D01*
X12360837Y-26589678D01*
X12360839Y-26589683D01*
X12362604Y-26595501D01*
X12450864Y-26760625D01*
X12569643Y-26905357D01*
X12714375Y-27024136D01*
X12879499Y-27112396D01*
X13058669Y-27166747D01*
X13245000Y-27185099D01*
X13431331Y-27166747D01*
X13610501Y-27112396D01*
X13775625Y-27024136D01*
X13920357Y-26905357D01*
X14039136Y-26760625D01*
X14127396Y-26595501D01*
X14181747Y-26416331D01*
X14200099Y-26230000D01*
X17139901Y-26230000D01*
X17140498Y-26236061D01*
X17157655Y-26410268D01*
X17157656Y-26410276D01*
X17158253Y-26416331D01*
X17160018Y-26422152D01*
X17160020Y-26422158D01*
X17210837Y-26589678D01*
X17210839Y-26589683D01*
X17212604Y-26595501D01*
X17300864Y-26760625D01*
X17419643Y-26905357D01*
X17564375Y-27024136D01*
X17729499Y-27112396D01*
X17908669Y-27166747D01*
X18095000Y-27185099D01*
X18281331Y-27166747D01*
X18460501Y-27112396D01*
X18625625Y-27024136D01*
X18655035Y-27000000D01*
X25564355Y-27000000D01*
X25565259Y-27007445D01*
X25583955Y-27161423D01*
X25583956Y-27161427D01*
X25584860Y-27168872D01*
X25587518Y-27175882D01*
X25587520Y-27175888D01*
X25642520Y-27320912D01*
X25645182Y-27327930D01*
X25649444Y-27334105D01*
X25649445Y-27334106D01*
X25710231Y-27422170D01*
X25741817Y-27467929D01*
X25869148Y-27580734D01*
X26019775Y-27659790D01*
X26184944Y-27700500D01*
X26347556Y-27700500D01*
X26355056Y-27700500D01*
X26520225Y-27659790D01*
X26670852Y-27580734D01*
X26798183Y-27467929D01*
X26894818Y-27327930D01*
X26955140Y-27168872D01*
X26975645Y-27000000D01*
X26955140Y-26831128D01*
X26894818Y-26672070D01*
X26828952Y-26576647D01*
X26802442Y-26538241D01*
X26802441Y-26538240D01*
X26798183Y-26532071D01*
X26670852Y-26419266D01*
X26573039Y-26367929D01*
X26526866Y-26343695D01*
X26526862Y-26343693D01*
X26520225Y-26340210D01*
X26512947Y-26338416D01*
X26512944Y-26338415D01*
X26362337Y-26301294D01*
X26362332Y-26301293D01*
X26355056Y-26299500D01*
X26184944Y-26299500D01*
X26177668Y-26301293D01*
X26177662Y-26301294D01*
X26027055Y-26338415D01*
X26027050Y-26338416D01*
X26019775Y-26340210D01*
X26013140Y-26343692D01*
X26013133Y-26343695D01*
X25875791Y-26415779D01*
X25875788Y-26415780D01*
X25869148Y-26419266D01*
X25863537Y-26424236D01*
X25863531Y-26424241D01*
X25747430Y-26527098D01*
X25741817Y-26532071D01*
X25737562Y-26538235D01*
X25737557Y-26538241D01*
X25649445Y-26665893D01*
X25649442Y-26665897D01*
X25645182Y-26672070D01*
X25642523Y-26679081D01*
X25642520Y-26679087D01*
X25587520Y-26824111D01*
X25587517Y-26824119D01*
X25584860Y-26831128D01*
X25583956Y-26838570D01*
X25583955Y-26838576D01*
X25572967Y-26929073D01*
X25564355Y-27000000D01*
X18655035Y-27000000D01*
X18770357Y-26905357D01*
X18889136Y-26760625D01*
X18977396Y-26595501D01*
X19031747Y-26416331D01*
X19050099Y-26230000D01*
X19031747Y-26043669D01*
X18977396Y-25864499D01*
X18889136Y-25699375D01*
X18770357Y-25554643D01*
X18737514Y-25527689D01*
X18630337Y-25439731D01*
X18630336Y-25439730D01*
X18625625Y-25435864D01*
X18529005Y-25384220D01*
X18465871Y-25350474D01*
X18465868Y-25350472D01*
X18460501Y-25347604D01*
X18454683Y-25345839D01*
X18454678Y-25345837D01*
X18287158Y-25295020D01*
X18287152Y-25295018D01*
X18281331Y-25293253D01*
X18275276Y-25292656D01*
X18275268Y-25292655D01*
X18101061Y-25275498D01*
X18095000Y-25274901D01*
X18088939Y-25275498D01*
X17914731Y-25292655D01*
X17914721Y-25292656D01*
X17908669Y-25293253D01*
X17902849Y-25295018D01*
X17902841Y-25295020D01*
X17735321Y-25345837D01*
X17735312Y-25345840D01*
X17729499Y-25347604D01*
X17724134Y-25350471D01*
X17724128Y-25350474D01*
X17569751Y-25432990D01*
X17569747Y-25432992D01*
X17564375Y-25435864D01*
X17559667Y-25439727D01*
X17559662Y-25439731D01*
X17424349Y-25550780D01*
X17424344Y-25550784D01*
X17419643Y-25554643D01*
X17415784Y-25559344D01*
X17415780Y-25559349D01*
X17304731Y-25694662D01*
X17304727Y-25694667D01*
X17300864Y-25699375D01*
X17297992Y-25704747D01*
X17297990Y-25704751D01*
X17215474Y-25859128D01*
X17215471Y-25859134D01*
X17212604Y-25864499D01*
X17210840Y-25870312D01*
X17210837Y-25870321D01*
X17160020Y-26037841D01*
X17160018Y-26037849D01*
X17158253Y-26043669D01*
X17157656Y-26049721D01*
X17157655Y-26049731D01*
X17141255Y-26216247D01*
X17139901Y-26230000D01*
X14200099Y-26230000D01*
X14181747Y-26043669D01*
X14127396Y-25864499D01*
X14039136Y-25699375D01*
X13932396Y-25569313D01*
X13907892Y-25520483D01*
X13906753Y-25465860D01*
X13929200Y-25416050D01*
X13959398Y-25390450D01*
X13958038Y-25388480D01*
X13964207Y-25384221D01*
X13970852Y-25380734D01*
X14098183Y-25267929D01*
X14194818Y-25127930D01*
X14255140Y-24968872D01*
X14275645Y-24800000D01*
X20144435Y-24800000D01*
X20164632Y-24979255D01*
X20166928Y-24985819D01*
X20166930Y-24985824D01*
X20221913Y-25142956D01*
X20224211Y-25149522D01*
X20227912Y-25155412D01*
X20315633Y-25295020D01*
X20320184Y-25302262D01*
X20447738Y-25429816D01*
X20600478Y-25525789D01*
X20770745Y-25585368D01*
X20950000Y-25605565D01*
X21129255Y-25585368D01*
X21299522Y-25525789D01*
X21452262Y-25429816D01*
X21497319Y-25384758D01*
X21552906Y-25352665D01*
X21617094Y-25352665D01*
X21672680Y-25384758D01*
X21717738Y-25429816D01*
X21870478Y-25525789D01*
X22040745Y-25585368D01*
X22220000Y-25605565D01*
X22399255Y-25585368D01*
X22569522Y-25525789D01*
X22722262Y-25429816D01*
X22767319Y-25384758D01*
X22822906Y-25352665D01*
X22887094Y-25352665D01*
X22942680Y-25384758D01*
X22987738Y-25429816D01*
X23140478Y-25525789D01*
X23310745Y-25585368D01*
X23490000Y-25605565D01*
X23669255Y-25585368D01*
X23725963Y-25565524D01*
X23777437Y-25559014D01*
X23827076Y-25574140D01*
X23866178Y-25608255D01*
X23897497Y-25650091D01*
X23909907Y-25662501D01*
X24010810Y-25738037D01*
X24026222Y-25746452D01*
X24145358Y-25790888D01*
X24160332Y-25794426D01*
X24208885Y-25799646D01*
X24215482Y-25800000D01*
X24493674Y-25800000D01*
X24506549Y-25796549D01*
X24510000Y-25783674D01*
X25010000Y-25783674D01*
X25013450Y-25796549D01*
X25026326Y-25800000D01*
X25304518Y-25800000D01*
X25311114Y-25799646D01*
X25359667Y-25794426D01*
X25374641Y-25790888D01*
X25493777Y-25746452D01*
X25509189Y-25738037D01*
X25610092Y-25662501D01*
X25622501Y-25650092D01*
X25698037Y-25549189D01*
X25706452Y-25533777D01*
X25750888Y-25414641D01*
X25754426Y-25399667D01*
X25759646Y-25351114D01*
X25760000Y-25344518D01*
X25760000Y-25066326D01*
X25756549Y-25053450D01*
X25743674Y-25050000D01*
X25026326Y-25050000D01*
X25013450Y-25053450D01*
X25010000Y-25066326D01*
X25010000Y-25783674D01*
X24510000Y-25783674D01*
X24510000Y-24533674D01*
X25010000Y-24533674D01*
X25013450Y-24546549D01*
X25026326Y-24550000D01*
X25743674Y-24550000D01*
X25756549Y-24546549D01*
X25760000Y-24533674D01*
X25760000Y-24382369D01*
X25772843Y-24327413D01*
X25808712Y-24283841D01*
X25860176Y-24260679D01*
X25916576Y-24262724D01*
X25966226Y-24289553D01*
X26069148Y-24380734D01*
X26219775Y-24459790D01*
X26384944Y-24500500D01*
X26547556Y-24500500D01*
X26555056Y-24500500D01*
X26720225Y-24459790D01*
X26870852Y-24380734D01*
X26998183Y-24267929D01*
X27094818Y-24127930D01*
X27155140Y-23968872D01*
X27175645Y-23800000D01*
X27155140Y-23631128D01*
X27094818Y-23472070D01*
X26998183Y-23332071D01*
X26892467Y-23238415D01*
X26876468Y-23224241D01*
X26876466Y-23224239D01*
X26870852Y-23219266D01*
X26836610Y-23201294D01*
X26726866Y-23143695D01*
X26726862Y-23143693D01*
X26720225Y-23140210D01*
X26712947Y-23138416D01*
X26712944Y-23138415D01*
X26562337Y-23101294D01*
X26562332Y-23101293D01*
X26555056Y-23099500D01*
X26384944Y-23099500D01*
X26377668Y-23101293D01*
X26377662Y-23101294D01*
X26227055Y-23138415D01*
X26227050Y-23138416D01*
X26219775Y-23140210D01*
X26213140Y-23143692D01*
X26213133Y-23143695D01*
X26075791Y-23215779D01*
X26075788Y-23215780D01*
X26069148Y-23219266D01*
X26063537Y-23224236D01*
X26063531Y-23224241D01*
X25950655Y-23324241D01*
X25941817Y-23332071D01*
X25937562Y-23338235D01*
X25937557Y-23338241D01*
X25849445Y-23465893D01*
X25849442Y-23465897D01*
X25845182Y-23472070D01*
X25842523Y-23479081D01*
X25842520Y-23479087D01*
X25787520Y-23624111D01*
X25787517Y-23624119D01*
X25784860Y-23631128D01*
X25783956Y-23638570D01*
X25783955Y-23638576D01*
X25771813Y-23738576D01*
X25764355Y-23800000D01*
X25765130Y-23806386D01*
X25746754Y-23871101D01*
X25696763Y-23916818D01*
X25630206Y-23929440D01*
X25566947Y-23905200D01*
X25509190Y-23861962D01*
X25493777Y-23853547D01*
X25374641Y-23809111D01*
X25359667Y-23805573D01*
X25311114Y-23800353D01*
X25304518Y-23800000D01*
X25026326Y-23800000D01*
X25013450Y-23803450D01*
X25010000Y-23816326D01*
X25010000Y-24533674D01*
X24510000Y-24533674D01*
X24510000Y-23816326D01*
X24506549Y-23803450D01*
X24493674Y-23800000D01*
X24215482Y-23800000D01*
X24208885Y-23800353D01*
X24160332Y-23805573D01*
X24145358Y-23809111D01*
X24026222Y-23853547D01*
X24010810Y-23861962D01*
X23909907Y-23937498D01*
X23897496Y-23949909D01*
X23866178Y-23991744D01*
X23827077Y-24025857D01*
X23777440Y-24040983D01*
X23725959Y-24034473D01*
X23675827Y-24016931D01*
X23675821Y-24016929D01*
X23669255Y-24014632D01*
X23662335Y-24013852D01*
X23662334Y-24013852D01*
X23496923Y-23995215D01*
X23490000Y-23994435D01*
X23483077Y-23995215D01*
X23317665Y-24013852D01*
X23317662Y-24013852D01*
X23310745Y-24014632D01*
X23304182Y-24016928D01*
X23304175Y-24016930D01*
X23147043Y-24071913D01*
X23147036Y-24071915D01*
X23140478Y-24074211D01*
X23134590Y-24077910D01*
X23134587Y-24077912D01*
X22993638Y-24166476D01*
X22993633Y-24166479D01*
X22987738Y-24170184D01*
X22982813Y-24175108D01*
X22982809Y-24175112D01*
X22942681Y-24215241D01*
X22887094Y-24247335D01*
X22822906Y-24247335D01*
X22767319Y-24215241D01*
X22727190Y-24175112D01*
X22722262Y-24170184D01*
X22668369Y-24136321D01*
X22575412Y-24077912D01*
X22569522Y-24074211D01*
X22562959Y-24071914D01*
X22562956Y-24071913D01*
X22405824Y-24016930D01*
X22405819Y-24016928D01*
X22399255Y-24014632D01*
X22392335Y-24013852D01*
X22392334Y-24013852D01*
X22226923Y-23995215D01*
X22220000Y-23994435D01*
X22213077Y-23995215D01*
X22047665Y-24013852D01*
X22047662Y-24013852D01*
X22040745Y-24014632D01*
X22034182Y-24016928D01*
X22034175Y-24016930D01*
X21877043Y-24071913D01*
X21877036Y-24071915D01*
X21870478Y-24074211D01*
X21864590Y-24077910D01*
X21864587Y-24077912D01*
X21723638Y-24166476D01*
X21723633Y-24166479D01*
X21717738Y-24170184D01*
X21712813Y-24175108D01*
X21712809Y-24175112D01*
X21672681Y-24215241D01*
X21617094Y-24247335D01*
X21552906Y-24247335D01*
X21497319Y-24215241D01*
X21457190Y-24175112D01*
X21452262Y-24170184D01*
X21398369Y-24136321D01*
X21305412Y-24077912D01*
X21299522Y-24074211D01*
X21292959Y-24071914D01*
X21292956Y-24071913D01*
X21135824Y-24016930D01*
X21135819Y-24016928D01*
X21129255Y-24014632D01*
X21122335Y-24013852D01*
X21122334Y-24013852D01*
X20956923Y-23995215D01*
X20950000Y-23994435D01*
X20943077Y-23995215D01*
X20777665Y-24013852D01*
X20777662Y-24013852D01*
X20770745Y-24014632D01*
X20764182Y-24016928D01*
X20764175Y-24016930D01*
X20607043Y-24071913D01*
X20607036Y-24071915D01*
X20600478Y-24074211D01*
X20594590Y-24077910D01*
X20594587Y-24077912D01*
X20453638Y-24166476D01*
X20453633Y-24166479D01*
X20447738Y-24170184D01*
X20442813Y-24175108D01*
X20442809Y-24175112D01*
X20325112Y-24292809D01*
X20325108Y-24292813D01*
X20320184Y-24297738D01*
X20316479Y-24303633D01*
X20316476Y-24303638D01*
X20227912Y-24444587D01*
X20227910Y-24444590D01*
X20224211Y-24450478D01*
X20221915Y-24457036D01*
X20221913Y-24457043D01*
X20166930Y-24614175D01*
X20166928Y-24614182D01*
X20164632Y-24620745D01*
X20144435Y-24800000D01*
X14275645Y-24800000D01*
X14255140Y-24631128D01*
X14243524Y-24600500D01*
X14197479Y-24479087D01*
X14194818Y-24472070D01*
X14098183Y-24332071D01*
X14096031Y-24330164D01*
X14069532Y-24279675D01*
X14069532Y-24220325D01*
X14096031Y-24169835D01*
X14098183Y-24167929D01*
X14194818Y-24027930D01*
X14243335Y-23900000D01*
X15364355Y-23900000D01*
X15365259Y-23907445D01*
X15383955Y-24061423D01*
X15383956Y-24061427D01*
X15384860Y-24068872D01*
X15387518Y-24075882D01*
X15387520Y-24075888D01*
X15442520Y-24220912D01*
X15445182Y-24227930D01*
X15449444Y-24234105D01*
X15449445Y-24234106D01*
X15521324Y-24338241D01*
X15541817Y-24367929D01*
X15669148Y-24480734D01*
X15819775Y-24559790D01*
X15984944Y-24600500D01*
X16147556Y-24600500D01*
X16155056Y-24600500D01*
X16320225Y-24559790D01*
X16470852Y-24480734D01*
X16598183Y-24367929D01*
X16694818Y-24227930D01*
X16755140Y-24068872D01*
X16775645Y-23900000D01*
X16755140Y-23731128D01*
X16694818Y-23572070D01*
X16598183Y-23432071D01*
X16519374Y-23362252D01*
X16476468Y-23324241D01*
X16476466Y-23324239D01*
X16470852Y-23319266D01*
X16445823Y-23306129D01*
X16326866Y-23243695D01*
X16326862Y-23243693D01*
X16320225Y-23240210D01*
X16312947Y-23238416D01*
X16312944Y-23238415D01*
X16162337Y-23201294D01*
X16162332Y-23201293D01*
X16155056Y-23199500D01*
X15984944Y-23199500D01*
X15977668Y-23201293D01*
X15977662Y-23201294D01*
X15827055Y-23238415D01*
X15827050Y-23238416D01*
X15819775Y-23240210D01*
X15813140Y-23243692D01*
X15813133Y-23243695D01*
X15675791Y-23315779D01*
X15675788Y-23315780D01*
X15669148Y-23319266D01*
X15663537Y-23324236D01*
X15663531Y-23324241D01*
X15547430Y-23427098D01*
X15541817Y-23432071D01*
X15537562Y-23438235D01*
X15537557Y-23438241D01*
X15449445Y-23565893D01*
X15449442Y-23565897D01*
X15445182Y-23572070D01*
X15442523Y-23579081D01*
X15442520Y-23579087D01*
X15387520Y-23724111D01*
X15387517Y-23724119D01*
X15384860Y-23731128D01*
X15383956Y-23738570D01*
X15383955Y-23738576D01*
X15375593Y-23807445D01*
X15364355Y-23900000D01*
X14243335Y-23900000D01*
X14255140Y-23868872D01*
X14275645Y-23700000D01*
X14255140Y-23531128D01*
X14194818Y-23372070D01*
X14098183Y-23232071D01*
X13970852Y-23119266D01*
X13936610Y-23101294D01*
X13826866Y-23043695D01*
X13826862Y-23043693D01*
X13820225Y-23040210D01*
X13812947Y-23038416D01*
X13812944Y-23038415D01*
X13662337Y-23001294D01*
X13662332Y-23001293D01*
X13655056Y-22999500D01*
X13484944Y-22999500D01*
X13477668Y-23001293D01*
X13477662Y-23001294D01*
X13327055Y-23038415D01*
X13327050Y-23038416D01*
X13319775Y-23040210D01*
X13313140Y-23043692D01*
X13313133Y-23043695D01*
X13175791Y-23115779D01*
X13175788Y-23115780D01*
X13169148Y-23119266D01*
X13147533Y-23138415D01*
X13102225Y-23178554D01*
X13049673Y-23206134D01*
X12990323Y-23206134D01*
X12937772Y-23178552D01*
X12876468Y-23124241D01*
X12876464Y-23124238D01*
X12870852Y-23119266D01*
X12836610Y-23101294D01*
X12726866Y-23043695D01*
X12726862Y-23043693D01*
X12720225Y-23040210D01*
X12712947Y-23038416D01*
X12712944Y-23038415D01*
X12562337Y-23001294D01*
X12562332Y-23001293D01*
X12555056Y-22999500D01*
X12384944Y-22999500D01*
X12377668Y-23001293D01*
X12377662Y-23001294D01*
X12227055Y-23038415D01*
X12227050Y-23038416D01*
X12219775Y-23040210D01*
X12213140Y-23043692D01*
X12213133Y-23043695D01*
X12075791Y-23115779D01*
X12075788Y-23115780D01*
X12069148Y-23119266D01*
X11976558Y-23201294D01*
X11952227Y-23222849D01*
X11899675Y-23250430D01*
X11840325Y-23250430D01*
X11787773Y-23222849D01*
X11779793Y-23215779D01*
X11670852Y-23119266D01*
X11636610Y-23101294D01*
X11526866Y-23043695D01*
X11526862Y-23043693D01*
X11520225Y-23040210D01*
X11512947Y-23038416D01*
X11512944Y-23038415D01*
X11362337Y-23001294D01*
X11362332Y-23001293D01*
X11355056Y-22999500D01*
X11184944Y-22999500D01*
X11177668Y-23001293D01*
X11177662Y-23001294D01*
X11027055Y-23038415D01*
X11027050Y-23038416D01*
X11019775Y-23040210D01*
X11013140Y-23043692D01*
X11013133Y-23043695D01*
X10875791Y-23115779D01*
X10875788Y-23115780D01*
X10869148Y-23119266D01*
X10863537Y-23124236D01*
X10863531Y-23124241D01*
X10750655Y-23224241D01*
X10741817Y-23232071D01*
X10737562Y-23238235D01*
X10737557Y-23238241D01*
X10649445Y-23365893D01*
X10649442Y-23365897D01*
X10645182Y-23372070D01*
X10642523Y-23379081D01*
X10642520Y-23379087D01*
X10587520Y-23524111D01*
X10587517Y-23524119D01*
X10584860Y-23531128D01*
X10583956Y-23538570D01*
X10583955Y-23538576D01*
X10571813Y-23638576D01*
X10564355Y-23700000D01*
X10565259Y-23707445D01*
X10583955Y-23861423D01*
X10583956Y-23861427D01*
X10584860Y-23868872D01*
X10587518Y-23875882D01*
X10587520Y-23875888D01*
X10642520Y-24020912D01*
X10645182Y-24027930D01*
X10649444Y-24034105D01*
X10649445Y-24034106D01*
X10718470Y-24134106D01*
X10741817Y-24167929D01*
X10743968Y-24169835D01*
X10770468Y-24220325D01*
X10770468Y-24279675D01*
X10743968Y-24330164D01*
X10741817Y-24332071D01*
X10737562Y-24338235D01*
X10737557Y-24338241D01*
X10649445Y-24465893D01*
X10649442Y-24465897D01*
X10645182Y-24472070D01*
X10642523Y-24479081D01*
X10642520Y-24479087D01*
X10587520Y-24624111D01*
X10587517Y-24624119D01*
X10584860Y-24631128D01*
X10583956Y-24638570D01*
X10583955Y-24638576D01*
X10565356Y-24791755D01*
X10564355Y-24800000D01*
X10565259Y-24807445D01*
X10583955Y-24961423D01*
X10583956Y-24961427D01*
X10584860Y-24968872D01*
X10587518Y-24975882D01*
X10587520Y-24975888D01*
X10642520Y-25120912D01*
X10645182Y-25127930D01*
X10741817Y-25267929D01*
X10743966Y-25269833D01*
X10770467Y-25320319D01*
X10770469Y-25379669D01*
X10743972Y-25430161D01*
X10741817Y-25432071D01*
X10737557Y-25438242D01*
X10737554Y-25438246D01*
X10649445Y-25565893D01*
X10649442Y-25565897D01*
X10645182Y-25572070D01*
X10642523Y-25579081D01*
X10642520Y-25579087D01*
X10587520Y-25724111D01*
X10587517Y-25724119D01*
X10584860Y-25731128D01*
X10583956Y-25738570D01*
X10583955Y-25738576D01*
X10577174Y-25794426D01*
X10564355Y-25900000D01*
X500Y-25900000D01*
X500Y-20600000D01*
X18264355Y-20600000D01*
X18265259Y-20607445D01*
X18283955Y-20761423D01*
X18283956Y-20761427D01*
X18284860Y-20768872D01*
X18287518Y-20775882D01*
X18287520Y-20775888D01*
X18305858Y-20824241D01*
X18345182Y-20927930D01*
X18441817Y-21067929D01*
X18569148Y-21180734D01*
X18719775Y-21259790D01*
X18884944Y-21300500D01*
X19047556Y-21300500D01*
X19055056Y-21300500D01*
X19220225Y-21259790D01*
X19370852Y-21180734D01*
X19498183Y-21067929D01*
X19594818Y-20927930D01*
X19643335Y-20800000D01*
X25664355Y-20800000D01*
X25665259Y-20807445D01*
X25683955Y-20961423D01*
X25683956Y-20961427D01*
X25684860Y-20968872D01*
X25687518Y-20975882D01*
X25687520Y-20975888D01*
X25742520Y-21120912D01*
X25745182Y-21127930D01*
X25749444Y-21134105D01*
X25749445Y-21134106D01*
X25833792Y-21256304D01*
X25841817Y-21267929D01*
X25969148Y-21380734D01*
X26119775Y-21459790D01*
X26284944Y-21500500D01*
X26447556Y-21500500D01*
X26455056Y-21500500D01*
X26620225Y-21459790D01*
X26770852Y-21380734D01*
X26898183Y-21267929D01*
X26917951Y-21239290D01*
X26962374Y-21199935D01*
X27020000Y-21185731D01*
X27077626Y-21199935D01*
X27122048Y-21239290D01*
X27141817Y-21267929D01*
X27269148Y-21380734D01*
X27419775Y-21459790D01*
X27584944Y-21500500D01*
X27747556Y-21500500D01*
X27755056Y-21500500D01*
X27920225Y-21459790D01*
X28070852Y-21380734D01*
X28198183Y-21267929D01*
X28217951Y-21239290D01*
X28262374Y-21199935D01*
X28320000Y-21185731D01*
X28377626Y-21199935D01*
X28422048Y-21239290D01*
X28441817Y-21267929D01*
X28569148Y-21380734D01*
X28719775Y-21459790D01*
X28884944Y-21500500D01*
X29047556Y-21500500D01*
X29055056Y-21500500D01*
X29220225Y-21459790D01*
X29370852Y-21380734D01*
X29498183Y-21267929D01*
X29517951Y-21239290D01*
X29562374Y-21199935D01*
X29620000Y-21185731D01*
X29677626Y-21199935D01*
X29722048Y-21239290D01*
X29741817Y-21267929D01*
X29869148Y-21380734D01*
X30019775Y-21459790D01*
X30184944Y-21500500D01*
X30347556Y-21500500D01*
X30355056Y-21500500D01*
X30520225Y-21459790D01*
X30670852Y-21380734D01*
X30798183Y-21267929D01*
X30817951Y-21239290D01*
X30862374Y-21199935D01*
X30920000Y-21185731D01*
X30977626Y-21199935D01*
X31022048Y-21239290D01*
X31041817Y-21267929D01*
X31169148Y-21380734D01*
X31319775Y-21459790D01*
X31484944Y-21500500D01*
X31647556Y-21500500D01*
X31655056Y-21500500D01*
X31820225Y-21459790D01*
X31970852Y-21380734D01*
X32098183Y-21267929D01*
X32117951Y-21239290D01*
X32162374Y-21199935D01*
X32220000Y-21185731D01*
X32277626Y-21199935D01*
X32322048Y-21239290D01*
X32341817Y-21267929D01*
X32469148Y-21380734D01*
X32619775Y-21459790D01*
X32784944Y-21500500D01*
X32947556Y-21500500D01*
X32955056Y-21500500D01*
X33120225Y-21459790D01*
X33234144Y-21400000D01*
X36264355Y-21400000D01*
X36265259Y-21407445D01*
X36283955Y-21561423D01*
X36283956Y-21561427D01*
X36284860Y-21568872D01*
X36287518Y-21575882D01*
X36287520Y-21575888D01*
X36342520Y-21720912D01*
X36345182Y-21727930D01*
X36441817Y-21867929D01*
X36569148Y-21980734D01*
X36719775Y-22059790D01*
X36884944Y-22100500D01*
X37047556Y-22100500D01*
X37055056Y-22100500D01*
X37220225Y-22059790D01*
X37370852Y-21980734D01*
X37498183Y-21867929D01*
X37594818Y-21727930D01*
X37655140Y-21568872D01*
X37675645Y-21400000D01*
X37655140Y-21231128D01*
X37594818Y-21072070D01*
X37498183Y-20932071D01*
X37370852Y-20819266D01*
X37288203Y-20775888D01*
X37226866Y-20743695D01*
X37226862Y-20743693D01*
X37220225Y-20740210D01*
X37212947Y-20738416D01*
X37212944Y-20738415D01*
X37062337Y-20701294D01*
X37062332Y-20701293D01*
X37055056Y-20699500D01*
X36884944Y-20699500D01*
X36877668Y-20701293D01*
X36877662Y-20701294D01*
X36727055Y-20738415D01*
X36727050Y-20738416D01*
X36719775Y-20740210D01*
X36713140Y-20743692D01*
X36713133Y-20743695D01*
X36575791Y-20815779D01*
X36575788Y-20815780D01*
X36569148Y-20819266D01*
X36563537Y-20824236D01*
X36563531Y-20824241D01*
X36454413Y-20920912D01*
X36441817Y-20932071D01*
X36437562Y-20938235D01*
X36437557Y-20938241D01*
X36349445Y-21065893D01*
X36349442Y-21065897D01*
X36345182Y-21072070D01*
X36342523Y-21079081D01*
X36342520Y-21079087D01*
X36287520Y-21224111D01*
X36287517Y-21224119D01*
X36284860Y-21231128D01*
X36283956Y-21238570D01*
X36283955Y-21238576D01*
X36266694Y-21380734D01*
X36264355Y-21400000D01*
X33234144Y-21400000D01*
X33270852Y-21380734D01*
X33398183Y-21267929D01*
X33494818Y-21127930D01*
X33555140Y-20968872D01*
X33575645Y-20800000D01*
X33555140Y-20631128D01*
X33494818Y-20472070D01*
X33398183Y-20332071D01*
X33270852Y-20219266D01*
X33245823Y-20206129D01*
X33126866Y-20143695D01*
X33126862Y-20143693D01*
X33120225Y-20140210D01*
X33112947Y-20138416D01*
X33112944Y-20138415D01*
X32962337Y-20101294D01*
X32962332Y-20101293D01*
X32955056Y-20099500D01*
X32784944Y-20099500D01*
X32777668Y-20101293D01*
X32777662Y-20101294D01*
X32627055Y-20138415D01*
X32627050Y-20138416D01*
X32619775Y-20140210D01*
X32613140Y-20143692D01*
X32613133Y-20143695D01*
X32475791Y-20215779D01*
X32475788Y-20215780D01*
X32469148Y-20219266D01*
X32463537Y-20224236D01*
X32463531Y-20224241D01*
X32347430Y-20327098D01*
X32341817Y-20332071D01*
X32337559Y-20338239D01*
X32337556Y-20338243D01*
X32322049Y-20360709D01*
X32277625Y-20400065D01*
X32220000Y-20414268D01*
X32162375Y-20400065D01*
X32117951Y-20360709D01*
X32102443Y-20338243D01*
X32098183Y-20332071D01*
X31970852Y-20219266D01*
X31945823Y-20206129D01*
X31826866Y-20143695D01*
X31826862Y-20143693D01*
X31820225Y-20140210D01*
X31812947Y-20138416D01*
X31812944Y-20138415D01*
X31662337Y-20101294D01*
X31662332Y-20101293D01*
X31655056Y-20099500D01*
X31484944Y-20099500D01*
X31477668Y-20101293D01*
X31477662Y-20101294D01*
X31327055Y-20138415D01*
X31327050Y-20138416D01*
X31319775Y-20140210D01*
X31313140Y-20143692D01*
X31313133Y-20143695D01*
X31175791Y-20215779D01*
X31175788Y-20215780D01*
X31169148Y-20219266D01*
X31163537Y-20224236D01*
X31163531Y-20224241D01*
X31047430Y-20327098D01*
X31041817Y-20332071D01*
X31037559Y-20338239D01*
X31037556Y-20338243D01*
X31022049Y-20360709D01*
X30977625Y-20400065D01*
X30920000Y-20414268D01*
X30862375Y-20400065D01*
X30817951Y-20360709D01*
X30802443Y-20338243D01*
X30798183Y-20332071D01*
X30670852Y-20219266D01*
X30645823Y-20206129D01*
X30526866Y-20143695D01*
X30526862Y-20143693D01*
X30520225Y-20140210D01*
X30512947Y-20138416D01*
X30512944Y-20138415D01*
X30362337Y-20101294D01*
X30362332Y-20101293D01*
X30355056Y-20099500D01*
X30184944Y-20099500D01*
X30177668Y-20101293D01*
X30177662Y-20101294D01*
X30027055Y-20138415D01*
X30027050Y-20138416D01*
X30019775Y-20140210D01*
X30013140Y-20143692D01*
X30013133Y-20143695D01*
X29875791Y-20215779D01*
X29875788Y-20215780D01*
X29869148Y-20219266D01*
X29863537Y-20224236D01*
X29863531Y-20224241D01*
X29747430Y-20327098D01*
X29741817Y-20332071D01*
X29737559Y-20338239D01*
X29737556Y-20338243D01*
X29722049Y-20360709D01*
X29677625Y-20400065D01*
X29620000Y-20414268D01*
X29562375Y-20400065D01*
X29517951Y-20360709D01*
X29502443Y-20338243D01*
X29498183Y-20332071D01*
X29370852Y-20219266D01*
X29345823Y-20206129D01*
X29226866Y-20143695D01*
X29226862Y-20143693D01*
X29220225Y-20140210D01*
X29212947Y-20138416D01*
X29212944Y-20138415D01*
X29062337Y-20101294D01*
X29062332Y-20101293D01*
X29055056Y-20099500D01*
X28884944Y-20099500D01*
X28877668Y-20101293D01*
X28877662Y-20101294D01*
X28727055Y-20138415D01*
X28727050Y-20138416D01*
X28719775Y-20140210D01*
X28713140Y-20143692D01*
X28713133Y-20143695D01*
X28575791Y-20215779D01*
X28575788Y-20215780D01*
X28569148Y-20219266D01*
X28563537Y-20224236D01*
X28563531Y-20224241D01*
X28447430Y-20327098D01*
X28441817Y-20332071D01*
X28437559Y-20338239D01*
X28437556Y-20338243D01*
X28422049Y-20360709D01*
X28377625Y-20400065D01*
X28320000Y-20414268D01*
X28262375Y-20400065D01*
X28217951Y-20360709D01*
X28202443Y-20338243D01*
X28198183Y-20332071D01*
X28070852Y-20219266D01*
X28045823Y-20206129D01*
X27926866Y-20143695D01*
X27926862Y-20143693D01*
X27920225Y-20140210D01*
X27912947Y-20138416D01*
X27912944Y-20138415D01*
X27762337Y-20101294D01*
X27762332Y-20101293D01*
X27755056Y-20099500D01*
X27584944Y-20099500D01*
X27577668Y-20101293D01*
X27577662Y-20101294D01*
X27427055Y-20138415D01*
X27427050Y-20138416D01*
X27419775Y-20140210D01*
X27413140Y-20143692D01*
X27413133Y-20143695D01*
X27275791Y-20215779D01*
X27275788Y-20215780D01*
X27269148Y-20219266D01*
X27263537Y-20224236D01*
X27263531Y-20224241D01*
X27147430Y-20327098D01*
X27141817Y-20332071D01*
X27137559Y-20338239D01*
X27137556Y-20338243D01*
X27122049Y-20360709D01*
X27077625Y-20400065D01*
X27020000Y-20414268D01*
X26962375Y-20400065D01*
X26917951Y-20360709D01*
X26902443Y-20338243D01*
X26898183Y-20332071D01*
X26770852Y-20219266D01*
X26745823Y-20206129D01*
X26626866Y-20143695D01*
X26626862Y-20143693D01*
X26620225Y-20140210D01*
X26612947Y-20138416D01*
X26612944Y-20138415D01*
X26462337Y-20101294D01*
X26462332Y-20101293D01*
X26455056Y-20099500D01*
X26284944Y-20099500D01*
X26277668Y-20101293D01*
X26277662Y-20101294D01*
X26127055Y-20138415D01*
X26127050Y-20138416D01*
X26119775Y-20140210D01*
X26113140Y-20143692D01*
X26113133Y-20143695D01*
X25975791Y-20215779D01*
X25975788Y-20215780D01*
X25969148Y-20219266D01*
X25963537Y-20224236D01*
X25963531Y-20224241D01*
X25847430Y-20327098D01*
X25841817Y-20332071D01*
X25837562Y-20338235D01*
X25837557Y-20338241D01*
X25749445Y-20465893D01*
X25749442Y-20465897D01*
X25745182Y-20472070D01*
X25742523Y-20479081D01*
X25742520Y-20479087D01*
X25687520Y-20624111D01*
X25687517Y-20624119D01*
X25684860Y-20631128D01*
X25683956Y-20638570D01*
X25683955Y-20638576D01*
X25676558Y-20699500D01*
X25664355Y-20800000D01*
X19643335Y-20800000D01*
X19655140Y-20768872D01*
X19675645Y-20600000D01*
X19655140Y-20431128D01*
X19594818Y-20272070D01*
X19498183Y-20132071D01*
X19397431Y-20042812D01*
X19360556Y-19984499D01*
X19360556Y-19915501D01*
X19397431Y-19857187D01*
X19498183Y-19767929D01*
X19594818Y-19627930D01*
X19655140Y-19468872D01*
X19675645Y-19300000D01*
X19655140Y-19131128D01*
X19643524Y-19100500D01*
X19597479Y-18979087D01*
X19594818Y-18972070D01*
X19498183Y-18832071D01*
X19397431Y-18742812D01*
X19360556Y-18684499D01*
X19360556Y-18615501D01*
X19397431Y-18557187D01*
X19498183Y-18467929D01*
X19594818Y-18327930D01*
X19655140Y-18168872D01*
X19675645Y-18000000D01*
X19655140Y-17831128D01*
X19650641Y-17819266D01*
X19597479Y-17679087D01*
X19594818Y-17672070D01*
X19498183Y-17532071D01*
X19397431Y-17442812D01*
X19360556Y-17384499D01*
X19360556Y-17315501D01*
X19397431Y-17257187D01*
X19498183Y-17167929D01*
X19594818Y-17027930D01*
X19655140Y-16868872D01*
X19675645Y-16700000D01*
X19655140Y-16531128D01*
X19648012Y-16512334D01*
X19643334Y-16500000D01*
X32764355Y-16500000D01*
X32765259Y-16507445D01*
X32783955Y-16661423D01*
X32783956Y-16661427D01*
X32784860Y-16668872D01*
X32787518Y-16675882D01*
X32787520Y-16675888D01*
X32824097Y-16772334D01*
X32845182Y-16827930D01*
X32941817Y-16967929D01*
X33016516Y-17034106D01*
X33052278Y-17065789D01*
X33069148Y-17080734D01*
X33219775Y-17159790D01*
X33384944Y-17200500D01*
X33547556Y-17200500D01*
X33555056Y-17200500D01*
X33720225Y-17159790D01*
X33870852Y-17080734D01*
X33998183Y-16967929D01*
X34094818Y-16827930D01*
X34155140Y-16668872D01*
X34175645Y-16500000D01*
X34155140Y-16331128D01*
X34094818Y-16172070D01*
X34028952Y-16076647D01*
X34002442Y-16038241D01*
X34002441Y-16038240D01*
X33998183Y-16032071D01*
X33891711Y-15937745D01*
X33876468Y-15924241D01*
X33876466Y-15924239D01*
X33870852Y-15919266D01*
X33845823Y-15906129D01*
X33726866Y-15843695D01*
X33726862Y-15843693D01*
X33720225Y-15840210D01*
X33712947Y-15838416D01*
X33712944Y-15838415D01*
X33562337Y-15801294D01*
X33562332Y-15801293D01*
X33555056Y-15799500D01*
X33384944Y-15799500D01*
X33377668Y-15801293D01*
X33377662Y-15801294D01*
X33227055Y-15838415D01*
X33227050Y-15838416D01*
X33219775Y-15840210D01*
X33213140Y-15843692D01*
X33213133Y-15843695D01*
X33075791Y-15915779D01*
X33075788Y-15915780D01*
X33069148Y-15919266D01*
X33063537Y-15924236D01*
X33063531Y-15924241D01*
X32978582Y-15999500D01*
X32941817Y-16032071D01*
X32937562Y-16038235D01*
X32937557Y-16038241D01*
X32849445Y-16165893D01*
X32849442Y-16165897D01*
X32845182Y-16172070D01*
X32842523Y-16179081D01*
X32842520Y-16179087D01*
X32787520Y-16324111D01*
X32787517Y-16324119D01*
X32784860Y-16331128D01*
X32783956Y-16338570D01*
X32783955Y-16338576D01*
X32774776Y-16414175D01*
X32764355Y-16500000D01*
X19643334Y-16500000D01*
X19597479Y-16379087D01*
X19594818Y-16372070D01*
X19498183Y-16232071D01*
X19370852Y-16119266D01*
X19320443Y-16092809D01*
X19226866Y-16043695D01*
X19226862Y-16043693D01*
X19220225Y-16040210D01*
X19212947Y-16038416D01*
X19212944Y-16038415D01*
X19062337Y-16001294D01*
X19062332Y-16001293D01*
X19055056Y-15999500D01*
X18884944Y-15999500D01*
X18877668Y-16001293D01*
X18877662Y-16001294D01*
X18727055Y-16038415D01*
X18727050Y-16038416D01*
X18719775Y-16040210D01*
X18713140Y-16043692D01*
X18713133Y-16043695D01*
X18575791Y-16115779D01*
X18575788Y-16115780D01*
X18569148Y-16119266D01*
X18563537Y-16124236D01*
X18563531Y-16124241D01*
X18447430Y-16227098D01*
X18441817Y-16232071D01*
X18437562Y-16238235D01*
X18437557Y-16238241D01*
X18349445Y-16365893D01*
X18349442Y-16365897D01*
X18345182Y-16372070D01*
X18342523Y-16379081D01*
X18342520Y-16379087D01*
X18287520Y-16524111D01*
X18287517Y-16524119D01*
X18284860Y-16531128D01*
X18283956Y-16538570D01*
X18283955Y-16538576D01*
X18269039Y-16661423D01*
X18264355Y-16700000D01*
X18265259Y-16707445D01*
X18283955Y-16861423D01*
X18283956Y-16861427D01*
X18284860Y-16868872D01*
X18287518Y-16875882D01*
X18287520Y-16875888D01*
X18324548Y-16973523D01*
X18345182Y-17027930D01*
X18349444Y-17034105D01*
X18349445Y-17034106D01*
X18433792Y-17156304D01*
X18441817Y-17167929D01*
X18501342Y-17220663D01*
X18542566Y-17257185D01*
X18579443Y-17315501D01*
X18579443Y-17384499D01*
X18542566Y-17442815D01*
X18542565Y-17442816D01*
X18441817Y-17532071D01*
X18437562Y-17538235D01*
X18437557Y-17538241D01*
X18349445Y-17665893D01*
X18349442Y-17665897D01*
X18345182Y-17672070D01*
X18342523Y-17679081D01*
X18342520Y-17679087D01*
X18287520Y-17824111D01*
X18287517Y-17824119D01*
X18284860Y-17831128D01*
X18283956Y-17838570D01*
X18283955Y-17838576D01*
X18273207Y-17927098D01*
X18264355Y-18000000D01*
X18265259Y-18007445D01*
X18283955Y-18161423D01*
X18283956Y-18161427D01*
X18284860Y-18168872D01*
X18287518Y-18175882D01*
X18287520Y-18175888D01*
X18342520Y-18320912D01*
X18345182Y-18327930D01*
X18349444Y-18334105D01*
X18349445Y-18334106D01*
X18400067Y-18407445D01*
X18441817Y-18467929D01*
X18501342Y-18520663D01*
X18542566Y-18557185D01*
X18579443Y-18615501D01*
X18579443Y-18684499D01*
X18542566Y-18742815D01*
X18542565Y-18742816D01*
X18441817Y-18832071D01*
X18437562Y-18838235D01*
X18437557Y-18838241D01*
X18349445Y-18965893D01*
X18349442Y-18965897D01*
X18345182Y-18972070D01*
X18342523Y-18979081D01*
X18342520Y-18979087D01*
X18287520Y-19124111D01*
X18287517Y-19124119D01*
X18284860Y-19131128D01*
X18283956Y-19138570D01*
X18283955Y-19138576D01*
X18265356Y-19291755D01*
X18264355Y-19300000D01*
X18265259Y-19307445D01*
X18283955Y-19461423D01*
X18283956Y-19461427D01*
X18284860Y-19468872D01*
X18287518Y-19475882D01*
X18287520Y-19475888D01*
X18342520Y-19620912D01*
X18345182Y-19627930D01*
X18441817Y-19767929D01*
X18501342Y-19820663D01*
X18542566Y-19857185D01*
X18579443Y-19915501D01*
X18579443Y-19984499D01*
X18542566Y-20042815D01*
X18542565Y-20042816D01*
X18441817Y-20132071D01*
X18437562Y-20138235D01*
X18437557Y-20138241D01*
X18349445Y-20265893D01*
X18349442Y-20265897D01*
X18345182Y-20272070D01*
X18342523Y-20279081D01*
X18342520Y-20279087D01*
X18287520Y-20424111D01*
X18287517Y-20424119D01*
X18284860Y-20431128D01*
X18283956Y-20438570D01*
X18283955Y-20438576D01*
X18271826Y-20538470D01*
X18264355Y-20600000D01*
X500Y-20600000D01*
X500Y-18400000D01*
X8964355Y-18400000D01*
X8965259Y-18407445D01*
X8983955Y-18561423D01*
X8983956Y-18561427D01*
X8984860Y-18568872D01*
X8987518Y-18575882D01*
X8987520Y-18575888D01*
X9041896Y-18719266D01*
X9045182Y-18727930D01*
X9049444Y-18734105D01*
X9049445Y-18734106D01*
X9121324Y-18838241D01*
X9141817Y-18867929D01*
X9269148Y-18980734D01*
X9419775Y-19059790D01*
X9584944Y-19100500D01*
X9747556Y-19100500D01*
X9755056Y-19100500D01*
X9920225Y-19059790D01*
X10070852Y-18980734D01*
X10198183Y-18867929D01*
X10294818Y-18727930D01*
X10355140Y-18568872D01*
X10375645Y-18400000D01*
X10355140Y-18231128D01*
X10334190Y-18175888D01*
X10297479Y-18079087D01*
X10294818Y-18072070D01*
X10198183Y-17932071D01*
X10092649Y-17838576D01*
X10076468Y-17824241D01*
X10076466Y-17824239D01*
X10070852Y-17819266D01*
X10045823Y-17806129D01*
X9926866Y-17743695D01*
X9926862Y-17743693D01*
X9920225Y-17740210D01*
X9912947Y-17738416D01*
X9912944Y-17738415D01*
X9762337Y-17701294D01*
X9762332Y-17701293D01*
X9755056Y-17699500D01*
X9584944Y-17699500D01*
X9577668Y-17701293D01*
X9577662Y-17701294D01*
X9427055Y-17738415D01*
X9427050Y-17738416D01*
X9419775Y-17740210D01*
X9413140Y-17743692D01*
X9413133Y-17743695D01*
X9275791Y-17815779D01*
X9275788Y-17815780D01*
X9269148Y-17819266D01*
X9263537Y-17824236D01*
X9263531Y-17824241D01*
X9147430Y-17927098D01*
X9141817Y-17932071D01*
X9137562Y-17938235D01*
X9137557Y-17938241D01*
X9049445Y-18065893D01*
X9049442Y-18065897D01*
X9045182Y-18072070D01*
X9042523Y-18079081D01*
X9042520Y-18079087D01*
X8987520Y-18224111D01*
X8987517Y-18224119D01*
X8984860Y-18231128D01*
X8983956Y-18238570D01*
X8983955Y-18238576D01*
X8973958Y-18320912D01*
X8964355Y-18400000D01*
X500Y-18400000D01*
X500Y-14344518D01*
X9970000Y-14344518D01*
X9970353Y-14351114D01*
X9975573Y-14399667D01*
X9979111Y-14414641D01*
X10023547Y-14533777D01*
X10031962Y-14549189D01*
X10107498Y-14650092D01*
X10119911Y-14662505D01*
X10161742Y-14693820D01*
X10195857Y-14732921D01*
X10210983Y-14782558D01*
X10204473Y-14834039D01*
X10186932Y-14884168D01*
X10186929Y-14884179D01*
X10184632Y-14890745D01*
X10183852Y-14897659D01*
X10183851Y-14897668D01*
X10172322Y-15000000D01*
X10164435Y-15070000D01*
X10165215Y-15076923D01*
X10176365Y-15175888D01*
X10184632Y-15249255D01*
X10186928Y-15255819D01*
X10186930Y-15255824D01*
X10228897Y-15375758D01*
X10244211Y-15419522D01*
X10340184Y-15572262D01*
X10345112Y-15577190D01*
X10385241Y-15617319D01*
X10417335Y-15672906D01*
X10417335Y-15737094D01*
X10385241Y-15792681D01*
X10345112Y-15832809D01*
X10345108Y-15832813D01*
X10340184Y-15837738D01*
X10336479Y-15843633D01*
X10336476Y-15843638D01*
X10247912Y-15984587D01*
X10247910Y-15984590D01*
X10244211Y-15990478D01*
X10241915Y-15997036D01*
X10241913Y-15997043D01*
X10186930Y-16154175D01*
X10186928Y-16154182D01*
X10184632Y-16160745D01*
X10183852Y-16167662D01*
X10183852Y-16167665D01*
X10173782Y-16257043D01*
X10164435Y-16340000D01*
X10165215Y-16346923D01*
X10182462Y-16500000D01*
X10184632Y-16519255D01*
X10186928Y-16525819D01*
X10186930Y-16525824D01*
X10236985Y-16668872D01*
X10244211Y-16689522D01*
X10247912Y-16695412D01*
X10331178Y-16827930D01*
X10340184Y-16842262D01*
X10467738Y-16969816D01*
X10620478Y-17065789D01*
X10790745Y-17125368D01*
X10970000Y-17145565D01*
X11149255Y-17125368D01*
X11319522Y-17065789D01*
X11472262Y-16969816D01*
X11599816Y-16842262D01*
X11695789Y-16689522D01*
X11755368Y-16519255D01*
X11775565Y-16340000D01*
X11755368Y-16160745D01*
X11695789Y-15990478D01*
X11599816Y-15837738D01*
X11554758Y-15792680D01*
X11522665Y-15737094D01*
X11522665Y-15672906D01*
X11554759Y-15617319D01*
X11554759Y-15617318D01*
X11599816Y-15572262D01*
X11695789Y-15419522D01*
X11755368Y-15249255D01*
X11775565Y-15070000D01*
X11755368Y-14890745D01*
X11735525Y-14834039D01*
X11731221Y-14800000D01*
X32764355Y-14800000D01*
X32765259Y-14807445D01*
X32783955Y-14961423D01*
X32783956Y-14961427D01*
X32784860Y-14968872D01*
X32787518Y-14975882D01*
X32787520Y-14975888D01*
X32842520Y-15120912D01*
X32845182Y-15127930D01*
X32941817Y-15267929D01*
X33069148Y-15380734D01*
X33219775Y-15459790D01*
X33384944Y-15500500D01*
X33547556Y-15500500D01*
X33555056Y-15500500D01*
X33720225Y-15459790D01*
X33870852Y-15380734D01*
X33998183Y-15267929D01*
X34094818Y-15127930D01*
X34143335Y-15000000D01*
X36364355Y-15000000D01*
X36365259Y-15007445D01*
X36383955Y-15161423D01*
X36383956Y-15161427D01*
X36384860Y-15168872D01*
X36387518Y-15175882D01*
X36387520Y-15175888D01*
X36442520Y-15320912D01*
X36445182Y-15327930D01*
X36449444Y-15334105D01*
X36449445Y-15334106D01*
X36533792Y-15456304D01*
X36541817Y-15467929D01*
X36669148Y-15580734D01*
X36819775Y-15659790D01*
X36984944Y-15700500D01*
X37147556Y-15700500D01*
X37155056Y-15700500D01*
X37315534Y-15660946D01*
X37337795Y-15661849D01*
X37367855Y-15634791D01*
X37470852Y-15580734D01*
X37598183Y-15467929D01*
X37617951Y-15439290D01*
X37662374Y-15399935D01*
X37720000Y-15385731D01*
X37777626Y-15399935D01*
X37822048Y-15439290D01*
X37841817Y-15467929D01*
X37969148Y-15580734D01*
X37972555Y-15582522D01*
X38013391Y-15630839D01*
X38024491Y-15694828D01*
X38001723Y-15755652D01*
X37951334Y-15796624D01*
X37887146Y-15806507D01*
X37786923Y-15795215D01*
X37780000Y-15794435D01*
X37773077Y-15795215D01*
X37607665Y-15813852D01*
X37607662Y-15813852D01*
X37600745Y-15814632D01*
X37594180Y-15816929D01*
X37594172Y-15816931D01*
X37466439Y-15861627D01*
X37430382Y-15864772D01*
X37411179Y-15886336D01*
X37283640Y-15966474D01*
X37283630Y-15966481D01*
X37277738Y-15970184D01*
X37272813Y-15975108D01*
X37272809Y-15975112D01*
X37155112Y-16092809D01*
X37155108Y-16092813D01*
X37150184Y-16097738D01*
X37146479Y-16103633D01*
X37146476Y-16103638D01*
X37057912Y-16244587D01*
X37057910Y-16244590D01*
X37054211Y-16250478D01*
X37051915Y-16257036D01*
X37051913Y-16257043D01*
X36996930Y-16414175D01*
X36996928Y-16414182D01*
X36994632Y-16420745D01*
X36993852Y-16427662D01*
X36993852Y-16427665D01*
X36982195Y-16531128D01*
X36974435Y-16600000D01*
X36994632Y-16779255D01*
X36996928Y-16785819D01*
X36996930Y-16785824D01*
X37025990Y-16868872D01*
X37054211Y-16949522D01*
X37150184Y-17102262D01*
X37277738Y-17229816D01*
X37430478Y-17325789D01*
X37600745Y-17385368D01*
X37780000Y-17405565D01*
X37959255Y-17385368D01*
X38129522Y-17325789D01*
X38181694Y-17293006D01*
X38233783Y-17274780D01*
X38288621Y-17280958D01*
X38335348Y-17310319D01*
X38377235Y-17352206D01*
X38447133Y-17383069D01*
X38471477Y-17393818D01*
X38471478Y-17393818D01*
X38480009Y-17397585D01*
X38505135Y-17400500D01*
X39594864Y-17400499D01*
X39619991Y-17397585D01*
X39722765Y-17352206D01*
X39802206Y-17272765D01*
X39847585Y-17169991D01*
X39850500Y-17144865D01*
X39850499Y-16055136D01*
X39847585Y-16030009D01*
X39802206Y-15927235D01*
X39766444Y-15891472D01*
X39734190Y-15835282D01*
X39734680Y-15770493D01*
X39767779Y-15714796D01*
X39824449Y-15683396D01*
X39920225Y-15659790D01*
X40070852Y-15580734D01*
X40198183Y-15467929D01*
X40294818Y-15327930D01*
X40355140Y-15168872D01*
X40375645Y-15000000D01*
X40355140Y-14831128D01*
X40336720Y-14782559D01*
X40317895Y-14732920D01*
X40294818Y-14672070D01*
X40198183Y-14532071D01*
X40070852Y-14419266D01*
X40033510Y-14399667D01*
X39926866Y-14343695D01*
X39926862Y-14343693D01*
X39920225Y-14340210D01*
X39912947Y-14338416D01*
X39912944Y-14338415D01*
X39776315Y-14304739D01*
X39719642Y-14273337D01*
X39686544Y-14217639D01*
X39686056Y-14152850D01*
X39718309Y-14096661D01*
X39742206Y-14072765D01*
X39787585Y-13969991D01*
X39790500Y-13944865D01*
X39790499Y-12933030D01*
X39809165Y-12867603D01*
X39859544Y-12821874D01*
X39926467Y-12809610D01*
X39989788Y-12834504D01*
X40030441Y-12889061D01*
X40042519Y-12920910D01*
X40042521Y-12920914D01*
X40045182Y-12927930D01*
X40049444Y-12934105D01*
X40049445Y-12934106D01*
X40134302Y-13057043D01*
X40141817Y-13067929D01*
X40269148Y-13180734D01*
X40419775Y-13259790D01*
X40584944Y-13300500D01*
X40747556Y-13300500D01*
X40755056Y-13300500D01*
X40920225Y-13259790D01*
X41070852Y-13180734D01*
X41198183Y-13067929D01*
X41217951Y-13039290D01*
X41262374Y-12999935D01*
X41320000Y-12985731D01*
X41377626Y-12999935D01*
X41422048Y-13039290D01*
X41441817Y-13067929D01*
X41569148Y-13180734D01*
X41719775Y-13259790D01*
X41884944Y-13300500D01*
X42047556Y-13300500D01*
X42055056Y-13300500D01*
X42220225Y-13259790D01*
X42370852Y-13180734D01*
X42498183Y-13067929D01*
X42594818Y-12927930D01*
X42648771Y-12785664D01*
X42688239Y-12732025D01*
X42749766Y-12706539D01*
X42815604Y-12716559D01*
X42866762Y-12759194D01*
X42874348Y-12770184D01*
X42932986Y-12855136D01*
X42941817Y-12867929D01*
X43034351Y-12949907D01*
X43055758Y-12968872D01*
X43069148Y-12980734D01*
X43219775Y-13059790D01*
X43384944Y-13100500D01*
X43547556Y-13100500D01*
X43555056Y-13100500D01*
X43720225Y-13059790D01*
X43870852Y-12980734D01*
X43998183Y-12867929D01*
X44067951Y-12766852D01*
X44112374Y-12727497D01*
X44170000Y-12713294D01*
X44227626Y-12727497D01*
X44272048Y-12766852D01*
X44300068Y-12807445D01*
X44332986Y-12855136D01*
X44341817Y-12867929D01*
X44434351Y-12949907D01*
X44455758Y-12968872D01*
X44469148Y-12980734D01*
X44619775Y-13059790D01*
X44784944Y-13100500D01*
X44947556Y-13100500D01*
X44955056Y-13100500D01*
X45120225Y-13059790D01*
X45270852Y-12980734D01*
X45398183Y-12867929D01*
X45494818Y-12727930D01*
X45555140Y-12568872D01*
X45575645Y-12400000D01*
X45555140Y-12231128D01*
X45550641Y-12219266D01*
X45497479Y-12079087D01*
X45494818Y-12072070D01*
X45398183Y-11932071D01*
X45297431Y-11842812D01*
X45260556Y-11784499D01*
X45260556Y-11715501D01*
X45297431Y-11657187D01*
X45398183Y-11567929D01*
X45494818Y-11427930D01*
X45555140Y-11268872D01*
X45575645Y-11100000D01*
X45555140Y-10931128D01*
X45494818Y-10772070D01*
X45398183Y-10632071D01*
X45270852Y-10519266D01*
X45245823Y-10506129D01*
X45126866Y-10443695D01*
X45126862Y-10443693D01*
X45120225Y-10440210D01*
X45112947Y-10438416D01*
X45112944Y-10438415D01*
X44962337Y-10401294D01*
X44962332Y-10401293D01*
X44955056Y-10399500D01*
X44784944Y-10399500D01*
X44777668Y-10401293D01*
X44777662Y-10401294D01*
X44627055Y-10438415D01*
X44627050Y-10438416D01*
X44619775Y-10440210D01*
X44613140Y-10443692D01*
X44613133Y-10443695D01*
X44475791Y-10515779D01*
X44475788Y-10515780D01*
X44469148Y-10519266D01*
X44463537Y-10524236D01*
X44463531Y-10524241D01*
X44347430Y-10627098D01*
X44341817Y-10632071D01*
X44337562Y-10638235D01*
X44337557Y-10638241D01*
X44249445Y-10765893D01*
X44249442Y-10765897D01*
X44245182Y-10772070D01*
X44242523Y-10779081D01*
X44242520Y-10779087D01*
X44187520Y-10924111D01*
X44187517Y-10924119D01*
X44184860Y-10931128D01*
X44183956Y-10938570D01*
X44183955Y-10938576D01*
X44165356Y-11091755D01*
X44164355Y-11100000D01*
X44165259Y-11107445D01*
X44183955Y-11261423D01*
X44183956Y-11261427D01*
X44184860Y-11268872D01*
X44187518Y-11275882D01*
X44187520Y-11275888D01*
X44242520Y-11420912D01*
X44245182Y-11427930D01*
X44341817Y-11567929D01*
X44401342Y-11620663D01*
X44442566Y-11657185D01*
X44479443Y-11715501D01*
X44479443Y-11784499D01*
X44442566Y-11842815D01*
X44442565Y-11842816D01*
X44341817Y-11932071D01*
X44337562Y-11938235D01*
X44337557Y-11938241D01*
X44272050Y-12033145D01*
X44227625Y-12072502D01*
X44170000Y-12086705D01*
X44112375Y-12072502D01*
X44067950Y-12033145D01*
X44002442Y-11938241D01*
X44002441Y-11938240D01*
X43998183Y-11932071D01*
X43897435Y-11842816D01*
X43876468Y-11824241D01*
X43876466Y-11824239D01*
X43870852Y-11819266D01*
X43804610Y-11784499D01*
X43726866Y-11743695D01*
X43726862Y-11743693D01*
X43720225Y-11740210D01*
X43712947Y-11738416D01*
X43712944Y-11738415D01*
X43562337Y-11701294D01*
X43562332Y-11701293D01*
X43555056Y-11699500D01*
X43384944Y-11699500D01*
X43377668Y-11701293D01*
X43377662Y-11701294D01*
X43227055Y-11738415D01*
X43227050Y-11738416D01*
X43219775Y-11740210D01*
X43213140Y-11743692D01*
X43213133Y-11743695D01*
X43075791Y-11815779D01*
X43075788Y-11815780D01*
X43069148Y-11819266D01*
X43063537Y-11824236D01*
X43063531Y-11824241D01*
X42978582Y-11899500D01*
X42941817Y-11932071D01*
X42937562Y-11938235D01*
X42937557Y-11938241D01*
X42849445Y-12065893D01*
X42849442Y-12065897D01*
X42845182Y-12072070D01*
X42842523Y-12079081D01*
X42842520Y-12079087D01*
X42791228Y-12214335D01*
X42751759Y-12267975D01*
X42690233Y-12293460D01*
X42624395Y-12283440D01*
X42573236Y-12240804D01*
X42571698Y-12238576D01*
X42498183Y-12132071D01*
X42370852Y-12019266D01*
X42345823Y-12006129D01*
X42226866Y-11943695D01*
X42226862Y-11943693D01*
X42220225Y-11940210D01*
X42212947Y-11938416D01*
X42212944Y-11938415D01*
X42062337Y-11901294D01*
X42062332Y-11901293D01*
X42055056Y-11899500D01*
X41884944Y-11899500D01*
X41877668Y-11901293D01*
X41877662Y-11901294D01*
X41727055Y-11938415D01*
X41727050Y-11938416D01*
X41719775Y-11940210D01*
X41713140Y-11943692D01*
X41713133Y-11943695D01*
X41575791Y-12015779D01*
X41575788Y-12015780D01*
X41569148Y-12019266D01*
X41563537Y-12024236D01*
X41563531Y-12024241D01*
X41478582Y-12099500D01*
X41441817Y-12132071D01*
X41437559Y-12138239D01*
X41437556Y-12138243D01*
X41422049Y-12160709D01*
X41377625Y-12200065D01*
X41320000Y-12214268D01*
X41262375Y-12200065D01*
X41217951Y-12160709D01*
X41207806Y-12146013D01*
X41198183Y-12132071D01*
X41070852Y-12019266D01*
X41045823Y-12006129D01*
X40926866Y-11943695D01*
X40926862Y-11943693D01*
X40920225Y-11940210D01*
X40912947Y-11938416D01*
X40912944Y-11938415D01*
X40762337Y-11901294D01*
X40762332Y-11901293D01*
X40755056Y-11899500D01*
X40584944Y-11899500D01*
X40577668Y-11901293D01*
X40577662Y-11901294D01*
X40427055Y-11938415D01*
X40427050Y-11938416D01*
X40419775Y-11940210D01*
X40413140Y-11943692D01*
X40413133Y-11943695D01*
X40275791Y-12015779D01*
X40275788Y-12015780D01*
X40269148Y-12019266D01*
X40263537Y-12024236D01*
X40263531Y-12024241D01*
X40178582Y-12099500D01*
X40141817Y-12132071D01*
X40137562Y-12138235D01*
X40137557Y-12138241D01*
X40049445Y-12265893D01*
X40049442Y-12265897D01*
X40045182Y-12272070D01*
X40042523Y-12279081D01*
X40042520Y-12279087D01*
X39987520Y-12424111D01*
X39987517Y-12424119D01*
X39984860Y-12431128D01*
X39983956Y-12438570D01*
X39983955Y-12438576D01*
X39969039Y-12561423D01*
X39964355Y-12600000D01*
X39965259Y-12607445D01*
X39965259Y-12607447D01*
X39970436Y-12650086D01*
X39960987Y-12714635D01*
X39920082Y-12765454D01*
X39859044Y-12788478D01*
X39794767Y-12777336D01*
X39746067Y-12735980D01*
X39742206Y-12727235D01*
X39662765Y-12647794D01*
X39625020Y-12631128D01*
X39568522Y-12606181D01*
X39568517Y-12606179D01*
X39559991Y-12602415D01*
X39550726Y-12601340D01*
X39538414Y-12599911D01*
X39538401Y-12599910D01*
X39534865Y-12599500D01*
X39531290Y-12599500D01*
X38448714Y-12599500D01*
X38448696Y-12599500D01*
X38445136Y-12599501D01*
X38441589Y-12599912D01*
X38441577Y-12599913D01*
X38429277Y-12601340D01*
X38429275Y-12601340D01*
X38420009Y-12602415D01*
X38411479Y-12606180D01*
X38411476Y-12606182D01*
X38327745Y-12643153D01*
X38327743Y-12643154D01*
X38317235Y-12647794D01*
X38309111Y-12655917D01*
X38309108Y-12655920D01*
X38275347Y-12689681D01*
X38228621Y-12719041D01*
X38173783Y-12725219D01*
X38121696Y-12706993D01*
X38075417Y-12677914D01*
X38075409Y-12677910D01*
X38069522Y-12674211D01*
X38062959Y-12671914D01*
X38062956Y-12671913D01*
X37905824Y-12616930D01*
X37905819Y-12616928D01*
X37899255Y-12614632D01*
X37892335Y-12613852D01*
X37892334Y-12613852D01*
X37726923Y-12595215D01*
X37720000Y-12594435D01*
X37713077Y-12595215D01*
X37547665Y-12613852D01*
X37547662Y-12613852D01*
X37540745Y-12614632D01*
X37534182Y-12616928D01*
X37534175Y-12616930D01*
X37377043Y-12671913D01*
X37377036Y-12671915D01*
X37370478Y-12674211D01*
X37364590Y-12677910D01*
X37364587Y-12677912D01*
X37223638Y-12766476D01*
X37223633Y-12766479D01*
X37217738Y-12770184D01*
X37212813Y-12775108D01*
X37212809Y-12775112D01*
X37095112Y-12892809D01*
X37095108Y-12892813D01*
X37090184Y-12897738D01*
X37086479Y-12903633D01*
X37086476Y-12903638D01*
X36997912Y-13044587D01*
X36997910Y-13044590D01*
X36994211Y-13050478D01*
X36991915Y-13057036D01*
X36991913Y-13057043D01*
X36936930Y-13214175D01*
X36936928Y-13214182D01*
X36934632Y-13220745D01*
X36933852Y-13227662D01*
X36933852Y-13227665D01*
X36928755Y-13272901D01*
X36914435Y-13400000D01*
X36915215Y-13406923D01*
X36925758Y-13500500D01*
X36934632Y-13579255D01*
X36936928Y-13585819D01*
X36936930Y-13585824D01*
X36991913Y-13742956D01*
X36994211Y-13749522D01*
X37090184Y-13902262D01*
X37217738Y-14029816D01*
X37286091Y-14072765D01*
X37312451Y-14089328D01*
X37358384Y-14140906D01*
X37369601Y-14209056D01*
X37342621Y-14272634D01*
X37285814Y-14311918D01*
X37216805Y-14314719D01*
X37162340Y-14301295D01*
X37162337Y-14301294D01*
X37155056Y-14299500D01*
X36984944Y-14299500D01*
X36977668Y-14301293D01*
X36977662Y-14301294D01*
X36827055Y-14338415D01*
X36827050Y-14338416D01*
X36819775Y-14340210D01*
X36813140Y-14343692D01*
X36813133Y-14343695D01*
X36675791Y-14415779D01*
X36675788Y-14415780D01*
X36669148Y-14419266D01*
X36663537Y-14424236D01*
X36663531Y-14424241D01*
X36547430Y-14527098D01*
X36541817Y-14532071D01*
X36537562Y-14538235D01*
X36537557Y-14538241D01*
X36449445Y-14665893D01*
X36449442Y-14665897D01*
X36445182Y-14672070D01*
X36442523Y-14679081D01*
X36442520Y-14679087D01*
X36387520Y-14824111D01*
X36387517Y-14824119D01*
X36384860Y-14831128D01*
X36383956Y-14838570D01*
X36383955Y-14838576D01*
X36377621Y-14890745D01*
X36364355Y-15000000D01*
X34143335Y-15000000D01*
X34155140Y-14968872D01*
X34175645Y-14800000D01*
X34155140Y-14631128D01*
X34094818Y-14472070D01*
X33998183Y-14332071D01*
X33870852Y-14219266D01*
X33829543Y-14197585D01*
X33726866Y-14143695D01*
X33726862Y-14143693D01*
X33720225Y-14140210D01*
X33712947Y-14138416D01*
X33712944Y-14138415D01*
X33562337Y-14101294D01*
X33562332Y-14101293D01*
X33555056Y-14099500D01*
X33384944Y-14099500D01*
X33377668Y-14101293D01*
X33377662Y-14101294D01*
X33227055Y-14138415D01*
X33227050Y-14138416D01*
X33219775Y-14140210D01*
X33213140Y-14143692D01*
X33213133Y-14143695D01*
X33075791Y-14215779D01*
X33075788Y-14215780D01*
X33069148Y-14219266D01*
X33063537Y-14224236D01*
X33063531Y-14224241D01*
X32947430Y-14327098D01*
X32941817Y-14332071D01*
X32937562Y-14338235D01*
X32937557Y-14338241D01*
X32849445Y-14465893D01*
X32849442Y-14465897D01*
X32845182Y-14472070D01*
X32842523Y-14479081D01*
X32842520Y-14479087D01*
X32787520Y-14624111D01*
X32787517Y-14624119D01*
X32784860Y-14631128D01*
X32783956Y-14638570D01*
X32783955Y-14638576D01*
X32774011Y-14720478D01*
X32764355Y-14800000D01*
X11731221Y-14800000D01*
X11729015Y-14782559D01*
X11744142Y-14732920D01*
X11778258Y-14693818D01*
X11820091Y-14662502D01*
X11832501Y-14650092D01*
X11908037Y-14549189D01*
X11916452Y-14533777D01*
X11960888Y-14414641D01*
X11964426Y-14399667D01*
X11969646Y-14351114D01*
X11970000Y-14344518D01*
X11970000Y-14066326D01*
X11966549Y-14053450D01*
X11953674Y-14050000D01*
X9986326Y-14050000D01*
X9973450Y-14053450D01*
X9970000Y-14066326D01*
X9970000Y-14344518D01*
X500Y-14344518D01*
X500Y-13533674D01*
X9970000Y-13533674D01*
X9973450Y-13546549D01*
X9986326Y-13550000D01*
X10703674Y-13550000D01*
X10716549Y-13546549D01*
X10720000Y-13533674D01*
X11220000Y-13533674D01*
X11223450Y-13546549D01*
X11236326Y-13550000D01*
X11953674Y-13550000D01*
X11966549Y-13546549D01*
X11970000Y-13533674D01*
X11970000Y-13255482D01*
X11969646Y-13248885D01*
X11964426Y-13200332D01*
X11960888Y-13185358D01*
X11916452Y-13066222D01*
X11908037Y-13050810D01*
X11832501Y-12949907D01*
X11820092Y-12937498D01*
X11719189Y-12861962D01*
X11703777Y-12853547D01*
X11584641Y-12809111D01*
X11569667Y-12805573D01*
X11521114Y-12800353D01*
X11514518Y-12800000D01*
X12264355Y-12800000D01*
X12265259Y-12807445D01*
X12283955Y-12961423D01*
X12283956Y-12961427D01*
X12284860Y-12968872D01*
X12287518Y-12975882D01*
X12287520Y-12975888D01*
X12334779Y-13100500D01*
X12345182Y-13127930D01*
X12349444Y-13134105D01*
X12349445Y-13134106D01*
X12433792Y-13256304D01*
X12441817Y-13267929D01*
X12569148Y-13380734D01*
X12719775Y-13459790D01*
X12884944Y-13500500D01*
X13047556Y-13500500D01*
X13055056Y-13500500D01*
X13220225Y-13459790D01*
X13370852Y-13380734D01*
X13498183Y-13267929D01*
X13594818Y-13127930D01*
X13655140Y-12968872D01*
X13675645Y-12800000D01*
X13655140Y-12631128D01*
X13649755Y-12616930D01*
X13597479Y-12479087D01*
X13594818Y-12472070D01*
X13498183Y-12332071D01*
X13419374Y-12262252D01*
X13376468Y-12224241D01*
X13376466Y-12224239D01*
X13370852Y-12219266D01*
X13334268Y-12200065D01*
X13226866Y-12143695D01*
X13226862Y-12143693D01*
X13220225Y-12140210D01*
X13212947Y-12138416D01*
X13212944Y-12138415D01*
X13062337Y-12101294D01*
X13062332Y-12101293D01*
X13055056Y-12099500D01*
X12884944Y-12099500D01*
X12877668Y-12101293D01*
X12877662Y-12101294D01*
X12727055Y-12138415D01*
X12727050Y-12138416D01*
X12719775Y-12140210D01*
X12713140Y-12143692D01*
X12713133Y-12143695D01*
X12575791Y-12215779D01*
X12575788Y-12215780D01*
X12569148Y-12219266D01*
X12563537Y-12224236D01*
X12563531Y-12224241D01*
X12447430Y-12327098D01*
X12441817Y-12332071D01*
X12437562Y-12338235D01*
X12437557Y-12338241D01*
X12349445Y-12465893D01*
X12349442Y-12465897D01*
X12345182Y-12472070D01*
X12342523Y-12479081D01*
X12342520Y-12479087D01*
X12287520Y-12624111D01*
X12287517Y-12624119D01*
X12284860Y-12631128D01*
X12283956Y-12638570D01*
X12283955Y-12638576D01*
X12268380Y-12766854D01*
X12264355Y-12800000D01*
X11514518Y-12800000D01*
X11236326Y-12800000D01*
X11223450Y-12803450D01*
X11220000Y-12816326D01*
X11220000Y-13533674D01*
X10720000Y-13533674D01*
X10720000Y-12816326D01*
X10716549Y-12803450D01*
X10703674Y-12800000D01*
X10425482Y-12800000D01*
X10418885Y-12800353D01*
X10370332Y-12805573D01*
X10355358Y-12809111D01*
X10236222Y-12853547D01*
X10220810Y-12861962D01*
X10119907Y-12937498D01*
X10107498Y-12949907D01*
X10031962Y-13050810D01*
X10023547Y-13066222D01*
X9979111Y-13185358D01*
X9975573Y-13200332D01*
X9970353Y-13248885D01*
X9970000Y-13255482D01*
X9970000Y-13533674D01*
X500Y-13533674D01*
X500Y-9000000D01*
X18064355Y-9000000D01*
X18065259Y-9007445D01*
X18083955Y-9161423D01*
X18083956Y-9161427D01*
X18084860Y-9168872D01*
X18087518Y-9175882D01*
X18087520Y-9175888D01*
X18139631Y-9313294D01*
X18145182Y-9327930D01*
X18241817Y-9467929D01*
X18369148Y-9580734D01*
X18519775Y-9659790D01*
X18684944Y-9700500D01*
X18847556Y-9700500D01*
X18855056Y-9700500D01*
X19020225Y-9659790D01*
X19170852Y-9580734D01*
X19298183Y-9467929D01*
X19317951Y-9439290D01*
X19362374Y-9399935D01*
X19420000Y-9385731D01*
X19477626Y-9399935D01*
X19522048Y-9439290D01*
X19541817Y-9467929D01*
X19669148Y-9580734D01*
X19819775Y-9659790D01*
X19984944Y-9700500D01*
X20147556Y-9700500D01*
X20155056Y-9700500D01*
X20320225Y-9659790D01*
X20470852Y-9580734D01*
X20598183Y-9467929D01*
X20617951Y-9439290D01*
X20662374Y-9399935D01*
X20720000Y-9385731D01*
X20777626Y-9399935D01*
X20822048Y-9439290D01*
X20841817Y-9467929D01*
X20969148Y-9580734D01*
X21119775Y-9659790D01*
X21284944Y-9700500D01*
X21447556Y-9700500D01*
X21455056Y-9700500D01*
X21620225Y-9659790D01*
X21770852Y-9580734D01*
X21898183Y-9467929D01*
X21917951Y-9439290D01*
X21962374Y-9399935D01*
X22020000Y-9385731D01*
X22077626Y-9399935D01*
X22122048Y-9439290D01*
X22141817Y-9467929D01*
X22269148Y-9580734D01*
X22419775Y-9659790D01*
X22584944Y-9700500D01*
X22747556Y-9700500D01*
X22755056Y-9700500D01*
X22920225Y-9659790D01*
X23070852Y-9580734D01*
X23198183Y-9467929D01*
X23217951Y-9439290D01*
X23262374Y-9399935D01*
X23320000Y-9385731D01*
X23377626Y-9399935D01*
X23422048Y-9439290D01*
X23441817Y-9467929D01*
X23569148Y-9580734D01*
X23719775Y-9659790D01*
X23884944Y-9700500D01*
X24047556Y-9700500D01*
X24055056Y-9700500D01*
X24220225Y-9659790D01*
X24370852Y-9580734D01*
X24498183Y-9467929D01*
X24517951Y-9439290D01*
X24562374Y-9399935D01*
X24620000Y-9385731D01*
X24677626Y-9399935D01*
X24722048Y-9439290D01*
X24741817Y-9467929D01*
X24869148Y-9580734D01*
X25019775Y-9659790D01*
X25184944Y-9700500D01*
X25347556Y-9700500D01*
X25355056Y-9700500D01*
X25520225Y-9659790D01*
X25670852Y-9580734D01*
X25798183Y-9467929D01*
X25867951Y-9366852D01*
X25912374Y-9327497D01*
X25970000Y-9313294D01*
X26027626Y-9327497D01*
X26072048Y-9366852D01*
X26141817Y-9467929D01*
X26269148Y-9580734D01*
X26419775Y-9659790D01*
X26584944Y-9700500D01*
X26747556Y-9700500D01*
X26755056Y-9700500D01*
X26920225Y-9659790D01*
X27070852Y-9580734D01*
X27198183Y-9467929D01*
X27217951Y-9439290D01*
X27262374Y-9399935D01*
X27320000Y-9385731D01*
X27377626Y-9399935D01*
X27422048Y-9439290D01*
X27441817Y-9467929D01*
X27569148Y-9580734D01*
X27719775Y-9659790D01*
X27884944Y-9700500D01*
X28047556Y-9700500D01*
X28055056Y-9700500D01*
X28220225Y-9659790D01*
X28370852Y-9580734D01*
X28498183Y-9467929D01*
X28517951Y-9439290D01*
X28562374Y-9399935D01*
X28620000Y-9385731D01*
X28677626Y-9399935D01*
X28722048Y-9439290D01*
X28741817Y-9467929D01*
X28869148Y-9580734D01*
X29019775Y-9659790D01*
X29184944Y-9700500D01*
X29347556Y-9700500D01*
X29355056Y-9700500D01*
X29520225Y-9659790D01*
X29670852Y-9580734D01*
X29798183Y-9467929D01*
X29894818Y-9327930D01*
X29955140Y-9168872D01*
X29975645Y-9000000D01*
X29955140Y-8831128D01*
X29894818Y-8672070D01*
X29798183Y-8532071D01*
X29670852Y-8419266D01*
X29588203Y-8375888D01*
X29526866Y-8343695D01*
X29526862Y-8343693D01*
X29520225Y-8340210D01*
X29512947Y-8338416D01*
X29512944Y-8338415D01*
X29362337Y-8301294D01*
X29362332Y-8301293D01*
X29355056Y-8299500D01*
X29184944Y-8299500D01*
X29177668Y-8301293D01*
X29177662Y-8301294D01*
X29027055Y-8338415D01*
X29027050Y-8338416D01*
X29019775Y-8340210D01*
X29013140Y-8343692D01*
X29013133Y-8343695D01*
X28875791Y-8415779D01*
X28875788Y-8415780D01*
X28869148Y-8419266D01*
X28863537Y-8424236D01*
X28863531Y-8424241D01*
X28754413Y-8520912D01*
X28741817Y-8532071D01*
X28737559Y-8538239D01*
X28737556Y-8538243D01*
X28722049Y-8560709D01*
X28677625Y-8600065D01*
X28620000Y-8614268D01*
X28562375Y-8600065D01*
X28517951Y-8560709D01*
X28502443Y-8538243D01*
X28498183Y-8532071D01*
X28370852Y-8419266D01*
X28288203Y-8375888D01*
X28226866Y-8343695D01*
X28226862Y-8343693D01*
X28220225Y-8340210D01*
X28212947Y-8338416D01*
X28212944Y-8338415D01*
X28062337Y-8301294D01*
X28062332Y-8301293D01*
X28055056Y-8299500D01*
X27884944Y-8299500D01*
X27877668Y-8301293D01*
X27877662Y-8301294D01*
X27727055Y-8338415D01*
X27727050Y-8338416D01*
X27719775Y-8340210D01*
X27713140Y-8343692D01*
X27713133Y-8343695D01*
X27575791Y-8415779D01*
X27575788Y-8415780D01*
X27569148Y-8419266D01*
X27563537Y-8424236D01*
X27563531Y-8424241D01*
X27454413Y-8520912D01*
X27441817Y-8532071D01*
X27437559Y-8538239D01*
X27437556Y-8538243D01*
X27422049Y-8560709D01*
X27377625Y-8600065D01*
X27320000Y-8614268D01*
X27262375Y-8600065D01*
X27217951Y-8560709D01*
X27202443Y-8538243D01*
X27198183Y-8532071D01*
X27070852Y-8419266D01*
X26988203Y-8375888D01*
X26926866Y-8343695D01*
X26926862Y-8343693D01*
X26920225Y-8340210D01*
X26912947Y-8338416D01*
X26912944Y-8338415D01*
X26762337Y-8301294D01*
X26762332Y-8301293D01*
X26755056Y-8299500D01*
X26584944Y-8299500D01*
X26577668Y-8301293D01*
X26577662Y-8301294D01*
X26427055Y-8338415D01*
X26427050Y-8338416D01*
X26419775Y-8340210D01*
X26413140Y-8343692D01*
X26413133Y-8343695D01*
X26275791Y-8415779D01*
X26275788Y-8415780D01*
X26269148Y-8419266D01*
X26263537Y-8424236D01*
X26263531Y-8424241D01*
X26154413Y-8520912D01*
X26141817Y-8532071D01*
X26137562Y-8538235D01*
X26137557Y-8538241D01*
X26072050Y-8633145D01*
X26027625Y-8672502D01*
X25970000Y-8686705D01*
X25912375Y-8672502D01*
X25867950Y-8633145D01*
X25802442Y-8538241D01*
X25802441Y-8538240D01*
X25798183Y-8532071D01*
X25670852Y-8419266D01*
X25588203Y-8375888D01*
X25526866Y-8343695D01*
X25526862Y-8343693D01*
X25520225Y-8340210D01*
X25512947Y-8338416D01*
X25512944Y-8338415D01*
X25362337Y-8301294D01*
X25362332Y-8301293D01*
X25355056Y-8299500D01*
X25184944Y-8299500D01*
X25177668Y-8301293D01*
X25177662Y-8301294D01*
X25027055Y-8338415D01*
X25027050Y-8338416D01*
X25019775Y-8340210D01*
X25013140Y-8343692D01*
X25013133Y-8343695D01*
X24875791Y-8415779D01*
X24875788Y-8415780D01*
X24869148Y-8419266D01*
X24863537Y-8424236D01*
X24863531Y-8424241D01*
X24754413Y-8520912D01*
X24741817Y-8532071D01*
X24737559Y-8538239D01*
X24737556Y-8538243D01*
X24722049Y-8560709D01*
X24677625Y-8600065D01*
X24620000Y-8614268D01*
X24562375Y-8600065D01*
X24517951Y-8560709D01*
X24502443Y-8538243D01*
X24498183Y-8532071D01*
X24370852Y-8419266D01*
X24288203Y-8375888D01*
X24226866Y-8343695D01*
X24226862Y-8343693D01*
X24220225Y-8340210D01*
X24212947Y-8338416D01*
X24212944Y-8338415D01*
X24062337Y-8301294D01*
X24062332Y-8301293D01*
X24055056Y-8299500D01*
X23884944Y-8299500D01*
X23877668Y-8301293D01*
X23877662Y-8301294D01*
X23727055Y-8338415D01*
X23727050Y-8338416D01*
X23719775Y-8340210D01*
X23713140Y-8343692D01*
X23713133Y-8343695D01*
X23575791Y-8415779D01*
X23575788Y-8415780D01*
X23569148Y-8419266D01*
X23563537Y-8424236D01*
X23563531Y-8424241D01*
X23454413Y-8520912D01*
X23441817Y-8532071D01*
X23437559Y-8538239D01*
X23437556Y-8538243D01*
X23422049Y-8560709D01*
X23377625Y-8600065D01*
X23320000Y-8614268D01*
X23262375Y-8600065D01*
X23217951Y-8560709D01*
X23202443Y-8538243D01*
X23198183Y-8532071D01*
X23070852Y-8419266D01*
X22988203Y-8375888D01*
X22926866Y-8343695D01*
X22926862Y-8343693D01*
X22920225Y-8340210D01*
X22912947Y-8338416D01*
X22912944Y-8338415D01*
X22762337Y-8301294D01*
X22762332Y-8301293D01*
X22755056Y-8299500D01*
X22584944Y-8299500D01*
X22577668Y-8301293D01*
X22577662Y-8301294D01*
X22427055Y-8338415D01*
X22427050Y-8338416D01*
X22419775Y-8340210D01*
X22413140Y-8343692D01*
X22413133Y-8343695D01*
X22275791Y-8415779D01*
X22275788Y-8415780D01*
X22269148Y-8419266D01*
X22263537Y-8424236D01*
X22263531Y-8424241D01*
X22154413Y-8520912D01*
X22141817Y-8532071D01*
X22137559Y-8538239D01*
X22137556Y-8538243D01*
X22122049Y-8560709D01*
X22077625Y-8600065D01*
X22020000Y-8614268D01*
X21962375Y-8600065D01*
X21917951Y-8560709D01*
X21902443Y-8538243D01*
X21898183Y-8532071D01*
X21770852Y-8419266D01*
X21688203Y-8375888D01*
X21626866Y-8343695D01*
X21626862Y-8343693D01*
X21620225Y-8340210D01*
X21612947Y-8338416D01*
X21612944Y-8338415D01*
X21462337Y-8301294D01*
X21462332Y-8301293D01*
X21455056Y-8299500D01*
X21284944Y-8299500D01*
X21277668Y-8301293D01*
X21277662Y-8301294D01*
X21127055Y-8338415D01*
X21127050Y-8338416D01*
X21119775Y-8340210D01*
X21113140Y-8343692D01*
X21113133Y-8343695D01*
X20975791Y-8415779D01*
X20975788Y-8415780D01*
X20969148Y-8419266D01*
X20963537Y-8424236D01*
X20963531Y-8424241D01*
X20854413Y-8520912D01*
X20841817Y-8532071D01*
X20837559Y-8538239D01*
X20837556Y-8538243D01*
X20822049Y-8560709D01*
X20777625Y-8600065D01*
X20720000Y-8614268D01*
X20662375Y-8600065D01*
X20617951Y-8560709D01*
X20602443Y-8538243D01*
X20598183Y-8532071D01*
X20470852Y-8419266D01*
X20388203Y-8375888D01*
X20326866Y-8343695D01*
X20326862Y-8343693D01*
X20320225Y-8340210D01*
X20312947Y-8338416D01*
X20312944Y-8338415D01*
X20162337Y-8301294D01*
X20162332Y-8301293D01*
X20155056Y-8299500D01*
X19984944Y-8299500D01*
X19977668Y-8301293D01*
X19977662Y-8301294D01*
X19827055Y-8338415D01*
X19827050Y-8338416D01*
X19819775Y-8340210D01*
X19813140Y-8343692D01*
X19813133Y-8343695D01*
X19675791Y-8415779D01*
X19675788Y-8415780D01*
X19669148Y-8419266D01*
X19663537Y-8424236D01*
X19663531Y-8424241D01*
X19554413Y-8520912D01*
X19541817Y-8532071D01*
X19537559Y-8538239D01*
X19537556Y-8538243D01*
X19522049Y-8560709D01*
X19477625Y-8600065D01*
X19420000Y-8614268D01*
X19362375Y-8600065D01*
X19317951Y-8560709D01*
X19302443Y-8538243D01*
X19298183Y-8532071D01*
X19170852Y-8419266D01*
X19088203Y-8375888D01*
X19026866Y-8343695D01*
X19026862Y-8343693D01*
X19020225Y-8340210D01*
X19012947Y-8338416D01*
X19012944Y-8338415D01*
X18862337Y-8301294D01*
X18862332Y-8301293D01*
X18855056Y-8299500D01*
X18684944Y-8299500D01*
X18677668Y-8301293D01*
X18677662Y-8301294D01*
X18527055Y-8338415D01*
X18527050Y-8338416D01*
X18519775Y-8340210D01*
X18513140Y-8343692D01*
X18513133Y-8343695D01*
X18375791Y-8415779D01*
X18375788Y-8415780D01*
X18369148Y-8419266D01*
X18363537Y-8424236D01*
X18363531Y-8424241D01*
X18254413Y-8520912D01*
X18241817Y-8532071D01*
X18237562Y-8538235D01*
X18237557Y-8538241D01*
X18149445Y-8665893D01*
X18149442Y-8665897D01*
X18145182Y-8672070D01*
X18142523Y-8679081D01*
X18142520Y-8679087D01*
X18087520Y-8824111D01*
X18087517Y-8824119D01*
X18084860Y-8831128D01*
X18083956Y-8838570D01*
X18083955Y-8838576D01*
X18070000Y-8953509D01*
X18064355Y-9000000D01*
X500Y-9000000D01*
X500Y-8200000D01*
X10994355Y-8200000D01*
X10995259Y-8207445D01*
X11013955Y-8361423D01*
X11013956Y-8361427D01*
X11014860Y-8368872D01*
X11017518Y-8375882D01*
X11017520Y-8375888D01*
X11035858Y-8424241D01*
X11075182Y-8527930D01*
X11079444Y-8534105D01*
X11079445Y-8534106D01*
X11124973Y-8600065D01*
X11171817Y-8667929D01*
X11299148Y-8780734D01*
X11449775Y-8859790D01*
X11614944Y-8900500D01*
X11777556Y-8900500D01*
X11785056Y-8900500D01*
X11950225Y-8859790D01*
X12100852Y-8780734D01*
X12228183Y-8667929D01*
X12324818Y-8527930D01*
X12385140Y-8368872D01*
X12405645Y-8200000D01*
X12385140Y-8031128D01*
X12324818Y-7872070D01*
X12228183Y-7732071D01*
X12100852Y-7619266D01*
X12075823Y-7606129D01*
X11956866Y-7543695D01*
X11956862Y-7543693D01*
X11950225Y-7540210D01*
X11942947Y-7538416D01*
X11942944Y-7538415D01*
X11792337Y-7501294D01*
X11792332Y-7501293D01*
X11785056Y-7499500D01*
X11614944Y-7499500D01*
X11607668Y-7501293D01*
X11607662Y-7501294D01*
X11457055Y-7538415D01*
X11457050Y-7538416D01*
X11449775Y-7540210D01*
X11443140Y-7543692D01*
X11443133Y-7543695D01*
X11305791Y-7615779D01*
X11305788Y-7615780D01*
X11299148Y-7619266D01*
X11293537Y-7624236D01*
X11293531Y-7624241D01*
X11177430Y-7727098D01*
X11171817Y-7732071D01*
X11167562Y-7738235D01*
X11167557Y-7738241D01*
X11079445Y-7865893D01*
X11079442Y-7865897D01*
X11075182Y-7872070D01*
X11072523Y-7879081D01*
X11072520Y-7879087D01*
X11017520Y-8024111D01*
X11017517Y-8024119D01*
X11014860Y-8031128D01*
X11013956Y-8038570D01*
X11013955Y-8038576D01*
X10995356Y-8191755D01*
X10994355Y-8200000D01*
X500Y-8200000D01*
X500Y-7200000D01*
X21994355Y-7200000D01*
X21995259Y-7207445D01*
X22013955Y-7361423D01*
X22013956Y-7361427D01*
X22014860Y-7368872D01*
X22017518Y-7375882D01*
X22017520Y-7375888D01*
X22064400Y-7499500D01*
X22075182Y-7527930D01*
X22171817Y-7667929D01*
X22299148Y-7780734D01*
X22449775Y-7859790D01*
X22614944Y-7900500D01*
X22777556Y-7900500D01*
X22785056Y-7900500D01*
X22950225Y-7859790D01*
X23100852Y-7780734D01*
X23228183Y-7667929D01*
X23324818Y-7527930D01*
X23385140Y-7368872D01*
X23405645Y-7200000D01*
X23385140Y-7031128D01*
X23324818Y-6872070D01*
X23228183Y-6732071D01*
X23100852Y-6619266D01*
X23075823Y-6606129D01*
X22956866Y-6543695D01*
X22956862Y-6543693D01*
X22950225Y-6540210D01*
X22942947Y-6538416D01*
X22942944Y-6538415D01*
X22792337Y-6501294D01*
X22792332Y-6501293D01*
X22785056Y-6499500D01*
X22614944Y-6499500D01*
X22607668Y-6501293D01*
X22607662Y-6501294D01*
X22457055Y-6538415D01*
X22457050Y-6538416D01*
X22449775Y-6540210D01*
X22443140Y-6543692D01*
X22443133Y-6543695D01*
X22305791Y-6615779D01*
X22305788Y-6615780D01*
X22299148Y-6619266D01*
X22293537Y-6624236D01*
X22293531Y-6624241D01*
X22177430Y-6727098D01*
X22171817Y-6732071D01*
X22167562Y-6738235D01*
X22167557Y-6738241D01*
X22079445Y-6865893D01*
X22079442Y-6865897D01*
X22075182Y-6872070D01*
X22072523Y-6879081D01*
X22072520Y-6879087D01*
X22017520Y-7024111D01*
X22017517Y-7024119D01*
X22014860Y-7031128D01*
X22013956Y-7038570D01*
X22013955Y-7038576D01*
X21995356Y-7191755D01*
X21994355Y-7200000D01*
X500Y-7200000D01*
X500Y-3000000D01*
X844341Y-3000000D01*
X864937Y-3235408D01*
X866336Y-3240630D01*
X866337Y-3240634D01*
X924694Y-3458430D01*
X924697Y-3458438D01*
X926097Y-3463663D01*
X1025965Y-3677829D01*
X1161505Y-3871401D01*
X1328599Y-4038495D01*
X1522171Y-4174035D01*
X1736337Y-4273903D01*
X1964592Y-4335063D01*
X2141034Y-4350500D01*
X2256258Y-4350500D01*
X2258966Y-4350500D01*
X2435408Y-4335063D01*
X2663663Y-4273903D01*
X2877829Y-4174035D01*
X3071401Y-4038495D01*
X3238495Y-3871401D01*
X3374035Y-3677830D01*
X3473903Y-3463663D01*
X3535063Y-3235408D01*
X3555659Y-3000000D01*
X48544341Y-3000000D01*
X48564937Y-3235408D01*
X48566336Y-3240630D01*
X48566337Y-3240634D01*
X48624694Y-3458430D01*
X48624697Y-3458438D01*
X48626097Y-3463663D01*
X48725965Y-3677829D01*
X48861505Y-3871401D01*
X49028599Y-4038495D01*
X49222171Y-4174035D01*
X49436337Y-4273903D01*
X49664592Y-4335063D01*
X49841034Y-4350500D01*
X49956258Y-4350500D01*
X49958966Y-4350500D01*
X50135408Y-4335063D01*
X50363663Y-4273903D01*
X50577829Y-4174035D01*
X50771401Y-4038495D01*
X50938495Y-3871401D01*
X51074035Y-3677830D01*
X51173903Y-3463663D01*
X51235063Y-3235408D01*
X51255659Y-3000000D01*
X51235063Y-2764592D01*
X51173903Y-2536337D01*
X51074035Y-2322171D01*
X50938495Y-2128599D01*
X50771401Y-1961505D01*
X50577829Y-1825965D01*
X50363663Y-1726097D01*
X50358438Y-1724697D01*
X50358430Y-1724694D01*
X50140634Y-1666337D01*
X50140630Y-1666336D01*
X50135408Y-1664937D01*
X50130020Y-1664465D01*
X50130017Y-1664465D01*
X49961664Y-1649736D01*
X49961662Y-1649735D01*
X49958966Y-1649500D01*
X49841034Y-1649500D01*
X49838338Y-1649735D01*
X49838335Y-1649736D01*
X49669982Y-1664465D01*
X49669977Y-1664465D01*
X49664592Y-1664937D01*
X49659371Y-1666335D01*
X49659365Y-1666337D01*
X49441569Y-1724694D01*
X49441557Y-1724698D01*
X49436337Y-1726097D01*
X49431432Y-1728383D01*
X49431427Y-1728386D01*
X49227081Y-1823675D01*
X49227077Y-1823677D01*
X49222171Y-1825965D01*
X49217738Y-1829068D01*
X49217731Y-1829073D01*
X49033034Y-1958399D01*
X49033029Y-1958402D01*
X49028599Y-1961505D01*
X49024775Y-1965328D01*
X49024769Y-1965334D01*
X48865336Y-2124767D01*
X48865330Y-2124773D01*
X48861505Y-2128599D01*
X48858406Y-2133023D01*
X48858399Y-2133033D01*
X48729066Y-2317740D01*
X48729061Y-2317747D01*
X48725965Y-2322170D01*
X48723683Y-2327061D01*
X48723678Y-2327072D01*
X48628386Y-2531427D01*
X48628383Y-2531432D01*
X48626097Y-2536337D01*
X48624698Y-2541557D01*
X48624694Y-2541569D01*
X48566337Y-2759365D01*
X48566335Y-2759371D01*
X48564937Y-2764592D01*
X48544341Y-3000000D01*
X3555659Y-3000000D01*
X3535063Y-2764592D01*
X3473903Y-2536337D01*
X3374035Y-2322171D01*
X3238495Y-2128599D01*
X3071401Y-1961505D01*
X2877829Y-1825965D01*
X2663663Y-1726097D01*
X2658438Y-1724697D01*
X2658430Y-1724694D01*
X2440634Y-1666337D01*
X2440630Y-1666336D01*
X2435408Y-1664937D01*
X2430020Y-1664465D01*
X2430017Y-1664465D01*
X2261664Y-1649736D01*
X2261662Y-1649735D01*
X2258966Y-1649500D01*
X2141034Y-1649500D01*
X2138338Y-1649735D01*
X2138335Y-1649736D01*
X1969982Y-1664465D01*
X1969977Y-1664465D01*
X1964592Y-1664937D01*
X1959371Y-1666335D01*
X1959365Y-1666337D01*
X1741569Y-1724694D01*
X1741557Y-1724698D01*
X1736337Y-1726097D01*
X1731432Y-1728383D01*
X1731427Y-1728386D01*
X1527081Y-1823675D01*
X1527077Y-1823677D01*
X1522171Y-1825965D01*
X1517738Y-1829068D01*
X1517731Y-1829073D01*
X1333034Y-1958399D01*
X1333029Y-1958402D01*
X1328599Y-1961505D01*
X1324775Y-1965328D01*
X1324769Y-1965334D01*
X1165336Y-2124767D01*
X1165330Y-2124773D01*
X1161505Y-2128599D01*
X1158406Y-2133023D01*
X1158399Y-2133033D01*
X1029066Y-2317740D01*
X1029061Y-2317747D01*
X1025965Y-2322170D01*
X1023683Y-2327061D01*
X1023678Y-2327072D01*
X928386Y-2531427D01*
X928383Y-2531432D01*
X926097Y-2536337D01*
X924698Y-2541557D01*
X924694Y-2541569D01*
X866337Y-2759365D01*
X866335Y-2759371D01*
X864937Y-2764592D01*
X844341Y-3000000D01*
X500Y-3000000D01*
X500Y-124500D01*
X17113Y-62500D01*
X62500Y-17113D01*
X124500Y-500D01*
X52075500Y-500D01*
X52137500Y-17113D01*
G37*
%TD.AperFunction*%
%TD*%
M02*
