%TF.GenerationSoftware,KiCad,Pcbnew,8.0.1*%
%TF.CreationDate,2024-04-13T18:18:34+03:00*%
%TF.ProjectId,mains-detector,6d61696e-732d-4646-9574-6563746f722e,rev?*%
%TF.SameCoordinates,Original*%
%TF.FileFunction,Drillmap*%
%TF.FilePolarity,Positive*%
%FSLAX45Y45*%
G04 Gerber Fmt 4.5, Leading zero omitted, Abs format (unit mm)*
G04 Created by KiCad (PCBNEW 8.0.1) date 2024-04-13 18:18:34*
%MOMM*%
%LPD*%
G01*
G04 APERTURE LIST*
%ADD10C,0.100000*%
%ADD11C,0.200000*%
%ADD12C,0.220000*%
G04 APERTURE END LIST*
D10*
X0Y0D02*
X5220000Y0D01*
X5220000Y-3080000D01*
X0Y-3080000D01*
X0Y0D01*
D11*
D12*
X110000Y-190000D02*
X330000Y-410000D01*
X330000Y-190000D02*
X110000Y-410000D01*
X110000Y-2700000D02*
X330000Y-2920000D01*
X330000Y-2700000D02*
X110000Y-2920000D01*
X4880000Y-190000D02*
X5100000Y-410000D01*
X5100000Y-190000D02*
X4880000Y-410000D01*
X4880000Y-2700000D02*
X5100000Y-2920000D01*
X5100000Y-2700000D02*
X4880000Y-2920000D01*
D11*
X255777Y-3396484D02*
X255777Y-3196484D01*
X255777Y-3196484D02*
X303396Y-3196484D01*
X303396Y-3196484D02*
X331967Y-3206008D01*
X331967Y-3206008D02*
X351015Y-3225055D01*
X351015Y-3225055D02*
X360539Y-3244103D01*
X360539Y-3244103D02*
X370062Y-3282198D01*
X370062Y-3282198D02*
X370062Y-3310769D01*
X370062Y-3310769D02*
X360539Y-3348865D01*
X360539Y-3348865D02*
X351015Y-3367912D01*
X351015Y-3367912D02*
X331967Y-3386960D01*
X331967Y-3386960D02*
X303396Y-3396484D01*
X303396Y-3396484D02*
X255777Y-3396484D01*
X455777Y-3396484D02*
X455777Y-3263150D01*
X455777Y-3301246D02*
X465301Y-3282198D01*
X465301Y-3282198D02*
X474824Y-3272674D01*
X474824Y-3272674D02*
X493872Y-3263150D01*
X493872Y-3263150D02*
X512920Y-3263150D01*
X579586Y-3396484D02*
X579586Y-3263150D01*
X579586Y-3196484D02*
X570063Y-3206008D01*
X570063Y-3206008D02*
X579586Y-3215531D01*
X579586Y-3215531D02*
X589110Y-3206008D01*
X589110Y-3206008D02*
X579586Y-3196484D01*
X579586Y-3196484D02*
X579586Y-3215531D01*
X703396Y-3396484D02*
X684348Y-3386960D01*
X684348Y-3386960D02*
X674824Y-3367912D01*
X674824Y-3367912D02*
X674824Y-3196484D01*
X808158Y-3396484D02*
X789110Y-3386960D01*
X789110Y-3386960D02*
X779586Y-3367912D01*
X779586Y-3367912D02*
X779586Y-3196484D01*
X1036729Y-3396484D02*
X1036729Y-3196484D01*
X1036729Y-3196484D02*
X1103396Y-3339341D01*
X1103396Y-3339341D02*
X1170063Y-3196484D01*
X1170063Y-3196484D02*
X1170063Y-3396484D01*
X1351015Y-3396484D02*
X1351015Y-3291722D01*
X1351015Y-3291722D02*
X1341491Y-3272674D01*
X1341491Y-3272674D02*
X1322444Y-3263150D01*
X1322444Y-3263150D02*
X1284348Y-3263150D01*
X1284348Y-3263150D02*
X1265301Y-3272674D01*
X1351015Y-3386960D02*
X1331967Y-3396484D01*
X1331967Y-3396484D02*
X1284348Y-3396484D01*
X1284348Y-3396484D02*
X1265301Y-3386960D01*
X1265301Y-3386960D02*
X1255777Y-3367912D01*
X1255777Y-3367912D02*
X1255777Y-3348865D01*
X1255777Y-3348865D02*
X1265301Y-3329817D01*
X1265301Y-3329817D02*
X1284348Y-3320293D01*
X1284348Y-3320293D02*
X1331967Y-3320293D01*
X1331967Y-3320293D02*
X1351015Y-3310769D01*
X1446253Y-3263150D02*
X1446253Y-3463150D01*
X1446253Y-3272674D02*
X1465301Y-3263150D01*
X1465301Y-3263150D02*
X1503396Y-3263150D01*
X1503396Y-3263150D02*
X1522443Y-3272674D01*
X1522443Y-3272674D02*
X1531967Y-3282198D01*
X1531967Y-3282198D02*
X1541491Y-3301246D01*
X1541491Y-3301246D02*
X1541491Y-3358388D01*
X1541491Y-3358388D02*
X1531967Y-3377436D01*
X1531967Y-3377436D02*
X1522443Y-3386960D01*
X1522443Y-3386960D02*
X1503396Y-3396484D01*
X1503396Y-3396484D02*
X1465301Y-3396484D01*
X1465301Y-3396484D02*
X1446253Y-3386960D01*
X1627205Y-3377436D02*
X1636729Y-3386960D01*
X1636729Y-3386960D02*
X1627205Y-3396484D01*
X1627205Y-3396484D02*
X1617682Y-3386960D01*
X1617682Y-3386960D02*
X1627205Y-3377436D01*
X1627205Y-3377436D02*
X1627205Y-3396484D01*
X1627205Y-3272674D02*
X1636729Y-3282198D01*
X1636729Y-3282198D02*
X1627205Y-3291722D01*
X1627205Y-3291722D02*
X1617682Y-3282198D01*
X1617682Y-3282198D02*
X1627205Y-3272674D01*
X1627205Y-3272674D02*
X1627205Y-3291722D01*
X-205000Y-3625000D02*
X-5000Y-3825000D01*
X-5000Y-3625000D02*
X-205000Y-3825000D01*
X246253Y-3635531D02*
X255777Y-3626008D01*
X255777Y-3626008D02*
X274824Y-3616484D01*
X274824Y-3616484D02*
X322444Y-3616484D01*
X322444Y-3616484D02*
X341491Y-3626008D01*
X341491Y-3626008D02*
X351015Y-3635531D01*
X351015Y-3635531D02*
X360539Y-3654579D01*
X360539Y-3654579D02*
X360539Y-3673627D01*
X360539Y-3673627D02*
X351015Y-3702198D01*
X351015Y-3702198D02*
X236729Y-3816484D01*
X236729Y-3816484D02*
X360539Y-3816484D01*
X446253Y-3797436D02*
X455777Y-3806960D01*
X455777Y-3806960D02*
X446253Y-3816484D01*
X446253Y-3816484D02*
X436729Y-3806960D01*
X436729Y-3806960D02*
X446253Y-3797436D01*
X446253Y-3797436D02*
X446253Y-3816484D01*
X531967Y-3635531D02*
X541491Y-3626008D01*
X541491Y-3626008D02*
X560539Y-3616484D01*
X560539Y-3616484D02*
X608158Y-3616484D01*
X608158Y-3616484D02*
X627205Y-3626008D01*
X627205Y-3626008D02*
X636729Y-3635531D01*
X636729Y-3635531D02*
X646253Y-3654579D01*
X646253Y-3654579D02*
X646253Y-3673627D01*
X646253Y-3673627D02*
X636729Y-3702198D01*
X636729Y-3702198D02*
X522443Y-3816484D01*
X522443Y-3816484D02*
X646253Y-3816484D01*
X770062Y-3616484D02*
X789110Y-3616484D01*
X789110Y-3616484D02*
X808158Y-3626008D01*
X808158Y-3626008D02*
X817682Y-3635531D01*
X817682Y-3635531D02*
X827205Y-3654579D01*
X827205Y-3654579D02*
X836729Y-3692674D01*
X836729Y-3692674D02*
X836729Y-3740293D01*
X836729Y-3740293D02*
X827205Y-3778388D01*
X827205Y-3778388D02*
X817682Y-3797436D01*
X817682Y-3797436D02*
X808158Y-3806960D01*
X808158Y-3806960D02*
X789110Y-3816484D01*
X789110Y-3816484D02*
X770062Y-3816484D01*
X770062Y-3816484D02*
X751015Y-3806960D01*
X751015Y-3806960D02*
X741491Y-3797436D01*
X741491Y-3797436D02*
X731967Y-3778388D01*
X731967Y-3778388D02*
X722443Y-3740293D01*
X722443Y-3740293D02*
X722443Y-3692674D01*
X722443Y-3692674D02*
X731967Y-3654579D01*
X731967Y-3654579D02*
X741491Y-3635531D01*
X741491Y-3635531D02*
X751015Y-3626008D01*
X751015Y-3626008D02*
X770062Y-3616484D01*
X960539Y-3616484D02*
X979586Y-3616484D01*
X979586Y-3616484D02*
X998634Y-3626008D01*
X998634Y-3626008D02*
X1008158Y-3635531D01*
X1008158Y-3635531D02*
X1017682Y-3654579D01*
X1017682Y-3654579D02*
X1027205Y-3692674D01*
X1027205Y-3692674D02*
X1027205Y-3740293D01*
X1027205Y-3740293D02*
X1017682Y-3778388D01*
X1017682Y-3778388D02*
X1008158Y-3797436D01*
X1008158Y-3797436D02*
X998634Y-3806960D01*
X998634Y-3806960D02*
X979586Y-3816484D01*
X979586Y-3816484D02*
X960539Y-3816484D01*
X960539Y-3816484D02*
X941491Y-3806960D01*
X941491Y-3806960D02*
X931967Y-3797436D01*
X931967Y-3797436D02*
X922443Y-3778388D01*
X922443Y-3778388D02*
X912920Y-3740293D01*
X912920Y-3740293D02*
X912920Y-3692674D01*
X912920Y-3692674D02*
X922443Y-3654579D01*
X922443Y-3654579D02*
X931967Y-3635531D01*
X931967Y-3635531D02*
X941491Y-3626008D01*
X941491Y-3626008D02*
X960539Y-3616484D01*
X1112920Y-3816484D02*
X1112920Y-3683150D01*
X1112920Y-3702198D02*
X1122444Y-3692674D01*
X1122444Y-3692674D02*
X1141491Y-3683150D01*
X1141491Y-3683150D02*
X1170063Y-3683150D01*
X1170063Y-3683150D02*
X1189110Y-3692674D01*
X1189110Y-3692674D02*
X1198634Y-3711722D01*
X1198634Y-3711722D02*
X1198634Y-3816484D01*
X1198634Y-3711722D02*
X1208158Y-3692674D01*
X1208158Y-3692674D02*
X1227205Y-3683150D01*
X1227205Y-3683150D02*
X1255777Y-3683150D01*
X1255777Y-3683150D02*
X1274825Y-3692674D01*
X1274825Y-3692674D02*
X1284348Y-3711722D01*
X1284348Y-3711722D02*
X1284348Y-3816484D01*
X1379586Y-3816484D02*
X1379586Y-3683150D01*
X1379586Y-3702198D02*
X1389110Y-3692674D01*
X1389110Y-3692674D02*
X1408158Y-3683150D01*
X1408158Y-3683150D02*
X1436729Y-3683150D01*
X1436729Y-3683150D02*
X1455777Y-3692674D01*
X1455777Y-3692674D02*
X1465301Y-3711722D01*
X1465301Y-3711722D02*
X1465301Y-3816484D01*
X1465301Y-3711722D02*
X1474824Y-3692674D01*
X1474824Y-3692674D02*
X1493872Y-3683150D01*
X1493872Y-3683150D02*
X1522443Y-3683150D01*
X1522443Y-3683150D02*
X1541491Y-3692674D01*
X1541491Y-3692674D02*
X1551015Y-3711722D01*
X1551015Y-3711722D02*
X1551015Y-3816484D01*
X1941491Y-3606960D02*
X1770063Y-3864103D01*
X2198634Y-3616484D02*
X2217682Y-3616484D01*
X2217682Y-3616484D02*
X2236729Y-3626008D01*
X2236729Y-3626008D02*
X2246253Y-3635531D01*
X2246253Y-3635531D02*
X2255777Y-3654579D01*
X2255777Y-3654579D02*
X2265301Y-3692674D01*
X2265301Y-3692674D02*
X2265301Y-3740293D01*
X2265301Y-3740293D02*
X2255777Y-3778388D01*
X2255777Y-3778388D02*
X2246253Y-3797436D01*
X2246253Y-3797436D02*
X2236729Y-3806960D01*
X2236729Y-3806960D02*
X2217682Y-3816484D01*
X2217682Y-3816484D02*
X2198634Y-3816484D01*
X2198634Y-3816484D02*
X2179587Y-3806960D01*
X2179587Y-3806960D02*
X2170063Y-3797436D01*
X2170063Y-3797436D02*
X2160539Y-3778388D01*
X2160539Y-3778388D02*
X2151015Y-3740293D01*
X2151015Y-3740293D02*
X2151015Y-3692674D01*
X2151015Y-3692674D02*
X2160539Y-3654579D01*
X2160539Y-3654579D02*
X2170063Y-3635531D01*
X2170063Y-3635531D02*
X2179587Y-3626008D01*
X2179587Y-3626008D02*
X2198634Y-3616484D01*
X2351015Y-3797436D02*
X2360539Y-3806960D01*
X2360539Y-3806960D02*
X2351015Y-3816484D01*
X2351015Y-3816484D02*
X2341491Y-3806960D01*
X2341491Y-3806960D02*
X2351015Y-3797436D01*
X2351015Y-3797436D02*
X2351015Y-3816484D01*
X2484348Y-3616484D02*
X2503396Y-3616484D01*
X2503396Y-3616484D02*
X2522444Y-3626008D01*
X2522444Y-3626008D02*
X2531968Y-3635531D01*
X2531968Y-3635531D02*
X2541491Y-3654579D01*
X2541491Y-3654579D02*
X2551015Y-3692674D01*
X2551015Y-3692674D02*
X2551015Y-3740293D01*
X2551015Y-3740293D02*
X2541491Y-3778388D01*
X2541491Y-3778388D02*
X2531968Y-3797436D01*
X2531968Y-3797436D02*
X2522444Y-3806960D01*
X2522444Y-3806960D02*
X2503396Y-3816484D01*
X2503396Y-3816484D02*
X2484348Y-3816484D01*
X2484348Y-3816484D02*
X2465301Y-3806960D01*
X2465301Y-3806960D02*
X2455777Y-3797436D01*
X2455777Y-3797436D02*
X2446253Y-3778388D01*
X2446253Y-3778388D02*
X2436729Y-3740293D01*
X2436729Y-3740293D02*
X2436729Y-3692674D01*
X2436729Y-3692674D02*
X2446253Y-3654579D01*
X2446253Y-3654579D02*
X2455777Y-3635531D01*
X2455777Y-3635531D02*
X2465301Y-3626008D01*
X2465301Y-3626008D02*
X2484348Y-3616484D01*
X2665301Y-3702198D02*
X2646253Y-3692674D01*
X2646253Y-3692674D02*
X2636729Y-3683150D01*
X2636729Y-3683150D02*
X2627206Y-3664103D01*
X2627206Y-3664103D02*
X2627206Y-3654579D01*
X2627206Y-3654579D02*
X2636729Y-3635531D01*
X2636729Y-3635531D02*
X2646253Y-3626008D01*
X2646253Y-3626008D02*
X2665301Y-3616484D01*
X2665301Y-3616484D02*
X2703396Y-3616484D01*
X2703396Y-3616484D02*
X2722444Y-3626008D01*
X2722444Y-3626008D02*
X2731968Y-3635531D01*
X2731968Y-3635531D02*
X2741491Y-3654579D01*
X2741491Y-3654579D02*
X2741491Y-3664103D01*
X2741491Y-3664103D02*
X2731968Y-3683150D01*
X2731968Y-3683150D02*
X2722444Y-3692674D01*
X2722444Y-3692674D02*
X2703396Y-3702198D01*
X2703396Y-3702198D02*
X2665301Y-3702198D01*
X2665301Y-3702198D02*
X2646253Y-3711722D01*
X2646253Y-3711722D02*
X2636729Y-3721246D01*
X2636729Y-3721246D02*
X2627206Y-3740293D01*
X2627206Y-3740293D02*
X2627206Y-3778388D01*
X2627206Y-3778388D02*
X2636729Y-3797436D01*
X2636729Y-3797436D02*
X2646253Y-3806960D01*
X2646253Y-3806960D02*
X2665301Y-3816484D01*
X2665301Y-3816484D02*
X2703396Y-3816484D01*
X2703396Y-3816484D02*
X2722444Y-3806960D01*
X2722444Y-3806960D02*
X2731968Y-3797436D01*
X2731968Y-3797436D02*
X2741491Y-3778388D01*
X2741491Y-3778388D02*
X2741491Y-3740293D01*
X2741491Y-3740293D02*
X2731968Y-3721246D01*
X2731968Y-3721246D02*
X2722444Y-3711722D01*
X2722444Y-3711722D02*
X2703396Y-3702198D01*
X2912920Y-3616484D02*
X2874825Y-3616484D01*
X2874825Y-3616484D02*
X2855777Y-3626008D01*
X2855777Y-3626008D02*
X2846253Y-3635531D01*
X2846253Y-3635531D02*
X2827206Y-3664103D01*
X2827206Y-3664103D02*
X2817682Y-3702198D01*
X2817682Y-3702198D02*
X2817682Y-3778388D01*
X2817682Y-3778388D02*
X2827206Y-3797436D01*
X2827206Y-3797436D02*
X2836729Y-3806960D01*
X2836729Y-3806960D02*
X2855777Y-3816484D01*
X2855777Y-3816484D02*
X2893872Y-3816484D01*
X2893872Y-3816484D02*
X2912920Y-3806960D01*
X2912920Y-3806960D02*
X2922444Y-3797436D01*
X2922444Y-3797436D02*
X2931967Y-3778388D01*
X2931967Y-3778388D02*
X2931967Y-3730769D01*
X2931967Y-3730769D02*
X2922444Y-3711722D01*
X2922444Y-3711722D02*
X2912920Y-3702198D01*
X2912920Y-3702198D02*
X2893872Y-3692674D01*
X2893872Y-3692674D02*
X2855777Y-3692674D01*
X2855777Y-3692674D02*
X2836729Y-3702198D01*
X2836729Y-3702198D02*
X2827206Y-3711722D01*
X2827206Y-3711722D02*
X2817682Y-3730769D01*
X3103396Y-3616484D02*
X3065301Y-3616484D01*
X3065301Y-3616484D02*
X3046253Y-3626008D01*
X3046253Y-3626008D02*
X3036729Y-3635531D01*
X3036729Y-3635531D02*
X3017682Y-3664103D01*
X3017682Y-3664103D02*
X3008158Y-3702198D01*
X3008158Y-3702198D02*
X3008158Y-3778388D01*
X3008158Y-3778388D02*
X3017682Y-3797436D01*
X3017682Y-3797436D02*
X3027206Y-3806960D01*
X3027206Y-3806960D02*
X3046253Y-3816484D01*
X3046253Y-3816484D02*
X3084348Y-3816484D01*
X3084348Y-3816484D02*
X3103396Y-3806960D01*
X3103396Y-3806960D02*
X3112920Y-3797436D01*
X3112920Y-3797436D02*
X3122444Y-3778388D01*
X3122444Y-3778388D02*
X3122444Y-3730769D01*
X3122444Y-3730769D02*
X3112920Y-3711722D01*
X3112920Y-3711722D02*
X3103396Y-3702198D01*
X3103396Y-3702198D02*
X3084348Y-3692674D01*
X3084348Y-3692674D02*
X3046253Y-3692674D01*
X3046253Y-3692674D02*
X3027206Y-3702198D01*
X3027206Y-3702198D02*
X3017682Y-3711722D01*
X3017682Y-3711722D02*
X3008158Y-3730769D01*
X3198634Y-3616484D02*
X3198634Y-3654579D01*
X3274825Y-3616484D02*
X3274825Y-3654579D01*
X3570063Y-3892674D02*
X3560539Y-3883150D01*
X3560539Y-3883150D02*
X3541491Y-3854579D01*
X3541491Y-3854579D02*
X3531968Y-3835531D01*
X3531968Y-3835531D02*
X3522444Y-3806960D01*
X3522444Y-3806960D02*
X3512920Y-3759341D01*
X3512920Y-3759341D02*
X3512920Y-3721246D01*
X3512920Y-3721246D02*
X3522444Y-3673627D01*
X3522444Y-3673627D02*
X3531968Y-3645055D01*
X3531968Y-3645055D02*
X3541491Y-3626008D01*
X3541491Y-3626008D02*
X3560539Y-3597436D01*
X3560539Y-3597436D02*
X3570063Y-3587912D01*
X3731968Y-3683150D02*
X3731968Y-3816484D01*
X3684348Y-3606960D02*
X3636729Y-3749817D01*
X3636729Y-3749817D02*
X3760539Y-3749817D01*
X3989110Y-3816484D02*
X3989110Y-3616484D01*
X4074825Y-3816484D02*
X4074825Y-3711722D01*
X4074825Y-3711722D02*
X4065301Y-3692674D01*
X4065301Y-3692674D02*
X4046253Y-3683150D01*
X4046253Y-3683150D02*
X4017682Y-3683150D01*
X4017682Y-3683150D02*
X3998634Y-3692674D01*
X3998634Y-3692674D02*
X3989110Y-3702198D01*
X4198634Y-3816484D02*
X4179587Y-3806960D01*
X4179587Y-3806960D02*
X4170063Y-3797436D01*
X4170063Y-3797436D02*
X4160539Y-3778388D01*
X4160539Y-3778388D02*
X4160539Y-3721246D01*
X4160539Y-3721246D02*
X4170063Y-3702198D01*
X4170063Y-3702198D02*
X4179587Y-3692674D01*
X4179587Y-3692674D02*
X4198634Y-3683150D01*
X4198634Y-3683150D02*
X4227206Y-3683150D01*
X4227206Y-3683150D02*
X4246253Y-3692674D01*
X4246253Y-3692674D02*
X4255777Y-3702198D01*
X4255777Y-3702198D02*
X4265301Y-3721246D01*
X4265301Y-3721246D02*
X4265301Y-3778388D01*
X4265301Y-3778388D02*
X4255777Y-3797436D01*
X4255777Y-3797436D02*
X4246253Y-3806960D01*
X4246253Y-3806960D02*
X4227206Y-3816484D01*
X4227206Y-3816484D02*
X4198634Y-3816484D01*
X4379587Y-3816484D02*
X4360539Y-3806960D01*
X4360539Y-3806960D02*
X4351015Y-3787912D01*
X4351015Y-3787912D02*
X4351015Y-3616484D01*
X4531968Y-3806960D02*
X4512920Y-3816484D01*
X4512920Y-3816484D02*
X4474825Y-3816484D01*
X4474825Y-3816484D02*
X4455777Y-3806960D01*
X4455777Y-3806960D02*
X4446253Y-3787912D01*
X4446253Y-3787912D02*
X4446253Y-3711722D01*
X4446253Y-3711722D02*
X4455777Y-3692674D01*
X4455777Y-3692674D02*
X4474825Y-3683150D01*
X4474825Y-3683150D02*
X4512920Y-3683150D01*
X4512920Y-3683150D02*
X4531968Y-3692674D01*
X4531968Y-3692674D02*
X4541492Y-3711722D01*
X4541492Y-3711722D02*
X4541492Y-3730769D01*
X4541492Y-3730769D02*
X4446253Y-3749817D01*
X4617682Y-3806960D02*
X4636730Y-3816484D01*
X4636730Y-3816484D02*
X4674825Y-3816484D01*
X4674825Y-3816484D02*
X4693873Y-3806960D01*
X4693873Y-3806960D02*
X4703396Y-3787912D01*
X4703396Y-3787912D02*
X4703396Y-3778388D01*
X4703396Y-3778388D02*
X4693873Y-3759341D01*
X4693873Y-3759341D02*
X4674825Y-3749817D01*
X4674825Y-3749817D02*
X4646253Y-3749817D01*
X4646253Y-3749817D02*
X4627206Y-3740293D01*
X4627206Y-3740293D02*
X4617682Y-3721246D01*
X4617682Y-3721246D02*
X4617682Y-3711722D01*
X4617682Y-3711722D02*
X4627206Y-3692674D01*
X4627206Y-3692674D02*
X4646253Y-3683150D01*
X4646253Y-3683150D02*
X4674825Y-3683150D01*
X4674825Y-3683150D02*
X4693873Y-3692674D01*
X4770063Y-3892674D02*
X4779587Y-3883150D01*
X4779587Y-3883150D02*
X4798634Y-3854579D01*
X4798634Y-3854579D02*
X4808158Y-3835531D01*
X4808158Y-3835531D02*
X4817682Y-3806960D01*
X4817682Y-3806960D02*
X4827206Y-3759341D01*
X4827206Y-3759341D02*
X4827206Y-3721246D01*
X4827206Y-3721246D02*
X4817682Y-3673627D01*
X4817682Y-3673627D02*
X4808158Y-3645055D01*
X4808158Y-3645055D02*
X4798634Y-3626008D01*
X4798634Y-3626008D02*
X4779587Y-3597436D01*
X4779587Y-3597436D02*
X4770063Y-3587912D01*
X5131968Y-3892674D02*
X5122444Y-3883150D01*
X5122444Y-3883150D02*
X5103396Y-3854579D01*
X5103396Y-3854579D02*
X5093873Y-3835531D01*
X5093873Y-3835531D02*
X5084349Y-3806960D01*
X5084349Y-3806960D02*
X5074825Y-3759341D01*
X5074825Y-3759341D02*
X5074825Y-3721246D01*
X5074825Y-3721246D02*
X5084349Y-3673627D01*
X5084349Y-3673627D02*
X5093873Y-3645055D01*
X5093873Y-3645055D02*
X5103396Y-3626008D01*
X5103396Y-3626008D02*
X5122444Y-3597436D01*
X5122444Y-3597436D02*
X5131968Y-3587912D01*
X5208158Y-3683150D02*
X5208158Y-3816484D01*
X5208158Y-3702198D02*
X5217682Y-3692674D01*
X5217682Y-3692674D02*
X5236730Y-3683150D01*
X5236730Y-3683150D02*
X5265301Y-3683150D01*
X5265301Y-3683150D02*
X5284349Y-3692674D01*
X5284349Y-3692674D02*
X5293873Y-3711722D01*
X5293873Y-3711722D02*
X5293873Y-3816484D01*
X5417682Y-3816484D02*
X5398634Y-3806960D01*
X5398634Y-3806960D02*
X5389111Y-3797436D01*
X5389111Y-3797436D02*
X5379587Y-3778388D01*
X5379587Y-3778388D02*
X5379587Y-3721246D01*
X5379587Y-3721246D02*
X5389111Y-3702198D01*
X5389111Y-3702198D02*
X5398634Y-3692674D01*
X5398634Y-3692674D02*
X5417682Y-3683150D01*
X5417682Y-3683150D02*
X5446254Y-3683150D01*
X5446254Y-3683150D02*
X5465301Y-3692674D01*
X5465301Y-3692674D02*
X5474825Y-3702198D01*
X5474825Y-3702198D02*
X5484349Y-3721246D01*
X5484349Y-3721246D02*
X5484349Y-3778388D01*
X5484349Y-3778388D02*
X5474825Y-3797436D01*
X5474825Y-3797436D02*
X5465301Y-3806960D01*
X5465301Y-3806960D02*
X5446254Y-3816484D01*
X5446254Y-3816484D02*
X5417682Y-3816484D01*
X5541492Y-3683150D02*
X5617682Y-3683150D01*
X5570063Y-3616484D02*
X5570063Y-3787912D01*
X5570063Y-3787912D02*
X5579587Y-3806960D01*
X5579587Y-3806960D02*
X5598634Y-3816484D01*
X5598634Y-3816484D02*
X5617682Y-3816484D01*
X5836730Y-3683150D02*
X5836730Y-3883150D01*
X5836730Y-3692674D02*
X5855777Y-3683150D01*
X5855777Y-3683150D02*
X5893873Y-3683150D01*
X5893873Y-3683150D02*
X5912920Y-3692674D01*
X5912920Y-3692674D02*
X5922444Y-3702198D01*
X5922444Y-3702198D02*
X5931968Y-3721246D01*
X5931968Y-3721246D02*
X5931968Y-3778388D01*
X5931968Y-3778388D02*
X5922444Y-3797436D01*
X5922444Y-3797436D02*
X5912920Y-3806960D01*
X5912920Y-3806960D02*
X5893873Y-3816484D01*
X5893873Y-3816484D02*
X5855777Y-3816484D01*
X5855777Y-3816484D02*
X5836730Y-3806960D01*
X6046253Y-3816484D02*
X6027206Y-3806960D01*
X6027206Y-3806960D02*
X6017682Y-3787912D01*
X6017682Y-3787912D02*
X6017682Y-3616484D01*
X6208158Y-3816484D02*
X6208158Y-3711722D01*
X6208158Y-3711722D02*
X6198634Y-3692674D01*
X6198634Y-3692674D02*
X6179587Y-3683150D01*
X6179587Y-3683150D02*
X6141492Y-3683150D01*
X6141492Y-3683150D02*
X6122444Y-3692674D01*
X6208158Y-3806960D02*
X6189111Y-3816484D01*
X6189111Y-3816484D02*
X6141492Y-3816484D01*
X6141492Y-3816484D02*
X6122444Y-3806960D01*
X6122444Y-3806960D02*
X6112920Y-3787912D01*
X6112920Y-3787912D02*
X6112920Y-3768865D01*
X6112920Y-3768865D02*
X6122444Y-3749817D01*
X6122444Y-3749817D02*
X6141492Y-3740293D01*
X6141492Y-3740293D02*
X6189111Y-3740293D01*
X6189111Y-3740293D02*
X6208158Y-3730769D01*
X6274825Y-3683150D02*
X6351015Y-3683150D01*
X6303396Y-3616484D02*
X6303396Y-3787912D01*
X6303396Y-3787912D02*
X6312920Y-3806960D01*
X6312920Y-3806960D02*
X6331968Y-3816484D01*
X6331968Y-3816484D02*
X6351015Y-3816484D01*
X6493873Y-3806960D02*
X6474825Y-3816484D01*
X6474825Y-3816484D02*
X6436730Y-3816484D01*
X6436730Y-3816484D02*
X6417682Y-3806960D01*
X6417682Y-3806960D02*
X6408158Y-3787912D01*
X6408158Y-3787912D02*
X6408158Y-3711722D01*
X6408158Y-3711722D02*
X6417682Y-3692674D01*
X6417682Y-3692674D02*
X6436730Y-3683150D01*
X6436730Y-3683150D02*
X6474825Y-3683150D01*
X6474825Y-3683150D02*
X6493873Y-3692674D01*
X6493873Y-3692674D02*
X6503396Y-3711722D01*
X6503396Y-3711722D02*
X6503396Y-3730769D01*
X6503396Y-3730769D02*
X6408158Y-3749817D01*
X6674825Y-3816484D02*
X6674825Y-3616484D01*
X6674825Y-3806960D02*
X6655777Y-3816484D01*
X6655777Y-3816484D02*
X6617682Y-3816484D01*
X6617682Y-3816484D02*
X6598634Y-3806960D01*
X6598634Y-3806960D02*
X6589111Y-3797436D01*
X6589111Y-3797436D02*
X6579587Y-3778388D01*
X6579587Y-3778388D02*
X6579587Y-3721246D01*
X6579587Y-3721246D02*
X6589111Y-3702198D01*
X6589111Y-3702198D02*
X6598634Y-3692674D01*
X6598634Y-3692674D02*
X6617682Y-3683150D01*
X6617682Y-3683150D02*
X6655777Y-3683150D01*
X6655777Y-3683150D02*
X6674825Y-3692674D01*
X6751015Y-3892674D02*
X6760539Y-3883150D01*
X6760539Y-3883150D02*
X6779587Y-3854579D01*
X6779587Y-3854579D02*
X6789111Y-3835531D01*
X6789111Y-3835531D02*
X6798634Y-3806960D01*
X6798634Y-3806960D02*
X6808158Y-3759341D01*
X6808158Y-3759341D02*
X6808158Y-3721246D01*
X6808158Y-3721246D02*
X6798634Y-3673627D01*
X6798634Y-3673627D02*
X6789111Y-3645055D01*
X6789111Y-3645055D02*
X6779587Y-3626008D01*
X6779587Y-3626008D02*
X6760539Y-3597436D01*
X6760539Y-3597436D02*
X6751015Y-3587912D01*
M02*
